<?xml version="1.0" encoding="UTF-8" standalone="no"?>
<svg
   xmlns:dc="http://purl.org/dc/elements/1.1/"
   xmlns:cc="http://creativecommons.org/ns#"
   xmlns:rdf="http://www.w3.org/1999/02/22-rdf-syntax-ns#"
   xmlns:svg="http://www.w3.org/2000/svg"
   xmlns="http://www.w3.org/2000/svg"
   viewBox="0 0 117.56973 40.869202"
   height="40.869202"
   width="117.56973"
   xml:space="preserve"
   id="svg2"
   fill="#1c1e1f"
   version="1.1"><metadata
     id="metadata8"><rdf:RDF><cc:Work
         rdf:about=""><dc:format>image/svg+xml</dc:format><dc:type
           rdf:resource="http://purl.org/dc/dcmitype/StillImage" /></cc:Work></rdf:RDF></metadata><defs
     id="defs6"><clipPath
       id="clipPath18"
       clipPathUnits="userSpaceOnUse"><path
         id="path16"
         d="M 0,30.652 H 88.177 V 0 H 0 Z" /></clipPath></defs><g
     transform="matrix(1.3333333,0,0,-1.3333333,0,40.8692)"
     id="g10"><g
       id="g12"><g
         clip-path="url(#clipPath18)"
         id="g14"><g
           transform="translate(70.4473,1.4268)"
           id="g20"><path
             id="path22"
             style="fill-opacity:1;fill-rule:nonzero;stroke:none"
             d="m 0,0 v -0.062 l 0.08,-0.051 h 0.063 c 0.178,0 0.359,0.002 0.538,0.004 H 0.74 c 0.2,0.002 0.402,0.005 0.606,0.005 0.334,0 0.606,-0.007 0.86,-0.02 L 2.238,-0.125 C 2.292,-0.059 2.292,-0.036 2.292,-0.01 2.281,3.269 2.281,6.549 2.282,9.828 L 2.283,12.535 0.111,12.585 0.049,12.584 0,12.46 0.006,10.076 C 0.01,8.577 0.014,7.079 0.015,5.58 0.015,4.396 0.011,3.212 0.006,2.028 Z" /></g><g
           transform="translate(11.021,15.0396)"
           id="g24"><path
             id="path26"
             style="fill:#1c1e1f;fill-opacity:1;fill-rule:nonzero;stroke:none"
             d="m 0,0 v -1.058 c -1.118,0.735 -2.385,1.108 -3.769,1.108 -1.968,0 -3.679,-0.744 -5.085,-2.212 -1.405,-1.468 -2.117,-3.253 -2.117,-5.307 0,-2.055 0.712,-3.84 2.117,-5.307 1.405,-1.468 3.116,-2.213 5.085,-2.213 1.394,0 2.661,0.364 3.769,1.079 v -1.029 -0.05 H 3.384 L 3.434,0 0.05,0.05 Z m 0.1,-7.469 c 0,-1.114 -0.38,-2.077 -1.128,-2.859 -0.749,-0.782 -1.671,-1.178 -2.741,-1.178 -1.069,0 -1.991,0.396 -2.74,1.179 -0.748,0.781 -1.127,1.743 -1.127,2.858 0,1.115 0.379,2.076 1.127,2.858 0.75,0.782 1.672,1.179 2.74,1.179 1.069,0 1.991,-0.397 2.74,-1.179 C -0.28,-5.393 0.1,-6.355 0.1,-7.469" /></g><g
           transform="translate(30.3896,12.877)"
           id="g28"><path
             id="path30"
             style="fill:#1c1e1f;fill-opacity:1;fill-rule:nonzero;stroke:none"
             d="m 0,0 c -1.406,1.468 -3.117,2.212 -5.085,2.212 -1.384,0 -2.651,-0.372 -3.769,-1.107 v 16.57 0.05 h -3.384 l -0.05,-30.5 3.385,-0.051 c 0.049,0.393 0.049,0.736 0.049,1.079 1.108,-0.716 2.375,-1.079 3.769,-1.079 1.969,0 3.68,0.744 5.085,2.213 1.405,1.467 2.118,3.253 2.118,5.306 C 2.118,-3.253 1.405,-1.467 0,0 m -1.217,-5.307 c 0,-1.115 -0.38,-2.077 -1.128,-2.858 -0.749,-0.781 -1.671,-1.179 -2.74,-1.179 -1.069,0 -1.991,0.398 -2.74,1.179 -0.749,0.781 -1.128,1.743 -1.128,2.858 0,1.115 0.379,2.077 1.128,2.858 0.75,0.782 1.672,1.179 2.74,1.179 1.069,0 1.991,-0.397 2.74,-1.179 0.748,-0.78 1.128,-1.742 1.128,-2.858" /></g><g
           transform="translate(44.7559,5.5527)"
           id="g32"><path
             id="path34"
             style="fill:#1c1e1f;fill-opacity:1;fill-rule:nonzero;stroke:none"
             d="m 0,0 c -0.7,-1.132 -1.882,-1.807 -3.162,-1.807 -2.077,0 -3.768,1.766 -3.768,3.937 0,2.17 1.691,3.936 3.768,3.936 1.28,0 2.462,-0.675 3.162,-1.807 L 0.015,4.236 H 3.687 3.752 L 3.734,4.3 c -0.908,3.149 -3.744,5.349 -6.896,5.349 -3.971,0 -7.202,-3.373 -7.202,-7.519 0,-4.147 3.231,-7.52 7.202,-7.52 3.152,0 5.988,2.2 6.896,5.35 L 3.752,0.024 H 3.687 0.042 Z" /></g><g
           transform="translate(67.8291,13.9902)"
           id="g36"><path
             id="path38"
             style="fill-opacity:1;fill-rule:nonzero;stroke:none"
             d="m 0,0 h -2.583 c -1.819,-2.651 -3.595,-5.279 -5.372,-7.908 -1.777,2.629 -3.553,5.257 -5.33,7.886 L -13.3,0 h -2.61 l -0.05,-12.636 2.234,-0.05 c 0.05,2.907 0.05,5.765 0.05,8.622 1.894,-2.684 3.787,-5.368 5.68,-8.052 l 0.041,-0.058 c 1.934,2.742 3.827,5.426 5.721,8.11 v -8.572 -0.05 H 0 L 0.05,-0.05 Z" /></g><g
           transform="translate(80.6816,10.8203)"
           id="g40"><path
             id="path42"
             style="fill-opacity:1;fill-rule:nonzero;stroke:none"
             d="m 0,0 -2.44,3.145 -2.849,0.019 h -0.103 l 0.063,-0.081 3.846,-4.954 h 0.079 L 0,-0.062 Z" /></g><g
           transform="translate(83.0664,7.749)"
           id="g44"><path
             id="path46"
             style="fill-opacity:1;fill-rule:nonzero;stroke:none"
             d="M 0,0 C 1.592,2.052 3.185,4.104 4.777,6.154 L 4.84,6.235 H 4.738 1.928 L -1.508,1.841 -2.913,0.031 -7.883,-6.37 -7.945,-6.451 h 0.102 2.809 c 1.215,1.532 2.39,3.047 3.566,4.56 L 2.058,-6.433 2.073,-6.451 H 4.907 5.009 L 4.946,-6.37 C 3.297,-4.246 1.648,-2.123 0,0" /></g></g></g></g></svg>