
<svg
   xmlns:dc="http://purl.org/dc/elements/1.1/"
   xmlns:cc="http://creativecommons.org/ns#"
   xmlns:rdf="http://www.w3.org/1999/02/22-rdf-syntax-ns#"
   xmlns:svg="http://www.w3.org/2000/svg"
   xmlns="http://www.w3.org/2000/svg"
   viewBox="0 0 116.70097 108.61787"
   height="108.61787"
   width="116.70097"
   xml:space="preserve"
   id="svg2"
   version="1.1"><metadata
     id="metadata8"><rdf:RDF><cc:Work
         rdf:about=""><dc:format>image/svg+xml</dc:format><dc:type
           rdf:resource="http://purl.org/dc/dcmitype/StillImage" /></cc:Work></rdf:RDF></metadata><defs
     id="defs6"><clipPath
       id="clipPath18"
       clipPathUnits="userSpaceOnUse"><path
         id="path16"
         d="M 0,81.464 H 87.526 V 0 H 0 Z" /></clipPath></defs><g
     transform="matrix(1.3333333,0,0,-1.3333333,0,108.61826)"
     id="g10"><g
       id="g12"><g
         clip-path="url(#clipPath18)"
         id="g14"><g
           transform="translate(61.0831,0.6502)"
           id="g20"><path
             id="path22"
             style="fill:#ffffff;fill-opacity:1;fill-rule:nonzero;stroke:none"
             d="m 0,0 c -0.058,0 -0.115,0.01 -0.173,0.028 l -52.179,17.445 c -0.148,0.049 -0.268,0.161 -0.329,0.305 -0.061,0.144 -0.057,0.308 0.011,0.449 l 2.5,5.198 c 0.093,0.193 0.286,0.309 0.491,0.309 0.056,0 0.112,-0.008 0.167,-0.026 L 2.296,7.081 C 2.436,7.036 2.552,6.936 2.617,6.804 2.683,6.672 2.692,6.519 2.643,6.38 L 0.514,0.364 C 0.435,0.141 0.225,0 0,0" /></g><g
           transform="translate(11.4044,24.9295)"
           id="g24"><path
             id="path26"
             style="fill:currentColor;fill-opacity:1;fill-rule:nonzero;stroke:none"
             d="m 0,0 c -0.409,0 -0.797,-0.232 -0.982,-0.618 l -2.501,-5.198 c -0.136,-0.283 -0.144,-0.61 -0.022,-0.898 0.122,-0.289 0.361,-0.511 0.658,-0.61 l 52.18,-17.445 c 0.115,-0.038 0.231,-0.056 0.346,-0.056 0.45,0 0.87,0.28 1.028,0.727 l 2.129,6.017 c 0.099,0.277 0.08,0.584 -0.051,0.848 -0.131,0.264 -0.363,0.463 -0.644,0.554 L 0.334,-0.053 C 0.224,-0.018 0.111,0 0,0 M 0,-1.091 51.808,-17.718 49.679,-23.733 -2.5,-6.289 0,-1.091" /></g><g
           transform="translate(61.3458,0.5457)"
           id="g28"><path
             id="path30"
             style="fill:currentColor;fill-opacity:1;fill-rule:nonzero;stroke:none"
             d="M 0,0 C -0.143,0 -0.282,0.056 -0.387,0.16 -0.541,0.316 -0.588,0.549 -0.505,0.751 L 1.91,6.658 c 0.055,0.134 0.159,0.24 0.292,0.296 l 7.017,2.975 c 0.068,0.029 0.14,0.043 0.213,0.043 0.105,0 0.211,-0.031 0.3,-0.09 C 9.886,9.78 9.977,9.609 9.977,9.427 V 4.328 C 9.977,4.105 9.842,3.905 9.635,3.822 L 0.203,0.039 C 0.138,0.013 0.068,0 0,0" /></g><g
           transform="translate(70.7774,11.0633)"
           id="g32"><path
             id="path34"
             style="fill:currentColor;fill-opacity:1;fill-rule:nonzero;stroke:none"
             d="m 0,0 c -0.145,0 -0.289,-0.029 -0.426,-0.087 l -7.015,-2.974 c -0.266,-0.112 -0.476,-0.325 -0.584,-0.591 l -2.416,-5.908 c -0.166,-0.405 -0.074,-0.871 0.236,-1.181 0.208,-0.21 0.488,-0.322 0.773,-0.322 0.137,0 0.275,0.025 0.407,0.079 l 9.431,3.783 c 0.413,0.165 0.685,0.566 0.685,1.012 v 5.098 c 0,0.365 -0.184,0.707 -0.488,0.909 C 0.421,-0.062 0.211,0 0,0 M 0,-1.091 V -6.189 L -9.432,-9.973 -7.017,-4.065 0,-1.091" /></g><g
           transform="translate(63.212,6.8973)"
           id="g36"><path
             id="path38"
             style="fill:#ffffff;fill-opacity:1;fill-rule:nonzero;stroke:none"
             d="m 0,0 c -0.057,0 -0.112,0.008 -0.167,0.025 l -51.658,16.626 c -0.228,0.074 -0.381,0.286 -0.378,0.525 0.002,0.238 0.158,0.448 0.387,0.517 l 7.511,2.275 c 0.052,0.014 0.105,0.022 0.159,0.022 0.054,0 0.109,-0.008 0.162,-0.024 L 7.675,3.859 C 7.897,3.79 8.052,3.587 8.058,3.354 8.064,3.12 7.922,2.909 7.703,2.828 L 0.19,0.034 C 0.129,0.011 0.064,0 0,0" /></g><g
           transform="translate(19.0655,27.4334)"
           id="g40"><path
             id="path42"
             style="fill:currentColor;fill-opacity:1;fill-rule:nonzero;stroke:none"
             d="m 0,0 c -0.106,0 -0.213,-0.016 -0.315,-0.047 l -7.513,-2.274 c -0.457,-0.138 -0.771,-0.557 -0.775,-1.034 -0.004,-0.478 0.302,-0.902 0.756,-1.048 l 51.66,-16.626 c 0.108,-0.035 0.221,-0.053 0.333,-0.053 0.129,0 0.258,0.022 0.381,0.068 l 7.512,2.794 c 0.438,0.163 0.723,0.586 0.711,1.052 -0.013,0.467 -0.32,0.874 -0.767,1.013 L 0.325,-0.05 C 0.22,-0.017 0.11,0 0,0 M 0,-1.091 51.659,-17.197 44.146,-19.991 -7.512,-3.365 0,-1.091" /></g><g
           transform="translate(68.2149,8.0369)"
           id="g44"><path
             id="path46"
             style="fill:currentColor;fill-opacity:1;fill-rule:nonzero;stroke:none"
             d="m 0,0 c -0.05,0.001 -0.099,0.01 -0.146,0.024 l -53.108,16.493 c -0.26,0.08 -0.421,0.34 -0.376,0.61 0.044,0.264 0.273,0.455 0.538,0.455 0.005,0 0.724,-0.02 0.724,-0.02 0.05,-0.001 0.098,-0.01 0.146,-0.025 L 0.886,1.045 C 1.146,0.965 1.307,0.704 1.262,0.435 1.218,0.171 0.989,-0.021 0.724,-0.021 0.719,-0.021 0,0 0,0" /></g><g
           transform="translate(15.1231,26.1649)"
           id="g48"><path
             id="path50"
             style="fill:currentColor;fill-opacity:1;fill-rule:nonzero;stroke:none"
             d="m 0,0 c -0.531,0 -0.987,-0.384 -1.076,-0.911 -0.089,-0.538 0.232,-1.06 0.753,-1.221 l 53.107,-16.493 c 0.095,-0.029 0.193,-0.045 0.291,-0.048 l 0.708,-0.021 h 0.032 c 0.532,0 0.988,0.383 1.076,0.911 0.089,0.538 -0.232,1.059 -0.752,1.221 L 1.031,-0.069 C 0.937,-0.04 0.839,-0.023 0.74,-0.021 L 0.032,0 Z m 0,-1.091 0.708,-0.02 53.107,-16.493 -0.708,0.021 L 0,-1.091" /></g><g
           transform="translate(63.212,56.8148)"
           id="g52"><path
             id="path54"
             style="fill:#ffffff;fill-opacity:1;fill-rule:nonzero;stroke:none"
             d="m 0,0 c -0.05,0 -0.101,0.007 -0.149,0.021 l -53.066,15.102 c -0.201,0.057 -0.352,0.225 -0.388,0.432 -0.036,0.206 0.05,0.415 0.221,0.536 l 5.319,3.796 c 0.093,0.067 0.205,0.102 0.317,0.102 0.051,0 0.101,-0.008 0.151,-0.022 L 0.151,6.167 C 0.385,6.1 0.545,5.886 0.545,5.644 V 0.545 C 0.545,0.375 0.465,0.213 0.329,0.11 0.233,0.038 0.117,0 0,0" /></g><g
           transform="translate(15.4659,77.3489)"
           id="g56"><path
             id="path58"
             style="fill:currentColor;fill-opacity:1;fill-rule:nonzero;stroke:none"
             d="m 0,0 c -0.225,0 -0.446,-0.069 -0.634,-0.203 l -5.319,-3.796 c -0.341,-0.244 -0.513,-0.661 -0.442,-1.074 0.073,-0.413 0.374,-0.748 0.777,-0.863 l 53.065,-15.102 c 0.099,-0.028 0.199,-0.042 0.299,-0.042 0.234,0 0.466,0.076 0.657,0.221 0.274,0.206 0.434,0.528 0.434,0.87 v 5.098 c 0,0.486 -0.321,0.913 -0.788,1.048 L 0.303,-0.043 C 0.203,-0.014 0.102,0 0,0 m 0,-1.091 47.746,-13.8 v -5.098 L -5.319,-4.887 0,-1.091" /></g><g
           transform="translate(63.7608,56.6009)"
           id="g60"><path
             id="path62"
             style="fill:currentColor;fill-opacity:1;fill-rule:nonzero;stroke:none"
             d="m 0,0 c -0.124,0 -0.245,0.042 -0.344,0.122 -0.127,0.103 -0.201,0.259 -0.201,0.423 v 5.099 c 0,0.257 0.18,0.48 0.432,0.533 L 6.903,7.664 C 6.941,7.672 6.979,7.676 7.017,7.676 7.141,7.676 7.262,7.633 7.36,7.554 7.487,7.451 7.562,7.295 7.562,7.13 V 2.032 C 7.562,1.774 7.382,1.552 7.13,1.499 L 0.113,0.012 C 0.075,0.004 0.038,0 0,0" /></g><g
           transform="translate(70.7774,64.8221)"
           id="g64"><path
             id="path66"
             style="fill:currentColor;fill-opacity:1;fill-rule:nonzero;stroke:none"
             d="M 0,0 C -0.075,0 -0.151,-0.008 -0.226,-0.024 L -7.242,-1.51 c -0.504,-0.107 -0.865,-0.553 -0.865,-1.068 v -5.098 c 0,-0.328 0.148,-0.64 0.404,-0.847 0.196,-0.159 0.439,-0.244 0.686,-0.244 0.077,0 0.152,0.008 0.227,0.024 l 7.017,1.487 c 0.503,0.107 0.864,0.552 0.864,1.067 v 5.098 c 0,0.329 -0.149,0.64 -0.404,0.847 C 0.491,-0.084 0.248,0 0,0 m 0,-1.091 v -5.098 l -7.017,-1.487 v 5.098 L 0,-1.091" /></g><g
           transform="translate(63.212,62.1429)"
           id="g68"><path
             id="path70"
             style="fill:#ffffff;fill-opacity:1;fill-rule:nonzero;stroke:none"
             d="m 0,0 c -0.051,0 -0.103,0.007 -0.151,0.021 l -47.746,13.8 c -0.245,0.071 -0.408,0.301 -0.394,0.554 0.015,0.253 0.201,0.464 0.451,0.507 l 7.513,1.307 c 0.031,0.006 0.062,0.009 0.094,0.009 0.05,0 0.102,-0.008 0.151,-0.022 L 7.664,2.376 C 7.908,2.306 8.071,2.076 8.058,1.823 8.043,1.569 7.856,1.359 7.606,1.315 L 0.094,0.008 C 0.062,0.003 0.031,0 0,0" /></g><g
           transform="translate(22.9786,78.886)"
           id="g72"><path
             id="path74"
             style="fill:currentColor;fill-opacity:1;fill-rule:nonzero;stroke:none"
             d="M 0,0 C -0.062,0 -0.125,-0.005 -0.187,-0.016 L -7.699,-1.323 C -8.2,-1.41 -8.574,-1.831 -8.602,-2.338 -8.63,-2.846 -8.304,-3.305 -7.815,-3.446 l 47.746,-13.8 c 0.098,-0.028 0.201,-0.043 0.302,-0.043 0.063,0 0.125,0.006 0.188,0.017 l 7.512,1.307 c 0.501,0.087 0.875,0.508 0.902,1.015 0.028,0.507 -0.298,0.966 -0.786,1.107 L 0.303,-0.043 C 0.204,-0.014 0.102,0 0,0 m 0,-1.091 47.746,-13.8 -7.513,-1.307 -47.746,13.8 L 0,-1.091" /></g><g
           transform="translate(32.4063,18.4881)"
           id="g76"><path
             id="path78"
             style="fill:currentColor;fill-opacity:1;fill-rule:nonzero;stroke:none"
             d="M 0,0 C -0.14,0 -0.276,0.054 -0.379,0.153 -0.51,0.279 -0.568,0.461 -0.537,0.64 l 5.996,34.105 c 0.038,0.22 0.207,0.394 0.425,0.44 l 4.885,1.026 c 0.037,0.008 0.075,0.012 0.112,0.012 0.14,0 0.276,-0.054 0.379,-0.153 0.131,-0.126 0.189,-0.308 0.158,-0.487 L 5.422,1.477 C 5.384,1.258 5.215,1.083 4.997,1.037 L 0.112,0.011 C 0.075,0.003 0.037,0 0,0" /></g><g
           transform="translate(43.2872,53.075)"
           id="g80"><path
             id="path82"
             style="fill:currentColor;fill-opacity:1;fill-rule:nonzero;stroke:none"
             d="m 0,0 h 0.006 z m 0,2.182 c -0.074,0 -0.149,-0.008 -0.224,-0.024 L -5.109,1.131 C -5.546,1.04 -5.882,0.692 -5.959,0.253 l -5.997,-34.107 c -0.063,-0.356 0.056,-0.72 0.316,-0.972 0.205,-0.198 0.479,-0.307 0.759,-0.307 0.074,0 0.15,0.008 0.224,0.024 l 4.886,1.026 c 0.435,0.092 0.772,0.439 0.849,0.879 L 1.074,0.902 C 1.138,1.258 1.02,1.623 0.759,1.875 0.554,2.073 0.28,2.182 0,2.182 M 0,1.091 -5.996,-33.016 -10.881,-34.042 -4.885,0.064 0,1.091" /></g><g
           transform="translate(47.6583,13.5379)"
           id="g84"><path
             id="path86"
             style="fill:currentColor;fill-opacity:1;fill-rule:nonzero;stroke:none"
             d="M 0,0 C -0.108,0 -0.216,0.032 -0.307,0.094 -0.43,0.178 -0.513,0.308 -0.538,0.454 L -7.95,44.227 c -0.049,0.288 0.139,0.564 0.426,0.624 l 4.884,1.027 c 0.037,0.008 0.076,0.012 0.113,0.012 0.108,0 0.215,-0.033 0.306,-0.095 0.123,-0.084 0.206,-0.213 0.232,-0.359 L 5.424,1.663 C 5.473,1.375 5.284,1.099 4.998,1.038 L 0.112,0.011 C 0.075,0.003 0.037,0 0,0" /></g><g
           transform="translate(45.131,59.9725)"
           id="g88"><path
             id="path90"
             style="fill:currentColor;fill-opacity:1;fill-rule:nonzero;stroke:none"
             d="M 0,0 C -0.074,0 -0.149,-0.007 -0.224,-0.023 L -5.109,-1.05 c -0.574,-0.12 -0.95,-0.672 -0.852,-1.249 l 7.413,-43.772 c 0.05,-0.293 0.217,-0.553 0.462,-0.72 0.183,-0.124 0.397,-0.188 0.613,-0.188 0.076,0 0.151,0.006 0.225,0.022 l 4.886,1.027 c 0.573,0.12 0.948,0.672 0.85,1.249 L 1.076,-0.908 C 1.026,-0.616 0.859,-0.356 0.614,-0.189 0.432,-0.065 0.218,0 0,0 M 0,-1.091 7.413,-44.862 2.527,-45.89 -4.885,-2.117 0,-1.091" /></g><g
           transform="translate(40.4893,34.0657)"
           id="g92"><path
             id="path94"
             style="fill:#ffffff;fill-opacity:1;fill-rule:nonzero;stroke:none"
             d="m 0,0 -1.959,11.698 c -0.247,1.474 -0.453,2.871 -0.637,4.219 C -2.781,14.696 -2.964,13.572 -3.151,12.5 L -5.172,1.698 Z m 7.169,-20.539 c -0.053,0 -0.106,0.007 -0.157,0.023 l -3.609,1.083 C 3.205,-19.374 3.057,-19.206 3.022,-19 l -2.245,13.427 -6.723,2.208 -2.124,-11.65 c -0.028,-0.152 -0.119,-0.286 -0.251,-0.367 -0.087,-0.054 -0.186,-0.08 -0.285,-0.08 -0.053,0 -0.106,0.006 -0.157,0.022 l -3.512,1.051 c -0.268,0.08 -0.432,0.348 -0.38,0.623 l 7.312,38.927 c 0.029,0.151 0.119,0.282 0.249,0.363 0.087,0.054 0.187,0.081 0.287,0.081 0.05,0 0.1,-0.006 0.15,-0.021 l 4.632,-1.315 c 0.202,-0.058 0.353,-0.227 0.388,-0.435 l 7.344,-43.738 c 0.031,-0.185 -0.036,-0.374 -0.178,-0.499 -0.1,-0.089 -0.229,-0.136 -0.36,-0.136" /></g><g
           transform="translate(35.9415,36.1326)"
           id="g96"><path
             id="path98"
             style="fill:currentColor;fill-opacity:1;fill-rule:nonzero;stroke:none"
             d="M 0,0 1.927,10.298 C 1.967,10.048 2.008,9.795 2.051,9.541 L 3.86,-1.267 Z m -0.259,24.084 c -0.201,0 -0.4,-0.056 -0.574,-0.164 -0.261,-0.161 -0.441,-0.424 -0.498,-0.726 l -7.313,-38.926 c -0.103,-0.548 0.225,-1.086 0.76,-1.247 l 3.513,-1.05 c 0.102,-0.031 0.208,-0.046 0.312,-0.046 0.2,0 0.398,0.054 0.571,0.161 0.264,0.162 0.447,0.429 0.503,0.734 l 2.01,11.034 5.817,-1.909 2.19,-13.103 c 0.069,-0.41 0.364,-0.745 0.763,-0.864 l 3.609,-1.083 c 0.103,-0.031 0.208,-0.046 0.313,-0.046 0.262,0 0.52,0.094 0.721,0.273 0.284,0.249 0.417,0.627 0.355,0.998 L 5.448,21.858 c -0.069,0.415 -0.372,0.754 -0.777,0.869 l -4.632,1.315 c -0.098,0.028 -0.198,0.042 -0.298,0.042 M 5.234,-2.866 3.127,9.721 C 2.647,12.576 2.328,15.133 2.009,17.63 L 1.945,17.651 C 1.626,15.303 1.274,12.904 0.859,10.526 L -1.248,-0.738 5.234,-2.866 m -5.493,25.859 4.632,-1.316 7.344,-43.738 -3.609,1.083 -2.299,13.754 -7.632,2.505 -2.236,-12.265 -3.512,1.05 7.312,38.927" /></g><g
           transform="translate(40.9415,57.6732)"
           id="g100"><path
             id="path102"
             style="fill:currentColor;fill-opacity:1;fill-rule:nonzero;stroke:none"
             d="m 0,0 -5.195,0.917 c -0.258,0.045 -0.448,0.268 -0.451,0.529 -0.003,0.262 0.179,0.49 0.435,0.542 l 3.73,0.768 c 0.037,0.007 0.073,0.011 0.11,0.011 0.031,0 0.063,-0.003 0.095,-0.008 L 3.919,1.842 C 4.177,1.797 4.366,1.575 4.369,1.313 4.373,1.051 4.19,0.824 3.935,0.771 L 0.205,0.003 C 0.169,-0.004 0.132,-0.008 0.095,-0.008 0.063,-0.008 0.031,-0.005 0,0" /></g><g
           transform="translate(39.5704,60.9857)"
           id="g104"><path
             id="path106"
             style="fill:currentColor;fill-opacity:1;fill-rule:nonzero;stroke:none"
             d="M 0,0 C -0.073,0 -0.146,-0.007 -0.22,-0.022 L -3.949,-0.79 c -0.513,-0.106 -0.878,-0.561 -0.871,-1.084 0.008,-0.523 0.385,-0.968 0.901,-1.059 L 1.276,-3.85 c 0.063,-0.01 0.126,-0.016 0.19,-0.016 0.073,0 0.147,0.008 0.22,0.022 l 3.729,0.768 c 0.513,0.106 0.878,0.56 0.871,1.084 C 6.278,-1.469 5.9,-1.024 5.385,-0.934 L 0.19,-0.017 C 0.127,-0.005 0.063,0 0,0 M 0,-1.091 5.195,-2.007 1.466,-2.775 -3.729,-1.858 0,-1.091" /></g><g
           transform="translate(59.0714,57.3602)"
           id="g108"><path
             id="path110"
             style="fill:none;stroke:currentColor;stroke-width:1.09099996;stroke-linecap:round;stroke-linejoin:round;stroke-miterlimit:10;stroke-dasharray:none;stroke-opacity:1"
             d="M 0,0 V -46.121" /></g><g
           transform="translate(59.0714,57.3602)"
           id="g112"><path
             id="path114"
             style="fill:#ffffff;fill-opacity:1;fill-rule:evenodd;stroke:none"
             d="M 0,0 V -46.121" /></g><g
           transform="translate(21.13,69.7571)"
           id="g116"><path
             id="path118"
             style="fill:none;stroke:currentColor;stroke-width:1.09099996;stroke-linecap:round;stroke-linejoin:round;stroke-miterlimit:10;stroke-dasharray:none;stroke-opacity:1"
             d="M 0,0 V -46.419" /></g><g
           transform="translate(21.13,69.7571)"
           id="g120"><path
             id="path122"
             style="fill:#ffffff;fill-opacity:1;fill-rule:evenodd;stroke:none"
             d="M 0,0 V -46.419" /></g><g
           transform="translate(55.3253,58.5804)"
           id="g124"><path
             id="path126"
             style="fill:#ffffff;fill-opacity:1;fill-rule:nonzero;stroke:none"
             d="m 0,0 c -0.048,0 -0.096,0.006 -0.142,0.019 l -54.234,14.629 c -0.244,0.066 -0.41,0.29 -0.403,0.541 0.007,0.252 0.184,0.467 0.431,0.519 l 31.111,6.618 c 0.037,0.008 0.075,0.012 0.113,0.012 0.048,0 0.096,-0.006 0.142,-0.019 L 31.252,7.689 C 31.496,7.624 31.662,7.4 31.655,7.148 31.648,6.896 31.471,6.682 31.224,6.629 L 0.113,0.012 C 0.076,0.004 0.038,0 0,0" /></g><g
           transform="translate(32.2013,81.4637)"
           id="g128"><path
             id="path130"
             style="fill:currentColor;fill-opacity:1;fill-rule:nonzero;stroke:none"
             d="m 0,0 c -0.076,0 -0.152,-0.008 -0.228,-0.024 l -31.11,-6.618 c -0.492,-0.104 -0.85,-0.533 -0.863,-1.037 -0.014,-0.504 0.32,-0.951 0.806,-1.082 l 54.235,-14.63 c 0.093,-0.025 0.188,-0.038 0.284,-0.038 0.076,0 0.152,0.008 0.227,0.024 l 31.11,6.617 c 0.493,0.105 0.85,0.535 0.863,1.038 0.014,0.504 -0.319,0.951 -0.805,1.083 L 0.284,-0.038 C 0.191,-0.013 0.096,0 0,0 M 0,-1.091 54.234,-15.721 23.124,-22.338 -31.11,-7.708 0,-1.091" /></g></g></g></g></svg>