<svg
   xmlns="http://www.w3.org/2000/svg"
   viewBox="0 0 81.965065 93.991463"
   height="71"
   width="62"
   xml:space="preserve"
   id="svg2"
   version="1.1"><g
     transform="matrix(1.3333333,0,0,-1.3333333,0,93.991998)"
     id="g10"><g
       id="g12"><g
         id="g14"><g
           transform="translate(40.832,0.6171)"
           id="g20"><path
             id="path22"
             style="fill:#ffffff;fill-opacity:1;fill-rule:nonzero;stroke:none"
             d="m 0,0 c -0.058,0 -0.116,0.009 -0.172,0.028 l -39.741,13.238 c -0.224,0.074 -0.373,0.283 -0.373,0.518 v 5.844 c 0,0.173 0.082,0.336 0.222,0.439 0.094,0.07 0.208,0.106 0.323,0.106 0.054,0 0.109,-0.008 0.163,-0.025 L 0.163,7.731 C 0.391,7.66 0.545,7.45 0.545,7.211 V 0.545 C 0.545,0.37 0.461,0.206 0.319,0.103 0.225,0.035 0.113,0 0,0" /></g><g
           transform="translate(1.0908,21.3359)"
           id="g24"><path
             id="path26"
             style="fill:currentColor;fill-opacity:1;fill-rule:nonzero;stroke:none"
             d="m 0,0 c -0.229,0 -0.457,-0.073 -0.646,-0.212 -0.28,-0.205 -0.445,-0.532 -0.445,-0.879 v -5.844 c 0,-0.469 0.301,-0.886 0.746,-1.035 l 39.741,-13.238 c 0.113,-0.038 0.229,-0.056 0.345,-0.056 0.226,0 0.45,0.07 0.638,0.206 0.284,0.205 0.453,0.534 0.453,0.885 v 6.665 c 0,0.477 -0.311,0.899 -0.766,1.041 L 0.325,-0.05 C 0.219,-0.017 0.109,0 0,0 m 0,-1.091 39.741,-12.417 v -6.665 L 0,-6.935 v 5.844" /></g><g
           transform="translate(41.4385,0.5453)"
           id="g28"><path
             id="path30"
             style="fill:currentColor;fill-opacity:1;fill-rule:nonzero;stroke:none"
             d="m 0,0 c -0.119,0 -0.236,0.039 -0.333,0.114 -0.134,0.103 -0.212,0.262 -0.212,0.431 v 6.501 c 0,0.248 0.167,0.465 0.406,0.528 l 9.394,2.464 c 0.046,0.012 0.093,0.018 0.139,0.018 0.119,0 0.236,-0.039 0.333,-0.114 C 9.86,9.839 9.938,9.679 9.938,9.51 V 3.009 C 9.938,2.761 9.771,2.544 9.532,2.482 L 0.139,0.018 C 0.093,0.006 0.046,0 0,0" /></g><g
           transform="translate(50.832,11.1464)"
           id="g32"><path
             id="path34"
             style="fill:currentColor;fill-opacity:1;fill-rule:nonzero;stroke:none"
             d="M 0,0 C -0.092,0 -0.186,-0.012 -0.276,-0.036 L -9.67,-2.5 c -0.479,-0.125 -0.814,-0.559 -0.814,-1.055 v -6.501 c 0,-0.338 0.157,-0.657 0.424,-0.863 0.193,-0.149 0.428,-0.227 0.666,-0.227 0.093,0 0.186,0.011 0.277,0.035 l 9.394,2.464 c 0.48,0.126 0.814,0.559 0.814,1.055 v 6.501 c 0,0.339 -0.156,0.657 -0.424,0.864 C 0.474,-0.078 0.239,0 0,0 m 0,-1.091 v -6.501 l -9.394,-2.464 v 6.501 L 0,-1.091" /></g><g
           transform="translate(40.832,7.537)"
           id="g36"><path
             id="path38"
             style="fill:#ffffff;fill-opacity:1;fill-rule:nonzero;stroke:none"
             d="m 0,0 c -0.055,0 -0.109,0.008 -0.163,0.025 l -39.741,12.416 c -0.235,0.074 -0.392,0.296 -0.382,0.542 0.01,0.246 0.183,0.456 0.424,0.511 l 9.942,2.265 c 0.04,0.01 0.08,0.014 0.121,0.014 0.055,0 0.11,-0.008 0.163,-0.025 L 10.105,3.331 C 10.341,3.258 10.497,3.035 10.487,2.789 10.478,2.543 10.304,2.333 10.063,2.279 L 0.121,0.014 C 0.081,0.004 0.041,0 0,0" /></g><g
           transform="translate(11.0332,23.8554)"
           id="g40"><path
             id="path42"
             style="fill:currentColor;fill-opacity:1;fill-rule:nonzero;stroke:none"
             d="m 0,0 c -0.082,0 -0.163,-0.009 -0.243,-0.027 l -9.942,-2.265 c -0.48,-0.11 -0.828,-0.529 -0.847,-1.021 -0.02,-0.493 0.294,-0.937 0.764,-1.084 l 39.742,-12.417 c 0.105,-0.033 0.215,-0.05 0.325,-0.05 0.081,0 0.162,0.009 0.242,0.028 l 9.942,2.265 c 0.481,0.11 0.829,0.528 0.848,1.02 0.02,0.493 -0.294,0.937 -0.765,1.085 L 0.325,-0.05 C 0.219,-0.017 0.109,0 0,0 M 0,-1.091 39.741,-13.508 29.799,-15.773 -9.942,-3.356 0,-1.091" /></g><g
           transform="translate(18.165,16.3388)"
           id="g44"><path
             id="path46"
             style="fill:currentColor;fill-opacity:1;fill-rule:nonzero;stroke:none"
             d="M 0,0 C -0.14,0 -0.276,0.054 -0.379,0.153 -0.51,0.279 -0.568,0.461 -0.537,0.64 l 6.624,37.675 c 0.038,0.22 0.207,0.394 0.425,0.44 l 5.396,1.134 c 0.037,0.008 0.075,0.012 0.113,0.012 0.139,0 0.276,-0.054 0.378,-0.153 0.131,-0.126 0.19,-0.309 0.159,-0.487 L 5.934,1.585 C 5.896,1.366 5.727,1.192 5.509,1.146 L 0.112,0.012 C 0.075,0.004 0.037,0 0,0" /></g><g
           transform="translate(30.1855,54.6035)"
           id="g48"><path
             id="path50"
             style="fill:currentColor;fill-opacity:1;fill-rule:nonzero;stroke:none"
             d="m 0,0 h 0.005 z m 0,2.182 c -0.075,0 -0.149,-0.008 -0.225,-0.024 L -5.621,1.024 C -6.058,0.932 -6.394,0.584 -6.471,0.146 l -6.624,-37.677 c -0.063,-0.356 0.056,-0.72 0.316,-0.972 0.205,-0.199 0.478,-0.307 0.758,-0.307 0.075,0 0.15,0.007 0.224,0.023 l 5.398,1.135 c 0.435,0.091 0.772,0.439 0.849,0.878 L 1.074,0.902 C 1.137,1.259 1.019,1.623 0.759,1.875 0.553,2.074 0.28,2.182 0,2.182 M 0,1.091 -6.624,-36.585 -12.021,-37.719 -5.396,-0.043 0,1.091" /></g><g
           transform="translate(35.0146,10.871)"
           id="g52"><path
             id="path54"
             style="fill:currentColor;fill-opacity:1;fill-rule:nonzero;stroke:none"
             d="M 0,0 C -0.108,0 -0.216,0.033 -0.307,0.095 -0.43,0.178 -0.513,0.308 -0.538,0.454 l -8.19,48.354 c -0.048,0.289 0.14,0.565 0.426,0.625 l 5.397,1.134 c 0.037,0.008 0.075,0.012 0.112,0.012 0.108,0 0.216,-0.033 0.307,-0.095 0.123,-0.084 0.206,-0.213 0.231,-0.359 L 5.935,1.771 C 5.983,1.482 5.795,1.206 5.509,1.146 L 0.112,0.012 C 0.075,0.004 0.037,0 0,0" /></g><g
           transform="translate(32.2217,61.9951)"
           id="g56"><path
             id="path58"
             style="fill:currentColor;fill-opacity:1;fill-rule:nonzero;stroke:none"
             d="M 0,0 C -0.074,0 -0.149,-0.008 -0.224,-0.023 L -5.62,-1.158 c -0.573,-0.12 -0.949,-0.672 -0.852,-1.249 l 8.189,-48.354 c 0.05,-0.293 0.217,-0.552 0.462,-0.719 0.182,-0.124 0.396,-0.189 0.614,-0.189 0.074,0 0.149,0.007 0.224,0.023 l 5.396,1.134 c 0.573,0.12 0.949,0.672 0.852,1.25 L 1.076,-0.909 C 1.026,-0.616 0.859,-0.356 0.614,-0.189 0.432,-0.065 0.218,0 0,0 M 0,-1.091 8.189,-49.444 2.793,-50.579 -5.396,-2.225 0,-1.091" /></g><g
           transform="translate(27.166,33.4067)"
           id="g60"><path
             id="path62"
             style="fill:#ffffff;fill-opacity:1;fill-rule:nonzero;stroke:none"
             d="m 0,0 -2.18,13.016 c -0.298,1.773 -0.539,3.443 -0.757,5.054 -0.225,-1.507 -0.446,-2.874 -0.672,-4.168 L -5.851,1.92 Z m 7.849,-22.548 c -0.053,0 -0.106,0.007 -0.157,0.023 l -3.987,1.195 c -0.199,0.06 -0.348,0.228 -0.382,0.433 L 0.838,-6.029 -6.685,-3.56 -9.042,-16.493 c -0.027,-0.153 -0.119,-0.286 -0.251,-0.367 -0.087,-0.053 -0.186,-0.08 -0.285,-0.08 -0.053,0 -0.106,0.007 -0.156,0.023 l -3.882,1.16 c -0.268,0.08 -0.432,0.349 -0.38,0.623 l 8.078,43.001 c 0.028,0.151 0.119,0.283 0.249,0.363 0.087,0.054 0.187,0.082 0.287,0.082 0.05,0 0.1,-0.007 0.15,-0.021 l 5.117,-1.453 c 0.202,-0.057 0.353,-0.227 0.388,-0.434 l 8.114,-48.316 c 0.031,-0.186 -0.036,-0.375 -0.178,-0.5 -0.101,-0.088 -0.23,-0.136 -0.36,-0.136" /></g><g
           transform="translate(21.9395,35.6967)"
           id="g64"><path
             id="path66"
             style="fill:currentColor;fill-opacity:1;fill-rule:nonzero;stroke:none"
             d="m 0,0 2.152,11.505 c 0.037,0.213 0.075,0.429 0.112,0.646 0.078,-0.497 0.159,-1.003 0.245,-1.516 L 4.539,-1.49 Z m -0.155,26.567 c -0.201,0 -0.401,-0.055 -0.574,-0.163 -0.261,-0.161 -0.442,-0.425 -0.499,-0.726 l -8.078,-43.001 c -0.102,-0.549 0.225,-1.086 0.76,-1.246 l 3.882,-1.161 c 0.102,-0.031 0.207,-0.046 0.312,-0.046 0.2,0 0.397,0.055 0.57,0.161 0.264,0.162 0.448,0.429 0.503,0.734 l 2.245,12.319 6.615,-2.172 2.431,-14.543 c 0.068,-0.41 0.364,-0.745 0.762,-0.865 l 3.988,-1.195 c 0.102,-0.031 0.208,-0.046 0.312,-0.046 0.263,0 0.521,0.094 0.722,0.273 0.283,0.249 0.417,0.627 0.354,0.998 L 6.037,24.204 C 5.968,24.62 5.665,24.958 5.26,25.073 l -5.117,1.453 c -0.098,0.028 -0.199,0.041 -0.298,0.041 M 5.913,-3.089 3.585,10.815 C 3.056,13.969 2.703,16.794 2.351,19.552 L 2.279,19.575 C 1.927,16.981 1.539,14.332 1.08,11.706 l -2.328,-12.445 7.161,-2.35 m -6.068,28.566 5.117,-1.454 8.113,-48.315 -3.987,1.195 -2.54,15.194 -8.431,2.767 -2.469,-13.549 -3.881,1.161 8.078,43.001" /></g><g
           transform="translate(27.6035,59.6254)"
           id="g68"><path
             id="path70"
             style="fill:currentColor;fill-opacity:1;fill-rule:nonzero;stroke:none"
             d="m 0,0 -5.738,1.013 c -0.258,0.045 -0.448,0.267 -0.45,0.529 -0.004,0.262 0.178,0.489 0.434,0.542 l 4.12,0.848 c 0.037,0.007 0.073,0.011 0.111,0.011 0.031,0 0.063,-0.003 0.094,-0.008 L 4.31,1.922 C 4.567,1.877 4.757,1.655 4.76,1.393 4.764,1.131 4.581,0.904 4.325,0.851 L 0.205,0.003 C 0.168,-0.004 0.132,-0.008 0.095,-0.008 0.063,-0.008 0.031,-0.005 0,0" /></g><g
           transform="translate(26.0801,63.1142)"
           id="g72"><path
             id="path74"
             style="fill:currentColor;fill-opacity:1;fill-rule:nonzero;stroke:none"
             d="m 0,0 c -0.074,0 -0.147,-0.008 -0.221,-0.022 l -4.12,-0.849 c -0.513,-0.105 -0.878,-0.56 -0.87,-1.084 0.007,-0.523 0.386,-0.967 0.9,-1.058 l 5.74,-1.013 c 0.062,-0.011 0.126,-0.016 0.189,-0.016 0.073,0 0.148,0.007 0.22,0.022 l 4.12,0.848 c 0.513,0.106 0.878,0.56 0.871,1.084 -0.008,0.523 -0.386,0.967 -0.901,1.058 L 0.189,-0.017 C 0.126,-0.006 0.063,0 0,0 M 0,-1.091 5.738,-2.104 1.618,-2.952 -4.12,-1.939 0,-1.091" /></g><g
           transform="translate(52.542,46.4291)"
           id="g76"><path
             id="path78"
             style="fill:currentColor;fill-opacity:1;fill-rule:nonzero;stroke:none"
             d="m 0,0 c -0.062,0 -0.123,0.01 -0.183,0.032 -2.56,0.909 -4.28,3.341 -4.28,6.049 v 6.181 c 0,0.301 0.244,0.546 0.545,0.546 h 1.92 c 0.301,0 0.545,-0.245 0.545,-0.546 V 6.081 c 0,-1.204 0.661,-2.333 1.725,-2.946 C 0.441,3.038 0.545,2.857 0.545,2.663 V 0.545 C 0.545,0.368 0.459,0.202 0.314,0.1 0.222,0.034 0.111,0 0,0" /></g><g
           transform="translate(50.5439,59.7822)"
           id="g80"><path
             id="path82"
             style="fill:currentColor;fill-opacity:1;fill-rule:nonzero;stroke:none"
             d="m 0,0 h -1.92 c -0.602,0 -1.091,-0.488 -1.091,-1.091 v -6.181 c 0,-2.938 1.866,-5.576 4.643,-6.563 0.119,-0.043 0.243,-0.063 0.366,-0.063 0.222,0 0.442,0.067 0.629,0.199 0.289,0.204 0.462,0.537 0.462,0.891 v 2.118 c 0,0.389 -0.209,0.75 -0.547,0.944 -0.908,0.524 -1.451,1.449 -1.451,2.474 v 6.181 C 1.091,-0.488 0.603,0 0,0 m 0,-1.091 v -6.181 c 0,-1.466 0.811,-2.734 1.998,-3.418 v -2.118 c -2.279,0.81 -3.918,2.983 -3.918,5.536 v 6.181 H 0" /></g><g
           transform="translate(56.4658,46.4291)"
           id="g84"><path
             id="path86"
             style="fill:currentColor;fill-opacity:1;fill-rule:nonzero;stroke:none"
             d="m 0,0 c -0.111,0 -0.222,0.034 -0.314,0.1 -0.145,0.102 -0.231,0.268 -0.231,0.445 v 2.118 c 0,0.194 0.104,0.375 0.273,0.472 1.064,0.614 1.725,1.742 1.725,2.946 v 6.181 c 0,0.301 0.244,0.546 0.545,0.546 h 1.92 c 0.301,0 0.545,-0.245 0.545,-0.546 V 6.081 C 4.463,3.373 2.743,0.942 0.183,0.032 0.123,0.01 0.062,0 0,0" /></g><g
           transform="translate(60.3838,59.7822)"
           id="g88"><path
             id="path90"
             style="fill:currentColor;fill-opacity:1;fill-rule:nonzero;stroke:none"
             d="m 0,0 h -1.92 c -0.602,0 -1.091,-0.488 -1.091,-1.091 v -6.181 c 0,-1.025 -0.543,-1.95 -1.452,-2.474 -0.338,-0.194 -0.546,-0.554 -0.546,-0.944 v -2.118 c 0,-0.354 0.173,-0.687 0.462,-0.891 0.187,-0.132 0.407,-0.199 0.629,-0.199 0.123,0 0.247,0.021 0.366,0.063 2.777,0.987 4.642,3.625 4.642,6.563 v 6.181 C 1.09,-0.488 0.602,0 0,0 m 0,-1.091 v -6.181 c 0,-2.553 -1.639,-4.725 -3.918,-5.536 v 2.118 c 1.188,0.684 1.998,1.952 1.998,3.418 v 6.181 H 0" /></g><g
           transform="translate(55.6025,61.9267)"
           id="g92"><path
             id="path94"
             style="fill:none;stroke:currentColor;stroke-width:1.73899996;stroke-linecap:round;stroke-linejoin:round;stroke-miterlimit:10;stroke-dasharray:none;stroke-opacity:1"
             d="M 0,0 V 4.489 L -2.197,3.209 V 7.698" /></g></g></g></g></svg>