<?xml version="1.0" encoding="UTF-8" standalone="no"?>
<svg
   xmlns:dc="http://purl.org/dc/elements/1.1/"
   xmlns:cc="http://creativecommons.org/ns#"
   xmlns:rdf="http://www.w3.org/1999/02/22-rdf-syntax-ns#"
   xmlns:svg="http://www.w3.org/2000/svg"
   xmlns="http://www.w3.org/2000/svg"
   viewBox="0 0 121.36277 83.126396"
   height="83.126396"
   width="121.36277"
   xml:space="preserve"
   id="svg2"
   version="1.1">

    <metadata
     id="metadata8"><rdf:RDF><cc:Work
         rdf:about=""><dc:format>image/svg+xml</dc:format><dc:type
           rdf:resource="http://purl.org/dc/dcmitype/StillImage" /></cc:Work></rdf:RDF></metadata><defs
     id="defs6"><clipPath
       id="clipPath18"
       clipPathUnits="userSpaceOnUse"><path
         id="path16"
         d="M 0,62.345 H 91.023 V 0 H 0 Z" /></clipPath></defs><g
     transform="matrix(1.3333333,0,0,-1.3333333,-4.1658685e-4,83.126398)"
     id="g10"><g
       id="g12"><g
         clip-path="url(#clipPath18)"
         id="g14"><g
           transform="translate(49.9866,0.4937)"
           id="g20">


    <path
             id="path22"
             style="fill:#ffffff;fill-opacity:1;fill-rule:nonzero;stroke:none"
             d="m 0,0 c -0.05,0 -0.1,0.007 -0.146,0.022 l -49,15.27 c -0.214,0.066 -0.356,0.269 -0.346,0.493 0.01,0.224 0.17,0.414 0.388,0.461 l 40.049,8.634 c 0.035,0.008 0.07,0.011 0.105,0.011 0.05,0 0.099,-0.007 0.146,-0.022 L 40.195,9.599 C 40.41,9.533 40.552,9.33 40.542,9.106 40.532,8.882 40.372,8.692 40.153,8.646 L 0.104,0.011 C 0.069,0.003 0.035,0 0,0" /></g><g
           transform="translate(41.0364,25.879)"
           id="g24"><path
             id="path26"
             style="fill:currentColor;fill-opacity:1;fill-rule:nonzero;stroke:none"
             d="m 0,0 c -0.07,0 -0.14,-0.007 -0.208,-0.022 l -40.049,-8.635 c -0.438,-0.094 -0.759,-0.472 -0.778,-0.921 -0.021,-0.448 0.264,-0.853 0.692,-0.986 l 48.999,-15.27 c 0.096,-0.03 0.195,-0.045 0.294,-0.045 0.07,0 0.14,0.007 0.208,0.022 l 40.049,8.634 c 0.439,0.095 0.758,0.473 0.778,0.921 0.02,0.448 -0.264,0.854 -0.692,0.988 l -49,15.269 C 0.198,-0.015 0.099,0 0,0 M 0,-0.988 48.999,-16.257 8.95,-24.892 -40.049,-9.622 0,-0.988" /></g><g
           transform="translate(58.886,6.0674)"
           id="g28"><path
             id="path30"
             style="fill:#ffffff;fill-opacity:1;fill-rule:nonzero;stroke:none"
             d="m 0,0 c -0.051,0 -0.102,0.008 -0.151,0.024 l -35.975,11.612 c -0.204,0.066 -0.343,0.255 -0.343,0.469 v 5.514 c 0,0.157 0.075,0.305 0.202,0.398 0.085,0.063 0.189,0.096 0.292,0.096 0.05,0 0.099,-0.008 0.148,-0.023 L 0.147,6.85 C 0.354,6.785 0.494,6.594 0.494,6.378 V 0.494 C 0.494,0.336 0.418,0.187 0.291,0.095 0.205,0.032 0.104,0 0,0" /></g><g
           transform="translate(22.9114,24.6739)"
           id="g32"><path
             id="path34"
             style="fill:currentColor;fill-opacity:1;fill-rule:nonzero;stroke:none"
             d="m 0,0 c -0.208,0 -0.414,-0.066 -0.585,-0.192 -0.254,-0.186 -0.403,-0.481 -0.403,-0.795 v -5.514 c 0,-0.428 0.276,-0.808 0.684,-0.939 l 35.976,-11.613 c 0.099,-0.031 0.201,-0.048 0.303,-0.048 0.207,0 0.411,0.065 0.582,0.19 0.255,0.185 0.406,0.482 0.406,0.798 v 5.885 c 0,0.432 -0.281,0.814 -0.693,0.943 L 0.294,-0.045 C 0.197,-0.015 0.099,0 0,0 m 0,-0.987 35.976,-11.241 v -5.885 L 0,-6.501 v 5.514" /></g><g
           transform="translate(59.4358,5.8536)"
           id="g36"><path
             id="path38"
             style="fill:currentColor;fill-opacity:1;fill-rule:nonzero;stroke:none"
             d="M 0,0 C -0.115,0 -0.228,0.041 -0.317,0.116 -0.43,0.209 -0.494,0.348 -0.494,0.494 v 5.885 c 0,0.24 0.173,0.445 0.409,0.486 L 8.418,8.352 C 8.446,8.356 8.475,8.359 8.503,8.359 8.618,8.359 8.73,8.318 8.82,8.243 8.933,8.149 8.997,8.011 8.997,7.865 V 1.98 C 8.997,1.74 8.824,1.535 8.588,1.494 L 0.085,0.007 C 0.057,0.002 0.028,0 0,0" /></g><g
           transform="translate(67.9387,14.7061)"
           id="g40"><path
             id="path42"
             style="fill:currentColor;fill-opacity:1;fill-rule:nonzero;stroke:none"
             d="M 0,0 C -0.056,0 -0.113,-0.005 -0.17,-0.015 L -8.673,-1.501 C -9.146,-1.584 -9.49,-1.994 -9.49,-2.474 v -5.885 c 0,-0.291 0.129,-0.568 0.351,-0.756 0.18,-0.151 0.406,-0.231 0.636,-0.231 0.057,0 0.113,0.005 0.17,0.014 l 8.504,1.487 c 0.473,0.083 0.817,0.493 0.817,0.972 v 5.886 c 0,0.291 -0.129,0.568 -0.352,0.756 C 0.456,-0.081 0.231,0 0,0 m 0,-0.987 v -5.886 l -8.503,-1.486 v 5.885 L 0,-0.987" /></g><g
           transform="translate(58.886,12.1827)"
           id="g44"><path
             id="path46"
             style="fill:#ffffff;fill-opacity:1;fill-rule:nonzero;stroke:none"
             d="M 0,0 C -0.05,0 -0.1,0.007 -0.148,0.022 L -35.9,11.263 c -0.219,0.069 -0.362,0.28 -0.344,0.509 0.017,0.23 0.192,0.416 0.42,0.45 l 8.776,1.307 c 0.024,0.004 0.048,0.006 0.072,0.006 0.05,0 0.1,-0.008 0.148,-0.023 L 9.147,2.272 C 9.367,2.203 9.511,1.991 9.492,1.762 9.474,1.532 9.299,1.345 9.071,1.312 l -9,-1.307 C 0.048,0.001 0.023,0 0,0" /></g><g
           transform="translate(31.9104,26.211)"
           id="g48"><path
             id="path50"
             style="fill:currentColor;fill-opacity:1;fill-rule:nonzero;stroke:none"
             d="m 0,0 c -0.048,0 -0.097,-0.003 -0.145,-0.011 l -8.777,-1.307 c -0.455,-0.068 -0.803,-0.441 -0.839,-0.899 -0.036,-0.459 0.249,-0.882 0.689,-1.019 L 26.68,-14.477 c 0.096,-0.03 0.196,-0.045 0.297,-0.045 0.046,0 0.094,0.003 0.141,0.01 l 9,1.307 c 0.456,0.066 0.806,0.439 0.842,0.899 0.037,0.46 -0.249,0.883 -0.689,1.021 L 0.295,-0.045 C 0.199,-0.015 0.1,0 0,0 M 0,-0.987 35.976,-12.228 26.977,-13.535 -8.776,-2.294 0,-0.987" /></g><g
           transform="translate(38.2923,20.0015)"
           id="g52"><path
             id="path54"
             style="fill:currentColor;fill-opacity:1;fill-rule:nonzero;stroke:none"
             d="m 0,0 c -0.127,0 -0.25,0.049 -0.344,0.139 -0.117,0.114 -0.171,0.279 -0.142,0.44 l 5.997,34.106 c 0.035,0.199 0.187,0.356 0.385,0.398 l 4.884,1.026 c 0.034,0.008 0.068,0.011 0.102,0.011 0.127,0 0.25,-0.049 0.344,-0.139 0.117,-0.114 0.17,-0.279 0.142,-0.44 L 5.372,1.435 C 5.337,1.236 5.185,1.079 4.987,1.038 L 0.102,0.011 C 0.067,0.003 0.034,0 0,0" /></g><g
           transform="translate(49.1741,54.6407)"
           id="g56"><path
             id="path58"
             style="fill:currentColor;fill-opacity:1;fill-rule:nonzero;stroke:none"
             d="m 0,0 h 0.005 z m 0,1.975 c -0.067,0 -0.135,-0.007 -0.203,-0.021 L -5.088,0.927 C -5.482,0.844 -5.787,0.529 -5.857,0.131 l -5.997,-34.106 c -0.057,-0.322 0.05,-0.652 0.286,-0.88 0.186,-0.18 0.433,-0.278 0.686,-0.278 0.069,0 0.136,0.007 0.203,0.021 l 4.886,1.027 c 0.395,0.083 0.699,0.398 0.77,0.795 L 0.973,0.816 C 1.029,1.139 0.923,1.469 0.687,1.697 0.501,1.877 0.254,1.975 0,1.975 M 0,0.987 -5.996,-33.119 -10.882,-34.146 -4.885,-0.04 0,0.987" /></g><g
           transform="translate(53.5452,15.0518)"
           id="g60"><path
             id="path62"
             style="fill:currentColor;fill-opacity:1;fill-rule:nonzero;stroke:none"
             d="m 0,0 c -0.099,0 -0.195,0.029 -0.278,0.085 -0.111,0.076 -0.186,0.194 -0.208,0.326 l -7.412,43.772 c -0.045,0.261 0.125,0.511 0.384,0.566 l 4.885,1.026 c 0.033,0.008 0.067,0.011 0.102,0.011 0.098,0 0.195,-0.029 0.278,-0.085 0.11,-0.076 0.186,-0.194 0.208,-0.326 L 5.372,1.603 C 5.417,1.342 5.247,1.092 4.987,1.038 L 0.102,0.011 C 0.068,0.003 0.034,0 0,0" /></g><g
           transform="translate(51.0178,61.3316)"
           id="g64"><path
             id="path66"
             style="fill:currentColor;fill-opacity:1;fill-rule:nonzero;stroke:none"
             d="m 0,0 c -0.067,0 -0.136,-0.007 -0.203,-0.021 l -4.885,-1.027 c -0.519,-0.109 -0.859,-0.608 -0.77,-1.131 l 7.413,-43.772 c 0.044,-0.265 0.195,-0.5 0.417,-0.651 0.165,-0.113 0.359,-0.171 0.555,-0.171 0.069,0 0.136,0.006 0.203,0.021 l 4.886,1.026 c 0.519,0.109 0.859,0.609 0.771,1.132 L 0.974,-0.823 C 0.929,-0.558 0.778,-0.323 0.556,-0.171 0.391,-0.059 0.197,0 0,0 M 0,-0.987 7.413,-44.759 2.527,-45.786 -4.885,-2.014 0,-0.987" /></g><g
           transform="translate(46.4407,35.4522)"
           id="g68"><path
             id="path70"
             style="fill:#ffffff;fill-opacity:1;fill-rule:nonzero;stroke:none"
             d="m 0,0 -1.973,11.782 c -0.269,1.605 -0.488,3.117 -0.684,4.574 -0.204,-1.359 -0.405,-2.596 -0.61,-3.772 L -5.296,1.738 Z m 7.104,-20.411 c -0.047,0 -0.094,0.007 -0.141,0.02 l -3.609,1.083 c -0.18,0.054 -0.314,0.205 -0.345,0.391 l -2.25,13.459 -6.811,2.236 -2.134,-11.708 c -0.024,-0.138 -0.107,-0.259 -0.227,-0.333 -0.078,-0.048 -0.168,-0.072 -0.258,-0.072 -0.048,0 -0.095,0.006 -0.142,0.02 l -3.512,1.051 c -0.242,0.073 -0.391,0.316 -0.344,0.565 l 7.312,38.926 c 0.025,0.136 0.107,0.255 0.225,0.329 0.079,0.048 0.169,0.073 0.26,0.073 0.045,0 0.091,-0.006 0.135,-0.018 l 4.633,-1.316 c 0.183,-0.052 0.32,-0.205 0.352,-0.394 l 7.344,-43.737 c 0.028,-0.168 -0.033,-0.339 -0.161,-0.452 -0.091,-0.08 -0.207,-0.123 -0.327,-0.123" /></g><g
           transform="translate(41.7102,37.5249)"
           id="g72"><path
             id="path74"
             style="fill:currentColor;fill-opacity:1;fill-rule:nonzero;stroke:none"
             d="M 0,0 1.948,10.415 C 1.981,10.608 2.016,10.803 2.049,11 2.119,10.549 2.193,10.092 2.271,9.627 L 4.108,-1.349 Z m -0.141,24.05 c -0.182,0 -0.362,-0.05 -0.52,-0.148 -0.235,-0.146 -0.4,-0.384 -0.45,-0.657 l -7.313,-38.926 c -0.094,-0.497 0.203,-0.984 0.688,-1.129 l 3.513,-1.05 c 0.093,-0.028 0.188,-0.042 0.283,-0.042 0.18,0 0.359,0.049 0.516,0.146 0.239,0.147 0.405,0.388 0.455,0.665 l 2.032,11.151 5.989,-1.966 2.2,-13.165 c 0.062,-0.371 0.33,-0.675 0.69,-0.783 l 3.61,-1.082 c 0.093,-0.028 0.188,-0.042 0.283,-0.042 0.237,0 0.471,0.086 0.653,0.247 0.256,0.226 0.377,0.568 0.322,0.904 L 5.465,21.911 c -0.064,0.376 -0.337,0.682 -0.704,0.786 l -4.632,1.316 c -0.089,0.025 -0.18,0.037 -0.27,0.037 M 5.353,-2.796 3.245,9.791 C 2.766,12.646 2.446,15.204 2.127,17.7 L 2.063,17.721 C 1.744,15.373 1.393,12.974 0.978,10.596 L -1.13,-0.668 5.353,-2.796 m -5.495,25.859 4.633,-1.315 7.344,-43.738 -3.608,1.082 -2.3,13.754 -7.632,2.505 -2.235,-12.266 -3.513,1.052 7.311,38.926" /></g><g
           transform="translate(46.8372,59.1861)"
           id="g76"><path
             id="path78"
             style="fill:currentColor;fill-opacity:1;fill-rule:nonzero;stroke:none"
             d="M 0,0 -5.195,0.917 C -5.429,0.958 -5.6,1.16 -5.604,1.396 c -0.002,0.237 0.163,0.443 0.395,0.491 l 3.73,0.767 c 0.033,0.007 0.066,0.011 0.099,0.011 0.028,0 0.058,-0.003 0.086,-0.008 L 3.901,1.741 C 4.135,1.699 4.306,1.499 4.31,1.261 4.312,1.024 4.147,0.819 3.915,0.771 L 0.186,0.003 C 0.152,-0.004 0.119,-0.007 0.086,-0.007 0.058,-0.007 0.028,-0.005 0,0" /></g><g
           transform="translate(45.4573,62.3448)"
           id="g80"><path
             id="path82"
             style="fill:currentColor;fill-opacity:1;fill-rule:nonzero;stroke:none"
             d="m 0,0 c -0.066,0 -0.133,-0.007 -0.199,-0.021 l -3.73,-0.767 c -0.464,-0.096 -0.795,-0.507 -0.788,-0.982 0.007,-0.473 0.35,-0.876 0.816,-0.958 l 5.195,-0.917 c 0.057,-0.01 0.114,-0.015 0.172,-0.015 0.066,0 0.133,0.007 0.199,0.021 l 3.73,0.767 c 0.463,0.096 0.794,0.508 0.788,0.981 -0.007,0.474 -0.349,0.876 -0.816,0.959 L 0.172,-0.015 C 0.115,-0.005 0.058,0 0,0 M 0,-0.988 5.195,-1.904 1.466,-2.672 -3.729,-1.755 0,-0.988" /></g></g></g></g></svg>