
<svg
   xmlns="http://www.w3.org/2000/svg"
   viewBox="0 0 92.330666 88.52533"
   height="88.52533"
   width="92.330666"
   xml:space="preserve"
   id="svg2"
   version="1.1"><g
     transform="matrix(1.3333333,0,0,-1.3333333,0,88.525331)"
     id="g10"><g
       id="g12"><g
         id="g14"><g
           transform="translate(23.0747,6.0261)"
           id="g20"><path
             id="path22"
             style="fill:currentColor;fill-opacity:1;fill-rule:nonzero;stroke:none"
             d="M 0,0 C -0.14,0 -0.276,0.054 -0.379,0.153 -0.51,0.279 -0.568,0.461 -0.537,0.64 l 6.624,37.675 c 0.038,0.219 0.207,0.394 0.425,0.44 l 5.396,1.134 c 0.037,0.007 0.075,0.01 0.113,0.01 0.139,0 0.276,-0.053 0.378,-0.153 0.131,-0.126 0.19,-0.308 0.159,-0.486 L 5.934,1.584 C 5.896,1.365 5.727,1.19 5.509,1.145 L 0.112,0.011 C 0.075,0.003 0.037,0 0,0" /></g><g
           transform="translate(35.0952,44.2908)"
           id="g24"><path
             id="path26"
             style="fill:currentColor;fill-opacity:1;fill-rule:nonzero;stroke:none"
             d="m 0,0 h 0.005 z m 0,2.182 c -0.075,0 -0.149,-0.008 -0.225,-0.024 L -5.621,1.023 C -6.058,0.932 -6.394,0.584 -6.471,0.145 l -6.624,-37.676 c -0.063,-0.357 0.055,-0.721 0.316,-0.973 0.206,-0.199 0.477,-0.307 0.758,-0.307 0.075,0 0.15,0.008 0.225,0.024 l 5.397,1.134 c 0.435,0.091 0.772,0.439 0.849,0.879 L 1.074,0.901 C 1.138,1.258 1.019,1.623 0.759,1.874 0.553,2.073 0.28,2.182 0,2.182 M 0,1.09 -6.624,-36.586 -12.021,-37.721 -5.396,-0.044 0,1.09" /></g><g
           transform="translate(39.9243,0.5583)"
           id="g28"><path
             id="path30"
             style="fill:currentColor;fill-opacity:1;fill-rule:nonzero;stroke:none"
             d="m 0,0 c -0.108,0 -0.216,0.032 -0.307,0.094 -0.123,0.084 -0.206,0.214 -0.231,0.36 l -8.19,48.354 c -0.048,0.288 0.14,0.564 0.426,0.625 l 5.397,1.133 c 0.037,0.008 0.075,0.011 0.112,0.011 0.108,0 0.216,-0.032 0.307,-0.094 0.123,-0.084 0.206,-0.213 0.231,-0.36 L 5.935,1.77 C 5.983,1.481 5.795,1.205 5.509,1.145 L 0.112,0.011 C 0.075,0.003 0.037,0 0,0" /></g><g
           transform="translate(37.1313,51.6814)"
           id="g32"><path
             id="path34"
             style="fill:currentColor;fill-opacity:1;fill-rule:nonzero;stroke:none"
             d="M 0,0 C -0.074,0 -0.149,-0.008 -0.224,-0.023 L -5.62,-1.157 c -0.573,-0.12 -0.949,-0.673 -0.852,-1.25 l 8.189,-48.354 c 0.05,-0.292 0.217,-0.552 0.461,-0.719 0.183,-0.124 0.397,-0.189 0.615,-0.189 0.074,0 0.149,0.008 0.224,0.023 l 5.396,1.134 c 0.573,0.121 0.949,0.672 0.852,1.25 L 1.076,-0.908 C 1.026,-0.616 0.859,-0.356 0.615,-0.189 0.432,-0.064 0.218,0 0,0 M 0,-1.091 8.189,-49.444 2.793,-50.578 -5.396,-2.225 0,-1.091" /></g><g
           transform="translate(32.0757,23.0935)"
           id="g36"><path
             id="path38"
             style="fill:#ffffff;fill-opacity:1;fill-rule:nonzero;stroke:none"
             d="m 0,0 -2.18,13.016 c -0.298,1.772 -0.539,3.443 -0.757,5.054 -0.225,-1.508 -0.446,-2.875 -0.672,-4.169 L -5.851,1.92 Z m 7.849,-22.548 c -0.053,0 -0.106,0.007 -0.157,0.023 l -3.987,1.196 c -0.199,0.059 -0.348,0.227 -0.382,0.433 l -2.485,14.868 -7.523,2.469 -2.357,-12.934 c -0.027,-0.153 -0.119,-0.286 -0.251,-0.367 -0.087,-0.054 -0.186,-0.08 -0.285,-0.08 -0.053,0 -0.106,0.006 -0.156,0.022 l -3.882,1.161 c -0.268,0.08 -0.432,0.349 -0.38,0.623 l 8.078,43.001 c 0.028,0.151 0.119,0.282 0.249,0.363 0.087,0.054 0.187,0.082 0.287,0.082 0.05,0 0.1,-0.007 0.15,-0.021 l 5.117,-1.453 C 0.087,26.78 0.238,26.611 0.273,26.403 l 8.114,-48.316 c 0.031,-0.186 -0.036,-0.374 -0.178,-0.499 -0.101,-0.089 -0.23,-0.136 -0.36,-0.136" /></g><g
           transform="translate(26.8501,25.3835)"
           id="g40"><path
             id="path42"
             style="fill:currentColor;fill-opacity:1;fill-rule:nonzero;stroke:none"
             d="m 0,0 2.151,11.505 c 0.037,0.213 0.075,0.429 0.112,0.646 0.077,-0.498 0.159,-1.003 0.245,-1.516 L 4.539,-1.49 Z m -0.156,26.567 c -0.201,0 -0.401,-0.055 -0.574,-0.163 -0.26,-0.161 -0.442,-0.425 -0.499,-0.726 l -8.078,-43.001 c -0.103,-0.549 0.225,-1.086 0.76,-1.246 l 3.881,-1.161 c 0.104,-0.031 0.208,-0.046 0.312,-0.046 0.2,0 0.398,0.054 0.571,0.161 0.264,0.162 0.447,0.428 0.504,0.734 l 2.244,12.319 6.615,-2.172 2.432,-14.543 c 0.068,-0.41 0.363,-0.745 0.761,-0.865 l 3.987,-1.195 c 0.103,-0.031 0.209,-0.047 0.314,-0.047 0.262,0 0.52,0.095 0.721,0.274 0.283,0.249 0.417,0.627 0.354,0.998 L 6.036,24.204 c -0.069,0.415 -0.372,0.753 -0.778,0.868 l -5.116,1.454 c -0.098,0.028 -0.199,0.041 -0.298,0.041 M 5.912,-3.089 3.584,10.815 C 3.055,13.97 2.702,16.794 2.35,19.552 l -0.071,0.023 c -0.353,-2.594 -0.741,-5.244 -1.2,-7.87 l -2.327,-12.444 7.16,-2.35 m -6.068,28.566 5.117,-1.454 8.113,-48.316 -3.987,1.196 -2.54,15.194 -8.431,2.767 -2.47,-13.55 -3.88,1.162 8.078,43.001" /></g><g
           transform="translate(32.6079,49.3044)"
           id="g44"><path
             id="path46"
             style="fill:currentColor;fill-opacity:1;fill-rule:nonzero;stroke:none"
             d="m 0,0 c -0.031,0 -0.063,0.002 -0.095,0.008 l -5.738,1.013 c -0.258,0.045 -0.447,0.267 -0.45,0.529 -0.004,0.262 0.179,0.489 0.434,0.542 l 4.12,0.847 c 0.038,0.008 0.074,0.011 0.111,0.011 0.031,0 0.063,-0.002 0.095,-0.008 L 4.215,1.93 C 4.473,1.884 4.662,1.662 4.665,1.4 4.669,1.139 4.486,0.911 4.23,0.858 L 0.11,0.011 C 0.073,0.003 0.037,0 0,0" /></g><g
           transform="translate(30.9888,52.8005)"
           id="g48"><path
             id="path50"
             style="fill:currentColor;fill-opacity:1;fill-rule:nonzero;stroke:none"
             d="M 0,0 C -0.073,0 -0.146,-0.008 -0.219,-0.022 L -4.34,-0.87 c -0.512,-0.106 -0.878,-0.561 -0.871,-1.084 0.008,-0.524 0.387,-0.968 0.902,-1.059 L 1.43,-4.025 c 0.062,-0.012 0.126,-0.018 0.189,-0.018 0.074,0 0.148,0.008 0.22,0.023 l 4.12,0.848 c 0.513,0.106 0.879,0.561 0.871,1.084 -0.008,0.524 -0.386,0.968 -0.901,1.059 l -5.74,1.012 C 0.127,-0.006 0.064,0 0,0 M 0,-1.091 5.739,-2.104 1.619,-2.951 -4.119,-1.938 0,-1.091" /></g><g
           transform="translate(58.1567,38.3611)"
           id="g52"><path
             id="path54"
             style="fill:#ffffff;fill-opacity:1;fill-rule:nonzero;stroke:none"
             d="M 0,0 C -0.057,0 -0.114,0.009 -0.169,0.026 L -57.235,18.64 c -0.225,0.073 -0.376,0.282 -0.376,0.518 v 5.264 c 0,0.174 0.082,0.337 0.221,0.439 0.095,0.07 0.208,0.106 0.324,0.106 0.054,0 0.109,-0.008 0.162,-0.025 L 0.162,7.151 C 0.391,7.08 0.545,6.869 0.545,6.631 V 0.545 C 0.545,0.37 0.462,0.206 0.32,0.104 0.226,0.035 0.113,0 0,0" /></g><g
           transform="translate(1.0903,63.8748)"
           id="g56"><path
             id="path58"
             style="fill:currentColor;fill-opacity:1;fill-rule:nonzero;stroke:none"
             d="M 0,0 C -0.229,0 -0.456,-0.073 -0.646,-0.213 -0.926,-0.418 -1.09,-0.744 -1.09,-1.092 v -5.263 c 0,-0.473 0.303,-0.891 0.752,-1.038 l 57.067,-18.613 c 0.111,-0.036 0.224,-0.054 0.337,-0.054 0.228,0 0.454,0.072 0.641,0.208 0.283,0.206 0.451,0.534 0.451,0.883 v 6.086 c 0,0.477 -0.31,0.899 -0.766,1.041 L 0.325,-0.05 C 0.219,-0.017 0.109,0 0,0 m 0,-1.092 57.066,-17.791 v -6.086 L 0,-6.355 v 5.263" /></g><g
           transform="translate(58.7632,38.2888)"
           id="g60"><path
             id="path62"
             style="fill:currentColor;fill-opacity:1;fill-rule:nonzero;stroke:none"
             d="m 0,0 c -0.119,0 -0.236,0.039 -0.333,0.113 -0.134,0.104 -0.212,0.263 -0.212,0.432 v 5.922 c 0,0.248 0.167,0.465 0.406,0.527 L 9.256,9.458 C 9.302,9.47 9.349,9.476 9.395,9.476 9.514,9.476 9.631,9.437 9.728,9.362 9.861,9.259 9.939,9.1 9.939,8.931 V 3.009 C 9.939,2.761 9.772,2.544 9.533,2.481 L 0.139,0.018 C 0.093,0.006 0.046,0 0,0" /></g><g
           transform="translate(68.1567,48.3103)"
           id="g64"><path
             id="path66"
             style="fill:currentColor;fill-opacity:1;fill-rule:nonzero;stroke:none"
             d="M 0,0 C -0.092,0 -0.186,-0.012 -0.276,-0.035 L -9.67,-2.5 c -0.479,-0.125 -0.814,-0.559 -0.814,-1.055 v -5.922 c 0,-0.337 0.157,-0.656 0.424,-0.863 0.194,-0.148 0.429,-0.226 0.667,-0.226 0.092,0 0.186,0.011 0.277,0.035 l 9.393,2.464 c 0.48,0.126 0.815,0.559 0.815,1.054 v 5.922 c 0,0.338 -0.157,0.657 -0.425,0.863 C 0.474,-0.078 0.238,0 0,0 m 0,-1.091 v -5.922 l -9.393,-2.464 v 5.922 L 0,-1.091" /></g><g
           transform="translate(58.1567,44.7009)"
           id="g68"><path
             id="path70"
             style="fill:#ffffff;fill-opacity:1;fill-rule:nonzero;stroke:none"
             d="m 0,0 c -0.055,0 -0.109,0.008 -0.162,0.024 l -57.067,17.792 c -0.235,0.074 -0.392,0.296 -0.382,0.542 0.009,0.246 0.183,0.455 0.423,0.511 l 9.943,2.266 c 0.04,0.009 0.08,0.012 0.121,0.012 0.055,0 0.109,-0.007 0.162,-0.024 L 10.104,3.331 C 10.34,3.258 10.497,3.035 10.487,2.789 10.478,2.543 10.304,2.334 10.063,2.278 L 0.121,0.013 C 0.081,0.004 0.041,0 0,0" /></g><g
           transform="translate(11.0327,66.3943)"
           id="g72"><path
             id="path74"
             style="fill:currentColor;fill-opacity:1;fill-rule:nonzero;stroke:none"
             d="m 0,0 c -0.081,0 -0.163,-0.01 -0.242,-0.027 l -9.943,-2.266 c -0.48,-0.109 -0.828,-0.528 -0.847,-1.021 -0.02,-0.493 0.295,-0.937 0.765,-1.084 L 46.8,-22.189 c 0.105,-0.034 0.215,-0.05 0.324,-0.05 0.082,0 0.163,0.009 0.242,0.027 l 9.943,2.266 c 0.481,0.109 0.829,0.528 0.847,1.02 0.02,0.493 -0.294,0.938 -0.764,1.084 L 0.325,-0.05 C 0.22,-0.017 0.11,0 0,0 M 0,-1.091 57.066,-18.883 47.124,-21.148 -9.942,-3.356 0,-1.091" /></g><g
           transform="translate(64.6821,45.3337)"
           id="g76"><path
             id="path78"
             style="fill:currentColor;fill-opacity:1;fill-rule:nonzero;stroke:none"
             d="m 0,0 c -0.049,0.001 -0.098,0.01 -0.146,0.024 l -58.666,18.219 c -0.259,0.08 -0.42,0.342 -0.376,0.611 0.044,0.263 0.273,0.455 0.539,0.455 0.004,0 0.797,-0.024 0.797,-0.024 0.049,-0.001 0.098,-0.01 0.146,-0.024 L 0.96,1.042 C 1.22,0.962 1.381,0.7 1.336,0.432 1.292,0.168 1.063,-0.023 0.798,-0.023 0.793,-0.023 0,0 0,0" /></g><g
           transform="translate(6.0317,65.1882)"
           id="g80"><path
             id="path82"
             style="fill:currentColor;fill-opacity:1;fill-rule:nonzero;stroke:none"
             d="m 0,0 c -0.531,0 -0.987,-0.384 -1.075,-0.911 -0.09,-0.538 0.231,-1.06 0.752,-1.222 l 58.667,-18.219 c 0.094,-0.029 0.191,-0.045 0.291,-0.047 l 0.781,-0.024 c 0.012,0 0.022,-0.001 0.033,-0.001 0.531,0 0.988,0.384 1.075,0.911 0.09,0.538 -0.231,1.06 -0.752,1.222 L 1.105,-0.072 C 1.012,-0.043 0.914,-0.026 0.814,-0.023 L 0.033,-0.001 C 0.021,0 0.011,0 0,0 M 0,-1.091 0.782,-1.114 59.449,-19.333 58.667,-19.31 0,-1.091" /></g></g></g></g></svg>