<svg
   xmlns="http://www.w3.org/2000/svg"
   viewBox="0 0 92.330666 140.07733"
   height="106"
   width="70"
   xml:space="preserve"
   id="svg2"
   version="1.1"><g
     transform="matrix(1.3333333,0,0,-1.3333333,0,140.07733)"
     id="g10"><g
       id="g12"><g
         id="g14"><g
           transform="translate(23.7382,6.0256)"
           id="g20"><path
             id="path22"
             style="fill:currentColor;fill-opacity:1;fill-rule:nonzero;stroke:none"
             d="m 0,0 c -0.14,0 -0.276,0.054 -0.379,0.153 -0.13,0.125 -0.189,0.308 -0.158,0.487 l 6.624,37.675 c 0.038,0.219 0.207,0.394 0.425,0.44 l 5.396,1.135 c 0.037,0.007 0.075,0.01 0.113,0.01 0.139,0 0.276,-0.053 0.378,-0.153 0.131,-0.125 0.19,-0.308 0.159,-0.486 L 5.934,1.585 C 5.895,1.366 5.727,1.191 5.509,1.146 L 0.112,0.011 C 0.075,0.003 0.037,0 0,0" /></g><g
           transform="translate(35.7587,44.2902)"
           id="g24"><path
             id="path26"
             style="fill:currentColor;fill-opacity:1;fill-rule:nonzero;stroke:none"
             d="m 0,0 h 0.005 z m 0,2.182 c -0.074,0 -0.149,-0.008 -0.225,-0.024 L -5.621,1.023 C -6.057,0.933 -6.394,0.584 -6.471,0.146 l -6.624,-37.676 c -0.063,-0.358 0.056,-0.722 0.316,-0.974 0.205,-0.198 0.478,-0.307 0.758,-0.307 0.075,0 0.15,0.008 0.225,0.024 l 5.396,1.135 c 0.437,0.09 0.773,0.439 0.85,0.878 L 1.074,0.902 C 1.137,1.259 1.019,1.623 0.759,1.875 0.553,2.073 0.28,2.182 0,2.182 M 0,1.091 -6.624,-36.585 -12.021,-37.72 -5.396,-0.044 0,1.091" /></g><g
           transform="translate(40.5878,0.5578)"
           id="g28"><path
             id="path30"
             style="fill:currentColor;fill-opacity:1;fill-rule:nonzero;stroke:none"
             d="m 0,0 c -0.108,0 -0.216,0.032 -0.307,0.094 -0.123,0.084 -0.206,0.214 -0.231,0.36 l -8.189,48.354 c -0.048,0.288 0.139,0.564 0.426,0.625 l 5.397,1.134 c 0.037,0.008 0.075,0.011 0.112,0.011 0.108,0 0.216,-0.032 0.307,-0.094 0.123,-0.084 0.206,-0.213 0.231,-0.36 L 5.935,1.771 C 5.983,1.482 5.795,1.206 5.509,1.146 L 0.112,0.011 C 0.075,0.003 0.037,0 0,0" /></g><g
           transform="translate(37.7959,51.6818)"
           id="g32"><path
             id="path34"
             style="fill:currentColor;fill-opacity:1;fill-rule:nonzero;stroke:none"
             d="M 0,0 C -0.075,0 -0.15,-0.008 -0.225,-0.023 L -5.622,-1.158 C -6.194,-1.278 -6.57,-1.83 -6.473,-2.407 l 8.189,-48.354 c 0.05,-0.293 0.217,-0.552 0.462,-0.719 0.182,-0.124 0.396,-0.19 0.614,-0.19 0.074,0 0.149,0.008 0.224,0.024 l 5.397,1.134 c 0.573,0.12 0.948,0.672 0.851,1.249 L 1.075,-0.909 C 1.025,-0.616 0.859,-0.356 0.613,-0.189 0.432,-0.065 0.217,0 0,0 M 0,-1.091 8.188,-49.444 2.792,-50.579 -5.397,-2.226 0,-1.091" /></g><g
           transform="translate(32.7387,23.0939)"
           id="g36"><path
             id="path38"
             style="fill:#ffffff;fill-opacity:1;fill-rule:nonzero;stroke:none"
             d="m 0,0 -2.179,13.015 c -0.297,1.772 -0.539,3.443 -0.757,5.054 -0.225,-1.504 -0.446,-2.871 -0.672,-4.168 L -5.85,1.92 Z m 7.849,-22.548 c -0.053,0 -0.105,0.007 -0.156,0.023 l -3.987,1.195 c -0.2,0.059 -0.348,0.227 -0.382,0.433 L 0.838,-6.029 -6.684,-3.56 -9.041,-16.493 c -0.028,-0.153 -0.119,-0.286 -0.251,-0.367 -0.087,-0.054 -0.186,-0.08 -0.286,-0.08 -0.052,0 -0.105,0.006 -0.156,0.022 l -3.881,1.16 c -0.268,0.08 -0.431,0.349 -0.38,0.623 l 8.078,43.001 c 0.028,0.151 0.118,0.282 0.249,0.363 0.086,0.054 0.186,0.082 0.287,0.082 0.049,0 0.1,-0.007 0.149,-0.021 l 5.117,-1.453 C 0.087,26.779 0.239,26.61 0.274,26.402 l 8.113,-48.315 c 0.031,-0.186 -0.036,-0.374 -0.178,-0.499 -0.1,-0.089 -0.229,-0.136 -0.36,-0.136" /></g><g
           transform="translate(27.5131,25.383)"
           id="g40"><path
             id="path42"
             style="fill:currentColor;fill-opacity:1;fill-rule:nonzero;stroke:none"
             d="m 0,0 2.152,11.505 c 0.037,0.214 0.075,0.429 0.112,0.646 0.077,-0.497 0.159,-1.002 0.245,-1.515 L 4.539,-1.49 Z m -0.156,26.567 c -0.2,0 -0.4,-0.054 -0.573,-0.163 -0.261,-0.161 -0.442,-0.425 -0.499,-0.725 l -8.078,-43.001 c -0.103,-0.549 0.225,-1.087 0.76,-1.247 l 3.881,-1.16 c 0.103,-0.032 0.208,-0.046 0.313,-0.046 0.199,0 0.396,0.054 0.57,0.16 0.264,0.162 0.447,0.429 0.503,0.734 l 2.245,12.319 6.615,-2.171 2.43,-14.543 c 0.07,-0.411 0.364,-0.746 0.763,-0.866 l 3.987,-1.195 c 0.103,-0.031 0.208,-0.046 0.314,-0.046 0.261,0 0.519,0.095 0.721,0.273 0.283,0.25 0.416,0.627 0.354,0.999 L 6.037,24.204 c -0.07,0.416 -0.372,0.754 -0.778,0.869 l -5.117,1.453 c -0.098,0.028 -0.198,0.041 -0.298,0.041 M 5.913,-3.089 3.584,10.815 C 3.056,13.97 2.703,16.795 2.35,19.553 L 2.279,19.575 C 1.927,16.982 1.539,14.332 1.08,11.706 L -1.248,-0.738 5.913,-3.089 m -6.069,28.566 5.117,-1.454 8.114,-48.315 -3.988,1.195 -2.54,15.194 -8.43,2.767 -2.469,-13.549 -3.881,1.161 8.077,43.001" /></g><g
           transform="translate(33.2714,49.3039)"
           id="g44"><path
             id="path46"
             style="fill:currentColor;fill-opacity:1;fill-rule:nonzero;stroke:none"
             d="m 0,0 c -0.032,0 -0.063,0.002 -0.095,0.008 l -5.738,1.013 c -0.258,0.045 -0.447,0.267 -0.451,0.529 -0.003,0.262 0.18,0.489 0.436,0.542 l 4.12,0.848 c 0.036,0.008 0.073,0.011 0.11,0.011 0.032,0 0.063,-0.002 0.095,-0.008 L 4.215,1.931 C 4.473,1.885 4.662,1.663 4.665,1.401 4.669,1.14 4.486,0.912 4.23,0.859 L 0.11,0.011 C 0.074,0.003 0.037,0 0,0" /></g><g
           transform="translate(31.6533,52.8005)"
           id="g48"><path
             id="path50"
             style="fill:currentColor;fill-opacity:1;fill-rule:nonzero;stroke:none"
             d="m 0,0 c -0.074,0 -0.147,-0.007 -0.22,-0.022 l -4.12,-0.849 c -0.513,-0.105 -0.878,-0.56 -0.871,-1.084 0.007,-0.523 0.386,-0.967 0.901,-1.058 l 5.739,-1.013 c 0.062,-0.011 0.126,-0.016 0.189,-0.016 0.074,0 0.148,0.007 0.22,0.022 l 4.12,0.849 c 0.513,0.105 0.879,0.559 0.871,1.083 -0.008,0.523 -0.386,0.967 -0.901,1.059 L 0.189,-0.017 C 0.126,-0.005 0.063,0 0,0 M 0,-1.09 5.738,-2.103 1.618,-2.952 -4.12,-1.939 0,-1.09" /></g><g
           transform="translate(58.1572,40.0422)"
           id="g52"><path
             id="path54"
             style="fill:#ffffff;fill-opacity:1;fill-rule:nonzero;stroke:none"
             d="M 0,0 C -0.057,0 -0.114,0.009 -0.169,0.026 L -57.235,18.64 c -0.225,0.073 -0.377,0.282 -0.377,0.518 v 5.456 c 0,0.174 0.083,0.337 0.222,0.44 0.095,0.07 0.209,0.106 0.324,0.106 0.054,0 0.108,-0.009 0.162,-0.025 L 0.162,7.344 C 0.391,7.272 0.545,7.062 0.545,6.823 V 0.545 C 0.545,0.37 0.462,0.206 0.32,0.104 0.226,0.035 0.113,0 0,0" /></g><g
           transform="translate(1.0908,65.7472)"
           id="g56"><path
             id="path58"
             style="fill:currentColor;fill-opacity:1;fill-rule:nonzero;stroke:none"
             d="m 0,0 c -0.23,0 -0.457,-0.073 -0.646,-0.212 -0.28,-0.205 -0.445,-0.532 -0.445,-0.879 v -5.456 c 0,-0.472 0.304,-0.89 0.753,-1.036 l 57.066,-18.614 c 0.111,-0.035 0.225,-0.054 0.338,-0.054 0.228,0 0.453,0.071 0.641,0.208 0.282,0.205 0.45,0.534 0.45,0.883 v 6.278 c 0,0.477 -0.31,0.899 -0.766,1.041 L 0.325,-0.049 C 0.218,-0.016 0.109,0 0,0 M 0,-1.091 57.066,-18.882 V -25.16 L 0,-6.547 v 5.456" /></g><g
           transform="translate(58.7636,39.9709)"
           id="g60"><path
             id="path62"
             style="fill:currentColor;fill-opacity:1;fill-rule:nonzero;stroke:none"
             d="m 0,0 c -0.119,0 -0.236,0.039 -0.333,0.113 -0.134,0.104 -0.212,0.263 -0.212,0.432 v 6.113 c 0,0.248 0.167,0.465 0.406,0.528 L 9.255,9.649 C 9.301,9.661 9.348,9.667 9.394,9.667 9.513,9.667 9.63,9.628 9.727,9.554 9.86,9.45 9.938,9.291 9.938,9.122 V 3.009 C 9.938,2.761 9.771,2.544 9.532,2.481 L 0.139,0.018 C 0.093,0.006 0.046,0 0,0" /></g><g
           transform="translate(68.1572,50.1838)"
           id="g64"><path
             id="path66"
             style="fill:currentColor;fill-opacity:1;fill-rule:nonzero;stroke:none"
             d="M 0,0 C -0.093,0 -0.186,-0.012 -0.276,-0.036 L -9.67,-2.5 c -0.48,-0.126 -0.814,-0.56 -0.814,-1.055 v -6.113 c 0,-0.338 0.157,-0.657 0.424,-0.864 0.193,-0.149 0.428,-0.227 0.666,-0.227 0.093,0 0.186,0.012 0.277,0.035 l 9.393,2.464 c 0.481,0.126 0.815,0.56 0.815,1.056 v 6.113 c 0,0.338 -0.156,0.656 -0.425,0.863 C 0.474,-0.079 0.238,0 0,0 m 0,-1.091 v -6.113 l -9.394,-2.464 v 6.113 L 0,-1.091" /></g><g
           transform="translate(58.1572,46.5744)"
           id="g68"><path
             id="path70"
             style="fill:#ffffff;fill-opacity:1;fill-rule:nonzero;stroke:none"
             d="m 0,0 c -0.055,0 -0.109,0.008 -0.162,0.024 l -57.067,17.792 c -0.235,0.073 -0.392,0.295 -0.382,0.542 0.009,0.246 0.183,0.455 0.423,0.51 l 9.942,2.266 c 0.04,0.009 0.081,0.013 0.121,0.013 0.055,0 0.11,-0.008 0.163,-0.024 L 10.104,3.331 C 10.339,3.258 10.496,3.035 10.486,2.789 10.477,2.543 10.303,2.334 10.063,2.278 L 0.121,0.013 C 0.081,0.004 0.041,0 0,0" /></g><g
           transform="translate(11.0327,68.2673)"
           id="g72"><path
             id="path74"
             style="fill:currentColor;fill-opacity:1;fill-rule:nonzero;stroke:none"
             d="m 0,0 c -0.081,0 -0.163,-0.009 -0.242,-0.027 l -9.942,-2.266 c -0.481,-0.109 -0.829,-0.528 -0.848,-1.021 -0.019,-0.493 0.295,-0.937 0.765,-1.084 l 57.066,-17.791 c 0.106,-0.033 0.216,-0.05 0.326,-0.05 0.081,0 0.162,0.009 0.242,0.028 l 9.942,2.265 c 0.481,0.11 0.828,0.528 0.847,1.021 0.019,0.493 -0.294,0.937 -0.765,1.084 L 0.325,-0.05 C 0.219,-0.017 0.11,0 0,0 M 0,-1.091 57.066,-18.882 47.125,-21.148 -9.942,-3.356 0,-1.091" /></g><g
           transform="translate(64.6855,47.2541)"
           id="g76"><path
             id="path78"
             style="fill:currentColor;fill-opacity:1;fill-rule:nonzero;stroke:none"
             d="m 0,0 c -0.05,0.001 -0.099,0.01 -0.146,0.024 l -58.666,18.219 c -0.261,0.081 -0.421,0.342 -0.376,0.611 0.043,0.264 0.272,0.456 0.538,0.456 0.005,0 0.797,-0.024 0.797,-0.024 0.049,-0.001 0.099,-0.009 0.145,-0.024 L 0.959,1.043 C 1.219,0.963 1.38,0.702 1.335,0.433 1.291,0.169 1.062,-0.022 0.797,-0.022 0.792,-0.022 0,0 0,0" /></g><g
           transform="translate(6.0346,67.1091)"
           id="g80"><path
             id="path82"
             style="fill:currentColor;fill-opacity:1;fill-rule:nonzero;stroke:none"
             d="m 0,0 c -0.531,0 -0.988,-0.384 -1.076,-0.911 -0.09,-0.538 0.232,-1.06 0.753,-1.221 l 58.666,-18.219 c 0.095,-0.029 0.193,-0.046 0.291,-0.049 l 0.783,-0.023 h 0.032 c 0.531,0 0.987,0.383 1.075,0.911 0.09,0.538 -0.232,1.059 -0.752,1.221 L 1.105,-0.072 C 1.011,-0.043 0.913,-0.026 0.814,-0.023 L 0.032,0 C 0.021,0 0.011,0 0,0 M 0,-1.091 0.782,-1.114 59.448,-19.333 58.667,-19.31 0,-1.091" /></g><g
           transform="translate(25.6562,58.2829)"
           id="g84"><path
             id="path86"
             style="fill:currentColor;fill-opacity:1;fill-rule:nonzero;stroke:none"
             d="m 0,0 c -0.14,0 -0.276,0.054 -0.379,0.153 -0.13,0.126 -0.189,0.308 -0.158,0.487 l 6.624,37.675 c 0.038,0.22 0.207,0.394 0.425,0.44 l 5.396,1.134 c 0.037,0.008 0.075,0.012 0.113,0.012 0.139,0 0.276,-0.054 0.378,-0.153 0.131,-0.126 0.19,-0.309 0.159,-0.487 L 5.934,1.585 C 5.895,1.366 5.727,1.192 5.509,1.146 L 0.112,0.012 C 0.075,0.004 0.037,0 0,0" /></g><g
           transform="translate(37.6767,96.5475)"
           id="g88"><path
             id="path90"
             style="fill:currentColor;fill-opacity:1;fill-rule:nonzero;stroke:none"
             d="m 0,0 h 0.005 z m 0,2.182 c -0.074,0 -0.149,-0.008 -0.225,-0.024 L -5.621,1.024 C -6.057,0.933 -6.394,0.584 -6.471,0.146 l -6.624,-37.676 c -0.063,-0.357 0.055,-0.721 0.316,-0.973 0.205,-0.199 0.478,-0.307 0.758,-0.307 0.075,0 0.15,0.007 0.225,0.023 l 5.396,1.135 c 0.437,0.091 0.773,0.439 0.85,0.878 L 1.074,0.902 C 1.137,1.259 1.019,1.623 0.759,1.875 0.553,2.074 0.28,2.182 0,2.182 M 0,1.091 -6.624,-36.585 -12.021,-37.719 -5.396,-0.043 0,1.091" /></g><g
           transform="translate(42.5058,52.8151)"
           id="g92"><path
             id="path94"
             style="fill:currentColor;fill-opacity:1;fill-rule:nonzero;stroke:none"
             d="M 0,0 C -0.108,0 -0.216,0.033 -0.307,0.095 -0.43,0.178 -0.513,0.308 -0.538,0.454 l -8.189,48.354 c -0.048,0.289 0.139,0.565 0.426,0.625 l 5.397,1.134 c 0.037,0.008 0.075,0.012 0.112,0.012 0.108,0 0.216,-0.033 0.307,-0.095 0.123,-0.084 0.206,-0.213 0.231,-0.36 L 5.935,1.771 C 5.983,1.482 5.795,1.206 5.509,1.146 L 0.112,0.012 C 0.075,0.004 0.037,0 0,0" /></g><g
           transform="translate(39.7138,103.9391)"
           id="g96"><path
             id="path98"
             style="fill:currentColor;fill-opacity:1;fill-rule:nonzero;stroke:none"
             d="M 0,0 C -0.075,0 -0.15,-0.008 -0.225,-0.023 L -5.622,-1.158 C -6.194,-1.278 -6.57,-1.83 -6.473,-2.407 l 8.189,-48.354 c 0.05,-0.292 0.217,-0.552 0.462,-0.719 0.182,-0.125 0.396,-0.189 0.614,-0.189 0.074,0 0.149,0.007 0.224,0.023 l 5.397,1.134 c 0.573,0.12 0.948,0.672 0.851,1.25 L 1.075,-0.909 C 1.025,-0.616 0.859,-0.356 0.613,-0.189 0.432,-0.065 0.217,0 0,0 M 0,-1.091 8.188,-49.444 2.792,-50.579 -5.397,-2.225 0,-1.091" /></g><g
           transform="translate(34.6567,75.3508)"
           id="g100"><path
             id="path102"
             style="fill:#ffffff;fill-opacity:1;fill-rule:nonzero;stroke:none"
             d="m 0,0 -2.179,13.016 c -0.297,1.772 -0.539,3.443 -0.757,5.053 C -3.161,16.567 -3.382,15.2 -3.608,13.902 L -5.85,1.92 Z m 7.849,-22.548 c -0.053,0 -0.105,0.007 -0.156,0.023 l -3.987,1.196 c -0.2,0.059 -0.348,0.227 -0.382,0.433 l -2.486,14.867 -7.522,2.47 -2.357,-12.934 c -0.028,-0.153 -0.119,-0.286 -0.251,-0.367 -0.087,-0.053 -0.186,-0.08 -0.286,-0.08 -0.052,0 -0.105,0.007 -0.156,0.023 l -3.881,1.16 c -0.268,0.08 -0.431,0.349 -0.38,0.623 l 8.078,43.001 c 0.028,0.151 0.118,0.283 0.249,0.363 0.086,0.054 0.186,0.082 0.287,0.082 0.049,0 0.1,-0.007 0.149,-0.021 l 5.117,-1.453 c 0.202,-0.057 0.354,-0.227 0.389,-0.434 l 8.113,-48.316 c 0.031,-0.186 -0.036,-0.375 -0.178,-0.5 -0.1,-0.088 -0.229,-0.136 -0.36,-0.136" /></g><g
           transform="translate(29.4311,77.6408)"
           id="g104"><path
             id="path106"
             style="fill:currentColor;fill-opacity:1;fill-rule:nonzero;stroke:none"
             d="m 0,0 2.152,11.505 c 0.037,0.213 0.075,0.429 0.112,0.646 0.077,-0.498 0.159,-1.003 0.245,-1.516 L 4.539,-1.49 Z m -0.156,26.567 c -0.2,0 -0.4,-0.055 -0.573,-0.163 -0.261,-0.161 -0.442,-0.425 -0.499,-0.726 l -8.078,-43.001 c -0.103,-0.549 0.225,-1.086 0.76,-1.246 l 3.881,-1.161 c 0.103,-0.031 0.208,-0.046 0.313,-0.046 0.199,0 0.396,0.055 0.57,0.161 0.264,0.162 0.447,0.429 0.503,0.734 l 2.245,12.319 6.615,-2.172 2.43,-14.543 c 0.07,-0.41 0.364,-0.745 0.763,-0.865 l 3.987,-1.195 c 0.103,-0.031 0.208,-0.046 0.314,-0.046 0.261,0 0.519,0.094 0.721,0.273 0.283,0.249 0.416,0.627 0.354,0.998 L 6.037,24.204 c -0.07,0.416 -0.372,0.754 -0.778,0.869 l -5.117,1.453 c -0.098,0.028 -0.198,0.041 -0.298,0.041 M 5.913,-3.089 3.584,10.815 C 3.056,13.969 2.703,16.794 2.35,19.552 L 2.279,19.575 C 1.927,16.981 1.539,14.332 1.08,11.706 l -2.328,-12.445 7.161,-2.35 m -6.069,28.566 5.117,-1.454 8.114,-48.315 -3.988,1.195 -2.54,15.194 -8.43,2.767 -2.469,-13.549 -3.881,1.161 8.077,43.001" /></g><g
           transform="translate(35.0947,101.5695)"
           id="g108"><path
             id="path110"
             style="fill:currentColor;fill-opacity:1;fill-rule:nonzero;stroke:none"
             d="m 0,0 -5.738,1.013 c -0.258,0.045 -0.447,0.267 -0.451,0.529 -0.003,0.262 0.179,0.489 0.436,0.542 l 4.119,0.848 c 0.036,0.007 0.073,0.011 0.11,0.011 0.032,0 0.064,-0.003 0.095,-0.008 L 4.31,1.922 C 4.567,1.877 4.757,1.655 4.76,1.393 4.764,1.131 4.581,0.904 4.325,0.851 L 0.205,0.003 C 0.168,-0.004 0.132,-0.008 0.095,-0.008 0.063,-0.008 0.031,-0.005 0,0" /></g><g
           transform="translate(33.5712,105.0583)"
           id="g112"><path
             id="path114"
             style="fill:currentColor;fill-opacity:1;fill-rule:nonzero;stroke:none"
             d="m 0,0 c -0.074,0 -0.147,-0.007 -0.22,-0.022 l -4.12,-0.849 c -0.513,-0.105 -0.878,-0.56 -0.871,-1.084 0.007,-0.523 0.386,-0.967 0.901,-1.058 l 5.739,-1.013 c 0.062,-0.011 0.126,-0.016 0.189,-0.016 0.074,0 0.148,0.007 0.22,0.022 l 4.12,0.848 c 0.513,0.106 0.879,0.56 0.871,1.084 -0.008,0.523 -0.386,0.967 -0.901,1.059 L 0.189,-0.017 C 0.126,-0.005 0.063,0 0,0 M 0,-1.091 5.738,-2.104 1.618,-2.952 -4.12,-1.939 0,-1.091" /></g></g></g></g></svg>