<svg
   xmlns="http://www.w3.org/2000/svg"
   viewBox="0 0 85.995994 70.850532"
   height="54"
   width="65"
   xml:space="preserve"
   id="svg2"
   version="1.1"><g
     transform="matrix(1.3333333,0,0,-1.3333333,0,70.851198)"
     id="g10"><g
       id="g12"><g
         id="g14"><g
           transform="translate(58.1572,0.6174)"
           id="g20"><path
             id="path22"
             style="fill:#ffffff;fill-opacity:1;fill-rule:nonzero;stroke:none"
             d="M 0,0 C -0.057,0 -0.114,0.009 -0.169,0.027 L -57.235,18.64 c -0.225,0.073 -0.377,0.282 -0.377,0.518 V 27.9 c 0,0.174 0.083,0.337 0.222,0.44 0.095,0.07 0.209,0.106 0.324,0.106 0.054,0 0.109,-0.009 0.162,-0.025 L 0.162,10.629 c 0.228,-0.07 0.383,-0.281 0.383,-0.52 V 0.545 C 0.545,0.371 0.462,0.207 0.32,0.104 0.226,0.036 0.114,0 0,0" /></g><g
           transform="translate(1.0907,29.6086)"
           id="g24"><path
             id="path26"
             style="fill:currentColor;fill-opacity:1;fill-rule:nonzero;stroke:none"
             d="m 0,0 c -0.229,0 -0.457,-0.073 -0.646,-0.212 -0.28,-0.206 -0.445,-0.532 -0.445,-0.879 v -8.742 c 0,-0.472 0.304,-0.891 0.753,-1.037 l 57.066,-18.613 c 0.11,-0.036 0.225,-0.054 0.338,-0.054 0.227,0 0.452,0.071 0.641,0.208 0.283,0.205 0.45,0.534 0.45,0.883 v 9.564 c 0,0.477 -0.31,0.899 -0.766,1.041 L 0.325,-0.049 C 0.218,-0.016 0.109,0 0,0 m 0,-1.091 57.066,-17.791 v -9.564 L 0,-9.833 v 8.742" /></g><g
           transform="translate(58.1572,4.2624)"
           id="g28"><path
             id="path30"
             style="fill:currentColor;fill-opacity:1;fill-rule:nonzero;stroke:none"
             d="m 0,0 c -0.057,0 -0.113,0.009 -0.168,0.027 l -57.067,18.531 c -0.224,0.073 -0.377,0.282 -0.377,0.519 v 0.965 c 0,0.175 0.084,0.338 0.225,0.441 0.095,0.069 0.207,0.104 0.321,0.104 0.056,0 0.113,-0.008 0.168,-0.026 L 0.168,2.03 C 0.393,1.957 0.545,1.748 0.545,1.511 V 0.545 C 0.545,0.371 0.462,0.207 0.321,0.104 0.226,0.036 0.114,0 0,0" /></g><g
           transform="translate(1.0907,25.3952)"
           id="g32"><path
             id="path34"
             style="fill:currentColor;fill-opacity:1;fill-rule:nonzero;stroke:none"
             d="m 0,0 c -0.228,0 -0.453,-0.071 -0.641,-0.208 -0.283,-0.206 -0.45,-0.534 -0.45,-0.883 v -0.965 c 0,-0.473 0.305,-0.892 0.754,-1.038 L 56.73,-21.625 c 0.109,-0.035 0.223,-0.053 0.336,-0.053 0.228,0 0.453,0.071 0.642,0.208 0.282,0.206 0.449,0.533 0.449,0.883 v 0.965 c 0,0.473 -0.304,0.892 -0.754,1.038 L 0.337,-0.053 C 0.227,-0.018 0.113,0 0,0 m 0,-1.091 57.066,-18.531 v -0.965 L 0,-2.056 v 0.965" /></g><g
           transform="translate(58.7636,0.5456)"
           id="g36"><path
             id="path38"
             style="fill:currentColor;fill-opacity:1;fill-rule:nonzero;stroke:none"
             d="m 0,0 c -0.12,0 -0.237,0.04 -0.334,0.114 -0.133,0.104 -0.211,0.263 -0.211,0.431 v 9.399 c 0,0.249 0.168,0.466 0.409,0.529 l 4.643,1.196 c 0.045,0.012 0.091,0.018 0.136,0.018 0.12,0 0.237,-0.04 0.334,-0.115 C 5.11,11.469 5.188,11.31 5.188,11.141 V 1.742 C 5.188,1.494 5.02,1.276 4.779,1.214 L 0.136,0.017 C 0.091,0.006 0.045,0 0,0" /></g><g
           transform="translate(63.4067,12.7775)"
           id="g40"><path
             id="path42"
             style="fill:currentColor;fill-opacity:1;fill-rule:nonzero;stroke:none"
             d="M 0,0 C -0.091,0 -0.182,-0.011 -0.272,-0.034 L -4.916,-1.231 C -5.397,-1.355 -5.734,-1.79 -5.734,-2.288 v -9.399 c 0,-0.337 0.156,-0.655 0.423,-0.862 0.193,-0.15 0.429,-0.228 0.668,-0.228 0.091,0 0.182,0.011 0.272,0.034 l 4.643,1.197 c 0.482,0.124 0.819,0.559 0.819,1.056 v 9.399 c 0,0.338 -0.156,0.656 -0.423,0.862 C 0.475,-0.079 0.239,0 0,0 m 0,-1.091 v -9.399 l -4.643,-1.197 v 9.399 L 0,-1.091" /></g><g
           transform="translate(58.1572,10.4348)"
           id="g44"><path
             id="path46"
             style="fill:#ffffff;fill-opacity:1;fill-rule:nonzero;stroke:none"
             d="m 0,0 c -0.055,0 -0.109,0.008 -0.162,0.025 l -57.067,17.792 c -0.238,0.074 -0.396,0.301 -0.382,0.551 0.014,0.25 0.196,0.458 0.442,0.505 l 5.191,0.999 c 0.034,0.006 0.068,0.009 0.103,0.009 0.055,0 0.109,-0.008 0.162,-0.025 L 5.354,2.065 C 5.592,1.991 5.75,1.764 5.736,1.514 5.722,1.264 5.54,1.056 5.294,1.009 L 0.103,0.01 C 0.069,0.003 0.035,0 0,0" /></g><g
           transform="translate(6.2822,30.8615)"
           id="g48"><path
             id="path50"
             style="fill:currentColor;fill-opacity:1;fill-rule:nonzero;stroke:none"
             d="m 0,0 c -0.069,0 -0.138,-0.007 -0.206,-0.02 l -5.191,-0.999 c -0.492,-0.094 -0.855,-0.51 -0.883,-1.009 -0.029,-0.5 0.286,-0.954 0.764,-1.103 L 51.55,-20.922 c 0.106,-0.034 0.215,-0.05 0.325,-0.05 0.069,0 0.138,0.007 0.206,0.02 l 5.191,0.998 c 0.491,0.095 0.855,0.511 0.883,1.01 0.028,0.5 -0.287,0.954 -0.764,1.103 L 0.325,-0.05 C 0.219,-0.017 0.11,0 0,0 M 0,-1.091 57.066,-18.882 51.875,-19.881 -5.191,-2.089 0,-1.091" /></g><g
           transform="translate(19.391,6.363)"
           id="g52"><path
             id="path54"
             style="fill:currentColor;fill-opacity:1;fill-rule:nonzero;stroke:none"
             d="m 0,0 c -0.14,0 -0.276,0.054 -0.379,0.153 -0.13,0.126 -0.189,0.308 -0.158,0.487 l 6.624,37.676 c 0.038,0.22 0.207,0.393 0.425,0.439 l 5.396,1.135 c 0.038,0.007 0.075,0.011 0.113,0.011 0.14,0 0.276,-0.054 0.379,-0.153 0.13,-0.126 0.189,-0.308 0.158,-0.486 L 5.934,1.585 C 5.895,1.366 5.727,1.192 5.509,1.146 L 0.112,0.012 C 0.075,0.004 0.037,0 0,0" /></g><g
           transform="translate(31.4115,44.6281)"
           id="g56"><path
             id="path58"
             style="fill:currentColor;fill-opacity:1;fill-rule:nonzero;stroke:none"
             d="m 0,0 h 0.005 z m 0,2.182 c -0.075,0 -0.149,-0.008 -0.224,-0.024 L -5.621,1.024 C -6.057,0.932 -6.394,0.584 -6.471,0.146 l -6.624,-37.677 c -0.063,-0.356 0.056,-0.721 0.316,-0.972 0.205,-0.199 0.478,-0.308 0.758,-0.308 0.075,0 0.15,0.008 0.225,0.024 l 5.397,1.134 c 0.436,0.092 0.772,0.44 0.849,0.879 L 1.075,0.902 C 1.137,1.258 1.019,1.623 0.759,1.875 0.553,2.074 0.28,2.182 0,2.182 M 0,1.091 -6.624,-36.585 -12.021,-37.72 -5.396,-0.043 0,1.091" /></g><g
           transform="translate(36.2407,0.8952)"
           id="g60"><path
             id="path62"
             style="fill:currentColor;fill-opacity:1;fill-rule:nonzero;stroke:none"
             d="M 0,0 C -0.109,0 -0.216,0.033 -0.307,0.095 -0.43,0.178 -0.513,0.308 -0.538,0.454 l -8.189,48.354 c -0.048,0.289 0.139,0.565 0.426,0.625 l 5.396,1.134 c 0.037,0.008 0.075,0.012 0.113,0.012 0.108,0 0.215,-0.033 0.307,-0.095 0.122,-0.083 0.206,-0.213 0.23,-0.359 L 5.934,1.771 C 5.983,1.482 5.795,1.206 5.509,1.146 L 0.112,0.012 C 0.075,0.004 0.038,0 0,0" /></g><g
           transform="translate(33.4482,52.0197)"
           id="g64"><path
             id="path66"
             style="fill:currentColor;fill-opacity:1;fill-rule:nonzero;stroke:none"
             d="M 0,0 C -0.075,0 -0.15,-0.008 -0.224,-0.023 L -5.621,-1.158 C -6.194,-1.278 -6.57,-1.83 -6.472,-2.407 l 8.189,-48.354 c 0.05,-0.293 0.216,-0.552 0.461,-0.719 0.183,-0.124 0.397,-0.19 0.614,-0.19 0.075,0 0.15,0.008 0.225,0.024 l 5.396,1.134 c 0.573,0.12 0.949,0.672 0.851,1.249 L 1.076,-0.909 C 1.026,-0.616 0.859,-0.356 0.614,-0.189 0.432,-0.065 0.217,0 0,0 M 0,-1.091 8.189,-49.445 2.792,-50.579 -5.396,-2.225 0,-1.091" /></g><g
           transform="translate(28.3915,23.4313)"
           id="g68"><path
             id="path70"
             style="fill:#ffffff;fill-opacity:1;fill-rule:nonzero;stroke:none"
             d="m 0,0 -2.179,13.016 c -0.297,1.772 -0.539,3.443 -0.757,5.053 C -3.161,16.567 -3.381,15.2 -3.608,13.901 L -5.85,1.92 Z m 7.849,-22.548 c -0.052,0 -0.105,0.007 -0.157,0.023 l -3.987,1.195 c -0.199,0.06 -0.347,0.228 -0.381,0.433 L 0.839,-6.029 -6.684,-3.56 -9.041,-16.493 c -0.028,-0.153 -0.119,-0.286 -0.251,-0.367 -0.087,-0.054 -0.186,-0.081 -0.286,-0.081 -0.052,0 -0.105,0.008 -0.156,0.023 l -3.881,1.161 c -0.268,0.08 -0.431,0.349 -0.38,0.623 l 8.078,43.001 c 0.028,0.151 0.118,0.283 0.249,0.363 0.086,0.054 0.186,0.082 0.287,0.082 0.049,0 0.1,-0.007 0.149,-0.021 l 5.117,-1.453 c 0.202,-0.057 0.354,-0.227 0.389,-0.434 l 8.113,-48.316 c 0.031,-0.186 -0.036,-0.375 -0.177,-0.5 -0.101,-0.088 -0.23,-0.136 -0.361,-0.136" /></g><g
           transform="translate(23.1659,25.7209)"
           id="g72"><path
             id="path74"
             style="fill:currentColor;fill-opacity:1;fill-rule:nonzero;stroke:none"
             d="m 0,0 2.152,11.505 c 0.037,0.214 0.075,0.429 0.112,0.646 0.077,-0.497 0.159,-1.002 0.245,-1.516 L 4.539,-1.49 Z m -0.156,26.568 c -0.2,0 -0.4,-0.056 -0.573,-0.163 -0.261,-0.162 -0.442,-0.426 -0.499,-0.727 l -8.078,-43.001 c -0.103,-0.548 0.225,-1.086 0.76,-1.246 l 3.881,-1.161 c 0.103,-0.031 0.208,-0.045 0.313,-0.045 0.199,0 0.396,0.054 0.57,0.16 0.264,0.162 0.448,0.429 0.503,0.735 l 2.245,12.318 6.615,-2.172 2.431,-14.542 c 0.068,-0.411 0.364,-0.746 0.762,-0.866 l 3.987,-1.195 c 0.103,-0.031 0.209,-0.046 0.313,-0.046 0.262,0 0.52,0.095 0.722,0.273 0.283,0.249 0.416,0.627 0.354,0.999 L 6.037,24.205 c -0.07,0.415 -0.372,0.753 -0.778,0.868 l -5.116,1.453 c -0.099,0.028 -0.199,0.042 -0.299,0.042 M 5.913,-3.089 3.584,10.816 C 3.056,13.97 2.703,16.795 2.35,19.552 L 2.279,19.576 C 1.927,16.982 1.539,14.332 1.08,11.706 L -1.248,-0.738 5.913,-3.089 m -6.069,28.566 5.117,-1.453 8.114,-48.316 -3.988,1.195 -2.539,15.194 -8.431,2.767 -2.469,-13.549 -3.881,1.161 8.077,43.001" /></g><g
           transform="translate(28.8295,49.6496)"
           id="g76"><path
             id="path78"
             style="fill:currentColor;fill-opacity:1;fill-rule:nonzero;stroke:none"
             d="m 0,0 -5.738,1.013 c -0.258,0.046 -0.447,0.268 -0.451,0.529 -0.003,0.262 0.179,0.49 0.436,0.542 l 4.12,0.849 c 0.036,0.007 0.073,0.011 0.11,0.011 0.031,0 0.063,-0.003 0.094,-0.008 L 4.31,1.922 C 4.567,1.877 4.756,1.655 4.76,1.393 4.764,1.131 4.581,0.904 4.325,0.851 L 0.205,0.003 C 0.168,-0.004 0.131,-0.008 0.095,-0.008 0.063,-0.008 0.031,-0.005 0,0" /></g><g
           transform="translate(27.3061,53.1384)"
           id="g80"><path
             id="path82"
             style="fill:currentColor;fill-opacity:1;fill-rule:nonzero;stroke:none"
             d="M 0,0 C -0.074,0 -0.147,-0.007 -0.22,-0.022 L -4.34,-0.87 c -0.513,-0.106 -0.878,-0.561 -0.871,-1.084 0.007,-0.524 0.386,-0.968 0.901,-1.059 l 5.739,-1.013 c 0.063,-0.011 0.126,-0.016 0.189,-0.016 0.074,0 0.148,0.007 0.22,0.022 l 4.121,0.848 c 0.512,0.106 0.877,0.561 0.87,1.084 -0.007,0.524 -0.386,0.968 -0.901,1.059 L 0.189,-0.017 C 0.126,-0.005 0.063,0 0,0 M 0,-1.09 5.738,-2.104 1.618,-2.952 -4.12,-1.938 0,-1.09" /></g></g></g></g></svg>