<svg
   xmlns="http://www.w3.org/2000/svg"
   viewBox="0 0 87.287994 72.18"
   height="55"
   width="66"
   xml:space="preserve"
   id="svg2"
   version="1.1"><g
     transform="matrix(1.3333333,0,0,-1.3333333,0,72.179998)"
     id="g10"><g
       id="g12"><g
         id="g14"><g
           transform="translate(34.9746,7.3599)"
           id="g20"><path
             id="path22"
             style="fill:currentColor;fill-opacity:1;fill-rule:nonzero;stroke:none"
             d="M 0,0 C -0.14,0 -0.276,0.054 -0.379,0.153 -0.51,0.279 -0.568,0.461 -0.537,0.64 l 6.625,37.675 c 0.038,0.22 0.207,0.394 0.425,0.44 l 5.396,1.134 c 0.037,0.008 0.075,0.012 0.112,0.012 0.14,0 0.277,-0.054 0.379,-0.153 0.131,-0.126 0.19,-0.309 0.159,-0.487 L 5.935,1.585 C 5.896,1.366 5.728,1.192 5.51,1.146 L 0.112,0.012 C 0.075,0.004 0.037,0 0,0" /></g><g
           transform="translate(46.9961,45.625)"
           id="g24"><path
             id="path26"
             style="fill:currentColor;fill-opacity:1;fill-rule:nonzero;stroke:none"
             d="m 0,0 h 0.005 z m 0,2.181 c -0.075,0 -0.15,-0.007 -0.225,-0.023 L -5.621,1.024 C -6.058,0.932 -6.395,0.584 -6.472,0.145 l -6.624,-37.676 c -0.062,-0.357 0.056,-0.721 0.317,-0.973 0.205,-0.199 0.478,-0.307 0.758,-0.307 0.075,0 0.15,0.008 0.224,0.024 l 5.397,1.134 c 0.436,0.092 0.773,0.44 0.85,0.879 L 1.074,0.902 C 1.137,1.258 1.019,1.623 0.758,1.875 0.553,2.073 0.28,2.181 0,2.181 M 0,1.09 -6.624,-36.585 -12.021,-37.72 -5.396,-0.044 0,1.09" /></g><g
           transform="translate(51.8242,1.8921)"
           id="g28"><path
             id="path30"
             style="fill:currentColor;fill-opacity:1;fill-rule:nonzero;stroke:none"
             d="m 0,0 c -0.108,0 -0.216,0.033 -0.307,0.095 -0.123,0.083 -0.206,0.213 -0.231,0.36 l -8.189,48.353 c -0.048,0.289 0.14,0.565 0.426,0.625 l 5.397,1.134 c 0.037,0.008 0.075,0.012 0.112,0.012 0.108,0 0.216,-0.033 0.307,-0.095 0.123,-0.084 0.206,-0.213 0.231,-0.36 L 5.935,1.771 C 5.983,1.482 5.795,1.206 5.509,1.146 L 0.112,0.012 C 0.075,0.004 0.037,0 0,0" /></g><g
           transform="translate(49.0322,53.0162)"
           id="g32"><path
             id="path34"
             style="fill:currentColor;fill-opacity:1;fill-rule:nonzero;stroke:none"
             d="m 0,0 c -0.074,0 -0.149,-0.008 -0.225,-0.023 l -5.396,-1.135 c -0.573,-0.12 -0.948,-0.672 -0.851,-1.249 l 8.189,-48.354 c 0.05,-0.292 0.216,-0.552 0.462,-0.719 0.181,-0.124 0.396,-0.189 0.613,-0.189 0.075,0 0.15,0.007 0.225,0.023 l 5.396,1.134 c 0.573,0.121 0.949,0.672 0.852,1.25 L 1.075,-0.909 C 1.026,-0.616 0.859,-0.356 0.614,-0.189 0.432,-0.065 0.218,0 0,0 M 0,-1.091 8.188,-49.444 2.792,-50.579 -5.396,-2.225 0,-1.091" /></g><g
           transform="translate(43.9766,24.4283)"
           id="g36"><path
             id="path38"
             style="fill:#ffffff;fill-opacity:1;fill-rule:nonzero;stroke:none"
             d="m 0,0 -2.18,13.015 c -0.297,1.773 -0.539,3.444 -0.757,5.054 -0.225,-1.507 -0.446,-2.873 -0.672,-4.168 L -5.851,1.92 Z m 7.848,-22.548 c -0.053,0 -0.106,0.007 -0.157,0.023 l -3.986,1.195 c -0.199,0.06 -0.348,0.228 -0.382,0.433 L 0.838,-6.029 -6.685,-3.56 -9.043,-16.493 c -0.027,-0.153 -0.119,-0.286 -0.251,-0.367 -0.087,-0.054 -0.185,-0.081 -0.285,-0.081 -0.053,0 -0.106,0.008 -0.156,0.023 l -3.881,1.161 c -0.268,0.08 -0.432,0.348 -0.38,0.623 l 8.078,43.001 c 0.028,0.151 0.119,0.283 0.249,0.363 0.087,0.054 0.187,0.082 0.287,0.082 0.05,0 0.1,-0.007 0.15,-0.021 l 5.116,-1.454 C 0.086,26.78 0.237,26.611 0.272,26.403 l 8.114,-48.316 c 0.031,-0.186 -0.036,-0.374 -0.178,-0.499 -0.101,-0.089 -0.229,-0.136 -0.36,-0.136" /></g><g
           transform="translate(38.75,26.7178)"
           id="g40"><path
             id="path42"
             style="fill:currentColor;fill-opacity:1;fill-rule:nonzero;stroke:none"
             d="m 0,0 2.152,11.505 c 0.037,0.213 0.075,0.429 0.112,0.646 0.077,-0.497 0.159,-1.002 0.245,-1.516 L 4.539,-1.49 Z m -0.155,26.568 c -0.201,0 -0.401,-0.056 -0.574,-0.164 -0.261,-0.161 -0.442,-0.425 -0.499,-0.726 l -8.078,-43.001 c -0.102,-0.549 0.225,-1.086 0.76,-1.246 l 3.881,-1.161 c 0.103,-0.031 0.208,-0.046 0.312,-0.046 0.2,0 0.398,0.055 0.571,0.161 0.264,0.162 0.447,0.429 0.503,0.734 l 2.245,12.319 6.615,-2.172 2.431,-14.543 c 0.068,-0.41 0.364,-0.745 0.762,-0.865 l 3.987,-1.195 c 0.103,-0.031 0.209,-0.046 0.313,-0.046 0.263,0 0.52,0.094 0.722,0.273 0.283,0.249 0.417,0.627 0.354,0.998 L 6.037,24.204 C 5.968,24.62 5.665,24.958 5.26,25.073 l -5.117,1.453 c -0.098,0.028 -0.199,0.042 -0.298,0.042 M 5.913,-3.089 3.585,10.815 C 3.056,13.97 2.703,16.794 2.35,19.552 L 2.279,19.575 C 1.927,16.982 1.539,14.332 1.08,11.706 L -1.248,-0.738 5.913,-3.089 m -6.068,28.566 5.116,-1.454 8.113,-48.315 -3.986,1.195 -2.54,15.194 -8.431,2.767 -2.47,-13.549 -3.88,1.161 8.078,43.001" /></g><g
           transform="translate(44.4141,50.6465)"
           id="g44"><path
             id="path46"
             style="fill:currentColor;fill-opacity:1;fill-rule:nonzero;stroke:none"
             d="m 0,0 -5.739,1.013 c -0.258,0.045 -0.448,0.267 -0.45,0.529 -0.004,0.262 0.178,0.489 0.434,0.542 l 4.12,0.848 c 0.037,0.007 0.073,0.011 0.111,0.011 0.031,0 0.063,-0.003 0.094,-0.008 L 4.31,1.922 C 4.567,1.877 4.757,1.655 4.76,1.393 4.764,1.131 4.581,0.904 4.325,0.851 L 0.205,0.003 C 0.168,-0.004 0.132,-0.008 0.095,-0.008 0.063,-0.008 0.031,-0.005 0,0" /></g><g
           transform="translate(42.8897,54.1353)"
           id="g48"><path
             id="path50"
             style="fill:currentColor;fill-opacity:1;fill-rule:nonzero;stroke:none"
             d="m 0,0 c -0.073,0 -0.147,-0.007 -0.22,-0.022 l -4.12,-0.849 c -0.513,-0.105 -0.878,-0.56 -0.87,-1.084 0.007,-0.523 0.385,-0.967 0.9,-1.058 l 5.74,-1.013 c 0.062,-0.011 0.126,-0.016 0.189,-0.016 0.073,0 0.148,0.007 0.22,0.022 l 4.12,0.848 c 0.513,0.106 0.878,0.561 0.87,1.084 -0.007,0.523 -0.385,0.967 -0.9,1.059 l -5.74,1.012 C 0.127,-0.005 0.063,0 0,0 M 0,-1.091 5.739,-2.104 1.619,-2.952 -4.12,-1.939 0,-1.091" /></g><g
           transform="translate(58.1572,10.3379)"
           id="g52"><path
             id="path54"
             style="fill:#ffffff;fill-opacity:1;fill-rule:nonzero;stroke:none"
             d="M 0,0 C -0.057,0 -0.114,0.009 -0.169,0.027 L -57.235,18.64 c -0.225,0.073 -0.376,0.283 -0.376,0.519 V 27.9 c 0,0.174 0.082,0.337 0.221,0.44 0.095,0.07 0.208,0.106 0.324,0.106 0.054,0 0.109,-0.009 0.162,-0.025 L 0.162,10.629 c 0.229,-0.07 0.383,-0.281 0.383,-0.52 V 0.545 C 0.545,0.371 0.462,0.207 0.32,0.104 0.226,0.036 0.113,0 0,0" /></g><g
           transform="translate(1.0908,39.3291)"
           id="g56"><path
             id="path58"
             style="fill:currentColor;fill-opacity:1;fill-rule:nonzero;stroke:none"
             d="m 0,0 c -0.229,0 -0.457,-0.072 -0.646,-0.212 -0.28,-0.205 -0.445,-0.532 -0.445,-0.879 v -8.742 c 0,-0.472 0.304,-0.89 0.753,-1.037 l 57.066,-18.613 c 0.111,-0.036 0.224,-0.054 0.338,-0.054 0.227,0 0.453,0.072 0.641,0.208 0.282,0.205 0.45,0.534 0.45,0.883 v 9.564 c 0,0.477 -0.31,0.899 -0.766,1.041 L 0.324,-0.049 C 0.218,-0.016 0.108,0 0,0 m 0,-1.091 57.066,-17.791 v -9.564 L 0,-9.833 v 8.742" /></g><g
           transform="translate(57.5527,14.0332)"
           id="g60"><path
             id="path62"
             style="fill:currentColor;fill-opacity:1;fill-rule:nonzero;stroke:none"
             d="M 0,0 C -0.057,0 -0.114,0.009 -0.169,0.027 L -56.631,18.46 c -0.224,0.073 -0.376,0.283 -0.376,0.519 v 0.965 c 0,0.175 0.083,0.339 0.225,0.442 0.094,0.068 0.207,0.104 0.32,0.104 0.057,0 0.114,-0.009 0.169,-0.027 L 0.169,2.03 C 0.394,1.957 0.545,1.747 0.545,1.511 V 0.545 C 0.545,0.371 0.462,0.207 0.32,0.104 0.226,0.036 0.113,0 0,0" /></g><g
           transform="translate(1.0908,35.0684)"
           id="g64"><path
             id="path66"
             style="fill:currentColor;fill-opacity:1;fill-rule:nonzero;stroke:none"
             d="m 0,0 c -0.228,0 -0.452,-0.071 -0.641,-0.208 -0.283,-0.205 -0.45,-0.534 -0.45,-0.883 v -0.966 c 0,-0.471 0.304,-0.89 0.752,-1.036 l 56.463,-18.433 c 0.11,-0.036 0.225,-0.055 0.338,-0.055 0.227,0 0.452,0.072 0.641,0.208 0.283,0.206 0.45,0.534 0.45,0.883 v 0.966 c 0,0.472 -0.303,0.89 -0.752,1.037 L 0.339,-0.054 C 0.228,-0.018 0.113,0 0,0 M 0,-1.091 56.462,-19.524 V -20.49 L 0,-2.057 v 0.966" /></g><g
           transform="translate(58.7637,10.2662)"
           id="g68"><path
             id="path70"
             style="fill:currentColor;fill-opacity:1;fill-rule:nonzero;stroke:none"
             d="m 0,0 c -0.12,0 -0.238,0.04 -0.335,0.115 -0.133,0.103 -0.21,0.262 -0.21,0.43 v 9.4 c 0,0.249 0.169,0.467 0.411,0.529 l 5.612,1.422 c 0.043,0.011 0.088,0.017 0.133,0.017 0.12,0 0.239,-0.04 0.335,-0.116 0.133,-0.103 0.21,-0.261 0.21,-0.43 V 1.968 C 6.156,1.718 5.987,1.5 5.745,1.439 L 0.134,0.017 C 0.09,0.005 0.045,0 0,0" /></g><g
           transform="translate(64.375,22.7242)"
           id="g72"><path
             id="path74"
             style="fill:currentColor;fill-opacity:1;fill-rule:nonzero;stroke:none"
             d="M 0,0 C -0.09,0 -0.18,-0.011 -0.268,-0.034 L -5.88,-1.456 c -0.483,-0.123 -0.822,-0.558 -0.822,-1.057 v -9.4 c 0,-0.336 0.155,-0.654 0.421,-0.86 0.193,-0.151 0.429,-0.23 0.67,-0.23 0.09,0 0.179,0.011 0.267,0.033 l 5.612,1.423 c 0.484,0.122 0.823,0.558 0.823,1.057 v 9.399 c 0,0.337 -0.155,0.654 -0.421,0.861 C 0.477,-0.08 0.24,0 0,0 m 0,-1.091 v -9.399 l -5.611,-1.423 v 9.4 L 0,-1.091" /></g><g
           transform="translate(58.1572,20.1558)"
           id="g76"><path
             id="path78"
             style="fill:#ffffff;fill-opacity:1;fill-rule:nonzero;stroke:none"
             d="m 0,0 c -0.055,0 -0.109,0.008 -0.162,0.025 l -57.067,17.791 c -0.238,0.075 -0.395,0.301 -0.382,0.55 0.013,0.249 0.194,0.457 0.438,0.506 l 6.159,1.224 c 0.035,0.007 0.072,0.01 0.107,0.01 0.054,0 0.109,-0.008 0.162,-0.024 L 6.321,2.29 C 6.56,2.216 6.717,1.99 6.704,1.741 6.69,1.492 6.51,1.283 6.266,1.234 L 0.106,0.01 C 0.071,0.003 0.035,0 0,0" /></g><g
           transform="translate(7.25,40.8077)"
           id="g80"><path
             id="path82"
             style="fill:currentColor;fill-opacity:1;fill-rule:nonzero;stroke:none"
             d="m 0,0 c -0.07,0 -0.142,-0.007 -0.212,-0.021 l -6.16,-1.224 c -0.489,-0.097 -0.85,-0.514 -0.876,-1.012 -0.027,-0.498 0.288,-0.951 0.764,-1.099 l 57.066,-17.792 c 0.106,-0.033 0.215,-0.049 0.325,-0.049 0.072,0 0.142,0.007 0.212,0.021 l 6.16,1.224 c 0.49,0.097 0.851,0.514 0.877,1.012 0.027,0.498 -0.289,0.95 -0.764,1.099 L 0.325,-0.049 C 0.22,-0.017 0.11,0 0,0 M 0,-1.091 57.066,-18.882 50.907,-20.106 -6.159,-2.315 0,-1.091" /></g><g
           transform="translate(13.5664,6.0254)"
           id="g84"><path
             id="path86"
             style="fill:currentColor;fill-opacity:1;fill-rule:nonzero;stroke:none"
             d="M 0,0 C -0.14,0 -0.276,0.054 -0.379,0.153 -0.51,0.279 -0.568,0.461 -0.537,0.64 l 6.624,37.675 c 0.038,0.22 0.207,0.394 0.425,0.44 l 5.397,1.134 c 0.037,0.008 0.075,0.012 0.112,0.012 0.14,0 0.277,-0.054 0.379,-0.153 0.131,-0.126 0.19,-0.309 0.159,-0.487 L 5.934,1.585 C 5.896,1.366 5.727,1.192 5.509,1.146 L 0.112,0.012 C 0.075,0.004 0.037,0 0,0" /></g><g
           transform="translate(25.5879,44.2901)"
           id="g88"><path
             id="path90"
             style="fill:currentColor;fill-opacity:1;fill-rule:nonzero;stroke:none"
             d="m 0,0 h 0.005 z m 0,2.182 c -0.075,0 -0.15,-0.008 -0.225,-0.024 L -5.621,1.024 C -6.058,0.932 -6.395,0.584 -6.472,0.146 l -6.624,-37.677 c -0.062,-0.356 0.056,-0.72 0.317,-0.972 0.205,-0.199 0.477,-0.307 0.758,-0.307 0.075,0 0.15,0.007 0.224,0.023 l 5.397,1.134 c 0.436,0.092 0.772,0.44 0.849,0.879 L 1.074,0.902 C 1.137,1.259 1.019,1.623 0.758,1.875 0.553,2.074 0.279,2.182 0,2.182 M 0,1.091 -6.625,-36.585 -12.021,-37.719 -5.397,-0.043 0,1.091" /></g><g
           transform="translate(30.416,0.5577)"
           id="g92"><path
             id="path94"
             style="fill:currentColor;fill-opacity:1;fill-rule:nonzero;stroke:none"
             d="m 0,0 c -0.108,0 -0.216,0.033 -0.307,0.095 -0.123,0.083 -0.206,0.213 -0.231,0.36 l -8.189,48.353 c -0.048,0.289 0.14,0.565 0.426,0.625 l 5.397,1.134 c 0.037,0.008 0.075,0.012 0.112,0.012 0.108,0 0.216,-0.033 0.307,-0.095 0.123,-0.084 0.206,-0.213 0.231,-0.36 L 5.935,1.771 C 5.983,1.482 5.795,1.206 5.509,1.146 L 0.112,0.012 C 0.075,0.004 0.037,0 0,0" /></g><g
           transform="translate(27.624,51.6817)"
           id="g96"><path
             id="path98"
             style="fill:currentColor;fill-opacity:1;fill-rule:nonzero;stroke:none"
             d="M 0,0 C -0.075,0 -0.15,-0.008 -0.225,-0.023 L -5.621,-1.158 C -6.194,-1.278 -6.57,-1.83 -6.472,-2.407 l 8.189,-48.354 c 0.05,-0.293 0.216,-0.552 0.461,-0.719 0.182,-0.124 0.397,-0.189 0.614,-0.189 0.075,0 0.15,0.007 0.225,0.023 l 5.396,1.134 c 0.573,0.12 0.949,0.672 0.852,1.25 L 1.075,-0.909 C 1.026,-0.616 0.859,-0.356 0.614,-0.189 0.432,-0.065 0.218,0 0,0 M 0,-1.091 8.188,-49.444 2.792,-50.579 -5.396,-2.225 0,-1.091" /></g><g
           transform="translate(22.5674,23.0933)"
           id="g100"><path
             id="path102"
             style="fill:#ffffff;fill-opacity:1;fill-rule:nonzero;stroke:none"
             d="m 0,0 -2.179,13.016 c -0.297,1.772 -0.539,3.442 -0.757,5.052 -0.225,-1.506 -0.446,-2.873 -0.672,-4.167 L -5.85,1.92 Z m 7.849,-22.548 c -0.053,0 -0.106,0.007 -0.157,0.023 l -3.987,1.195 c -0.199,0.06 -0.348,0.228 -0.382,0.433 L 0.839,-6.029 -6.684,-3.56 -9.042,-16.493 c -0.027,-0.153 -0.119,-0.286 -0.251,-0.367 -0.087,-0.053 -0.186,-0.08 -0.285,-0.08 -0.053,0 -0.106,0.007 -0.156,0.023 l -3.881,1.16 c -0.268,0.08 -0.432,0.349 -0.38,0.623 l 8.077,43.001 c 0.028,0.151 0.119,0.283 0.249,0.363 0.087,0.054 0.187,0.082 0.287,0.082 0.05,0 0.1,-0.007 0.15,-0.021 l 5.117,-1.453 c 0.202,-0.057 0.353,-0.227 0.388,-0.434 l 8.114,-48.316 c 0.031,-0.186 -0.036,-0.375 -0.178,-0.5 -0.101,-0.088 -0.23,-0.136 -0.36,-0.136" /></g><g
           transform="translate(17.3418,25.3829)"
           id="g104"><path
             id="path106"
             style="fill:currentColor;fill-opacity:1;fill-rule:nonzero;stroke:none"
             d="m 0,0 2.152,11.505 c 0.037,0.214 0.075,0.429 0.112,0.646 0.077,-0.497 0.159,-1.002 0.245,-1.516 L 4.539,-1.49 Z m -0.155,26.568 c -0.201,0 -0.401,-0.055 -0.574,-0.163 -0.261,-0.162 -0.442,-0.425 -0.499,-0.726 l -8.078,-43.001 c -0.103,-0.549 0.225,-1.087 0.76,-1.247 l 3.881,-1.161 c 0.103,-0.03 0.208,-0.045 0.312,-0.045 0.2,0 0.398,0.054 0.571,0.16 0.264,0.162 0.447,0.429 0.503,0.735 l 2.245,12.318 6.614,-2.171 2.432,-14.543 c 0.068,-0.411 0.364,-0.746 0.762,-0.865 l 3.987,-1.196 c 0.103,-0.031 0.209,-0.046 0.313,-0.046 0.263,0 0.52,0.095 0.722,0.273 0.282,0.249 0.417,0.627 0.354,0.999 L 6.037,24.205 c -0.07,0.415 -0.373,0.753 -0.778,0.868 l -5.116,1.453 c -0.099,0.028 -0.199,0.042 -0.298,0.042 M 5.912,-3.089 3.585,10.816 C 3.056,13.97 2.702,16.795 2.35,19.552 L 2.279,19.576 C 1.927,16.982 1.539,14.332 1.08,11.706 l -2.328,-12.444 7.16,-2.351 m -6.068,28.566 5.117,-1.453 8.113,-48.316 -3.987,1.195 -2.539,15.194 -8.431,2.767 -2.47,-13.549 -3.88,1.161 8.077,43.001" /></g><g
           transform="translate(23.0059,49.3116)"
           id="g108"><path
             id="path110"
             style="fill:currentColor;fill-opacity:1;fill-rule:nonzero;stroke:none"
             d="m 0,0 -5.739,1.013 c -0.258,0.046 -0.448,0.268 -0.45,0.529 -0.004,0.262 0.178,0.49 0.434,0.542 l 4.12,0.849 c 0.037,0.007 0.073,0.011 0.111,0.011 0.031,0 0.063,-0.003 0.094,-0.008 L 4.31,1.923 C 4.567,1.877 4.757,1.655 4.76,1.394 4.764,1.132 4.581,0.904 4.325,0.852 L 0.205,0.003 C 0.169,-0.004 0.132,-0.008 0.095,-0.008 0.063,-0.008 0.031,-0.005 0,0" /></g><g
           transform="translate(21.4815,52.8008)"
           id="g112"><path
             id="path114"
             style="fill:currentColor;fill-opacity:1;fill-rule:nonzero;stroke:none"
             d="m 0,0 c -0.073,0 -0.147,-0.008 -0.22,-0.022 l -4.12,-0.849 c -0.513,-0.105 -0.878,-0.56 -0.871,-1.084 0.008,-0.523 0.386,-0.967 0.901,-1.058 l 5.739,-1.013 c 0.063,-0.011 0.127,-0.016 0.19,-0.016 0.073,0 0.147,0.007 0.22,0.021 l 4.12,0.849 c 0.513,0.106 0.878,0.56 0.87,1.084 -0.007,0.523 -0.386,0.967 -0.9,1.058 l -5.74,1.013 C 0.127,-0.006 0.063,0 0,0 M 0,-1.091 5.739,-2.104 1.619,-2.952 -4.12,-1.939 0,-1.091" /></g></g></g></g></svg>