<svg
   xmlns="http://www.w3.org/2000/svg"
   viewBox="0 0 57.66 70.400665"
   height="53"
   width="44"
   xml:space="preserve"
   id="svg2"
   version="1.1"><g
     transform="matrix(1.3333333,0,0,-1.3333333,0,70.400798)"
     id="g10"><g
       id="g12"><g
         id="g14"><g
           transform="translate(5.5491,6.0252)"
           id="g20"><path
             id="path22"
             style="fill:currentColor;fill-opacity:1;fill-rule:nonzero;stroke:none"
             d="M 0,0 C -0.14,0 -0.276,0.054 -0.379,0.153 -0.51,0.279 -0.568,0.461 -0.537,0.64 l 6.624,37.675 c 0.038,0.22 0.207,0.394 0.425,0.44 l 5.397,1.135 c 0.037,0.007 0.075,0.011 0.112,0.011 0.14,0 0.277,-0.054 0.379,-0.153 0.131,-0.126 0.19,-0.308 0.159,-0.486 L 5.934,1.585 C 5.896,1.366 5.727,1.192 5.509,1.146 L 0.112,0.012 C 0.075,0.004 0.037,0 0,0" /></g><g
           transform="translate(17.5706,44.2904)"
           id="g24"><path
             id="path26"
             style="fill:currentColor;fill-opacity:1;fill-rule:nonzero;stroke:none"
             d="m 0,0 h 0.005 z m 0,2.181 c -0.075,0 -0.15,-0.007 -0.225,-0.023 L -5.621,1.024 C -6.058,0.932 -6.395,0.584 -6.472,0.145 l -6.624,-37.676 c -0.062,-0.357 0.056,-0.721 0.317,-0.973 0.205,-0.199 0.477,-0.307 0.758,-0.307 0.075,0 0.15,0.008 0.224,0.024 l 5.397,1.134 c 0.436,0.092 0.772,0.44 0.85,0.879 L 1.074,0.902 C 1.137,1.258 1.019,1.623 0.758,1.875 0.553,2.073 0.279,2.181 0,2.181 M 0,1.091 -6.625,-36.585 -12.021,-37.72 -5.397,-0.044 0,1.091" /></g><g
           transform="translate(24.429,2.4617)"
           id="g28"><path
             id="path30"
             style="fill:none;stroke:currentColor;stroke-width:1.09099996;stroke-linecap:round;stroke-linejoin:round;stroke-miterlimit:10;stroke-dasharray:none;stroke-opacity:1"
             d="m 0,0 c -0.93,8.402 6.975,8.346 8.417,3.62 1.938,-6.351 8.929,-5.289 9.854,0.489" /></g><g
           transform="translate(22.3987,0.5574)"
           id="g32"><path
             id="path34"
             style="fill:currentColor;fill-opacity:1;fill-rule:nonzero;stroke:none"
             d="m 0,0 c -0.108,0 -0.216,0.033 -0.307,0.095 -0.123,0.083 -0.206,0.213 -0.231,0.36 l -8.189,48.353 c -0.048,0.289 0.14,0.565 0.426,0.625 l 5.397,1.134 c 0.037,0.008 0.075,0.012 0.112,0.012 0.108,0 0.216,-0.033 0.307,-0.095 0.123,-0.084 0.206,-0.213 0.231,-0.36 L 5.935,1.771 C 5.983,1.482 5.795,1.206 5.509,1.146 L 0.112,0.012 C 0.075,0.004 0.037,0 0,0" /></g><g
           transform="translate(19.6067,51.6815)"
           id="g36"><path
             id="path38"
             style="fill:currentColor;fill-opacity:1;fill-rule:nonzero;stroke:none"
             d="m 0,0 c -0.075,0 -0.15,-0.008 -0.225,-0.023 l -5.396,-1.135 c -0.573,-0.12 -0.948,-0.672 -0.851,-1.249 l 8.189,-48.354 c 0.05,-0.292 0.216,-0.552 0.461,-0.719 0.182,-0.124 0.397,-0.189 0.614,-0.189 0.075,0 0.15,0.007 0.225,0.023 l 5.396,1.134 c 0.573,0.121 0.949,0.672 0.852,1.25 L 1.075,-0.909 C 1.026,-0.616 0.859,-0.356 0.614,-0.189 0.432,-0.065 0.218,0 0,0 M 0,-1.091 8.188,-49.444 2.792,-50.579 -5.396,-2.225 0,-1.091" /></g><g
           transform="translate(14.5511,23.0936)"
           id="g40"><path
             id="path42"
             style="fill:#ffffff;fill-opacity:1;fill-rule:nonzero;stroke:none"
             d="m 0,0 -2.18,13.016 c -0.297,1.772 -0.539,3.442 -0.757,5.052 -0.225,-1.506 -0.446,-2.873 -0.672,-4.167 L -5.851,1.92 Z m 7.848,-22.548 c -0.053,0 -0.106,0.007 -0.157,0.023 l -3.986,1.195 c -0.199,0.06 -0.348,0.228 -0.382,0.433 L 0.838,-6.029 -6.685,-3.56 -9.043,-16.493 c -0.027,-0.153 -0.119,-0.286 -0.251,-0.367 -0.087,-0.054 -0.185,-0.081 -0.285,-0.081 -0.053,0 -0.106,0.008 -0.156,0.023 l -3.881,1.161 c -0.268,0.08 -0.432,0.349 -0.38,0.623 l 8.078,43.001 c 0.028,0.151 0.119,0.283 0.249,0.363 0.087,0.054 0.187,0.082 0.287,0.082 0.05,0 0.1,-0.007 0.15,-0.021 l 5.116,-1.454 C 0.086,26.78 0.237,26.611 0.272,26.403 l 8.114,-48.316 c 0.031,-0.186 -0.036,-0.374 -0.178,-0.499 -0.101,-0.089 -0.229,-0.136 -0.36,-0.136" /></g><g
           transform="translate(9.3245,25.3831)"
           id="g44"><path
             id="path46"
             style="fill:currentColor;fill-opacity:1;fill-rule:nonzero;stroke:none"
             d="m 0,0 2.152,11.505 c 0.037,0.213 0.075,0.429 0.112,0.646 0.077,-0.497 0.159,-1.002 0.245,-1.516 L 4.539,-1.49 Z m -0.155,26.568 c -0.201,0 -0.401,-0.056 -0.574,-0.164 -0.261,-0.161 -0.442,-0.425 -0.499,-0.726 l -8.078,-43.001 c -0.102,-0.549 0.225,-1.086 0.76,-1.246 l 3.881,-1.161 c 0.103,-0.031 0.208,-0.046 0.312,-0.046 0.2,0 0.398,0.055 0.571,0.161 0.264,0.162 0.447,0.429 0.503,0.735 l 2.245,12.318 6.614,-2.172 2.432,-14.542 c 0.068,-0.411 0.364,-0.746 0.762,-0.866 l 3.987,-1.195 c 0.103,-0.031 0.209,-0.046 0.313,-0.046 0.263,0 0.52,0.094 0.722,0.273 0.283,0.249 0.417,0.627 0.354,0.998 L 6.037,24.204 C 5.968,24.62 5.665,24.958 5.26,25.073 l -5.117,1.453 c -0.099,0.028 -0.199,0.042 -0.298,0.042 M 5.913,-3.089 3.585,10.816 C 3.056,13.97 2.702,16.795 2.35,19.552 L 2.279,19.575 C 1.927,16.982 1.539,14.332 1.08,11.706 L -1.248,-0.738 5.913,-3.089 m -6.068,28.566 5.116,-1.454 8.113,-48.315 -3.987,1.195 -2.539,15.194 -8.431,2.767 -2.47,-13.549 -3.88,1.161 8.078,43.001" /></g><g
           transform="translate(14.9886,49.3118)"
           id="g48"><path
             id="path50"
             style="fill:currentColor;fill-opacity:1;fill-rule:nonzero;stroke:none"
             d="m 0,0 -5.739,1.013 c -0.258,0.045 -0.448,0.267 -0.45,0.529 -0.004,0.262 0.178,0.489 0.434,0.542 l 4.12,0.848 c 0.037,0.007 0.073,0.011 0.111,0.011 0.031,0 0.063,-0.003 0.094,-0.008 L 4.31,1.922 C 4.567,1.877 4.757,1.655 4.76,1.393 4.764,1.131 4.581,0.904 4.325,0.851 L 0.205,0.003 C 0.168,-0.004 0.132,-0.008 0.095,-0.008 0.063,-0.008 0.031,-0.005 0,0" /></g><g
           transform="translate(13.4641,52.8006)"
           id="g52"><path
             id="path54"
             style="fill:currentColor;fill-opacity:1;fill-rule:nonzero;stroke:none"
             d="m 0,0 c -0.073,0 -0.147,-0.007 -0.22,-0.022 l -4.12,-0.849 c -0.513,-0.105 -0.878,-0.56 -0.871,-1.083 0.008,-0.524 0.386,-0.968 0.901,-1.059 l 5.74,-1.013 c 0.062,-0.011 0.126,-0.016 0.189,-0.016 0.073,0 0.148,0.007 0.22,0.022 l 4.12,0.848 c 0.513,0.106 0.878,0.561 0.87,1.084 -0.007,0.523 -0.385,0.967 -0.9,1.059 l -5.74,1.012 C 0.127,-0.005 0.063,0 0,0 M 0,-1.091 5.739,-2.104 1.619,-2.952 -4.12,-1.939 0,-1.091" /></g></g></g></g></svg>