
<svg
   xmlns:dc="http://purl.org/dc/elements/1.1/"
   xmlns:cc="http://creativecommons.org/ns#"
   xmlns:rdf="http://www.w3.org/1999/02/22-rdf-syntax-ns#"
   xmlns:svg="http://www.w3.org/2000/svg"
   xmlns="http://www.w3.org/2000/svg"
   viewBox="0 0 80.731727 102.39066"
   height="102.39066"
   width="80.731728"
   xml:space="preserve"
   id="svg2"
   version="1.1"><metadata
     id="metadata8"><rdf:RDF><cc:Work
         rdf:about=""><dc:format>image/svg+xml</dc:format><dc:type
           rdf:resource="http://purl.org/dc/dcmitype/StillImage" /></cc:Work></rdf:RDF></metadata><defs
     id="defs6"><clipPath
       id="clipPath18"
       clipPathUnits="userSpaceOnUse"><path
         id="path16"
         d="M 0,76.793 H 60.549 V 0 H 0 Z" /></clipPath></defs><g
     transform="matrix(1.3333333,0,0,-1.3333333,-2.6666666e-4,102.39066)"
     id="g10"><g
       id="g12"><g
         clip-path="url(#clipPath18)"
         id="g14"><g
           transform="translate(59.5624,0.4937)"
           id="g20"><path
             id="path22"
             style="fill:#ffffff;fill-opacity:1;fill-rule:nonzero;stroke:none"
             d="M 0,0 C -0.05,0 -0.101,0.007 -0.149,0.023 L -37.14,11.75 c -0.205,0.064 -0.344,0.255 -0.344,0.47 v 63.092 c 0,0.156 0.074,0.302 0.199,0.396 0.086,0.064 0.189,0.098 0.295,0.098 0.047,0 0.094,-0.007 0.14,-0.021 L 0.141,64.803 C 0.35,64.741 0.494,64.548 0.494,64.33 V 0.494 C 0.494,0.336 0.419,0.188 0.292,0.095 0.206,0.033 0.104,0 0,0" /></g><g
           transform="translate(22.5721,76.793)"
           id="g24"><path
             id="path26"
             style="fill:currentColor;fill-opacity:1;fill-rule:nonzero;stroke:none"
             d="m 0,0 c -0.21,0 -0.418,-0.067 -0.59,-0.196 -0.25,-0.186 -0.397,-0.48 -0.397,-0.791 v -63.092 c 0,-0.431 0.279,-0.812 0.689,-0.942 l 36.989,-11.726 c 0.098,-0.031 0.199,-0.046 0.299,-0.046 0.207,0 0.411,0.065 0.583,0.19 0.254,0.186 0.405,0.482 0.405,0.797 v 63.836 c 0,0.437 -0.289,0.822 -0.707,0.947 L 0.281,-0.041 C 0.189,-0.013 0.095,0 0,0 M 0,-0.987 36.99,-11.97 V -75.806 L 0,-64.079 v 63.092" /></g><g
           transform="translate(46.9198,26.4493)"
           id="g28"><path
             id="path30"
             style="fill:#ffffff;fill-opacity:1;fill-rule:nonzero;stroke:none"
             d="M 0,0 C -0.034,0 -0.068,0.003 -0.103,0.011 L -14.47,3.055 c -0.227,0.049 -0.391,0.25 -0.391,0.483 v 17.423 c 0,0.149 0.067,0.29 0.183,0.384 0.089,0.072 0.199,0.11 0.311,0.11 0.034,0 0.068,-0.003 0.102,-0.011 L 0.103,18.4 C 0.33,18.352 0.494,18.151 0.494,17.917 V 0.494 C 0.494,0.345 0.427,0.204 0.311,0.11 0.222,0.038 0.112,0 0,0" /></g><g
           transform="translate(32.5526,48.398)"
           id="g32"><path
             id="path34"
             style="fill:currentColor;fill-opacity:1;fill-rule:nonzero;stroke:none"
             d="m 0,0 c -0.225,0 -0.444,-0.076 -0.622,-0.22 -0.232,-0.188 -0.365,-0.469 -0.365,-0.767 v -17.424 c 0,-0.466 0.326,-0.869 0.782,-0.966 l 14.368,-3.044 c 0.067,-0.015 0.137,-0.021 0.204,-0.021 0.225,0 0.445,0.076 0.622,0.22 0.232,0.187 0.366,0.469 0.366,0.767 v 17.424 c 0,0.466 -0.327,0.869 -0.783,0.966 L 0.204,-0.021 C 0.137,-0.007 0.068,0 0,0 M 0,-0.987 14.367,-4.031 V -21.455 L 0,-18.411 v 17.424" /></g><g
           transform="translate(8.5526,20.6798)"
           id="g36"><path
             id="path38"
             style="fill:#ffffff;fill-opacity:1;fill-rule:nonzero;stroke:none"
             d="m 0,0 c -0.104,0 -0.207,0.033 -0.292,0.096 -0.127,0.093 -0.202,0.24 -0.202,0.398 v 8.508 c 0,0.216 0.14,0.407 0.347,0.471 l 34.68,10.844 c 0.049,0.015 0.098,0.022 0.148,0.022 0.103,0 0.207,-0.032 0.292,-0.095 0.127,-0.094 0.202,-0.241 0.202,-0.398 v -8.509 c 0,-0.215 -0.141,-0.406 -0.347,-0.471 L 0.147,0.022 C 0.099,0.007 0.05,0 0,0" /></g><g
           transform="translate(43.2333,41.5128)"
           id="g40"><path
             id="path42"
             style="fill:currentColor;fill-opacity:1;fill-rule:nonzero;stroke:none"
             d="m 0,0 c -0.099,0 -0.197,-0.015 -0.294,-0.045 l -34.682,-10.844 c -0.412,-0.129 -0.692,-0.51 -0.692,-0.942 v -8.508 c 0,-0.315 0.149,-0.61 0.402,-0.796 0.172,-0.126 0.377,-0.192 0.585,-0.192 0.099,0 0.199,0.015 0.295,0.045 l 34.681,10.844 c 0.412,0.128 0.693,0.51 0.693,0.942 v 8.509 c 0,0.314 -0.15,0.61 -0.403,0.796 C 0.414,-0.065 0.208,0 0,0 m 0,-0.987 v -8.509 l -34.681,-10.843 v 8.508 L 0,-0.987" /></g><g
           transform="translate(8.5526,23.9796)"
           id="g44"><path
             id="path46"
             style="fill:currentColor;fill-opacity:1;fill-rule:nonzero;stroke:none"
             d="m 0,0 c -0.104,0 -0.207,0.033 -0.292,0.096 -0.127,0.093 -0.202,0.24 -0.202,0.398 v 0.874 c 0,0.215 0.14,0.406 0.347,0.471 l 34.68,10.844 c 0.049,0.015 0.098,0.022 0.148,0.022 0.103,0 0.207,-0.033 0.292,-0.096 0.127,-0.093 0.202,-0.24 0.202,-0.398 v -0.874 c 0,-0.215 -0.141,-0.406 -0.347,-0.471 L 0.147,0.022 C 0.099,0.007 0.05,0 0,0" /></g><g
           transform="translate(43.2333,37.1783)"
           id="g48"><path
             id="path50"
             style="fill:currentColor;fill-opacity:1;fill-rule:nonzero;stroke:none"
             d="m 0,0 c -0.099,0 -0.197,-0.015 -0.294,-0.045 l -34.682,-10.844 c -0.412,-0.129 -0.692,-0.51 -0.692,-0.942 v -0.874 c 0,-0.314 0.149,-0.609 0.402,-0.795 0.172,-0.127 0.377,-0.192 0.585,-0.192 0.099,0 0.199,0.014 0.295,0.045 L 0.295,-2.804 c 0.412,0.129 0.693,0.511 0.693,0.943 v 0.874 c 0,0.314 -0.15,0.609 -0.403,0.796 C 0.414,-0.065 0.208,0 0,0 m 0,-0.987 v -0.874 l -34.681,-10.844 v 0.874 L 0,-0.987" /></g><g
           transform="translate(8.0038,20.4659)"
           id="g52"><path
             id="path54"
             style="fill:currentColor;fill-opacity:1;fill-rule:nonzero;stroke:none"
             d="m 0,0 c -0.034,0 -0.068,0.003 -0.103,0.011 l -7.016,1.486 c -0.228,0.048 -0.392,0.25 -0.392,0.483 v 8.509 c 0,0.149 0.068,0.29 0.184,0.384 0.089,0.071 0.198,0.109 0.31,0.109 0.035,0 0.069,-0.003 0.103,-0.01 L 0.103,9.485 C 0.33,9.437 0.494,9.235 0.494,9.002 V 0.494 C 0.494,0.345 0.427,0.204 0.311,0.11 0.222,0.038 0.112,0 0,0" /></g><g
           transform="translate(0.9872,31.942)"
           id="g56"><path
             id="path58"
             style="fill:currentColor;fill-opacity:1;fill-rule:nonzero;stroke:none"
             d="m 0,0 c -0.224,0 -0.444,-0.076 -0.621,-0.22 -0.232,-0.188 -0.366,-0.469 -0.366,-0.767 v -8.509 c 0,-0.466 0.326,-0.869 0.783,-0.966 l 7.016,-1.486 c 0.068,-0.015 0.136,-0.022 0.205,-0.022 0.224,0 0.444,0.076 0.621,0.22 0.231,0.188 0.366,0.47 0.366,0.768 v 8.508 c 0,0.467 -0.326,0.87 -0.782,0.966 L 0.205,-0.021 C 0.137,-0.007 0.068,0 0,0 m 0,-0.987 7.017,-1.487 v -8.508 L 0,-9.496 v 8.509" /></g><g
           transform="translate(8.4677,29.4259)"
           id="g60"><path
             id="path62"
             style="fill:#ffffff;fill-opacity:1;fill-rule:nonzero;stroke:none"
             d="m 0,0 -7.513,1.307 c -0.224,0.039 -0.392,0.227 -0.407,0.454 -0.016,0.228 0.127,0.436 0.345,0.504 l 34.681,10.843 c 0.048,0.016 0.098,0.023 0.148,0.023 0.028,0 0.057,-0.003 0.085,-0.007 l 7.512,-1.308 c 0.224,-0.039 0.392,-0.226 0.407,-0.454 0.015,-0.227 -0.127,-0.435 -0.345,-0.503 L 0.232,0.015 C 0.185,0 0.135,-0.007 0.085,-0.007 0.057,-0.007 0.028,-0.005 0,0" /></g><g
           transform="translate(35.7216,43.0504)"
           id="g64"><path
             id="path66"
             style="fill:currentColor;fill-opacity:1;fill-rule:nonzero;stroke:none"
             d="m 0,0 c -0.1,0 -0.199,-0.015 -0.295,-0.045 l -34.681,-10.844 c -0.435,-0.136 -0.72,-0.552 -0.691,-1.007 0.03,-0.455 0.367,-0.83 0.816,-0.908 l 7.513,-1.307 c 0.056,-0.01 0.112,-0.015 0.169,-0.015 0.1,0 0.199,0.015 0.295,0.045 L 7.807,-3.237 c 0.435,0.136 0.72,0.552 0.69,1.007 -0.029,0.455 -0.366,0.83 -0.815,0.908 L 0.169,-0.015 C 0.112,-0.005 0.056,0 0,0 m 0,-0.987 7.512,-1.307 -34.681,-10.844 -7.513,1.307 L 0,-0.987" /></g><g
           transform="translate(34.9325,21.1915)"
           id="g68"><path
             id="path70"
             style="fill:currentColor;fill-opacity:1;fill-rule:nonzero;stroke:none"
             d="m 0,0 c -0.034,0 -0.067,0.003 -0.102,0.011 l -4.885,1.027 c -0.198,0.041 -0.35,0.198 -0.385,0.397 l -5.996,34.106 c -0.028,0.161 0.025,0.326 0.142,0.44 0.094,0.09 0.217,0.139 0.344,0.139 0.034,0 0.068,-0.003 0.102,-0.011 l 4.884,-1.026 c 0.198,-0.042 0.35,-0.199 0.385,-0.398 L 0.486,0.579 C 0.515,0.418 0.461,0.253 0.344,0.139 0.25,0.049 0.127,0 0,0" /></g><g
           transform="translate(24.0507,57.8057)"
           id="g72"><path
             id="path74"
             style="fill:currentColor;fill-opacity:1;fill-rule:nonzero;stroke:none"
             d="m 0,0 c -0.254,0 -0.501,-0.098 -0.687,-0.278 -0.235,-0.228 -0.342,-0.558 -0.286,-0.881 l 5.996,-34.106 c 0.071,-0.397 0.375,-0.712 0.77,-0.795 l 4.886,-1.027 c 0.067,-0.014 0.135,-0.021 0.203,-0.021 0.253,0 0.5,0.098 0.686,0.278 0.236,0.228 0.343,0.558 0.286,0.881 L 5.857,-1.843 C 5.788,-1.446 5.483,-1.131 5.088,-1.048 L 0.203,-0.021 C 0.136,-0.007 0.067,0 0,0 M 0,-0.988 4.885,-2.015 10.882,-36.121 5.996,-35.094 0,-0.988" /></g><g
           transform="translate(19.6796,16.2418)"
           id="g76"><path
             id="path78"
             style="fill:currentColor;fill-opacity:1;fill-rule:nonzero;stroke:none"
             d="m 0,0 c -0.034,0 -0.068,0.003 -0.102,0.011 l -4.885,1.027 c -0.26,0.054 -0.43,0.304 -0.385,0.565 l 7.413,43.772 c 0.022,0.132 0.098,0.25 0.208,0.326 0.083,0.056 0.18,0.085 0.278,0.085 0.035,0 0.069,-0.003 0.102,-0.011 L 7.515,44.749 C 7.774,44.694 7.944,44.444 7.899,44.183 L 0.486,0.411 C 0.464,0.279 0.389,0.161 0.278,0.085 0.195,0.029 0.099,0 0,0" /></g><g
           transform="translate(22.2069,62.5216)"
           id="g80"><path
             id="path82"
             style="fill:currentColor;fill-opacity:1;fill-rule:nonzero;stroke:none"
             d="m 0,0 c -0.196,0 -0.391,-0.059 -0.556,-0.171 -0.222,-0.151 -0.373,-0.387 -0.418,-0.651 l -7.413,-43.772 c -0.088,-0.523 0.252,-1.022 0.771,-1.132 l 4.886,-1.026 c 0.067,-0.014 0.134,-0.021 0.203,-0.021 0.196,0 0.39,0.059 0.555,0.171 0.222,0.151 0.373,0.386 0.418,0.651 l 7.412,43.772 c 0.089,0.523 -0.251,1.022 -0.77,1.131 L 0.203,-0.021 C 0.136,-0.007 0.067,0 0,0 M 0,-0.987 4.885,-2.014 -2.527,-45.786 -7.413,-44.759 0,-0.987" /></g><g
           transform="translate(29.4423,53.0006)"
           id="g84"><path
             id="path86"
             style="fill:#ffffff;fill-opacity:1;fill-rule:nonzero;stroke:none"
             d="M 0,0 C -0.197,-1.458 -0.416,-2.971 -0.685,-4.576 L -2.657,-16.358 2.638,-14.62 0.609,-3.78 C 0.404,-2.607 0.205,-1.368 0,0 m -9.763,-36.77 c -0.119,0 -0.235,0.043 -0.326,0.124 -0.128,0.113 -0.189,0.284 -0.161,0.452 l 7.344,43.737 c 0.032,0.189 0.169,0.342 0.352,0.394 l 4.633,1.315 c 0.044,0.013 0.09,0.019 0.135,0.019 0.091,0 0.181,-0.025 0.26,-0.074 0.118,-0.073 0.2,-0.192 0.225,-0.328 l 7.313,-38.927 c 0.047,-0.248 -0.102,-0.491 -0.344,-0.564 l -3.514,-1.051 c -0.047,-0.014 -0.093,-0.02 -0.141,-0.02 -0.09,0 -0.18,0.024 -0.258,0.072 -0.12,0.074 -0.203,0.195 -0.228,0.333 l -2.133,11.708 -6.811,-2.236 -2.249,-13.459 c -0.031,-0.185 -0.165,-0.337 -0.346,-0.391 l -3.609,-1.083 c -0.047,-0.014 -0.094,-0.021 -0.142,-0.021" /></g><g
           transform="translate(27.4061,37.3663)"
           id="g88"><path
             id="path90"
             style="fill:currentColor;fill-opacity:1;fill-rule:nonzero;stroke:none"
             d="m 0,0 1.838,10.977 c 0.078,0.464 0.151,0.921 0.222,1.371 0.033,-0.193 0.065,-0.383 0.098,-0.573 L 4.109,1.349 Z m 4.25,25.399 c -0.091,0 -0.182,-0.012 -0.271,-0.038 L -0.652,24.046 C -1.019,23.942 -1.293,23.636 -1.356,23.26 L -8.7,-20.478 c -0.057,-0.336 0.064,-0.678 0.32,-0.904 0.183,-0.161 0.416,-0.247 0.653,-0.247 0.095,0 0.191,0.014 0.284,0.042 l 3.609,1.082 c 0.36,0.108 0.628,0.412 0.69,0.783 l 2.201,13.165 5.988,1.965 2.032,-11.151 c 0.051,-0.276 0.216,-0.518 0.455,-0.664 0.157,-0.096 0.336,-0.146 0.517,-0.146 0.095,0 0.19,0.013 0.283,0.041 l 3.513,1.051 c 0.484,0.145 0.781,0.632 0.687,1.128 L 5.22,24.594 C 5.169,24.867 5.005,25.105 4.77,25.251 4.611,25.349 4.432,25.399 4.25,25.399 M -1.243,-1.447 5.238,0.681 3.131,11.945 C 2.716,14.323 2.365,16.722 2.046,19.069 L 1.981,19.048 C 1.662,16.552 1.343,13.995 0.864,11.14 L -1.243,-1.447 m 5.493,25.859 7.313,-38.927 -3.514,-1.05 -2.236,12.265 -7.631,-2.506 -2.299,-13.753 -3.61,-1.083 7.344,43.738 4.633,1.316" /></g><g
           transform="translate(26.3026,60.3692)"
           id="g92"><path
             id="path94"
             style="fill:currentColor;fill-opacity:1;fill-rule:nonzero;stroke:none"
             d="m 0,0 c -0.033,0 -0.066,0.003 -0.1,0.01 l -3.73,0.768 c -0.232,0.047 -0.398,0.253 -0.395,0.49 0.004,0.237 0.175,0.438 0.409,0.48 l 5.195,0.917 c 0.028,0.004 0.058,0.007 0.086,0.007 0.033,0 0.066,-0.004 0.099,-0.01 L 5.294,1.894 C 5.526,1.846 5.691,1.64 5.688,1.403 5.685,1.166 5.514,0.965 5.28,0.924 L 0.086,0.007 C 0.058,0.002 0.028,0 0,0" /></g><g
           transform="translate(27.7675,63.5347)"
           id="g96"><path
             id="path98"
             style="fill:currentColor;fill-opacity:1;fill-rule:nonzero;stroke:none"
             d="m 0,0 c -0.058,0 -0.115,-0.005 -0.172,-0.015 l -5.194,-0.917 c -0.467,-0.082 -0.81,-0.485 -0.817,-0.958 -0.006,-0.474 0.325,-0.886 0.788,-0.982 l 3.731,-0.767 c 0.065,-0.014 0.132,-0.021 0.199,-0.021 0.057,0 0.114,0.006 0.171,0.015 l 5.195,0.917 c 0.467,0.083 0.809,0.485 0.816,0.959 0.007,0.474 -0.324,0.885 -0.788,0.981 L 0.199,-0.02 C 0.133,-0.007 0.066,0 0,0 M 0,-0.987 3.729,-1.755 -1.465,-2.672 -5.195,-1.904 0,-0.987" /></g></g></g></g></svg>