<?xml version="1.0" encoding="UTF-8"?>
<svg width="24px" height="24px" viewBox="0 0 24 24" version="1.1" xmlns="http://www.w3.org/2000/svg" xmlns:xlink="http://www.w3.org/1999/xlink">
    <title>08F92031-9BA3-4304-8290-E9599388DEC8</title>
    <defs>
        <path d="M14.1225324,12.0002502 L23.5602343,2.56215472 C24.1465886,1.97627635 24.1465886,1.02566241 23.5602343,0.439784027 C22.9738801,-0.146594676 22.0243064,-0.146594676 21.4379521,0.439784027 L12.0002502,9.87787946 L2.5620479,0.439784027 C1.97569365,-0.146594676 1.02611995,-0.146594676 0.439765692,0.439784027 C-0.146588564,1.02566241 -0.146588564,1.97627635 0.439765692,2.56215472 L9.87796794,12.0002502 L0.439765692,21.4383456 C-0.146588564,22.024224 -0.146588564,22.9748379 0.439765692,23.5607163 C0.73294282,23.8534053 1.11717496,24 1.5009068,24 C1.88463864,24 2.26887078,23.8534053 2.5620479,23.560216 L12.0002502,14.1221205 L21.4379521,23.560216 C21.7311292,23.8534053 22.1153614,24 22.4990932,24 C22.882825,24 23.2670572,23.8534053 23.5602343,23.560216 C24.1465886,22.9743376 24.1465886,22.0237237 23.5602343,21.4378453 L14.1225324,12.0002502 Z" id="path-1"></path>
    </defs>
    <g id="Desktop" stroke="none" stroke-width="1" fill="none" fill-rule="evenodd">
        <g id="3.5.1.-Страница-списка-сервисов-(pop-up)" transform="translate(-1004.000000, -215.000000)">
            <g id="PopUp" transform="translate(384.000000, 187.000000)">
                <g id="Icon/-Close" transform="translate(616.000000, 24.000000)">
                    <g id="Icon-/-Close" transform="translate(4.000000, 4.000000)">
                        <mask id="mask-2" fill="white">
                            <use xlink:href="#path-1"></use>
                        </mask>
                        <use id="Mask" fill="#ffffff" xlink:href="#path-1"></use>
                        <g id="Color-/-Primary" mask="url(#mask-2)" fill="#ffffff">
                            <g transform="translate(-4.000000, -4.000000)" id="Rectangle">
                                <rect x="0" y="0" width="32" height="32"></rect>
                            </g>
                        </g>
                    </g>
                </g>
            </g>
        </g>
    </g>
</svg>