<svg xmlns="http://www.w3.org/2000/svg" xmlns:xlink="http://www.w3.org/1999/xlink" width="339" height="182" viewBox="0 0 339 182">
    <defs>
        <path id="a" d="M0 0h339v182H0z"/>
    </defs>
    <g fill="none" fill-rule="evenodd">
        <mask id="b" fill="#fff">
            <use xlink:href="#a"/>
        </mask>
        <use fill="#FFE100" xlink:href="#a"/>
        <g fill="#FEFEFE" mask="url(#b)">
            <path d="M-21.21 106.303l-.014.01.038 27.47-3.08-1.778-.015.008.003 3.15 4.485 2.59 4.478-2.59.013-.009-.003-3.15-.015.009-3.09 1.79h-2.776l2.776-.007.015-.008-.038-27.485zM-18.458 97.011l-2.778.005h2.778l3.09-1.788.013-.01.004 3.148-.014.01-4.476 2.592-4.485-2.592-.005-3.148.015-.01 3.08 1.78-.036-27.47.013-.01h2.778L-18.445 97zM15.362 106.303l-.014.01.035 27.47-3.079-1.778-.014.008.005 3.15 4.484 2.59 4.477-2.59.015-.009-.004-3.15-.014.009-3.09 1.79h-2.78l2.78-.007.014-.008-.038-27.485zM-17.758 60.165l-2.773.162 2.773-.157 2.984-1.96.015-.009.18 3.143-.013.01-4.326 2.84-4.622-2.337-.18-3.143.013-.011 3.174 1.606-1.573-27.428.015-.01 2.773-.157 1.573 27.44zM18.532 96.982l-2.776.095 2.776-.088 3.032-1.886.014-.011.104 3.149-.015.012-4.394 2.727-4.563-2.448-.102-3.148.013-.011 3.133 1.684L14.86 69.6l.015-.012 2.776-.086.894 27.47zM50.942 106.487l-.015.008 1.985 27.403-3.198-1.557-.015.012.227 3.14 4.656 2.266 4.284-2.903.013-.01-.227-3.14-.013.008-2.956 2.005-2.771.197 2.77-.202.012-.011-1.983-27.414zM-16.634 23.197l-2.748.407 2.748-.402 2.8-2.217.014-.01.458 3.117-.015.011-.563.445-3.479 2.755-.013.01-4.812-1.916-.456-3.116.013-.01 3.302 1.315-3.99-27.183 2.747-.4.015-.01 3.992 27.194zM13.325 58.882l.014-.01 3.235 1.48-2.657-27.347.015-.01 2.764-.266 2.658 27.359-.014.008-2.764.272 2.764-.267 2.904-2.076.015-.01.304 3.135-4.21 3.007-.012.01-4.712-2.149zM50.042 95.701l.013-.01 3.247 1.451-2.875-27.323.015-.01 2.763-.288 2.875 27.335-.013.01-2.763.294 2.763-.29 2.889-2.098.013-.009.33 3.132-4.185 3.04-.015.01-4.728-2.11zM-15.377-13.92l-2.691.682 2.693-.675 2.563-2.487.013-.01.767 3.055-3.713 3.603-.013.01-4.978-1.425-.768-3.053.015-.01 3.417.977-6.699-26.65 2.694-.676.013-.01 6.7 26.66zM86.204 106.843l-.013.01 4.584 27.093-3.33-1.246-.015.01.526 3.107 4.85 1.81.013-.01 3.986-3.297-.524-3.107-.015.01-2.751 2.276-2.739.464 2.739-.467.014-.011-4.585-27.103zM14.293 22.391l.015-.01 3.344 1.204-4.92-27.033 2.733-.495.014-.011L20.4 23.09l-.013.01-2.731.5 2.731-.495 2.722-2.313.015-.01.565 3.1-3.946 3.348-.013.012-4.874-1.752zM50.69 59.121l.014-.011 3.323 1.265L49.6 33.257l2.741-.445.013-.011 4.43 27.127-.013.01-2.741.454 2.741-.447 2.765-2.261.013-.01.507 3.108-4.003 3.275-.015.01-4.84-1.838zM-14.065-51.205l-2.602.97 2.604-.965 2.279-2.75.015-.01 1.092 2.954-3.303 3.984-.014.01-5.1-.875-1.093-2.954.013-.012 3.5.602-9.533-25.773 2.604-.962.015-.012 9.537 25.783zM87.727 96.01l.013-.012 3.363 1.15-5.338-26.951.014-.012 2.725-.537 5.34 26.964-.013.01-2.725.544 2.725-.538 2.685-2.353.015-.01.612 3.088-3.892 3.41-.015.01-4.898-1.675zM15.442-14.161l.013-.01 3.444.875-7.486-26.44 2.672-.754.015-.012 7.49 26.45-.016.01-2.67.762 2.672-.756 2.487-2.564.015-.008.857 3.03-3.604 3.712-.015.012L16.3-11.13zM121.359 107.388l-.013.011 7.442 26.452-3.443-.88-.015.01.854 3.032 5.014 1.282.015-.01 3.61-3.706-.852-3.032-.014.01-2.491 2.558-2.676.75 2.676-.754.013-.011-7.446-26.461zM51.58 22.546l.013-.011 3.41 1.009-6.467-26.706 2.7-.654.013-.01 6.468 26.716-.013.012-2.699.655 2.7-.65 2.585-2.463.013-.012.742 3.06-3.746 3.57-.013.011-4.964-1.465zM88.3 59.35l.014-.01 3.416.98-6.678-26.655 2.695-.675.013-.008 6.681 26.665-.013.011-2.694.678 2.694-.674 2.565-2.485.015-.01.765 3.054-3.717 3.6-.015.01-4.975-1.425zM-10.8-91.655l.012-.01 1.42 2.812-2.83 4.333-.014.011-5.167-.293-1.42-2.813 3.566.203 2.479-1.252.007-.012-.01.007-2.476 1.257-12.388-24.546 2.478-1.252.015-.01 12.384 24.54zM16.714-50.824l.013-.01 3.515.51-10.199-25.519 2.578-1.03.015-.01L22.84-51.357l-.015.01-2.576 1.038 2.578-1.033 2.207-2.808.014-.012 1.168 2.926-3.198 4.07-.013.01-5.12-.743zM125.586 96.234l.013-.01 3.464.8-8.079-26.267 2.656-.815.013-.01 8.08 26.274-.013.01-2.652.82 2.654-.815 2.429-2.617.013-.01.927 3.01-3.52 3.794-.014.008-5.044-1.16zM52.654-14.084l.013-.011 3.483.7-8.815-26.027 2.63-.89.014-.01 8.819 26.035-.013.011-2.63.895 2.631-.89 2.353-2.686.015-.01 1.01 2.984-3.41 3.89-.016.01-5.074-1.017zM159.05 107.093l-2.57 1.049 10.4 25.442-3.522-.485-.015.01 1.191 2.917 5.128.701.015-.008 3.166-4.096-1.192-2.915-.014.01-2.183 2.826-2.572 1.053 2.568-1.057.015-.013-10.4-25.445zM89.104 22.685l.015-.012 3.472.747-8.466-26.142 2.643-.856.015-.01 8.468 26.152-.014.012-2.641.86 2.642-.855 2.391-2.653.014-.012.97 2.997-3.464 3.845-.013.01-5.062-1.086zM-9.903-129.503l.015-.011 1.737 2.628-2.309 4.633-.013.012-5.165.311-1.736-2.628 3.563-.214 2.317-1.532.005-.01-.008.005-2.314 1.537-15.156-22.938 2.316-1.533.015-.01 15.15 22.931zM126.09 59.506l.015-.012 3.493.645-9.218-25.889 2.618-.93.013-.01 9.22 25.896-.014.01-2.614.94 2.616-.933 2.312-2.721.014-.01 1.058 2.966-3.353 3.941-.013.012-5.09-.94zM18.065-87.632l3.57.121 2.448-1.31.007-.01-.01.007-2.446 1.313-12.948-24.254 2.45-1.31.013-.01 12.944 24.248 1.874-3.018.015-.011 1.482 2.779-2.73 4.398-.015.01-5.172-.174zM57.41-50.46l2.527-1.152.013-.008-.01.015-2.53 1.145zm-2.255 2.515l5.149.513.015-.011 3.012-4.21-1.299-2.868-.015.011-2.065 2.888-11.338-25.043-.013.01-2.53 1.146 11.334 25.037-3.534-.352-.015.01 1.299 2.87zM167.11 96.742l2.547-1.112.011-.008-.01.015-2.548 1.105zm-2.295 2.476l5.142.595.014-.008 3.078-4.16-1.252-2.892-.014.012-2.113 2.855-10.933-25.222-.015.011-2.548 1.104 10.93 25.215-3.529-.41-.013.012 1.253 2.888zM90.089-14.032l.013-.01 3.523.46-10.564-25.37 2.563-1.068.015-.01 10.567 25.377-.015.01-2.561 1.074 2.563-1.067 2.166-2.842.015-.01 1.211 2.908-3.14 4.114-.014.01-5.133-.67zM-9.118-167.48l.013-.01 2.036 2.403-1.74 4.876-.015.012-5.09.923-2.036-2.404 3.513-.637 2.117-1.796.003-.01-.006.005-2.114 1.801-17.769-20.974 2.119-1.798.013-.01 17.762 20.966zM204.991 133.133l2.424-1.354.012-.008-.008.013-2.428 1.349zm-2.042 2.69l5.173.092.014-.012 2.659-4.441-1.527-2.754-.015.01-1.823 3.05-13.334-24.038-.013.008-2.427 1.35 13.33 24.033-3.551-.065-.015.012 1.529 2.754zM126.809 22.756l.014-.01 3.523.432-10.76-25.287 2.556-1.087.015-.01 10.762 25.295-.013.01-2.553 1.092 2.555-1.088 2.145-2.855.013-.012 1.233 2.898-3.107 4.139-.015.011-5.136-.63zM23.013-124.89l2.283-1.58.005-.009-.008.005-2.28 1.585L7.39-147.513l2.284-1.58.015-.01 15.616 22.614 1.518-3.212.013-.01 1.79 2.59-2.21 4.681-.016.01-5.155.419-1.79-2.592zM58.713-87.7l2.395-1.406.008-.012-.01.007-2.393 1.41-13.905-23.718 2.394-1.404.015-.012 13.9 23.712 1.752-3.091.014-.01 1.594 2.716-2.553 4.504-.015.01-5.174.033-1.593-2.716zM167.564 59.813l2.501-1.206.012-.01-.008.013-2.505 1.203zm-2.198 2.567l5.159.395.015-.01 2.916-4.276-1.363-2.84-.015.01-2.001 2.936-11.893-24.784-.015.012-2.503 1.202 11.891 24.776-3.54-.273-.015.012 1.364 2.84zM205.178 96.257l2.4-1.398.01-.008-.009.011-2.4 1.395zm-3.57.002l1.577 2.726 5.174-.005.015-.01 2.576-4.49-1.58-2.726-.013.01-1.766 3.08-13.775-23.783-.015.008-2.404 1.395 13.775 23.781-3.551.004-.014.01zM91.205-50.843l3.567.137 2.456-1.298.006-.014-.01.009-2.452 1.303-12.844-24.31 2.453-1.298.015-.01 12.842 24.301 1.885-3.009.015-.01 1.47 2.784-2.747 4.386-.014.011-5.172-.195zM-8.473-205.568l.013-.01 2.31 2.14-1.14 5.052-.013.01-4.943 1.532-2.308-2.14 3.409-1.056 1.885-2.04.002-.008-.007.004-1.88 2.044-20.162-18.68 1.886-2.041.013-.008 20.153 18.67zM131.265-13.877l2.465-1.279.012-.008-.01.013-2.467 1.274zm-2.124 2.628l5.17.248.013-.011 2.794-4.357-1.444-2.8-.014.01-1.916 2.993-12.6-24.431-.014.01-2.467 1.275 12.597 24.423-3.548-.168-.015.008 1.444 2.8zM243.072 132.47l2.24-1.639.01-.007-.004.012-2.246 1.634zm-3.551.37l1.85 2.55 5.145-.541.015-.01 2.1-4.733-1.85-2.549-.014.012-1.44 3.249-16.147-22.24-.015.01-2.244 1.634 16.144 22.238-3.53.37-.014.01zM24.347-162.448l2.084-1.836.003-.012-.006.007-2.08 1.84-18.153-20.643 2.084-1.836.014-.011 18.145 20.633 1.132-3.367.013-.012 2.08 2.365-1.65 4.91-.014.01-5.073 1.019-2.079-2.366zM168.208 22.798l2.434-1.341.01-.007-.009.012-2.435 1.336zm-2.056 2.68l5.174.116.015-.009 2.68-4.426-1.514-2.764-.013.011-1.84 3.039-13.21-24.106-.014.01-2.434 1.337 13.205 24.1-3.548-.08-.013.01 1.512 2.762zM60.019-125.11l2.226-1.66.003-.01-.007.005-2.222 1.665-16.422-22.048 2.224-1.66.015-.01 16.417 22.04 1.401-3.268.014-.01 1.882 2.526-2.044 4.758-.014.011-5.137.602-1.882-2.526zM205.56 59.296l2.349-1.48.008-.006-.005.01-2.353 1.476zm-3.57.124l1.67 2.67 5.17-.182.014-.012 2.423-4.574-1.67-2.671-.014.011-1.66 3.14-14.582-23.298-.012.011-2.355 1.472 14.579 23.297-3.548.124-.015.012zM95.972-87.993l2.313-1.536.005-.012-.008.007-2.31 1.541-15.188-22.916 2.313-1.538.013-.01 15.183 22.91 1.58-3.183.015-.012 1.738 2.625-2.3 4.64-.015.01-5.164.318-1.74-2.625zM-30.622-256.27l-1.623 2.257 22.282 16.081 1.618-2.258.005-.003v.007l-1.623 2.254-3.255 1.467 2.551 1.841 4.718-2.122.015-.011.516-5.155-2.552-1.842-.015.01-.353 3.538-22.27-16.074zM245.441 93.908l-2.206 1.66 2.203-1.665.006-.005-.003.01zm-5.762 2.1l1.89 2.519 5.138-.624.011-.012 2.025-4.767-1.892-2.516-.014.01-1.388 3.27-16.511-21.967-.015.012-2.218 1.67 16.512 21.968-3.525.428-.013.01zM132.286-51.071l2.351-1.479.005-.01-.008.007-2.348 1.482-14.618-23.285 2.351-1.48.015-.01 14.613 23.28 1.656-3.143.015-.01 1.674 2.668-2.416 4.577-.014.012-5.17.188-1.676-2.666zM22.212-199.068l3.393-1.115 1.849-2.071.001-.009-.004.005-1.846 2.075-20.473-18.338 1.851-2.073.013-.011 20.463 18.332.724-3.481.014-.01 2.345 2.1-1.056 5.07-.013.012-4.916 1.614zM169-14.325l2.338-1.5.008-.008-.005.011L169-14.325zm-3.566.157l1.694 2.654 5.169-.227.014-.012 2.38-4.598-1.694-2.653-.015.01-1.632 3.154-14.788-23.166-.013.01-2.34 1.495 14.784 23.165-3.544.157-.015.011zM57.811-161.876l3.477-.816 2.021-1.904.003-.008-.006.005-2.018 1.907-18.813-20.041 2.022-1.904.015-.012 18.804 20.035 1.021-3.404.015-.01 2.155 2.294-1.49 4.961-.014.01-5.037 1.183zM283.114 129.711l-2.02 1.892 2.015-1.895.007-.007-.002.01zm-3.355 5.009l5.04-1.173.012-.01 1.5-4.957-2.15-2.3-.013.01-1.03 3.403-18.765-20.073-.013.012-2.027 1.902 18.768 20.073-3.458.802-.013.01 2.15 2.3zM208.385 20.65l-2.266 1.576 2.262-1.581.009-.007-.005.012zm-5.837 1.884l1.796 2.585 5.156-.432.015-.01 2.198-4.687-1.798-2.587-.015.01-1.507 3.218-15.687-22.567-.013.01-2.279 1.588 15.684 22.566-3.537.296-.013.01zM97.18-125.44l2.14-1.772.003-.01-.006.007-2.137 1.775-17.5-21.2 2.14-1.773.014-.01 17.494 21.191 1.236-3.331.014-.01 2.006 2.428-1.805 4.855-.013.012-5.101.858-2.005-2.43zM-31.667-291.636L-33-289.198l24.081 13.222 1.329-2.44.005-.003v.006l-1.334 2.437-3.05 1.856 2.76 1.515 4.42-2.69.013-.01-.12-5.18L-7.653-282l-.015.012.085 3.555-24.069-13.214zM133.366-88.407l2.204-1.69.004-.009-.005.004-2.203 1.695-16.706-21.833 2.204-1.69.013-.01 16.7 21.824 1.36-3.283.013-.01 1.915 2.501-1.98 4.784-.014.01-5.13.67-1.916-2.501zM245.702 56.853l-2.154 1.729 2.151-1.734.008-.006-.005.011zm-3.726 4.736l5.115-.782.014-.01 1.873-4.827-1.968-2.46-.014.01-1.285 3.315-17.176-21.45-.013.007-2.167 1.739 17.178 21.454-3.512.534-.013.01 1.968 2.46zM23.521-236.565l3.234-1.515 1.586-2.281v-.005l-.005.003-1.581 2.283-22.527-15.74 1.588-2.28.014-.009 22.513 15.73.3-3.544.014-.011 2.58 1.803-.439 5.162-.013.01-4.683 2.197zM169.897-51.572l2.218-1.674.005-.011-.01.006-2.213 1.68-16.543-21.958 2.218-1.674.013-.011 16.536 21.952 1.385-3.275.013-.012 1.896 2.518-2.018 4.768-.015.009-5.134.632-1.896-2.515zM59.126-199.228l3.358-1.213 1.788-2.127.001-.007-.006.004-1.783 2.13-21.007-17.726 1.788-2.125.015-.01 20.995 17.716.62-3.502.014-.01 2.406 2.03-.905 5.1-.013.01-4.865 1.76zM283.201 92.78l-1.988 1.921 1.985-1.925.006-.005-.003.01zm-3.277 5.059l5.02-1.249.014-.01 1.427-4.979-2.186-2.268-.015.01-.976 3.418-19.062-19.789-.014.01-1.998 1.932 19.064 19.79-3.445.857-.013.01 2.184 2.268zM203.251-14.42l3.533-.513 2.178-1.725.004-.007-.007.005-2.175 1.727-17.03-21.58 2.178-1.722.015-.011 17.024 21.571 1.308-3.303.015-.01 1.95 2.471-1.908 4.814-.015.012-5.118.744zM94.924-162.079l3.436-.971 1.933-1.995.002-.008-.005.003-1.93 2-19.703-19.168 1.934-1.993.015-.01 19.692 19.156.866-3.447.015-.012 2.257 2.197-1.264 5.022-.013.012-4.977 1.409zM320.772 128.427l-1.766 2.132 1.761-2.137.007-.003-.002.008zm-2.7 5.39l4.852-1.796.014-.01.868-5.106-2.422-2.015-.015.012-.594 3.505-21.123-17.558-.013.01-1.773 2.14 21.131 17.563-3.331 1.231-.015.012 2.421 2.013zM130.985-125.085l3.477-.809 2.027-1.902.002-.008-.007.005-2.022 1.905-18.782-20.07 2.026-1.901.015-.01 18.773 20.061 1.028-3.403.013-.01 2.152 2.298-1.497 4.96-.013.01-5.039 1.174zM240.492 22.192l3.503-.693 2.087-1.83.003-.01-.005.006-2.085 1.834L225.894.811l2.089-1.833.013-.01 18.094 20.68 1.139-3.364.015-.012 2.074 2.37-1.663 4.905-.015.01-5.074 1.006zM24.747-274.23l3.024-1.898 1.297-2.456v-.007l-.003.003-1.294 2.46-24.267-12.88 1.299-2.457.013-.01 24.252 12.87-.132-3.552.013-.012 2.78 1.476.193 5.177-.015.012-4.38 2.749zM167.36-88.216l3.494-.737 2.064-1.86.001-.01-.006.005-2.06 1.865-18.368-20.452 2.065-1.86.014-.01 18.359 20.443 1.097-3.38.015-.011 2.103 2.342-1.598 4.927-.013.01-5.063 1.07zM60.387-236.748l3.19-1.603 1.524-2.322.002-.007-.007.004-1.52 2.325-22.944-15.118 1.525-2.323.015-.011 22.931 15.11.203-3.551.014-.01 2.629 1.733-.298 5.171-.013.012-4.624 2.322zM283.403 55.72l-1.935 1.974 1.931-1.98.005-.003-.001.008zm-3.137 5.145l4.984-1.386.013-.01 1.288-5.018-2.246-2.205-.013.01-.884 3.442-19.602-19.248-.013.009-1.943 1.985 19.605 19.255-3.421.95-.015.01 2.247 2.206zM204.071-51.46l3.487-.764 2.05-1.875.004-.008-.007.005-2.047 1.878-18.52-20.313 2.05-1.873.013-.011 18.513 20.304 1.072-3.39.013-.009 2.124 2.327-1.563 4.938-.014.01-5.053 1.108zM96.17-199.47l3.303-1.352 1.698-2.199v-.008l-.005.005-1.693 2.202-21.724-16.833 1.699-2.198.013-.012 21.712 16.825.474-3.524.015-.011 2.489 1.93-.693 5.133-.015.01-4.785 1.962zM320.83 91.495l-1.738 2.157 1.735-2.162.005-.003-.002.008zm-2.624 5.425l4.825-1.86.014-.012.798-5.116-2.448-1.98-.014.01-.547 3.513-21.359-17.27-.014.009-1.742 2.164 21.365 17.277-3.314 1.275-.013.012 2.45 1.978zM132.162-162.368l3.373-1.166 1.82-2.103v-.008l-.006.003-1.814 2.108-20.762-18.01 1.818-2.101.013-.01 20.754 17.998.665-3.491.015-.01 2.378 2.062-.973 5.087-.015.011-4.888 1.693zM241.11-14.82l3.458-.886 1.983-1.945.004-.01-.009.007-1.978 1.948-19.216-19.654 1.983-1.947.015-.01 19.206 19.646.952-3.424.015-.01 2.201 2.252-1.388 4.99-.015.01-5.01 1.284zM358.27 127.002l-1.485 2.342 1.48-2.345.006-.003v.006zm-1.996 5.689l4.584-2.395.015-.01.215-5.178-2.655-1.69-.015.011-.147 3.553-23.168-14.743-.013.01-1.49 2.347 23.18 14.752-3.148 1.644-.013.01 2.655 1.689zM168.419-125.417l3.409-1.062 1.882-2.043.002-.009-.007.005-1.877 2.047-20.188-18.652 1.882-2.043.013-.01 20.18 18.642.777-3.469.015-.01 2.311 2.136-1.135 5.055-.011.01-4.941 1.538zM278.437 21.679l3.4-1.092 1.862-2.061.001-.007-.005.005-1.859 2.063-20.36-18.465L263.34.06l.014-.01 20.35 18.455.745-3.475.013-.009 2.333 2.114-1.088 5.064-.012.01-4.926 1.584zM61.567-274.43l.015-.01 2.96-1.964-24.581-12.265 1.236-2.49 24.577 12.264-1.225 2.478 1.23-2.474-.223-3.57 2.816 1.404.013-.011.322 5.174-.013.01-4.312 2.86zM204.973-88.604l3.414-1.04 1.896-2.035.001-.007-.006.005-1.89 2.037-20.081-18.768 1.893-2.033.013-.008 20.075 18.756.795-3.466.014-.01 2.3 2.15-1.161 5.05-.015.01-4.946 1.51zM97.364-237.02l3.127-1.723 1.434-2.38v-.007l-.005.005-1.43 2.382-23.506-14.227 1.435-2.38.013-.009 23.493 14.216.068-3.556.013-.01 2.694 1.63-.1 5.18-.013.011-4.53 2.498zM315.992 58.005l3.297-1.366 1.69-2.209v-.006l-.006.005-1.684 2.21-21.798-16.734 1.687-2.208.015-.01 21.788 16.725.458-3.528.015-.01 2.495 1.919-.67 5.136-.012.011-4.778 1.982zM241.831-51.92l3.393-1.112 1.852-2.071.002-.009-.005.005-1.85 2.075-20.458-18.355 1.852-2.07.013-.009 20.451 18.343.726-3.479.013-.011 2.343 2.104-1.06 5.07-.01.01-4.919 1.61zM133.322-199.802l3.23-1.525 1.577-2.286v-.007l-.003.004-1.575 2.29-22.58-15.664 1.582-2.286.014-.01 22.564 15.655.288-3.545.014-.01 2.587 1.795-.422 5.162-.013.012-4.676 2.21zM358.303 90.07l-1.456 2.36 1.45-2.363.006-.004v.007zm-1.927 5.715l4.554-2.453.015-.01.15-5.18-2.676-1.656-.014.011-.102 3.555-23.348-14.456-.015.01-1.459 2.367 23.36 14.462-3.125 1.681-.015.012 2.675 1.657zM101.36-273.43l-.014.01-2.864-1.305 2.903-2.077-25-11.382 1.147-2.533 24.995 11.38-1.135 2.522 1.14-2.518-.348-3.56 2.862 1.304.014-.01.506 5.156-.013.011-3.76 2.692zM169.497-162.756l3.285-1.393 1.672-2.22.002-.006-.005.003-1.67 2.223-21.92-16.569 1.67-2.22.013-.01 21.914 16.561.43-3.531.014-.008 2.512 1.897-.63 5.143-.013.01-4.762 2.018zM278.97-15.383l3.34-1.263 1.754-2.15.002-.007-.005.003-1.751 2.154-21.268-17.409 1.758-2.153.015-.01 21.253 17.401.57-3.51.013-.01 2.436 1.995-.83 5.113-.013.01-4.837 1.833zM395.585 125.46l-1.176 2.517 1.171-2.52.005-.004v.006zm-1.256 5.898l4.242-2.962.013-.009-.444-5.164-2.849-1.338-.015.011.308 3.545-24.85-11.668-.015.008-1.177 2.52 24.867 11.676-2.914 2.033-.013.01 2.847 1.338zM205.925-125.866l3.312-1.336 1.709-2.192v-.007l-.005.005-1.704 2.194-21.64-16.942 1.71-2.192.014-.01 21.626 16.932.494-3.52.014-.01 2.478 1.94-.719 5.132-.013.008-4.797 1.939zM316.346 20.992l3.243-1.485 1.608-2.27.002-.005-.005.004-1.605 2.27L297.2 3.577l1.606-2.266.015-.012 22.38 15.921.328-3.542.014-.01 2.564 1.827-.482 5.157-.013.012-4.702 2.155zM242.628-89.125l3.302-1.36 1.692-2.203v-.008l-.003.005-1.689 2.206-21.763-16.784 1.695-2.202.012-.011 21.75 16.774.467-3.523.014-.012 2.492 1.922-.68 5.136-.014.01-4.783 1.974zM134.436-237.386l3.037-1.874 1.317-2.448v-.005l-.003.003-1.314 2.45-24.167-13.06 1.315-2.449.013-.012 24.156 13.053-.106-3.555.014-.011 2.77 1.497.153 5.18-.015.01-4.402 2.718zM353.893 57.173l3.103-1.763 1.405-2.4v-.007l-.005.003-1.4 2.404-23.69-13.918 1.406-2.4.012-.01 23.677 13.91.02-3.559.014-.01 2.714 1.593-.032 5.183-.015.011-4.494 2.558zM170.56-200.235l3.125-1.723 1.434-2.38v-.007l-.004.003-1.43 2.384-23.508-14.223 1.433-2.38.015-.01 23.494 14.21.067-3.554.014-.01 2.692 1.628-.096 5.18-.014.01-4.53 2.502zM279.596-52.533l3.257-1.464 1.621-2.254.002-.007-.005.003-1.618 2.258-22.277-16.091 1.624-2.258.014-.008 22.263 16.083.356-3.538.015-.01 2.553 1.844-.52 5.154-.016.01-4.718 2.12zM138.396-273.944l-2.92-1.171 2.806-2.208-25.488-10.236 1.03-2.582 25.484 10.234-1.02 2.57 1.025-2.568-.51-3.54 2.92 1.17.013-.01.74 5.132-4.065 3.2zM391.541 93.14l2.904-2.078 1.148-2.531v-.007l-.005.005-1.143 2.533-24.996-11.392 1.147-2.53.015-.011 24.98 11.385-.347-3.541.014-.012 2.863 1.305.504 5.158-.015.01-4.207 3.01zM206.897-163.257l3.17-1.639 1.498-2.34v-.009l-.005.005-1.492 2.344-23.118-14.85 1.497-2.341.015-.012 23.105 14.844.162-3.553.015-.011 2.645 1.702-.236 5.174-.013.011-4.596 2.376zM316.8-16.106l3.172-1.638 1.499-2.339v-.008l-.005.005-1.494 2.342-23.107-14.869 1.5-2.339.012-.01 23.095 14.86.166-3.554.013-.01 2.645 1.704-.24 5.176-.012.01-4.598 2.372zM429.214 128.876l2.642-2.402.843-2.65v-.005l-.005.004-.838 2.651-26.152-8.391.846-2.65.015-.012 26.13 8.388-.758-3.48.015-.01 2.996.961 1.102 5.065-.015.012-3.825 3.48zM394.585 57.414l-2.89-1.244 2.858-2.139 1.094-2.554v-.006l-.005.003-1.089 2.557L369.32 43.18l1.092-2.557.015-.01 25.219 10.846-.423-3.533.013-.012 2.892 1.244.614 5.146-4.142 3.1zM243.47-126.44l3.18-1.627 1.507-2.334v-.006l-.005.003-1.502 2.337-23.054-14.95 1.507-2.334.015-.01 23.04 14.94.178-3.551.013-.012 2.642 1.714-.258 5.174-.015.012-4.605 2.357zM354.185 20.134l3.044-1.869 1.322-2.441v-.007l-.005.003-1.317 2.445L333.088 5.15l1.322-2.445.014-.01 24.127 13.107-.1-3.556.015-.01 2.767 1.504.14 5.18-.013.009-4.409 2.707zM280.29-89.786l3.148-1.685 1.462-2.362v-.007l-.005.003-1.457 2.366-23.33-14.515 1.463-2.364.015-.01L284.9-93.852l.113-3.556.013-.01 2.672 1.663-.16 5.177-.015.012-4.561 2.443zM171.58-237.854l.015-.01h.002l2.908-2.038-24.888-11.632 1.172-2.52 24.883 11.628-1.162 2.507 1.167-2.506-.316-3.56 2.852 1.33.013-.01.457 5.162-.015.011-4.237 2.971zM207.855-200.778l2.995-1.942-24.459-12.512 1.26-2.476 24.455 12.506-1.25 2.467 1.255-2.463-.189-3.571 2.801 1.432.015-.01.271 5.174-.015.012-4.34 2.815zM317.332-53.299l3.077-1.814 1.366-2.42v-.005l-.005.003-1.361 2.422-23.9-13.55 1.366-2.42.014-.01 23.886 13.543-.035-3.56.015-.01 2.737 1.556.05 5.18-.015.01-4.456 2.625zM175.51-274.599l-2.98-1.012 2.682-2.357-26.005-8.832.89-2.637 26 8.832-.88 2.623.884-2.62-.7-3.508 2.977 1.012.014-.01 1.016 5.082-3.883 3.415zM429.254 91.989l2.616-2.432.817-2.656-.002-.003-.003.001-.812 2.658-26.236-8.113.815-2.657.014-.01 26.219 8.107-.792-3.47.013-.008 3.006.928 1.155 5.051-.015.01-3.79 3.524zM394.858 20.265l-2.927-1.151 2.791-2.227 1.013-2.588v-.005l-.005.003-1.008 2.59L369.165 6.82l1.015-2.588.013-.01 25.54 10.06-.532-3.52.013-.01 2.929 1.152.771 5.126-4.042 3.225zM244.332-163.878l3.021-1.899 1.297-2.458v-.006l-.005.003-1.292 2.461-24.275-12.862 1.298-2.46.014-.01 24.26 12.856-.135-3.556.015-.01 2.78 1.474.196 5.177-.015.01-4.377 2.756zM354.564-16.995l2.96-1.996 1.214-2.501v-.007l-.005.003-1.21 2.505-24.68-12.064 1.215-2.501.015-.01 24.665 12.057-.251-3.55.015-.011 2.827 1.383.364 5.169-.013.01-4.289 2.896zM211.706-237.292l-2.933-1.14 2.78-2.24-25.604-9.942 1.003-2.596 25.598 9.943-.993 2.582.998-2.579-.55-3.534 2.931 1.14.015-.012.797 5.12-4.027 3.246zM432.393 55.88l-3.022-.868 2.566-2.483.763-2.673v-.006l-.005.003-.758 2.676-26.392-7.59.764-2.673.013-.01 26.375 7.586-.864-3.456.015-.01 3.022.869 1.256 5.028-3.718 3.598zM466.795 127.585l2.31-2.722.497-2.738-.001-.003-.005.003-.491 2.738-27.005-4.954.496-2.736.013-.012 26.988 4.95-1.2-3.354.016-.01 3.093.568 1.743 4.881-.014.01-3.347 3.947zM281.024-127.148l3.008-1.922 1.28-2.466v-.008l-.006.005-1.274 2.47-24.366-12.688 1.279-2.468.013-.011 24.353 12.68-.16-3.553.014-.011 2.79 1.454.234 5.175-.015.01-4.359 2.786zM357.906-52.985l-2.897-1.233 2.852-2.148 1.084-2.56v-.007l-.005.005-1.079 2.562-25.27-10.764 1.083-2.56.013-.009 25.257 10.754-.437-3.532.015-.01 2.894 1.233.634 5.143-.015.011-2.009 1.515-2.107 1.59zM317.926-90.593l2.95-2.006 1.21-2.503v-.006l-.004.003-1.205 2.506-24.718-11.986 1.208-2.504.013-.01 24.705 11.979-.263-3.548.013-.012 2.833 1.373.383 5.168-.015.011-4.28 2.908zM395.208-17.003l-2.971-1.034 2.7-2.337.91-2.627-.001-.005-.005.004-.904 2.628L369-29.407l.909-2.627.013-.012 25.92 9.029-.672-3.496.014-.01 2.97 1.034.977 5.09-3.91 3.386zM245.18-201.437l2.832-2.174-25.365-10.543 1.064-2.57 25.359 10.543-1.053 2.557 1.056-2.556-.468-3.546 2.905 1.209.015-.012.676 5.138-.013.012-4.103 3.15zM212.661-275.389l-3.037-.824 2.528-2.52-26.505-7.186.723-2.685 26.5 7.184-.714 2.673.72-2.673-.922-3.454 3.037.822.013-.01 1.334 5.01-3.664 3.652zM432.6 18.724l-3.05-.784 2.496-2.554.686-2.693v-.005l-.005.003-.681 2.695-26.598-6.827.687-2.693.014-.011 26.58 6.822-.962-3.43.015-.008 3.045.78 1.4 4.992-3.614 3.703zM321.473-126.824l-2.922-1.167 2.801-2.213-25.51-10.183 1.024-2.583 25.507 10.18-1.016 2.573 1.021-2.57-.52-3.54 2.923 1.166.015-.009.75 5.128-4.059 3.208zM466.817 90.695l2.282-2.746.471-2.739-.001-.005-.005.003-.465 2.741-27.052-4.684.47-2.743.014-.01 27.034 4.683-1.232-3.344.015-.01 3.098.539 1.791 4.863-.015.01-3.306 3.978zM281.771-164.623l.015-.012 2.824-2.155-25.329-10.621 1.07-2.566 25.323 10.621-1.059 2.554 1.064-2.552-.456-3.548 2.902 1.217.015-.01.66 5.141-2.567 1.957-1.56 1.19zM248.996-238.202l-3.009-.918 2.608-2.44-26.268-8.016.808-2.662 26.26 8.015-.797 2.65.803-2.649-.811-3.483 3.009.92.015-.012 1.173 5.047-3.776 3.538zM470.005 54.191l-3.109-.478 2.234-2.789.419-2.749-.002-.003-.005.001-.412 2.751-27.136-4.183.42-2.75.013-.01 27.117 4.18-1.294-3.317.013-.01 3.108.478 1.882 4.83-3.233 4.04zM358.468-90.484l-2.965-1.057 2.718-2.318.927-2.618v-.007l-.005.004-.922 2.621-25.87-9.223.928-2.622.015-.01 25.853 9.22-.646-3.502 2.96 1.057.016-.011.942 5.098-3.938 3.356zM504.205 126.17l1.938-2.999.14-2.779-.001-.001-.004.001-.135 2.78-27.415-1.42.14-2.779.016-.008 27.394 1.416-1.624-3.174.015-.01 3.141.163 2.358 4.615-.013.01-2.81 4.349zM285.5-201.26l-2.995-.957 2.637-2.406-26.167-8.342.84-2.65 26.16 8.338-.83 2.639h.002l.834-2.635-.768-3.494 2.998.956.013-.011 1.112 5.063-3.82 3.489zM395.616-54.392l-3.017-.89 2.58-2.465.784-2.67-.002-.005-.005.004-.776 2.671-26.339-7.766.78-2.668.013-.01 26.324 7.76-.841-3.46.015-.01 3.017.89 1.223 5.036-3.741 3.571zM322.19-164.563l-3.005-.935 2.62-2.425-26.224-8.156.821-2.657 26.218 8.153-.81 2.645.815-2.643-.793-3.487 3.004.935.014-.01 1.15 5.053-3.798 3.517zM432.864-18.554l-3.073-.666 2.397-2.649.585-2.717-.001-.005-.005.003-.579 2.72-26.832-5.828.585-2.718.013-.011 26.815 5.824-1.09-3.391.014-.012 3.073.669 1.585 4.935-3.472 3.835zM249.818-276.314l-3.086-.608 2.347-2.692-26.94-5.313.533-2.727 26.934 5.31-.525 2.717.53-2.718-1.158-3.382 3.085.608.015-.01 1.677 4.903-3.397 3.902zM470.15 17.033l-3.122-.395 2.157-2.847.345-2.761-.002-.005-.003.003-.34 2.763-27.235-3.452.344-2.761.012-.01 27.22 3.449-1.384-3.284.015-.01 3.121.394 2.008 4.777-3.121 4.127zM359.05-128.112l-3.027-.855 2.555-2.493-26.428-7.463.75-2.677 26.421 7.459-.739 2.666.746-2.663-.884-3.467 3.027.857.015-.012 1.279 5.022-3.702 3.616zM504.21 89.28l1.91-3.019.114-2.779-.002-.003-.002.003-.11 2.78-27.426-1.165.114-2.78.015-.01 27.404 1.164-1.649-3.158.012-.01 3.143.132 2.4 4.594-.014.012-2.768 4.373zM286.272-239.25l-3.072-.672 2.401-2.644-26.826-5.868.591-2.718 26.818 5.869-.58 2.704.585-2.704-1.089-3.408 3.074.673.015-.01 1.575 4.936-3.477 3.831zM396.058-91.907l-3.062-.718 2.442-2.607-26.737-6.271.632-2.708 26.73 6.27-.623 2.695.626-2.694-1.037-3.424 3.062.718.013-.01 1.504 4.959-3.535 3.78zM322.875-202.434l-3.07-.68 2.407-2.638-26.813-5.927.595-2.716 26.807 5.927-.587 2.704.591-2.704-1.08-3.41 3.07.68.015-.011 1.566 4.942-3.486 3.821zM515.377 120.804l.014-.011 27.342-2.148-2.02-2.937.014-.012 3.133-.245 2.937 4.271-.015.012-2.223 4.674-3.133.245 1.534-3.225-.22-2.774-.002-.002-.003.002.225 2.774-27.362 2.148zM433.173-55.954l-3.102-.526 2.275-2.753-27.067-4.605.46-2.74 27.063 4.601-.454 2.733.46-2.731-1.248-3.353 3.101.526.014-.008 1.807 4.858-3.296 3.988zM583.133 117.475l-.015.01-1.598 4.926-3.075.651 1.103-3.399-.578-2.72-.002-.002-.003.003.583 2.72-26.847 5.69-.579-2.725.015-.01 26.828-5.683-2.386-2.655.015-.01 3.075-.652zM359.628-165.866l-3.082-.629 2.363-2.676-26.904-5.49.552-2.726 26.899 5.488.005.002-1.137-3.391 3.08.628.015-.01 1.648 4.915-3.424 3.879zM470.335-20.247l-3.133-.287 2.058-2.92.248-2.77-.002-.002-.003.001-.243 2.771-27.34-2.496.247-2.77.015-.01 27.319 2.494-1.496-3.236.014-.01 3.131.288 2.178 4.703-2.978 4.235zM286.955-277.368l-3.124-.37 2.134-2.865-27.263-3.232.324-2.764 27.258 3.233-.318 2.753.323-2.753-1.415-3.285 3.123.37.015-.009 2.048 4.76-3.092 4.152zM504.255 52.296l1.86-3.052.066-2.779-.001-.003-.005.003-.06 2.78-27.442-.69.066-2.781.013-.01 27.423.69-1.706-3.131.014-.01 3.143.079 2.48 4.55-.013.012-2.694 4.422zM507.485 15.217h-3.144l1.781-3.095-.003-2.784-.002-.001-.005.001.01 2.784-27.45.005-.002-2.784.013-.01 27.43-.005-1.784-3.085.013-.011h3.143l2.595 4.488-2.58 4.487zM396.515-129.546l-3.104-.522 2.273-2.756-27.076-4.564.46-2.742 27.068 4.562-.45 2.73.454-2.73-1.251-3.351 3.101.524.014-.01 1.814 4.855-3.288 3.995zM323.503-240.432l-3.12-.404 2.163-2.842-27.226-3.523.352-2.76 27.22 3.524-.344 2.748.351-2.746-1.378-3.302 3.119.405.013-.011 1.996 4.784-3.131 4.117zM515.331 84.14l.015-.012 27.322-2.383-2.044-2.921.013-.01 3.133-.275 2.971 4.246-.013.012-2.183 4.694-3.133.272 1.506-3.24-.243-2.768-.002-.004-.003.004.248 2.769-27.342 2.387zM433.503-93.472l-3.124-.362 2.126-2.872-27.269-3.166.316-2.762 27.266 3.166-.313 2.752.318-2.752-1.423-3.28 3.123.362.015-.012 2.059 4.756-3.079 4.158zM363.291-207.895l-3.107 4.14-.013.012-3.121-.384 2.143-2.856-27.251-3.333.332-2.761 27.248 3.333-.327 2.75.332-2.75-1.403-3.29 3.123.382.013-.012zM583.06 80.547l-.015.012-1.556 4.94-3.07.674 1.075-3.406-.6-2.72h-.001l-.005.002.606 2.718-26.8 5.907-.601-2.716.015-.01 26.781-5.905-2.409-2.632.013-.011 3.072-.679zM470.55-57.646l-3.141-.152 1.928-3.005-27.418-1.329.13-2.778 27.414 1.328-.124 2.769.129-2.77-1.638-3.178 3.141.152.014-.012 2.372 4.609-2.794 4.357zM612.28 112.948l2.963-1.048 3.935 3.37-.015.012-.942 5.092-2.965 1.047.651-3.513-.927-2.626-.005.004.932 2.622-25.874 9.139-.927-2.624.011-.011 25.86-9.133-2.712-2.32zM399.973-171.529l-3 4.215-.016.011-3.131-.306 2.074-2.91-27.324-2.662.265-2.77 27.32 2.664-.261 2.759.264-2.758-1.48-3.257 3.128.306.015-.01zM507.598-22.056l-3.143.103 1.678-3.153-.095-2.779-.001-.003-.002.003.098 2.779-27.431.906-.096-2.78.013-.008 27.414-.907-1.887-3.025 3.143-.106.015-.012 2.738 4.4-2.43 4.57zM324.043-278.548l-3.141-.11 1.889-3.033-27.433-.975.094-2.78 27.428.976-.09 2.77.096-2.77-1.68-3.157 3.143.11.013-.01 2.434 4.576-2.74 4.393zM436.678-135.456l-2.828 4.335-.015.012-3.14-.175 1.954-2.993-27.408-1.531.149-2.78 27.403 1.532-.144 2.768.149-2.768-1.613-3.19 3.138.175.015-.01zM515.294 47.583l.013-.01 27.281-2.83-2.094-2.889.015-.01 3.127-.324 3.04 4.197-.013.01-2.105 4.73-3.13.325 1.456-3.264-.29-2.767v-.002l-.004.002.294 2.767-27.299 2.832zM360.656-241.74l-3.143-.117 1.894-3.027-27.43-1.017.1-2.78 27.425 1.017-.094 2.769.1-2.77-1.676-3.16 3.143.117.015-.012 2.424 4.582-2.743 4.389zM612.174 76.088l2.956-1.07 3.96 3.339-.016.012-.904 5.1-2.954 1.07.624-3.52-.947-2.617-.001-.002-.005.003.953 2.615-25.805 9.34-.948-2.617.015-.01 25.787-9.334-2.73-2.3zM647.798 111.748l2.801-1.426 4.34 2.832-.015.008-.273 5.175-2.8 1.425.188-3.57-1.26-2.48-.004.001 1.264 2.478-24.46 12.44-1.261-2.48.015-.01 24.443-12.431-2.992-1.95zM515.268 11.132l.015-.012 27.203-3.477-2.161-2.838.013-.01 3.12-.399 3.14 4.122-.015.012-1.993 4.779-3.118.398 1.375-3.298-.354-2.757-.002-.004-.005.004.36 2.757-27.222 3.48zM469.4-101.035l-1.795-3.095 3.143-.003.015-.01 2.599 4.482-2.573 4.491-.015.01-3.144.007 1.778-3.102-27.45.04-.008-2.782 27.444-.038.014 2.77zM579.184 2.651l3.635 3.69-1.368 4.996-3.042.792.945-3.447-.702-2.691-.002-.002-.003.004.707 2.69-26.557 6.918-.704-2.693.015-.01 26.539-6.912-2.505-2.542.013-.009 3.042-.794zM552.083 49.385l.013-.011 26.686-6.314-2.446-2.599.013-.008 3.059-.724 3.554 3.771-.014.01-1.483 4.962-3.057.727 1.021-3.426-.642-2.708v-.002l-.005.004.647 2.706-26.703 6.32zM397.543-214.151l.015-.01 2.497 4.542-2.68 4.43-.012.01-3.145-.066 1.847-3.059-27.442-.594.056-2.782 27.44.596-.054 2.77.058-2.77-1.722-3.135zM618.963 41.331l-.015.012-.83 5.111-2.94 1.113.574-3.528-.987-2.602v-.002l-.003.004.99 2.6-25.666 9.715-.985-2.602.015-.01 25.646-9.708L612 39.17l.013-.01 2.94-1.112zM505.933-65.207l-2.011-2.958 3.136-.23.012-.011 2.915 4.286-2.246 4.666-.015.008-3.135.232 1.55-3.22-27.371 2.009-.208-2.774 27.366-2.008.212 2.766zM434.046-177.836l.013-.01 2.639 4.46-2.535 4.514-.015.01-3.143.033 1.75-3.115-27.448.281-.031-2.78 27.441-.282.038 2.771-.033-2.77-1.82-3.079zM647.686 74.9l2.792-1.446 4.36 2.796-.015.012-.233 5.175-2.793 1.446.164-3.571-1.281-2.473-.003.003 1.284 2.47-24.371 12.62-1.28-2.474.014-.01 24.356-12.61-3.008-1.928zM515.26-25.22l.015-.01 27.08-4.32-2.246-2.77 3.105-.496 3.265 4.024-1.844 4.84-3.107.495 1.274-3.338-.44-2.748-.001-.001-.005.001.446 2.748-27.1 4.322zM359.386-285.642l-1.949-3 3.14-.162.013-.01 2.824 4.345-2.343 4.617-.015.01-3.141.162 1.62-3.183-27.412 1.426-.147-2.775 27.405-1.43.152 2.768zM473.308-137.415l.015-.011-2.319 4.63-.013.01-3.14.183 1.602-3.196-27.403 1.588-.164-2.777 27.395-1.588.17 2.77-.164-2.77-1.964-2.987 3.138-.182zM575.908-33.65l3.019-.88-.015.01 3.743 3.582-1.223 5.034-3.017.881.844-3.475-.78-2.67-.002-.002-.003.004.785 2.668-26.342 7.695-.78-2.672.013-.01 26.324-7.686-2.581-2.468zM690.43 111.154l-.013.011.403 5.165-2.592 1.78-.278-3.565-1.571-2.296-.005.003 1.576 2.293-22.626 15.53-1.574-2.292.014-.01 22.615-15.524-3.224-1.543.013-.01 2.594-1.78zM395.997-248.949l-1.97-2.985 3.138-.186 2.854 4.326.013-.01-2.312 4.633-.015.012-3.138.183 1.597-3.195-27.4 1.62-.167-2.778 27.393-1.62.174 2.768zM611.8 2.176L614.718 1l-.015.01 4.077 3.198-.722 5.129-2.917 1.174.5-3.54-1.04-2.58h-.002l-.005.002 1.046 2.579-25.453 10.259-1.039-2.583.013-.01 25.435-10.25-2.81-2.202zM509.875-101.71l.014-.01-2.026 4.766-.015.01-3.119.377 1.397-3.287-27.248 3.292-.335-2.762 27.242-3.292.34 2.754-.336-2.754-2.145-2.862.013-.01.005.009 3.102-.374zM436.628-211.405l.011-.01-2.204 4.685-.015.01-3.133.258 1.522-3.233-27.354 2.247-.231-2.771 27.35-2.25.235 2.764-.228-2.764-2.04-2.937.015-.012.007.008 3.113-.256zM647.516 37.995l2.773-1.482 4.397 2.735-.015.011-.163 5.18-2.772 1.483.114-3.573-1.313-2.455v-.001l-.004.003 1.317 2.453-24.193 12.954-1.312-2.455.013-.008 24.177-12.947-3.034-1.888zM546.34-66.23l.013-.01-1.66 4.907-.014.01-3.082.613 1.145-3.386-26.917 5.348-.545-2.73 26.913-5.346.547 2.722-.543-2.722-2.357-2.69.013-.01.007.008 3.065-.61zM690.317 74.267l-.014.01.44 5.162-2.579 1.797-.302-3.562-1.588-2.284-.007.003 1.595 2.281-22.518 15.69-1.588-2.286.014-.01 22.502-15.68-3.234-1.52.015-.011 2.58-1.797zM473.205-175.285l.015-.01-2.025 4.765-.015.01-3.12.377 1.397-3.287-27.246 3.299-.337-2.761 27.24-3.3.343 2.754-.337-2.754-2.147-2.86.013-.01.007.008 3.1-.375zM399.876-286.054l.015-.011-1.91 4.813-.015.01-3.112.454 1.32-3.322-27.161 3.947-.402-2.754 27.156-3.945.408 2.744-.402-2.744-2.216-2.81.015-.009.003.008 3.094-.45zM611.53-34.867l2.882-1.256-.015.01 4.166 3.082-.58 5.15-2.882 1.253.4-3.551-1.113-2.551h-.001v.002l1.114 2.549-25.158 10.962-1.11-2.551.013-.012 25.14-10.953-2.871-2.123zM720.75 107.703l4.92 1.61-.015.01 1.076 5.07-2.323 2.09v.002l-.015.01-.74-3.498-1.86-2.07-.003.004 1.863 2.066-20.39 18.35.001.002-.014.01-1.86-2.07 20.399-18.36.005-.002-3.396-1.111 2.336-2.103zM509.727-139.417l.013-.01-1.768 4.868-.015.01-3.095.543 1.22-3.358-27.03 4.742-.483-2.737 27.025-4.746.486 2.732-.481-2.732-2.297-2.741.015-.01.006.007 3.076-.541zM650.016-.487l4.45 2.648-.058 5.177-2.74 1.542.04-3.575-1.362-2.428-.005.003 1.367 2.425-23.926 13.44-1.36-2.426.011-.01 23.912-13.432-3.069-1.824.013-.012 2.74-1.54zM436.468-249.52l.015-.01-1.84 4.84-.013.011-3.106.498 1.27-3.341-27.099 4.344-.442-2.748 27.093-4.342.447 2.74-.44-2.742-2.256-2.774.012-.011.007.008 3.085-.496zM546.152-103.774l.015-.011-1.44 4.973-.014.012-3.054.75.995-3.433L516-94.943l-.662-2.7 26.646-6.541.667 2.694-.662-2.696-2.474-2.582.013-.008.005.005 3.036-.745zM685.433 35.144l4.712 2.146-.015.01.508 5.156-2.542 1.82-.013.01-.35-3.559-1.618-2.261-.005.003 1.623 2.258-22.297 15.976-.013.01-1.618-2.263.015-.012 18.965-13.589 3.325-2.38.005-.003-3.254-1.48 2.557-1.832zM473.02-213.247l.014-.01-1.695 4.893-.014.01-3.09.59 1.172-3.377-26.957 5.151-.522-2.733 26.95-5.149.527 2.725-.522-2.725-2.337-2.708.015-.01.005.007 3.069-.587zM582.445-68.326l-1.04 5.066.012-.001-.014.01-2.985.989.72-3.502-26.049 8.636-.876-2.641.015-.01.002.005 26.028-8.628.879 2.633-.874-2.635-2.67-2.379.013-.01.005.004 2.966-.983zM720.615 70.862l4.931 1.575-.013.011 1.107 5.062-2.31 2.107.002.002-.015.01-.763-3.494-1.871-2.056-.002.003 1.873 2.053-20.268 18.485.002.002-.014.011-1.872-2.057L721.68 74.08l.003-.004-3.404-1.086 2.322-2.12zM509.509-177.219l.013-.012-1.477 4.966-.013.008-3.057.728 1.017-3.424-26.698 6.34-.645-2.707 26.694-6.34.648 2.699-.643-2.701-2.454-2.599.015-.01.005.005 3.039-.723zM649.685-37.562l4.52 2.53.077 5.18-2.7 1.613-.053-3.576-1.424-2.39-.004.003 1.428 2.387-23.564 14.068-1.425-2.39.015-.012 23.548-14.056-3.118-1.744.015-.01 2.7-1.613zM405.377-281.577l26.648-6.535.668 2.695-.663-2.697-2.472-2.582.013-.011.007.006 3.032-.743 3.584 3.742.014-.01-1.441 4.974-.015.01-3.052.75.994-3.433-26.654 6.536zM741.347 132.443l-.015.011-2.112-1.81 17.82-20.874.006-.005-3.512-.655 2.041-2.394.015-.01 5.088.951-.015.01 1.728 4.888-2.029 2.377.002.005-.015.01-1.193-3.373-2.109-1.808-.003.005 2.112 1.803-17.812 20.867zM545.907-141.417l.013-.011-1.186 5.043-.014.008-3.01.905.82-3.48-26.287 7.883-.801-2.663.015-.011.001.006 26.265-7.878.805 2.658-.799-2.66-2.602-2.453.013-.01.005.005 2.994-.898zM442.06-244.493l26.498-7.11.727 2.679-.72-2.68-2.528-2.529.015-.01.003.005 3.019-.81 3.66 3.665.015-.01-1.332 5.006-.013.008-3.037.815.92-3.452-26.506 7.111zM582.177-105.812l-.826 5.11.015-.005-.015.01-2.94 1.115.57-3.53-25.657 9.728-.989-2.602.015-.01.002.005 25.64-9.72.988 2.595-.982-2.597-2.77-2.264.016-.01.003.003 2.921-1.108zM508.82-253.063l-.795 5.12-.015.01-2.933 1.131.55-3.532-25.601 9.879-1.002-2.595.015-.012.002.005 25.58-9.87 1.005 2.588-1-2.59-2.781-2.248.013-.011.005.004 2.917-1.124 4.027 3.255zM720.407 33.972l4.951 1.515-.015.01 1.172 5.048-2.284 2.136.002.003-.014.008-.81-3.483-1.893-2.033-.005.003 1.899 2.03-20.035 18.738.002.001-.013.012-1.897-2.036 20.042-18.747.005-.001v-.002l-3.417-1.044 2.297-2.147zM509.209-215.104l.011-.01-1.15 5.05-.015.012-3.005.923.796-3.486-26.231 8.06-.818-2.657 26.226-8.06.821 2.652-.816-2.655-2.617-2.436.014-.01.004.005 2.986-.918zM618.29-70.363l-.405 5.164-2.838 1.353.28-3.563-24.77 11.812-1.197-2.51.015-.012.001.003 24.75-11.802 1.2 2.504-1.197-2.508-2.943-2.026.015-.012.003.002 2.819-1.343zM649.282-74.69l4.598 2.381.245 5.177-2.646 1.7-.167-3.574-1.503-2.342-.005.003 1.508 2.34-23.096 14.824-1.502-2.343.015-.008 23.078-14.816-3.173-1.644.015-.008 2.646-1.7zM741.375 95.704l-.015.012-2.124-1.796 17.688-20.99.005-.003v-.002l-3.516-.632 2.03-2.403.012-.01 5.095.916-.015.012 1.757 4.875-2.015 2.39.002.005-.012.01-1.214-3.366-2.12-1.793-.005.005 2.125 1.788-17.682 20.98zM545.586-179.146l.015-.01-.901 5.101-.013.01-2.957 1.072.623-3.52-25.796 9.358-.95-2.616.013-.011.001.005 25.777-9.35.954 2.61-.947-2.611-2.737-2.303.015-.01.004.004 2.938-1.067zM684.808-38.85l-.013.01 4.802 1.935.737 5.127-2.472 1.944-.507-3.538-1.717-2.19-.005.001 1.721 2.189-21.568 16.946v.002l-.013.008-1.717-2.188 21.577-16.957.005-.003-3.315-1.332.013-.011.34-.268 2.119-1.666zM472.336-289.376l.015-.01-.942 5.095-.011.01-2.963 1.047.648-3.513-25.87 9.157-.928-2.625 25.864-9.154.932 2.617-.927-2.62-2.717-2.323.014-.011.005.005 2.944-1.044zM795.469 106.23l2.351 4.62-1.7 2.622.003.007-.015.011-1.622-3.189-2.327-1.512-.002.003 2.329 1.509-14.939 23.042-2.331-1.517 14.936-23.037.004-.003h-.002l-3.564-.19 1.71-2.64.015-.01 5.167.274zM581.845-143.384l-.58 5.142.015-.005-.015.012-2.882 1.255.401-3.553-25.16 10.952-1.11-2.55.013-.01.001.003 25.141-10.944 1.114 2.544-1.107-2.547-2.876-2.127.014-.01.003.002 2.865-1.248zM508.31-291.059l-.415 5.164-.015.012-2.839 1.347.286-3.564-24.793 11.763-1.192-2.514.015-.01v.001l24.774-11.752 1.195 2.51-1.19-2.512-2.942-2.033.015-.011.004.003 2.822-1.34 4.26 2.948zM685.144-1.817l.015-.01-.014.01 4.751 2.053.607 5.148-2.506 1.867v.002l-.014.01-.417-3.552-1.662-2.231-.005.003 1.667 2.228-21.986 16.4v.001l-.015.01-1.66-2.233 21.994-16.406.005-.003-3.28-1.416.013-.012 1.457-1.086zM720.123-2.962l-.011.011 4.974 1.421 1.264 5.027-2.246 2.179.002.001-.014.01-.87-3.468L721.288.22l-.005.005 1.939 1.994-19.69 19.103.002.002-.013.01-1.935-2L721.282.224l.005-.004V.22l-3.436-.983 2.257-2.188zM617.954-107.784l-.197 5.174.015-.007-.015.009-2.78 1.469.135-3.575-24.275 12.8-1.297-2.463.013-.01.002.001 24.256-12.788 1.3 2.458-1.296-2.46-3.023-1.907.015-.011.003.002 2.765-1.458zM544.69-254.808l-.241 5.175-.012.01-2.792 1.443.165-3.572-24.38 12.597-1.278-2.472.015-.01v.002l24.36-12.586 1.283 2.468-1.278-2.471-3.005-1.932.014-.012.004.003 2.773-1.434 4.359 2.8zM628.547-90.572l-.015.01-1.59-2.285.015-.01 22.492-15.684 1.593 2.28zM741.471 59.008l-.014.012-2.145-1.77 17.437-21.201.004-.005h-.001l-3.522-.589 1.998-2.432.013-.01 5.105.859-.013.01 1.816 4.855-1.986 2.413.001.005-.013.01-1.254-3.351-2.142-1.768-.003.004 2.145 1.764-17.429 21.19zM515.84-205.712l.015-.01.001.003 25.15-10.927 1.11 2.547-1.11-2.549-2.87-2.129.015-.011.005.003 2.864-1.246 4.161 3.085.015-.008-.585 5.146-.015.01-2.884 1.254.405-3.552-25.168 10.936zM684.382-75.917l-.013.01 4.86 1.785.892 5.103-2.398 2.008v.002l-.013.011-.615-3.523-1.784-2.136-.004.004 1.788 2.132-21.032 17.606-.015.012-1.783-2.135 21.042-17.615.004-.004v-.001l-3.355-1.23 2.411-2.019zM795.333 69.384l2.38 4.605-1.686 2.633.004.007-.014.01-1.64-3.178-2.335-1.499-.004.005 2.338 1.494-14.79 23.117.006.003-.015.012-2.34-1.504 14.796-23.125.005-.003-.001-.002-3.568-.169 1.695-2.65.015-.01 5.17.244zM552.75-168.214l.014-.012.002.004 24.516-12.284 1.249 2.483-1.244-2.485-2.983-1.97.015-.01.002.002 2.792-1.4 4.321 2.856-.302 5.169.015-.007-.015.008-2.81 1.41.21-3.57-24.535 12.294zM703.76-15.258l-.015.011-1.981-1.953 19.233-19.579.005-.005H721l-3.457-.9 2.205-2.24.013-.012-.012.011 5.006 1.302 1.384 4.996-2.19 2.23v.003l-.014.01-.954-3.448-1.98-1.95-.003.005 1.983 1.945-19.223 19.572zM617.546-145.282l.04 5.18.014-.009-.015.01-2.71 1.593-.026-3.575-23.664 13.899-1.41-2.397.016-.012.001.002 23.644-13.89 1.411 2.397-1.406-2.399-3.107-1.766.015-.012.002.002 2.693-1.585zM741.638 22.349l-.015.012-2.177-1.734L756.511-.875l.004-.003-.002-.002-3.531-.53 1.955-2.464.014-.008-.008.01 5.111.767 1.902 4.822-1.943 2.45.002.005-.015.01-1.31-3.329-2.172-1.73-.003.005 2.174 1.725-17.056 21.494z"/>
            <path d="M653.484-109.66l.443 5.165-2.565 1.786-.015.01-.306-3.561-1.586-2.285-3.235-1.52.013-.01h.001l2.563-1.79zM666.408-89.362l-.015.012-1.859-2.07 20.385-18.373.005-.004-3.4-1.106 2.34-2.106.012-.01-.013.012 4.921 1.604 1.078 5.068-2.322 2.093v.003l-.015.01-.744-3.5-1.855-2.066-.005.003 1.86 2.063zM795.122 32.485l2.43 4.58-1.654 2.65.004.007-.014.01-1.678-3.16-2.352-1.473-.003.005 2.355 1.469-14.524 23.287.005.003-.015.012-2.355-1.48 14.53-23.294.004-.004h-.002l-3.57-.127 1.666-2.67.014-.01 5.172.184zM580.94-213.56l.015-.008-.015.011-2.724 1.572v-3.575l-23.765 13.721-1.39-2.41.015-.01v.002l23.746-13.713 1.393 2.407-1.388-2.408-3.094-1.79.012-.012.003.002 2.707-1.563 4.481 2.595zM704.052-51.801l-.013.01L702-53.685l18.647-20.138.003-.003-3.483-.799 2.136-2.306.015-.01-.01.01 5.042 1.155 1.53 4.95-2.123 2.295.001.003-.015.012-1.056-3.42-2.035-1.888-.004.001 2.04 1.888-18.639 20.13zM617.363-177.67l.014-.01-.014.01-2.625 1.73-.212-3.57-22.916 15.099-1.53-2.326.014-.01v.002l22.899-15.086 1.533 2.321-1.528-2.324-3.193-1.606.015-.01 2.612-1.719 4.624 2.326zM833.032 109.308l-1.342 2.825.005.006-.012.012-2.026-2.948-2.501-1.196-.004.007 2.505 1.19-11.793 24.805-2.509-1.198 11.79-24.8.006-.005-.004-.002-3.56.28 1.354-2.842.013-.01 5.156-.404-.011.01zM544.193-287.512l.015-.008-.015.01-2.682 1.639-.09-3.575-23.418 14.31-1.45-2.375.016-.008 23.397-14.299 1.454 2.372-1.449-2.373-3.136-1.714.015-.01 2.668-1.63 4.545 2.483zM628.92-126.904l-1.688-2.211.013-.012 21.787-16.657 1.69 2.208-1.687-2.211-3.297-1.378 2.497-1.909 4.777 1.997.668 5.139.015-.01-2.499 1.91-.013.009-.461-3.545-14.45 11.05zM794.831-4.463L797.34.073l-1.611 2.68.005.006-.015.01-1.73-3.131-2.375-1.433-.003.007 2.378 1.426-14.134 23.528.005.004-.012.011-2.382-1.437 14.138-23.535.007-.005-.004-.002-3.569-.066 1.62-2.696.014-.01 5.173.097zM580.675-251.32l.013-.01-.013.01-2.618 1.743-.23-3.57-22.838 15.218-1.542-2.316.015-.011v.001l22.822-15.204 1.544 2.312-1.54-2.314-3.201-1.59.013-.01 2.601-1.733 4.64 2.302zM617.076-215.306l.015-.01-2.525 1.874-.013.01-.412-3.551-22.016 16.36-.013.01-1.656-2.234 22.023-16.368 1.662 2.23-1.657-2.233-3.28-1.423 2.526-1.874 4.75 2.061zM832.919 72.46l-1.325 2.83.005.008-.014.011-2.042-2.937-2.509-1.181-.001.005 2.51 1.176L817.9 97.233l.008.004-.014.01-2.515-1.183 11.646-24.872.005-.003-.002-.002-3.56.303 1.336-2.852.013-.008 5.156-.435-.015.01zM653.376-179.447l.014-.01-2.4 2.03-.014.01-.633-3.52-20.946 17.712-.015.011-1.792-2.129 20.954-17.719 1.798 2.124-1.793-2.125-3.361-1.215 2.4-2.03 4.869 1.76zM868.056 107.957l-.961 2.978.008.008-.015.011-2.393-2.658-2.634-.855-.001.003 2.635.852-8.44 26.145-2.643-.858 8.438-26.142.005-.002h-.002l-3.493.745.968-2.998.015-.01 5.058-1.078-.015.012zM759.702-40.148l2.01 4.777-1.886 2.493.001.003-.013.012-1.386-3.297-2.211-1.679-.004.005 2.215 1.674-16.56 21.881.005.003-.015.009-2.216-1.68 16.568-21.89.005-.003h-.002l-3.544-.45 1.9-2.508.012-.008-.008.008zM667.318-162.17l-.015.01-2.034-1.896 18.675-20.113 2.039 1.891-18.668 20.106zM580.323-289.136l.015-.01-1.676 1.29-.83.638-.47-3.543-14.904 11.48-6.84 5.27-1.696-2.207 21.74-16.746 1.7 2.202-1.696-2.205-3.301-1.367 2.488-1.917 4.786 1.978zM688.26-148.738l1.289 5.02-2.233 2.187.002.003-.015.01-.887-3.464-1.944-1.988-.005.005 1.949 1.983-19.594 19.203.002.003-.012.01-1.944-1.988 19.598-19.215.005-.003-3.442-.964 2.245-2.2.015-.01-.011.01zM616.715-252.998l.015-.012-2.405 2.026-.015.012-.626-3.52-20.971 17.683-.014.008-1.79-2.129 20.979-17.688 1.796 2.124-1.791-2.128-3.36-1.22 2.405-2.026 4.864 1.767zM832.748 35.553l-1.294 2.847.005.006-.013.01-2.074-2.913-2.522-1.152-.002.004 2.524 1.148L818 60.493l.008.003-.015.01-2.526-1.157 11.372-24.997.005-.005h-.002l-3.556.341 1.302-2.865.015-.01 5.151-.493-.013.012zM723.869-112.986l1.7 4.897-2.042 2.365.001.005-.015.01-1.173-3.378-2.099-1.818-.003.004 2.102 1.814-17.923 20.771.002.003-.013.01-2.104-1.82 17.933-20.78.005-.003-.002-.002-3.506-.673 2.054-2.38.013-.012-.01.011zM653.006-217.017l.013-.01-2.288 2.157-.014.012-.82-3.479-19.958 18.82-.015.01-1.905-2.027 19.967-18.828 1.91 2.024-1.907-2.027-3.42-1.032 2.287-2.157 4.955 1.494zM867.939 71.12l-.944 2.98.007.01-.014.01-2.407-2.644-2.64-.84-.003.004 2.643.836-8.297 26.193-2.646-.845 8.29-26.187.007-.003-.005-.002-3.487.764.95-2.999.015-.011 5.054-1.107-.013.01zM759.27-77.24l2.144 4.72-1.814 2.543.001.007-.015.008-1.475-3.255-2.257-1.616-.004.005 2.26 1.61-15.937 22.342.005.001-.014.01-2.262-1.617 15.943-22.35.005-.003-.001-.001-3.557-.348 1.828-2.56.015-.012-.008.012zM902.913 106.821l-.562 3.077.012.01-.015.01-2.718-2.32-2.723-.502-.002.005 2.725.498-4.943 27.032-2.733-.505 4.94-27.027.006-.005-.005-.001-3.363 1.197.567-3.095.015-.011 4.871-1.734-.013.012z"/>
            <path d="M689.173-181.164l-2.127 2.291.002.003-.015.01-1.05-3.419-2.035-1.895-3.482-.8 2.139-2.305 5.045 1.161zM797.068-36.975l-1.55 2.714.003.008-.013.009-1.8-3.092-2.402-1.38-.003.006 2.406 1.374-13.614 23.833.007.003-.013.012-2.411-1.385 13.618-23.84.007-.006-.004-.001-3.57.013 1.558-2.731.014-.012-.006.012 5.167-.017zM616.27-290.736l.014-.01-2.265 2.18-.015.01-.858-3.468-19.76 19.026-.013.01-1.927-2.007 19.768-19.034 1.93 2.001-1.925-2.006-3.43-.994 2.264-2.18 4.972 1.44zM832.517-1.405l-1.25 2.865.006.008-.014.01-2.12-2.88-2.536-1.111-.004.006 2.54 1.105-10.967 25.17.008.003-.013.012-2.548-1.117L826.59-2.512l.007-.003-.005-.002-3.546.397 1.254-2.884.015-.01 5.14-.574-.013.01zM723.302-150.237l1.894 4.825-1.943 2.445.003.005-.015.01-1.309-3.328-2.17-1.732-.003.003 2.173 1.729-17.078 21.476.003.001-.015.01-2.173-1.733 17.087-21.484.003-.004-.001-.001-3.53-.533 1.956-2.461.015-.012-.01.012zM652.557-254.631l.015-.01-2.156 2.287-.015.01-1.023-3.422-18.817 19.962-.013.012-2.022-1.913 18.826-19.972 2.024 1.908-2.02-1.913-3.476-.827 2.157-2.287 5.037 1.2zM867.756 34.233l-.914 2.993.009.008-.014.011-2.434-2.618-2.647-.814-.002.005 2.65.809-8.017 26.264.012.004-.015.01-2.657-.814 8.016-26.276.005-.004h-.003l-3.477.801.917-3.01.013-.012 5.042-1.16-.013.012zM758.758-114.374l2.302 4.643-1.73 2.605.003.007-.013.01-1.587-3.206-2.312-1.538-.003.003 2.315 1.535-15.183 22.862.005.003-.013.012-2.313-1.543 15.186-22.872.003-.003v-.002l-3.564-.228 1.74-2.62.015-.01-.009.01zM902.794 69.994l-.547 3.08.01.009-.013.011-2.732-2.307-2.725-.485v.003l2.725.482-4.797 27.06-2.737-.49 4.796-27.053.005-.004h-.004l-3.356 1.213.549-3.098.015-.012 4.863-1.758-.013.008zM688.73-218.658l.013-.01-2.018 2.413-.015.01-1.223-3.354-17.598 21.045-.015.012-2.13-1.79 17.607-21.055 2.135 1.783-2.13-1.788-3.518-.62 2.017-2.412 5.096.898zM796.739-74.077l-1.48 2.754.006.008-.012.01-1.882-3.042-2.442-1.313-.002.003 2.444 1.31-12.964 24.195.007.004-.015.01-2.447-1.317L790.92-75.66l.004-.003h-.002l-3.57.107 1.49-2.774.013-.01-.005.01 5.162-.155zM928.7 105.456l-.011.008-.157 3.146 3.177-1.63h.005l-.005.004-1.355 27.449 2.775.14 1.353-27.452 3.001 1.944.013-.012-.013-.006.155-3.128-4.349-2.814.015-.012-4.604 2.363zm3.022 1.53v-.005l2.76.14-2.76-.135zM832.223-38.415l-1.186 2.894.005.008-.013.011-2.182-2.835-2.56-1.058-.001.005 2.561 1.053-10.432 25.393.007.003-.013.012-2.57-1.06 10.437-25.405.007-.005-.005-.001-3.538.473 1.195-2.91.014-.012 5.13-.681-.015.01zM722.652-187.521l2.11 4.734-1.834 2.533.003.005-.015.01-1.455-3.267-2.245-1.633-.003.005 2.248 1.628-16.096 22.225.005.001-.014.012-2.251-1.636 16.103-22.233.005-.004-.001-.001-3.552-.372 1.844-2.548.015-.011-.008.011zM652.028-292.281l.015-.012-2.01 2.422-.014.01-1.236-3.35-17.515 21.115-.015.01-2.138-1.78 17.524-21.127 2.142 1.777-2.138-1.78-3.52-.605 2.008-2.42 5.1.878zM867.513-2.692l-.866 3.004.008.008-.013.011-2.476-2.58-2.66-.77-.002.004 2.662.766-7.61 26.387.01.003-.014.012-2.667-.778 7.61-26.393.004-.005h-.005l-3.463.853.872-3.023.013-.012 5.022-1.237-.013.01zM758.162-151.542l2.477 4.552-1.626 2.67.004.005-.015.011-1.709-3.14-2.366-1.451-.004.006 2.37 1.444-14.292 23.431.006.003-.014.009-2.37-1.451 14.295-23.44.005-.004-.001-.002-3.57-.09 1.638-2.687.013-.008-.005.008zM902.605 33.132l-.516 3.085.012.008-.013.01-2.755-2.276-2.73-.46-.001.005 2.731.455-4.523 27.106-2.74-.463 4.52-27.1.007-.005h-.005l-3.343 1.249.517-3.105.015-.011 4.847-1.81-.015.012zM688.207-256.19l.015-.01-1.878 2.522-.015.01-1.41-3.28-16.383 22.01-.014.01-2.229-1.664 16.393-22.02 2.23 1.66-2.227-1.665-3.546-.42 1.875-2.523 5.141.61zM796.345-111.229l-1.388 2.8.005.009-.013.01-1.977-2.98-2.483-1.235-.002.005 2.485 1.23-12.182 24.6.009.004-.015.01-2.49-1.237 12.186-24.61.005-.004-.003-.001-3.563.223 1.397-2.82.013-.01-.005.008 5.156-.32zM928.575 68.684l-.015.01-.139 3.146 3.17-1.646h.005l-.005.005-1.213 27.456 2.774.125 1.215-27.458 3.01 1.927.012-.012-.013-.006.139-3.128-4.364-2.793.015-.008-4.59 2.382zm3.03 1.515v-.003l2.762.126-2.763-.123zM721.911-224.826l2.343 4.624-1.703 2.62.003.007-.015.01-1.618-3.191-2.321-1.519-.004.005 2.325 1.514-14.97 23 .006.004-.015.011-2.327-1.523 14.976-23.01.005-.002-.003-.002-3.564-.195 1.717-2.635.013-.012-.007.012zM831.868-75.468l-1.114 2.925.009.006-.015.01-2.252-2.775-2.587-.991-.001.005 2.588.986-9.772 25.659.01.003-.014.01-2.595-.993 9.773-25.669.005-.003-.003-.002-3.525.564 1.12-2.94.013-.01-.003.008 5.098-.816zM867.204-39.662l-.804 3.022.008.01-.013.012-2.529-2.53-2.673-.719-.002.005 2.675.713-7.074 26.537.012.002-.015.01-2.684-.718 7.076-26.547.005-.003h-.003l-3.447.924.81-3.04.014-.012 4.996-1.34-.015.01zM760.152-184.29l-1.512 2.737.005.007-.015.01-1.84-3.065-2.427-1.345-.003.005 2.43 1.34-13.267 24.03.005.003-.011.01-2.433-1.347 13.27-24.04.006-.003-.003-.001-3.57.062 1.52-2.752.016-.012-.007.012 5.166-.093zM902.352-3.767l-.468 3.095.011.009-.014.01-2.79-2.239-2.733-.418-.002.007 2.735.411-4.12 27.173-2.746-.42 4.12-27.166.006-.005-.006-.002-3.323 1.3.47-3.113.014-.01 4.819-1.882-.014.01zM687.603-293.748l.015-.012-1.722 2.633-.013.01-1.608-3.187-15.014 22.968-.014.01-2.326-1.526 15.024-22.979 2.327 1.522-2.324-1.527-3.564-.203 1.72-2.632 5.167.294zM795.887-148.421l-1.283 2.852.005.006-.015.012-2.085-2.906-2.523-1.142-.004.005 2.527 1.137-11.265 25.035.008.003-.014.01-2.532-1.144 11.268-25.044.007-.003-.005-.002-3.553.354 1.292-2.87.013-.01-.003.008 5.138-.51zM928.382 31.929l-.015.01-.11 3.15 3.152-1.678h.008l-.008.003-.942 27.466 2.776.1.946-27.47 3.027 1.898.013-.01-.013-.009.109-3.127-4.39-2.751.013-.009-4.566 2.427zm3.042 1.487v-.005l2.765.1-2.765-.095zM721.08-262.137l2.59 4.49-1.56 2.709.003.006-.013.012-1.787-3.1-2.4-1.39-.004.005 2.404 1.385-13.702 23.783.007.003-.015.01-2.406-1.392 13.705-23.792.005-.003-.001-.002-3.57-.001 1.569-2.725.014-.011-.006.011zM830.426-109.603l.006.008-.013.01-2.338-2.706-2.614-.91-.004.005 2.618.905-8.976 25.95.01.003-.015.01-2.623-.913 8.978-25.958.005-.003-.005-.002-3.505.672 1.03-2.975.013-.01-.002.009 5.068-.973 3.388 3.922zM866.83-76.663l-.73 3.042.008.01-.013.01-2.59-2.467-2.69-.65-.002.005 2.692.645-6.407 26.708.01.002-.013.01-2.7-.654 6.41-26.714.003-.004-.003-.001-3.424 1.01.735-3.06.012-.01 4.962-1.463-.013.01zM759.592-221.623l-1.378 2.805.005.009-.013.011-1.988-2.975-2.486-1.226-.003.003 2.489 1.223-12.101 24.64.006.003-.013.01-2.493-1.23L753.723-223h.004l-.001-.002-3.563.234 1.387-2.825.014-.01-.005.01 5.153-.337zM902.034-40.692l-.408 3.101.011.008-.015.012-2.832-2.183-2.74-.364-.001.005 2.741.359-3.588 27.235.014.002-.015.011-2.753-.369 3.589-27.24.005-.005h-.005l-3.3 1.363.411-3.121.015-.01 4.78-1.977-.014.012zM795.359-185.646l-1.163 2.901.006.008-.015.012-2.206-2.817-2.57-1.036v.005l2.57 1.03-10.215 25.486.008.003-.013.01-2.58-1.04 10.223-25.492.003-.003-.003-.002-3.533.501 1.17-2.92.014-.01-.003.01 5.111-.725zM928.12-4.808l-.013.01-.065 3.15 3.13-1.724h.005l-.005.006-.552 27.475 2.775.062.552-27.482 3.057 1.854.015-.01-.015-.01.063-3.13-4.43-2.684.014-.01-4.53 2.493zm3.064 1.442v-.006l2.763.06-2.763-.054zM723.005-295.112l-1.4 2.796.006.008-.015.012-1.965-2.99-2.477-1.245-.002.005 2.479 1.24-12.288 24.548.008.003-.013.01-2.483-1.249 12.29-24.555.006-.005-.004-.002-3.562.208 1.406-2.813.015-.01-.007.01 5.157-.301zM830.042-146.693l.008.009-.015.01-2.432-2.62-2.644-.818-.002.005 2.646.812-8.05 26.255.01.003-.015.01-2.652-.819 8.051-26.264.007-.005h-.005l-3.479.797.92-3.009.016-.011-.002.008 5.03-1.151 3.525 3.798zM866.388-113.695l-.64 3.062.01.008-.013.01-2.662-2.388-2.708-.57v.006l2.708.564-5.614 26.888.01.003-.011.01-2.718-.574 5.613-26.893.005-.005h-.005l-3.39 1.112.642-3.08.015-.012 4.916-1.611-.013.01zM758.956-258.978l-1.23 2.874.007.008-.014.011-2.14-2.866-2.545-1.095-.002.005 2.547 1.09-10.8 25.24.009.004-.015.011-2.553-1.098 10.804-25.25.005-.004h-.003l-3.545.419 1.238-2.893.013-.01-.003.008 5.126-.607zM901.648-77.645l-.335 3.111.013.008-.015.012-2.884-2.114-2.748-.298v.004l2.748.294-2.931 27.316.013.002-.013.01-2.763-.301 2.933-27.321.007-.005h-.007l-3.267 1.442.336-3.131.015-.01 4.732-2.09-.013.009zM793.73-219.942l.006.008-.015.012-2.33-2.713-2.614-.915-.002.005 2.616.91-9.034 25.93.008.003-.013.012-2.623-.921 9.036-25.937.007-.005-.005-.002-3.508.665 1.036-2.972.015-.009-.004.007 5.072-.96 3.379 3.93zM936.742-41.492l-.005 3.13.015.008-.015.01-3.088-1.796-2.765-.009v.007l2.765.002-.038 27.49-2.775-.009.033-27.483.009-.007h-.009l-3.093 1.783.003-3.15.015-.01 4.485-2.58-.015.012zM829.603-183.806l.008.01-.013.01-2.535-2.523-2.674-.71-.002.005 2.676.705-6.995 26.557.01.003-.012.01-2.685-.713 6.995-26.565.006-.003-.005-.002-3.445.936.801-3.043.015-.012-.001.007 4.98-1.352 3.67 3.654zM865.342-147.668l.012.008-.015.01-2.74-2.294-2.725-.477-.002.003 2.727.474-4.693 27.064.013.002-.015.01-2.736-.478 4.695-27.073.005-.004-.005-.001-3.353 1.229.537-3.103.015-.01v.005l4.845-1.773 3.97 3.326zM757.175-293.403l.006.008-.013.01-2.298-2.741-2.601-.948-.002.005 2.603.943-9.358 25.814.01.004-.015.011-2.611-.953 9.363-25.822.005-.004-.005-.001-3.517.62 1.076-2.96.013-.01-.002.01 5.083-.897 3.329 3.971zM901.193-114.618l-.245 3.12.01.008-.011.01-2.945-2.03-2.755-.218v.003l2.755.215-2.148 27.391h.011l-.011.01-2.77-.222 2.152-27.395.003-.004h-.003l-3.226 1.535.25-3.14.013-.007 4.67-2.227-.015.012zM793.201-257.156l.01.008-.015.012-2.463-2.59-2.656-.785-.002.005 2.658.78-7.72 26.353.01.003-.012.01-2.666-.786 7.72-26.362.007-.004-.005-.002-3.47.842.884-3.022.013-.01-.001.008 5.017-1.214 3.57 3.753zM936.655-78.291l.003 3.13.015.006-.015.011-3.093-1.788H930.8v.005l2.765-.005.034 27.479h.015l-.015.01h-2.776l-.038-27.484.009-.005h-.009l-3.09 1.788-.003-3.147.015-.01 4.478-2.59-.015.01zM829.105-220.936l.01.008-.013.011-2.645-2.408-2.7-.59-.002.006 2.702.584-5.807 26.847.011.001-.015.01-2.716-.594 5.813-26.851.007-.004-.007-.001-3.4 1.087.667-3.076.013-.01-.001.006 4.914-1.572 3.832 3.489zM864.882-184.72l.012.007-.015.012-2.826-2.188-2.741-.373v.007l2.741.366-3.647 27.227.013.001-.015.012-2.753-.374 3.647-27.234.007-.005-.007-.001-3.301 1.358.418-3.122.015-.01-.002.005 4.77-1.96 4.099 3.17zM900.669-151.605l-.14 3.126.012.009-.015.01-3.007-1.93-2.761-.131v.006l2.76.124-1.247 27.447h.015l-.015.01-2.774-.13 1.246-27.452.008-.005h-.007l-3.17 1.64.143-3.144.013-.012 4.596-2.377-.015.012zM784.616-299.489l.002-.006-.015.01-.719 3.063 3.42-1.029.004.002-.006.005-6.277 26.746 2.706.64.014-.01-.013-.004 6.275-26.737 2.602 2.451.015-.01-.01-.008.714-3.047-3.77-3.551-4.942 1.485zm2.697 2.048l.002-.007 2.692.639-2.694-.632zM936.606-115.077l.005 3.13.014.007-.014.012-3.096-1.79h-2.763v.007l2.763-.007.036 27.479h.015l-.015.01h-2.776l-.036-27.482.008-.007h-.008l-3.09 1.79-.006-3.15.015-.011 4.477-2.59-.013.01zM828.55-258.076l.012.008-.015.01-2.758-2.274-2.726-.46v.006l2.726.454-4.5 27.098.012.001-.013.009-2.742-.459 4.503-27.106.007-.003-.007-.002-3.343 1.252.516-3.104.015-.01-.002.003 4.832-1.806 3.997 3.296zM864.364-221.782l.013.008-.014.01-2.92-2.064-2.753-.255v.007l2.753.248-2.477 27.36.013.002-.015.01-2.766-.254 2.48-27.368.005-.005-.003-.002-3.242 1.499.284-3.136.013-.01v.003l4.681-2.162 4.23 2.993zM900.078-188.6l-.026 3.131.013.007-.013.011-3.077-1.82-2.763-.026v.007l2.763.02-.227 27.478h.013l-.013.009-2.778-.027.227-27.48.008-.007h-.008l-3.105 1.76.023-3.15.015-.01 4.503-2.546-.015.01zM819.392-299.349v-.005l-.015.012-.35 3.128 3.273-1.428h.005l-.006.007-3.074 27.306 2.761.315.015-.012-.013-.002 3.072-27.296 2.872 2.127.015-.011-.012-.01.349-3.11-4.164-3.082-4.728 2.061zm2.92 1.716v-.007l2.748.316-2.748-.31zM936.558-151.863l.003 3.13.015.007-.015.012-3.093-1.79h-2.765v.007l2.765-.007.035 27.479h.015l-.015.01h-2.777l-.038-27.482.009-.007h-.009l-3.09 1.79-.003-3.15.013-.011 4.48-2.59-.015.01zM863.788-258.847l.013.008-.015.01-3.01-1.926-2.762-.124v.005l2.762.12-1.195 27.448h.015l-.015.012-2.776-.124 1.194-27.456.007-.005-.007-.001-3.166 1.649.137-3.146.015-.012v.005l4.574-2.38 4.366 2.789zM899.89-225.435l.002 3.13.015.008-.015.01-3.093-1.789h-2.765v.007l2.765-.007.035 27.479h.013l-.013.008h-2.777l-.038-27.48.009-.007h-.009l-3.088 1.789-.005-3.148.015-.012 4.476-2.59-.014.01zM936.508-188.65l.005 3.13.013.008-.013.01-3.095-1.788h-2.765v.007l2.765-.007.036 27.479h.015l-.015.01h-2.777l-.035-27.482.006-.007h-.006l-3.09 1.788-.005-3.147.015-.012 4.476-2.59-.013.01zM858.734-301.598l-4.462 2.582v-.002l-.015.008.005 3.152 3.088-1.79h.009l-.009.005.037 27.483h2.78l.01-.01h-.01l-.039-27.478 3.095 1.79.012-.012-.012-.007-.005-3.133-4.484-2.588zm-1.369 3.95h2.763l-2.763.005v-.005zM899.844-259.091l.015.008-.015.01-3.095-1.788h-2.763v.006l2.763-.006.036 27.478h.015l-.015.008h-2.778l-.036-27.48.007-.006h-.007l-3.09 1.788-.005-3.15.015-.01v.002l4.465-2.58 4.483 2.588zM936.461-225.435l.004 3.13.014.008-.014.01-3.094-1.789h-2.764v.007l2.764-.007.035 27.479h.013l-.013.008h-2.776l-.038-27.48.008-.007h-.008l-3.09 1.789-.004-3.148.013-.012 4.479-2.59-.015.01zM895.306-301.598l-4.462 2.582v-.002l-.015.008.005 3.152 3.089-1.79h.008l-.008.005.036 27.483h2.78l.011-.01h-.011l-.038-27.478 3.093 1.79.013-.012-.013-.007-.003-3.133-4.485-2.588zm-1.368 3.95h2.763l-2.763.005v-.005zM936.416-259.091l.013.008-.013.01-3.095-1.788h-2.765v.006l2.765-.006.036 27.478h.015l-.015.008h-2.777l-.037-27.48.007-.006h-.007l-3.09 1.788-.005-3.15.015-.01v.002l4.463-2.58 4.485 2.588zM931.878-301.598l-4.463 2.582v-.002l-.013.008.003 3.152 3.09-1.79h.008l-.008.005.037 27.483h2.776l.015-.01h-.015l-.037-27.478 3.097 1.79.012-.012-.012-.007-.005-3.133-4.485-2.588zm-1.368 3.95h2.761l-2.761.005v-.005z"/>
        </g>
    </g>
</svg>
