<svg xmlns="http://www.w3.org/2000/svg" xmlns:xlink="http://www.w3.org/1999/xlink" width="339" height="182" viewBox="0 0 339 182">
    <defs>
        <path id="a" d="M0 0h339v182H0z"/>
        <path id="c" d="M.06.265h137.65v152.526H.06z"/>
        <path id="e" d="M0 .186h137.65v152.526H0z"/>
    </defs>
    <g fill="none" fill-rule="evenodd">
        <mask id="b" fill="#fff">
            <use xlink:href="#a"/>
        </mask>
        <use fill="#FF2C54" xlink:href="#a"/>
        <g mask="url(#b)">
            <g transform="translate(236.55 -15.395)">
                <mask id="d" fill="#fff">
                    <use xlink:href="#c"/>
                </mask>
                <path fill="#FFF" d="M134.619.265c0 38.31-13.606 74.497-38.312 101.894-24.04 26.66-55.997 42.136-90.225 43.767l3.588-3.703-4.45.068-5.16 5.33 5.32 5.17 4.449-.068-3.803-3.694c35.134-1.618 67.929-17.463 92.576-44.794C123.82 76.267 137.71 39.344 137.71.265h-3.091z" mask="url(#d)"/>
            </g>
            <path fill="#FFF" d="M10.256 107.608c-20.463-14.256-36.942-34.153-47.775-57.652l4.84 1.912-1.774-4.088-6.895-2.722-2.717 6.909 1.774 4.088 1.923-4.894c11.064 24.04 27.917 44.4 48.86 58.99 22.184 15.454 47.922 23.623 74.43 23.623h96.329v-3.097H82.92c-25.873 0-51-7.977-72.665-23.07"/>
            <g transform="translate(-54.728 -167.842)">
                <mask id="f" fill="#fff">
                    <use xlink:href="#e"/>
                </mask>
                <path fill="#FFF" d="M131.628 7.05l-3.588 3.704 4.45-.068 5.16-5.33-5.32-5.17-4.45.068 3.804 3.694C96.55 5.566 63.755 21.41 39.108 48.742 13.89 76.71 0 113.633 0 152.712h3.091c0-38.31 13.606-74.497 38.312-101.893 24.04-26.66 55.996-42.137 90.225-43.768" mask="url(#f)"/>
            </g>
            <path fill="#FFF" d="M308.067-138.7c20.16 13.718 36.6 32.94 47.664 55.698l-4.875-1.813 1.856 4.052 6.949 2.583 2.578-6.962-1.856-4.052-1.825 4.934c-11.302-23.287-28.118-42.96-48.754-57.002-21.894-14.898-47.204-22.772-73.195-22.772H134.061v3.097H236.61c25.369 0 50.079 7.69 71.458 22.237"/>
            <path fill="#FFF" d="M46.296-138.627l-4.077 1.788-2.698 6.915 6.902 2.705 4.077-1.789-4.86-1.901a105.706 105.706 0 0 1 39.915-7.787h148.421v-3.097H85.555c-14.189 0-28.025 2.71-41.167 8.052l1.908-4.886zM1.605 78.585l7.412.025.025-7.425-3.136-3.163-.016 5.236C-4.56 62.203-12.846 49.296-18.75 34.848-25.193 19.077-28.46 2.262-28.46-15.13c0-31.94 11.207-62.246 31.557-85.335l-2.318-2.05C-20.07-78.86-31.55-47.825-31.55-15.13c0 17.796 3.344 35.006 9.941 51.152C-15.552 50.848-7.04 64.096 3.696 75.44l-5.227-.02 3.136 3.164zM224.285 104.733l3.697 3.702H85.555c-10.633 0-21.16-1.585-31.288-4.71l-.91 2.96a109.079 109.079 0 0 0 32.198 4.847h142.427l-3.697 3.702h4.45l5.24-5.25-5.24-5.251h-4.45zM333.109 52.333c11.758-20.173 17.974-43.501 17.974-67.463 0-22.043-5.315-43.75-15.37-62.774-9.374-17.736-22.682-32.869-38.577-43.903l5.187-1.129-3.743-2.41-7.243 1.578 1.576 7.256 3.743 2.41-1.093-5.028c15.406 10.741 28.312 25.446 37.418 42.675 9.82 18.58 15.01 39.786 15.01 61.325 0 23.414-6.07 46.202-17.552 65.9-11.166 19.156-26.937 34.62-45.608 44.722l1.47 2.725c19.17-10.372 35.356-26.238 46.808-45.884"/>
            <path fill="#FFF" d="M236.725-123.108l-5.382 5.105 5.095 5.392 4.449.122-3.554-3.758c23.257 1.593 44.906 12.42 61.198 30.676 16.95 18.993 26.284 44.01 26.284 70.44h3.091c0-27.193-9.614-52.942-27.07-72.504-16.883-18.918-39.352-30.12-63.496-31.717l3.833-3.634-4.448-.122zM43.313-107.615C30.7-100.445 19.561-90.18 10.973-77.84L9.85-83.032l-2.408 3.749 1.572 7.256 7.243-1.574 2.408-3.75-5.023 1.094c8.307-11.877 19.047-21.757 31.197-28.664 13.271-7.545 28.26-11.533 43.35-11.533h88.16v-3.097h-88.16c-15.623 0-31.14 4.127-44.876 11.936M82.806 92.847l5.382-5.105-5.096-5.392-4.448-.122 3.554 3.759C58.94 84.394 37.292 73.566 21 55.31 4.05 36.317-5.284 11.3-5.284-15.13h-3.092c0 27.193 9.615 52.943 27.072 72.504 16.882 18.918 39.35 30.12 63.495 31.718l-3.833 3.634 4.448.121zM274.526 78.293c12.145-6.576 23.048-16.04 31.668-27.455l.874 5.178 2.577-3.635-1.238-7.321-7.307 1.24-2.577 3.634 5.138-.873c-8.344 11.022-18.88 20.158-30.605 26.508-13.02 7.05-27.053 10.624-41.713 10.624h-83.186v3.098h83.186c15.179 0 29.707-3.7 43.183-10.998"/>
            <path fill="#FFF" d="M37.14 48.407l7.404-.359-.359-7.417-3.295-2.996.25 5.118C26.336 27.806 17.891 6.864 17.891-15.13c0-43.605 32.716-79.081 72.93-79.081v-3.098c-20.33 0-39.434 8.564-53.797 24.113C22.694-57.68 14.801-37.059 14.801-15.13c0 22.916 8.85 44.745 24.358 60.285l-5.314.256 3.296 2.996zM219.019 70.751h4.45l5.24-5.25-5.24-5.251h-4.45l3.697 3.702H90.821v3.097h131.895zM146.274-97.31l3.697-3.702h-4.45l-5.24 5.25 5.24 5.252h4.45l-3.697-3.703h82.435c40.213 0 72.93 35.476 72.93 79.083 0 24.293-10.082 46.894-27.661 62.005l2.013 2.35c18.264-15.7 28.738-39.157 28.738-64.355 0-21.929-7.892-42.55-22.224-58.067-14.362-15.55-33.467-24.113-53.796-24.113h-82.435z"/>
            <path fill="#FFF" d="M93.454-71.971h132.622v-3.097H93.454c-28.58 0-52.416 23.522-55.2 53.972L34.6-25.004l-.145 4.456 5.068 5.418 5.409-5.078.144-4.455-3.712 3.487c2.794-28.687 25.226-50.795 52.09-50.795M93.454 44.808h132.622c28.58 0 52.417-23.523 55.202-53.972l3.653 3.908.145-4.456-5.069-5.418-5.408 5.077-.144 4.456 3.712-3.487c-2.794 28.687-25.226 50.794-52.09 50.794H93.453v3.098z"/>
            <path fill="#FFF" d="M168.697 22.566l-3.698 3.702h4.45l5.241-5.25-5.24-5.251H165l3.697 3.702h-72.61c-17.557 0-31.842-15.522-31.842-34.6 0-19.077 14.285-34.598 31.842-34.598v-3.097c-19.262 0-34.933 16.91-34.933 37.696 0 20.785 15.671 37.696 34.933 37.696h72.61zM223.443 19.469v3.097c19.263 0 34.934-16.91 34.934-37.696 0-20.786-15.671-37.696-34.934-37.696h-70.95l3.697-3.702h-4.45l-5.241 5.25 5.24 5.25h4.45l-3.697-3.701h70.951c17.558 0 31.842 15.52 31.842 34.599 0 19.077-14.284 34.599-31.842 34.599"/>
            <path fill="#FFF" d="M220.81-2.773h-66.02V.325h66.02c7.935 0 14.39-6.933 14.39-15.455s-6.455-15.455-14.39-15.455H98.72c-7.934 0-14.39 6.933-14.39 15.455S90.786.325 98.72.325h9.033l-3.697 3.701h4.45l5.241-5.25-5.24-5.25h-4.45l3.697 3.701H98.72c-6.23 0-11.3-5.543-11.3-12.357 0-6.814 5.07-12.358 11.3-12.358h122.09c6.23 0 11.298 5.544 11.298 12.358 0 6.814-5.069 12.357-11.299 12.357"/>
        </g>
    </g>
</svg>
