<svg xmlns="http://www.w3.org/2000/svg" xmlns:xlink="http://www.w3.org/1999/xlink" width="339" height="182" viewBox="0 0 339 182">
    <defs>
        <path id="a" d="M0 0h339v182H0z"/>
        <path id="c" d="M.385.342h51.198v36.523H.385z"/>
        <path id="e" d="M.385.352h51.198v36.524H.385z"/>
        <path id="g" d="M.385.053h51.198v36.523H.385z"/>
        <path id="i" d="M.385.2h51.198v36.523H.385z"/>
        <path id="k" d="M.385.346h51.198V36.87H.385z"/>
        <path id="m" d="M.385.057h51.198v36.524H.385z"/>
        <path id="o" d="M.385.204h51.198v36.524H.385z"/>
        <path id="q" d="M.385.351h51.198v36.524H.385z"/>
        <path id="s" d="M.385.062h51.198v36.524H.385z"/>
        <path id="u" d="M.385.209h51.198v36.524H.385z"/>
        <path id="w" d="M.385.356h51.198V36.88H.385z"/>
        <path id="y" d="M.385.067h51.198v36.524H.385z"/>
        <path id="A" d="M.26.35h49.452v35.943H.26z"/>
        <path id="C" d="M.26.36h49.452v35.944H.26z"/>
        <path id="E" d="M.26.06h49.452v35.944H.26z"/>
        <path id="G" d="M.26.207h49.452v35.944H.26z"/>
        <path id="I" d="M.26.354h49.452v35.944H.26z"/>
        <path id="K" d="M.26.065h49.452V36.01H.26z"/>
        <path id="M" d="M.26.212h49.452v35.944H.26z"/>
        <path id="O" d="M.26.359h49.452v35.944H.26z"/>
        <path id="Q" d="M.26.07h49.452v35.944H.26z"/>
        <path id="S" d="M.26.217h49.452V36.16H.26z"/>
        <path id="U" d="M.26.363h49.452v35.944H.26z"/>
        <path id="W" d="M.26.074h49.452v35.944H.26z"/>
        <path id="Y" d="M.4.1h96.544v21.363H.4z"/>
        <path id="aa" d="M.385.254h51.198v30.795H.385z"/>
        <path id="ac" d="M.338.093h96.544v.455H.338z"/>
        <path id="ae" d="M.234.352h96.544v20.24H.234z"/>
        <path id="ag" d="M.166.335H96.71v21.564H.166z"/>
        <path id="ai" d="M.062.398h96.544v5.379H.062z"/>
        <path id="ak" d="M.385.265h51.198v36.524H.385z"/>
        <path id="am" d="M.385.4h51.198v9.298H.385z"/>
        <path id="ao" d="M.13.177h96.544V22.77H.13z"/>
        <path id="aq" d="M.13.324h96.544v1.095H.13z"/>
        <path id="as" d="M.26.261h49.452v35.944H.26z"/>
        <path id="au" d="M.26.272h49.452v35.944H.26z"/>
        <path id="aw" d="M.296.185H96.84v23.02H.296z"/>
        <path id="ay" d="M.26.408h49.452v35.944H.26z"/>
        <path id="aA" d="M.296.332H96.84v1.523H.296z"/>
        <path id="aC" d="M.192.146h96.544v17.831H.192z"/>
        <path id="aE" d="M.093.2h96.545v16.47H.093z"/>
        <path id="aG" d="M.025.162H96.57v21.737H.025z"/>
        <path id="aI" d="M.26.12h49.452v19.6H.26z"/>
        <path id="aK" d="M.025.31H96.57v.238H.025z"/>
        <path id="aM" d="M.031.172h96.545V10.57H.03z"/>
        <path id="aO" d="M.364.128h96.544v7.827H.364z"/>
    </defs>
    <g fill="none" fill-rule="evenodd">
        <mask id="b" fill="#fff">
            <use xlink:href="#a"/>
        </mask>
        <use fill="#5AE6FF" xlink:href="#a"/>
        <g mask="url(#b)">
            <path fill="#FFF" d="M-273.742 152.863c-.765 1.254-1.53 2.506-2.296 3.757-.93-.089-1.86-.18-2.79-.273l1.585-2.582h-.005c-31.013-3.022-62.025-9.012-93.038-18.832v-2.46c31.014 9.82 62.029 15.81 93.043 18.831l-1.584-2.895c.93.093 1.86.185 2.79.273.765 1.395 1.53 2.79 2.295 4.181M-169.519 152.431c-.765 1.39-1.53 2.778-2.296 4.165-.93.078-1.86.154-2.79.228l1.585-2.867a.02.02 0 0 0-.005 0c-31.013 2.546-62.025 3.09-93.038.77v-2.46c31.014 2.32 62.029 1.776 93.043-.77l-1.585-2.61c.93-.075 1.86-.151 2.79-.229l2.296 3.773M-65.186 137.15a10243.4 10243.4 0 0 1-2.296 4.413c-.93.18-1.86.358-2.79.535.529-1.013 1.057-2.027 1.585-3.042l-.005.001c-31.013 5.95-62.025 10.867-93.038 13.886v-2.46c31.014-3.02 62.029-7.936 93.043-13.887l-1.585-2.436c.93-.177 1.86-.356 2.79-.535l2.296 3.525M39.037 114.335l-2.295 4.5c-.93.217-1.86.432-2.79.647l1.584-3.105h-.005c-31.013 7.186-62.026 14.304-93.038 20.49v-2.46c31.014-6.187 62.029-13.305 93.043-20.491l-1.585-2.372 2.79-.646 2.296 3.437"/>
            <g transform="translate(-377.437 101.124)">
                <mask id="d" fill="#fff">
                    <use xlink:href="#c"/>
                </mask>
                <path fill="#FFF" d="M51.583 33.373c-.765 1.166-1.53 2.33-2.296 3.492-.93-.196-1.86-.395-2.79-.596l1.585-2.398-.005-.001C17.064 27.253-13.948 17.184-44.961 2.802V.342c31.014 14.383 62.029 24.451 93.043 31.068l-1.585-3.08c.93.202 1.86.401 2.79.597.766 1.484 1.53 2.966 2.296 4.446" mask="url(#d)"/>
            </g>
            <path fill="#FFF" d="M-221.63 144.206c-.766 1.329-1.53 2.656-2.296 3.981-.93.003-1.86.004-2.79.002l1.585-2.738h-.006c-31.012.032-62.025-2.42-93.038-8.22v-2.46c31.015 5.8 62.03 8.252 93.044 8.22l-1.585-2.74c.93.001 1.86.001 2.79-.002.765 1.32 1.53 2.64 2.296 3.957M-117.297 135.434l-2.296 4.31c-.93.137-1.86.272-2.79.406.528-.99 1.057-1.979 1.584-2.969l-.004.001c-31.013 4.521-62.026 7.525-93.038 8.148v-2.46c31.014-.623 62.028-3.627 93.042-8.149l-1.584-2.51c.93-.133 1.86-.269 2.79-.405.765 1.21 1.53 2.42 2.296 3.628M-13.075 115.482l-2.295 4.477-2.79.615 1.584-3.088-.005.001c-31.012 6.839-62.025 13.127-93.038 18v-2.46c31.015-4.874 62.03-11.162 93.043-18.001l-1.584-2.39 2.79-.615 2.295 3.46M91.148 91.623l-2.295 4.485-2.79.629 1.584-3.097-.004.002c-31.013 6.991-62.026 14.398-93.039 21.356v-2.46c31.015-6.96 62.03-14.366 93.043-21.358a7492.47 7492.47 0 0 0-1.584-2.381l2.79-.63 2.295 3.454M-273.742 131.088c-.765 1.254-1.53 2.506-2.296 3.756-.93-.088-1.86-.18-2.79-.273l1.585-2.582h-.005c-31.013-3.022-62.025-9.011-93.038-18.832v-2.46c31.014 9.82 62.029 15.81 93.043 18.832l-1.584-2.896c.93.094 1.86.185 2.79.273l2.295 4.182M-169.519 130.655l-2.296 4.166-2.79.228 1.585-2.868h-.005c-31.013 2.547-62.025 3.09-93.038.77v-2.46c31.014 2.32 62.029 1.776 93.043-.77l-1.585-2.61c.93-.075 1.86-.15 2.79-.229.766 1.26 1.53 2.517 2.296 3.773M-65.186 115.374a20466.6 20466.6 0 0 1-2.296 4.414c-.93.18-1.86.357-2.79.535l1.585-3.042h-.005c-31.013 5.952-62.025 10.867-93.038 13.887v-2.46c31.014-3.02 62.029-7.937 93.043-13.888l-1.585-2.435 2.79-.535 2.296 3.524M39.037 92.56l-2.295 4.5-2.79.646 1.584-3.105h-.005c-31.013 7.187-62.026 14.304-93.038 20.491v-2.46c31.014-6.187 62.029-13.306 93.043-20.492l-1.585-2.371 2.79-.647 2.296 3.437"/>
            <g transform="translate(-377.437 79.337)">
                <mask id="f" fill="#fff">
                    <use xlink:href="#e"/>
                </mask>
                <path fill="#FFF" d="M51.583 33.384c-.765 1.166-1.53 2.33-2.296 3.492-.93-.196-1.86-.395-2.79-.596l1.585-2.398-.005-.001C17.064 27.264-13.948 17.195-44.961 2.813V.353c31.014 14.383 62.029 24.451 93.043 31.069l-1.585-3.08c.93.202 1.86.4 2.79.596.766 1.484 1.53 2.966 2.296 4.446" mask="url(#f)"/>
            </g>
            <path fill="#FFF" d="M-221.63 122.43c-.766 1.329-1.53 2.656-2.296 3.981-.93.003-1.86.004-2.79.002l1.585-2.738h-.006c-31.012.033-62.025-2.42-93.038-8.219v-2.46c31.015 5.8 62.03 8.252 93.044 8.219l-1.585-2.74c.93.002 1.86.001 2.79-.001.765 1.32 1.53 2.64 2.296 3.957M-117.297 113.659l-2.296 4.31-2.79.406 1.584-2.97-.004.002c-31.013 4.52-62.026 7.524-93.038 8.148v-2.46c31.014-.624 62.028-3.628 93.042-8.15l-1.584-2.509c.93-.133 1.86-.269 2.79-.406l2.296 3.629M-13.075 93.706l-2.295 4.477-2.79.616 1.584-3.089-.005.002c-31.012 6.839-62.025 13.126-93.038 18v-2.46c31.015-4.875 62.03-11.163 93.043-18.002l-1.584-2.39 2.79-.615 2.295 3.461M91.148 69.848l-2.295 4.484-2.79.63 1.584-3.097h-.004C56.63 78.859 25.617 86.265-5.396 93.224v-2.46c31.015-6.96 62.03-14.367 93.043-21.359l-1.584-2.38 2.79-.63 2.295 3.454M-273.742 174.361c-.765 1.254-1.53 2.506-2.296 3.757-.93-.089-1.86-.18-2.79-.273l1.585-2.582h-.005c-31.013-3.022-62.025-9.012-93.038-18.832v-2.46c31.014 9.82 62.029 15.81 93.043 18.831l-1.584-2.895c.93.093 1.86.184 2.79.272l2.295 4.182M-169.519 173.929c-.765 1.39-1.53 2.778-2.296 4.165-.93.078-1.86.154-2.79.228l1.585-2.867h-.005c-31.013 2.546-62.025 3.09-93.038.77v-2.46c31.014 2.32 62.029 1.776 93.043-.77l-1.585-2.61c.93-.075 1.86-.151 2.79-.23.766 1.26 1.53 2.517 2.296 3.774M-65.186 158.648c-.765 1.471-1.53 2.943-2.296 4.413-.93.18-1.86.358-2.79.535l1.585-3.042-.005.001c-31.013 5.95-62.025 10.867-93.038 13.886v-2.46c31.014-3.02 62.029-7.936 93.043-13.887l-1.585-2.436c.93-.177 1.86-.356 2.79-.535l2.296 3.525M39.037 135.832l-2.295 4.502-2.79.646 1.584-3.106-.005.001c-31.013 7.186-62.026 14.304-93.038 20.49v-2.46c31.014-6.187 62.029-13.305 93.043-20.491l-1.585-2.372c.93-.215 1.86-.43 2.79-.647l2.296 3.437"/>
            <g transform="translate(-377.437 122.91)">
                <mask id="h" fill="#fff">
                    <use xlink:href="#g"/>
                </mask>
                <path fill="#FFF" d="M51.583 33.084c-.765 1.166-1.53 2.33-2.296 3.492-.93-.196-1.86-.394-2.79-.596l1.585-2.398h-.005C17.064 26.963-13.948 16.895-44.961 2.512V.053c31.014 14.383 62.029 24.451 93.043 31.068l-1.585-3.08c.93.202 1.86.401 2.79.597.766 1.484 1.53 2.966 2.296 4.446" mask="url(#h)"/>
            </g>
            <path fill="#FFF" d="M-221.63 165.704c-.766 1.328-1.53 2.656-2.296 3.981-.93.003-1.86.004-2.79.002l1.585-2.739h-.006c-31.012.033-62.025-2.419-93.038-8.218v-2.46c31.015 5.799 62.03 8.25 93.044 8.218-.529-.912-1.057-1.825-1.585-2.739.93.001 1.86.001 2.79-.002.765 1.32 1.53 2.64 2.296 3.957M-117.297 156.932l-2.296 4.31c-.93.136-1.86.272-2.79.406.528-.989 1.057-1.979 1.584-2.969h-.004c-31.013 4.522-62.026 7.526-93.038 8.15v-2.461c31.014-.624 62.028-3.628 93.042-8.15l-1.584-2.509c.93-.133 1.86-.269 2.79-.406l2.296 3.63M-13.075 136.98l-2.295 4.477-2.79.615 1.584-3.088-.005.001c-31.012 6.839-62.025 13.127-93.038 18v-2.46c31.015-4.874 62.03-11.162 93.043-18.001l-1.584-2.39 2.79-.615 2.295 3.46M91.148 113.12l-2.295 4.486c-.93.209-1.86.418-2.79.629l1.584-3.097-.004.001c-31.013 6.992-62.026 14.398-93.039 21.357v-2.46c31.015-6.96 62.03-14.367 93.043-21.358a7492.47 7492.47 0 0 0-1.584-2.381l2.79-.63 2.295 3.454M-273.742 195.859c-.765 1.254-1.53 2.506-2.296 3.756-.93-.088-1.86-.179-2.79-.272.529-.86 1.057-1.72 1.585-2.583h-.005c-31.013-3.021-62.025-9.011-93.038-18.831v-2.461c31.014 9.82 62.029 15.81 93.043 18.832l-1.584-2.896c.93.094 1.86.185 2.79.273l2.295 4.182M-169.519 195.427c-.765 1.39-1.53 2.777-2.296 4.165-.93.077-1.86.154-2.79.228l1.585-2.868h-.005c-31.013 2.547-62.025 3.091-93.038.77v-2.46c31.014 2.32 62.029 1.776 93.043-.77l-1.585-2.61c.93-.075 1.86-.15 2.79-.228l2.296 3.773M-65.186 180.146a10243.4 10243.4 0 0 1-2.296 4.413c-.93.18-1.86.357-2.79.535l1.585-3.042h-.005c-31.013 5.951-62.025 10.868-93.038 13.887v-2.46c31.014-3.02 62.029-7.936 93.043-13.888l-1.585-2.435 2.79-.535 2.296 3.525M39.037 157.33l-2.295 4.501-2.79.647 1.584-3.106h-.005c-31.013 7.187-62.026 14.305-93.038 20.492v-2.461c31.014-6.187 62.029-13.306 93.043-20.492l-1.585-2.371 2.79-.647 2.296 3.437"/>
            <g transform="translate(-377.437 144.261)">
                <mask id="j" fill="#fff">
                    <use xlink:href="#i"/>
                </mask>
                <path fill="#FFF" d="M51.583 33.23c-.765 1.167-1.53 2.331-2.296 3.493-.93-.196-1.86-.395-2.79-.596l1.585-2.398-.005-.001C17.064 27.11-13.948 17.042-44.961 2.66V.2c31.014 14.382 62.029 24.452 93.043 31.068l-1.585-3.08c.93.203 1.86.401 2.79.597.766 1.484 1.53 2.966 2.296 4.446" mask="url(#j)"/>
            </g>
            <path fill="#FFF" d="M-221.63 187.202a4621.4 4621.4 0 0 1-2.296 3.98c-.93.004-1.86.004-2.79.003l1.585-2.739h-.006c-31.012.033-62.025-2.419-93.038-8.219v-2.46c31.015 5.8 62.03 8.252 93.044 8.219-.529-.912-1.057-1.825-1.585-2.74.93.002 1.86.002 2.79-.001.765 1.32 1.53 2.64 2.296 3.957M-117.297 178.43l-2.296 4.31c-.93.136-1.86.272-2.79.405.528-.988 1.057-1.978 1.584-2.968h-.004c-31.013 4.522-62.026 7.525-93.038 8.15v-2.461c31.014-.624 62.028-3.628 93.042-8.15l-1.584-2.509 2.79-.405c.765 1.21 1.53 2.42 2.296 3.628M-13.075 158.477l-2.295 4.477-2.79.616 1.584-3.088h-.005c-31.012 6.84-62.025 13.127-93.038 18v-2.46c31.015-4.874 62.03-11.162 93.043-18.001l-1.584-2.39 2.79-.614 2.295 3.46M91.148 134.619l-2.295 4.484-2.79.63 1.584-3.097-.004.001c-31.013 6.992-62.026 14.398-93.039 21.357v-2.46c31.015-6.96 62.03-14.367 93.043-21.358a7492.47 7492.47 0 0 0-1.584-2.381l2.79-.63 2.295 3.454M-273.742 217.357c-.765 1.254-1.53 2.506-2.296 3.756-.93-.088-1.86-.179-2.79-.273l1.585-2.582h-.005c-31.013-3.022-62.025-9.011-93.038-18.831v-2.461c31.014 9.82 62.029 15.81 93.043 18.832l-1.584-2.896c.93.094 1.86.185 2.79.273l2.295 4.182M-169.519 216.924c-.765 1.39-1.53 2.778-2.296 4.165-.93.078-1.86.154-2.79.229l1.585-2.868h-.005c-31.013 2.547-62.025 3.09-93.038.77v-2.46c31.014 2.32 62.029 1.776 93.043-.77l-1.585-2.61c.93-.075 1.86-.15 2.79-.229.766 1.26 1.53 2.517 2.296 3.773M-65.186 201.643a10243.4 10243.4 0 0 1-2.296 4.414c-.93.18-1.86.357-2.79.535l1.585-3.042h-.005c-31.013 5.951-62.025 10.867-93.038 13.887v-2.46c31.014-3.02 62.029-7.937 93.043-13.887l-1.585-2.436 2.79-.535 2.296 3.524M39.037 178.828l-2.295 4.501-2.79.647 1.584-3.106h-.005c-31.013 7.187-62.026 14.304-93.038 20.491v-2.46c31.014-6.188 62.029-13.306 93.043-20.492l-1.585-2.371 2.79-.647 2.296 3.437"/>
            <g transform="translate(-377.437 165.612)">
                <mask id="l" fill="#fff">
                    <use xlink:href="#k"/>
                </mask>
                <path fill="#FFF" d="M51.583 33.378c-.765 1.166-1.53 2.33-2.296 3.492-.93-.196-1.86-.395-2.79-.597l1.585-2.397-.005-.001C17.064 27.257-13.948 17.189-44.961 2.807V.347c31.014 14.382 62.029 24.451 93.043 31.068l-1.585-3.08c.93.202 1.86.401 2.79.597.766 1.484 1.53 2.966 2.296 4.446" mask="url(#l)"/>
            </g>
            <path fill="#FFF" d="M-221.63 208.7c-.766 1.328-1.53 2.655-2.296 3.98-.93.004-1.86.004-2.79.003l1.585-2.74h-.006c-31.012.034-62.025-2.418-93.038-8.218v-2.46c31.015 5.8 62.03 8.252 93.044 8.219l-1.585-2.74c.93.002 1.86.002 2.79-.002.765 1.321 1.53 2.64 2.296 3.958M-117.297 199.928l-2.296 4.31-2.79.405c.528-.988 1.057-1.978 1.584-2.968h-.004c-31.013 4.522-62.026 7.526-93.038 8.15v-2.462c31.014-.623 62.028-3.627 93.042-8.149l-1.584-2.509c.93-.134 1.86-.27 2.79-.406l2.296 3.63M-13.075 179.975l-2.295 4.477-2.79.616 1.584-3.088h-.005c-31.012 6.84-62.025 13.127-93.038 18v-2.46c31.015-4.874 62.03-11.162 93.043-18l-1.584-2.39 2.79-.616 2.295 3.461M91.148 156.116l-2.295 4.485-2.79.63 1.584-3.097-.004.001c-31.013 6.992-62.026 14.398-93.039 21.357v-2.46c31.015-6.96 62.03-14.367 93.043-21.359l-1.584-2.38 2.79-.63 2.295 3.453M-273.742 238.854c-.765 1.254-1.53 2.507-2.296 3.757-.93-.088-1.86-.18-2.79-.273l1.585-2.582h-.005c-31.013-3.022-62.025-9.011-93.038-18.832v-2.46c31.014 9.82 62.029 15.81 93.043 18.832l-1.584-2.896c.93.094 1.86.185 2.79.273.765 1.395 1.53 2.79 2.295 4.181M-169.519 238.422c-.765 1.39-1.53 2.778-2.296 4.165-.93.078-1.86.154-2.79.229l1.585-2.868h-.005c-31.013 2.546-62.025 3.09-93.038.77v-2.46c31.014 2.32 62.029 1.776 93.043-.77l-1.585-2.61c.93-.075 1.86-.15 2.79-.229.766 1.259 1.53 2.517 2.296 3.773M-65.186 223.141l-2.296 4.414-2.79.534 1.585-3.041h-.005c-31.013 5.951-62.025 10.867-93.038 13.886v-2.46c31.014-3.02 62.029-7.936 93.043-13.887l-1.585-2.435 2.79-.535 2.296 3.524M39.037 200.326l-2.295 4.501-2.79.646 1.584-3.105h-.005c-31.013 7.186-62.026 14.304-93.038 20.491v-2.46c31.014-6.188 62.029-13.306 93.043-20.492l-1.585-2.371 2.79-.647 2.296 3.437"/>
            <g transform="translate(-377.437 187.399)">
                <mask id="n" fill="#fff">
                    <use xlink:href="#m"/>
                </mask>
                <path fill="#FFF" d="M51.583 33.09c-.765 1.165-1.53 2.33-2.296 3.491-.93-.196-1.86-.395-2.79-.596l1.585-2.398-.005-.001C17.064 26.969-13.948 16.9-44.961 2.518V.058c31.014 14.383 62.029 24.451 93.043 31.068a9761.9 9761.9 0 0 1-1.585-3.08c.93.202 1.86.401 2.79.597.766 1.484 1.53 2.966 2.296 4.446" mask="url(#n)"/>
            </g>
            <path fill="#FFF" d="M-221.63 230.198c-.766 1.328-1.53 2.655-2.296 3.98-.93.004-1.86.004-2.79.003l1.585-2.74h-.006c-31.012.034-62.025-2.418-93.038-8.218v-2.46c31.015 5.8 62.03 8.252 93.044 8.218-.529-.912-1.057-1.825-1.585-2.739.93.002 1.86.001 2.79-.002.765 1.321 1.53 2.64 2.296 3.958M-117.297 221.426l-2.296 4.31-2.79.405c.528-.989 1.057-1.978 1.584-2.968h-.004c-31.013 4.522-62.026 7.525-93.038 8.149v-2.46c31.014-.624 62.028-3.628 93.042-8.15l-1.584-2.509c.93-.134 1.86-.27 2.79-.406l2.296 3.629M-13.075 201.473l-2.295 4.477-2.79.616 1.584-3.088h-.005c-31.012 6.84-62.025 13.127-93.038 18v-2.46c31.015-4.874 62.03-11.162 93.043-18.001l-1.584-2.39 2.79-.615 2.295 3.46M91.148 177.614l-2.295 4.485-2.79.629 1.584-3.096-.004.001c-31.013 6.991-62.026 14.398-93.039 21.357v-2.461c31.015-6.96 62.03-14.366 93.043-21.358l-1.584-2.38 2.79-.63 2.295 3.453M-273.742 260.353c-.765 1.253-1.53 2.505-2.296 3.756-.93-.088-1.86-.18-2.79-.273l1.585-2.582h-.005c-31.013-3.022-62.025-9.011-93.038-18.832v-2.46c31.014 9.82 62.029 15.81 93.043 18.832l-1.584-2.896c.93.093 1.86.184 2.79.272a8330.2 8330.2 0 0 0 2.295 4.183M-169.519 259.92c-.765 1.39-1.53 2.778-2.296 4.165-.93.078-1.86.154-2.79.228l1.585-2.867a.02.02 0 0 0-.005 0c-31.013 2.546-62.025 3.09-93.038.77v-2.46c31.014 2.32 62.029 1.776 93.043-.77l-1.585-2.61c.93-.075 1.86-.151 2.79-.23.766 1.26 1.53 2.518 2.296 3.774M-65.186 244.639c-.765 1.472-1.53 2.943-2.296 4.413-.93.18-1.86.358-2.79.535.529-1.013 1.057-2.027 1.585-3.042l-.005.001c-31.013 5.951-62.025 10.867-93.038 13.886v-2.46c31.014-3.02 62.029-7.936 93.043-13.887l-1.585-2.436c.93-.177 1.86-.356 2.79-.535.766 1.175 1.53 2.351 2.296 3.525M39.037 221.824l-2.295 4.5-2.79.647 1.584-3.105h-.005c-31.013 7.187-62.026 14.304-93.038 20.49v-2.46c31.014-6.187 62.029-13.305 93.043-20.491l-1.585-2.372 2.79-.646 2.296 3.437"/>
            <g transform="translate(-377.437 208.75)">
                <mask id="p" fill="#fff">
                    <use xlink:href="#o"/>
                </mask>
                <path fill="#FFF" d="M51.583 33.236c-.765 1.166-1.53 2.33-2.296 3.492-.93-.196-1.86-.395-2.79-.597l1.585-2.397-.005-.001C17.064 27.116-13.948 17.047-44.961 2.665V.205c31.014 14.382 62.029 24.451 93.043 31.068l-1.585-3.08c.93.202 1.86.401 2.79.597.766 1.484 1.53 2.966 2.296 4.446" mask="url(#p)"/>
            </g>
            <path fill="#FFF" d="M-221.63 251.695c-.766 1.329-1.53 2.656-2.296 3.981-.93.003-1.86.004-2.79.002l1.585-2.738h-.006c-31.012.033-62.025-2.42-93.038-8.22v-2.46c31.015 5.8 62.03 8.252 93.044 8.22l-1.585-2.74c.93.002 1.86.001 2.79-.002.765 1.32 1.53 2.64 2.296 3.957M-117.297 242.924a9697.58 9697.58 0 0 1-2.296 4.31l-2.79.405c.528-.989 1.057-1.978 1.584-2.968h-.004c-31.013 4.522-62.026 7.525-93.038 8.149v-2.461c31.014-.624 62.028-3.627 93.042-8.15l-1.584-2.508c.93-.134 1.86-.27 2.79-.406l2.296 3.629M-13.075 222.971l-2.295 4.477-2.79.615 1.584-3.088-.005.002c-31.012 6.838-62.025 13.126-93.038 18v-2.461c31.015-4.874 62.03-11.162 93.043-18.001l-1.584-2.39 2.79-.615 2.295 3.461M91.148 199.112l-2.295 4.485-2.79.629 1.584-3.096h-.004c-31.013 6.992-62.026 14.399-93.039 21.357v-2.46c31.015-6.96 62.03-14.366 93.043-21.358l-1.584-2.38 2.79-.63 2.295 3.453M-273.742 281.85c-.765 1.254-1.53 2.506-2.296 3.756-.93-.088-1.86-.179-2.79-.272l1.585-2.582-.005-.001c-31.013-3.02-62.025-9.01-93.038-18.831v-2.46c31.014 9.82 62.029 15.81 93.043 18.831l-1.584-2.896c.93.094 1.86.185 2.79.274.765 1.395 1.53 2.79 2.295 4.181M-169.519 281.418c-.765 1.39-1.53 2.778-2.296 4.165-.93.077-1.86.154-2.79.228l1.585-2.867a.02.02 0 0 0-.005 0c-31.013 2.546-62.025 3.09-93.038.77v-2.46c31.014 2.32 62.029 1.775 93.043-.77l-1.585-2.611c.93-.074 1.86-.15 2.79-.228l2.296 3.773M-65.186 266.137c-.765 1.472-1.53 2.943-2.296 4.413-.93.18-1.86.358-2.79.535l1.585-3.042h-.005c-31.013 5.952-62.025 10.868-93.038 13.887v-2.46c31.014-3.02 62.029-7.936 93.043-13.887l-1.585-2.436 2.79-.535 2.296 3.525M39.037 243.322l-2.295 4.5-2.79.647 1.584-3.106-.005.001c-31.013 7.186-62.026 14.304-93.038 20.49v-2.46c31.014-6.187 62.029-13.306 93.043-20.491l-1.585-2.372c.93-.215 1.86-.43 2.79-.647l2.296 3.438"/>
            <g transform="translate(-377.437 230.1)">
                <mask id="r" fill="#fff">
                    <use xlink:href="#q"/>
                </mask>
                <path fill="#FFF" d="M51.583 33.383c-.765 1.166-1.53 2.33-2.296 3.492-.93-.196-1.86-.395-2.79-.596l1.585-2.398-.005-.002C17.064 27.262-13.948 17.194-44.961 2.812V.35c31.014 14.383 62.029 24.452 93.043 31.069l-1.585-3.08c.93.203 1.86.401 2.79.597.766 1.484 1.53 2.966 2.296 4.446" mask="url(#r)"/>
            </g>
            <path fill="#FFF" d="M-221.63 273.193c-.766 1.329-1.53 2.655-2.296 3.981-.93.003-1.86.004-2.79.002l1.585-2.738h-.006c-31.012.033-62.025-2.42-93.038-8.22v-2.46c31.015 5.8 62.03 8.252 93.044 8.219-.529-.912-1.057-1.825-1.585-2.739.93.002 1.86 0 2.79-.002.765 1.32 1.53 2.64 2.296 3.957M-117.297 264.421a9697.58 9697.58 0 0 1-2.296 4.31c-.93.136-1.86.272-2.79.406.528-.99 1.057-1.979 1.584-2.969l-.004.001c-31.013 4.521-62.026 7.525-93.038 8.148v-2.46c31.014-.624 62.028-3.628 93.042-8.15l-1.584-2.508c.93-.134 1.86-.27 2.79-.406.765 1.21 1.53 2.42 2.296 3.628M-13.075 244.469l-2.295 4.476-2.79.616 1.584-3.088-.005.001c-31.012 6.839-62.025 13.127-93.038 18v-2.46c31.015-4.874 62.03-11.163 93.043-18.001l-1.584-2.39 2.79-.615 2.295 3.46zM91.148 220.61l-2.295 4.485-2.79.629 1.584-3.096h-.004c-31.013 6.992-62.026 14.398-93.039 21.357v-2.46c31.015-6.96 62.03-14.367 93.043-21.358l-1.584-2.38 2.79-.63 2.295 3.453zM-273.742 303.348a2314.69 2314.69 0 0 1-2.296 3.756c-.93-.088-1.86-.179-2.79-.273l1.585-2.581-.005-.001c-31.013-3.021-62.025-9.01-93.038-18.831v-2.46c31.014 9.82 62.029 15.81 93.043 18.831l-1.584-2.896c.93.094 1.86.185 2.79.273l2.295 4.182M-169.519 302.916c-.765 1.389-1.53 2.778-2.296 4.165-.93.077-1.86.154-2.79.228l1.585-2.867h-.005c-31.013 2.546-62.025 3.09-93.038.77v-2.46c31.014 2.32 62.029 1.775 93.043-.77l-1.585-2.611c.93-.074 1.86-.15 2.79-.228l2.296 3.773M-65.186 287.634l-2.296 4.414c-.93.18-1.86.357-2.79.535l1.585-3.042-.005.001c-31.013 5.95-62.025 10.866-93.038 13.886v-2.46c31.014-3.02 62.029-7.937 93.043-13.887l-1.585-2.436c.93-.177 1.86-.356 2.79-.535l2.296 3.524M39.037 264.82l-2.295 4.5-2.79.647 1.584-3.106-.005.001c-31.013 7.186-62.026 14.304-93.038 20.49v-2.46c31.014-6.187 62.029-13.305 93.043-20.491l-1.585-2.372 2.79-.647 2.296 3.437"/>
            <g transform="translate(-377.437 251.888)">
                <mask id="t" fill="#fff">
                    <use xlink:href="#s"/>
                </mask>
                <path fill="#FFF" d="M51.583 33.094c-.765 1.166-1.53 2.33-2.296 3.492-.93-.196-1.86-.395-2.79-.596l1.585-2.398-.005-.002C17.064 26.973-13.948 16.905-44.961 2.523V.062c31.014 14.383 62.029 24.452 93.043 31.07l-1.585-3.08c.93.202 1.86.4 2.79.596.766 1.484 1.53 2.966 2.296 4.446" mask="url(#t)"/>
            </g>
            <path fill="#FFF" d="M-221.63 294.69c-.766 1.33-1.53 2.657-2.296 3.982-.93.003-1.86.004-2.79.002l1.585-2.739h-.006c-31.012.033-62.025-2.419-93.038-8.218v-2.461c31.015 5.8 62.03 8.252 93.044 8.219-.529-.913-1.057-1.825-1.585-2.74.93.002 1.86.002 2.79-.001.765 1.32 1.53 2.64 2.296 3.957M-117.297 285.92l-2.296 4.309c-.93.136-1.86.272-2.79.406.528-.99 1.057-1.979 1.584-2.969h-.004c-31.013 4.522-62.026 7.526-93.038 8.15v-2.461c31.014-.624 62.028-3.628 93.042-8.15l-1.584-2.509c.93-.133 1.86-.269 2.79-.406l2.296 3.63M-13.075 265.966l-2.295 4.477-2.79.616 1.584-3.088-.005.001c-31.012 6.839-62.025 13.127-93.038 18v-2.46c31.015-4.874 62.03-11.162 93.043-18.002l-1.584-2.39 2.79-.614 2.295 3.46zM91.148 242.108l-2.295 4.485-2.79.629 1.584-3.097-.004.001c-31.013 6.992-62.026 14.398-93.039 21.357v-2.46c31.015-6.96 62.03-14.367 93.043-21.359l-1.584-2.38 2.79-.63 2.295 3.454zM-273.742 324.846c-.765 1.254-1.53 2.506-2.296 3.756-.93-.088-1.86-.18-2.79-.273l1.585-2.582h-.005c-31.013-3.021-62.025-9.011-93.038-18.832v-2.46c31.014 9.82 62.029 15.81 93.043 18.832l-1.584-2.896c.93.094 1.86.185 2.79.273l2.295 4.182M-169.519 324.414l-2.296 4.165c-.93.077-1.86.154-2.79.228l1.585-2.868h-.005c-31.013 2.547-62.025 3.09-93.038.77v-2.46c31.014 2.32 62.029 1.776 93.043-.77l-1.585-2.61c.93-.075 1.86-.15 2.79-.228l2.296 3.773M-65.186 309.133l-2.296 4.413-2.79.534 1.585-3.041h-.005c-31.013 5.951-62.025 10.867-93.038 13.887v-2.46c31.014-3.02 62.029-7.937 93.043-13.888l-1.585-2.435 2.79-.535 2.296 3.525M39.037 286.317l-2.295 4.501-2.79.646 1.584-3.105h-.005c-31.013 7.187-62.026 14.305-93.038 20.491v-2.46c31.014-6.187 62.029-13.306 93.043-20.492l-1.585-2.371 2.79-.647 2.296 3.437"/>
            <g transform="translate(-377.437 273.239)">
                <mask id="v" fill="#fff">
                    <use xlink:href="#u"/>
                </mask>
                <path fill="#FFF" d="M51.583 33.24c-.765 1.167-1.53 2.33-2.296 3.493-.93-.196-1.86-.395-2.79-.597l1.585-2.397-.005-.001C17.064 27.12-13.948 17.052-44.961 2.67V.209c31.014 14.383 62.029 24.452 93.043 31.069l-1.585-3.08c.93.202 1.86.401 2.79.597.766 1.484 1.53 2.966 2.296 4.446" mask="url(#v)"/>
            </g>
            <path fill="#FFF" d="M-221.63 316.19l-2.296 3.98c-.93.003-1.86.003-2.79.002l1.585-2.739h-.006c-31.012.033-62.025-2.42-93.038-8.219v-2.46c31.015 5.8 62.03 8.252 93.044 8.219-.529-.912-1.057-1.825-1.585-2.74.93.002 1.86.001 2.79-.001.765 1.32 1.53 2.64 2.296 3.957M-117.297 307.417l-2.296 4.31c-.93.136-1.86.272-2.79.405.528-.988 1.057-1.978 1.584-2.968h-.004c-31.013 4.522-62.026 7.525-93.038 8.149v-2.46c31.014-.624 62.028-3.628 93.042-8.15l-1.584-2.509c.93-.133 1.86-.269 2.79-.406l2.296 3.629M-13.075 287.464l-2.295 4.477-2.79.616 1.584-3.088h-.005c-31.012 6.84-62.025 13.127-93.038 18v-2.46c31.015-4.874 62.03-11.162 93.043-18.001l-1.584-2.39 2.79-.614 2.295 3.46M91.148 263.605l-2.295 4.485-2.79.63 1.584-3.097-.004.001c-31.013 6.992-62.026 14.398-93.039 21.357v-2.46c31.015-6.96 62.03-14.367 93.043-21.359l-1.584-2.38 2.79-.63 2.295 3.453zM-273.742 346.344c-.765 1.254-1.53 2.506-2.296 3.756-.93-.088-1.86-.18-2.79-.273l1.585-2.582h-.005c-31.013-3.022-62.025-9.011-93.038-18.831v-2.461c31.014 9.82 62.029 15.81 93.043 18.832l-1.584-2.896c.93.094 1.86.184 2.79.273l2.295 4.182M-169.519 345.911c-.765 1.39-1.53 2.778-2.296 4.165-.93.078-1.86.154-2.79.228l1.585-2.867h-.005c-31.013 2.547-62.025 3.09-93.038.77v-2.46c31.014 2.32 62.029 1.776 93.043-.77l-1.585-2.61c.93-.075 1.86-.15 2.79-.229.766 1.259 1.53 2.517 2.296 3.773M-65.186 330.63l-2.296 4.414-2.79.534 1.585-3.041h-.005c-31.013 5.951-62.025 10.867-93.038 13.887v-2.461c31.014-3.02 62.029-7.936 93.043-13.887l-1.585-2.435c.93-.178 1.86-.356 2.79-.536.766 1.176 1.53 2.351 2.296 3.525M39.037 307.815l-2.295 4.5-2.79.648 1.584-3.106h-.005c-31.013 7.187-62.026 14.304-93.038 20.49v-2.46c31.014-6.187 62.029-13.305 93.043-20.49l-1.585-2.372 2.79-.647 2.296 3.437"/>
            <g transform="translate(-377.437 294.59)">
                <mask id="x" fill="#fff">
                    <use xlink:href="#w"/>
                </mask>
                <path fill="#FFF" d="M51.583 33.387c-.765 1.167-1.53 2.33-2.296 3.493-.93-.196-1.86-.395-2.79-.597l1.585-2.398h-.005C17.064 27.266-13.948 17.198-44.961 2.816V.356c31.014 14.383 62.029 24.452 93.043 31.069l-1.585-3.08c.93.202 1.86.4 2.79.597.766 1.484 1.53 2.966 2.296 4.445" mask="url(#x)"/>
            </g>
            <path fill="#FFF" d="M-221.63 337.687c-.766 1.328-1.53 2.655-2.296 3.98-.93.003-1.86.004-2.79.002l1.585-2.738h-.006c-31.012.033-62.025-2.42-93.038-8.219v-2.46c31.015 5.8 62.03 8.251 93.044 8.219l-1.585-2.74c.93.002 1.86.001 2.79-.002.765 1.32 1.53 2.64 2.296 3.958M-117.297 328.915l-2.296 4.31-2.79.405c.528-.989 1.057-1.978 1.584-2.968h-.004c-31.013 4.522-62.026 7.525-93.038 8.149v-2.46c31.014-.624 62.028-3.628 93.042-8.15l-1.584-2.509c.93-.134 1.86-.27 2.79-.406l2.296 3.629M-13.075 308.962l-2.295 4.477-2.79.615 1.584-3.087h-.005c-31.012 6.84-62.025 13.127-93.038 18v-2.46c31.015-4.874 62.03-11.162 93.043-18.001l-1.584-2.39 2.79-.615 2.295 3.461M91.148 285.103l-2.295 4.485-2.79.63 1.584-3.097-.004.001C56.63 294.114 25.617 301.52-5.396 308.48v-2.46c31.015-6.96 62.03-14.367 93.043-21.359l-1.584-2.38 2.79-.63 2.295 3.453M-273.742 367.841c-.765 1.254-1.53 2.506-2.296 3.757-.93-.089-1.86-.18-2.79-.273l1.585-2.582h-.005c-31.013-3.022-62.025-9.011-93.038-18.832v-2.46c31.014 9.82 62.029 15.81 93.043 18.832l-1.584-2.896c.93.094 1.86.184 2.79.273.765 1.395 1.53 2.79 2.295 4.181M-169.519 367.41c-.765 1.388-1.53 2.777-2.296 4.164-.93.078-1.86.154-2.79.228l1.585-2.867h-.005c-31.013 2.546-62.025 3.09-93.038.77v-2.46c31.014 2.32 62.029 1.776 93.043-.77l-1.585-2.61c.93-.075 1.86-.151 2.79-.229l2.296 3.773M-65.186 352.128c-.765 1.472-1.53 2.943-2.296 4.413-.93.18-1.86.358-2.79.535l1.585-3.041h-.005c-31.013 5.95-62.025 10.867-93.038 13.886v-2.46c31.014-3.02 62.029-7.936 93.043-13.887l-1.585-2.435c.93-.178 1.86-.356 2.79-.536l2.296 3.525M39.037 329.313l-2.295 4.5-2.79.647 1.584-3.106-.005.001c-31.013 7.186-62.026 14.304-93.038 20.49v-2.46c31.014-6.187 62.029-13.305 93.043-20.491l-1.585-2.371 2.79-.647 2.296 3.437"/>
            <g transform="translate(-377.437 316.376)">
                <mask id="z" fill="#fff">
                    <use xlink:href="#y"/>
                </mask>
                <path fill="#FFF" d="M51.583 33.098c-.765 1.167-1.53 2.33-2.296 3.493-.93-.196-1.86-.395-2.79-.597l1.585-2.398h-.005C17.064 26.978-13.948 16.91-44.961 2.528V.068c31.014 14.382 62.029 24.45 93.043 31.068l-1.585-3.08c.93.202 1.86.4 2.79.597.766 1.484 1.53 2.966 2.296 4.445" mask="url(#z)"/>
            </g>
            <path fill="#FFF" d="M-221.63 359.185c-.766 1.328-1.53 2.655-2.296 3.98-.93.004-1.86.004-2.79.003l1.585-2.74h-.006c-31.012.034-62.025-2.418-93.038-8.218v-2.46c31.015 5.8 62.03 8.252 93.044 8.218-.529-.912-1.057-1.825-1.585-2.739.93.002 1.86.001 2.79-.002.765 1.32 1.53 2.64 2.296 3.958M-117.297 350.412c-.766 1.438-1.53 2.875-2.296 4.31-.93.137-1.86.272-2.79.406l1.584-2.968h-.004c-31.013 4.522-62.026 7.525-93.038 8.149v-2.461c31.014-.623 62.028-3.628 93.042-8.15l-1.584-2.508c.93-.134 1.86-.27 2.79-.406.765 1.21 1.53 2.42 2.296 3.628M-13.075 330.46l-2.295 4.477-2.79.615 1.584-3.087h-.005c-31.012 6.84-62.025 13.127-93.038 18v-2.46c31.015-4.874 62.03-11.162 93.043-18.001l-1.584-2.39 2.79-.615 2.295 3.46M91.148 306.601l-2.295 4.485-2.79.629 1.584-3.096-.004.001c-31.013 6.991-62.026 14.398-93.039 21.357v-2.461c31.015-6.96 62.03-14.366 93.043-21.358l-1.584-2.38 2.79-.63 2.295 3.453M143.26 91.251l-2.296 4.43c-.93.186-1.86.374-2.79.562l1.585-3.059h-.005c-31.013 6.257-62.025 13.41-93.038 20.6v-2.46c31.014-7.19 62.029-14.344 93.043-20.6l-1.585-2.419 2.79-.563 2.296 3.51M247.483 75.176c-.766 1.397-1.53 2.796-2.296 4.196-.93.093-1.86.188-2.79.285l1.584-2.902h-.004c-31.013 3.161-62.026 8.187-93.038 14.214v-2.46c31.014-6.028 62.028-11.054 93.042-14.215-.527-.859-1.056-1.717-1.584-2.575.93-.097 1.86-.192 2.79-.285l2.296 3.742M351.816 73.392l-2.296 3.803c-.93-.066-1.86-.128-2.79-.189l1.584-2.633h-.004c-31.013-2.106-62.026-1.38-93.038 1.315v-2.46c31.014-2.696 62.028-3.422 93.042-1.316-.527-.949-1.055-1.897-1.584-2.844.93.06 1.86.123 2.79.189l2.296 4.135M456.039 93.186c-.766 1.08-1.531 2.164-2.296 3.25-.93-.29-1.86-.575-2.79-.857.528-.753 1.057-1.504 1.585-2.255l-.005-.002c-31.013-9.533-62.026-15.267-93.039-18.066v-2.46c31.015 2.798 62.03 8.534 93.044 18.067a2766.75 2766.75 0 0 0-1.585-3.222c.93.282 1.86.567 2.79.856l2.296 4.69M195.372 71.134c-.766 1.443-1.53 2.887-2.296 4.332-.93.149-1.86.298-2.79.449l1.584-2.995-.005.001c-31.012 4.98-62.025 11.34-93.038 18.218v-2.46c31.015-6.88 62.03-13.24 93.043-18.219l-1.584-2.483c.93-.151 1.86-.3 2.79-.449l2.296 3.606M299.704 61.289l-2.295 4.019c-.93.022-1.86.046-2.79.072l1.584-2.782h-.004c-31.013.796-62.026 3.942-93.039 8.573V68.71c31.015-4.631 62.029-7.776 93.043-8.572l-1.584-2.696c.93-.026 1.86-.05 2.79-.072.765 1.305 1.53 2.61 2.295 3.919M403.927 69.39c-.765 1.18-1.53 2.361-2.295 3.545-.93-.168-1.86-.334-2.79-.497l1.584-2.459h-.004c-31.013-5.55-62.026-7.783-93.039-7.564v-2.46c31.015-.22 62.029 2.015 93.043 7.564a3831.08 3831.08 0 0 0-1.584-3.02c.93.163 1.86.33 2.79.498.765 1.462 1.53 2.926 2.295 4.393"/>
            <g transform="translate(411.346 69.315)">
                <mask id="B" fill="#fff">
                    <use xlink:href="#A"/>
                </mask>
                <path fill="#FFF" d="M96.804 33.38l-2.296 2.913c-.93-.425-1.86-.846-2.79-1.264.528-.676 1.057-1.35 1.585-2.024a.016.016 0 0 0-.005-.002C62.285 18.945 31.273 9.168.26 2.81V.35c31.014 6.358 62.029 16.136 93.043 30.196l-1.585-3.454c.93.418 1.86.839 2.79 1.264.766 1.672 1.53 3.347 2.296 5.025" mask="url(#B)"/>
            </g>
            <path fill="#FFF" d="M143.26 69.476l-2.296 4.429c-.93.187-1.86.374-2.79.563l1.585-3.06-.005.001c-31.013 6.256-62.025 13.41-93.038 20.6v-2.46c31.014-7.19 62.029-14.345 93.043-20.601l-1.585-2.418 2.79-.564 2.296 3.51M247.483 53.4l-2.296 4.196c-.93.093-1.86.189-2.79.286l1.584-2.902h-.004c-31.013 3.16-62.026 8.186-93.038 14.214v-2.46c31.014-6.028 62.028-11.054 93.042-14.215-.527-.86-1.056-1.718-1.584-2.576l2.79-.285 2.296 3.742M351.816 51.617l-2.296 3.802c-.93-.065-1.86-.128-2.79-.188l1.584-2.634h-.004c-31.013-2.106-62.026-1.38-93.038 1.316v-2.461c31.014-2.695 62.028-3.421 93.042-1.315-.527-.95-1.055-1.897-1.584-2.845.93.061 1.86.124 2.79.19l2.296 4.135M456.039 71.41c-.766 1.081-1.531 2.164-2.296 3.25-.93-.29-1.86-.575-2.79-.857l1.585-2.255-.005-.001c-31.013-9.533-62.026-15.268-93.039-18.067v-2.46c31.015 2.799 62.03 8.534 93.044 18.068-.528-1.075-1.056-2.15-1.585-3.223.93.282 1.86.568 2.79.857.765 1.56 1.53 3.123 2.296 4.689M195.372 49.358l-2.296 4.333c-.93.148-1.86.298-2.79.448l1.584-2.994h-.005c-31.012 4.98-62.025 11.34-93.038 18.22v-2.461c31.015-6.88 62.03-13.24 93.043-18.22a2400.9 2400.9 0 0 0-1.584-2.483c.93-.15 1.86-.3 2.79-.448l2.296 3.605M299.704 39.513a4720.7 4720.7 0 0 0-2.295 4.02c-.93.021-1.86.046-2.79.072l1.584-2.782h-.004c-31.013.796-62.026 3.941-93.039 8.572v-2.46c31.015-4.632 62.029-7.777 93.043-8.573l-1.584-2.695c.93-.027 1.86-.05 2.79-.073l2.295 3.92M403.927 47.614c-.765 1.18-1.53 2.362-2.295 3.546-.93-.169-1.86-.335-2.79-.498l1.584-2.458-.004-.001c-31.013-5.549-62.026-7.782-93.039-7.564v-2.46c31.015-.22 62.029 2.015 93.043 7.564l-1.584-3.02c.93.164 1.86.33 2.79.499l2.295 4.392"/>
            <g transform="translate(411.346 47.528)">
                <mask id="D" fill="#fff">
                    <use xlink:href="#C"/>
                </mask>
                <path fill="#FFF" d="M96.804 33.392c-.765.968-1.53 1.939-2.296 2.912-.93-.425-1.86-.846-2.79-1.264l1.585-2.024c-.002 0-.003 0-.005-.002C62.285 18.956 31.273 9.18.26 2.82V.36C31.274 6.72 62.289 16.496 93.303 30.556l-1.585-3.453c.93.417 1.86.838 2.79 1.263.766 1.673 1.53 3.348 2.296 5.026" mask="url(#D)"/>
            </g>
            <path fill="#FFF" d="M143.26 112.75l-2.296 4.428c-.93.187-1.86.374-2.79.563l1.585-3.06-.005.002c-31.013 6.255-62.025 13.41-93.038 20.6v-2.461c31.014-7.19 62.029-14.345 93.043-20.6l-1.585-2.42 2.79-.562c.766 1.169 1.53 2.339 2.296 3.51M247.483 96.674c-.766 1.397-1.53 2.796-2.296 4.196-.93.093-1.86.188-2.79.285l1.584-2.902h-.004c-31.013 3.161-62.026 8.187-93.038 14.214v-2.46c31.014-6.028 62.028-11.054 93.042-14.215-.527-.86-1.056-1.717-1.584-2.575.93-.097 1.86-.192 2.79-.285l2.296 3.742M351.816 94.89l-2.296 3.803c-.93-.066-1.86-.129-2.79-.189l1.584-2.633h-.004c-31.013-2.106-62.026-1.38-93.038 1.315v-2.46c31.014-2.696 62.028-3.422 93.042-1.316-.527-.95-1.055-1.897-1.584-2.844.93.06 1.86.123 2.79.189l2.296 4.135M456.039 114.684c-.766 1.08-1.531 2.163-2.296 3.25-.93-.29-1.86-.575-2.79-.857.528-.753 1.057-1.504 1.585-2.255l-.005-.002c-31.013-9.533-62.026-15.267-93.039-18.066v-2.461c31.015 2.8 62.03 8.534 93.044 18.068-.528-1.075-1.056-2.15-1.585-3.223.93.283 1.86.568 2.79.857.765 1.56 1.53 3.123 2.296 4.69M195.372 92.632c-.766 1.443-1.53 2.887-2.296 4.332-.93.149-1.86.298-2.79.449l1.584-2.995h-.005c-31.012 4.98-62.025 11.34-93.038 18.22v-2.46c31.015-6.88 62.03-13.241 93.043-18.22a2400.9 2400.9 0 0 0-1.584-2.483c.93-.151 1.86-.3 2.79-.449l2.296 3.606M299.704 82.786l-2.295 4.02c-.93.021-1.86.046-2.79.072a7936.7 7936.7 0 0 1 1.584-2.782h-.004c-31.013.796-62.026 3.941-93.039 8.572v-2.46c31.015-4.632 62.029-7.776 93.043-8.572l-1.584-2.696c.93-.026 1.86-.05 2.79-.073l2.295 3.92M403.927 90.887c-.765 1.18-1.53 2.362-2.295 3.546-.93-.169-1.86-.335-2.79-.498l1.584-2.458h-.004c-31.013-5.55-62.026-7.783-93.039-7.564v-2.46c31.015-.22 62.029 2.014 93.043 7.564l-1.584-3.02c.93.163 1.86.33 2.79.498l2.295 4.392"/>
            <g transform="translate(411.346 91.102)">
                <mask id="F" fill="#fff">
                    <use xlink:href="#E"/>
                </mask>
                <path fill="#FFF" d="M96.804 33.092c-.765.968-1.53 1.939-2.296 2.912-.93-.425-1.86-.846-2.79-1.264l1.585-2.024c-.002 0-.003 0-.005-.002C62.285 18.656 31.273 8.88.26 2.521V.06c31.014 6.358 62.029 16.135 93.043 30.195l-1.585-3.454c.93.418 1.86.839 2.79 1.264.766 1.673 1.53 3.348 2.296 5.026" mask="url(#F)"/>
            </g>
            <path fill="#FFF" d="M143.26 134.247l-2.296 4.429c-.93.187-1.86.374-2.79.563l1.585-3.06-.005.001c-31.013 6.256-62.025 13.41-93.038 20.6v-2.46c31.014-7.19 62.029-14.345 93.043-20.6l-1.585-2.419c.93-.189 1.86-.376 2.79-.563l2.296 3.509M247.483 118.172a7297.38 7297.38 0 0 0-2.296 4.195c-.93.094-1.86.189-2.79.286l1.584-2.902h-.004c-31.013 3.161-62.026 8.186-93.038 14.214v-2.46c31.014-6.028 62.028-11.054 93.042-14.215-.527-.86-1.056-1.718-1.584-2.575.93-.097 1.86-.192 2.79-.285l2.296 3.742M351.816 116.388l-2.296 3.803c-.93-.066-1.86-.129-2.79-.19l1.584-2.633h-.004c-31.013-2.106-62.026-1.38-93.038 1.316v-2.46c31.014-2.696 62.028-3.422 93.042-1.316-.527-.95-1.055-1.897-1.584-2.844.93.06 1.86.123 2.79.188l2.296 4.136M456.039 136.182c-.766 1.08-1.531 2.164-2.296 3.25-.93-.29-1.86-.576-2.79-.858l1.585-2.254-.005-.002c-31.013-9.533-62.026-15.267-93.039-18.067v-2.46c31.015 2.799 62.03 8.534 93.044 18.068-.528-1.075-1.056-2.15-1.585-3.223.93.283 1.86.568 2.79.857.765 1.56 1.53 3.124 2.296 4.689M195.372 114.13c-.766 1.443-1.53 2.887-2.296 4.332-.93.148-1.86.298-2.79.449l1.584-2.995-.005.001c-31.012 4.979-62.025 11.34-93.038 18.218v-2.46c31.015-6.88 62.03-13.24 93.043-18.22a2400.9 2400.9 0 0 0-1.584-2.483c.93-.15 1.86-.3 2.79-.448l2.296 3.606M299.704 104.284l-2.295 4.02c-.93.021-1.86.046-2.79.072l1.584-2.782h-.004c-31.013.796-62.026 3.94-93.039 8.572v-2.46c31.015-4.632 62.029-7.776 93.043-8.572l-1.584-2.696c.93-.026 1.86-.05 2.79-.073l2.295 3.92M403.927 112.385c-.765 1.18-1.53 2.362-2.295 3.546-.93-.169-1.86-.335-2.79-.498l1.584-2.458-.004-.001c-31.013-5.549-62.026-7.782-93.039-7.563v-2.46c31.015-.22 62.029 2.014 93.043 7.564l-1.584-3.02c.93.163 1.86.329 2.79.498l2.295 4.392"/>
            <g transform="translate(411.346 112.453)">
                <mask id="H" fill="#fff">
                    <use xlink:href="#G"/>
                </mask>
                <path fill="#FFF" d="M96.804 33.238l-2.296 2.913c-.93-.425-1.86-.846-2.79-1.264.528-.676 1.057-1.35 1.585-2.024l-.005-.002C62.285 18.803 31.273 9.026.26 2.668V.208c31.014 6.358 62.029 16.135 93.043 30.195l-1.585-3.454c.93.417 1.86.839 2.79 1.264.766 1.672 1.53 3.347 2.296 5.025" mask="url(#H)"/>
            </g>
            <path fill="#FFF" d="M143.26 155.745l-2.296 4.428-2.79.564 1.585-3.06-.005.001c-31.013 6.256-62.025 13.41-93.038 20.6v-2.461c31.014-7.19 62.029-14.344 93.043-20.6-.528-.807-1.056-1.613-1.585-2.418.93-.189 1.86-.377 2.79-.563l2.296 3.509M247.483 139.67c-.766 1.397-1.53 2.795-2.296 4.195l-2.79.285 1.584-2.902h-.004c-31.013 3.162-62.026 8.187-93.038 14.215v-2.461c31.014-6.028 62.028-11.053 93.042-14.214-.527-.86-1.056-1.718-1.584-2.576l2.79-.285 2.296 3.742M351.816 137.886l-2.296 3.802c-.93-.065-1.86-.128-2.79-.188l1.584-2.634h-.004c-31.013-2.106-62.026-1.38-93.038 1.316v-2.46c31.014-2.697 62.028-3.422 93.042-1.317-.527-.948-1.055-1.896-1.584-2.843.93.06 1.86.123 2.79.188l2.296 4.136M456.039 157.68c-.766 1.08-1.531 2.163-2.296 3.249-.93-.29-1.86-.575-2.79-.857l1.585-2.255-.005-.001c-31.013-9.533-62.026-15.268-93.039-18.067v-2.46c31.015 2.799 62.03 8.534 93.044 18.068-.528-1.075-1.056-2.15-1.585-3.223.93.282 1.86.568 2.79.856l2.296 4.69M195.372 135.628c-.766 1.443-1.53 2.887-2.296 4.332-.93.148-1.86.297-2.79.448l1.584-2.994h-.005c-31.012 4.98-62.025 11.34-93.038 18.219v-2.46c31.015-6.88 62.03-13.24 93.043-18.22l-1.584-2.483c.93-.15 1.86-.3 2.79-.448l2.296 3.606M299.704 125.782l-2.295 4.02c-.93.021-1.86.046-2.79.072l1.584-2.782h-.004c-31.013.796-62.026 3.941-93.039 8.572v-2.46c31.015-4.632 62.029-7.777 93.043-8.573l-1.584-2.696c.93-.026 1.86-.05 2.79-.072.765 1.305 1.53 2.611 2.295 3.92M403.927 133.883c-.765 1.18-1.53 2.362-2.295 3.546-.93-.17-1.86-.335-2.79-.498l1.584-2.458-.004-.001c-31.013-5.549-62.026-7.783-93.039-7.563v-2.461c31.015-.22 62.029 2.015 93.043 7.564l-1.584-3.02c.93.164 1.86.33 2.79.499l2.295 4.392"/>
            <g transform="translate(411.346 133.804)">
                <mask id="J" fill="#fff">
                    <use xlink:href="#I"/>
                </mask>
                <path fill="#FFF" d="M96.804 33.385c-.765.968-1.53 1.94-2.296 2.913-.93-.425-1.86-.847-2.79-1.264.528-.676 1.057-1.35 1.585-2.024l-.005-.002C62.285 18.95 31.273 9.173.26 2.815V.354C31.274 6.713 62.289 16.49 93.303 30.549l-1.585-3.453c.93.417 1.86.839 2.79 1.263.766 1.673 1.53 3.348 2.296 5.026" mask="url(#J)"/>
            </g>
            <path fill="#FFF" d="M143.26 177.243l-2.296 4.428-2.79.563 1.585-3.059-.005.001c-31.013 6.256-62.025 13.41-93.038 20.6v-2.46c31.014-7.19 62.029-14.345 93.043-20.601l-1.585-2.419 2.79-.563 2.296 3.51M247.483 161.167l-2.296 4.196-2.79.285 1.584-2.902h-.004c-31.013 3.162-62.026 8.187-93.038 14.215V174.5c31.014-6.028 62.028-11.054 93.042-14.214-.527-.86-1.056-1.718-1.584-2.576l2.79-.285 2.296 3.742M351.816 159.384l-2.296 3.802c-.93-.066-1.86-.128-2.79-.188l1.584-2.634h-.004c-31.013-2.106-62.026-1.38-93.038 1.315v-2.46c31.014-2.696 62.028-3.421 93.042-1.316-.527-.949-1.055-1.896-1.584-2.844.93.06 1.86.124 2.79.189l2.296 4.136M456.039 179.178c-.766 1.08-1.531 2.163-2.296 3.248-.93-.288-1.86-.573-2.79-.856l1.585-2.255-.005-.001c-31.013-9.533-62.026-15.268-93.039-18.067v-2.46c31.015 2.799 62.03 8.534 93.044 18.068a2462.43 2462.43 0 0 0-1.585-3.223c.93.282 1.86.568 2.79.856l2.296 4.69M195.372 157.125l-2.296 4.332c-.93.149-1.86.298-2.79.45l1.584-2.995h-.005c-31.012 4.98-62.025 11.34-93.038 18.219v-2.46c31.015-6.88 62.03-13.24 93.043-18.22l-1.584-2.483c.93-.15 1.86-.3 2.79-.448l2.296 3.605M299.704 147.28l-2.295 4.02c-.93.02-1.86.045-2.79.071l1.584-2.781a.02.02 0 0 0-.004 0c-31.013.796-62.026 3.94-93.039 8.571v-2.46c31.015-4.631 62.029-7.776 93.043-8.572l-1.584-2.696c.93-.026 1.86-.05 2.79-.072.765 1.304 1.53 2.611 2.295 3.919M403.927 155.38c-.765 1.18-1.53 2.363-2.295 3.547-.93-.17-1.86-.335-2.79-.498l1.584-2.459h-.004c-31.013-5.549-62.026-7.783-93.039-7.564v-2.46c31.015-.22 62.029 2.015 93.043 7.564l-1.584-3.02c.93.164 1.86.33 2.79.499l2.295 4.392"/>
            <g transform="translate(411.346 155.59)">
                <mask id="L" fill="#fff">
                    <use xlink:href="#K"/>
                </mask>
                <path fill="#FFF" d="M96.804 33.096c-.765.968-1.53 1.94-2.296 2.913-.93-.425-1.86-.846-2.79-1.264.528-.676 1.057-1.35 1.585-2.023l-.005-.003C62.285 18.66 31.273 8.884.26 2.526V.066C31.274 6.423 62.289 16.2 93.303 30.26l-1.585-3.454c.93.417 1.86.839 2.79 1.264.766 1.672 1.53 3.347 2.296 5.025" mask="url(#L)"/>
            </g>
            <path fill="#FFF" d="M143.26 198.74l-2.296 4.43c-.93.186-1.86.374-2.79.562l1.585-3.059h-.005c-31.013 6.257-62.025 13.411-93.038 20.6v-2.46c31.014-7.19 62.029-14.344 93.043-20.6l-1.585-2.419 2.79-.563 2.296 3.51M247.483 182.665l-2.296 4.196-2.79.285 1.584-2.902h-.004c-31.013 3.162-62.026 8.187-93.038 14.214v-2.46c31.014-6.028 62.028-11.054 93.042-14.214-.527-.86-1.056-1.718-1.584-2.576.93-.097 1.86-.192 2.79-.285l2.296 3.742M351.816 180.881l-2.296 3.803c-.93-.066-1.86-.128-2.79-.189l1.584-2.634h-.004c-31.013-2.106-62.026-1.38-93.038 1.316v-2.46c31.014-2.696 62.028-3.422 93.042-1.316-.527-.949-1.055-1.897-1.584-2.844.93.06 1.86.123 2.79.189l2.296 4.135M456.039 200.675c-.766 1.08-1.531 2.164-2.296 3.25-.93-.29-1.86-.575-2.79-.857.528-.753 1.057-1.505 1.585-2.255l-.005-.002c-31.013-9.532-62.026-15.267-93.039-18.066v-2.46c31.015 2.798 62.03 8.534 93.044 18.067-.528-1.075-1.056-2.149-1.585-3.222.93.282 1.86.568 2.79.856.765 1.56 1.53 3.124 2.296 4.69M195.372 178.623l-2.296 4.332c-.93.149-1.86.298-2.79.449l1.584-2.994h-.005c-31.012 4.98-62.025 11.34-93.038 18.219v-2.46c31.015-6.88 62.03-13.24 93.043-18.22l-1.584-2.483c.93-.151 1.86-.3 2.79-.449l2.296 3.606M299.704 168.778l-2.295 4.02c-.93.02-1.86.045-2.79.071l1.584-2.781h-.004c-31.013.796-62.026 3.94-93.039 8.571v-2.46c31.015-4.631 62.029-7.776 93.043-8.572l-1.584-2.696c.93-.026 1.86-.05 2.79-.072.765 1.304 1.53 2.61 2.295 3.919M403.927 176.879l-2.295 3.545c-.93-.169-1.86-.335-2.79-.498l1.584-2.458h-.004c-31.013-5.55-62.026-7.783-93.039-7.564v-2.46c31.015-.22 62.029 2.014 93.043 7.564l-1.584-3.02c.93.163 1.86.33 2.79.498.765 1.462 1.53 2.927 2.295 4.393"/>
            <g transform="translate(411.346 176.941)">
                <mask id="N" fill="#fff">
                    <use xlink:href="#M"/>
                </mask>
                <path fill="#FFF" d="M96.804 33.244c-.765.968-1.53 1.938-2.296 2.912-.93-.425-1.86-.847-2.79-1.264.528-.676 1.057-1.35 1.585-2.024l-.005-.002C62.285 18.808 31.273 9.03.26 2.672V.212C31.274 6.57 62.289 16.348 93.303 30.407l-1.585-3.453c.93.417 1.86.838 2.79 1.264.766 1.672 1.53 3.347 2.296 5.026" mask="url(#N)"/>
            </g>
            <path fill="#FFF" d="M143.26 220.238l-2.296 4.43c-.93.186-1.86.373-2.79.562l1.585-3.06-.005.002c-31.013 6.255-62.025 13.41-93.038 20.6v-2.461c31.014-7.19 62.029-14.345 93.043-20.6a2875.01 2875.01 0 0 0-1.585-2.42l2.79-.562 2.296 3.51M247.483 204.163c-.766 1.397-1.53 2.796-2.296 4.196-.93.093-1.86.188-2.79.285l1.584-2.902h-.004c-31.013 3.161-62.026 8.187-93.038 14.214v-2.46c31.014-6.028 62.028-11.054 93.042-14.215-.527-.859-1.056-1.717-1.584-2.576.93-.096 1.86-.19 2.79-.284l2.296 3.742M351.816 202.38l-2.296 3.802c-.93-.066-1.86-.128-2.79-.189l1.584-2.633h-.004c-31.013-2.107-62.026-1.38-93.038 1.315v-2.46c31.014-2.696 62.028-3.422 93.042-1.316-.527-.949-1.055-1.897-1.584-2.844.93.06 1.86.123 2.79.189l2.296 4.135M456.039 222.173c-.766 1.08-1.531 2.164-2.296 3.249-.93-.289-1.86-.574-2.79-.856l1.585-2.256h-.005c-31.013-9.533-62.026-15.269-93.039-18.067v-2.46c31.015 2.799 62.03 8.533 93.044 18.067-.528-1.075-1.056-2.15-1.585-3.222.93.282 1.86.567 2.79.856.765 1.56 1.53 3.124 2.296 4.69M195.372 200.12l-2.296 4.333c-.93.149-1.86.298-2.79.449l1.584-2.995-.005.001c-31.012 4.979-62.025 11.34-93.038 18.218v-2.46c31.015-6.88 62.03-13.24 93.043-18.22l-1.584-2.482c.93-.151 1.86-.3 2.79-.448l2.296 3.605M299.704 190.276l-2.295 4.019c-.93.022-1.86.046-2.79.072l1.584-2.782h-.004c-31.013.797-62.026 3.942-93.039 8.573v-2.461c31.015-4.631 62.029-7.776 93.043-8.572l-1.584-2.696c.93-.026 1.86-.05 2.79-.072l2.295 3.919M403.927 198.377c-.765 1.18-1.53 2.361-2.295 3.545-.93-.169-1.86-.335-2.79-.498l1.584-2.458h-.004c-31.013-5.55-62.026-7.783-93.039-7.564v-2.46c31.015-.22 62.029 2.015 93.043 7.564l-1.584-3.02c.93.163 1.86.33 2.79.498.765 1.462 1.53 2.926 2.295 4.393"/>
            <g transform="translate(411.346 198.292)">
                <mask id="P" fill="#fff">
                    <use xlink:href="#O"/>
                </mask>
                <path fill="#FFF" d="M96.804 33.39c-.765.969-1.53 1.939-2.296 2.913-.93-.426-1.86-.847-2.79-1.264.528-.676 1.057-1.35 1.585-2.024a.016.016 0 0 0-.005-.002C62.285 18.954 31.273 9.177.26 2.819V.36c31.014 6.358 62.029 16.136 93.043 30.195l-1.585-3.453c.93.417 1.86.838 2.79 1.264.766 1.672 1.53 3.347 2.296 5.025" mask="url(#P)"/>
            </g>
            <path fill="#FFF" d="M143.26 241.736l-2.296 4.429c-.93.187-1.86.374-2.79.563l1.585-3.06-.005.001c-31.013 6.256-62.025 13.41-93.038 20.6v-2.46c31.014-7.19 62.029-14.345 93.043-20.601a2875.94 2875.94 0 0 0-1.585-2.418l2.79-.563 2.296 3.509M247.483 225.66a7296.04 7296.04 0 0 0-2.296 4.196l-2.79.285 1.584-2.902-.004.001c-31.013 3.161-62.026 8.186-93.038 14.214v-2.46c31.014-6.028 62.028-11.054 93.042-14.215-.527-.859-1.056-1.717-1.584-2.575.93-.097 1.86-.192 2.79-.285l2.296 3.742M351.816 223.877c-.765 1.265-1.53 2.533-2.296 3.803-.93-.066-1.86-.129-2.79-.19l1.584-2.633h-.004c-31.013-2.106-62.026-1.38-93.038 1.316v-2.46c31.014-2.696 62.028-3.422 93.042-1.316-.527-.949-1.055-1.897-1.584-2.844.93.06 1.86.123 2.79.188l2.296 4.136M456.039 243.67c-.766 1.082-1.531 2.165-2.296 3.25-.93-.289-1.86-.574-2.79-.856.528-.753 1.057-1.505 1.585-2.255l-.005-.002c-31.013-9.533-62.026-15.267-93.039-18.066v-2.461c31.015 2.8 62.03 8.535 93.044 18.068-.528-1.075-1.056-2.15-1.585-3.223.93.283 1.86.568 2.79.857.765 1.56 1.53 3.123 2.296 4.689M195.372 221.619c-.766 1.443-1.53 2.887-2.296 4.332-.93.148-1.86.298-2.79.449l1.584-2.995-.005.001c-31.012 4.979-62.025 11.34-93.038 18.219v-2.461c31.015-6.88 62.03-13.24 93.043-18.22l-1.584-2.483c.93-.15 1.86-.3 2.79-.448l2.296 3.606M299.704 211.773l-2.295 4.02c-.93.021-1.86.046-2.79.072l1.584-2.782h-.004c-31.013.796-62.026 3.941-93.039 8.572v-2.46c31.015-4.632 62.029-7.776 93.043-8.572l-1.584-2.696c.93-.026 1.86-.05 2.79-.073l2.295 3.92M403.927 219.874c-.765 1.18-1.53 2.362-2.295 3.546-.93-.169-1.86-.335-2.79-.498l1.584-2.458h-.004c-31.013-5.55-62.026-7.783-93.039-7.564v-2.46c31.015-.22 62.029 2.014 93.043 7.563l-1.584-3.02c.93.164 1.86.33 2.79.5.765 1.461 1.53 2.925 2.295 4.391"/>
            <g transform="translate(411.346 220.08)">
                <mask id="R" fill="#fff">
                    <use xlink:href="#Q"/>
                </mask>
                <path fill="#FFF" d="M96.804 33.101c-.765.969-1.53 1.939-2.296 2.913-.93-.425-1.86-.847-2.79-1.264.528-.676 1.057-1.35 1.585-2.024a.016.016 0 0 0-.005-.002C62.285 18.666 31.273 8.889.26 2.53V.07c31.014 6.358 62.029 16.136 93.043 30.196l-1.585-3.454c.93.417 1.86.838 2.79 1.264.766 1.672 1.53 3.347 2.296 5.025" mask="url(#R)"/>
            </g>
            <path fill="#FFF" d="M143.26 263.234l-2.296 4.429c-.93.187-1.86.374-2.79.563l1.585-3.06-.005.001c-31.013 6.256-62.025 13.41-93.038 20.6v-2.46c31.014-7.19 62.029-14.345 93.043-20.601a2875.94 2875.94 0 0 0-1.585-2.418l2.79-.564 2.296 3.51M247.483 247.158a6082.5 6082.5 0 0 0-2.296 4.197c-.93.093-1.86.188-2.79.284l1.584-2.901h-.004c-31.013 3.16-62.026 8.186-93.038 14.214v-2.46c31.014-6.028 62.028-11.054 93.042-14.215-.527-.86-1.056-1.718-1.584-2.576l2.79-.285 2.296 3.742M351.816 245.375l-2.296 3.802c-.93-.065-1.86-.128-2.79-.188l1.584-2.634h-.004c-31.013-2.106-62.026-1.38-93.038 1.316v-2.461c31.014-2.695 62.028-3.421 93.042-1.316l-1.584-2.844c.93.061 1.86.124 2.79.19l2.296 4.135M456.039 265.169c-.766 1.08-1.531 2.164-2.296 3.249-.93-.289-1.86-.574-2.79-.857l1.585-2.255-.005-.001c-31.013-9.533-62.026-15.268-93.039-18.066v-2.461c31.015 2.8 62.03 8.534 93.044 18.068-.528-1.075-1.056-2.15-1.585-3.223.93.282 1.86.568 2.79.857.765 1.56 1.53 3.123 2.296 4.689M195.372 243.116l-2.296 4.333c-.93.148-1.86.298-2.79.448l1.584-2.994h-.005c-31.012 4.98-62.025 11.34-93.038 18.22v-2.461c31.015-6.88 62.03-13.24 93.043-18.22l-1.584-2.482c.93-.152 1.86-.301 2.79-.449l2.296 3.605M299.704 233.271l-2.295 4.02c-.93.021-1.86.046-2.79.072l1.584-2.782h-.004c-31.013.796-62.026 3.941-93.039 8.572v-2.46c31.015-4.632 62.029-7.776 93.043-8.573l-1.584-2.696c.93-.026 1.86-.05 2.79-.072l2.295 3.92M403.927 241.372c-.765 1.18-1.53 2.362-2.295 3.546-.93-.169-1.86-.335-2.79-.498l1.584-2.458-.004-.001c-31.013-5.549-62.026-7.782-93.039-7.564v-2.46c31.015-.219 62.029 2.015 93.043 7.564l-1.584-3.02c.93.164 1.86.33 2.79.499l2.295 4.392"/>
            <g transform="translate(411.346 241.43)">
                <mask id="T" fill="#fff">
                    <use xlink:href="#S"/>
                </mask>
                <path fill="#FFF" d="M96.804 33.248c-.765.968-1.53 1.939-2.296 2.913-.93-.426-1.86-.847-2.79-1.264.528-.676 1.057-1.35 1.585-2.024l-.005-.002C62.285 18.812 31.273 9.035.26 2.677V.217c31.014 6.358 62.029 16.136 93.043 30.195l-1.585-3.453c.93.417 1.86.838 2.79 1.263.766 1.673 1.53 3.348 2.296 5.026" mask="url(#T)"/>
            </g>
            <path fill="#FFF" d="M143.26 284.732l-2.296 4.428-2.79.563 1.585-3.059-.005.001c-31.013 6.256-62.025 13.41-93.038 20.6v-2.46c31.014-7.191 62.029-14.345 93.043-20.602l-1.585-2.417 2.79-.564 2.296 3.51M247.483 268.656l-2.296 4.196-2.79.285 1.584-2.902h-.004c-31.013 3.162-62.026 8.187-93.038 14.214v-2.46c31.014-6.028 62.028-11.053 93.042-14.214-.527-.86-1.056-1.718-1.584-2.576.93-.097 1.86-.192 2.79-.285l2.296 3.742M351.816 266.872a3245.43 3245.43 0 0 0-2.296 3.803c-.93-.065-1.86-.128-2.79-.189l1.584-2.633h-.004c-31.013-2.106-62.026-1.38-93.038 1.316v-2.46c31.014-2.696 62.028-3.423 93.042-1.316-.527-.95-1.055-1.898-1.584-2.845.93.06 1.86.124 2.79.189l2.296 4.135M456.039 286.666c-.766 1.081-1.531 2.164-2.296 3.25-.93-.29-1.86-.575-2.79-.857l1.585-2.255c-.002 0-.004 0-.005-.002-31.013-9.532-62.026-15.267-93.039-18.066v-2.46c31.015 2.799 62.03 8.534 93.044 18.068-.528-1.075-1.056-2.15-1.585-3.223.93.282 1.86.568 2.79.856l2.296 4.69M195.372 264.615c-.766 1.443-1.53 2.887-2.296 4.332-.93.148-1.86.297-2.79.448l1.584-2.994h-.005c-31.012 4.98-62.025 11.34-93.038 18.219v-2.46c31.015-6.88 62.03-13.24 93.043-18.22l-1.584-2.483c.93-.15 1.86-.3 2.79-.448l2.296 3.606M299.704 254.769l-2.295 4.02c-.93.02-1.86.045-2.79.071l1.584-2.78h-.004c-31.013.795-62.026 3.94-93.039 8.57v-2.46c31.015-4.631 62.029-7.776 93.043-8.572l-1.584-2.695c.93-.027 1.86-.05 2.79-.073l2.295 3.919M403.927 262.87c-.765 1.18-1.53 2.362-2.295 3.546-.93-.17-1.86-.335-2.79-.498l1.584-2.458-.004-.001c-31.013-5.549-62.026-7.783-93.039-7.564v-2.46c31.015-.22 62.029 2.015 93.043 7.564l-1.584-3.02c.93.164 1.86.33 2.79.499l2.295 4.392"/>
            <g transform="translate(411.346 262.781)">
                <mask id="V" fill="#fff">
                    <use xlink:href="#U"/>
                </mask>
                <path fill="#FFF" d="M96.804 33.395c-.765.968-1.53 1.939-2.296 2.912-.93-.425-1.86-.846-2.79-1.263.528-.676 1.057-1.35 1.585-2.024l-.005-.002C62.285 18.959 31.273 9.183.26 2.824V.364C31.274 6.721 62.289 16.5 93.303 30.558l-1.585-3.453c.93.417 1.86.838 2.79 1.263.766 1.673 1.53 3.348 2.296 5.026" mask="url(#V)"/>
            </g>
            <path fill="#FFF" d="M143.26 306.23l-2.296 4.428-2.79.564 1.585-3.06-.005.001c-31.013 6.256-62.025 13.41-93.038 20.6v-2.461c31.014-7.19 62.029-14.344 93.043-20.6l-1.585-2.419 2.79-.563 2.296 3.51M247.483 290.154c-.766 1.397-1.53 2.796-2.296 4.196-.93.093-1.86.189-2.79.285l1.584-2.902h-.004c-31.013 3.161-62.026 8.187-93.038 14.214v-2.46c31.014-6.028 62.028-11.054 93.042-14.214-.527-.86-1.056-1.718-1.584-2.576.93-.096 1.86-.192 2.79-.285l2.296 3.742M351.816 288.37l-2.296 3.803c-.93-.066-1.86-.128-2.79-.189l1.584-2.633h-.004c-31.013-2.106-62.026-1.38-93.038 1.315v-2.46c31.014-2.696 62.028-3.422 93.042-1.316a2451.17 2451.17 0 0 0-1.584-2.844c.93.06 1.86.123 2.79.189a5036.3 5036.3 0 0 1 2.296 4.135M456.039 308.164c-.766 1.08-1.531 2.164-2.296 3.25-.93-.29-1.86-.575-2.79-.857.528-.753 1.057-1.504 1.585-2.255l-.005-.002c-31.013-9.532-62.026-15.267-93.039-18.066v-2.46c31.015 2.799 62.03 8.534 93.044 18.068a2218.01 2218.01 0 0 0-1.585-3.223c.93.282 1.86.567 2.79.856l2.296 4.69M195.372 286.112l-2.296 4.332c-.93.149-1.86.298-2.79.45l1.584-2.996-.005.001c-31.012 4.979-62.025 11.34-93.038 18.219v-2.46c31.015-6.88 62.03-13.241 93.043-18.22l-1.584-2.483c.93-.15 1.86-.3 2.79-.448l2.296 3.605M299.704 276.267l-2.295 4.019c-.93.022-1.86.046-2.79.073l1.584-2.782h-.004c-31.013.796-62.026 3.94-93.039 8.572v-2.46c31.015-4.632 62.029-7.777 93.043-8.573l-1.584-2.696c.93-.026 1.86-.05 2.79-.072l2.295 3.919M403.927 284.368c-.765 1.18-1.53 2.362-2.295 3.546-.93-.17-1.86-.335-2.79-.499.528-.82 1.056-1.64 1.584-2.457l-.004-.001c-31.013-5.55-62.026-7.783-93.039-7.564v-2.46c31.015-.22 62.029 2.015 93.043 7.564l-1.584-3.02c.93.163 1.86.33 2.79.499.765 1.461 1.53 2.926 2.295 4.392"/>
            <g transform="translate(411.346 284.568)">
                <mask id="X" fill="#fff">
                    <use xlink:href="#W"/>
                </mask>
                <path fill="#FFF" d="M96.804 33.106c-.765.968-1.53 1.94-2.296 2.912-.93-.424-1.86-.846-2.79-1.263.528-.676 1.057-1.35 1.585-2.024l-.005-.002C62.285 18.67 31.273 8.894.26 2.535V.075C31.274 6.432 62.289 16.21 93.303 30.27l-1.585-3.453c.93.417 1.86.838 2.79 1.263.766 1.673 1.53 3.348 2.296 5.026" mask="url(#X)"/>
            </g>
            <g transform="translate(-57.907 369.1)">
                <mask id="Z" fill="#fff">
                    <use xlink:href="#Y"/>
                </mask>
                <path fill="#FFF" d="M96.944 3.537L94.65 8.038l-2.79.646 1.584-3.105h-.004C62.426 12.765 31.413 19.883.4 26.07v-2.46C31.415 17.421 62.43 10.303 93.443 3.117L91.86.747 94.649.1l2.295 3.437" mask="url(#Z)"/>
            </g>
            <g transform="translate(-377.437 359.514)">
                <mask id="ab" fill="#fff">
                    <use xlink:href="#aa"/>
                </mask>
                <path fill="#FFF" d="M51.583 33.285c-.765 1.166-1.53 2.33-2.296 3.492-.93-.196-1.86-.395-2.79-.596l1.585-2.398-.005-.001C17.064 27.165-13.948 17.096-44.961 2.714V.254c31.014 14.383 62.029 24.452 93.043 31.068l-1.585-3.08c.93.203 1.86.401 2.79.597.766 1.484 1.53 2.966 2.296 4.446" mask="url(#ab)"/>
            </g>
            <g transform="translate(-214.18 390.015)">
                <mask id="ad" fill="#fff">
                    <use xlink:href="#ac"/>
                </mask>
                <path fill="#FFF" d="M96.882 3.722l-2.295 4.31-2.79.405 1.584-2.968h-.005C62.364 9.991 31.351 12.994.338 13.618v-2.461c31.014-.623 62.03-3.627 93.043-8.149L91.797.499c.93-.134 1.86-.27 2.79-.406l2.295 3.629" mask="url(#ad)"/>
            </g>
            <g transform="translate(-109.853 369.971)">
                <mask id="af" fill="#fff">
                    <use xlink:href="#ae"/>
                </mask>
                <path fill="#FFF" d="M96.778 3.812L94.483 8.29l-2.79.616 1.584-3.088-.005.001c-31.013 6.839-62.025 13.126-93.038 18v-2.46C31.25 16.483 62.263 10.195 93.277 3.357L91.692.967l2.79-.615 2.296 3.46" mask="url(#af)"/>
            </g>
            <path fill="#FFF" d="M91.148 349.925l-2.295 4.485-2.79.629 1.584-3.096-.004.001c-31.013 6.991-62.026 14.398-93.039 21.357v-2.461c31.015-6.96 62.03-14.366 93.043-21.358l-1.584-2.38 2.79-.63 2.295 3.453"/>
            <g transform="translate(-370.452 368.664)">
                <mask id="ah" fill="#fff">
                    <use xlink:href="#ag"/>
                </mask>
                <path fill="#FFF" d="M96.71 20.726a2315.61 2315.61 0 0 1-2.295 3.756c-.93-.088-1.86-.18-2.79-.273l1.584-2.582h-.004C62.19 18.606 31.179 12.616.166 2.795V.335c31.015 9.82 62.029 15.81 93.043 18.832l-1.584-2.896c.93.094 1.86.185 2.79.273l2.295 4.182" mask="url(#ah)"/>
            </g>
            <g transform="translate(-266.125 384.786)">
                <mask id="aj" fill="#fff">
                    <use xlink:href="#ai"/>
                </mask>
                <path fill="#FFF" d="M96.606 4.171l-2.295 4.165c-.93.078-1.86.154-2.79.229l1.584-2.868H93.1c-31.013 2.546-62.025 3.09-93.038.77v-2.46c31.014 2.32 62.029 1.776 93.043-.77L91.52.626c.93-.075 1.86-.151 2.79-.229l2.296 3.773" mask="url(#aj)"/>
            </g>
            <path fill="#FFF" d="M-65.186 373.677c-.765 1.471-1.53 2.943-2.296 4.413-.93.18-1.86.357-2.79.535l1.585-3.042h-.005c-31.013 5.952-62.025 10.868-93.038 13.887v-2.46c31.014-3.02 62.029-7.936 93.043-13.887l-1.585-2.436 2.79-.535 2.296 3.525M39.037 350.861l-2.295 4.502-2.79.646 1.584-3.106-.005.001c-31.013 7.186-62.026 14.304-93.038 20.49v-2.46c31.014-6.187 62.029-13.306 93.043-20.491l-1.585-2.372 2.79-.647 2.296 3.437"/>
            <g transform="translate(-377.437 337.727)">
                <mask id="al" fill="#fff">
                    <use xlink:href="#ak"/>
                </mask>
                <path fill="#FFF" d="M51.583 33.296c-.765 1.166-1.53 2.33-2.296 3.493-.93-.197-1.86-.396-2.79-.597l1.585-2.398-.005-.001C17.064 27.176-13.948 17.108-44.961 2.725V.265c31.014 14.383 62.029 24.452 93.043 31.068l-1.585-3.08c.93.203 1.86.402 2.79.597.766 1.484 1.53 2.966 2.296 4.446" mask="url(#al)"/>
            </g>
            <path fill="#FFF" d="M-221.63 380.733c-.766 1.329-1.53 2.655-2.296 3.98-.93.004-1.86.005-2.79.003l1.585-2.739h-.006c-31.012.034-62.025-2.419-93.038-8.219v-2.46c31.015 5.8 62.03 8.252 93.044 8.219-.529-.913-1.057-1.825-1.585-2.74.93.003 1.86.002 2.79-.001.765 1.32 1.53 2.64 2.296 3.957M-117.297 371.961l-2.296 4.31c-.93.136-1.86.272-2.79.406.528-.99 1.057-1.979 1.584-2.969l-.004.001c-31.013 4.521-62.026 7.525-93.038 8.148v-2.46c31.014-.624 62.028-3.628 93.042-8.15l-1.584-2.508c.93-.134 1.86-.27 2.79-.406.765 1.21 1.53 2.42 2.296 3.628M-13.075 352.009l-2.295 4.476-2.79.616 1.584-3.088-.005.001c-31.012 6.839-62.025 13.126-93.038 18v-2.46c31.015-4.874 62.03-11.163 93.043-18.002l-1.584-2.39 2.79-.614 2.295 3.46M91.148 328.15l-2.295 4.485-2.79.628 1.584-3.096-.004.001c-31.013 6.992-62.026 14.398-93.039 21.357v-2.46c31.015-6.96 62.03-14.367 93.043-21.359l-1.584-2.38 2.79-.63 2.295 3.454"/>
            <g transform="translate(-377.437 380.865)">
                <mask id="an" fill="#fff">
                    <use xlink:href="#am"/>
                </mask>
                <path fill="#FFF" d="M51.583 33.432c-.765 1.166-1.53 2.33-2.296 3.492-.93-.196-1.86-.395-2.79-.597l1.585-2.397-.005-.001C17.064 27.312-13.948 17.243-44.961 2.86V.4c31.014 14.382 62.029 24.451 93.043 31.068l-1.585-3.08c.93.202 1.86.401 2.79.597.766 1.484 1.53 2.966 2.296 4.446" mask="url(#an)"/>
            </g>
            <g transform="translate(-5.526 367.793)">
                <mask id="ap" fill="#fff">
                    <use xlink:href="#ao"/>
                </mask>
                <path fill="#FFF" d="M96.674 3.63l-2.296 4.485-2.79.629 1.585-3.096h-.005C62.155 12.64 31.143 20.048.13 27.007v-2.461c31.014-6.96 62.029-14.366 93.043-21.358L91.589.807l2.79-.63 2.295 3.453" mask="url(#ap)"/>
            </g>
            <g transform="translate(-5.526 389.144)">
                <mask id="ar" fill="#fff">
                    <use xlink:href="#aq"/>
                </mask>
                <path fill="#FFF" d="M96.674 3.777l-2.296 4.485-2.79.629 1.585-3.097-.005.002C62.155 12.787 31.143 20.194.13 27.152v-2.46c31.014-6.96 62.029-14.366 93.043-21.358L91.589.954c.929-.211 1.86-.42 2.79-.63l2.295 3.453" mask="url(#ar)"/>
            </g>
            <path fill="#FFF" d="M143.26 349.554l-2.296 4.428-2.79.564 1.585-3.06-.005.001c-31.013 6.256-62.025 13.41-93.038 20.6v-2.461c31.014-7.19 62.029-14.344 93.043-20.6a2875.01 2875.01 0 0 0-1.585-2.419l2.79-.563 2.296 3.51M247.483 333.478a7296.04 7296.04 0 0 0-2.296 4.196c-.93.093-1.86.189-2.79.285l1.584-2.902h-.004c-31.013 3.161-62.026 8.187-93.038 14.215v-2.461c31.014-6.027 62.028-11.054 93.042-14.214-.527-.86-1.056-1.718-1.584-2.576l2.79-.285 2.296 3.742M351.816 331.695l-2.296 3.802c-.93-.065-1.86-.128-2.79-.188l1.584-2.634h-.004c-31.013-2.106-62.026-1.38-93.038 1.316v-2.461c31.014-2.695 62.028-3.422 93.042-1.316-.527-.949-1.055-1.896-1.584-2.844.93.061 1.86.123 2.79.19l2.296 4.135M456.039 351.488c-.766 1.08-1.531 2.164-2.296 3.25-.93-.29-1.86-.575-2.79-.857l1.585-2.255-.005-.001c-31.013-9.533-62.026-15.268-93.039-18.067v-2.46c31.015 2.799 62.03 8.534 93.044 18.068-.528-1.076-1.056-2.15-1.585-3.223.93.282 1.86.567 2.79.856l2.296 4.69M195.372 329.436l-2.296 4.332c-.93.149-1.86.298-2.79.45l1.584-2.995h-.005c-31.012 4.979-62.025 11.34-93.038 18.219v-2.46c31.015-6.88 62.03-13.241 93.043-18.22l-1.584-2.483c.93-.15 1.86-.3 2.79-.448l2.296 3.605M299.704 319.59l-2.295 4.02c-.93.022-1.86.046-2.79.073l1.584-2.782h-.004c-31.013.796-62.026 3.941-93.039 8.572v-2.46c31.015-4.632 62.029-7.777 93.043-8.573l-1.584-2.696c.93-.026 1.86-.05 2.79-.072l2.295 3.919M403.927 327.692c-.765 1.18-1.53 2.362-2.295 3.546-.93-.17-1.86-.335-2.79-.498l1.584-2.458-.004-.001c-31.013-5.55-62.026-7.783-93.039-7.564v-2.46c31.015-.219 62.029 2.015 93.043 7.564l-1.584-3.02c.93.163 1.86.33 2.79.499.765 1.461 1.53 2.926 2.295 4.392"/>
            <g transform="translate(411.346 327.705)">
                <mask id="at" fill="#fff">
                    <use xlink:href="#as"/>
                </mask>
                <path fill="#FFF" d="M96.804 33.292l-2.296 2.913c-.93-.425-1.86-.846-2.79-1.264.528-.676 1.057-1.35 1.585-2.023l-.005-.003C62.285 18.857 31.273 9.08.26 2.722V.262c31.014 6.357 62.029 16.135 93.043 30.195l-1.585-3.453c.93.417 1.86.838 2.79 1.263.766 1.672 1.53 3.347 2.296 5.025" mask="url(#at)"/>
            </g>
            <path fill="#FFF" d="M143.26 327.778l-2.296 4.429c-.93.187-1.86.374-2.79.563l1.585-3.06-.005.002c-31.013 6.255-62.025 13.41-93.038 20.6v-2.461c31.014-7.19 62.029-14.345 93.043-20.601a2875.01 2875.01 0 0 0-1.585-2.418c.93-.189 1.86-.376 2.79-.563l2.296 3.51M247.483 311.703c-.766 1.397-1.53 2.796-2.296 4.195l-2.79.285 1.584-2.902-.004.001c-31.013 3.161-62.026 8.186-93.038 14.214v-2.46c31.014-6.028 62.028-11.054 93.042-14.215-.527-.859-1.056-1.717-1.584-2.576.93-.096 1.86-.191 2.79-.284l2.296 3.742M351.816 309.919c-.765 1.265-1.53 2.533-2.296 3.803-.93-.066-1.86-.128-2.79-.189l1.584-2.634h-.004c-31.013-2.106-62.026-1.38-93.038 1.316v-2.46c31.014-2.696 62.028-3.422 93.042-1.316-.527-.95-1.055-1.897-1.584-2.844.93.06 1.86.123 2.79.188l2.296 4.136M456.039 329.713c-.766 1.08-1.531 2.164-2.296 3.249-.93-.29-1.86-.574-2.79-.856l1.585-2.256-.005-.001c-31.013-9.533-62.026-15.268-93.039-18.066v-2.461c31.015 2.8 62.03 8.534 93.044 18.068-.528-1.075-1.056-2.15-1.585-3.223.93.283 1.86.568 2.79.857.765 1.56 1.53 3.123 2.296 4.689M195.372 307.66l-2.296 4.333c-.93.148-1.86.298-2.79.449l1.584-2.995-.005.001c-31.012 4.979-62.025 11.34-93.038 18.218v-2.46c31.015-6.88 62.03-13.24 93.043-18.22l-1.584-2.483c.93-.15 1.86-.3 2.79-.448l2.296 3.606M299.704 297.815l-2.295 4.02c-.93.021-1.86.045-2.79.072l1.584-2.782h-.004c-31.013.796-62.026 3.942-93.039 8.572v-2.46c31.015-4.632 62.029-7.776 93.043-8.572l-1.584-2.696c.93-.027 1.86-.05 2.79-.073.765 1.305 1.53 2.611 2.295 3.92M403.927 305.917c-.765 1.18-1.53 2.361-2.295 3.545-.93-.169-1.86-.335-2.79-.498l1.584-2.458h-.004c-31.013-5.55-62.026-7.783-93.039-7.564v-2.46c31.015-.22 62.029 2.014 93.043 7.564l-1.584-3.02c.93.163 1.86.329 2.79.498.765 1.462 1.53 2.926 2.295 4.393"/>
            <g transform="translate(411.346 305.919)">
                <mask id="av" fill="#fff">
                    <use xlink:href="#au"/>
                </mask>
                <path fill="#FFF" d="M96.804 33.303l-2.296 2.913c-.93-.425-1.86-.846-2.79-1.263.528-.677 1.057-1.351 1.585-2.024l-.005-.003C62.285 18.868 31.273 9.091.26 2.733V.273C31.274 6.63 62.289 16.408 93.303 30.467l-1.585-3.453c.93.417 1.86.838 2.79 1.263.766 1.673 1.53 3.347 2.296 5.025" mask="url(#av)"/>
            </g>
            <g transform="translate(46.42 367.357)">
                <mask id="ax" fill="#fff">
                    <use xlink:href="#aw"/>
                </mask>
                <path fill="#FFF" d="M96.84 3.694l-2.295 4.43c-.93.186-1.86.374-2.79.562l1.584-3.06-.004.002C62.32 11.884 31.309 19.038.296 26.228v-2.461c31.015-7.19 62.029-14.344 93.043-20.6L91.754.747l2.79-.563 2.296 3.51" mask="url(#ax)"/>
            </g>
            <path fill="#FFF" d="M247.483 354.976l-2.296 4.196-2.79.285 1.584-2.902h-.004c-31.013 3.162-62.026 8.187-93.038 14.214v-2.46c31.014-6.028 62.028-11.054 93.042-14.214-.527-.86-1.056-1.718-1.584-2.576.93-.097 1.86-.192 2.79-.285l2.296 3.742M351.816 353.192l-2.296 3.803c-.93-.066-1.86-.128-2.79-.189l1.584-2.634h-.004c-31.013-2.106-62.026-1.38-93.038 1.316v-2.46c31.014-2.696 62.028-3.422 93.042-1.316-.527-.949-1.055-1.897-1.584-2.844.93.06 1.86.123 2.79.189l2.296 4.135M456.039 372.986c-.766 1.08-1.531 2.164-2.296 3.25-.93-.29-1.86-.575-2.79-.857.528-.753 1.057-1.505 1.585-2.255l-.005-.002c-31.013-9.532-62.026-15.267-93.039-18.066v-2.46c31.015 2.798 62.03 8.534 93.044 18.067-.528-1.075-1.056-2.149-1.585-3.222.93.282 1.86.568 2.79.856.765 1.56 1.53 3.124 2.296 4.69M195.372 350.934l-2.296 4.332c-.93.149-1.86.298-2.79.45l1.584-2.995h-.005c-31.012 4.98-62.025 11.34-93.038 18.219v-2.46c31.015-6.88 62.03-13.24 93.043-18.22l-1.584-2.483 2.79-.449 2.296 3.606M299.704 341.089l-2.295 4.02c-.93.02-1.86.045-2.79.071l1.584-2.781h-.004c-31.013.796-62.026 3.94-93.039 8.571v-2.46c31.015-4.631 62.029-7.776 93.043-8.572l-1.584-2.696c.93-.026 1.86-.05 2.79-.072.765 1.304 1.53 2.61 2.295 3.919M403.927 349.19c-.765 1.18-1.53 2.362-2.295 3.546-.93-.17-1.86-.336-2.79-.499l1.584-2.458h-.004c-31.013-5.55-62.026-7.783-93.039-7.564v-2.46c31.015-.22 62.029 2.014 93.043 7.564l-1.584-3.02c.93.163 1.86.33 2.79.498.765 1.462 1.53 2.927 2.295 4.393"/>
            <g transform="translate(411.346 349.056)">
                <mask id="az" fill="#fff">
                    <use xlink:href="#ay"/>
                </mask>
                <path fill="#FFF" d="M96.804 33.44c-.765.968-1.53 1.938-2.296 2.912-.93-.425-1.86-.846-2.79-1.263.528-.677 1.057-1.351 1.585-2.024l-.005-.003C62.285 19.003 31.273 9.227.26 2.869V.408c31.014 6.359 62.029 16.137 93.043 30.196l-1.585-3.454c.93.417 1.86.839 2.79 1.264.766 1.672 1.53 3.347 2.296 5.025" mask="url(#az)"/>
            </g>
            <g transform="translate(46.42 388.708)">
                <mask id="aB" fill="#fff">
                    <use xlink:href="#aA"/>
                </mask>
                <path fill="#FFF" d="M96.84 3.841l-2.295 4.43c-.93.186-1.86.373-2.79.562l1.584-3.06-.004.002C62.32 12.03 31.309 19.185.296 26.375v-2.461c31.015-7.19 62.029-14.345 93.043-20.6L91.754.893l2.79-.562 2.296 3.51" mask="url(#aB)"/>
            </g>
            <g transform="translate(150.747 372.586)">
                <mask id="aD" fill="#fff">
                    <use xlink:href="#aC"/>
                </mask>
                <path fill="#FFF" d="M96.736 3.888L94.44 8.084c-.93.093-1.86.188-2.79.285l1.585-2.902h-.005C62.218 8.629 31.204 13.655.192 19.682v-2.46C31.206 11.193 62.22 6.167 93.235 3.007L91.65.43c.93-.097 1.86-.192 2.79-.285l2.296 3.742" mask="url(#aD)"/>
            </g>
            <path fill="#FFF" d="M351.816 374.69l-2.296 3.803c-.93-.066-1.86-.128-2.79-.189l1.584-2.633h-.004c-31.013-2.107-62.026-1.38-93.038 1.315v-2.46c31.014-2.696 62.028-3.422 93.042-1.316-.527-.949-1.055-1.897-1.584-2.844.93.06 1.86.123 2.79.189l2.296 4.135"/>
            <g transform="translate(359.401 373.893)">
                <mask id="aF" fill="#fff">
                    <use xlink:href="#aE"/>
                </mask>
                <path fill="#FFF" d="M96.638 20.591c-.766 1.08-1.531 2.164-2.296 3.249-.93-.289-1.86-.574-2.79-.856l1.584-2.256-.004-.001C62.119 11.194 31.106 5.459.093 2.661V.2C31.108 3 62.123 8.734 93.136 18.268c-.527-1.075-1.055-2.15-1.584-3.223.93.283 1.86.568 2.79.857.765 1.56 1.53 3.123 2.296 4.689" mask="url(#aF)"/>
            </g>
            <g transform="translate(98.802 368.664)">
                <mask id="aH" fill="#fff">
                    <use xlink:href="#aG"/>
                </mask>
                <path fill="#FFF" d="M96.57 3.768L94.274 8.1c-.93.148-1.86.298-2.79.449l1.585-2.995-.005.001C62.05 10.534 31.039 16.895.025 23.773v-2.46c31.015-6.88 62.03-13.24 93.044-18.22L91.484.61c.93-.15 1.86-.3 2.79-.448.766 1.2 1.53 2.403 2.296 3.606" mask="url(#aH)"/>
            </g>
            <path fill="#FFF" d="M299.704 362.587l-2.295 4.019c-.93.021-1.86.046-2.79.072l1.584-2.782h-.004c-31.013.797-62.026 3.942-93.039 8.573v-2.461c31.015-4.631 62.029-7.776 93.043-8.572l-1.584-2.696c.93-.026 1.86-.05 2.79-.072.765 1.304 1.53 2.61 2.295 3.919M403.927 370.688c-.765 1.18-1.53 2.361-2.295 3.545-.93-.169-1.86-.335-2.79-.498l1.584-2.458h-.004c-31.013-5.55-62.026-7.783-93.039-7.564v-2.46c31.015-.22 62.029 2.015 93.043 7.564l-1.584-3.02c.93.163 1.86.329 2.79.499.765 1.461 1.53 2.925 2.295 4.392"/>
            <g transform="translate(411.346 370.843)">
                <mask id="aJ" fill="#fff">
                    <use xlink:href="#aI"/>
                </mask>
                <path fill="#FFF" d="M96.804 33.15l-2.296 2.913c-.93-.425-1.86-.846-2.79-1.263.528-.677 1.057-1.351 1.585-2.024a.016.016 0 0 0-.005-.003C62.285 18.715 31.273 8.938.26 2.58V.12c31.014 6.358 62.029 16.136 93.043 30.195l-1.585-3.454c.93.417 1.86.839 2.79 1.264.766 1.672 1.53 3.347 2.296 5.026" mask="url(#aJ)"/>
            </g>
            <g transform="translate(98.802 390.015)">
                <mask id="aL" fill="#fff">
                    <use xlink:href="#aK"/>
                </mask>
                <path fill="#FFF" d="M96.57 3.914l-2.296 4.333c-.93.148-1.86.298-2.79.448l1.585-2.994h-.005C62.05 10.682 31.039 17.042.025 23.922V21.46C31.04 14.58 62.055 8.22 93.07 3.24L91.484.757c.93-.15 1.86-.3 2.79-.448.766 1.2 1.53 2.403 2.296 3.605" mask="url(#aL)"/>
            </g>
            <g transform="translate(203.129 379.993)">
                <mask id="aN" fill="#fff">
                    <use xlink:href="#aM"/>
                </mask>
                <path fill="#FFF" d="M96.576 4.091a4720.7 4720.7 0 0 0-2.296 4.02c-.93.021-1.86.045-2.79.072L93.075 5.4h-.005C62.057 6.197 31.044 9.342.03 13.973v-2.461c31.015-4.63 62.03-7.776 93.044-8.572L91.49.244c.93-.026 1.86-.05 2.79-.072l2.296 3.92" mask="url(#aN)"/>
            </g>
            <g transform="translate(307.02 382.608)">
                <mask id="aP" fill="#fff">
                    <use xlink:href="#aO"/>
                </mask>
                <path fill="#FFF" d="M96.908 9.578c-.765 1.18-1.53 2.361-2.296 3.546-.93-.17-1.86-.336-2.79-.499l1.585-2.458h-.005C62.39 4.616 31.377 2.383.364 2.602V.143c31.014-.22 62.029 2.015 93.043 7.564l-1.584-3.02c.929.163 1.86.33 2.79.499.765 1.461 1.53 2.925 2.295 4.392" mask="url(#aP)"/>
            </g>
        </g>
    </g>
</svg>
