<svg xmlns="http://www.w3.org/2000/svg" xmlns:xlink="http://www.w3.org/1999/xlink" width="339" height="182" viewBox="0 0 339 182">
    <defs>
        <path id="a" d="M0 0h339v182H0z"/>
        <path id="c" d="M.289.285h538.446v244.301H.29z"/>
        <path id="e" d="M0 .056h505.828v297.309H0z"/>
    </defs>
    <g fill="none" fill-rule="evenodd">
        <mask id="b" fill="#fff">
            <use xlink:href="#a"/>
        </mask>
        <use fill="#0071B8" xlink:href="#a"/>
        <g mask="url(#b)">
            <path fill="#FFF" d="M-166.536 121.593c30.432 28.792 69.677 47.671 113.493 54.597 12.392 1.958 24.997 2.926 37.648 2.926 34.909 0 70.149-7.37 102.102-21.628 22.186-9.9 42.254-22.816 59.647-38.39 17.644-15.798 32.2-34.054 43.289-54.288l1.174 3.951 1.781-3.285-1.774-5.965-5.97 1.773-1.782 3.285 4.076-1.212c-10.937 19.974-25.301 37.996-42.72 53.594-17.17 15.373-36.986 28.126-58.899 37.903-43.027 19.2-92.079 25.764-138.121 18.487-43.238-6.834-81.952-25.452-111.96-53.842-16.164-15.293-29.786-33.4-40.488-53.814-11.381-21.71-19.555-46.231-24.294-72.885l-2.843.504c4.792 26.945 13.061 51.748 24.58 73.72 10.85 20.696 24.665 39.056 41.061 54.569"/>
            <path fill="#FFF" d="M-169.772 139.14c35.957 31.085 81.719 49.763 132.34 54.018a261.1 261.1 0 0 0 21.865.913c45.555 0 91.147-11.794 130.384-33.995 23.463-13.275 44.001-29.857 61.045-49.285 17.508-19.957 31.003-42.584 40.134-67.282l1.8 3.784 1.253-3.52-2.675-5.62-5.625 2.672-1.253 3.52 3.777-1.796c-9.008 24.35-22.317 46.661-39.582 66.342-16.83 19.183-37.116 35.56-60.297 48.676C68.37 183.042 14.89 194.66-37.19 190.284c-50.008-4.203-95.2-22.642-130.692-53.324-19.095-16.507-35.162-36.423-47.757-59.197-13.443-24.307-22.995-52.015-28.39-82.355l-2.842.504c5.45 30.653 15.109 58.66 28.705 83.246 12.76 23.072 29.043 43.253 48.395 59.983"/>
            <path fill="#FFF" d="M-171.358 157.511c21.417 16.808 45.832 29.77 72.567 38.526C-73.192 204.42-46.033 208.783-18.07 209c.737.006 1.474.009 2.211.009 58.175 0 115.364-17.927 161.267-50.594 24.253-17.259 44.618-38.092 60.53-61.92 16.524-24.74 27.955-52.337 34.003-82.055l2.34 3.464.711-3.668-3.486-5.157-5.161 3.483-.711 3.668 3.475-2.347c-5.974 29.343-17.26 56.589-33.572 81.012-15.717 23.535-35.838 44.116-59.803 61.171-45.994 32.731-103.447 50.501-161.781 50.05-27.666-.216-54.53-4.53-79.846-12.82-26.414-8.651-50.531-21.454-71.682-38.054-22.45-17.617-41.32-39.357-56.088-64.614-15.823-27.062-26.947-58.221-33.063-92.613l-2.842.504c6.175 34.728 17.417 66.207 33.412 93.563 14.952 25.572 34.062 47.585 56.797 65.428"/>
            <g transform="translate(-276.55 -20.633)">
                <mask id="d" fill="#fff">
                    <use xlink:href="#c"/>
                </mask>
                <path fill="#FFF" d="M103.3 195.735c24.483 17.714 52.26 30.863 82.56 39.08 23.961 6.498 48.912 9.771 74.386 9.771 5.422 0 10.872-.148 16.335-.445 31.78-1.728 62.862-8.395 92.382-19.815 30.142-11.66 57.359-27.792 80.895-47.946 24.729-21.175 44.613-46.169 59.101-74.286 15.17-29.439 24.171-61.907 26.779-96.534l2.741 3.144.256-3.727-4.092-4.692-4.696 4.088-.256 3.728 3.168-2.76c-2.577 34.241-11.475 66.339-26.466 95.433-14.317 27.784-33.97 52.485-58.414 73.417-23.287 19.94-50.222 35.903-80.058 47.445-29.237 11.31-60.02 17.913-91.497 19.625-30.83 1.677-61.045-1.429-89.808-9.23-29.962-8.125-57.424-21.122-81.622-38.632-25.72-18.61-47.328-42.05-64.227-69.671C22.605 94.042 9.943 59.566 3.131 21.258l-2.842.504c6.875 38.664 19.665 73.476 38.015 103.47 17.099 27.948 38.967 51.669 64.997 70.503" mask="url(#d)"/>
            </g>
            <path fill="#FFF" d="M-186.305 184.34c24.86 18.748 53.136 32.947 84.042 42.202 27.385 8.201 56.182 12.346 85.707 12.346a317.995 317.995 0 0 0 103.974-17.46c31.717-10.961 60.706-26.578 86.162-46.417 26.645-20.768 48.577-45.547 65.186-73.649C256.114 72.01 267.358 39.45 272.21 4.56l2.537 3.31.491-3.704-3.787-4.94-4.945 3.785-.492 3.704 3.337-2.556c-4.799 34.514-15.917 66.714-33.07 95.738-16.425 27.79-38.118 52.297-64.477 72.84-25.204 19.644-53.913 35.11-85.33 45.966a315.124 315.124 0 0 1-95.859 17.22c-31.754.726-62.723-3.36-92.049-12.142-30.577-9.157-58.547-23.2-83.132-41.742-26.112-19.693-48.055-44.235-65.221-72.943-18.42-30.805-31.315-66.422-38.328-105.863l-2.842.505c7.075 39.786 20.092 75.73 38.692 106.837 17.357 29.029 39.55 53.848 65.96 73.766"/>
            <path fill="#FFF" d="M282.3 44.777l-3.092-5.402-5.407 3.089-.982 3.605 3.646-2.085c-9.174 32.76-24.236 62.984-44.796 89.866-19.825 25.92-44.416 48.34-73.091 66.635-55.35 35.313-122.758 53.118-189.806 50.138-31.526-1.402-61.99-7.351-90.545-17.682-29.815-10.786-56.986-26.17-80.757-45.721-25.206-20.732-46.403-46.03-63.003-75.192-17.75-31.182-30.292-66.91-37.277-106.188l-2.842.505c7.042 39.603 19.696 75.64 37.61 107.11 16.775 29.468 38.199 55.035 63.677 75.991 24.026 19.761 51.484 35.308 81.61 46.207 28.829 10.43 59.58 16.436 91.398 17.85 4.88.218 9.754.325 14.633.325 62.745 0 125.038-17.853 176.856-50.913 28.96-18.476 53.8-41.124 73.831-67.314 20.784-27.175 36.01-57.728 45.282-90.842l2.072 3.623.983-3.605z"/>
            <path fill="#FFF" d="M268.445 98.219l-1.672 3.342 3.98-1.328c-14.805 29.043-34.657 55.315-59.038 78.112-23.782 22.237-51.426 40.788-82.165 55.138-60.235 28.122-129.389 38.41-194.722 28.97-61.61-8.903-116.862-34.728-159.783-74.682-23.118-21.521-42.595-47.082-57.889-75.973-16.27-30.736-27.932-65.508-34.66-103.35l-2.843.505c6.781 38.136 18.54 73.192 34.951 104.193 15.445 29.177 35.118 54.994 58.473 76.734 43.354 40.357 99.144 66.44 161.337 75.427 15.953 2.305 32.124 3.444 48.345 3.444 50.774 0 101.98-11.163 148.013-32.654 31.015-14.48 58.912-33.202 82.915-55.646 24.63-23.03 44.686-49.573 59.644-78.918l1.322 3.962 1.671-3.342-1.97-5.903-5.909 1.969z"/>
            <path fill="#FFF" d="M262.52 137.961l-2.098 3.092 4.119-.79c-18.4 26.676-41.298 50.413-68.094 70.575-26.347 19.823-55.966 35.845-88.034 47.618-31.54 11.58-64.607 18.751-98.284 21.315-33.998 2.589-67.663.403-100.06-6.495-29.113-6.2-56.763-16.148-82.183-29.567-26.563-14.023-50.615-31.811-71.49-52.87-22.017-22.214-40.598-48.185-55.224-77.193-15.508-30.754-26.736-65.27-33.372-102.59l-2.842.505c6.685 37.595 18.002 72.378 33.636 103.383 14.763 29.277 33.52 55.495 55.752 77.924 21.08 21.268 45.368 39.23 72.191 53.39 25.656 13.544 53.557 23.583 82.93 29.838 23.798 5.068 48.269 7.613 73.056 7.613 9.237 0 18.521-.353 27.826-1.062 33.941-2.584 67.27-9.812 99.06-21.484 32.333-11.87 62.201-28.028 88.774-48.021 27.049-20.352 50.165-44.317 68.742-71.254l.787 4.105 2.099-3.092-1.173-6.112-6.117 1.172z"/>
            <path fill="#FFF" d="M230.844 197.765l4.253.11C141.991 286.478-3.559 318.97-127.853 278.7c-26.696-8.65-51.864-20.52-74.806-35.279a304.913 304.913 0 0 1-64.305-55.396c-40.724-46.442-67.616-105.105-79.931-174.36l-2.842.504c12.408 69.78 39.526 128.913 80.602 175.756a307.783 307.783 0 0 0 64.913 55.921c23.151 14.894 48.546 26.87 75.479 35.597 35.837 11.612 73.428 17.22 111.034 17.22 93.819 0 187.727-34.916 254.726-98.64l-.108 4.125 2.712-2.573.162-6.22-6.227-.162-2.712 2.572z"/>
            <g transform="translate(-364.432 16.217)">
                <mask id="f" fill="#fff">
                    <use xlink:href="#e"/>
                </mask>
                <path fill="#FFF" d="M496.612 261.87l3.91 1.587C449.267 285.012 392.802 295.7 337.07 294.37c-28.551-.682-56.688-4.5-83.63-11.35-27.724-7.048-54.162-17.305-78.58-30.488-43.623-23.551-80.303-55.967-109.022-96.345C34.666 112.36 13.47 59.829 2.842.057L0 .56C10.704 60.757 32.063 113.68 63.484 157.857c28.978 40.743 65.989 73.45 110.004 97.212 24.626 13.296 51.286 23.64 79.24 30.746 27.152 6.902 55.505 10.75 84.273 11.438 3.12.075 6.243.112 9.367.112 53.064 0 106.488-10.738 155.235-31.233l-1.567 3.846 3.445-1.452 2.347-5.764-5.77-2.344-3.446 1.451z" mask="url(#f)"/>
            </g>
        </g>
    </g>
</svg>
