<svg xmlns="http://www.w3.org/2000/svg" xmlns:xlink="http://www.w3.org/1999/xlink" width="339" height="182" viewBox="0 0 339 182">
    <defs>
        <path id="a" d="M0 0h339v182H0z"/>
    </defs>
    <g fill="none" fill-rule="evenodd">
        <mask id="b" fill="#fff">
            <use xlink:href="#a"/>
        </mask>
        <use fill="#FF9E1B" fill-rule="nonzero" xlink:href="#a"/>
        <g fill="#FFF" fill-rule="nonzero" mask="url(#b)">
            <path d="M-264.958-378.759l.578 5.006c-30.116-24.007-49.827-36.416-50.026-36.541l-1.594 2.547c.199.124 19.804 12.47 49.801 36.386l-5.087.585 3.387 2.69 7.152-.826-.825-7.158-3.386-2.689zM-180.641-303.449l.018 5.01c-20.01-20.15-40.862-39.461-62.018-57.42l-1.942 2.29c21.12 17.931 41.94 37.214 61.915 57.334l-5.149.016 3.067 3.049 7.2-.024-.024-7.206-3.067-3.049zM-105.018-213.222a1009.97 1009.97 0 0 0-56.412-65.363l-2.186 2.06a1006.946 1006.946 0 0 1 56.316 65.26l-5.117-.566 2.703 3.376 7.157.79.79-7.162-2.704-3.376-.547 4.98zM-38.468-117.735c-15.133-24.844-31.75-49.455-49.427-73.184l-2.408 1.796c17.647 23.69 34.235 48.26 49.338 73.062l-5.016-1.183 2.274 3.678 7.008 1.652 1.65-7.014-2.274-3.679-1.145 4.872zM16.566-12.29C4.646-39.446-8.906-66.482-23.746-92.687l-2.613 1.482C-11.546-65.048 1.98-38.06 13.872-10.955l-4.82-1.841 1.767 3.948 6.727 2.567 2.565-6.733-1.767-3.948-1.778 4.672zM57.628 103.252a844.96 844.96 0 0 0-29.076-86.845l-2.792 1.108a841.867 841.867 0 0 1 29.012 86.677l-4.51-2.52 1.18 4.163 6.289 3.51 3.507-6.292-1.18-4.162-2.43 4.361zM168.98-117.935a941.387 941.387 0 0 1 32.374-49.301l.889 5.037 2.478-3.545-1.255-7.095-7.09 1.255-2.477 3.545 4.967-.88a945.05 945.05 0 0 0-32.447 49.414l2.561 1.57zM218.079-190.33c17.048-22.812 35.431-45.28 54.66-66.819l.314 5.133 2.864-3.241-.442-7.192-7.186.442-2.864 3.241 5.008-.31c-19.263 21.581-37.68 44.091-54.76 66.945l2.406 1.8zM352.164-336.735l-.262 5.131 3.208-2.9.365-7.196-7.19-.366-3.208 2.9 5.015.254a1014.217 1014.217 0 0 0-60.485 58.945l2.183 2.064a1011.177 1011.177 0 0 1 60.374-58.832M373.436-355.243c30.959-26.136 54.323-42.473 64.592-49.334l-1.043 4.977 3.619-2.368 1.475-7.052-7.048-1.477-3.618 2.368 4.967 1.039c-10.314 6.89-33.794 23.306-64.88 49.55l1.936 2.297zM-254.998-393.594l.735 4.957c-18.988-14.235-30.672-21.582-30.791-21.657l-1.594 2.548c.119.074 11.746 7.386 30.676 21.582l-5.093.754 3.472 2.577 7.122-1.056-1.055-7.127-3.472-2.578zM-172.62-324.168l.164 5.007c-19.887-18.89-40.346-36.786-60.843-53.212l-1.877 2.346c20.462 16.397 40.886 34.265 60.74 53.128l-5.147.165 3.155 2.96 7.196-.234-.234-7.202-3.154-2.958zM-97.421-239.778a1018.967 1018.967 0 0 0-55.976-60.802l-2.124 2.125a1015.685 1015.685 0 0 1 55.875 60.697l-5.121-.39 2.816 3.282 7.18.546.545-7.185-2.816-3.282-.38 5.01zM-30.34-150.976c-15.268-22.839-31.835-45.441-49.273-67.214l-2.343 1.88c17.409 21.736 33.946 44.302 49.186 67.101l-5.055-.973 2.425 3.582 7.07 1.359 1.359-7.076-2.425-3.582-.944 4.923zM30.905-52.677l-1.96-3.856-1.547 4.76C14.688-77.202.493-102.497-14.825-126.995l-2.546 1.594c15.29 24.454 29.458 49.705 42.14 75.085l-4.9-1.6 1.96 3.858 6.845 2.231 2.23-6.85zM72.83 57.079C63.4 29.206 52.34 1.389 39.93-25.64l-2.729 1.255c12.387 26.977 23.423 54.74 32.83 82.56L65.39 55.92l1.416 4.088 6.478 3.144 3.142-6.483-1.416-4.088-2.178 4.498zM92.859 125.853a836.8 836.8 0 0 0-11.537-42.245l-2.875.869a833.936 833.936 0 0 1 11.53 42.237l-4.437-2.645 1.063 4.193 6.187 3.685 3.682-6.191-1.063-4.194-2.55 4.291zM183.295-92.455a919.356 919.356 0 0 1 16.623-28.045l1.2 4.987 2.254-3.69-1.687-7.006-6.999 1.69-2.255 3.69 4.89-1.181a921.923 921.923 0 0 0-16.636 28.07l2.61 1.485zM263.548-211.29l.619 5.103 2.665-3.406-.87-7.153-7.148.87-2.664 3.407 4.98-.608c-17.08 21.617-33.298 44.022-48.226 66.632l2.506 1.657c14.898-22.567 31.088-44.928 48.138-66.503M336.56-293.867l.055 5.128 3.023-3.092-.08-7.205-7.2.079-3.022 3.093 5.032-.058c-19.18 19.45-37.734 39.833-55.162 60.63l2.302 1.931c17.392-20.755 35.91-41.096 55.052-60.506M354.291-315.59l2.079 2.169a997.78 997.78 0 0 1 29.453-27.153 945.53 945.53 0 0 1 29.614-25.152l-.5 5.122 3.339-2.748.699-7.171-7.166-.7-3.34 2.747 4.991.486a948.183 948.183 0 0 0-29.626 25.164 1001.223 1001.223 0 0 0-29.543 27.235M435.339-385.235l1.818 2.392c13.963-10.628 24.406-17.848 30.27-21.766l-1.016 5.048 3.6-2.395 1.42-7.064-7.058-1.421-3.6 2.395 4.913.988c-5.915 3.953-16.384 11.195-30.347 21.823M-213.61-370.776l3.386 2.689 7.153-.825-.825-7.158-3.386-2.69.578 5.006c-30.116-24.006-49.827-36.415-50.027-36.54l-1.593 2.547c.198.125 19.804 12.47 49.801 36.386l-5.087.585zM-127.074-293.17l7.2-.025-.024-7.205-3.067-3.049.018 5.01c-20.01-20.15-40.862-39.461-62.017-57.421l-1.943 2.291c21.12 17.932 41.94 37.213 61.916 57.334l-5.15.016 3.067 3.048zM-52.037-208.455l7.156.79.79-7.162-2.704-3.376-.547 4.98a1010.096 1010.096 0 0 0-56.412-65.362l-2.186 2.06a1007.1 1007.1 0 0 1 56.317 65.26l-5.118-.566 2.704 3.376zM13.97-113.566l7.007 1.652 1.65-7.014-2.274-3.679-1.145 4.872c-15.132-24.842-31.75-49.453-49.427-73.184l-2.408 1.796c17.648 23.691 34.236 48.262 49.338 73.062l-5.016-1.184 2.274 3.68zM74.242-12.29C62.322-39.446 48.77-66.482 33.93-92.687l-2.613 1.482c14.813 26.157 28.34 53.145 40.231 80.25l-4.82-1.841 1.767 3.948 6.727 2.567 2.565-6.733-1.767-3.948-1.778 4.672zM115.304 103.252a844.999 844.999 0 0 0-29.076-86.845l-2.791 1.108a841.786 841.786 0 0 1 29.01 86.677l-4.508-2.52 1.18 4.163 6.288 3.51 3.507-6.292-1.18-4.162-2.43 4.361zM259.045-167.262l.913 5.068 2.464-3.555-1.28-7.09-7.085 1.281-2.465 3.555 4.93-.893c-17.097 24.356-33.078 49.56-47.513 74.956l2.61 1.486c14.406-25.345 30.357-50.5 47.426-74.808M330.73-252.016l2.862-3.241-.441-7.192-7.187.442-2.863 3.24 5.008-.309c-19.264 21.582-37.68 44.092-54.759 66.945l2.405 1.8c17.047-22.81 35.43-45.278 54.66-66.818l.314 5.133zM409.578-331.604l3.208-2.9.366-7.196-7.191-.365-3.208 2.9 5.015.253a1014.262 1014.262 0 0 0-60.485 58.945l2.183 2.064a1011.502 1011.502 0 0 1 60.374-58.832l-.262 5.131zM429.175-357.54l1.937 2.298c30.959-26.137 54.322-42.475 64.592-49.335l-1.042 4.977 3.617-2.368 1.476-7.052-7.047-1.477-3.618 2.368 4.967 1.039c-10.315 6.89-33.796 23.306-64.882 49.55M-203.389-385.41l3.472 2.577 7.123-1.056-1.056-7.127-3.471-2.578.735 4.958c-18.99-14.236-30.673-21.583-30.792-21.658l-1.593 2.547c.118.075 11.745 7.388 30.675 21.583l-5.093.754zM-111.556-314.008l-.233-7.202-3.155-2.959.164 5.008c-19.886-18.889-40.344-36.785-60.843-53.212l-1.877 2.346c20.463 16.398 40.888 34.267 60.74 53.128l-5.147.166 3.155 2.958 7.196-.233zM-36.55-241.505l-2.816-3.282-.379 5.01A1018.807 1018.807 0 0 0-95.72-300.58l-2.124 2.125a1015.984 1015.984 0 0 1 55.875 60.697l-5.12-.39 2.816 3.281 7.179.547.545-7.185zM30.705-152.317l-2.425-3.581-.943 4.922c-15.27-22.839-31.835-45.441-49.274-67.214l-2.343 1.88c17.41 21.736 33.946 44.301 49.185 67.102l-5.054-.974 2.425 3.581 7.07 1.36 1.36-7.076zM79.505-48.057l6.846 2.231 2.23-6.851-1.96-3.856-1.548 4.759c-12.709-25.427-26.904-50.722-42.222-75.22l-2.545 1.594c15.29 24.454 29.457 49.704 42.14 75.085l-4.9-1.599 1.959 3.857zM130.507 57.079c-9.43-27.873-20.491-55.69-32.9-82.719l-2.73 1.255c12.387 26.977 23.423 54.74 32.83 82.56l-4.642-2.255 1.416 4.088 6.478 3.144 3.142-6.483-1.416-4.088-2.178 4.498zM150.535 125.853a837.323 837.323 0 0 0-11.537-42.245l-2.875.869a833.93 833.93 0 0 1 11.53 42.237l-4.437-2.645 1.063 4.193 6.187 3.685 3.683-6.191-1.064-4.194-2.55 4.291zM216.475-46.27c12.366-25.072 26.198-50.038 41.124-74.246l1.212 5.004 2.25-3.695-1.7-7.002-6.996 1.7-2.25 3.695 4.869-1.184c-14.953 24.258-28.81 49.274-41.202 74.397l2.693 1.33zM321.843-206.187l2.664-3.406-.87-7.153-7.146.87-2.665 3.407 4.981-.608c-17.079 21.614-33.298 44.019-48.226 66.632l2.506 1.657c14.899-22.57 31.088-44.931 48.137-66.502l.619 5.103zM394.29-288.739l3.024-3.092-.08-7.205-7.199.079-3.023 3.092 5.032-.057c-19.18 19.451-37.734 39.834-55.162 60.63l2.301 1.931c17.393-20.754 35.91-41.096 55.053-60.506l.055 5.128zM411.967-315.59l2.078 2.169a999.225 999.225 0 0 1 29.454-27.153 946.82 946.82 0 0 1 29.614-25.152l-.5 5.122 3.338-2.748.7-7.171-7.166-.7-3.339 2.747 4.99.486a949.465 949.465 0 0 0-29.626 25.164 1001.98 1001.98 0 0 0-29.543 27.235M493.015-385.235l1.818 2.392c13.96-10.626 24.404-17.847 30.27-21.766l-1.015 5.048 3.599-2.395 1.42-7.064-7.058-1.421-3.6 2.395 4.913.988c-5.916 3.954-16.387 11.198-30.347 21.823M-155.934-370.776l3.386 2.689 7.153-.825-.824-7.158-3.387-2.69.578 5.006c-30.116-24.006-49.827-36.415-50.027-36.54l-1.593 2.547c.198.125 19.804 12.47 49.801 36.386l-5.087.585zM-67.315-296.235l-5.15.015 3.067 3.05 7.2-.025-.024-7.205-3.067-3.049.018 5.01c-20.009-20.15-40.862-39.461-62.017-57.421l-1.943 2.292c21.12 17.93 41.94 37.213 61.916 57.333M2.936-211.83l2.703 3.375 7.156.79.79-7.162-2.704-3.376-.547 4.98a1010.127 1010.127 0 0 0-56.412-65.362l-2.187 2.06a1007.102 1007.102 0 0 1 56.318 65.26l-5.117-.566zM69.37-117.245l2.276 3.68 7.008 1.651 1.65-7.014-2.275-3.679-1.145 4.872c-15.131-24.842-31.75-49.453-49.427-73.184l-2.408 1.796c17.648 23.691 34.237 48.262 49.338 73.062l-5.016-1.184zM131.918-12.29c-11.92-27.156-25.472-54.192-40.312-80.397l-2.613 1.482c14.814 26.157 28.34 53.145 40.231 80.25l-4.82-1.841 1.767 3.948 6.727 2.567 2.565-6.733-1.767-3.948-1.778 4.672zM172.98 103.252a844.996 844.996 0 0 0-29.076-86.845l-2.791 1.108a842.027 842.027 0 0 1 29.011 86.677l-4.51-2.52 1.181 4.163 6.288 3.51 3.507-6.292-1.18-4.162-2.43 4.361zM226.737-7.254c8.684-20.05 18.307-40.117 28.608-59.69l1.532 4.89 2-3.835-2.155-6.874-6.87 2.156-2 3.835 4.803-1.51c-10.323 19.62-19.969 39.734-28.673 59.832l2.755 1.196zM318.818-172.84l-7.085 1.282-2.464 3.554 4.93-.892c-17.098 24.355-33.078 49.56-47.514 74.956l2.61 1.486c14.407-25.346 30.358-50.501 47.426-74.807l.913 5.067 2.465-3.555-1.28-7.09zM388.091-257.149l.314 5.133 2.864-3.241-.442-7.192-7.186.442-2.864 3.241 5.008-.31c-19.26 21.578-37.677 44.088-54.759 66.945l2.405 1.8c17.05-22.814 35.434-45.282 54.66-66.818M470.462-334.504l.365-7.196-7.19-.366-3.208 2.9 5.015.254a1014.376 1014.376 0 0 0-60.485 58.945l2.182 2.064a1011.935 1011.935 0 0 1 60.375-58.833l-.262 5.132 3.208-2.9zM486.851-357.54l1.937 2.298c30.959-26.137 54.323-42.475 64.592-49.335l-1.042 4.977 3.618-2.368 1.475-7.052-7.047-1.477-3.619 2.368 4.967 1.039c-10.313 6.89-33.795 23.306-64.88 49.55M-145.713-385.41l3.472 2.577 7.122-1.056-1.055-7.127-3.471-2.578.735 4.958c-18.99-14.236-30.673-21.583-30.792-21.658l-1.593 2.547c.118.075 11.745 7.388 30.675 21.583l-5.093.754zM-119.825-370.027c20.464 16.398 40.888 34.267 60.74 53.128l-5.145.166 3.154 2.958 7.196-.234-.233-7.2-3.154-2.96.163 5.008c-19.886-18.89-40.344-36.786-60.844-53.212l-1.877 2.346zM13.401-234.866l7.18.546.546-7.185-2.817-3.282-.379 5.01a1018.71 1018.71 0 0 0-55.976-60.803l-2.124 2.125a1015.909 1015.909 0 0 1 55.875 60.698l-5.12-.392 2.815 3.283zM79.952-146.6l7.07 1.359 1.36-7.076-2.426-3.581-.943 4.922c-15.27-22.84-31.837-45.443-49.274-67.214l-2.343 1.88c17.408 21.734 33.945 44.3 49.185 67.101l-5.054-.973 2.425 3.581zM137.18-48.057l6.847 2.231 2.23-6.851-1.96-3.856-1.548 4.759c-12.709-25.427-26.904-50.722-42.222-75.22l-2.545 1.594c15.29 24.454 29.458 49.704 42.14 75.085l-4.9-1.599 1.959 3.857zM188.182 57.079c-9.428-27.87-20.489-55.687-32.9-82.719l-2.729 1.255c12.388 26.98 23.425 54.745 32.83 82.56l-4.643-2.255 1.417 4.088 6.478 3.144 3.142-6.483-1.416-4.088-2.179 4.498zM208.211 125.853a837.717 837.717 0 0 0-11.537-42.245l-2.875.869a834.171 834.171 0 0 1 11.53 42.237l-4.437-2.645 1.063 4.193 6.187 3.685 3.683-6.191-1.063-4.194-2.551 4.291zM242.443 26.172a860.84 860.84 0 0 1 18.673-44.791l1.872 4.822 1.74-3.96-2.609-6.715-6.71 2.612-1.74 3.96 4.644-1.81a864.461 864.461 0 0 0-18.674 44.805l2.804 1.077zM317.037-126.209l-6.996 1.7-2.25 3.695 4.87-1.184c-14.952 24.254-28.81 49.27-41.203 74.397l2.693 1.33c12.368-25.075 26.2-50.04 41.124-74.245l1.212 5.004 2.25-3.695-1.7-7.002zM374.166-215.875l-2.664 3.406 4.98-.608c-17.08 21.618-33.299 44.023-48.225 66.632l2.506 1.656c14.896-22.565 31.086-44.926 48.136-66.502l.62 5.104 2.665-3.406-.87-7.153-7.148.87zM454.99-291.831l-.08-7.205-7.199.079-3.023 3.093 5.032-.058c-19.18 19.45-37.733 39.833-55.161 60.63l2.3 1.931c17.393-20.755 35.91-41.096 55.054-60.505l.054 5.127 3.023-3.092zM533.628-363.352l.699-7.171-7.166-.7-3.34 2.747 4.991.486a947.49 947.49 0 0 0-29.626 25.164 1001.237 1001.237 0 0 0-29.542 27.235l2.078 2.17a998.485 998.485 0 0 1 29.453-27.154 945.508 945.508 0 0 1 29.614-25.15l-.5 5.12 3.339-2.747zM550.691-385.235l1.819 2.392c13.962-10.628 24.405-17.848 30.27-21.766l-1.016 5.048 3.599-2.395 1.42-7.064-7.058-1.421-3.6 2.395 4.913.988c-5.915 3.953-16.384 11.195-30.347 21.823M-98.258-370.776l3.386 2.689 7.153-.825-.824-7.158-3.387-2.69.578 5.006c-30.116-24.006-49.827-36.415-50.027-36.54l-1.593 2.547c.198.125 19.804 12.47 49.802 36.386l-5.088.585zM-9.64-296.235l-5.149.015 3.067 3.05 7.2-.025-.024-7.205-3.067-3.049.018 5.01c-20.009-20.15-40.862-39.461-62.017-57.421l-1.943 2.292c21.12 17.93 41.94 37.213 61.916 57.333M60.612-211.83l2.703 3.375 7.156.79.79-7.162-2.704-3.376-.547 4.98a1010.445 1010.445 0 0 0-56.412-65.362l-2.187 2.06a1007.151 1007.151 0 0 1 56.318 65.26l-5.117-.566zM127.047-117.245l2.274 3.68 7.009 1.651 1.65-7.014-2.275-3.679-1.145 4.872c-15.132-24.843-31.75-49.454-49.427-73.184l-2.408 1.796c17.648 23.69 34.236 48.261 49.338 73.062l-5.016-1.184zM189.594-12.29c-11.92-27.157-25.473-54.193-40.312-80.397l-2.613 1.482c14.813 26.156 28.338 53.144 40.23 80.25l-4.82-1.841 1.768 3.948 6.728 2.567 2.564-6.733-1.767-3.948-1.778 4.672zM230.656 103.253a844.843 844.843 0 0 0-29.076-86.846l-2.792 1.108a841.789 841.789 0 0 1 29.012 86.677l-4.509-2.52 1.18 4.163 6.288 3.51 3.508-6.292-1.181-4.162-2.43 4.362zM255.6 69.129a843.863 843.863 0 0 1 9.25-27.042l2.19 4.635 1.455-4.075-3.081-6.512-6.508 3.083-1.455 4.074 4.55-2.157a846.078 846.078 0 0 0-9.258 27.07l2.857.924zM274.908 15.591c11.117-27.851 23.94-55.614 38.123-82.561l1.557 4.915 1.99-3.842-2.18-6.867-6.862 2.18-1.988 3.842 4.766-1.516c-14.207 27.005-27.054 54.825-38.195 82.734l2.79 1.115zM369.41-171.558l-2.465 3.555 4.93-.894c-17.1 24.36-33.08 49.564-47.515 74.957l2.61 1.486c14.406-25.343 30.358-50.498 47.427-74.808l.914 5.067 2.464-3.554-1.28-7.09-7.086 1.281zM441.317-262.007l-2.864 3.24 5.007-.308c-19.263 21.58-37.679 44.091-54.757 66.944l2.405 1.8c17.046-22.81 35.43-45.278 54.66-66.818l.314 5.133 2.862-3.241-.441-7.192-7.186.442zM528.138-334.504l.365-7.196-7.19-.366-3.208 2.9 5.015.254a1014.405 1014.405 0 0 0-60.485 58.945l2.183 2.064a1011.356 1011.356 0 0 1 60.374-58.832l-.262 5.131 3.208-2.9zM544.527-357.54l1.937 2.298c30.959-26.137 54.323-42.475 64.592-49.335l-1.043 4.977 3.619-2.368 1.475-7.052-7.047-1.477-3.619 2.368 4.967 1.039c-10.313 6.89-33.794 23.306-64.88 49.55M-88.036-385.41l3.472 2.577 7.121-1.056-1.055-7.127-3.471-2.578.735 4.958c-18.99-14.236-30.672-21.583-30.792-21.658l-1.593 2.547c.118.075 11.745 7.388 30.675 21.583l-5.092.754zM-6.554-316.733l3.154 2.958 7.196-.234-.234-7.2-3.153-2.96.163 5.008c-19.886-18.89-40.344-36.786-60.843-53.212l-1.877 2.346c20.463 16.398 40.887 34.267 60.74 53.128l-5.146.166zM68.261-238.149l2.816 3.283 7.18.546.546-7.185-2.817-3.282-.379 5.01a1018.869 1018.869 0 0 0-55.976-60.803l-2.124 2.125a1015.729 1015.729 0 0 1 55.875 60.698l-5.12-.392zM135.203-150.182l2.425 3.582 7.07 1.359 1.36-7.076-2.426-3.582-.943 4.923c-15.27-22.839-31.835-45.441-49.274-67.214l-2.343 1.88c17.41 21.736 33.946 44.302 49.186 67.101l-5.055-.973zM192.897-51.914l1.96 3.857 6.846 2.231 2.23-6.85-1.96-3.857-1.547 4.758c-12.711-25.43-26.907-50.724-42.223-75.22l-2.545 1.595c15.289 24.45 29.456 49.701 42.14 75.086l-4.9-1.6zM245.859 57.079c-9.43-27.873-20.49-55.69-32.9-82.719l-2.73 1.255c12.387 26.978 23.424 54.742 32.83 82.56l-4.642-2.255 1.416 4.088 6.478 3.144 3.142-6.483-1.416-4.088-2.178 4.498zM272.43 87.54l-1.188 4.159 4.362-2.426a837.483 837.483 0 0 0-9.786 36.281 837.778 837.778 0 0 0-11.468-41.948l-2.875.87a833.876 833.876 0 0 1 12.882 47.82l1.461 6.147 1.461-6.148a832.795 832.795 0 0 1 11.248-42.313l2.506 4.517 1.188-4.16-3.497-6.299-6.293 3.5zM313.079-21.875l-1.75 3.955 4.666-1.805C303.865 7.227 293.069 34.937 283.9 62.68l2.85.943c9.15-27.683 19.925-55.333 32.033-82.227l1.856 4.81 1.75-3.956-2.595-6.721-6.716 2.597zM367.717-124.508l-2.25 3.694 4.87-1.184c-14.952 24.254-28.81 49.27-41.203 74.397l2.693 1.33c12.368-25.075 26.2-50.04 41.124-74.245l1.213 5.004 2.248-3.695-1.698-7.002-6.997 1.7zM431.843-215.875l-2.665 3.406 4.981-.608c-17.075 21.61-33.295 44.015-48.226 66.631l2.506 1.657c14.902-22.572 31.091-44.933 48.137-66.501l.619 5.103 2.665-3.406-.87-7.153-7.147.87zM505.388-298.957l-3.023 3.092 5.031-.056c-19.18 19.45-37.733 39.832-55.161 60.63l2.3 1.93c17.393-20.755 35.91-41.096 55.053-60.506l.055 5.128 3.023-3.092-.079-7.205-7.2.079zM581.498-368.476l4.99.486a948.184 948.184 0 0 0-29.626 25.164 1001.223 1001.223 0 0 0-29.542 27.235l2.078 2.17a998.466 998.466 0 0 1 29.453-27.153 945.53 945.53 0 0 1 29.614-25.152l-.5 5.122 3.339-2.748.699-7.171-7.166-.7-3.339 2.747zM637.4-410.442l-3.598 2.396 4.912.987c-5.916 3.955-16.387 11.198-30.347 21.824l1.818 2.392c13.96-10.625 24.404-17.847 30.27-21.765l-1.016 5.047 3.6-2.395 1.42-7.065-7.058-1.42z"/>
        </g>
    </g>
</svg>
