<svg xmlns="http://www.w3.org/2000/svg" xmlns:xlink="http://www.w3.org/1999/xlink" width="339" height="182" viewBox="0 0 339 182">
    <defs>
        <path id="a" d="M0 0h339v182H0z"/>
        <path id="c" d="M.097.336h39.03v11.06H.097z"/>
    </defs>
    <g fill="none" fill-rule="evenodd">
        <mask id="b" fill="#fff">
            <use xlink:href="#a"/>
        </mask>
        <use fill="#00FA9B" xlink:href="#a"/>
        <g mask="url(#b)">
            <g transform="translate(606.879 247.982)">
                <mask id="d" fill="#fff">
                    <use xlink:href="#c"/>
                </mask>
                <path fill="#FFF" d="M67.472 3.793l-1.01 5.165-3.02 1.037.697-3.564-.006.002-63.12 21.669-.916-2.673L63.223 3.76 60.49 1.372 63.51.336z" mask="url(#d)"/>
            </g>
            <path fill="#FFF" d="M600.27 255.028l1 2.642 44.736-16.98v-3.022zM586.792 256.78l2.81 2.298-.792.3h4.975l.065-.402-4.071-3.329zM592.68 236.028l1.084 2.608 52.242-21.772v-3.06zM579.264 238.213l2.882 2.204-45.497 18.961h7.344l39.232-16.35.005-.002-.467 3.602 2.948-1.23.677-5.218-4.175-3.197zM642.299 187.587l2.95 2.112-60.756 27.64 1.168 2.572 60.345-27.452v-5.622l-.8-.573zM571.155 219.953l2.908-1.323 4.275 3.06-.51 5.239-2.907 1.322.352-3.614-.005.002-60.751 27.638-1.168-2.573 60.757-27.64zM500.011 252.318l2.951 2.112-10.877 4.948h6.822l5.217-2.373.005-.002-.231 2.375h2.602l.185-.084.51-5.238-4.276-3.06zM639.783 168.89l-.342 5.251-2.864 1.416.236-3.625-.004.003-59.836 29.573-1.249-2.534 59.84-29.575-3.016-2.016 2.864-1.416zM562.476 202.015l2.865-1.416 4.37 2.923-.34 5.251-2.865 1.416.237-3.624-.006.002-59.835 29.573-1.25-2.533 59.841-29.576zM492.405 236.647l3.017 2.016-41.913 20.715h6.375l36.782-18.178.005-.003-.236 3.624 2.864-1.416.341-5.251-4.37-2.922zM629.447 148.822l-.173 5.26-2.818 1.507.12-3.63-.005.002-58.858 31.478-1.329-2.492 58.863-31.48-3.08-1.919 2.817-1.507zM553.24 184.411l2.818-1.507 4.462 2.78-.173 5.26-2.818 1.508.12-3.63-.004.002-58.858 31.478-1.33-2.492 58.863-31.48zM484.314 221.274l2.817-1.506 4.463 2.78-.174 5.26-2.817 1.507.12-3.63-.005.002-58.858 31.478-1.33-2.492 58.864-31.48zM415.387 258.137l1.993 1.241h5.235l-4.41-2.748zM618.487 129.137l-.005 5.262-2.768 1.597.004-3.632-.005.003-57.82 33.35-1.408-2.448 57.825-33.354-3.14-1.818 2.768-1.596zM543.459 167.153l2.768-1.596 4.549 2.636-.006 5.262-2.767 1.597.004-3.632-.005.003-57.82 33.35-1.409-2.448 57.826-33.353zM475.748 206.21l2.767-1.597 4.55 2.636-.006 5.262-2.767 1.597.004-3.632-.005.003-57.82 33.35-1.409-2.447 57.825-33.354zM408.036 245.266l3.14 1.818-21.314 12.294h5.652l17.066-9.843.005-.003-.004 3.632 2.767-1.597.005-5.262-4.55-2.636zM606.917 109.848l.163 5.26-2.715 1.685-.112-3.63-.005.003-56.723 35.19-1.486-2.403 56.728-35.192-3.197-1.717 2.715-1.684zM533.144 150.254l2.715-1.685 4.631 2.489.164 5.26-2.715 1.684-.112-3.63-.005.003-56.723 35.19-1.486-2.403 56.727-35.192zM466.718 191.463l2.715-1.685 4.631 2.489.164 5.26-2.715 1.684-.113-3.63-.004.003-56.723 35.19-1.486-2.403 56.727-35.192zM400.292 232.671l3.196 1.717-40.283 24.99h5.359l36.406-22.585.004-.003.112 3.63 2.716-1.684-.164-5.26-4.631-2.49zM594.75 90.972l.332 5.252-2.66 1.77-.228-3.624-.005.003-55.567 36.992-1.562-2.353 55.572-36.995-3.25-1.613 2.66-1.77zM522.31 133.724l2.659-1.771 4.709 2.339.331 5.252-2.66 1.77-.228-3.624-.004.003-55.568 36.992-1.562-2.354 55.572-36.994zM457.236 177.044l2.66-1.771 4.709 2.339.331 5.252-2.66 1.77-.228-3.624-.004.003-55.568 36.991-1.562-2.353 55.572-36.994zM392.163 220.363l3.25 1.613-55.572 36.995.27.407h4.215l52.644-35.046.005-.003.229 3.625 2.66-1.771-.332-5.252-4.709-2.338zM582.002 72.521l.5 5.239-2.602 1.855-.344-3.615-.005.003-54.354 38.756-1.637-2.302 54.36-38.759-3.3-1.508 2.601-1.855zM510.967 117.576l2.601-1.855 4.781 2.186.5 5.239-2.602 1.855-.344-3.616-.004.003-54.355 38.756-1.637-2.301 54.36-38.76zM447.314 162.962l2.602-1.856 4.78 2.187.5 5.238-2.602 1.855-.344-3.615-.004.003-54.355 38.756-1.637-2.301 54.36-38.76zM383.66 208.347l2.603-1.855 4.78 2.186.5 5.24-2.601 1.854-.344-3.615-.005.003-54.355 38.756-1.636-2.302 54.358-38.759zM568.686 54.51l.667 5.22-2.54 1.938-.46-3.603-.005.004-53.085 40.48-1.71-2.248 53.09-40.484-3.346-1.4 2.54-1.939zM499.13 101.821l2.54-1.938 4.85 2.032.666 5.22-2.54 1.938-.46-3.603-.005.004-53.086 40.48-1.71-2.248 53.09-40.483zM436.962 149.227l2.541-1.938 4.849 2.031.667 5.22-2.54 1.938-.46-3.603-.005.004-53.086 40.48-1.71-2.247 53.09-40.484zM374.795 196.632l2.541-1.938 4.849 2.032.667 5.22-2.541 1.937-.46-3.602-.004.003-53.087 40.48-1.71-2.247 53.091-40.484zM554.818 36.952l.834 5.196-2.478 2.018-.574-3.586-.005.004-51.763 42.163-1.78-2.192 51.767-42.167-3.39-1.292 2.478-2.019zM486.812 86.471l2.477-2.018 4.911 1.875.835 5.196-2.479 2.018-.575-3.586-.004.004-51.763 42.163-1.78-2.191L490.2 87.764zM426.194 135.847l2.477-2.018 4.912 1.875.834 5.196-2.478 2.018-.575-3.586-.005.003-51.763 42.164-1.78-2.192 51.767-42.166zM365.576 185.223l2.478-2.018 4.91 1.875.835 5.196-2.478 2.018-.575-3.585-.005.003-51.762 42.163-1.78-2.192 51.766-42.167zM540.412 19.861l1 5.167L539 27.125l-.689-3.566-.005.004-50.386 43.802-1.85-2.133 50.391-43.807-3.429-1.184 2.412-2.096zM474.026 71.538l2.412-2.097 4.968 1.716 1 5.167-2.412 2.097-.69-3.566-.003.003-50.387 43.803-1.85-2.134 50.391-43.806zM415.02 122.834l2.412-2.097 4.968 1.716 1 5.167-2.412 2.097-.69-3.566-.003.004-50.387 43.802-1.85-2.134 50.39-43.806zM356.013 174.13l2.412-2.097 4.969 1.716 1 5.167-2.412 2.097-.69-3.566-.003.003-50.387 43.803-1.85-2.134 50.39-43.806zM525.485 3.25l1.164 5.132-2.343 2.173-.803-3.542-.004.004-48.96 45.398-1.916-2.073L521.585 4.94l-3.465-1.074 2.344-2.172zM460.786 57.03l2.344-2.172 5.02 1.556 1.165 5.131-2.343 2.174-.803-3.542-.004.004-48.959 45.397-1.917-2.073 48.963-45.401zM403.453 110.194l2.343-2.173 5.021 1.556 1.165 5.132-2.344 2.173-.803-3.542-.004.004-48.959 45.397-1.917-2.073 48.963-45.4zM346.119 163.357l2.344-2.173 5.02 1.556 1.165 5.132-2.343 2.173-.804-3.541-.004.003-48.958 45.398-1.918-2.073 48.963-45.402zM510.05-12.867l1.33 5.092-2.274 2.247-.916-3.514-.004.004-47.48 46.945-1.983-2.01 47.484-46.95-3.498-.961 2.273-2.247zM447.107 42.962l2.273-2.247 5.068 1.394 1.328 5.092-2.272 2.247-.916-3.514-.005.004-47.48 46.945-1.983-2.01 47.485-46.95zM391.505 97.938l2.272-2.247 5.069 1.394 1.328 5.092-2.273 2.247-.916-3.514-.004.003-47.48 46.946-1.983-2.01 47.485-46.95zM335.902 152.914l2.273-2.247 5.068 1.394 1.329 5.092-2.273 2.247-.917-3.514-.004.003-47.48 46.946-1.983-2.01 47.485-46.95zM494.126-28.478l1.491 5.046-2.2 2.32-1.028-3.484-.004.004-45.953 48.445-2.046-1.946 45.957-48.449-3.527-.848 2.2-2.32zM433.002 29.342l2.2-2.32 5.11 1.232 1.491 5.046-2.2 2.32-1.028-3.484-.004.004-45.953 48.445-2.046-1.945 45.957-48.45zM379.188 86.074l2.2-2.319 5.11 1.23 1.49 5.047-2.199 2.32-1.028-3.484-.004.004-45.953 48.446-2.046-1.946 45.957-48.45zM325.374 142.806l2.2-2.319 5.11 1.231 1.49 5.047-2.2 2.319-1.027-3.483-.005.004-45.953 48.445-2.046-1.946 45.958-48.45zM477.612-43.536l1.652 4.996-2.125 2.389L476-39.6l-.004.004-44.378 49.894-2.108-1.878 44.383-49.9-3.552-.734 2.124-2.389zM418.37 16.216l2.124-2.388 5.148 1.066 1.651 4.996-2.124 2.388-1.14-3.448-.003.005-44.379 49.895-2.107-1.88 44.382-49.898zM366.4 74.647l2.124-2.389 5.147 1.066 1.651 4.996-2.124 2.389-1.139-3.448-.004.004-44.378 49.894-2.108-1.878 44.383-49.9zM314.43 133.077l2.124-2.389 5.146 1.066 1.652 4.997-2.124 2.388-1.14-3.448-.003.004-44.379 49.894-2.107-1.878 44.382-49.9zM460.595-58.048l1.81 4.94-2.046 2.455-1.25-3.41-.003.005-42.758 51.293-2.167-1.81 42.762-51.298-3.574-.62 2.047-2.456zM403.296 3.574l2.047-2.455 5.178.9 1.811 4.941-2.047 2.456-1.249-3.41-.003.004-42.76 51.293-2.165-1.81L406.87 4.195zM353.223 63.642l2.046-2.455 5.18.9 1.81 4.94-2.047 2.456-1.25-3.41-.003.005-42.758 51.293-2.167-1.81 42.763-51.298zM303.15 123.71l2.046-2.455 5.178.9 1.811 4.94-2.047 2.456-1.248-3.41-.004.005-42.759 51.293-2.166-1.81 42.762-51.299zM443.137-72.018l1.967 4.88-1.966 2.52-1.358-3.369-.003.005-41.095 52.64-2.223-1.74 41.098-52.645-3.592-.505 1.967-2.52zM387.84-8.588l1.968-2.52 5.204.734 1.968 4.88-1.968 2.52-1.357-3.368-.003.004-41.095 52.64-2.223-1.74 41.098-52.645zM339.715 53.056l1.967-2.52 5.205.734 1.968 4.88-1.967 2.52-1.357-3.368-.004.004-41.095 52.639-2.223-1.74 41.098-52.644zM291.59 114.7l1.968-2.52 5.204.734 1.968 4.88-1.967 2.52-1.358-3.368-.003.004-41.095 52.639-2.223-1.74 41.099-52.644zM425.255-85.433l2.123 4.814-1.885 2.581-1.465-3.322-.003.004-39.389 53.931-2.277-1.668 39.392-53.935-3.606-.39L420.03-86zM372.018-20.261l1.885-2.582 5.226.566 2.122 4.815-1.885 2.581-1.464-3.323-.004.005-39.389 53.931-2.277-1.668 39.392-53.935zM325.89 42.895l1.886-2.581 5.226.566 2.122 4.814-1.885 2.582-1.464-3.323-.004.005-39.388 53.931-2.278-1.668 39.392-53.936zM279.764 106.052l1.885-2.581 5.226.566 2.123 4.814-1.886 2.582-1.464-3.323-.004.004-39.388 53.931-2.278-1.668 39.392-53.934zM406.968-98.283l2.276 4.744-1.802 2.64-1.57-3.273-.003.004L368.226-39l-2.33-1.594 37.646-55.172-3.617-.274 1.802-2.641zM355.844-31.436l1.801-2.64 5.241.398 2.276 4.744-1.801 2.64-1.57-3.274-.004.005-37.642 55.167-2.33-1.594 37.645-55.172zM311.762 33.169l1.802-2.64 5.24.398 2.277 4.743-1.802 2.64-1.57-3.273-.003.005-37.642 55.167-2.33-1.594 37.645-55.172zM267.68 97.774l1.803-2.641 5.24.398 2.276 4.744-1.801 2.64-1.57-3.273-.004.004-37.642 55.167-2.33-1.593 37.645-55.172zM388.292-110.555l2.426 4.668-1.716 2.697-1.674-3.222-.003.005-35.857 56.347-2.38-1.518 35.86-56.352-3.624-.158 1.717-2.697zM339.333-42.102l1.717-2.697 5.25.23 2.427 4.668-1.716 2.697-1.674-3.222-.003.005-35.857 56.347-2.38-1.518 35.86-56.352zM297.343 23.885l1.716-2.698 5.251.23 2.427 4.668-1.717 2.698-1.674-3.222-.003.004-35.857 56.348-2.38-1.519 35.86-56.352zM255.352 89.87l1.717-2.697 5.25.23 2.427 4.668-1.716 2.698-1.675-3.222-.003.005-35.857 56.346-2.379-1.518 35.86-56.351zM369.245-122.24l2.574 4.588-1.629 2.751-1.776-3.166-.003.004-34.035 57.47-2.427-1.442 34.037-57.474-3.626-.041 1.63-2.751zM322.503-52.25l1.629-2.751 5.256.061 2.575 4.588-1.63 2.751-1.776-3.166-.003.004-34.035 57.47-2.426-1.442L326.13-52.21zM282.646 15.05l1.63-2.751 5.255.061 2.574 4.588-1.629 2.75-1.776-3.166-.003.005-34.035 57.469-2.427-1.441 34.038-57.474zM242.79 82.35l1.628-2.751 5.256.06 2.575 4.589-1.63 2.75-1.776-3.166-.003.005-34.035 57.469-2.426-1.442 34.037-57.473zM349.845-133.326l2.72 4.503-1.54 2.801-1.877-3.107-.003.005-32.177 58.532-2.472-1.363 32.18-58.537-3.626.075 1.54-2.802zM305.368-61.872l1.54-2.802 5.255-.108 2.72 4.503-1.54 2.802-1.877-3.108-.003.005-32.177 58.531-2.472-1.362 32.18-58.536zM267.685 6.672l1.54-2.802 5.256-.107 2.72 4.503-1.54 2.801-1.877-3.107-.003.004-32.178 58.532-2.472-1.363 32.181-58.536zM230.003 75.216l1.54-2.801 5.256-.108 2.72 4.503-1.54 2.802-1.877-3.108-.003.004-32.177 58.532-2.473-1.362 32.18-58.537zM330.11-143.804l2.864 4.413-1.45 2.85-1.976-3.046-.002.005-30.288 59.534-2.514-1.282 30.29-59.54-3.622.192 1.45-2.85zM287.943-70.96l1.45-2.85 5.249-.276 2.863 4.414-1.45 2.85-1.975-3.047-.003.005-30.287 59.535-2.515-1.283 30.29-59.539zM252.475-1.241l1.45-2.85 5.248-.276 2.863 4.413-1.45 2.85-1.975-3.046-.002.005-30.288 59.534-2.514-1.282 30.29-59.54zM217.006 68.477l1.45-2.85 5.249-.276 2.863 4.414-1.45 2.85-1.975-3.046-.003.005-30.288 59.534-2.514-1.283 30.29-59.539zM310.06-153.664l3.003 4.32-1.358 2.894-2.072-2.98-.002.004-28.366 60.476-2.555-1.201 28.369-60.481-3.614.308 1.358-2.895zM270.246-79.504l1.358-2.894 5.237-.445 3.003 4.32-1.358 2.894-2.072-2.98-.002.004-28.366 60.476-2.554-1.201 28.368-60.48zM237.028-8.683l1.357-2.895 5.237-.444 3.003 4.32-1.358 2.894-2.071-2.98-.003.004-28.366 60.476-2.554-1.201L240.641-8.99zM203.809 62.138l1.357-2.894 5.238-.445 3.003 4.32-1.358 2.894-2.072-2.981-.002.005-28.367 60.476-2.554-1.201 28.369-60.481zM291.182-156.282l.404.544.234-.544h-.638zm-5.855 0l-24.916 57.873 2.591 1.118 25.398-58.99h-3.073zM252.292-87.496l1.265-2.937 5.22-.612 3.14 4.221-1.265 2.937-2.167-2.914-.002.006-26.415 61.355-2.592-1.119 26.418-61.36zM221.357-15.645l1.265-2.937 5.22-.612 3.14 4.22-1.265 2.937-2.166-2.913-.002.005-26.416 61.355-2.591-1.118 26.418-61.36zM190.423 56.206l1.264-2.937 5.22-.613 3.14 4.221-1.264 2.937-2.167-2.913-.002.005-26.415 61.355-2.592-1.119 26.418-61.36zM261.59-156.282l-19.728 50.185 2.626 1.035 20.133-51.22zM234.097-94.928l1.17-2.977 5.198-.779 3.273 4.118-1.17 2.976-2.258-2.842-.002.005-24.438 62.171-2.626-1.035 24.44-62.176zM205.478-22.122l1.17-2.976 5.198-.78 3.273 4.118-1.17 2.976-2.258-2.841-.002.005-24.438 62.17-2.626-1.034 24.44-62.176zM176.86 50.685l1.17-2.976 5.197-.78 3.273 4.118-1.17 2.976-2.257-2.842-.003.005-24.438 62.17-2.626-1.034 24.44-62.176zM238.44-156.282l-15.358 43.076 2.657.95 15.698-44.026zM215.678-101.794l1.074-3.012 5.17-.946 3.404 4.01-1.074 3.013-2.349-2.768-.002.005-22.435 62.923-2.658-.95 22.438-62.928zM189.405-28.106l1.074-3.012 5.17-.946 3.403 4.01-1.074 3.012-2.348-2.768-.002.005-22.436 62.924-2.657-.95 22.437-62.929zM163.131 45.581l1.074-3.012 5.17-.946 3.404 4.01-1.074 3.013-2.349-2.768-.002.005-22.435 62.923-2.658-.95L166.7 44.927zM215.814-156.282l-11.728 36.553 2.686.864 12.005-37.417zM197.051-108.085l.977-3.045 5.137-1.111 3.53 3.9-.977 3.044-2.435-2.691-.002.005-20.41 63.611-2.687-.864 20.412-63.616zM173.15-33.592l.977-3.045 5.137-1.111 3.53 3.9-.977 3.044-2.435-2.692-.002.006-20.41 63.61-2.687-.863 20.412-63.617zM149.248 40.9l.977-3.044 5.138-1.111 3.53 3.899-.977 3.045-2.436-2.692-.001.006-20.41 63.61-2.687-.864 20.412-63.616zM193.646-156.282l-8.755 30.624 2.713.778 8.977-31.402zM178.232-113.794l.88-3.075 5.099-1.276 3.653 3.784-.88 3.075-2.52-2.612-.002.005L166.1-49.659l-2.713-.777 18.364-64.24zM156.728-38.573l.879-3.074 5.1-1.276 3.652 3.784-.879 3.075-2.52-2.612-.002.005-18.363 64.234-2.713-.778 18.365-64.239zM135.224 36.649l.878-3.075 5.1-1.275 3.653 3.783-.879 3.076-2.52-2.613-.002.006-18.363 64.233-2.713-.777 18.364-64.239zM171.877-156.282l-6.362 25.296 2.736.69 6.536-25.986zM159.239-118.915l.78-3.102 5.056-1.438 3.772 3.665-.78 3.101-2.603-2.53-.002.006-16.297 64.79-2.736-.69 16.298-64.795zM140.153-43.042l.78-3.101 5.057-1.439 3.771 3.665-.78 3.101-2.602-2.53-.002.006-16.297 64.79-2.736-.69 16.298-64.795zM121.068 32.831l.78-3.102 5.056-1.438 3.772 3.665-.78 3.101-2.603-2.53-.001.006-16.298 64.79-2.736-.69 16.299-64.795zM150.485-156.282l-4.494 20.636 2.758.602 4.624-21.238zM140.106-123.38l.68-3.124 5.008-1.6 3.887 3.542-.68 3.124-2.683-2.444-.001.005-14.215 65.28-2.757-.602 14.216-65.285zM123.46-46.933l.68-3.125 5.007-1.6 3.887 3.542-.68 3.125-2.683-2.445v.006l-14.216 65.28-2.757-.603 14.216-65.285zM106.812 29.514l.681-3.125 5.007-1.6 3.888 3.542-.68 3.125-2.683-2.445-.002.005-14.215 65.28-2.757-.602 14.217-65.285zM129.43-156.282l-3.078 16.69 2.775.514 3.173-17.204zM120.862-127.142l.58-3.145 4.954-1.76 3.998 3.415-.58 3.145-2.76-2.357v.005l-12.118 65.702-2.775-.513 12.12-65.707zM106.67-50.2l.581-3.146 4.953-1.76 4 3.416-.581 3.145-2.76-2.358v.006l-12.118 65.702-2.775-.513 12.12-65.708zM92.48 26.74l.58-3.144 4.953-1.76 4 3.415-.58 3.145-2.76-2.357-.001.005-12.118 65.702-2.776-.513 12.12-65.707zM108.607-156.282l-2.025 13.365 2.79.424 2.089-13.789zM101.493-130.298l.48-3.162 4.894-1.918 4.106 3.285-.479 3.162-2.833-2.268-.001.006L97.65-65.136l-2.79-.424 10.01-66.062zM89.772-52.94l.48-3.163 4.894-1.917 4.106 3.284-.479 3.163-2.833-2.268-.001.006L85.93 12.222l-2.79-.424 10.01-66.063zM78.052 24.417l.478-3.162 4.895-1.918 4.106 3.285-.479 3.162-2.833-2.268-.001.006L74.209 89.58l-2.79-.423 10.01-66.063zM87.967-156.282l-1.268 10.665 2.802.335 1.308-11zM82.017-132.84l.377-3.177 4.83-2.074 4.21 3.152-.378 3.176-2.904-2.176v.006l-7.89 66.344-2.802-.334 7.89-66.35zM72.778-55.147l.377-3.176 4.831-2.074 4.21 3.152-.378 3.175-2.905-2.175v.006l-7.89 66.344-2.801-.334 7.89-66.35zM63.54 22.547l.377-3.176 4.83-2.074 4.21 3.152-.378 3.176-2.905-2.176v.006l-7.889 66.344-2.802-.334 7.89-66.35zM67.463-156.282l-.744 8.597 2.811.244.765-8.84zM62.449-134.766l.275-3.186 4.762-2.228 4.308 3.015-.276 3.186-2.973-2.081v.006l-5.761 66.563-2.812-.244 5.762-66.569zM55.702-56.815l.275-3.186 4.762-2.228 4.308 3.015-.276 3.186-2.973-2.081v.005L56.037 8.46l-2.812-.244 5.762-66.57zM48.955 21.135l.276-3.186 4.761-2.228 4.308 3.015-.275 3.186-2.974-2.081v.006L49.29 86.41l-2.811-.244 5.761-66.57zM47.05-156.282l-.39 7.165 2.818.154.398-7.319zM42.806-136.067l.173-3.194 4.688-2.38 4.403 2.876-.174 3.193-3.038-1.984v.005L45.23-70.836l-2.817-.154 3.628-66.72zM38.558-57.94l.173-3.194 4.688-2.38 4.403 2.876-.174 3.193-3.038-1.985v.006L40.982 7.29l-2.817-.153 3.627-66.72zM34.31 20.187l.173-3.194 4.688-2.38 4.403 2.876-.175 3.193-3.037-1.985v.006l-3.628 66.714-2.818-.153 3.628-66.72zM26.683-156.282l-.142 6.375 2.821.063.144-6.438zM23.106-136.74l.071-3.198 4.61-2.529 4.491 2.732-.071 3.198-3.1-1.886v.005l-1.49 66.797-2.821-.063 1.49-66.803zM21.36-58.518l.072-3.197 4.61-2.529 4.491 2.733-.071 3.197-3.1-1.886v.005l-1.49 66.797-2.821-.063 1.49-66.802zM19.615 19.706l.072-3.198 4.61-2.529 4.491 2.733-.071 3.197-3.1-1.886v.005l-1.49 66.797-2.821-.063 1.49-66.802zM6.316-156.282l.06 6.23 2.823-.027-.06-6.203zM3.365-136.782l-.031-3.198 4.525-2.675 4.578 2.586.031 3.199-3.159-1.786v.005l.65 66.81-2.823.028-.648-66.816zM4.124-58.543l-.03-3.198 4.525-2.675 4.578 2.586.03 3.199-3.158-1.786v.005l.649 66.81-2.822.028-.649-66.816zM4.884 19.696l-.03-3.198 4.525-2.675 4.577 2.586.032 3.199-3.16-1.786.001.005.649 66.81-2.822.028-.649-66.816zM-14.096-156.282l.282 6.736 2.819-.118-.276-6.618zM-16.4-136.186l-.134-3.196 4.438-2.819 4.658 2.439.133 3.195-3.213-1.683v.005l2.787 66.755-2.82.118-2.787-66.76zM-13.136-58.012l-.134-3.195 4.438-2.82 4.658 2.44.133 3.195-3.214-1.684v.006l2.788 66.755-2.82.117-2.787-66.76zM-9.873 20.163l-.133-3.196 4.438-2.82 4.658 2.44.133 3.195-3.214-1.684v.006l2.788 66.755-2.82.118-2.787-66.76zM-34.599-156.282l.584 7.896 2.813-.208-.567-7.688zM-36.172-134.95l-.236-3.19 4.345-2.96 4.734 2.288.236 3.19-3.267-1.58v.006l4.923 66.631-2.814.208-4.923-66.637zM-30.408-56.92l-.235-3.19 4.345-2.96 4.733 2.288.236 3.19-3.266-1.58v.006l4.923 66.63-2.815.209-4.922-66.637zM-24.643 21.109l-.236-3.19 4.346-2.96 4.733 2.288.236 3.19-3.266-1.58v.006l4.922 66.63-2.814.21-4.922-66.638zM-55.24-156.282l1.031 9.714 2.806-.298-1-9.416zM-55.935-133.07l-.337-3.18 4.248-3.097 4.804 2.134.338 3.18-3.315-1.473v.005l7.053 66.439-2.806.299-7.053-66.445zM-47.675-55.265l-.338-3.18 4.249-3.098 4.804 2.134.338 3.18-3.316-1.473.001.005 7.053 66.44-2.806.298-7.054-66.444zM-39.416 22.54l-.338-3.181 4.25-3.098 4.803 2.135.338 3.18-3.315-1.474v.006l7.053 66.439-2.806.298-7.053-66.444zM-76.069-156.282l1.69 12.194 2.796-.389-1.637-11.805zM-75.67-130.54l-.44-3.169 4.147-3.233 4.87 1.98.44 3.168-3.36-1.367v.006l9.176 66.178-2.795.388-9.177-66.184zM-64.925-53.042l-.44-3.167 4.148-3.233 4.87 1.979.44 3.168-3.361-1.367v.006l9.176 66.178-2.794.388-9.177-66.183zM-54.179 24.458l-.44-3.168 4.148-3.233 4.87 1.98.44 3.167-3.361-1.367v.006l9.177 66.178-2.796.389-9.177-66.184zM-92.002-141.374l.278-.047-.278-1.623zM-92.002-133.762v7.417l10.718 62.516 2.782-.478-11.29-65.85-.001-.005 3.402 1.258-.54-3.152-4.93-1.822zM-82.142-50.247l-.54-3.152 4.041-3.365 4.931 1.822.54 3.153-3.403-1.259.002.006 11.29 65.85-2.782.478-11.29-65.856zM-68.92 26.867l-.541-3.152 4.041-3.364 4.931 1.822.54 3.152-3.402-1.258v.005l11.29 65.85-2.78.479-11.291-65.856zM-92.002-49.245l1.607.537-.64-3.133-.967-.322v2.918zm0 22.43l8.795 42.985 2.764-.567-11.56-56.497v14.079zM-83.63 29.772l-.641-3.133 3.932-3.492 4.986 1.662.641 3.134-3.441-1.149.001.006 13.392 65.454-2.765.567-13.392-65.46zM-92.002 30.296l2.562.765-.74-3.111-1.822-.543v2.89zm0 15.743l11.823 49.636 2.744-.656-14.567-61.157v12.177zM-92.002 97.468l.315 1.159 2.723-.743-3.038-11.157z"/>
        </g>
    </g>
</svg>
