<svg xmlns="http://www.w3.org/2000/svg" width="152" height="56" viewBox="0 0 513 188">
    <g fill="none" fill-rule="evenodd">
        <path fill="#FFE100" d="M311.551 31.281l11.343 20.683-11.343 20.683h-14.293l11.307-20.683h-.002L297.257 31.28h14.294zm-18.72 0l11.342 20.683-11.343 20.683h-14.292l11.306-20.683h-.001L278.536 31.28h14.294zm-7.378 20.683h-.001l-11.343 20.683h-14.293l7.763-14.2H236.07V45.528h31.534l-7.788-14.248h14.294l11.343 20.683z"/>
        <path fill="#373C41" fill-rule="nonzero" d="M38.308 123.104v-26.01h14.957v66.429H38.308v-26.008h-23.35v26.008H0V97.095h14.957v26.009h23.35zm65.013-11.225h-6.449L82.664 141.07h20.657v-29.19zm-47.298 51.644l32.343-66.43h29.912v66.43H103.32v-10.29H76.775l-5.049 10.29H56.023zm124.75-66.429v52.02h8.789v28.254h-14.395v-13.846h-47.112V97.094h14.957v52.02h22.808v-52.02h14.953zm52.78 0H249.029v66.428h-15.474v-39.164l-22.225 39.164h-16.188l.055-.098v-66.33h15.474v38.972l22.045-38.972h.839zm76.406 0v66.428h-15.474v-39.16l-22.223 39.16H256.074l.053-.096V97.094h15.476v38.974l22.045-38.974h16.311zM68.543 32.784v17.122h3.195c4.768 0 8.413-4.115 8.413-8.605 0-4.493-3.551-8.516-8.413-8.516h-3.195zm0 31.062V85.18H53.588V18.75h18.337c12.992 0 22.715 10.105 22.715 22.55 0 12.439-9.723 22.545-22.715 22.545h-3.382zm62.415-31.437c-10.75 0-18.884 8.797-18.884 19.555 0 10.761 8.134 19.556 18.884 19.556 10.748 0 18.88-8.795 18.88-19.556 0-10.758-8.132-19.555-18.88-19.555zm0 53.518c-18.696 0-33.933-15.251-33.933-33.963 0-18.712 15.237-33.963 33.933-33.963 18.694 0 33.93 15.251 33.93 33.963 0 18.712-15.236 33.963-33.93 33.963zm105.111 0c-18.696 0-33.931-15.25-33.931-33.964 0-18.71 15.235-33.963 33.931-33.963v14.408c-10.75 0-18.88 8.797-18.88 19.555 0 10.761 8.13 19.556 18.88 19.556v14.408zm-33.932 0c-18.696 0-33.931-15.25-33.931-33.964 0-18.71 15.235-33.963 33.931-33.963v14.408c-10.75 0-18.88 8.797-18.88 19.555 0 10.761 8.13 19.556 18.88 19.556v14.408zM14.957 54.022v31.155H0v-66.43h14.957v33.31l16.709-33.31h16.209L31.07 52.338l19.792 32.84H33.348L14.957 54.022z"/>
    </g>
</svg>
