<svg xmlns="http://www.w3.org/2000/svg" width="152" height="56" viewBox="0 0 152 56">
    <g fill="none" fill-rule="evenodd">
        <path fill="#373C41" fill-rule="nonzero" d="M80.981 39.992L87.538 28.7h4.852v19.25h-4.602v-11.35l-6.611 11.35h-4.815l.017-.03V28.7h4.602v11.293zM16.326 5.255v19.25h-4.603V13.157l-6.61 11.348H.3l11.176-19.25h4.852zm46.531 34.738l6.557-11.294h4.852v19.25h-4.602v-11.35l-6.61 11.35h-4.815l.016-.028V28.7h4.602v11.294zm25.077-25.71V9.322h-2.001c-1.446 0-2.503 1.03-2.503 2.467s1.057 2.494 2.503 2.494h2.001zm-5.17 3.037c-2.142-1.003-3.642-3.01-3.642-5.53 0-3.607 2.89-6.535 6.755-6.535h6.506v19.25h-4.449v-6.182h-.861l-4.56 6.181h-5.115l5.365-7.184zM7.102 37.727c1.418 0 2.502-1.193 2.502-2.494a2.483 2.483 0 0 0-2.502-2.467h.056v4.961h-.056zM2.71 28.7h4.449c3.865 0 6.756 2.928 6.756 6.534s-2.891 6.534-6.756 6.534v6.181H2.71V28.7zm27.567 9.625c0-3.118-2.419-5.667-5.616-5.667-3.197 0-5.616 2.549-5.616 5.667s2.42 5.666 5.616 5.666c3.197 0 5.616-2.548 5.616-5.666zm-15.708 0c0-5.423 4.532-9.842 10.092-9.842 5.561 0 10.093 4.419 10.093 9.842 0 5.422-4.532 9.841-10.093 9.841-5.56 0-10.092-4.419-10.092-9.841zm27.82-23.336L37.4 5.255h4.821l4.962 9.625V5.255h4.448v9.625l4.99-9.625h4.82l-5.016 9.733 5.906 9.516h-5.21l-5.49-9.027v9.027h-4.448v-9.027l-5.462 9.027H36.51l5.88-9.516zm-10.678 9.517V5.255h4.449v19.25H31.71zm-8.004-4.068c1.446 0 2.502-.758 2.502-2.196 0-1.436-1.056-2.222-2.502-2.222h-.775v4.418h.775zm.055-8.458c3.865 0 6.757 2.657 6.757 6.262 0 3.606-2.892 6.263-6.757 6.263h-5.278V5.255h4.448v6.724h.83zm39.096-6.724h4.448v7.538h5.116V5.255h4.449v19.25h-4.449v-7.538h-5.116v7.538h-4.448V5.255zM56.354 43.99v4.176c-5.56 0-10.092-4.42-10.092-9.842 0-5.423 4.532-9.842 10.092-9.842v4.175c-3.197 0-5.616 2.549-5.616 5.667s2.419 5.666 5.616 5.666zm-10.387 0v4.176c-5.56 0-10.092-4.42-10.092-9.842 0-5.423 4.531-9.842 10.092-9.842v4.175c-3.197 0-5.616 2.549-5.616 5.667s2.419 5.666 5.616 5.666z"/>
        <path fill="#5AE6FF" d="M105.67 41.344l-1.848-3.278h3.39l2.69 4.758-2.69 4.758h-3.39l1.84-3.266h-9.684v-2.972h9.692zm7.483-8.27h2.26l-2.692 4.759h-3.39l1.841-3.267H95.978v-2.972h15.2l-1.847-3.278h3.39l2.692 4.758h-2.26z"/>
    </g>
</svg>
