<svg xmlns="http://www.w3.org/2000/svg" width="224" height="80" viewBox="0 0 224 80">
    <g fill="none" fill-rule="evenodd">
        <path fill="#373C41" fill-rule="nonzero" d="M11.286 23.382v4.7C5.3 28.082.42 23.107.42 17.002c0-6.104 4.879-11.08 10.865-11.08v4.7c-3.442 0-6.046 2.869-6.046 6.38 0 3.51 2.604 6.38 6.046 6.38zm7.161-12.515v16.97H13.63V6.168h15.085v21.67h-4.819v-16.97h-5.448zm29.021 6.135c0-3.51-2.603-6.38-6.045-6.38-3.442 0-6.047 2.87-6.047 6.38s2.605 6.38 6.047 6.38c3.442 0 6.045-2.87 6.045-6.38zm4.82 0c0 6.105-4.88 11.08-10.865 11.08-5.987 0-10.865-4.975-10.865-11.08 0-6.104 4.878-11.08 10.865-11.08 5.985 0 10.864 4.976 10.864 11.08zm18.876 10.835v-16.97h-4.24v-4.7h13.3v4.7h-4.241v16.97h-4.819zM58.95 10.745v5.585c1.526 0 2.693-1.343 2.693-2.808 0-1.465-1.137-2.777-2.693-2.777zm0 10.133v6.96h-4.82V6.165h4.88c4.16 0 7.272 3.296 7.272 7.356 0 4.06-3.113 7.356-7.273 7.356h-.059zm-43.019 32.89h-4.817v-8.485H5.665v8.486H.847V32.096h4.818v8.487h5.449v-8.487h4.817V53.77zm30.236-17.092v5.585c1.527 0 2.694-1.343 2.694-2.808 0-1.466-1.138-2.777-2.694-2.777zm-4.82-4.58h4.88c4.16 0 7.272 3.297 7.272 7.357 0 4.06-3.112 7.357-7.272 7.357h-.06v6.959h-4.82V32.096zm51.085 14.599V40.8l-3.34 5.895h3.34zm-.472-14.599h5.29V53.77h-4.818v-2.865H86.72l-1.63 2.865h-5.398L91.96 32.096zM67.036 44.464l7.001-12.368h4.9v21.673h-4.82v-12.28l-6.95 12.28h-4.95v-12.21l-6.912 12.21h-5.399l12.27-21.673h4.86v12.368zm-44.442-1.53c0 3.51 2.604 6.38 6.045 6.38 3.443 0 6.046-2.87 6.046-6.38 0-3.511-2.603-6.38-6.046-6.38-3.441 0-6.045 2.869-6.045 6.38zm6.045-11.08c5.986 0 10.866 4.973 10.866 11.08 0 6.104-4.88 11.08-10.866 11.08s-10.864-4.976-10.864-11.08c0-6.107 4.878-11.08 10.864-11.08zm-1.135 26.085l-5.711 10.089 6.558 11.584h-5.399l-6.367-11.248v11.248h-4.819V68.364L5.4 79.612H0l6.558-11.584L.846 57.939h5.399l5.521 9.753v-9.753h4.819v9.753l5.52-9.753h5.399zm44.072 8.487V57.94h4.82v21.673h-4.82v-8.486h-5.449v8.486H61.31V57.939h4.817v8.487h5.449zm-36.998 3.929l7.028-12.416h4.872v21.673H41.66V67.377l-6.926 12.235H29.76V57.939h4.82v12.416zm49.192 0l7.027-12.416h4.872v21.673h-4.82V67.377l-6.925 12.235h-4.973V57.939h4.819v12.416zm-25.28-6.846c0 1.8-.477 3.07-2.183 4.444 1.796 1.069 2.903 2.552 2.903 5.025 0 4.242-3.392 6.597-7.452 6.634h-2.725v-4.577h2.725c1.894-.013 2.723-1.088 2.723-2.423 0-1.375-.928-2.094-2.484-2.094h-2.115v-4.122h1.816c1.287 0 2.124-.72 2.124-1.97 0-1.133-.492-1.853-2.064-2.004h-2.725V57.94h2.725c3.442 0 6.733 1.663 6.733 5.57z"/>
        <path fill="#0071B8" d="M98.992 16.824l-3.983 7.11h-4.841l2.75-4.906h-13.7V14.62h13.7l-2.75-4.905h4.84l3.984 7.108zm4.674-11.27h2.206l1.946 4.514 1.946-4.513h2.206l-4.152 9.128-4.152-9.128zm15.532 7.159c.533 0 .918-.395.918-.89a.895.895 0 0 0-.918-.903h-1.71v1.793h1.71zm-.607-3.51c.533 0 .917-.394.917-.89a.895.895 0 0 0-.917-.902h-1.103v1.792h1.103zm-3.086-3.649h3.31c1.437 0 2.614 1.209 2.614 2.683 0 .649-.235 1.157-.62 1.551.744.407 1.24 1.144 1.24 2.11a2.66 2.66 0 0 1-2.665 2.683h-3.88V5.554zm7.326 4.514c0-2.543 2.02-4.615 4.5-4.615 1.524 0 2.85.775 3.68 1.958l-1.499 1.258c-.446-.75-1.24-1.258-2.181-1.258-1.426 0-2.504 1.195-2.504 2.657s1.078 2.657 2.504 2.657c.941 0 1.735-.509 2.181-1.259l1.5 1.259c-.831 1.183-2.157 1.958-3.681 1.958-2.48 0-4.5-2.072-4.5-4.615zm9.199-4.513h5.453v2.008h-3.47V9.09h2.727v1.957h-2.727v1.526h3.47v2.01h-5.453V5.554zm9.83 4.233c.632 0 1.116-.559 1.116-1.17 0-.61-.472-1.157-1.116-1.157h-.892v2.327h.892zm-2.875-4.233h2.9c1.722 0 3.012 1.373 3.012 3.064 0 1.69-1.29 3.063-3.012 3.063h-.917v2.9h-1.983V5.554zm13.684 4.513c0-1.462-1.078-2.657-2.503-2.657-1.426 0-2.504 1.195-2.504 2.657s1.078 2.657 2.504 2.657c1.425 0 2.503-1.195 2.503-2.657zm-7.002 0c0-2.543 2.02-4.615 4.499-4.615 2.479 0 4.499 2.072 4.499 4.615s-2.02 4.615-4.5 4.615c-2.478 0-4.498-2.072-4.498-4.615zm9.905 0c0-2.543 2.02-4.615 4.499-4.615 1.525 0 2.85.775 3.68 1.958l-1.498 1.258c-.447-.75-1.24-1.258-2.182-1.258-1.426 0-2.504 1.195-2.504 2.657s1.078 2.657 2.504 2.657c.942 0 1.735-.509 2.182-1.259l1.499 1.259c-.83 1.183-2.156 1.958-3.681 1.958-2.479 0-4.5-2.072-4.5-4.615zm8.603 0c0-2.543 2.02-4.615 4.5-4.615 1.524 0 2.85.775 3.68 1.958l-1.499 1.258c-.446-.75-1.24-1.258-2.181-1.258-1.426 0-2.504 1.195-2.504 2.657s1.078 2.657 2.504 2.657c.941 0 1.735-.509 2.181-1.259l1.5 1.259c-.831 1.183-2.157 1.958-3.681 1.958-2.48 0-4.5-2.072-4.5-4.615zm9.211-4.513h1.983v4.716l5.553-4.818v9.128h-1.983V9.864l-5.553 4.819V5.555zm15.867-2.594c0 1.258-.893 2.238-2.28 2.238-1.389 0-2.281-.98-2.281-2.238h1.19c0 .648.297 1.144 1.09 1.144.793 0 1.091-.496 1.091-1.144h1.19zm-6.57 2.594h1.984v4.717l5.553-4.819v9.128h-1.983V9.865l-5.553 4.818V5.555zm8.79 4.513c0-2.543 2.02-4.615 4.5-4.615 1.524 0 2.85.775 3.68 1.958l-1.499 1.258c-.446-.75-1.24-1.258-2.181-1.258-1.426 0-2.504 1.195-2.504 2.657s1.078 2.657 2.504 2.657c.941 0 1.735-.509 2.181-1.259l1.5 1.259c-.83 1.183-2.157 1.958-3.681 1.958-2.48 0-4.5-2.072-4.5-4.615zm9.212-4.513h1.983v4.526l3.074-4.526h2.28l-3.086 4.564 3.483 4.462h-2.454l-3.297-4.233v4.233h-1.983V5.555zm13.189 5.975l-.855-1.869-.855 1.869h1.71zm-.855-6.077l4.338 9.128h-2.082l-.645-1.398h-3.223l-.644 1.398h-2.082l4.338-9.128zm9.446 4.335V7.461h-.892c-.645 0-1.115.484-1.115 1.158 0 .674.47 1.17 1.115 1.17h.892zm-2.305 1.424c-.954-.47-1.624-1.41-1.624-2.593 0-1.691 1.29-3.064 3.012-3.064h2.9v9.026h-1.983v-2.899h-.384l-2.032 2.9h-2.281l2.392-3.37zM104.236 23.66c0-2.543 2.02-4.615 4.5-4.615 1.524 0 2.85.775 3.68 1.958l-1.5 1.258c-.446-.75-1.24-1.258-2.18-1.258-1.426 0-2.504 1.195-2.504 2.657s1.078 2.657 2.503 2.657c.942 0 1.735-.509 2.182-1.258l1.5 1.258c-.831 1.183-2.157 1.958-3.682 1.958-2.479 0-4.499-2.072-4.499-4.615zm14.516-2.555h-3.335v7.068h-1.982v-9.026h7.3v9.026h-1.983v-7.068zm7.984 4.017l-.855-1.868-.856 1.868h1.71zm-.855-6.077l4.338 9.129h-2.083l-.644-1.399h-3.223l-.644 1.399h-2.083l4.339-9.129zm8.02 4.336c.633 0 1.116-.56 1.116-1.17 0-.61-.471-1.157-1.116-1.157h-.892v2.327h.892zm-2.875-4.234h2.9c1.723 0 3.012 1.373 3.012 3.064 0 1.69-1.29 3.064-3.012 3.064h-.917v2.899h-1.983v-9.027zm8.665 2.008h-2.107v-2.008h6.21v2.008h-2.12v7.018h-1.983v-7.018zm8.69 3.967l-.855-1.868-.855 1.868h1.71zm-.855-6.077l4.338 9.129h-2.082l-.645-1.399h-3.222l-.645 1.399h-2.082l4.338-9.129zm5.145.102h1.984v4.526l3.073-4.526h2.28l-3.086 4.564 3.484 4.462h-2.454l-3.297-4.233v4.233h-1.984v-9.026zm8.542 0h1.983v4.717l5.552-4.819v9.128h-1.983v-4.716l-5.552 4.818v-9.128zm13.536 5.975l-.855-1.868-.855 1.868h1.71zm-.855-6.077l4.338 9.129h-2.082l-.645-1.399h-3.222l-.645 1.399h-2.082l4.338-9.129zm9.36 4.132l-1.425 3.039h2.85l-1.425-3.04zm-4.561 3.039h1.029l3.532-7.17 3.532 7.17h1.03v3.84h-1.91v-1.882h-5.304v1.881h-1.91v-3.84zm14.788-1.094l-.855-1.868-.855 1.868h1.71zm-.855-6.077l4.338 9.129h-2.082l-.645-1.399h-3.222l-.645 1.399h-2.082l4.338-9.129zm-88.39 18.208c0-2.543 2.02-4.615 4.5-4.615 1.524 0 2.85.775 3.68 1.958l-1.5 1.258c-.446-.75-1.24-1.258-2.18-1.258-1.426 0-2.504 1.195-2.504 2.657 0 1.461 1.078 2.657 2.503 2.657.942 0 1.735-.509 2.182-1.259l1.5 1.259c-.831 1.182-2.157 1.958-3.682 1.958-2.479 0-4.499-2.073-4.499-4.615zm12.074-.28c.632 0 1.116-.56 1.116-1.17 0-.61-.472-1.157-1.116-1.157h-.892v2.327h.892zm-2.875-4.234h2.9c1.722 0 3.012 1.374 3.012 3.064 0 1.691-1.29 3.064-3.012 3.064h-.917v2.9h-1.983V32.74zm6.967 0h5.453v2.009h-3.47v1.526h2.727v1.957h-2.727v1.526h3.47v2.01h-5.453V32.74zm10.834 4.03l-1.426 3.04h2.851l-1.425-3.04zm-4.561 3.04h1.029l3.532-7.171 3.532 7.17h1.029v3.84h-1.909v-1.882h-5.305v1.882h-1.908v-3.84zm10.153-7.07h1.983v4.717l5.552-4.818v9.128h-1.983V37.05l-5.552 4.819V32.74zm-30.683 15.601h-2.107v-2.008h6.21v2.008h-2.12v7.019h-1.983V48.34zm8.02 2.226c.632 0 1.116-.56 1.116-1.17 0-.61-.471-1.157-1.116-1.157h-.892v2.327h.892zm-2.875-4.234h2.9c1.723 0 3.012 1.373 3.012 3.064 0 1.69-1.29 3.064-3.012 3.064h-.917v2.899h-1.983v-9.027zm9.433 6.776l-3.42-6.776h2.318l2.243 4.425 2.144-4.425h2.256l-4.376 9.027h-2.255l1.09-2.25zm8.901-2.746l-1.425 3.039h2.85l-1.425-3.04zm-4.56 3.039h1.028l3.532-7.17 3.532 7.17h1.03v3.84h-1.91V55.36h-5.304v1.882h-1.909v-3.84zm14.44-2.835V48.24h-.892c-.644 0-1.115.483-1.115 1.157s.47 1.17 1.115 1.17h.893zM137.2 51.99c-.955-.47-1.624-1.41-1.624-2.593 0-1.69 1.289-3.064 3.011-3.064h2.9v9.027h-1.982v-2.9h-.384l-2.033 2.9h-2.281l2.393-3.37zm10.14-5.657h1.982v7.069h2.108v-7.069h1.983v7.069h1.152v3.84h-1.908V55.36h-9.407v-9.027h1.983v7.069h2.106v-7.069zm8.467 0h1.984v4.717l5.552-4.819v9.129h-1.983v-4.717l-5.553 4.818v-9.128zm11.244 4.5l-2.59-4.5h2.293l1.698 3 1.698-3h2.292l-2.59 4.5 2.776 4.527h-2.305l-1.871-3.102-1.872 3.102h-2.305l2.776-4.526zm5.567.013c0-2.543 2.02-4.615 4.5-4.615 1.524 0 2.85.775 3.68 1.958l-1.5 1.258c-.446-.75-1.24-1.258-2.18-1.258-1.426 0-2.505 1.195-2.505 2.657s1.079 2.657 2.504 2.657c.942 0 1.735-.508 2.182-1.258l1.499 1.258c-.83 1.183-2.156 1.958-3.68 1.958-2.48 0-4.5-2.072-4.5-4.615zm13.028-.28V48.24h-.892c-.645 0-1.116.483-1.116 1.157s.471 1.17 1.116 1.17h.892zm-2.305 1.424c-.955-.47-1.624-1.41-1.624-2.593 0-1.69 1.29-3.064 3.012-3.064h2.9v9.027h-1.983v-2.9h-.384l-2.033 2.9h-2.28l2.392-3.37z"/>
    </g>
</svg>
