<svg xmlns="http://www.w3.org/2000/svg" width="153" height="674" viewBox="0 0 153 674">
    <path fill="#F6F6F6" fill-rule="nonzero" d="M102.299 34.138V57.46L61.868 34.138h40.43zM2.167 37.433l148.654 85.652V85.399l-19.649-11.386V34.138h19.649V.5H2.167v36.933zM71.89 357.118H33.577c0-10.865 9-18.8 19.05-18.8s19.263 8.146 19.263 18.8zM52.628 305.93c-27.845 0-50.461 21.73-50.461 50.771v34.06h148.654v-33.642h-47.733v-.418c0-29.04-22.616-50.771-50.46-50.771zm67.633 173.547c0 24.027-19.681 42.203-43.761 42.203-24.076 0-43.76-18.176-43.76-42.203 0-24.03 19.684-42.207 43.76-42.207 24.08 0 43.76 18.177 43.76 42.207zm-119.761 0c0 41.79 34.122 75.845 76 75.845 41.87 0 76-34.056 76-75.845s-34.13-75.845-76-75.845c-41.878 0-76 34.056-76 75.845zm86.497-268.05H2.167v33.933l148.654 85.651v-37.69l-83.749-48.252h83.749V210.52l-84.223-48.523h84.223v-33.642H2.167v34.203l84.83 48.87zM60.38 601.834v38.024H2.167V673.5h148.654v-33.642H92.62v-38.024h58.201v-33.642H2.167v33.642H60.38z"/>
</svg>
