<svg xmlns="http://www.w3.org/2000/svg" width="560" height="152" viewBox="0 0 560 152">
    <path fill="#F6F6F6" fill-rule="nonzero" d="M0 76c0 41.874 33.887 76 75.469 76v-32.24C51.56 119.76 33.47 100.08 33.47 76s18.09-43.757 41.998-43.757V0C33.887 0 0 34.134 0 76zM465.938 3.28v32.023h29.987v115.603h34.084V35.303H560V3.281h-94.063zm-54.688 67.8V32.805c10.741 0 18.594 8.995 18.594 19.035 0 10.031-8.061 19.238-18.594 19.238zm.35-67.8h-34.256v147.626h33.837V103.5h.42c29.206 0 51.055-22.458 51.055-50.108 0-27.662-21.85-50.111-51.055-50.111zM287.655 120.289c-24.281 0-42.654-19.673-42.654-43.743 0-24.066 18.373-43.74 42.654-43.74 24.286 0 42.659 19.674 42.659 43.74 0 24.07-18.373 43.743-42.659 43.743zM288.2 0c-41.879 0-76.012 34.134-76.012 76 0 41.874 34.133 76 76.012 76 41.887 0 76.02-34.126 76.02-76 0-41.866-34.133-76-76.02-76zM92.97 150.906h33.89V35.303h38.309v115.603h33.894V3.281H92.97v147.625z"/>
</svg>
