<?xml version="1.0" encoding="UTF-8" standalone="no"?>
<svg
   xmlns:dc="http://purl.org/dc/elements/1.1/"
   xmlns:cc="http://creativecommons.org/ns#"
   xmlns:rdf="http://www.w3.org/1999/02/22-rdf-syntax-ns#"
   xmlns:svg="http://www.w3.org/2000/svg"
   xmlns="http://www.w3.org/2000/svg"
   viewBox="0 0 305.58484 223.51421"
   height="223.51421"
   width="305.58484"
   xml:space="preserve"
   id="svg2"
   version="1.1"><metadata
     id="metadata8"><rdf:RDF><cc:Work
         rdf:about=""><dc:format>image/svg+xml</dc:format><dc:type
           rdf:resource="http://purl.org/dc/dcmitype/StillImage" /></cc:Work></rdf:RDF></metadata><defs
     id="defs6" /><g
     transform="matrix(1.3333333,0,0,-1.3333333,-0.05781253,223.68399)"
     id="g10"><g
       transform="scale(0.1)"
       id="g12"><path
         id="path14"
         style="fill:#383d40;fill-opacity:1;fill-rule:evenodd;stroke:none"
         d="m 10.1602,1426.38 c 0,138.42 112.5978,251.25 250.7458,251.25 v -106.59 c -79.422,0 -139.527,-65.05 -139.527,-144.65 0,-79.61 60.098,-144.68 139.527,-144.68 v -106.57 c -138.148,0 -250.738,112.81 -250.738,251.25 z M 1544.97,1672.07 h 306.93 v -106.59 h -97.86 v -384.8 h -111.22 v 384.8 h -97.85 z M 1360.93,1441.6 c 35.21,0 62.15,30.46 62.15,63.67 0,33.22 -26.25,62.99 -62.15,62.99 z m 1.37,230.47 c 96.01,0 167.84,-74.73 167.84,-166.8 0,-92.04 -71.83,-166.79 -167.84,-166.79 h -1.37 v -157.8 H 1249.7 v 491.39 z M 956.41,1281.71 c 79.44,0 139.54,65.06 139.54,144.67 0,79.58 -60.1,144.65 -139.54,144.65 -79.426,0 -139.531,-65.07 -139.531,-144.65 0,-79.61 60.098,-144.68 139.531,-144.68 z m 0,395.91 c 138.16,0 250.74,-112.84 250.74,-251.25 0,-138.42 -112.58,-251.24 -250.74,-251.24 -138.137,0 -250.726,112.82 -250.726,251.25 0,138.4 112.589,251.24 250.726,251.24 z M 314.973,1180.68 v 491.39 H 663.145 V 1180.68 H 551.906 v 384.8 H 426.191 v -384.8 H 314.98 Z M 2133.66,751.387 v 133.652 l -77.1,-133.652 z m -10.9,331.013 h 122.1 V 590.977 h -111.2 v 64.953 h -131.82 l -37.65,-64.953 H 1839.61 Z M 1065.92,851.91 c 35.22,0 62.15,30.449 62.15,63.676 0,33.223 -26.23,62.984 -62.15,62.984 z m 169.22,63.676 c 0,-92.047 -71.84,-166.816 -167.85,-166.816 h -1.37 V 590.969 H 954.691 V 1082.4 h 112.599 c 96.01,0 167.85,-74.76 167.85,-166.81 z M 661.406,692.004 c 79.446,0 139.535,65.062 139.535,144.664 0,79.59 -60.086,144.668 -139.535,144.668 -79.422,0 -139.515,-65.078 -139.515,-144.676 0,-79.597 60.089,-144.66 139.515,-144.66 z m 0,395.906 c 138.149,0 250.739,-112.797 250.739,-251.246 0,-138.414 -112.582,-251.238 -250.739,-251.238 -138.148,0 -250.73,112.824 -250.73,251.246 0,138.441 112.582,251.248 250.73,251.248 z m 886.154,-285.945 161.55,280.425 113.08,0.01 V 590.977 H 1710.97 V 869.41 L 1550.56,590.977 H 1436.34 V 867.832 L 1276.82,590.977 h -124.6 l 283.16,491.423 h 112.18 V 801.977 Z M 256.898,889.957 V 1082.4 H 368.125 V 590.977 H 256.898 V 783.383 H 131.203 V 590.977 H 19.9766 V 1082.4 H 131.203 V 889.961 Z M 1299.94,265.621 c 41.44,-24.223 67,-57.863 67,-113.93 0,-96.1793 -78.28,-149.59725 -171.99,-150.41756 h -62.88 V 105.039 h 62.88 c 43.69,0.293 62.84,24.684 62.84,54.953 0,31.156 -21.4,47.488 -57.31,47.488 h -48.83 v 93.45 h 41.9 c 29.73,0 49.06,16.328 49.06,44.695 0,25.652 -11.38,41.984 -47.66,45.406 h -62.88 v 101.657 h 62.88 c 79.44,0 155.4,-37.688 155.4,-126.301 0,-40.817 -11.04,-69.61 -50.4,-100.766 z M 798.473,211.172 960.66,492.684 1073.1,492.688 V 1.27734 L 961.883,1.27344 V 278.695 L 802.035,1.27344 H 687.246 V 492.684 l 111.227,0.004 V 211.176 Z M 2095.94,492.688 h 112.43 V 1.27734 L 2097.15,1.27344 V 278.695 L 1937.3,1.27344 H 1822.53 V 492.684 l 111.21,0.004 V 211.176 Z m -443.62,-192.43 v 192.426 l 111.23,0.004 V 1.27734 L 1652.32,1.27344 V 193.684 H 1526.6 V 1.28125 H 1415.38 V 492.691 H 1526.6 V 300.266 h 125.71 z M 635.199,492.688 503.395,263.961 654.746,1.28125 H 530.141 L 383.199,256.324 V 1.28125 H 271.984 V 256.324 L 125.031,1.28125 H 0.433594 L 151.781,263.961 19.9688,492.695 144.57,492.691 271.992,271.547 V 492.691 H 383.199 V 271.547 l 127.406,221.144 h 124.594 v -0.003" /><path
         id="path16"
         style="fill:#ffffff;fill-opacity:1;fill-rule:evenodd;stroke:none"
         d="m 2292.32,1426.45 -88.73,-153.97 h -107.8 l 61.23,106.25 h -305.13 v 95.47 h 305.13 l -61.23,106.23 h 107.8 l 88.73,-153.98" /></g></g></svg>