<svg xmlns="http://www.w3.org/2000/svg" width="248" height="64" viewBox="0 0 330.2 84.7">
  <defs>
    <clipPath id="a">
      <path d="M368 353.7l1.5-1v.1a4 4 0 0 0-1.5 2.6z" clip-rule="evenodd"/>
    </clipPath>
    <linearGradient id="b" x1="-.2" x2=".2" gradientTransform="rotate(120 82.1 283.4) scale(10)" gradientUnits="userSpaceOnUse">
      <stop offset="0" stop-color="#667073"/>
      <stop offset="1" stop-color="#4f5c61"/>
    </linearGradient>
    <clipPath id="c">
      <path d="M4.8 326.6a316.1 316.1 0 1 1 632.3 0 316.1 316.1 0 0 1-632.3 0zm38 0a278.2 278.2 0 1 0 556.4 0 278.2 278.2 0 0 0-556.4 0z" clip-rule="evenodd"/>
    </clipPath>
    <linearGradient id="d" x1="-44.7" x2="44.7" gradientTransform="scale(10) rotate(-45 55.5 -22.4)" gradientUnits="userSpaceOnUse">
      <stop offset="0" stop-color="#000514"/>
      <stop offset="1" stop-color="#faf7f2"/>
    </linearGradient>
    <clipPath id="e">
      <path d="M4.8 326.6a316.1 316.1 0 1 1 632.3 0 316.1 316.1 0 0 1-632.3 0zm19 0a297.2 297.2 0 1 0 594.4 0 297.2 297.2 0 0 0-594.4 0z" clip-rule="evenodd"/>
    </clipPath>
    <linearGradient id="f" x1="-44.7" x2="44.7" gradientTransform="scale(10) rotate(-45 55.5 -22.4)" gradientUnits="userSpaceOnUse">
      <stop offset="0" stop-color="#faf7f2"/>
      <stop offset="1" stop-color="#3d4a4f"/>
    </linearGradient>
    <clipPath id="g">
      <path d="M321 641.1a307 307 0 1 0 0-614V10.3a316.1 316.1 0 0 1 0 632.3z" clip-rule="evenodd"/>
    </clipPath>
    <linearGradient id="h" x1="-31.6" x2="31.6" gradientTransform="matrix(0 -10 10 0 479 326.6)" gradientUnits="userSpaceOnUse">
      <stop offset="0" stop-color="#e6e8e3"/>
      <stop offset="1" stop-color="#26363d"/>
    </linearGradient>
    <clipPath id="i">
      <path d="M39.6 305.2V292C43.7 149.2 179.8 31.8 321 31.8v16.6A278.2 278.2 0 0 0 47.5 377.8c-5-20.9-6.2-42.7-7.6-65l-.3-7.6z" clip-rule="evenodd"/>
    </clipPath>
    <linearGradient id="j" x1="-30.3" x2="30.3" gradientTransform="scale(10) rotate(-45 28.5 -11.2)" gradientUnits="userSpaceOnUse">
      <stop offset="0" stop-color="#031c26"/>
      <stop offset="1" stop-color="#d9dbd6"/>
    </linearGradient>
    <clipPath id="k">
      <path d="M319.1 626.1c-148.1 0-279-113-297.4-262.4l-1.3-11.6c-1-7-1.2-10.9-6-15.7-4.6-4.6-7.8-9.9-7.5-27.2.4-21.1 8-70.4 33.4-118.8a270.3 270.3 0 0 1 112.5-112 308 308 0 0 0-129 248.2c0 164 133 297.1 297.2 297.1v2.4z" clip-rule="evenodd"/>
    </clipPath>
    <linearGradient id="l" x1="-27.4" x2="27.4" gradientTransform="rotate(-90 258 94.2) scale(10)" gradientUnits="userSpaceOnUse">
      <stop offset="0" stop-color="#e6e8e3"/>
      <stop offset="1" stop-color="#596366"/>
    </linearGradient>
    <clipPath id="m">
      <path d="M304.4 623.3v-2c150.5 0 275.5-108.8 293.4-254.5a35 35 0 0 1 8-19c4.3-4.3 7.7-11.2 7.7-23.9 0-160.9-131.3-292.1-294.1-292.1v-2.4h1.6a297.2 297.2 0 0 1 0 594.3z" clip-rule="evenodd"/>
    </clipPath>
    <linearGradient id="n" x1="-29.7" x2="29.7" gradientTransform="matrix(0 -10 10 0 461.3 326.6)" gradientUnits="userSpaceOnUse">
      <stop offset="0" stop-color="#38454a"/>
      <stop offset="1" stop-color="#d4d6d4"/>
    </linearGradient>
    <clipPath id="o">
      <path d="M4.8 326.6a316.1 316.1 0 1 1 632.3 0 316.1 316.1 0 0 1-632.3 0zm2 0a314.3 314.3 0 1 0 628.5 0 314.3 314.3 0 0 0-628.6 0z" clip-rule="evenodd"/>
    </clipPath>
    <linearGradient id="p" x1="-44.7" x2="44.7" gradientTransform="scale(10) rotate(-45 55.5 -22.4)" gradientUnits="userSpaceOnUse">
      <stop offset="0" stop-color="#334045"/>
      <stop offset="1" stop-color="#8c9699"/>
    </linearGradient>
    <clipPath id="q">
      <path d="M41 326.5a280 280 0 1 1 560 0 280 280 0 0 1-560 0zm1.8 0a278.2 278.2 0 1 0 556.4 0 278.2 278.2 0 0 0-556.4 0z" clip-rule="evenodd"/>
    </clipPath>
    <linearGradient id="r" x1="-39.6" x2="39.6" gradientTransform="scale(-10) rotate(-45 -55.5 22.4)" gradientUnits="userSpaceOnUse">
      <stop offset="0" stop-color="#334045"/>
      <stop offset="1" stop-color="#8c9699"/>
    </linearGradient>
    <clipPath id="s">
      <path d="M74.2 196.4s-3-5.3-2.4-13.7L321 326.6l-47.3 27.2z" clip-rule="evenodd"/>
    </clipPath>
    <linearGradient id="t" x1="-13.9" x2="13.9" gradientTransform="rotate(-58.5 337.7 -41.2) scale(10)" gradientUnits="userSpaceOnUse">
      <stop offset="0" stop-color="#fff"/>
      <stop offset="1" stop-color="#bdc2c2"/>
    </linearGradient>
    <clipPath id="u">
      <path d="M321 326.6l249.2-144c.4 8.7-2.3 13.5-2.3 13.5L368.2 353.8z" clip-rule="evenodd"/>
    </clipPath>
    <linearGradient id="v" x1="-13.9" x2="13.9" gradientTransform="rotate(-122.5 296.4 11.9) scale(10)" gradientUnits="userSpaceOnUse">
      <stop offset="0" stop-color="#fff"/>
      <stop offset="1" stop-color="#bdc2c2"/>
    </linearGradient>
    <clipPath id="w">
      <path d="M321 614.2c-.1 0-2.8-1.2-6.5-4.3-3-2.5-4.9-5.4-4.9-5.4l-35.9-250.7 47.3-27.2z" clip-rule="evenodd"/>
    </clipPath>
    <linearGradient id="x" x1="-2.9" x2="2.9" gradientTransform="rotate(-2 13623 -8283.4) scale(10)" gradientUnits="userSpaceOnUse">
      <stop offset="0" stop-color="#fff"/>
      <stop offset="1" stop-color="#bdc2c2"/>
    </linearGradient>
    <clipPath id="y">
      <path d="M311.5 607l-2-2.4L274 353.8l20.2-10.2c-4.2 3.3-5.2 5.7-5.7 7.4-.6 2.2-.2 4.6 0 7.6.5 5.6 2.5 20.1 25.3 250.6l-2.2-2.2zM364 351.2s-38-23.4-36-22.7c6.6 2.3 20.2 8.7 28.2 10.2 9.4 1.7 16-4 21.4-7.7 1-.7 191-138.8 192-139.4-1 3.7-2 5.6-2 5.6L368 353.7zM74.5 197.4s-1.2-2.6-2-5.9c.5.4 202.1 145 209 149.7 5 3.3 5.4 3.5 10.5 1.6l-13.5 8.3-4.6 2.4z" clip-rule="evenodd"/>
    </clipPath>
    <radialGradient id="z" cx="228.1" cy="346.9" r="0" fx="228.1" fy="346.9" gradientTransform="matrix(10 0 0 10 -1960 -3140)" gradientUnits="userSpaceOnUse" spreadMethod="pad">
      <stop offset="0" stop-color="#bdc2c2"/>
      <stop offset="1" stop-color="#cccfcc"/>
    </radialGradient>
    <clipPath id="A">
      <path d="M318.8 323.4l1.4-46.5s.2-4.9.8-4.9c.6 0 .6 4.9.6 4.9l1.5 46.5z" clip-rule="evenodd"/>
    </clipPath>
    <linearGradient id="B" x1="-2.6" x2="2.6" gradientTransform="matrix(0 10 -10 0 321 297.7)" gradientUnits="userSpaceOnUse">
      <stop offset="0" stop-color="#3d4a4f"/>
      <stop offset="1" stop-color="#fff"/>
    </linearGradient>
  </defs>
  <path fill="#fff" fill-rule="evenodd" d="M84.4 42.3a42 42 0 1 1-84.1 0 42 42 0 0 1 84 0zm-42 42.4A42 42 0 0 1 0 42.3 42 42 0 0 1 42.3 0a42 42 0 0 1 42.4 42.3 42 42 0 0 1-42.4 42.4"/>
  <path fill="#fff" fill-rule="evenodd" d="M79.6 42.3a37.3 37.3 0 1 1-74.5 0 37.3 37.3 0 0 1 74.5 0zM42.3 5.4a37 37 0 1 0 .1 74 37 37 0 0 0 0-74"/>
  <g clip-path="url(#a)" transform="matrix(.13333 0 0 -.13333 -.5 85.9)">
    <path fill="url(#b)" d="M368 353.7l1.5-1v.1a4 4 0 0 0-1.5 2.6v-1.7"/>
  </g>
  <g clip-path="url(#c)" transform="matrix(.13333 0 0 -.13333 -.5 85.9)">
    <path fill="url(#d)" d="M4.8 326.6a316.1 316.1 0 1 1 632.3 0 316.1 316.1 0 0 1-632.3 0zm38 0a278.2 278.2 0 1 0 556.4 0 278.2 278.2 0 0 0-556.4 0"/>
  </g>
  <g clip-path="url(#e)" transform="matrix(.13333 0 0 -.13333 -.5 85.9)">
    <path fill="url(#f)" d="M4.8 326.6a316.1 316.1 0 1 1 632.3 0 316.1 316.1 0 0 1-632.3 0zm19 0a297.2 297.2 0 1 0 594.4 0 297.2 297.2 0 0 0-594.4 0"/>
  </g>
  <g clip-path="url(#g)" transform="matrix(.13333 0 0 -.13333 -.5 85.9)">
    <path fill="url(#h)" d="M321 641.1a307 307 0 1 0 0-614V10.3a316.1 316.1 0 0 1 0 632.3V641"/>
  </g>
  <g clip-path="url(#i)" transform="matrix(.13333 0 0 -.13333 -.5 85.9)">
    <path fill="url(#j)" d="M39.6 305.2V292C43.7 149.2 179.8 31.8 321 31.8v16.6A278.2 278.2 0 0 0 47.5 377.8c-5-20.9-6.2-42.7-7.6-65l-.3-7.6"/>
  </g>
  <path fill="#d4d6d4" d="M81 48.8l.1-2.5c0-1.3-.2-2-.7-2.7l-.7-1.5c-.2-.7-.3-1.6-.4-3.3h.2c0 1.7.2 2.6.4 3.2.2.7.4 1 .7 1.5.5.8.7 1.5.7 2.8l-.1 2.5H81"/>
  <path fill="#d1d6d1" d="M79.3 38.8h.2v.2c.1 1.5.2 2.4.4 3l.7 1.4c.4.7.6 1.2.7 2.2v.6l-.1 2.5H81v-.2a26.1 26.1 0 0 0 0-3 4 4 0 0 0-.6-2v-.1a4.6 4.6 0 0 1-.9-2l-.2-2.6"/>
  <path fill="#ccd1cc" d="M79.3 38.8h.2v.2c.1 1.5.2 2.3.4 3l.7 1.3c.4.7.6 1.3.7 2.2v.7l-.1 2.4H81v-.2a24.9 24.9 0 0 0 0-3 4 4 0 0 0-.6-2 4.6 4.6 0 0 1-.8-2 21 21 0 0 1-.3-2.6"/>
  <path fill="#c9cfcc" d="M79.3 38.8h.2v.1c.1 1.5.2 2.4.4 3l.7 1.4c.4.6.6 1.2.7 2.1v.7l-.1 2.4H81v-.2a24.4 24.4 0 0 0 0-3 4 4 0 0 0-.6-1.9v-.1a4.7 4.7 0 0 1-.8-2c-.2-.6-.2-1.4-.3-2.5"/>
  <path fill="#c4ccc9" d="M79.3 38.8h.2v.1c.1 1.5.2 2.4.4 3l.7 1.3c.4.7.6 1.2.7 2.2v.6l-.1 2.4H81v-.2a23.8 23.8 0 0 0 0-2.9 4 4 0 0 0-.7-2 4.6 4.6 0 0 1-.7-2c-.2-.6-.2-1.4-.3-2.5"/>
  <path fill="#c2c9c7" d="M79.3 38.7h.2v.2c.1 1.5.2 2.3.4 3l.7 1.2v.1c.4.6.6 1.2.7 2v.8l-.1 2.3H81v-.1a23.5 23.5 0 0 0 0-3 4 4 0 0 0-.6-1.9v-.1a4.7 4.7 0 0 1-.8-2c-.2-.5-.2-1.3-.3-2.5"/>
  <path fill="#bfc4c4" d="M79.3 38.7h.2v.2c.1 1.4.2 2.3.4 2.9l.7 1.3c.4.7.6 1.2.7 2.1v3H81v-.1a22.6 22.6 0 0 0 0-3c0-.8-.2-1.3-.6-1.8V43a4.7 4.7 0 0 1-.8-1.9l-.3-2.5"/>
  <path fill="#bac4c2" d="M79.3 38.7h.2v.1c.1 1.5.2 2.3.4 3l.7 1.2v.1c.4.6.6 1.2.7 2v3H81V48a22.7 22.7 0 0 0 0-2.9 3.9 3.9 0 0 0-.7-2 4.7 4.7 0 0 1-.7-2l-.3-2.4"/>
  <path fill="#b8bfbf" d="M79.3 38.7h.2v.1c.1 1.5.2 2.3.4 2.9l.7 1.3c.4.6.6 1.2.7 2V48.2H81v-.2a21.5 21.5 0 0 0 0-2.9 3.9 3.9 0 0 0-.6-2 4.7 4.7 0 0 1-.8-1.9l-.3-2.4"/>
  <path fill="#b2bdbf" d="M79.3 38.7h.2v.1c.1 1.4.2 2.3.4 2.8.2.6.4 1 .7 1.3v.1c.4.6.6 1.1.7 2v3H81v-.2a21.3 21.3 0 0 0 0-2.8c0-.8-.2-1.3-.6-1.9V43a4.7 4.7 0 0 1-.8-1.9l-.3-2.4"/>
  <path fill="#b0babd" d="M79.3 38.6h.2v.2c.1 1.4.2 2.2.4 2.8l.7 1.3c.4.6.6 1.2.7 2v3H81v-.2a20.7 20.7 0 0 0 0-2.8c0-.8-.2-1.3-.6-1.8v-.2a4.7 4.7 0 0 1-.8-1.8l-.3-2.5"/>
  <path fill="#abb8ba" d="M79.3 38.6h.2v.2c.1 1.4.3 2.2.4 2.7.2.6.4 1 .7 1.3.4.7.6 1.2.7 2v3H81v-.2a20 20 0 0 0 0-2.8c0-.8-.2-1.2-.6-1.8V43a4.7 4.7 0 0 1-.8-1.9l-.3-2.4"/>
  <path fill="#a8b5b8" d="M79.3 38.6h.2v.1l.4 2.8.7 1.3c.4.6.6 1.2.7 2v2.9H81v-.1a19.9 19.9 0 0 0 0-2.8c-.1-.8-.3-1.3-.7-1.8v-.2a4.7 4.7 0 0 1-.8-1.8l-.3-2.4"/>
  <path fill="#a6b2b5" d="M79.3 38.6h.2v.1l.4 2.8.7 1.2c.4.7.6 1.2.7 2V47.6H81v-.1a19.2 19.2 0 0 0 0-2.8c-.1-.8-.3-1.3-.6-1.8l-.1-.1a4.8 4.8 0 0 1-.8-1.9l-.3-2.3"/>
  <path fill="#a3b0b2" d="M79.3 38.6h.2c.1 1.5.3 2.3.4 2.8l.7 1.3c.4.6.6 1.1.7 2V47.5H81v-.1a19 19 0 0 0 0-2.8c-.1-.7-.3-1.2-.6-1.7l-.1-.2a4.7 4.7 0 0 1-.8-1.8l-.3-2.3"/>
  <path fill="#a1adb0" d="M79.3 38.5h.2v.2l.4 2.7.7 1.2c.4.6.6 1.2.7 2V47.4H81v-.1a18.6 18.6 0 0 0 0-2.7c-.1-.8-.3-1.3-.6-1.8l-.1-.1a4.8 4.8 0 0 1-.8-1.8l-.3-2.4"/>
  <path fill="#9eabb0" d="M79.3 38.5h.2v.1c.1 1.4.3 2.2.5 2.7.1.5.3.9.6 1.3.4.6.6 1.1.7 2v2.7H81a18 18 0 0 0 0-2.8c-.1-.8-.3-1.2-.6-1.8h-.1a4.7 4.7 0 0 1-.8-1.9l-.3-2.3"/>
  <path fill="#99a8ad" d="M79.3 38.5h.2v.1c.1 1.4.3 2.1.5 2.7.1.5.3.8.6 1.2.4.6.6 1.1.7 2V47.3H81V47a18 18 0 0 0 0-2.7c-.1-.7-.3-1.2-.6-1.7l-.1-.1a4.8 4.8 0 0 1-.8-1.8 14 14 0 0 1-.3-2.3"/>
  <path fill="#96a6ab" d="M79.3 38.5h.2v.1c.1 1.3.3 2 .5 2.6.1.5.3.9.6 1.3.4.6.6 1 .7 1.9V47.2H81V47a17.2 17.2 0 0 0 0-2.6c-.1-.8-.3-1.2-.6-1.8h-.1a4.8 4.8 0 0 1-.8-1.8l-.3-2.3"/>
  <path fill="#94a3a8" d="M79.3 38.5h.2c.1 1.4.3 2.1.5 2.7a5 5 0 0 0 .6 1.3c.4.5.6 1 .7 1.8V47.1H81v-.2a16.8 16.8 0 0 0 0-2.6 3.8 3.8 0 0 0-.7-1.8 4.8 4.8 0 0 1-.8-1.8l-.3-2.2"/>
  <path fill="#8fa1a6" d="M79.3 38.4h.2v.2c.1 1.2.3 2 .5 2.6.1.5.3.8.6 1.2.4.5.6 1 .7 1.9v2.6h-.2a16.6 16.6 0 0 0 0-2.7c-.1-.7-.3-1.2-.6-1.7h-.1a4.8 4.8 0 0 1-.8-1.8l-.3-2.3"/>
  <path fill="#8f9ea3" d="M79.3 38.4h.2v.1c.1 1.3.3 2 .5 2.6.1.5.3.8.6 1.2.4.6.6 1.1.7 1.9v2.7h-.2v-.1a16.2 16.2 0 0 0 0-2.6 3.8 3.8 0 0 0-.7-1.8 4.9 4.9 0 0 1-.8-1.8l-.3-2.2"/>
  <path fill="#8c9ba1" d="M79.3 38.4h.2v.1c.1 1.3.3 2 .5 2.6.2.5.3.8.6 1.1v.1c.4.5.6 1 .7 1.8v2.7h-.2v-.1a15.5 15.5 0 0 0 0-2.6c-.1-.7-.3-1.2-.6-1.7h-.1a4.9 4.9 0 0 1-.8-1.8l-.3-2.2"/>
  <path fill="#89999e" d="M79.3 38.4h.2c.1 1.3.3 2 .5 2.6a5 5 0 0 0 .6 1.2c.4.6.6 1 .7 1.9v2.6h-.2v-.1a15.2 15.2 0 0 0 0-2.6c-.1-.7-.3-1.1-.6-1.6l-.1-.1a5 5 0 0 1-.8-1.7 12 12 0 0 1-.3-2.2"/>
  <path fill="#84969e" d="M79.3 38.4h.2c.1 1.3.3 2 .5 2.6l.6 1.1c.4.6.6 1.1.7 1.9v2.6h-.1A15 15 0 0 0 81 44c-.1-.7-.3-1.2-.6-1.7l-.1-.1a5 5 0 0 1-.8-1.7l-.3-2.1"/>
  <path fill="#84949b" d="M79.3 38.3h.2v.1c.1 1.3.3 2 .5 2.5l.6 1.2c.4.6.6 1 .7 1.8v2.6h-.1a14.6 14.6 0 0 0-.1-2.6c-.1-.7-.3-1.1-.6-1.6l-.1-.2a5 5 0 0 1-.8-1.6l-.3-2.2"/>
  <path fill="#829199" d="M79.3 38.3h.2v.1c.1 1.2.3 2 .5 2.5l.6 1.1c.4.6.6 1 .7 1.8v2.6h-.1a14.3 14.3 0 0 0 0-2.6l-.7-1.6-.1-.1a5 5 0 0 1-.8-1.6l-.3-2.2"/>
  <path fill="#7d8f94" d="M79.3 38.3h.2c.1 1.3.3 2 .5 2.6l.6 1v.1c.4.5.6 1 .7 1.8v2.5h-.1a14 14 0 0 0 0-2.5c-.2-.7-.4-1.2-.7-1.6l-.1-.2a5 5 0 0 1-.7-1.6c-.2-.5-.3-1.2-.4-2.1"/>
  <path fill="#788c91" d="M79.3 38.3h.2c.1 1.3.3 2 .5 2.5a5.3 5.3 0 0 0 .6 1.2c.4.5.6 1 .7 1.7v2.6h-.1v-.1a13.6 13.6 0 0 0 0-2.5l-.7-1.6V42a5 5 0 0 1-.8-1.6c-.2-.5-.3-1.2-.4-2.1"/>
  <path fill="#788991" d="M79.3 38.3h.2c.1 1.2.3 2 .5 2.5a5.3 5.3 0 0 0 .6 1.1c.4.5.6 1 .7 1.7v2.6h-.1V46a13.5 13.5 0 0 0 0-2.5l-.7-1.5v-.2a5 5 0 0 1-.8-1.6l-.4-2"/>
  <path fill="#73878f" d="M79.3 38.2h.2v.1c.1 1.2.3 1.9.5 2.4l.6 1.1c.4.6.6 1 .7 1.8V46h-.1V46a12.9 12.9 0 0 0 0-2.4l-.7-1.6v-.1a5.1 5.1 0 0 1-.8-1.6l-.4-2"/>
  <path fill="#73848c" d="M79.3 38.2h.2v.1a8 8 0 0 0 .5 2.4l.6 1v.1c.4.5.6 1 .7 1.7v2.6-.1h-.1a12.8 12.8 0 0 0 0-2.5c-.2-.7-.4-1-.7-1.5v-.2a5.2 5.2 0 0 1-.8-1.5l-.4-2"/>
  <path fill="#708289" d="M79.3 38.2h.2c.1 1.2.3 2 .5 2.4l.6 1.1c.4.5.6 1 .7 1.7V46l-.1-.2a12.3 12.3 0 0 0 0-2.4 3.7 3.7 0 0 0-.8-1.6 5.1 5.1 0 0 1-.7-1.6l-.4-2"/>
  <path fill="#6e8087" d="M79.3 38.2h.2c.1 1.2.3 1.9.5 2.4a5.5 5.5 0 0 0 .7 1.1c.3.5.5 1 .6 1.7v2.5l-.1-.2a12.2 12.2 0 0 0 0-2.3l-.7-1.6a5.3 5.3 0 0 1-.8-1.6l-.4-2"/>
  <path fill="#6b7d84" d="M79.3 38.2h.2c.1 1.2.3 1.8.5 2.4l.6 1c.4.5.6 1 .7 1.7v2.5l-.1-.1a11.8 11.8 0 0 0 0-2.4l-.7-1.5v-.1a5.3 5.3 0 0 1-.8-1.5l-.4-2"/>
  <path fill="#667a82" d="M79.3 38.1h.2v.1c.1 1.1.3 1.8.5 2.3a5.5 5.5 0 0 0 .7 1.1 4 4 0 0 1 .7 2.2v1.9h-.2v-.1a11.6 11.6 0 0 0 0-2.4 3.7 3.7 0 0 0-.8-1.6 5.3 5.3 0 0 1-.7-1.5 9 9 0 0 1-.4-2"/>
  <path fill="#667880" d="M79.3 38.1h.2c.1 1.2.3 1.9.5 2.4l.6 1a4 4 0 0 1 .8 2.2v1.9h-.2v-.1a11.3 11.3 0 0 0 0-2.3 3.8 3.8 0 0 0-.8-1.6 5.4 5.4 0 0 1-.7-1.5l-.4-2"/>
  <path fill="#61757d" d="M79.3 38.1h.2a5.7 5.7 0 0 0 1 3.3h.2a4 4 0 0 1 .7 2.2v1.9h-.1v-.1A11 11 0 0 0 81 43c-.1-.6-.3-1-.6-1.5a5.4 5.4 0 0 1-.8-1.6c-.2-.4-.3-1-.4-1.9"/>
  <path fill="#5e737a" d="M79.3 38h.2v.1c.1 1.1.3 1.8.5 2.3l.6 1a4 4 0 0 1 .8 2.1v1.9h-.1A11 11 0 0 0 81 43a3.7 3.7 0 0 0-.7-1.5 5.6 5.6 0 0 1-.7-1.5l-.4-2"/>
  <path fill="#5c7078" d="M79.3 38h.2v.1c.1 1 .3 1.7.6 2.2l.5 1a4 4 0 0 1 .8 2.2v1.8h-.1A10.5 10.5 0 0 0 81 43a3.7 3.7 0 0 0-.7-1.6 5.4 5.4 0 0 1-.7-1.4l-.4-2"/>
  <path fill="#596e75" d="M79.3 38h.2v.1c.1 1 .3 1.7.6 2.2l.5 1a4 4 0 0 1 .8 2v2h-.1V45A10.3 10.3 0 0 0 81 43c-.1-.6-.3-1-.6-1.4v-.1a5.5 5.5 0 0 1-.8-1.5c-.2-.4-.3-1-.4-1.9"/>
  <path fill="#596b73" d="M79.3 38h.2c.1 1.1.3 1.7.6 2.2a6 6 0 0 0 .6 1 4 4 0 0 1 .7 2.1v1.8h-.1a10.2 10.2 0 0 0-.2-2.3 3.7 3.7 0 0 0-.7-1.5 5.8 5.8 0 0 1-1-3.3"/>
  <path fill="#546970" d="M79.3 38h.2c.1 1 .3 1.7.6 2.2l.5 1a4 4 0 0 1 .8 2V45h-.1a9.8 9.8 0 0 0-.2-2.2c-.1-.6-.3-1-.6-1.4v-.1a5.6 5.6 0 0 1-.8-1.4l-.4-1.9"/>
  <path fill="#52666e" d="M79.3 38h.2c.1 1 .3 1.7.6 2.2l.5 1a4 4 0 0 1 .8 2v1.7h-.1a9.7 9.7 0 0 0-.2-2.2c-.1-.6-.3-1-.6-1.4a5.8 5.8 0 0 1-1.2-3.3"/>
  <path fill="#4f636b" d="M79.3 38h.2a6 6 0 0 0 1.1 3v.1a4 4 0 0 1 .8 2v1.8l-.1-.1a9.4 9.4 0 0 0-.2-2.2 3.7 3.7 0 0 0-.6-1.4 6 6 0 0 1-1.2-3.2"/>
  <path fill="#4d6169" d="M79.3 38h.2c.1 1 .4 1.6.6 2l.5 1a4 4 0 0 1 .8 2v1.8l-.1-.1a9.1 9.1 0 0 0-.2-2.1 3.7 3.7 0 0 0-.6-1.5 6 6 0 0 1-.8-1.4 7 7 0 0 1-.4-1.8"/>
  <path fill="#4a5c63" d="M79.4 38h.1a5.8 5.8 0 0 0 1.1 3 4 4 0 0 1 .8 2v1.7h-.1a9 9 0 0 0-.2-2.2c-.1-.6-.3-1-.6-1.3V41a6.1 6.1 0 0 1-.8-1.4c-.1-.4-.3-1-.3-1.8"/>
  <path fill="#455961" d="M79.4 37.9h.1l.6 2 .5 1a4 4 0 0 1 .8 2v1.7h-.1a8.7 8.7 0 0 0-.2-2.2c-.1-.5-.3-.9-.6-1.3a6 6 0 0 1-.8-1.4c-.1-.5-.3-1-.3-1.8"/>
  <path fill="#42595e" d="M79.4 37.9h.1l.6 2c.2.4.3.7.6 1a4 4 0 0 1 .7 2c0 .4.1 1 0 1.6h-.1a8.6 8.6 0 0 0-.2-2.1c-.1-.6-.3-1-.6-1.3V41l-.6-1a6 6 0 0 1-.5-2.1"/>
  <path fill="#40545c" d="M79.4 37.9h.1l.6 2 .6 1a4 4 0 0 1 .7 1.8v1.7h-.1a8.3 8.3 0 0 0-.2-2.1 3.7 3.7 0 0 0-.6-1.4 6.3 6.3 0 0 1-.8-1.3c-.1-.4-.3-1-.3-1.7"/>
  <path fill="#3d5259" d="M79.4 37.8h.1a5.3 5.3 0 0 0 1.2 3 4 4 0 0 1 .7 1.9l.1 1.6h-.1-.1a8.2 8.2 0 0 0-.2-2c-.1-.6-.3-1-.6-1.4l-.6-1a5.5 5.5 0 0 1-.5-2"/>
  <path fill="#3b4f57" d="M79.4 37.8h.1l.6 2 .6.9a4 4 0 0 1 .7 1.9l.1 1.6h-.1-.1a8 8 0 0 0-.2-2c-.1-.6-.3-1-.6-1.3v-.1l-.6-.9a5.8 5.8 0 0 1-.5-2"/>
  <path fill="#384d54" d="M79.4 37.8h.1l.6 2 .6.8a4 4 0 0 1 .7 2l.1 1.5h-.1a7.8 7.8 0 0 0-.3-2c-.1-.5-.3-.9-.6-1.3l-.6-1a5.5 5.5 0 0 1-.5-2"/>
  <path fill="#334a52" d="M79.4 37.8h.1l.6 2 .6.8a4 4 0 0 1 .7 1.8l.1 1.7h-.1a7.6 7.6 0 0 0-.3-2c-.1-.6-.3-1-.6-1.3v-.1l-.6-.9-.1-.4c-.2-.4-.4-1-.4-1.6"/>
  <path fill="#30474f" d="M79.4 37.8h.1l.6 1.9.6.8a4 4 0 0 1 .7 1.9l.1 1.6h-.1a7.4 7.4 0 0 0-.3-2c-.1-.5-.3-.9-.6-1.3l-.6-.9-.1-.4c-.2-.4-.4-1-.4-1.6"/>
  <path fill="#2e454a" d="M79.4 37.7h.1l.6 2 .6.8a4 4 0 0 1 .7 1.8c.1.4.2 1 .1 1.6h-.1a7.1 7.1 0 0 0-.3-2l-.5-1.2-.1-.1-.5-.8-.2-.4c-.2-.5-.4-1-.4-1.7"/>
  <path fill="#294047" d="M79.4 37.7h.1l.6 1.9.6.8a4 4 0 0 1 .7 1.8c.1.5.2 1 .1 1.6h-.1a7 7 0 0 0-.3-2l-.5-1.2h-.1l-.5-.9a5.7 5.7 0 0 1-.6-2"/>
  <path fill="#263d45" d="M79.4 37.7h.1l.6 1.9.6.8a4.1 4.1 0 0 1 .7 1.7c.1.5.2 1 .1 1.6h-.2a7 7 0 0 0-.2-2l-.5-1.1-.1-.1-.5-.8-.2-.4c-.2-.4-.4-1-.4-1.6"/>
  <path fill="#243b42" d="M79.4 37.7h.1l.6 1.8.6.8a4.2 4.2 0 0 1 .7 1.8c.1.4.2.9.1 1.5h-.2a6.8 6.8 0 0 0-.2-1.9 3.9 3.9 0 0 0-.6-1.3l-.5-.8-.2-.3a5 5 0 0 1-.4-1.6"/>
  <path fill="#213840" d="M79.4 37.7h.1l.6 1.8.6.8a4.2 4.2 0 0 1 .7 1.7l.2 1.5h-.2a6.6 6.6 0 0 0-.3-1.9l-.5-1.1-.1-.1-.5-.8-.2-.4c-.2-.4-.4-.9-.4-1.5"/>
  <path fill="#1c333d" d="M79.4 37.6h.1l.6 1.8.6.8a4.2 4.2 0 0 1 .7 1.7l.2 1.5h-.2a6.4 6.4 0 0 0-.3-1.8 4 4 0 0 0-.5-1.2h-.1l-.5-.9-.2-.3c-.2-.4-.4-1-.4-1.6"/>
  <path fill="#17333b" d="M79.4 37.6h.1c.2.8.4 1.3.7 1.8l.5.8a4.2 4.2 0 0 1 .7 1.7l.2 1.4h-.2a6.3 6.3 0 0 0-.3-1.8 4 4 0 0 0-.6-1.2l-.5-.8-.2-.4c-.2-.4-.4-.8-.4-1.5"/>
  <path fill="#122e38" d="M79.4 37.6h.1c.2.8.4 1.3.7 1.7l.5.8a4.2 4.2 0 0 1 .7 1.7l.2 1.5h-.1-.1a6 6 0 0 0-.3-1.9 4 4 0 0 0-.5-1v-.2l-.6-.7-.2-.4c-.2-.4-.4-.9-.4-1.5"/>
  <path fill="#0d2b33" d="M79.4 37.6h.1c.2.7.4 1.3.7 1.7l.5.8a4.3 4.3 0 0 1 .8 1.6v1.5h-.1a6 6 0 0 0-.3-1.8 4 4 0 0 0-.5-1.1v-.1l-.6-.8a4.8 4.8 0 0 1-.6-1.8"/>
  <path fill="#052930" d="M79.4 37.6h.1l.7 1.7.5.7a4.3 4.3 0 0 1 .8 1.6v1.5h-.1a5.8 5.8 0 0 0-.3-1.8 4 4 0 0 0-.5-1.1l-.6-.8-.2-.4c-.2-.4-.4-.8-.4-1.4"/>
  <path fill="#00242e" d="M79.4 37.5h.1c.2.8.4 1.3.7 1.7l.5.8a4.3 4.3 0 0 1 .8 1.6V43h-.1a5.7 5.7 0 0 0-.3-1.8 4 4 0 0 0-.6-1.1l-.5-.8a4.4 4.4 0 0 1-.6-1.8"/>
  <path fill="#001f29" d="M79.4 37.5h.1l.7 1.7.5.7a4.3 4.3 0 0 1 .9 3h-.1-.1a5.5 5.5 0 0 0-.2-1.7 4.1 4.1 0 0 0-.7-1.2l-.5-.7-.2-.3a4 4 0 0 1-.4-1.5"/>
  <path fill="#001c26" d="M79.4 37.5h.1c.2.7.4 1.2.7 1.6l.5.7a4.4 4.4 0 0 1 1 3h-.2-.1a5.4 5.4 0 0 0-.2-1.7l-.6-1V40l-.6-.7a4 4 0 0 1-.6-1.7"/>
  <path fill="#001721" d="M79.4 37.5h.1c.2.7.4 1.2.7 1.6l.5.7a4.5 4.5 0 0 1 .8 1.5l.1 1.4h-.1a5.2 5.2 0 0 0-.3-1.7l-.6-1-.6-.8-.2-.3-.4-1.4"/>
  <path fill="#00121c" d="M79.4 37.5h.1c.2.6.4 1.1.7 1.5l.5.7a4.5 4.5 0 0 1 .8 1.6l.1 1.3h-.2a5.1 5.1 0 0 0-.2-1.6 4.2 4.2 0 0 0-.7-1.1l-.5-.7-.2-.4c-.2-.3-.3-.8-.4-1.3"/>
  <path fill="#000a1a" d="M79.4 37.4h.1c.2.7.4 1.2.7 1.6l.5.7a4.6 4.6 0 0 1 .8 1.5l.1 1.3h-.2a5 5 0 0 0-.2-1.6l-.6-1-.6-.8-.2-.3-.4-1.4"/>
  <path fill="#000514" d="M81.4 42.5c0-.7 0-1.2-.2-1.7l-.7-1-.7-1-.4-1.4h.2c.1 1 .6 1.6 1.1 2.2.2.4.5.7.6 1.2.2.4.3 1 .3 1.7h-.2"/>
  <path fill="#e6e8e3" d="M.3 41.5c0-1.3.2-2 .4-2.7.2-.6.5-1 .8-1.2.5-.6 1-1 1.3-2.9H3c0 1-.3 1.6-.6 2-.2.5-.5.7-.8 1-.2.3-.5.6-.7 1.2a9 9 0 0 0-.4 2.6H.3"/>
  <path fill="#e3e6e3" d="M3 34.8a5.3 5.3 0 0 1-.8 2.3l-.6.7-.2.3a3 3 0 0 0-.5.8l-.1.5a8.6 8.6 0 0 0-.3 2.2H.2a15.3 15.3 0 0 1 .3-2.3l.1-.4a3.3 3.3 0 0 1 .8-1.3L2 37c.4-.4.7-1 .8-2.2H3"/>
  <path fill="#dee3e1" d="M3 34.8a5.4 5.4 0 0 1-.8 2.4l-.6.6-.2.3a3 3 0 0 0-.5.9l-.1.5a8.6 8.6 0 0 0-.3 2.1H.2a16.2 16.2 0 0 1 .3-2.2l.1-.5a3.4 3.4 0 0 1 .8-1.2L2 37c.4-.4.7-1 .8-2.2H3"/>
  <path fill="#dbe1de" d="M3 34.9c0 .9-.3 1.5-.6 2l-.2.3-.6.6-.2.3c-.2.3-.4.5-.5 1l-.1.4a8.8 8.8 0 0 0-.3 2.1H.2a16 16 0 0 1 .3-2.2l.1-.5a3.3 3.3 0 0 1 .8-1.2l.5-.6c.4-.5.7-1 .8-2.3H3"/>
  <path fill="#d9dedb" d="M3 34.9a5.6 5.6 0 0 1-.8 2.3l-.6.7-.2.3c-.2.2-.4.5-.5.9l-.1.5a8.5 8.5 0 0 0-.3 2H.2a17 17 0 0 1 .3-2.1l.1-.5a3.3 3.3 0 0 1 .8-1.3l.5-.6c.4-.4.7-1 .8-2.2H3"/>
  <path fill="#d4dbd9" d="M3 34.9a5.8 5.8 0 0 1-.8 2.4l-.6.6-.2.3a3 3 0 0 0-.5.9l-.1.5a8.7 8.7 0 0 0-.3 2.1H.2a15.8 15.8 0 0 1 .3-2.2l.1-.5a3.3 3.3 0 0 1 .8-1.2L2 37c.4-.4.7-1 .8-2.2H3"/>
  <path fill="#d1d9d9" d="M3 35a6 6 0 0 1-.6 2l-.2.3-.6.7-.2.2a3 3 0 0 0-.5 1l-.1.4a8.7 8.7 0 0 0-.3 2.2H.3a17.3 17.3 0 0 1 .3-2.3l.1-.4a3.3 3.3 0 0 1 .8-1.3l.5-.6a5 5 0 0 0 .8-2.3H3"/>
  <path fill="#cfd6d6" d="M3 35a6 6 0 0 1-.8 2.3l-.6.7-.2.3a3 3 0 0 0-.5.9l-.1.5a8.7 8.7 0 0 0-.3 2.1H.3a16.8 16.8 0 0 1 .3-2.2l.1-.5.6-1 .2-.3c.2-.2.4-.3.5-.6a5 5 0 0 0 .8-2.3H3"/>
  <path fill="#ccd6d4" d="M3 35a6.2 6.2 0 0 1-.8 2.4l-.6.6-.2.3a3 3 0 0 0-.5 1l-.1.4A8.7 8.7 0 0 0 .5 42H.3a16.6 16.6 0 0 1 .3-2.3l.1-.5a3.3 3.3 0 0 1 .8-1.2l.5-.7c.4-.4.6-1.1.8-2.2H3"/>
  <path fill="#c9d1d4" d="M3 35c-.1.8-.3 1.5-.6 2l-.2.4-.6.7-.2.2a3 3 0 0 0-.5 1l-.1.5a8.5 8.5 0 0 0-.3 2.1H.3a16.9 16.9 0 0 1 .3-2.2l.1-.5a3.3 3.3 0 0 1 .8-1.3l.5-.6c.4-.5.6-1.2.8-2.3H3"/>
  <path fill="#c7d1d1" d="M3 35c-.1.9-.3 1.6-.6 2l-.2.4-.6.7-.2.3a3 3 0 0 0-.5.9l-.1.5A8.8 8.8 0 0 0 .5 42H.3a17.1 17.1 0 0 1 .3-2.3l.1-.5a3.3 3.3 0 0 1 .8-1.2l.5-.7c.4-.5.6-1.2.8-2.3H3"/>
  <path fill="#c4cfcf" d="M3 35c-.1.9-.3 1.6-.6 2l-.2.5-.6.6-.2.3a3 3 0 0 0-.5 1l-.1.4A8.7 8.7 0 0 0 .5 42H.3a18.9 18.9 0 0 1 .3-2.3l.1-.4a3.3 3.3 0 0 1 .8-1.3l.5-.7c.4-.4.6-1.2.8-2.3H3"/>
  <path fill="#bfc9cc" d="M3 35a6.8 6.8 0 0 1-.8 2.5l-.6.7-.2.3a3 3 0 0 0-.5.9l-.1.5A8.7 8.7 0 0 0 .5 42H.3a17.2 17.2 0 0 1 .3-2.3l.1-.5a3.2 3.2 0 0 1 .8-1.3l.5-.6c.4-.5.6-1.2.8-2.3H3"/>
  <path fill="#bac7c9" d="M3 35a7 7 0 0 1-.6 2.1l-.2.4-.6.7-.2.3a3 3 0 0 0-.5 1l-.1.4a8.7 8.7 0 0 0-.3 2.2H.3a17.4 17.4 0 0 1 .3-2.3l.1-.5a3.2 3.2 0 0 1 .8-1.2l.5-.7c.4-.5.6-1.2.8-2.3H3"/>
  <path fill="#bac7c9" d="M3 35.1a7.2 7.2 0 0 1-.8 2.4l-.6.7-.2.3a3 3 0 0 0-.5 1l-.2.5A9 9 0 0 0 .5 42H.3A19.6 19.6 0 0 1 .6 40l.1-.5a3.2 3.2 0 0 1 .8-1.3l.5-.7c.4-.5.6-1.2.8-2.3H3"/>
  <path fill="#b5c2c7" d="M3 35.1a7.4 7.4 0 0 1-.8 2.5l-.5.7-.3.3a3 3 0 0 0-.5.9l-.2.5a9 9 0 0 0-.2 2.2H.3A17.5 17.5 0 0 1 .6 40l.1-.5.6-1 .2-.3.5-.6a6 6 0 0 0 .8-2.4H3"/>
  <path fill="#b2c2c4" d="M3 35.2a7.5 7.5 0 0 1-.8 2.4l-.5.7-.3.3a3 3 0 0 0-.5 1l-.2.4a9 9 0 0 0-.2 2.2H.3A17.8 17.8 0 0 1 .6 40l.1-.5a3.3 3.3 0 0 1 .8-1.3l.5-.7c.4-.5.6-1.3.8-2.3H3"/>
  <path fill="#b0bfc2" d="M3 35.2a7.7 7.7 0 0 1-.8 2.4l-.5.7-.3.3a3 3 0 0 0-.5 1l-.2.5a9.1 9.1 0 0 0-.2 2.2H.3A19.9 19.9 0 0 1 .6 40l.1-.5a3.2 3.2 0 0 1 .8-1.3l.5-.7c.4-.5.6-1.3.8-2.3H3"/>
  <path fill="#adbdc2" d="M3 35.2a8 8 0 0 1-.8 2.5l-.5.7-.3.3a3 3 0 0 0-.5.9l-.2.5a9 9 0 0 0-.2 2.2H.3A18.6 18.6 0 0 1 .6 40l.1-.5a3.2 3.2 0 0 1 .8-1.3l.5-.6c.4-.5.6-1.3.8-2.4H3"/>
  <path fill="#abbabf" d="M3 35.2a8.1 8.1 0 0 1-.8 2.5l-.5.7-.3.3a3 3 0 0 0-.5 1l-.2.5a9 9 0 0 0-.2 2.2H.3A19 19 0 0 1 .6 40l.1-.5a3.2 3.2 0 0 1 .8-1.3l.5-.7c.4-.5.6-1.3.8-2.4H3"/>
  <path fill="#a8b8bd" d="M3 35.3a8.4 8.4 0 0 1-.8 2.4l-.5.8-.3.2a3 3 0 0 0-.5 1l-.2.5a9.2 9.2 0 0 0-.2 2.2H.3a19.2 19.2 0 0 1 .3-2.3v-.5a3.2 3.2 0 0 1 .9-1.3l.5-.7c.4-.5.6-1.3.8-2.3H3"/>
  <path fill="#a6b5ba" d="M3 35.3a8.5 8.5 0 0 1-.8 2.5l-.5.7-.3.3a3 3 0 0 0-.5 1l-.2.4a9 9 0 0 0-.2 2.3H.3a20.4 20.4 0 0 1 .3-2.3v-.5a3.2 3.2 0 0 1 .9-1.3l.5-.7c.4-.6.6-1.4.8-2.4H3"/>
  <path fill="#a3b5ba" d="M3 35.3a8.8 8.8 0 0 1-.8 2.5l-.5.7-.3.3a3 3 0 0 0-.5 1l-.2.5a9 9 0 0 0-.2 2.2H.3a19.6 19.6 0 0 1 .3-2.3v-.5a3.2 3.2 0 0 1 .9-1.3l.5-.7a7 7 0 0 0 .8-2.4H3"/>
  <path fill="#a1b0b5" d="M3 35.3a8.9 8.9 0 0 1-.8 2.5l-.5.8-.3.3a3 3 0 0 0-.5.9l-.2.5a9 9 0 0 0-.2 2.3H.3a19.3 19.3 0 0 1 .3-2.4v-.5a3.2 3.2 0 0 1 1-1.3l.4-.7c.4-.5.6-1.4.8-2.4H3"/>
  <path fill="#9eb0b5" d="M3 35.4a9.2 9.2 0 0 1-.8 2.5l-.5.7-.3.3a3 3 0 0 0-.5 1l-.2.5a9.2 9.2 0 0 0-.2 2.2H.3a19.5 19.5 0 0 1 .3-2.3v-.5l.7-1c0-.2.1-.2.2-.3l.5-.7c.4-.6.6-1.4.8-2.4H3"/>
  <path fill="#9badb2" d="M3 35.4a9.3 9.3 0 0 1-.8 2.5l-.5.7-.3.3a3 3 0 0 0-.5 1l-.2.5a9 9 0 0 0-.2 2.3H.3a21.5 21.5 0 0 1 .3-2.4v-.5a3.1 3.1 0 0 1 1-1.3l.4-.7c.4-.5.6-1.4.7-2.4H3"/>
  <path fill="#99abb0" d="M3 35.4a9.6 9.6 0 0 1-.8 2.5l-.5.8-.3.3a3 3 0 0 0-.5 1l-.2.4a9 9 0 0 0-.2 2.3H.3a21 21 0 0 1 .3-2.3v-.5a3.1 3.1 0 0 1 1-1.4l.4-.7c.4-.5.6-1.4.7-2.4H3"/>
  <path fill="#96a8b0" d="M3 35.4a9.8 9.8 0 0 1-.8 2.6l-.5.7-.3.3a3 3 0 0 0-.5 1l-.2.5a9 9 0 0 0-.1 2.2H.3a20.2 20.2 0 0 1 .2-2.3V40a3.1 3.1 0 0 1 1-1.3l.4-.7c.4-.6.6-1.5.7-2.5H3"/>
  <path fill="#94a6ad" d="M3 35.5a10 10 0 0 1-.8 2.5l-.5.7-.3.3a3 3 0 0 0-.5 1l-.2.5a9 9 0 0 0-.1 2.3H.3a20.3 20.3 0 0 1 .2-2.4V40l.7-1 .2-.3.6-.7a8 8 0 0 0 .6-2.4H3"/>
  <path fill="#91a3ab" d="M3 35.5a10.3 10.3 0 0 1-.8 2.5l-.5.8-.3.3a3 3 0 0 0-.5 1l-.2.5a9.3 9.3 0 0 0-.1 2.2H.3a20.5 20.5 0 0 1 .2-2.3V40l.7-1 .2-.4.6-.7c.2-.5.5-1.5.6-2.4H3"/>
  <path fill="#8fa3a8" d="M3 35.5a10.5 10.5 0 0 1-.8 2.6l-.5.7-.3.3a3 3 0 0 0-.5 1l-.2.5A9.3 9.3 0 0 0 .6 43H.3a20.2 20.2 0 0 1 .2-2.4V40l.7-1 .2-.3.6-.7c.2-.6.5-1.5.6-2.5H3"/>
  <path fill="#8ca1a6" d="M3 35.5a11 11 0 0 1-.8 2.6l-.5.7-.3.3a3 3 0 0 0-.5 1l-.2.5A9.2 9.2 0 0 0 .6 43H.3a20.4 20.4 0 0 1 .2-2.3V40l.7-1.1.2-.3.6-.7c.2-.6.5-1.5.6-2.5H3"/>
  <path fill="#899ea3" d="M3 35.5a11 11 0 0 1-.8 2.6l-.5.8-.3.3a3 3 0 0 0-.5 1l-.2.5A9.1 9.1 0 0 0 .6 43H.3a21.6 21.6 0 0 1 .2-2.4v-.5l.7-1c0-.2.1-.3.2-.3l.6-.8c.2-.5.5-1.5.6-2.4H3"/>
  <path fill="#879ba3" d="M3 35.6a11.3 11.3 0 0 1-.8 2.6l-.5.7-.3.3c-.2.3-.4.5-.5 1l-.2.5A9.4 9.4 0 0 0 .6 43H.3a22.4 22.4 0 0 1 .2-2.3V40l.7-1 .2-.3.6-.7a8.9 8.9 0 0 0 .7-2.5h.1"/>
  <path fill="#8799a3" d="M3 35.6a11.6 11.6 0 0 1-.8 2.6l-.5.8-.3.3a3 3 0 0 0-.5 1l-.2.5A9.2 9.2 0 0 0 .6 43H.3a20.8 20.8 0 0 1 .2-2.4v-.5l.7-1 .2-.4.6-.7a9 9 0 0 0 .6-2.5H3"/>
  <path fill="#8499a1" d="M3 35.6a11.9 11.9 0 0 1-.8 2.6l-.5.8-.3.3c-.2.2-.4.5-.5 1l-.2.5a9.3 9.3 0 0 0-.1 2.3H.3a20 20 0 0 1 .2-2.4v-.5a3 3 0 0 1 1-1.3L2 38a9.4 9.4 0 0 0 .7-2.5h.1"/>
  <path fill="#82949e" d="M3 35.6a12.2 12.2 0 0 1-.8 2.7l-.5.7-.3.3-.5 1-.2.6a9.4 9.4 0 0 0-.1 2.3H.3a20.1 20.1 0 0 1 .2-2.4v-.5l.7-1.1.2-.3.6-.7c.2-.6.5-1.6.6-2.5H3"/>
  <path fill="#80949b" d="M3 35.7a12.3 12.3 0 0 1-.8 2.6l-.5.8-.3.3c-.2.2-.4.5-.5 1l-.2.5a9.3 9.3 0 0 0-.1 2.3H.3a20.3 20.3 0 0 1 .1-2.4l.2-.5c.1-.5.4-.8.6-1l.2-.4.6-.7a9.8 9.8 0 0 0 .6-2.5H3"/>
  <path fill="#7d9199" d="M2.9 35.7a12.8 12.8 0 0 1-.7 2.6 3 3 0 0 1-.5.8l-.3.3c-.2.2-.4.5-.5 1l-.2.5a9.4 9.4 0 0 0-.1 2.4H.3a20.8 20.8 0 0 1 .1-2.4l.2-.6c.1-.5.4-.8.6-1l.2-.3.6-.8c.2-.6.5-1.6.6-2.5H3"/>
  <path fill="#7a8f96" d="M2.9 35.7a13.1 13.1 0 0 1-.7 2.7 3 3 0 0 1-.5.7l-.3.3-.5 1-.2.6a9.7 9.7 0 0 0-.1 2.3H.3A21.6 21.6 0 0 1 .5 41l.2-.5c.1-.5.4-.8.6-1.1l.2-.3.6-.7c.2-.6.5-1.7.6-2.6H3"/>
  <path fill="#788c94" d="M2.9 35.7a13.4 13.4 0 0 1-.7 2.7 3 3 0 0 1-.5.8l-.3.3c-.2.2-.4.5-.5 1l-.2.5a9.7 9.7 0 0 0-.1 2.3H.3A21 21 0 0 1 .5 41l.2-.5c.1-.5.4-.8.6-1l.2-.4.6-.7.6-2.5H3"/>
  <path fill="#758c91" d="M2.9 35.8a13.7 13.7 0 0 1-.7 2.6 3 3 0 0 1-.5.8l-.3.3c-.2.3-.4.5-.5 1l-.2.6a9.5 9.5 0 0 0-.1 2.3H.3A23.6 23.6 0 0 1 .5 41l.2-.5a3 3 0 0 1 .8-1.4l.6-.8a10.6 10.6 0 0 0 .6-2.6H3"/>
  <path fill="#73878f" d="M2.9 35.8a14 14 0 0 1-.7 2.7 3 3 0 0 1-.5.7l-.3.3-.5 1-.2.6a9.6 9.6 0 0 0-.1 2.3H.3A20.3 20.3 0 0 1 .5 41l.2-.5a3 3 0 0 1 .8-1.4l.6-.7a10.9 10.9 0 0 0 .6-2.6H3"/>
  <path fill="#73878f" d="M2.9 35.8a14.3 14.3 0 0 1-.7 2.7l-.5.8-.3.3c-.2.2-.4.5-.5 1l-.2.5a9.7 9.7 0 0 0-.1 2.4H.3a20.9 20.9 0 0 1 .1-2.4l.2-.6c.1-.5.4-.8.6-1 0-.2.2-.3.2-.3l.6-.8c.2-.6.5-1.7.6-2.6H3"/>
  <path fill="#70848c" d="M2.9 35.8a14.7 14.7 0 0 1-.7 2.7c-.1.4-.3.6-.5.8l-.3.3c-.2.3-.4.5-.5 1l-.2.6a9.6 9.6 0 0 0-.1 2.3H.3a23.3 23.3 0 0 1 .1-2.4l.2-.5c.1-.5.4-.9.6-1.1l.2-.3.6-.8.6-2.5H3"/>
  <path fill="#6e8289" d="M2.9 35.9a15 15 0 0 1-.7 2.7l-.5.7-.3.4c-.2.2-.4.5-.5 1l-.2.5a9.6 9.6 0 0 0-.1 2.4H.4a21.7 21.7 0 0 1 .1-2.5l.2-.5c.1-.5.4-.8.6-1l.2-.4.6-.7.6-2.6H3"/>
  <path fill="#6b8089" d="M2.9 35.9a15.4 15.4 0 0 1-.7 2.7l-.5.8-.3.3c-.2.2-.4.5-.5 1l-.2.6a10 10 0 0 0-.1 2.3H.4a21.7 21.7 0 0 1 .1-2.4l.2-.5c.1-.6.4-.9.6-1.2l.2-.2.6-.8.6-2.6H3"/>
  <path fill="#697d84" d="M2.9 36a15.7 15.7 0 0 1-.7 2.6c-.1.4-.3.6-.5.8l-.3.3-.5 1-.2.6a9.8 9.8 0 0 0-.1 2.4H.4a21.3 21.3 0 0 1 .1-2.5l.2-.5c.1-.5.4-.8.6-1.1l.2-.3.6-.8.6-2.6H3"/>
  <path fill="#667d84" d="M2.9 36a16 16 0 0 1-.7 2.7l-.5.8-.3.3c-.2.2-.4.5-.5 1l-.2.5a9.6 9.6 0 0 0-.1 2.4H.4a22 22 0 0 1 .1-2.4l.2-.6c.1-.5.4-.8.6-1l.2-.4.6-.7.6-2.6H3"/>
  <path fill="#667882" d="M2.9 36a16.6 16.6 0 0 1-.7 2.7l-.5.8-.3.3c-.2.2-.4.5-.5 1l-.2.6a9.7 9.7 0 0 0-.1 2.4H.4a23 23 0 0 1 .1-2.5l.2-.5c.1-.5.4-.9.6-1.1l.2-.3.6-.8.6-2.6h.2"/>
  <path fill="#637880" d="M2.9 36a17 17 0 0 1-.7 2.7c-.1.4-.3.6-.5.8l-.3.3-.5 1-.2.6a9.6 9.6 0 0 0-.1 2.4H.4a23.8 23.8 0 0 1 .1-2.5l.2-.5c.1-.5.4-.8.6-1.1l.3-.3.5-.8.6-2.6h.2"/>
  <path fill="#61757d" d="M2.9 36a17 17 0 0 1-.7 2.8l-.5.8-.3.3c-.2.2-.4.5-.5 1l-.2.6a9.6 9.6 0 0 0-.1 2.4H.4a22.7 22.7 0 0 1 .1-2.5l.2-.5c.1-.6.4-.9.6-1.2l.3-.3.5-.7.6-2.7h.2"/>
  <path fill="#5c737a" d="M2.8 36l-.4 2.3-.2.5-.5.8-.3.3c-.2.3-.4.5-.5 1l-.2.6a9.6 9.6 0 0 0-.1 2.4H.4a22.6 22.6 0 0 1 .1-2.5l.2-.5c.1-.5.4-.9.6-1.1l.3-.3.5-.8a13.6 13.6 0 0 0 .6-2.7h.1"/>
  <path fill="#5c7078" d="M2.8 36l-.4 2.4-.2.4c0 .4-.3.6-.5.8l-.3.3-.5 1-.2.6A9.8 9.8 0 0 0 .6 44v.1H.4a21.2 21.2 0 0 1 .1-2.5l.2-.6c.1-.5.4-.8.6-1 0-.2.2-.3.3-.4l.5-.8c.2-.6.5-1.9.5-2.6h.2"/>
  <path fill="#597078" d="M2.8 36l-.4 2.4-.2.4c0 .4-.3.6-.5.9l-.3.3c-.2.2-.4.5-.5 1l-.2.6A9.6 9.6 0 0 0 .6 44H.4a21.2 21.2 0 0 1 .1-2.5l.2-.5c.1-.6.4-.9.6-1.2l.3-.2.5-.8c.2-.7.5-2 .5-2.7h.2"/>
  <path fill="#596e75" d="M2.8 36.1l-.4 2.3-.2.5c0 .3-.3.6-.5.8l-.3.3-.5 1-.2.6A9.9 9.9 0 0 0 .6 44l-.2.1a21.7 21.7 0 0 1 .1-2.5l.2-.6c.1-.5.4-.9.6-1.1l.3-.3.5-.8c.2-.7.5-2 .5-2.7h.2"/>
  <path fill="#546b73" d="M2.8 36.1l-.4 2.4-.2.4c0 .4-.3.6-.5.8l-.3.4c-.2.2-.4.5-.5 1l-.2.6A9.8 9.8 0 0 0 .6 44H.4a22.8 22.8 0 0 1 .1-2.5l.2-.6c.1-.5.4-.8.6-1 0-.2.2-.3.3-.4l.5-.8.5-2.6h.2"/>
  <path fill="#526970" d="M2.8 36.1l-.4 2.4-.2.4c0 .4-.3.7-.5.9l-.3.3c-.2.2-.4.5-.5 1l-.2.6A9.8 9.8 0 0 0 .6 44H.4a21.8 21.8 0 0 1 .1-2.5l.2-.5c.1-.5.4-.9.6-1.1l.3-.3.5-.8.5-2.7h.2"/>
  <path fill="#52666e" d="M2.8 36.2l-.4 2.3-.2.5c0 .3-.3.6-.5.8l-.3.3-.5 1-.2.6a9.7 9.7 0 0 0 0 2.5H.3a21.2 21.2 0 0 1 .1-2.5l.2-.6c.1-.5.4-.8.6-1.1l.3-.3.5-.8.5-2.7h.2"/>
  <path fill="#4f636b" d="M2.8 36.2l-.4 2.4-.1.4-.6.8c0 .2-.2.3-.3.4-.2.2-.4.5-.5 1l-.2.6a9.8 9.8 0 0 0 0 2.4H.3a21.8 21.8 0 0 1 .1-2.5l.2-.5c.1-.6.4-.9.6-1.2l.3-.3.5-.8.5-2.7h.2"/>
  <path fill="#4d6169" d="M2.8 36.2l-.4 2.4-.1.4-.6.9-.3.3c-.2.3-.4.5-.5 1l-.2.6a9.9 9.9 0 0 0 0 2.5H.3a20.8 20.8 0 0 1 .1-2.5l.2-.6c.1-.5.4-.9.6-1.1l.3-.3.5-.8.5-2.7h.2"/>
  <path fill="#4a5e66" d="M2.8 36.2l-.4 2.4-.1.5-.6.8-.3.3-.5 1-.2.7a9.9 9.9 0 0 0 0 2.4H.3a20.8 20.8 0 0 1 .1-2.5l.2-.6c.1-.5.4-.8.6-1.1l.3-.3c.2-.2.4-.4.5-.8l.5-2.7h.2"/>
  <path fill="#475c66" d="M2.8 36.3l-.4 2.3-.1.5-.6.9-.3.3c-.2.2-.4.5-.5 1l-.2.6a10 10 0 0 0 0 2.5H.3a20.8 20.8 0 0 1 .1-2.6l.2-.5c.1-.6.4-.9.6-1.2l.3-.2c.2-.3.4-.5.5-.9a16.8 16.8 0 0 0 .5-2.7h.2"/>
  <path fill="#455963" d="M2.8 36.3l-.4 2.4-.1.4-.6.9-.3.3-.5 1-.2.6a10.1 10.1 0 0 0 0 2.5H.3A20.3 20.3 0 0 1 .5 42l.2-.6c.1-.5.4-.9.6-1.1l.3-.3.5-.8.5-2.8h.2"/>
  <path fill="#455961" d="M2.8 36.3l-.4 2.4-.1.5-.6.8-.3.3-.5 1-.2.7a10 10 0 0 0 0 2.5H.3A21.3 21.3 0 0 1 .5 42l.2-.5c.1-.6.4-1 .6-1.2l.3-.3c.2-.2.4-.4.5-.8l.5-2.7v-.1h.2"/>
  <path fill="#40545e" d="M2.8 36.3l-.4 2.4-.1.5-.6.9-.3.3c-.2.2-.4.5-.5 1l-.2.6a10.2 10.2 0 0 0 0 2.5H.3A21.2 21.2 0 0 1 .5 42l.2-.6c.1-.5.4-.9.6-1.1l.3-.3c.2-.3.4-.5.5-.9l.5-2.7h.2"/>
  <path fill="#3d545c" d="M2.8 36.4l-.4 2.4-.1.4-.6.9-.3.3-.5 1-.2.7a10.3 10.3 0 0 0 0 2.4s-.1 0 0 .1H.3A21.3 21.3 0 0 1 .5 42l.2-.6c.1-.5.4-.8.6-1.1l.3-.3.5-.8.5-2.8h.2"/>
  <path fill="#3b5259" d="M2.8 36.4l-.4 2.4-.1.5-.6.8-.3.4c-.2.2-.4.5-.5 1l-.2.6a10.4 10.4 0 0 0 0 2.5H.3A20.8 20.8 0 0 1 .5 42l.2-.5c.1-.6.4-.9.6-1.2l.3-.3c.2-.2.4-.4.5-.8l.5-2.8h.2"/>
  <path fill="#384f57" d="M2.8 36.4l-.4 2.4-.1.5-.6.9-.3.3c-.2.2-.4.5-.5 1l-.2.6a10.2 10.2 0 0 0 0 2.5v.1H.3a21.2 21.2 0 0 1 .1-2.6l.2-.6c.1-.5.4-.9.6-1.1l.3-.3c.2-.3.4-.5.5-.9a18.9 18.9 0 0 0 .5-2.8h.2"/>
  <path fill="#364d54" d="M2.8 36.4L2.4 39l-.1.4-.6.9-.3.3-.5 1-.2.7a10.2 10.2 0 0 0 0 2.5H.3a20.7 20.7 0 0 1 .1-2.6l.2-.5c.1-.6.4-1 .6-1.2l.3-.3.5-.8.5-2.8h.2"/>
  <path fill="#334a52" d="M2.8 36.5l-.4 2.4-.1.5-.6.8-.2.4c-.3.2-.5.5-.6 1l-.2.6a10.3 10.3 0 0 0 0 2.5v.1H.3v-1.2a10.1 10.1 0 0 1 .3-2c.1-.6.4-.9.6-1.2l.3-.3c.2-.2.4-.4.5-.8l.5-2.8h.2"/>
  <path fill="#30474f" d="M2.8 36.5l-.4 2.4-.1.5-.6.9-.2.3c-.3.3-.5.5-.6 1l-.2.7a10.3 10.3 0 0 0 0 2.5H.3a20.2 20.2 0 0 1 .1-2.6l.2-.6c.1-.5.4-.9.6-1.1l.3-.3c.2-.3.4-.5.5-.9l.5-2.8h.2"/>
  <path fill="#2e454d" d="M2.8 36.5L2.4 39l-.1.4-.6 1-.2.2c-.3.3-.5.6-.6 1l-.2.7a10.3 10.3 0 0 0 0 2.5l-.2.1a20.6 20.6 0 0 1 0-2.6l.2-.6c.1-.6.4-1 .6-1.2l.3-.3c.2-.2.4-.4.5-.8l.5-2.8v-.1h.2"/>
  <path fill="#2b424a" d="M2.8 36.5L2.4 39l-.1.5c-.2.4-.3.6-.6.8l-.2.4c-.3.2-.5.5-.6 1l-.2.6a10.3 10.3 0 0 0 0 2.6H.4a20.5 20.5 0 0 1 0-2.6l.2-.6c.1-.5.4-.9.6-1.2l.3-.2c.2-.3.4-.5.5-.9l.5-2.8h.2"/>
  <path fill="#294047" d="M2.8 36.6L2.4 39l-.1.5-.6.9-.2.3c-.3.3-.5.6-.6 1l-.2.7a10.3 10.3 0 0 0 0 2.5H.4a19.7 19.7 0 0 1 0-2.6l.2-.5c.1-.6.4-1 .6-1.2l.3-.3c.2-.2.4-.5.5-.9l.5-2.8h.2"/>
  <path fill="#263d45" d="M2.8 36.6L2.4 39l-.1.5-.5 1-.3.2c-.3.3-.5.6-.6 1.1l-.2.6a10.3 10.3 0 0 0 0 2.6H.4a20 20 0 0 1 0-2.6l.2-.6c.1-.6.4-.9.6-1.2l.3-.3c.2-.2.4-.4.5-.8l.5-2.9h.2"/>
  <path fill="#243b42" d="M2.8 36.6l-.4 2.5-.1.5-.5.9-.3.3c-.3.2-.5.5-.6 1l-.2.7a10.4 10.4 0 0 0 0 2.5H.4a21.2 21.2 0 0 1 0-2.6l.2-.6c.1-.5.4-.9.6-1.1l.3-.3c.2-.3.4-.5.5-.9l.5-2.8v-.1h.2"/>
  <path fill="#1f3840" d="M2.8 36.6l-.4 2.5-.1.5-.5.9-.3.3c-.3.3-.5.6-.6 1l-.2.7a10.2 10.2 0 0 0 0 2.5v.1H.4A19.6 19.6 0 0 1 .7 42c.1-.6.4-1 .6-1.2l.3-.3c.2-.2.4-.5.5-.9a21.8 21.8 0 0 0 .5-2.9h.2"/>
  <path fill="#1c333d" d="M2.7 36.7L2.4 39l-.1.5-.5 1-.3.3c-.3.2-.5.5-.6 1l-.2.6a10.3 10.3 0 0 0 0 2.6H.4a20.3 20.3 0 0 1 0-2.6l.2-.6c.1-.6.4-.9.6-1.2l.3-.3c.2-.2.4-.4.5-.8l.5-2.9h.1"/>
  <path fill="#1a333b" d="M2.7 36.7l-.3 2.5-.1.5c-.1.4-.3.6-.5.9l-.3.3c-.3.2-.5.5-.6 1l-.2.7a10.5 10.5 0 0 0 0 2.5v.1H.4A19.5 19.5 0 0 1 .7 42c.1-.6.4-1 .6-1.2l.3-.3c.2-.3.4-.5.5-.9l.5-2.9h.1"/>
  <path fill="#142e38" d="M2.7 36.7l-.3 2.5-.1.5c-.1.4-.3.7-.5.9l-.3.3c-.3.3-.5.6-.6 1l-.2.7a10.4 10.4 0 0 0 0 2.6H.4A18.6 18.6 0 0 1 .7 42c.1-.6.4-1 .6-1.2l.3-.3c.2-.2.4-.5.5-.9l.5-2.8v-.1h.1"/>
  <path fill="#122e36" d="M2.7 36.7l-.3 2.5-.1.5-.5 1-.3.3c-.3.2-.5.5-.6 1l-.2.7a10.6 10.6 0 0 0 0 2.5v.1H.4A20.1 20.1 0 0 1 .7 42c.1-.5.4-.9.6-1.2l.3-.3c.2-.2.4-.4.5-.8l.5-3h.1"/>
  <path fill="#0a2933" d="M2.7 36.8l-.3 2.5-.1.5c-.1.4-.3.6-.5.9l-.3.3c-.3.3-.5.6-.6 1l-.2.7a10.3 10.3 0 0 0 0 2.6H.4a20.4 20.4 0 0 1 0-2.6l.2-.6c.1-.6.4-1 .6-1.2l.3-.3c.2-.3.4-.5.5-.9a23.9 23.9 0 0 0 .5-3h.1"/>
  <path fill="#052930" d="M2.7 36.8l-.3 2.5-.1.5c-.1.4-.3.7-.5.9l-.3.3c-.3.3-.5.6-.6 1.1l-.2.6a10.4 10.4 0 0 0 0 2.6v.1H.4a19.1 19.1 0 0 1 .2-3.3c.1-.6.4-.9.6-1.2l.3-.3c.2-.2.4-.5.5-.9a24.4 24.4 0 0 0 .5-3h.1"/>
  <path fill="#00242e" d="M2.7 36.8l-.3 2.5-.1.5-.5 1-.3.3c-.3.2-.5.5-.6 1l-.2.7a10.5 10.5 0 0 0 0 2.6H.5a18.9 18.9 0 0 1 .2-3.2c.1-.6.4-1 .6-1.2l.3-.3c.2-.3.4-.5.5-1l.4-2.8v-.1h.2"/>
  <path fill="#001f29" d="M2.7 36.8l-.3 2.6-.1.5c-.1.4-.3.6-.5.9l-.3.3c-.3.3-.5.6-.6 1l-.2.7a10.6 10.6 0 0 0 0 2.6v.1H.5a19 19 0 0 1 .2-3.3c.1-.6.4-1 .6-1.2l.3-.3c.2-.2.4-.5.5-.9l.4-3h.2"/>
  <path fill="#001c26" d="M2.7 36.8l-.3 2.6-.1.5-.5 1-.3.2c-.3.3-.5.6-.6 1.1l-.2.7a10.6 10.6 0 0 0 0 2.6H.5a18.7 18.7 0 0 1 .2-3.3c.1-.6.4-.9.6-1.2l.3-.3c.2-.2.4-.5.5-.9a25.3 25.3 0 0 0 .4-3h.2"/>
  <path fill="#001a24" d="M2.7 36.9l-.3 2.5-.1.5-.5 1-.3.3c-.3.2-.5.5-.7 1v.7c-.2.3-.2.9-.2 1.4v1.3H.6a18.7 18.7 0 0 1 .2-3.3c.1-.6.4-1 .6-1.2l.3-.3c.2-.3.4-.5.5-1l.4-2.9h.2"/>
  <path fill="#001421" d="M2.7 36.9l-.3 2.5-.1.6c-.1.4-.3.6-.5.9l-.3.3-.7 1.1v.6a10.9 10.9 0 0 0-.1 2.7H.5a18.6 18.6 0 0 1 .2-3.3c.1-.6.4-1 .6-1.2l.3-.3c.2-.2.4-.5.5-.9l.4-3h.2"/>
  <path fill="#000d1c" d="M2.7 37l-.3 2.5-.1.5-.5 1-.3.3c-.3.2-.5.5-.7 1v.7a10.6 10.6 0 0 0-.1 2.6l-.2.1a18.4 18.4 0 0 1 .2-3.3c.1-.6.4-1 .6-1.3l.3-.3c.2-.2.4-.4.5-.9l.4-3h.2"/>
  <path fill="#000a1a" d="M2.7 37l-.3 2.5-.1.5-.5 1-.3.3-.7 1v.7a10.7 10.7 0 0 0-.1 2.6v.1H.5a18.3 18.3 0 0 1 .2-3.3c.1-.6.4-1 .6-1.2l.3-.3c.2-.3.4-.5.5-1l.4-2.9h.2"/>
  <path fill="#000514" d="M.5 44.5V43c.2-1 .5-1.4.8-1.8.4-.4.7-.6.8-1.2l.4-3h.2l-.4 3c-.2.7-.5 1-.8 1.3a3 3 0 0 0-.8 1.8v2.7H.5v-1.3"/>
  <g clip-path="url(#k)" transform="matrix(.13333 0 0 -.13333 -.5 85.9)">
    <path fill="url(#l)" d="M319.1 626.1c-148.1 0-279-113-297.4-262.4l-1.3-11.6c-1-7-1.2-10.9-6-15.7-4.6-4.6-7.8-9.9-7.5-27.2.4-21.1 8-70.4 33.4-118.8a270.3 270.3 0 0 1 112.5-112 308 308 0 0 0-129 248.2c0 164 133 297.1 297.2 297.1v2.4H319"/>
  </g>
  <g clip-path="url(#m)" transform="matrix(.13333 0 0 -.13333 -.5 85.9)">
    <path fill="url(#n)" d="M304.4 623.3v-2c150.5 0 275.5-108.8 293.4-254.5a35 35 0 0 1 8-19c4.3-4.3 7.7-11.2 7.7-23.9 0-160.9-131.3-292.1-294.1-292.1v-2.4h1.6a297.2 297.2 0 0 1 0 594.3l-16.6-.4"/>
  </g>
  <path fill="#000514" d="M14.5 14.7a39.4 39.4 0 1 0 55.7 55.7 39.4 39.4 0 0 0-55.7-55.7zm-12 27.9a40 40 0 0 1 39.8-40 39.8 39.8 0 1 1-39.9 40"/>
  <path fill="#000514" d="M14.5 14.4a39.4 39.4 0 1 0 55.7 55.7 39.4 39.4 0 0 0-55.7-55.7zm-12 27.9a40 40 0 0 1 39.8-40 39.8 39.8 0 1 1-39.9 40"/>
  <path fill="#fff" d="M14.5 14.6a39.4 39.4 0 1 0 55.7 55.6 39.4 39.4 0 0 0-55.7-55.6zm-12 27.8a40 40 0 0 1 39.8-40 39.9 39.9 0 1 1-40 40"/>
  <g clip-path="url(#o)" transform="matrix(.13333 0 0 -.13333 -.5 85.9)">
    <path fill="url(#p)" d="M4.8 326.6a316.1 316.1 0 1 1 632.3 0 316.1 316.1 0 0 1-632.3 0zm2 0a314.3 314.3 0 1 0 628.5 0 314.3 314.3 0 0 0-628.6 0"/>
  </g>
  <g clip-path="url(#q)" transform="matrix(.13333 0 0 -.13333 -.5 85.9)">
    <path fill="url(#r)" d="M41 326.5a280 280 0 1 1 560 0 280 280 0 0 1-560 0zm1.8 0a278.2 278.2 0 1 0 556.4 0 278.2 278.2 0 0 0-556.4 0"/>
  </g>
  <path fill="#001721" d="M42.3 4v38.8l6.3-3.7-4.8-33.8s-.4-.8-1.5-1.3"/>
  <path fill="#001721" d="M42.3 4v38.8s6.3-3.7 6.3-3.9L43.8 5.3s-.4-.8-1.5-1.3"/>
  <path fill="#001721" d="M42.3 4v38.7c.1 0 6.2-3.6 6.2-4L43.8 5.3s-.4-.8-1.5-1.3"/>
  <path fill="#001a24" d="M42.3 4v38.7c.2 0 6.2-3.7 6.2-4.2L43.8 5.3s-.5-.8-1.5-1.3"/>
  <path fill="#001c26" d="M42.3 4v38.7c.2 0 6.2-3.7 6.1-4.4l-4.6-33s-.5-.8-1.5-1.3"/>
  <path fill="#001c26" d="M42.3 4v38.7c.2-.1 6.1-3.8 6-4.6L43.9 5.2s-.5-.7-1.5-1.2"/>
  <path fill="#001c26" d="M42.3 4v38.7c.3-.2 6-3.8 6-4.8L43.8 5.2s-.5-.7-1.5-1.2"/>
  <path fill="#031f29" d="M42.3 4v38.7c.3-.2 6-3.8 6-5L43.8 5.2s-.5-.7-1.5-1.2"/>
  <path fill="#031f29" d="M42.3 4v38.7c.4-.2 6-3.9 6-5.2L43.7 5.2s-.5-.7-1.5-1.2"/>
  <path fill="#051f29" d="M42.3 4v38.7c.4-.3 6-4 5.9-5.4l-4.5-32c0-.1-.4-.8-1.4-1.3"/>
  <path fill="#05212b" d="M42.3 4v38.7c.4-.3 6-4 5.8-5.6L43.7 5.2s-.4-.7-1.4-1.2"/>
  <path fill="#0a242b" d="M42.3 4v38.6c.5-.3 5.9-3.9 5.8-5.7L43.7 5.2s-.4-.8-1.4-1.2"/>
  <path fill="#0a262e" d="M42.3 4v38.6c.5-.3 5.9-4 5.7-6L43.7 5.3s-.5-.8-1.4-1.2"/>
  <path fill="#0d262e" d="M42.3 4v38.6c.6-.3 5.8-4 5.6-6.1L43.7 5.2s-.5-.8-1.4-1.2"/>
  <path fill="#0d262e" d="M42.3 4v38.6c.6-.4 5.8-4 5.6-6.3l-4.2-31c0-.1-.5-.9-1.4-1.3"/>
  <path fill="#12262e" d="M42.3 4v38.6c.7-.4 5.7-4 5.5-6.5L43.7 5.2s-.5-.8-1.4-1.2"/>
  <path fill="#122930" d="M42.3 4v38.6c.7-.4 5.7-4 5.5-6.8L43.7 5.2s-.5-.8-1.4-1.2"/>
  <path fill="#122930" d="M42.3 4v38.6c.7-.5 5.7-4.1 5.4-7l-4-30.4s-.5-.8-1.4-1.2"/>
  <path fill="#142b33" d="M42.3 4v38.6c.8-.5 5.6-4.2 5.4-7.2l-4-30.2s-.5-.8-1.4-1.2"/>
  <path fill="#172e33" d="M42.3 4v38.6c.8-.6 5.6-4.2 5.3-7.4l-4-30s-.4-.8-1.3-1.2"/>
  <path fill="#172e33" d="M42.3 4v38.5c.9-.5 5.5-4.1 5.3-7.5l-4-29.8s-.5-.8-1.3-1.2"/>
  <path fill="#1a2e36" d="M42.3 4v38.5c.9-.5 5.5-4.2 5.2-7.7L43.6 5.2s-.5-.8-1.3-1.2"/>
  <path fill="#1a2e36" d="M42.3 4v38.5c1-.6 5.5-4.2 5.2-7.9L43.6 5.2s-.5-.8-1.3-1.2"/>
  <path fill="#1c3038" d="M42.3 4v38.5c1-.6 5.4-4.3 5.1-8L43.6 5.1c0-.1-.5-.8-1.3-1.2"/>
  <path fill="#1c3038" d="M42.3 4v38.5c1-.7 5.4-4.3 5-8.3l-3.7-29c0-.1-.5-.8-1.3-1.2"/>
  <path fill="#1f3038" d="M42.3 4v38.5c1-.7 5.3-4.3 5-8.5L43.6 5.2c0-.1-.5-.8-1.3-1.2"/>
  <path fill="#1f333b" d="M42.3 4v38.5c1.1-.7 5.3-4.4 5-8.7L43.6 5.2c0-.1-.5-.8-1.3-1.2"/>
  <path fill="#1f3338" d="M42.3 4v38.5c1.1-.8 5.3-4.4 5-9L43.4 5.3A3 3 0 0 0 42.3 4"/>
  <path fill="#21333b" d="M42.3 4v38.5c1.2-.8 5.2-4.5 4.9-9.1L43.5 5.2A3 3 0 0 0 42.3 4"/>
  <path fill="#21333b" d="M42.3 4l.1 38.4c1.1-.8 5-4.4 4.7-9.2l-3.6-28c0-.1-.5-.9-1.2-1.2"/>
  <path fill="#24363d" d="M42.3 4l.1 38.4c1.2-.8 5-4.4 4.7-9.4L43.5 5.2c0-.2-.5-.9-1.2-1.2"/>
  <path fill="#24383d" d="M42.3 4l.1 38.4c1.2-.8 5-4.5 4.6-9.6L43.5 5S43 4.3 42.3 4"/>
  <path fill="#26383d" d="M42.3 4l.1 38.4c1.3-.9 5-4.5 4.6-9.8L43.5 5S43 4.3 42.3 4"/>
  <path fill="#26383d" d="M42.3 4l.1 38.4c1.3-1 5-4.6 4.5-10L43.5 5S43 4.3 42.3 4"/>
  <path fill="#293b40" d="M42.3 4l.1 38.4c1.3-1 4.9-4.6 4.4-10.3l-3.3-27S43 4.3 42.3 4"/>
  <path fill="#293b40" d="M42.3 4l.1 38.4a12 12 0 0 0 4.4-10.5L43.5 5.1S43 4.3 42.3 4"/>
  <path fill="#293d42" d="M42.3 4l.1 38.4a12 12 0 0 0 4.3-10.7L43.5 5.1c0-.1-.5-.8-1.2-1.1"/>
  <path fill="#2b3d45" d="M42.3 4l.1 38.4c1.5-1 4.8-4.7 4.3-10.9L43.4 5.1c0-.1-.4-.8-1-1.1"/>
  <path fill="#2e3d45" d="M42.3 4l.1 38.3c1.5-1 4.7-4.6 4.2-11L43.4 5.1c0-.1-.5-.8-1-1.1"/>
  <path fill="#2e4045" d="M42.3 4l.1 38.3c1.5-1 4.7-4.7 4.2-11.2l-3.2-26c0-.1-.5-.8-1-1.1"/>
  <path fill="#2e4045" d="M42.3 4l.1 38.3c1.6-1 4.7-4.7 4.1-11.4l-3-25.8c-.1-.1-.6-.8-1.2-1.1"/>
  <path fill="#304045" d="M42.3 4l.1 38.3c1.6-1.1 4.6-4.8 4-11.6l-3-25.6c0-.1-.5-.8-1-1.1"/>
  <path fill="#304047" d="M42.3 4l.1 38.3c1.7-1.2 4.6-4.8 4-11.8l-3-25.4c0-.1-.5-.8-1-1.1"/>
  <path fill="#334047" d="M42.3 4l.1 38.3c1.7-1.2 4.5-4.8 4-12L43.4 5c0-.1-.5-.8-1-1.1"/>
  <path fill="#33424a" d="M42.3 4l.1 38.3c1.8-1.2 4.5-4.9 4-12.2l-3-25c0-.2-.5-.8-1-1.1"/>
  <path fill="#33454a" d="M42.3 4l.1 38.3c1.8-1.3 4.5-5 3.9-12.4L43.3 5c0-.2-.4-.9-1-1.1"/>
  <path fill="#33454a" d="M42.3 4l.1 38.3c1.8-1.3 4.4-5 3.8-12.6L43.3 5c0-.2-.5-.9-1-1.1"/>
  <path fill="#36454a" d="M42.3 4l.1 38.2c1.9-1.2 4.4-4.9 3.8-12.7L43.3 5c0-.2-.5-.9-1-1.1"/>
  <path fill="#38454d" d="M42.3 4l.1 38.2c2-1.3 4.3-5 3.7-13L43.3 5.2c0-.2-.5-.9-1-1.1"/>
  <path fill="#38474d" d="M42.3 4l.1 38.2c2-1.3 4.3-5 3.7-13.1L43.3 5c0-.2-.5-.9-1-1.1"/>
  <path fill="#384a4f" d="M42.3 4l.1 38.2c2-1.4 4.3-5 3.6-13.3L43.3 5c0-.2-.5-.9-1-1.1"/>
  <path fill="#3b474f" d="M42.3 4l.1 38.2c2-1.4 4.2-5 3.6-13.6L43.3 5.1c0-.2-.5-.9-1-1.1"/>
  <path fill="#3b4a4f" d="M42.3 4l.1 38.2c2-1.4 4.2-5.1 3.5-13.8L43.3 5.1c0-.2-.5-.9-1-1.1"/>
  <path fill="#3d4a4f" d="M42.3 4l.2 38.2c2-1.5 4-5.1 3.3-14L43.3 5.1c0-.2-.5-.9-1-1.1"/>
  <path fill="#3d4a52" d="M42.3 4l.2 38.2c2-1.5 4-5.2 3.3-14.2L43.3 5c0-.1-.5-.8-1-1"/>
  <path fill="#3d4d52" d="M42.3 4l.2 38.2c2.1-1.6 4-5.2 3.2-14.4L43.2 5.1c0-.2-.5-1-.9-1.1"/>
  <path fill="#404d54" d="M42.3 4l.2 38.1c2.1-1.5 4-5.2 3.2-14.5L43.2 5.1c0-.2-.5-1-.9-1.1"/>
  <path fill="#404f54" d="M42.3 4l.2 38.1c2.2-1.5 3.9-5.2 3.1-14.7L43.2 5.1c0-.3-.5-1-.9-1.1"/>
  <path fill="#404f54" d="M42.3 4l.2 38.1c2.2-1.6 3.8-5.2 3-14.9L43.3 5c0-.2-.5-.8-.9-1"/>
  <path fill="#404f54" d="M42.3 4l.2 38.1c2.3-1.6 3.8-5.3 3-15.1L43.2 5c0-.2-.5-.8-.9-1"/>
  <path fill="#454f54" d="M42.3 4l.2 38.1c2.3-1.7 3.8-5.3 3-15.3L43.2 5c0-.2-.5-.8-.9-1"/>
  <path fill="#455257" d="M42.3 4l.2 38c2.4-1.6 3.7-5.2 3-15.4L43.1 5c0-.2-.5-.8-.9-1"/>
  <path fill="#455259" d="M42.3 4l.2 38c2.4-1.6 3.7-5.3 2.9-15.6L43.2 5c0-.2-.5-.9-.9-1"/>
  <path fill="#475459" d="M42.3 4l.2 38c2.4-1.7 3.7-5.3 2.8-15.8L43.2 5c0-.2-.5-.9-.9-1"/>
  <path fill="#475459" d="M42.3 4l.2 38c2.5-1.7 3.6-5.4 2.8-16L43 5c0-.2-.5-.9-.8-1"/>
  <path fill="#475459" d="M42.3 4l.2 38c2.5-1.7 3.6-5.4 2.7-16.2L43.2 5c-.1-.2-.6-.9-.9-1"/>
  <path fill="#47545c" d="M42.3 4l.2 38c2.6-1.8 3.5-5.4 2.7-16.4L43.2 5c-.1-.2-.6-.9-.9-1"/>
  <path fill="#4a575c" d="M42.3 4l.2 38C45 40.2 46 36.5 45 25.4L43.1 5c0-.2-.5-.9-.8-1"/>
  <path fill="#4a575c" d="M42.3 4l.2 38C45 40.1 46 36.5 45 25.2L43 5c0-.2-.5-.9-.8-1"/>
  <path fill="#4d595c" d="M42.3 4l.2 38c2.7-1.9 3.4-5.6 2.5-17L43 5c0-.2-.4-.9-.7-1"/>
  <path fill="#4f595e" d="M42.3 4l.2 38c2.7-2 3.4-5.6 2.5-17.3L43 5c0-.2-.4-.9-.7-1"/>
  <path fill="#4f595e" d="M42.3 4l.2 38c2.8-2 3.3-5.6 2.4-17.5L43.1 5c0-.3-.5-1-.8-1"/>
  <path fill="#4f5c5e" d="M42.3 4l.2 38c2.8-2 3.3-5.7 2.4-17.7L43 5c0-.3-.6-1-.8-1"/>
  <path fill="#4f5c61" d="M42.3 4l.2 38c2.9-2 3.3-5.7 2.3-17.9L43 5c0-.3-.5-1-.7-1"/>
  <path fill="#525c61" d="M42.3 4l.2 38c2.9-2 3.2-5.8 2.2-18L43 5c0-.3-.5-1-.7-1"/>
  <path fill="#525e61" d="M42.3 4l.2 38c3-2.1 3.2-5.8 2.2-18.3L43 5c0-.3-.5-1-.7-1"/>
  <path fill="#545e63" d="M42.3 4l.2 38c3-2.2 3.1-5.8 2.1-18.5L43 5c0-.3-.5-1-.7-1"/>
  <path fill="#545e63" d="M42.3 4l.2 38c3-2.2 3.1-5.9 2-18.7L43 5c0-.3-.5-1-.7-1"/>
  <path fill="#546163" d="M42.3 4l.2 37.9c3-2.1 3-5.8 2-18.8L43 5c0-.3-.5-1-.7-1"/>
  <path fill="#546166" d="M42.3 4l.2 37.9c3.1-2.2 3-5.9 2-19L43 4.9c0-.2-.5-.9-.7-1"/>
  <path fill="#576166" d="M42.3 4l.2 37.9c3.1-2.2 3-5.9 2-19.2L43 5c0-.3-.5-1-.7-1"/>
  <path fill="#596366" d="M42.3 4l.2 37.9c3.2-2.3 3-6 1.9-19.4L43 5c0-.3-.6-1-.7-1"/>
  <path fill="#596366" d="M42.3 4l.2 37.8c3.2-2.2 2.9-5.9 1.8-19.5L43 5c0-.3-.5-1-.6-1"/>
  <path fill="#596369" d="M42.3 4l.2 37.8c3.3-2.2 2.9-6 1.8-19.7L42.9 5c0-.3-.5-1-.6-1"/>
  <path fill="#596369" d="M42.3 4l.2 37.8c3.3-2.3 2.8-6 1.7-20L43 5c0-.2-.5-.9-.6-1"/>
  <path fill="#5c666b" d="M42.3 4l.2 37.8c3.3-2.3 2.8-6 1.7-20.1L42.9 4.9c0-.3-.5-.9-.6-1"/>
  <path fill="#5c666b" d="M42.3 4l.2 37.8c3.4-2.4 2.7-6 1.6-20.4L43 5c0-.3-.5-.9-.6-1"/>
  <path fill="#5c666b" d="M42.3 4l.2 37.8c3.4-2.4 2.7-6 1.6-20.6L42.9 5c0-.3-.5-.9-.6-1"/>
  <path fill="#5e696e" d="M42.3 4l.2 37.8C46 39.4 45.2 35.7 44 21L43 5c0-.4-.5-1-.6-1"/>
  <path fill="#5e696e" d="M42.3 4l.2 37.8c3.5-2.5 2.6-6.1 1.5-21L42.9 5c0-.3-.5-1-.6-1"/>
  <path fill="#61696e" d="M42.3 4l.2 37.8c3.6-2.5 2.6-6.2 1.4-21.2L43 5c0-.3-.6-1-.6-1"/>
  <path fill="#616b6e" d="M42.8 5c0-.4-.5-1-.5-1l.2 37.7c3.6-2.5 2.5-6.1 1.4-21.3L42.9 5"/>
  <path fill="#455257" d="M42.3 42.4v7.2l31.4 12.6 1.8-.7-24.9-14.4-8.3-4.7"/>
  <path fill="#454f54" d="M42.3 42.4v.2l.1 7L58 56 73.3 62l.4.2 1.8-.7-5.2-3L59 52l-8.3-4.8-8.3-4.7"/>
  <path fill="#455254" d="M42.3 42.4v.2l.2 7L58.1 56 73.3 62l.4.2 1.8-.7-5.2-3a45675 45675 0 0 0-28-16.1"/>
  <path fill="#454f54" d="M42.3 42.4v.2c0 .1.2 7 .4 7C42.8 49.9 58 56 58 56L73.3 62l.4.2 1.8-.7-5.2-3L59 52a44308.7 44308.7 0 0 0-16.6-9.5"/>
  <path fill="#454f54" d="M42.3 42.4v.2c0 .1.3 7 .5 7C43 49.9 58 56 58 56L73.3 62l.4.2 1.8-.7-5.2-3L59 52l-8.3-4.8-8.3-4.7"/>
  <path fill="#424f54" d="M42.3 42.4v.2c0 .2.3 7 .6 7.1.2.2 15.3 6.3 15.3 6.3l15.1 6 .4.2 1.8-.7A12611.8 12611.8 0 0 0 59 52l-8.3-4.8-8.3-4.7"/>
  <path fill="#424f54" d="M42.3 42.4v.2c0 .2.4 7 .7 7.1L58.2 56l15.1 6 .4.2 1.8-.7-5.2-3L59 52c-.2 0-8.1-4.7-8.3-4.8l-8.3-4.7"/>
  <path fill="#424f54" d="M42.3 42.4v.3c0 .1.4 6.8.8 7 .3.3 15.1 6.3 15.1 6.3l15.1 6 .4.2 1.8-.7-5.2-3L59 52c-.2 0-8-4.6-8.3-4.8l-8.3-4.7"/>
  <path fill="#404f52" d="M42.3 42.4v.3c0 .1.5 6.8.9 7 .4.3 15 6.3 15 6.3l15.1 6 .4.2 1.8-.7-5.2-3L59 52a40496.8 40496.8 0 0 0-16.6-9.5"/>
  <path fill="#404f52" d="M42.3 42.4v.3c0 .2.5 6.8 1 7.1.4.3 15 6.2 15 6.2l15 6 .4.2 1.8-.7-5.2-3a110773.5 110773.5 0 0 1-19.7-11.4l-8.3-4.7"/>
  <path fill="#404d52" d="M42.3 42.4v.3c0 .2.6 6.8 1.1 7.1.5.4 15 6.2 15 6.2l15 6 .3.2 1.8-.7-5.2-3L59 52l-8.3-4.8-8.3-4.7"/>
  <path fill="#404d52" d="M42.3 42.4v.3c.1.2.7 6.8 1.2 7.1.6.4 14.9 6.2 14.9 6.2l15 6 .3.2 1.8-.7-5.2-3a118999 118999 0 0 0-19.7-11.4l-8.3-4.7"/>
  <path fill="#404d4f" d="M42.3 42.4v.3c.1.3.7 6.8 1.3 7.2.6.4 14.8 6.2 14.8 6.2l15 6h.3l1.8-.6-5.2-3L59 52l-8.3-4.8-8.3-4.7"/>
  <path fill="#404d4f" d="M42.3 42.4v.3c.1.3.8 6.8 1.4 7.2L58.4 56l15 6h.3l1.8-.6-5.2-3L59 52c-.4-.2-8-4.5-8.3-4.8l-8.3-4.7"/>
  <path fill="#3d4a4f" d="M42.3 42.4v.3c.1.3.8 6.8 1.5 7.2.7.5 14.7 6.2 14.7 6.2l14.8 6h.4l1.8-.6-5.2-3a66831.1 66831.1 0 0 0-28-16.1"/>
  <path fill="#3d4a4f" d="M42.3 42.4v.3c.1.3.9 6.7 1.6 7.2.8.5 14.6 6.2 14.6 6.2l14.8 6h.4l1.8-.6-5.2-3L59 52l-8.3-4.8-8.3-4.7"/>
  <path fill="#3d4a4f" d="M42.3 42.4v.3c.1.4 1 6.7 1.7 7.3.8.5 14.5 6.1 14.5 6.1l14.8 6h.4l1.8-.6-5.2-3L59 52l-8.3-4.8-8.3-4.7"/>
  <path fill="#3d4a4f" d="M42.3 42.4v.3c.1.4 1 6.7 1.9 7.3.8.5 14.4 6.1 14.4 6.1l14.8 6h.3l1.8-.6-5.2-3L59 52l-8.3-4.8-8.3-4.7"/>
  <path fill="#3b4a4f" d="M42.3 42.4v.3c.1.4 1 6.7 2 7.3.9.6 14.3 6.1 14.3 6.1l14.8 6h.3l1.8-.6-5.2-3c-.6-.3-10.6-6-11.4-6.6l-8.3-4.8-8.3-4.7"/>
  <path fill="#3b4a4f" d="M42.3 42.4v.3c.2.4 1.1 6.7 2 7.3 1 .7 14.3 6.1 14.3 6.1l14.8 6h.3l1.8-.6A20527 20527 0 0 1 59 52l-8.3-4.8-8.3-4.7"/>
  <path fill="#3b474f" d="M42.3 42.4v.3c.2.5 1.2 6.7 2.2 7.4 1 .6 14.2 6 14.2 6l14.7 6h.3l1.8-.6A96531.3 96531.3 0 0 1 59 52l-8.3-4.8-8.3-4.7"/>
  <path fill="#38474d" d="M42.3 42.4v.3c.2.5 1.2 6.7 2.3 7.4 1 .7 14 6 14 6l14.8 6h.3l1.8-.6-5.2-3L59 52l-8.3-4.8-8.3-4.7"/>
  <path fill="#38474d" d="M42.3 42.4v.3c.2.5 1.3 6.7 2.4 7.4 1 .7 14 6 14 6l14.7 6h.4l1.7-.6-5.2-3L59 52l-8.3-4.8-8.3-4.7"/>
  <path fill="#38454d" d="M42.3 42.4v.3c.2.6 1.4 6.7 2.5 7.4 1.1.8 14 6.1 14 6.1l14.6 5.9h.4l1.7-.6-5.2-3L59 52l-8.3-4.8-8.3-4.7"/>
  <path fill="#38454d" d="M42.3 42.4v.3c.2.6 1.4 6.7 2.6 7.4 1.2.8 13.9 6.1 13.9 6.1l14.6 5.9h.4l1.7-.6-5.2-3L59 52a48004.4 48004.4 0 0 1-16.6-9.5"/>
  <path fill="#38454a" d="M42.3 42.4v.3c.2.6 1.5 6.6 2.7 7.5 1.3.8 13.8 6 13.8 6l14.6 5.9h.4l1.7-.6A18270.6 18270.6 0 0 1 59 52l-8.3-4.8-8.3-4.7"/>
  <path fill="#36454a" d="M42.3 42.4v.3c.2.6 1.5 6.6 2.8 7.5 1.3.8 13.7 6 13.7 6l14.6 5.9h.4l1.7-.6-5.2-3L59 52l-8.3-4.8-8.3-4.7"/>
  <path fill="#36454a" d="M42.3 42.4v.3c.2.7 1.6 6.6 3 7.5 1.3.9 13.6 6 13.6 6l14.5 5.9h.4l1.7-.6-5.2-3L59 52l-8.3-4.8-8.3-4.7"/>
  <path fill="#38454a" d="M42.3 42.4v.3c.2.7 1.6 6.6 3 7.5 1.4 1 13.6 6 13.6 6l14.5 5.9h.4l1.7-.6A6047.9 6047.9 0 0 1 59 52l-8.3-4.8-8.3-4.7"/>
  <path fill="#36454a" d="M42.3 42.4v.3c.2.7 1.7 6.6 3.1 7.6 1.5 1 13.5 6 13.5 6L73.4 62h.4l1.7-.6A6688.6 6688.6 0 0 1 59 52l-8.3-4.8-8.3-4.7"/>
  <path fill="#36424a" d="M42.3 42.4v.3c.2.7 1.8 6.6 3.2 7.6 1.5 1 13.5 6 13.5 6L73.4 62h.4l1.7-.6-5.2-3L59 52l-8.3-4.8-8.3-4.7"/>
  <path fill="#36424a" d="M42.3 42.4v.3c.2.8 1.8 6.6 3.4 7.6 1.5 1 13.3 6 13.3 6l14.4 5.8h.4c.1 0 1.5-.4 1.7-.6l-5.2-3L59 52l-8.3-4.8-8.3-4.7"/>
  <path fill="#334247" d="M42.3 42.4v.3c.2.8 1.9 6.6 3.5 7.6 1.5 1 13.2 6 13.2 6l14.4 5.8h.4c.1 0 1.5-.4 1.7-.6l-5.2-3a33222.2 33222.2 0 0 1-19.7-11.4l-8.3-4.7"/>
  <path fill="#334247" d="M42.3 42.4v.3c.2.8 2 6.6 3.6 7.6 1.6 1.1 13.2 6 13.2 6l14.3 5.8h.4c.1 0 1.5-.4 1.7-.6l-5.2-3L59 52l-8.3-4.8-8.3-4.7"/>
  <path fill="#334047" d="M42.3 42.4v.3c.2.9 2 6.5 3.7 7.7 1.7 1 13.1 6 13.1 6L73.4 62h.4c.1 0 1.5-.4 1.7-.6l-5.2-3L59 52a47549.5 47549.5 0 0 1-16.6-9.5"/>
  <path fill="#334047" d="M42.3 42.4v.3c.3.9 2 6.5 3.8 7.7 1.7 1.1 13 6 13 6L73.4 62h.4c.1 0 1.5-.4 1.7-.6l-5.2-3L59 52a22411.7 22411.7 0 0 0-16.6-9.5"/>
  <path fill="#334047" d="M42.3 42.4v.3c.3 1 2.1 6.5 3.9 7.7 1.8 1.2 13 6 13 6L73.4 62h.4c.1 0 1.5-.4 1.7-.6l-5.2-3L59 52l-8.3-4.8-8.3-4.7"/>
  <path fill="#304045" d="M42.3 42.4v.3c.3 1 2.2 6.5 4 7.7 1.8 1.3 13 6 13 6L73.3 62h.4c.2 0 1.5-.4 1.7-.6l-5.2-3L59 52l-8.3-4.8c-2-1-8.3-4.7-8.3-4.7"/>
  <path fill="#304045" d="M42.3 42.4v.3c.3 1 2.2 6.5 4.1 7.8a191 191 0 0 0 12.8 5.9L73.4 62h.4c.2 0 1.5-.4 1.7-.6a4769.8 4769.8 0 0 1-24.9-14.4l-8.3-4.7"/>
  <path fill="#304045" d="M42.3 42.4v.3c.3 1 2.3 6.5 4.2 7.8 2 1.3 12.8 6 12.8 6L73.4 62h.4c.2 0 1.5-.4 1.7-.6A19266.3 19266.3 0 0 1 59 52l-8.3-4.8-8.3-4.7"/>
  <path fill="#304045" d="M42.3 42.4v.3c.3 1 2.3 6.5 4.3 7.8 2 1.3 12.7 6 12.7 6L73.5 62h.3c.2 0 1.5-.4 1.7-.6l-5.2-3L59 52l-8.3-4.8-8.3-4.7"/>
  <path fill="#2e3d45" d="M42.3 42.4v.3c.3 1 2.4 6.5 4.4 7.8 2 1.4 12.6 6 12.6 6L73.5 62h.3c.2 0 1.5-.4 1.7-.6l-5.2-3L59 52l-8.3-4.8-8.3-4.7"/>
  <path fill="#2e3d45" d="M42.3 42.4v.3c.3 1 2.4 6.5 4.5 7.8 2.1 1.4 12.6 6 12.6 6l14 5.6h.4c.2 0 1.5-.4 1.7-.6l-5.2-3L59 52a103660.7 103660.7 0 0 1-16.6-9.5"/>
  <path fill="#2e3d42" d="M42.3 42.4v.3c.3 1.1 2.5 6.5 4.6 7.9 2.2 1.4 12.5 5.9 12.5 5.9l14 5.6h.4l1.7-.6A7452.4 7452.4 0 0 1 59 52l-8.3-4.8-8.3-4.7"/>
  <path fill="#2e3d42" d="M42.3 42.4v.3c.3 1.1 2.6 6.4 4.7 7.9 2.2 1.4 12.4 5.9 12.4 5.9l14 5.6h.4l1.7-.6A11905.5 11905.5 0 0 1 59 52l-8.3-4.8-8.3-4.7"/>
  <path fill="#2e3d42" d="M42.3 42.4v.4c.3 1 2.6 6.3 4.9 7.8 2.2 1.5 12.3 5.9 12.3 5.9l14 5.6h.3l1.7-.6-5.2-3L59 52l-8.3-4.8-8.3-4.7"/>
  <path fill="#2b3d42" d="M42.3 42.4v.4c.3 1 2.7 6.3 5 7.8 2.2 1.6 12.2 5.9 12.2 5.9l14 5.6h.3l1.7-.6a12438.8 12438.8 0 0 1-24.9-14.4l-8.3-4.7"/>
  <path fill="#293b40" d="M42.3 42.4v.4c.3 1.1 2.7 6.3 5 7.9 2.4 1.5 12.2 5.8 12.2 5.8l14 5.6h.3l1.7-.6a9506.3 9506.3 0 0 1-24.9-14.4l-8.3-4.7"/>
  <path fill="#293b40" d="M42.3 42.4v.4c.3 1.1 2.8 6.3 5.2 7.9 2.4 1.6 12 5.8 12 5.8l14 5.6h.4l1.6-.6A5531.3 5531.3 0 0 1 59 52l-8.3-4.8-8.3-4.7"/>
  <path fill="#293b40" d="M42.3 42.4v.4c.3 1.2 2.8 6.3 5.3 8 2.4 1.5 12 5.7 12 5.7l13.9 5.6h.4l1.6-.6-5.2-3L59 52l-8.3-4.8-8.3-4.7"/>
  <path fill="#293840" d="M42.3 42.4v.4c.3 1.2 3 6.3 5.4 8 2.5 1.6 12 5.8 12 5.8L73.4 62h.4l1.6-.6-5.2-3L59 52l-8.3-4.8-8.3-4.7"/>
  <path fill="#293840" d="M42.3 42.4v.4c.4 1.2 3 6.3 5.5 8a143 143 0 0 0 11.9 5.8L73.5 62h.4l1.6-.6-5.2-3L59 52l-8.3-4.8-8.3-4.7"/>
  <path fill="#29383d" d="M42.3 42.4v.4c.4 1.2 3 6.3 5.6 8 2.6 1.7 11.8 5.8 11.8 5.8L73.5 62h.4l1.6-.6a6955.2 6955.2 0 0 1-33.2-19.1"/>
  <path fill="#29383d" d="M42.3 42.4v.4a20 20 0 0 0 5.7 8c2.6 1.7 11.7 5.8 11.7 5.8L73.5 62h.4a9 9 0 0 0 1.6-.6l-5.2-3L59 52l-8.3-4.8-8.3-4.7"/>
  <path fill="#26383d" d="M42.3 42.4v.4a20 20 0 0 0 5.8 8c2.7 1.8 11.7 5.8 11.7 5.8l13.7 5.5h.4l1.6-.6-5.2-3L59 52a37375.7 37375.7 0 0 0-16.6-9.5"/>
  <path fill="#26383d" d="M42.3 42.4v.4c.4 1.3 3.2 6.2 6 8 2.7 1.9 11.5 5.8 11.5 5.8l13.7 5.5h.4c.2 0 1.3-.3 1.6-.6l-5.2-3a39744.1 39744.1 0 0 0-28-16.1"/>
  <path fill="#26383d" d="M42.3 42.4v.4c.4 1.3 3.3 6.2 6 8a132 132 0 0 0 11.5 5.8l13.7 5.5h.4c.2 0 1.3-.3 1.6-.6l-5.2-3L59 52l-8.3-4.8-8.3-4.7"/>
  <path fill="#26363d" d="M42.3 42.4v.4c.4 1.4 3.3 6.2 6.1 8 2.9 2 11.5 5.8 11.5 5.8l13.6 5.5h.4c.2 0 1.3-.3 1.6-.6l-5.2-3L59 52l-8.3-4.8-8.3-4.7"/>
  <path fill="#24363d" d="M42.3 42.4v.4c.4 1.4 3.4 6.2 6.2 8.1 3 2 11.4 5.8 11.4 5.8L73.5 62h.4c.2 0 1.2-.3 1.6-.6l-5.2-3L59 52l-8.3-4.8-8.3-4.7"/>
  <path fill="#24363b" d="M42.3 42.4v.4c.4 1.4 3.4 6.2 6.4 8.1 2.9 2 11.2 5.8 11.2 5.8L73.5 62h.4a8 8 0 0 0 1.6-.6l-5.2-3a26548.2 26548.2 0 0 1-28-16.1"/>
  <path fill="#24363b" d="M42.3 42.4v.4c.4 1.5 3.5 6.2 6.5 8.2 3 2 11.2 5.7 11.2 5.7L73.5 62h.4c.2 0 1.2-.3 1.6-.6l-5.2-3L59 52l-8.3-4.8-8.3-4.7"/>
  <path fill="#21333b" d="M42.3 42.4v.4c.4 1.5 3.5 6.2 6.6 8.2 3 2 11 5.7 11 5.7l13.6 5.4h.4c.2 0 1.2-.3 1.6-.6a24527.1 24527.1 0 0 1-33.2-19.1"/>
  <path fill="#21333b" d="M42.3 42.4v.4A21 21 0 0 0 49 51c3 2 11 5.7 11 5.7l13.5 5.4h.4c.2 0 1.2-.3 1.6-.6A10296.6 10296.6 0 0 1 59 52l-8.3-4.8-8.3-4.7"/>
  <path fill="#213338" d="M42.3 42.4v.4c.4 1.5 3.7 6.1 6.8 8.2 3.1 2.1 11 5.7 11 5.7l13.4 5.4h.4c.2 0 1.2-.3 1.6-.6l-5.2-3L59 52l-8.3-4.8-8.3-4.7"/>
  <path fill="#213338" d="M42.3 42.4v.4c.4 1.6 3.7 6.1 6.9 8.2 3.2 2.2 10.9 5.7 10.9 5.7l13.5 5.4h.3c.3 0 1.2-.3 1.6-.6A9218.9 9218.9 0 0 1 59 52l-8.3-4.8-8.3-4.7"/>
  <path fill="#213338" d="M42.3 42.4v.4c.4 1.6 3.8 6.1 7 8.3 3.2 2.1 10.8 5.7 10.8 5.7L73.6 62h.3a7 7 0 0 0 1.6-.6 7048.4 7048.4 0 0 1-33.2-19.1"/>
  <path fill="#1f3338" d="M42.3 42.4v.4c.4 1.6 3.8 6.1 7.1 8.3 3.3 2.2 10.8 5.7 10.8 5.7L73.6 62h.3c.3 0 1.2-.3 1.6-.6l-5.2-3L59 52l-8.3-4.8-8.3-4.7"/>
  <path fill="#1f3038" d="M42.3 42.4v.4c.5 1.6 3.9 6.1 7.2 8.3 3.3 2.2 10.7 5.7 10.7 5.7L73.6 62h.3c.3 0 1.2-.3 1.6-.6l-5.2-3a105246.5 105246.5 0 0 0-19.7-11.4l-8.3-4.7"/>
  <path fill="#1f3038" d="M42.3 42.4v.4c.5 1.7 4 6 7.3 8.3 3.4 2.3 10.6 5.7 10.6 5.7L73.6 62h.3c.3 0 1.2-.3 1.6-.6l-5.2-3L59 52l-8.3-4.8-8.3-4.7"/>
  <path fill="#1c3038" d="M42.3 42.4v.4c.5 1.7 4 6 7.4 8.4 3.4 2.2 10.6 5.6 10.6 5.6l13.3 5.3h.3c.3 0 1.2-.3 1.6-.6l-5.2-3L59 52l-8.3-4.8-8.3-4.7"/>
  <path fill="#1f3038" d="M42.3 42.4v.4c.5 1.7 4 6 7.5 8.4 3.5 2.3 10.5 5.6 10.5 5.6l13.3 5.4h.3c.3-.1 1.2-.4 1.6-.7l-5.2-3L59 52l-8.3-4.8-8.3-4.7"/>
  <path fill="#1f3038" d="M42.3 42.4v.4c.5 1.8 4.1 6 7.6 8.4 3.6 2.3 10.4 5.6 10.4 5.6l13.3 5.4h.3c.3-.1 1.2-.4 1.6-.7l-5.2-3L59 52l-8.3-4.8-8.3-4.7"/>
  <path fill="#1c2e36" d="M42.3 42.4v.4c.5 1.8 4.2 6 7.7 8.4 3.6 2.4 10.4 5.6 10.4 5.6l13.2 5.4h.3c.3-.1 1.2-.4 1.6-.7l-5.2-3L59 52l-8.3-4.8-8.3-4.7"/>
  <path fill="#1c2e36" d="M42.3 42.4v.4a23 23 0 0 0 7.9 8.4c3.6 2.5 10.2 5.7 10.2 5.7l13.2 5.3h.3a6 6 0 0 0 1.6-.7l-5.2-3L59 52a15954 15954 0 0 1-16.6-9.5"/>
  <path fill="#1a2e36" d="M42.3 42.4v.4a23 23 0 0 0 8 8.5c3.6 2.4 10.1 5.6 10.1 5.6l13.2 5.3h.4l1.5-.7-5.2-3L59 52l-8.3-4.8-8.3-4.7"/>
  <path fill="#1a2e36" d="M42.3 42.4v.4c.5 1.9 4.3 6 8 8.5a114 114 0 0 0 10.1 5.6l13.2 5.3h.4l1.5-.7-5.2-3L59 52l-8.3-4.8-8.3-4.7"/>
  <path fill="#1a2e33" d="M42.3 42.4v.4c.5 1.9 4.4 6 8.2 8.5 3.7 2.5 10 5.6 10 5.6l13.1 5.3h.4l1.5-.7-5.2-3a30388 30388 0 0 1-19.7-11.4l-8.3-4.7"/>
  <path fill="#1a2e33" d="M42.3 42.4v.4c.5 2 4.5 6 8.3 8.5 3.8 2.6 10 5.6 10 5.6l13 5.3h.4l1.5-.7-5.2-3L59 52l-8.3-4.8-8.3-4.7"/>
  <path fill="#1a2e33" d="M42.3 42.4v.4c.5 2 4.5 6 8.4 8.6 3.9 2.5 9.8 5.5 9.8 5.5l13.1 5.3h.4l1.5-.7-5.2-3L59 52l-8.3-4.8-8.3-4.7"/>
  <path fill="#172b33" d="M42.3 42.4v.4c.5 2 4.6 6 8.5 8.6 4 2.6 9.8 5.5 9.8 5.5l13 5.3h.4c.3-.1 1-.3 1.5-.7l-5.2-3L59 52l-8.3-4.8-8.3-4.7"/>
  <path fill="#172b33" d="M42.3 42.4v.4c.5 2 4.6 6 8.6 8.6 4 2.6 9.7 5.5 9.7 5.5l13 5.3h.4c.3-.1 1-.3 1.5-.7l-5.2-3L59 52l-8.3-4.8-8.3-4.7"/>
  <path fill="#142930" d="M42.3 42.4v.4c.5 2 4.7 6 8.7 8.6 4 2.7 9.6 5.6 9.6 5.6l13 5.2h.4c.3-.1 1-.3 1.5-.7l-5.2-3L59 52l-8.3-4.8-8.3-4.7"/>
  <path fill="#142930" d="M42.3 42.4v.5c.5 2 4.7 5.8 8.8 8.5 4 2.8 9.6 5.6 9.6 5.6l13 5.2h.3c.3-.1 1-.3 1.5-.7l-5.2-3L59 52l-8.3-4.8-8.3-4.7"/>
  <path fill="#142930" d="M42.3 42.4v.5c.6 2 4.8 5.8 9 8.6a121 121 0 0 0 9.4 5.5l13 5.2h.3c.3-.1 1-.3 1.5-.7l-5.2-3L59 52l-8.3-4.8-8.3-4.7"/>
  <path fill="#142930" d="M42.3 42.4v.5c.6 2 4.9 5.8 9 8.6a124 124 0 0 0 9.4 5.5l13 5.2h.3c.3-.1 1-.3 1.5-.7l-5.2-3a39781.6 39781.6 0 0 1-28-16.1"/>
  <path fill="#142930" d="M42.3 42.4v.5c.6 2 5 5.8 9.1 8.6 4.3 2.8 9.4 5.5 9.4 5.5l12.8 5.2h.4c.3-.1 1-.3 1.5-.7l-5.2-3L59 52l-8.3-4.8-8.3-4.7"/>
  <path fill="#12262e" d="M42.3 42.4v.5c.6 2 5 5.8 9.2 8.6 4.3 2.9 9.3 5.5 9.3 5.5l12.8 5.2h.4c.3-.1 1-.3 1.5-.7l-5.2-3L59 52l-8.3-4.8-8.3-4.7"/>
  <path fill="#12262e" d="M42.3 42.4v.5c.6 2 5 5.8 9.3 8.7a132 132 0 0 0 9.2 5.4l12.8 5.2h.4c.3-.1 1-.3 1.5-.7l-5.2-3L59 52l-8.3-4.8-8.3-4.7"/>
  <path fill="#0f262e" d="M42.3 42.4v.5c.6 2.1 5 5.8 9.5 8.7 4.3 2.9 9 5.5 9 5.5l12.9 5h.3c.3 0 1-.2 1.5-.6l-5.2-3L59 52l-8.3-4.8-8.3-4.7"/>
  <path fill="#0f262e" d="M42.3 42.4v.5c.6 2.1 5.1 5.8 9.6 8.7 4.4 3 9 5.5 9 5.5l12.8 5h.3c.3 0 1-.2 1.5-.6l-5.2-3L59 52l-8.3-4.8-8.3-4.7"/>
  <path fill="#0d262e" d="M42.3 42.4v.5c.6 2.2 5.2 5.8 9.7 8.7 4.4 3 9 5.5 9 5.5l12.7 5h.3c.4 0 1-.2 1.5-.6l-5.2-3L59 52l-8.3-4.8-8.3-4.7"/>
  <path fill="#0d262e" d="M42.3 42.4v.5c.6 2.2 5.3 5.8 9.8 8.8 4.5 3 8.9 5.4 8.9 5.4l12.7 5s.9 0 1.8-.6l-5.2-3L59 52l-16.6-9.5"/>
  <path fill="#000514" d="M11 62.2s-1 0-1.9-.7l33.2-19.2v7.3L11 62.2"/>
  <path fill="#000814" d="M9.1 61.5l33.2-19.2s0 7.3-.2 7.4L11 62.2s-1 0-1.9-.7"/>
  <path fill="#000814" d="M9.1 61.5l33.2-19.2c0 .1 0 7.2-.4 7.4L11 62.2s-.8 0-1.8-.7"/>
  <path fill="#000a17" d="M9.1 61.5l33.2-19.2c0 .2 0 7.2-.6 7.5L11 62.2s-.8 0-1.8-.7"/>
  <path fill="#000a17" d="M9.1 61.5l33.2-19.2c0 .2 0 7.1-.8 7.5L11 62.2s-.9 0-1.8-.7"/>
  <path fill="#000a1a" d="M9.1 61.5l33.2-19.1c0 .1 0 7-1 7.5L11 62.2s-.9-.1-1.8-.7"/>
  <path fill="#000a1a" d="M9.1 61.5l33.2-19.1c0 .2 0 7-1.2 7.5L11 62.2S10 62 9 61.5"/>
  <path fill="#000d1c" d="M9.1 61.5l33.2-19.1c0 .2 0 7-1.4 7.6L11 62s-.9 0-1.8-.6"/>
  <path fill="#000d1c" d="M9.1 61.5l33.2-19.1c0 .3-.1 6.9-1.6 7.6L11 62.1s-.9 0-1.8-.6"/>
  <path fill="#000f1c" d="M9.1 61.5l33.2-19.1c0 .3-.1 6.8-1.8 7.7l-29.7 12s-.8 0-1.7-.6"/>
  <path fill="#000f1c" d="M9.1 61.5l33.2-19.1c0 .3-.1 6.8-2 7.8l-29.5 12s-.8-.1-1.7-.7"/>
  <path fill="#00121c" d="M9.1 61.5l33.2-19.1c0 .4-.1 6.8-2.2 7.8l-29.3 12s-.8-.1-1.7-.7"/>
  <path fill="#00121c" d="M9.1 61.5l33.2-19.1c0 .4-.2 6.7-2.4 7.9L10.8 62s-.8 0-1.7-.6"/>
  <path fill="#00141f" d="M9.1 61.5l33.1-19.1c0 .5 0 6.7-2.5 8L10.7 62s-.7 0-1.6-.6"/>
  <path fill="#00141f" d="M9.1 61.5l33.1-19.1c0 .5 0 6.6-2.7 8L10.7 62s-.8 0-1.6-.6"/>
  <path fill="#001421" d="M9.1 61.5l33.1-19.1c0 .6-.1 6.6-2.9 8-.7.4-28.6 11.7-28.6 11.7s-.8 0-1.6-.6"/>
  <path fill="#001421" d="M9.1 61.5l33.1-19.1c0 .6-.1 6.6-3 8-.9.5-28.5 11.7-28.5 11.7s-.8 0-1.6-.6"/>
  <path fill="#001721" d="M9.1 61.5l33.1-19.1c0 .6-.1 6.5-3.3 8.1-.8.5-28.2 11.6-28.2 11.6s-.8 0-1.6-.6"/>
  <path fill="#001721" d="M9.1 61.5l33.1-19c0 .6-.2 6.4-3.5 8.1-.9.5-28 11.5-28 11.5s-.8 0-1.6-.6"/>
  <path fill="#001a24" d="M9.1 61.5l33.1-19c0 .6-.2 6.3-3.7 8.2L10.7 62s-.8 0-1.6-.6"/>
  <path fill="#001a24" d="M9.1 61.5l33.1-19c0 .7-.2 6.3-3.9 8.2L10.6 62.1s-.7 0-1.5-.6"/>
  <path fill="#001a26" d="M9.1 61.5l33.1-19c0 .7-.2 6.3-4 8.3L10.5 62s-.7-.1-1.5-.6"/>
  <path fill="#001a26" d="M9.1 61.5l33-19c.1.8-.1 6.2-4.2 8.3-1 .6-27.3 11.3-27.3 11.3s-.7-.1-1.5-.6"/>
  <path fill="#001a26" d="M9.1 61.5l33-19c.1.8-.1 6.2-4.4 8.4-1.1.6-27.1 11.2-27.1 11.2s-.7-.1-1.5-.6"/>
  <path fill="#001c26" d="M9.1 61.5l33-19c.1.8-.2 6.1-4.6 8.4-1.1.6-27 11.2-27 11.2s-.7-.1-1.4-.6"/>
  <path fill="#001c26" d="M9.1 61.5l33-19c.1.9-.2 6.1-4.8 8.5L10.6 62s-.8 0-1.5-.5"/>
  <path fill="#001c26" d="M9.1 61.5l33-19c.1 1-.2 6-5 8.5-1.2.7-26.6 11-26.6 11s-.7 0-1.4-.5"/>
  <path fill="#031f29" d="M9.1 61.5l33-19c0 1-.2 6-5.2 8.6-1.3.7-26.4 11-26.4 11s-.7-.1-1.4-.6"/>
  <path fill="#031f29" d="M9.1 61.5l33-19c0 1-.2 6-5.4 8.7-1.3.7-26.2 10.8-26.2 10.8s-.7 0-1.4-.5"/>
  <path fill="#031f29" d="M9.1 61.5l33-19c0 1-.2 6-5.6 8.7-1.4.7-26 10.8-26 10.8s-.7 0-1.4-.5"/>
  <path fill="#051f29" d="M9.1 61.5l33-19c0 1-.2 5.9-5.8 8.8C35 52 10.5 62 10.5 62s-.7 0-1.4-.5"/>
  <path fill="#05212b" d="M9.1 61.5l33-19c0 1.1-.3 5.9-6 8.8-1.5.8-25.6 10.7-25.6 10.7s-.7 0-1.4-.5"/>
  <path fill="#05212b" d="M9.1 61.5l33-19c0 1.2-.3 5.8-6.2 8.9-1.5.8-25.5 10.6-25.5 10.6s-.6 0-1.3-.5"/>
  <path fill="#08242b" d="M9.1 61.5l33-19c0 1.2-.3 5.8-6.4 9-1.6.8-25.3 10.5-25.3 10.5s-.6 0-1.3-.5"/>
  <path fill="#0a242b" d="M9.1 61.5l33-19c0 1.3-.3 5.7-6.6 9C34 52.4 10.4 62 10.4 62s-.7 0-1.3-.5"/>
  <path fill="#0a242e" d="M9.1 61.5l33-19c0 1.3-.3 5.7-6.8 9-1.7 1-25 10.5-25 10.5s-.6 0-1.2-.5"/>
  <path fill="#0a242e" d="M9.1 61.5l33-19c0 1.3-.3 5.7-7 9.1-1.7 1-24.7 10.4-24.7 10.4s-.7-.1-1.3-.5"/>
  <path fill="#0d262e" d="M9.1 61.5l33-19c0 1.4-.4 5.6-7.2 9.2-1.8.9-24.6 10.3-24.6 10.3s-.6-.1-1.2-.5"/>
  <path fill="#0f262e" d="M9.1 61.5l33-19c0 1.4-.4 5.6-7.4 9.2C33 52.7 10.3 62 10.3 62s-.6-.1-1.2-.5"/>
  <path fill="#12262e" d="M9.1 61.5l33-19c0 1.5-.4 5.5-7.6 9.3-1.9 1-24.2 10.2-24.2 10.2s-.6-.1-1.2-.5"/>
  <path fill="#12262e" d="M9.1 61.5l33-19c0 1.5-.4 5.5-7.8 9.3-2 1-24 10.2-24 10.2s-.6-.1-1.2-.5"/>
  <path fill="#122930" d="M9.1 61.5l33-19c0 1.6-.4 5.5-8 9.4-2 1-23.8 10-23.8 10s-.6 0-1.2-.4"/>
  <path fill="#122930" d="M9.1 61.5l33-19c0 1.6-.4 5.4-8.2 9.4-2 1.1-23.6 10-23.6 10s-.6 0-1.2-.4"/>
  <path fill="#142930" d="M9.1 61.5l33-19c0 1.6-.5 5.4-8.4 9.5-2 1-23.5 10-23.5 10s-.5-.1-1-.5"/>
  <path fill="#142930" d="M9.1 61.5l33-19c0 1.7-.5 5.3-8.6 9.6-2.1 1-23.3 9.8-23.3 9.8s-.6 0-1-.4"/>
  <path fill="#172b33" d="M9.1 61.5l33-19c0 1.7-.5 5.3-8.8 9.6-2.2 1.1-23.1 9.8-23.1 9.8s-.6 0-1-.4"/>
  <path fill="#172b33" d="M9.1 61.5l33-19c0 1.8-.5 5.3-9 9.7-2.2 1.1-23 9.7-23 9.7s-.5 0-1-.4"/>
  <path fill="#172e33" d="M9.1 61.5l33-19c0 1.8-.5 5.2-9.2 9.7-2.3 1.2-22.7 9.7-22.7 9.7s-.6 0-1-.4"/>
  <path fill="#172e33" d="M9.1 61.5l33-19c0 1.8-.5 5.2-9.4 9.8-2.3 1.2-22.5 9.6-22.5 9.6s-.6 0-1-.4"/>
  <path fill="#1a2e36" d="M9.1 61.5l33-19c0 1.9-.6 5.1-9.6 9.8-2.4 1.3-22.4 9.6-22.4 9.6s-.5 0-1-.4"/>
  <path fill="#1a2e36" d="M9.1 61.5l33-19c0 2-.6 5.1-9.8 9.9-2.4 1.2-22.2 9.5-22.2 9.5s-.5 0-1-.4"/>
  <path fill="#1c2e36" d="M9.1 61.5l33-19c0 2-.6 5-10 10-2.5 1.2-22 9.4-22 9.4s-.5 0-1-.4"/>
  <path fill="#1c2e36" d="M9.1 61.5l32.9-19c0 2-.5 5-10 10-2.6 1.3-22 9.4-22 9.4l-.9-.4"/>
  <path fill="#1c3038" d="M9.1 61.5l32.9-19c0 2-.5 5-10.3 10C29.1 54 10.1 62 10.1 62l-1-.4"/>
  <path fill="#1f3038" d="M9.1 61.5l32.9-19c0 2-.5 5-10.5 10.1C29 54 10 62 10 62s-.5-.1-.9-.4"/>
  <path fill="#1f3038" d="M9.1 61.5l32.9-19c0 2.1-.5 4.9-10.7 10.2C28.6 54 10 61.9 10 61.9s-.5-.1-.9-.4"/>
  <path fill="#1f3038" d="M9.1 61.5l32.9-19c0 2.2-.6 4.9-10.9 10.2-2.7 1.4-21 9.2-21 9.2s-.6-.1-1-.4"/>
  <path fill="#1f3338" d="M9.1 61.5l32.9-19c0 2.2-.6 4.8-11 10.3-2.9 1.4-21 9-21 9s-.5 0-.9-.3"/>
  <path fill="#1f3338" d="M9.1 61.5l32.9-19c0 2.3-.6 4.8-11.3 10.3-2.8 1.5-20.7 9-20.7 9s-.5 0-.9-.3"/>
  <path fill="#213338" d="M9.1 61.5l32.9-19c0 2.3-.6 4.7-11.5 10.4-2.9 1.5-20.5 9-20.5 9s-.5-.1-.9-.4"/>
  <path fill="#213338" d="M9.1 61.5l32.8-19c.1 2.3-.5 4.7-11.6 10.4-3 1.6-20.4 9-20.4 9l-.8-.4"/>
  <path fill="#24333b" d="M9.1 61.5l32.8-19c.1 2.4-.5 4.7-11.8 10.5-3 1.5-20.2 8.8-20.2 8.8s-.4 0-.8-.3"/>
  <path fill="#24333b" d="M9.1 61.5l32.8-19c.1 2.4-.6 4.6-12 10.6-3 1.5-20 8.7-20 8.7s-.4 0-.8-.3"/>
  <path fill="#24363b" d="M9.1 61.5l32.8-19c.1 2.5-.6 4.6-12.2 10.6-3 1.6-19.8 8.7-19.8 8.7s-.5 0-.8-.3"/>
  <path fill="#24363b" d="M9.1 61.5L42 42.6c.1 2.4-.6 4.4-12.4 10.6-3.1 1.6-19.6 8.6-19.6 8.6s-.5 0-.8-.3"/>
  <path fill="#26363d" d="M9.1 61.5L42 42.6c.1 2.5-.6 4.4-12.6 10.6-3.2 1.7-19.4 8.6-19.4 8.6s-.5 0-.8-.3"/>
  <path fill="#26363d" d="M9.1 61.5L42 42.6c0 2.5-.6 4.4-12.8 10.7a653 653 0 0 1-19.3 8.5s-.4 0-.7-.3"/>
  <path fill="#26383d" d="M9.2 61.5l32.7-18.9c0 2.5-.6 4.3-13 10.7-3.3 1.7-19 8.5-19 8.5s-.5-.1-.7-.3"/>
  <path fill="#26383d" d="M9.2 61.5l32.7-18.9c0 2.6-.7 4.3-13.2 10.8-3.3 1.7-18.9 8.4-18.9 8.4l-.6-.3"/>
  <path fill="#293840" d="M9.2 61.5l32.7-18.9c0 2.6-.7 4.2-13.4 10.8-3.3 1.8-18.7 8.4-18.7 8.4l-.6-.3"/>
  <path fill="#293840" d="M9.2 61.5l32.7-18.9c0 2.7-.7 4.2-13.6 10.9-3.4 1.8-18.5 8.3-18.5 8.3l-.6-.3"/>
  <path fill="#293b40" d="M9.2 61.5l32.7-18.9c0 2.7-.7 4.2-13.8 11-3.4 1.7-18.4 8.2-18.4 8.2l-.5-.3"/>
  <path fill="#293b40" d="M9.2 61.5l32.7-18.9c0 2.7-.7 4.1-14 11-3.5 1.8-18.2 8.2-18.2 8.2l-.5-.3"/>
  <path fill="#2b3b40" d="M9.2 61.5l32.7-18.9c0 2.8-.7 4-14.2 11-3.5 2-18 8.2-18 8.2s-.4-.1-.5-.3"/>
  <path fill="#2b3b40" d="M9.2 61.5l32.7-18.9c0 2.8-.7 4-14.4 11.1a563 563 0 0 1-17.8 8s-.4 0-.5-.2"/>
  <path fill="#2e3d42" d="M9.2 61.5l32.7-18.9c0 2.9-.8 4-14.6 11.2-3.6 1.9-17.6 8-17.6 8s-.4-.1-.5-.3"/>
  <path fill="#2e3d42" d="M9.2 61.5l32.6-18.9c.1 3-.7 4-14.7 11.2-3.7 2-17.4 8-17.4 8l-.5-.3"/>
  <path fill="#2e3d42" d="M9.2 61.5l32.6-18.8c.1 2.9-.7 3.8-14.9 11.2-3.7 2-17.3 7.9-17.3 7.9l-.4-.3"/>
  <path fill="#2e3d42" d="M9.2 61.5l32.6-18.8c.1 2.9-.7 3.8-15.1 11.2-3.8 2-17 7.8-17 7.8s-.4 0-.5-.2"/>
  <path fill="#303d45" d="M9.2 61.5l32.6-18.8c.1 3-.7 3.7-15.3 11.3-3.8 2-16.9 7.7-16.9 7.7s-.3 0-.4-.2"/>
  <path fill="#303d45" d="M9.2 61.5l32.6-18.8c.1 3-.7 3.7-15.5 11.4-3.9 2-16.7 7.6-16.7 7.6s-.3 0-.4-.2"/>
  <path fill="#334045" d="M9.2 61.5l32.6-18.8c.1 3-.8 3.7-15.7 11.4-4 2-16.5 7.6-16.5 7.6s-.3 0-.4-.2"/>
  <path fill="#334045" d="M9.2 61.5l32.6-18.8c.1 3-.8 3.6-15.9 11.5-4 2-16.3 7.5-16.3 7.5s-.3 0-.4-.2"/>
  <path fill="#334045" d="M9.2 61.5l32.6-18.8c.1 3.1-.8 3.6-16.1 11.5-4 2.1-16.2 7.5-16.2 7.5l-.3-.2"/>
  <path fill="#334045" d="M9.2 61.5l32.6-18.8c.1 3.2-.8 3.5-16.3 11.6-4 2.1-16 7.4-16 7.4l-.3-.2"/>
  <path fill="#334047" d="M9.2 61.5l32.6-18.8c.1 3.2-.8 3.5-16.5 11.6a496 496 0 0 1-15.8 7.4l-.3-.2"/>
  <path fill="#364047" d="M9.2 61.5l32.6-18.8c0 3.2-.8 3.5-16.7 11.7-4.2 2.2-15.6 7.3-15.6 7.3l-.3-.2"/>
  <path fill="#364247" d="M9.2 61.5l32.6-18.8c0 3.3-.9 3.4-17 11.8-4.1 2.1-15.3 7.2-15.3 7.2l-.3-.2"/>
  <path fill="#364247" d="M9.2 61.5l32.6-18.8c0 3.3-.9 3.4-17.1 11.8-4.3 2.2-15.3 7.2-15.3 7.2l-.2-.2"/>
  <path fill="#36454a" d="M9.2 61.5l32.6-18.8c0 3.4-.9 3.3-17.3 11.9-4.3 2.2-15 7-15 7h-.3"/>
  <path fill="#36454a" d="M9.2 61.5l32.6-18.8c0 3.4-.9 3.3-17.5 12-4.4 2.2-14.9 7-14.9 7l-.2-.2"/>
  <path fill="#38454a" d="M9.2 61.5l.2.2s10.3-4.7 14.7-7c16.8-8.7 17.8-8.6 17.7-12L9.2 61.5"/>
  <g clip-path="url(#s)" transform="matrix(.13333 0 0 -.13333 -.5 85.9)">
    <path fill="url(#t)" d="M74.2 196.4s-3-5.3-2.4-13.7L321 326.6l-47.3 27.2L74.2 196.4"/>
  </g>
  <g clip-path="url(#u)" transform="matrix(.13333 0 0 -.13333 -.5 85.9)">
    <path fill="url(#v)" d="M321 326.6l249.2-144c.4 8.7-2.3 13.5-2.3 13.5L368.2 353.8 321 326.6"/>
  </g>
  <g clip-path="url(#w)" transform="matrix(.13333 0 0 -.13333 -.5 85.9)">
    <path fill="url(#x)" d="M321 614.2c-.1 0-2.8-1.2-6.5-4.3-3-2.5-4.9-5.4-4.9-5.4l-35.9-250.7 47.3-27.2v287.6"/>
  </g>
  <g clip-path="url(#y)" transform="matrix(.13333 0 0 -.13333 -.5 85.9)">
    <path fill="url(#z)" d="M311.5 607l-2-2.4L274 353.8l20.2-10.2c-4.2 3.3-5.2 5.7-5.7 7.4-.6 2.2-.2 4.6 0 7.6.5 5.6 2.5 20.1 25.3 250.6l-2.2-2.2zM364 351.2s-38-23.4-36-22.7c6.6 2.3 20.2 8.7 28.2 10.2 9.4 1.7 16-4 21.4-7.7 1-.7 191-138.8 192-139.4-1 3.7-2 5.6-2 5.6L368 353.7zM74.5 197.4s-1.2-2.6-2-5.9c.5.4 202.1 145 209 149.7 5 3.3 5.4 3.5 10.5 1.6l-13.5 8.3-4.6 2.4-199.4-156"/>
  </g>
  <path fill="#4a575c" d="M37.1 38.7c-.2-.3-.2-.7-.2-1 0-1 4.2-32.8 4.2-32.8l-.2.2v.2L36 38.5l-.1.3L9.5 59.5l-.2.4 27.4-20.8 4.5 2.4.4.2-4.5-3"/>
  <path fill="#455257" d="M42.3 49L10.8 62.2h.2L42 49.7h.4l31.2 12.5h.2L42.3 49"/>
  <path fill="#667073" d="M48.6 38.7l26.6 20.8.1.4L48 39l.6-.3"/>
  <path fill="#4f5c61" d="M48 39l-1.8 1.2-.1-.1c1.3-.8 2-1.1 1.9-2l-4.3-33 .2.2 4.7 33.4-.6.3"/>
  <path fill="#000514" d="M9.1 61.3l32-18.9h.2c0-.1.2-.2 0-.4l.5.3L9 61.4v-.1M75.6 61.3l-32.2-19h-.1V42l-.5.3 32.8 19.1v-.1M42.2 4l-.4 37.4v.2h-.3l.5.2.3-37.8"/>
  <g clip-path="url(#A)" transform="matrix(.13333 0 0 -.13333 -.5 85.9)">
    <path fill="url(#B)" d="M318.8 323.4l1.4-46.5s.2-4.9.8-4.9c.6 0 .6 4.9.6 4.9l1.5 46.5h-4.3"/>
  </g>
  <path fill="#fff" d="M46 40L42.7 42H42s-5.3-3-5.4-2.8l5.1 3.3.3.4h.5l.2-.4 3.4-2.2s2-1 1.8-1.2l-2 1"/>
  <path fill="#fff" d="M42.8 43h-1L9.3 61.5l-.1-.2 32.5-19 .4-.8.2-37.6h.2l.2 37.6c0 .2.4.7.5.8l32.5 19v.1h-.1L42.8 43"/>
  <path fill="#fff" d="M42.6 43.4V43l.5.1c.1-.1.3-.3.3-.5l-.3-.3.3-.3c0-.2-.2-.3-.3-.4 0 0-.3.2-.4.1v-.4h-.4a1 1 0 0 0-.3 0v.4l-.5-.1-.2.4.3.3-.3.3c0 .2.1.4.3.5 0 0 .3-.1.4 0v.3h.6M257 53.2h5V52h-5v1.2M173.5 45l-.4 11.6v.2c0 1 .3 1.2 1.9 1.3v.6a25.4 25.4 0 0 0-4.5 0V58c1.6-.1 1.8-.3 1.8-1.5l.5-11v-.1c0-1-.3-1.3-1.9-1.4v-.5a20.3 20.3 0 0 0 4 0l4.2 11.3 4.2-11.4a21.3 21.3 0 0 0 4 0v.6c-1.6.1-2 .3-2 1.3v.2l.3 11c0 1.2.3 1.4 1.9 1.5v.6a26.3 26.3 0 0 0-5.6 0V58c1.5 0 1.8-.3 1.8-1.4l-.2-11.7-3.7 10-.2.7-.4.9-.2.8-.3.8h-.3l-.3-.8-.6-1.7-.3-.8-3.7-10M190.4 52.2c.2-2.6 1-3.9 2.5-3.9s2.2 1.3 2.3 4zm3 5.9c-2.1 0-3-1.6-3-5h6.6c0-3.5-1.4-5.4-4-5.4-2.8 0-4.4 2.2-4.4 5.7 0 3.4 1.6 5.4 4.5 5.4 2.2 0 3.7-1.3 4-3.6h-1C196 57 195 58 193.4 58M198.4 48.6v-.4l3-.6.1 1.9v.2c.5-1.2 1.5-2 2.7-2 1 0 2 .8 2 1.8 0 .7-.5 1.1-1 1.1s-1-.3-1-.7v-.3l.1-.2v-.2c0-.3-.2-.5-.6-.5-1.2 0-2 1.4-2 3.6V57c0 1 .3 1.1 1.7 1.2v.5a23 23 0 0 0-5 0v-.5c1.3 0 1.6-.2 1.6-1.2v-7.3c0-1-.2-1.1-1.3-1.1h-.3M214.7 47.5v3.7h-.5c-.4-2-1.2-2.9-2.6-2.9-1.7 0-2.7 1.8-2.7 5s.9 4.8 2.6 4.8c1.4 0 2.3-1 2.5-3h1c-.4 2.4-1.6 3.7-3.6 3.7-2.7 0-4.4-2.2-4.4-5.4 0-3.4 1.8-5.7 4.4-5.7 1 0 1.6.3 2.3 1l.6-1.2h.4M218.4 52.2c.2-2.6 1-3.9 2.5-3.9 1.4 0 2.2 1.3 2.3 4zm2.9 5.9c-2 0-3-1.6-3-5h6.7c0-3.5-1.4-5.4-4-5.4-2.8 0-4.5 2.2-4.5 5.7 0 3.4 1.7 5.4 4.6 5.4 2.2 0 3.7-1.3 4-3.6h-1C224 57 223 58 221.3 58M231.2 58.2c-1.6 0-2.4-1.7-2.4-4.9s.8-4.8 2.4-4.8c1.6 0 2.5 1.7 2.5 5 0 3.1-.9 4.7-2.5 4.7zm4.3-1.9v-13c-1.2.4-2.2.5-3.4.7v.4c1.4 0 1.6.1 1.6 1.3v4c-.9-1.4-1.5-1.8-2.7-1.8-2.4 0-4.1 2.2-4.1 5.5 0 3.2 1.7 5.5 4.1 5.5 1.3 0 2.2-.6 2.8-1.9l.3 1.8c1-.3 1.3-.4 2.7-.5h.3v-.5c-1.5 0-1.6-.1-1.6-1.5M239.8 52.2c.2-2.6 1-3.9 2.5-3.9 1.4 0 2.2 1.3 2.3 4zm2.9 5.9c-2 0-3-1.6-3-5h6.7c0-3.5-1.4-5.4-4-5.4-2.8 0-4.5 2.2-4.5 5.7 0 3.4 1.7 5.4 4.6 5.4 2.2 0 3.6-1.3 4-3.6h-1c-.2 1.9-1.2 2.9-2.8 2.9M248.3 58.9V55h.5c.4 2 1.4 3 3 3 1.3 0 2.2-.9 2.2-2 0-.8-.4-1.3-1.5-1.8l-.8-.4-1-.4c-1.7-.8-2.2-1.4-2.2-2.7 0-1.8 1.4-3 3.3-3 1 0 1.6.2 2.3.7l.4-1h.4v3.6h-.5c-.2-1.8-1-2.7-2.4-2.7-1.1 0-2 .8-2 1.9 0 .9.3 1.2 2.3 2l1 .5c1.7.7 2.3 1.4 2.3 2.8 0 1.8-1.5 3.2-3.6 3.2a4 4 0 0 1-2.7-1l-.6 1h-.4M268 51.1c1.2 0 2 .2 2.4.7.5.5.8 1.5.8 2.6 0 2.2-1 3.5-3 3.5h-.9c-1.2 0-1.4-.2-1.4-1.2v-5.6zm-2-6.8h1.8c1.9 0 2.7 1 2.7 3 0 1-.2 1.8-.7 2.4-.5.5-1.1.7-2.4.7H266zm6.5 3c0-1.2-.5-2.2-1.3-2.9-.8-.5-1.7-.8-3.1-.8h-6v.6c1.7 0 2 .3 2 1.5v10.8c0 1.3-.3 1.4-2 1.5v.6h5.8c1.6 0 2.5-.2 3.5-.8 1-.7 1.8-2 1.8-3.5 0-1.2-.5-2.3-1.4-3a4 4 0 0 0-1.7-.7c1.6-.6 2.4-1.8 2.4-3.3M276.9 52.2c.2-2.6 1-3.9 2.5-3.9s2.2 1.3 2.3 4zm2.9 5.9c-2 0-3-1.6-3-5h6.7c0-3.5-1.4-5.4-4-5.4-2.8 0-4.5 2.2-4.5 5.7 0 3.4 1.7 5.4 4.6 5.4 2.2 0 3.7-1.3 4-3.6h-1c-.2 1.9-1.2 2.9-2.8 2.9M284.7 48.6v-.3c1.3-.2 2-.4 3-.7l.2 2c.8-1.3 1.7-1.8 3-1.8 1.4 0 2.5.7 3 1.8.2.5.3 1.2.3 2V57c0 1 .3 1.1 1.6 1.2v.5a21.6 21.6 0 0 0-4.9 0v-.5c1.2 0 1.5-.3 1.5-1.2v-5.5c0-2-.5-2.7-2-2.7s-2.3 1-2.3 2.8V57c0 1 .3 1.2 1.4 1.2v.5a21 21 0 0 0-4.8 0v-.5c1.4 0 1.6-.2 1.6-1.2v-7.3c0-.9-.2-1-1.3-1h-.3M296.7 58.6l6-10H300c-1.4 0-1.8.3-2.6 2.3h-.5l.6-2.9h7.7L299 58h2.6c1.5 0 2.2-.6 2.8-2.6h.5l-.6 3.2h-7.7"/>
  <path fill="#8f9194" fill-rule="evenodd" d="M329 43.7h1.2v35.8H329V43.7"/>
  <path fill="#fff" d="M204 68.6v7.2c0 .3.1.5.2.5 0 .2.2.3.5.3h.5v.4a16.7 16.7 0 0 0-3.3 0v-.3c.4 0 .6-.1.7-.2.2 0 .3-.2.3-.3V68.6h-.6c-.6 0-1 .2-1.2.5l-.5 1h-.3l.4-2h5.7l.4 2h-.3l-.5-1a1 1 0 0 0-.5-.4l-.6-.1h-.8M207.3 68.6v-.2c.6 0 1.3-.2 2-.4v3.5a2 2 0 0 1 1.6-.9c.4 0 .8.1 1.1.3.4.3.6.6.7 1l.1 1V76l.1.5c0 .1.4.2.9.2v.3a16.8 16.8 0 0 0-2.9 0v-.3h.6l.2-.4v-3.5l-.1-1c-.2-.4-.6-.6-1-.6-.5 0-.8.2-1.1.5-.2.3-.3.7-.3 1.2V76l.1.5.8.2v.3a16 16 0 0 0-2.9 0v-.3h.7l.3-.4V69.4l-.1-.5c0-.2-.2-.2-.4-.3h-.4M218.5 73.2c0-1.5-.5-2.2-1.4-2.2-.8 0-1.3.7-1.4 2.2zm.5 1.7h.6l-.5 1.3c-.4.6-1 .9-1.9.9-.8 0-1.4-.3-1.9-.9-.5-.6-.7-1.4-.7-2.4s.2-1.7.7-2.3c.5-.6 1-.9 1.8-.9.7 0 1.2.2 1.6.6.5.5.8 1.3.8 2.5h-3.9c0 .8.1 1.5.3 1.8.2.8.7 1.1 1.5 1.1.6 0 1-.2 1.4-.8l.2-.9M227 71c-1 0-1.5 1-1.5 2.9s.5 2.8 1.5 2.8 1.5-1 1.5-2.9-.5-2.8-1.4-2.8zm-2.5 6v-7.6-.5c-.1-.2-.3-.2-.5-.3h-.4v-.2c.7 0 1.3-.2 2-.4v3.6l.4-.6a2 2 0 0 1 2.9.5c.5.7.7 1.4.7 2.3 0 1-.2 1.8-.7 2.4-.5.6-1 .9-1.8.9s-1.3-.4-1.7-1.2l-.6 1.2h-.3M234.6 73.2c0-1.5-.5-2.2-1.3-2.2-.9 0-1.4.7-1.5 2.2zm.6 1.7h.5c0 .5-.2 1-.5 1.3-.4.6-1 .9-1.8.9-.9 0-1.5-.3-2-.9-.4-.6-.7-1.4-.7-2.4s.3-1.7.7-2.3c.5-.6 1.1-.9 1.9-.9.6 0 1.1.2 1.5.6.6.5.9 1.3.9 2.5h-4l.3 1.8c.3.8.8 1.1 1.5 1.1.6 0 1.1-.2 1.4-.8l.3-.9M237 77.1v-2.2h.3l.2 1 .6.5.9.3c.4 0 .7-.2 1-.4.2-.2.3-.5.3-.8 0-.3-.1-.6-.4-.8a27 27 0 0 1-2-1c-.6-.3-.9-.7-.9-1.3 0-.5.2-1 .6-1.3a2 2 0 0 1 1.4-.5c.5 0 1 .2 1.4.4l.2-.5h.2v2h-.3c0-1-.5-1.5-1.4-1.5l-.9.3a1 1 0 0 0-.3.8c0 .2 0 .4.3.6l.8.5a53 53 0 0 1 1.8 1c.3.2.4.5.4 1s-.2 1-.5 1.3c-.4.4-1 .6-1.6.6-.6 0-1.1-.2-1.6-.6l-.3.6h-.2M245.6 76.3v.4c-.4.2-.9.4-1.3.4-.6 0-1-.3-1.3-.8l-.1-1.2V71.2h-.8v-.4l.6-.1c.4-.3.8-.9 1-1.8h.3v1.8h1.5v.5H244V75l.1 1.1c.1.3.3.4.7.4.2 0 .5 0 .8-.2M252.2 71c-.3 0-.6 0-.9.4-.4.5-.6 1.3-.6 2.4 0 2 .5 3 1.5 3 .4 0 .7-.2 1-.6.3-.4.5-1.2.5-2.3 0-2-.5-3-1.5-3zm0-.4c.8 0 1.4.3 1.9 1 .4.6.7 1.3.7 2.3 0 .8-.3 1.6-.7 2.2-.5.7-1.1 1-2 1-.7 0-1.3-.3-1.8-1-.4-.6-.7-1.3-.7-2.2 0-1 .3-1.8.8-2.4.4-.6 1-1 1.8-1M255.6 71v-.2c.7 0 1.3-.1 1.7-.3l.2 1.3c0-.3.2-.5.4-.7.3-.3.7-.5 1.1-.5.4 0 .6.1.9.3l.2.7-.1.5-.4.2-.4-.1a.4.4 0 0 1-.1-.4v-.1-.2l-.1-.3h-.3l-.5.1-.4.6-.2 1.4v3.2c.2.1.4.2 1 .2v.3a17.6 17.6 0 0 0-3 0v-.3h.6c.2-.1.3-.2.3-.4V72v-.6c0-.2-.1-.3-.4-.3h-.5M264 71.1V71l1.7-.4.1 1.2c.5-.7 1-1 1.8-1 .7 0 1.2.2 1.6.7.2.4.3.8.3 1.5V76l.1.5c0 .1.4.2.9.2v.3a16.4 16.4 0 0 0-2.9 0v-.3h.6l.2-.4v-3.5l-.1-1c-.2-.4-.6-.6-1-.6-.5 0-.8.2-1.1.5-.2.3-.3.7-.3 1.2V76l.1.5.8.2v.3a15.7 15.7 0 0 0-2.9 0v-.3h.7l.3-.4V72v-.5c0-.2-.2-.3-.4-.3h-.5M273.9 71c-.4 0-.7 0-1 .4-.3.5-.5 1.3-.5 2.4 0 2 .5 3 1.4 3 .4 0 .7-.2 1-.6.3-.4.5-1.2.5-2.3 0-2-.5-3-1.4-3zm0-.4c.8 0 1.4.3 1.8 1 .5.6.7 1.3.7 2.3 0 .8-.2 1.6-.7 2.2-.5.7-1 1-1.9 1-.8 0-1.4-.3-1.9-1-.4-.6-.6-1.3-.6-2.2 0-1 .2-1.8.7-2.4.5-.6 1.1-1 1.9-1M280.8 76.3v.4l-1.3.4c-.7 0-1.1-.3-1.3-.8l-.2-1.2V71.2h-.8v-.4l.6-.1c.5-.3.8-.9 1-1.8h.3v1.8h1.6v.5H279V75l.1 1.1c.2.3.4.4.7.4.2 0 .5 0 .9-.2M281.4 68.6v-.2c.7 0 1.4-.2 2-.4v3.5a2 2 0 0 1 1.7-.9c.4 0 .8.1 1 .3.5.3.7.6.8 1l.1 1v3.6l1 .2v.3a16.8 16.8 0 0 0-3 0v-.3h.7l.2-.4v-3.5c0-.5 0-.9-.2-1-.2-.4-.5-.6-1-.6-.4 0-.8.2-1 .5-.2.3-.3.7-.3 1.2v3.6c.2.1.4.2.9.2v.3a16 16 0 0 0-2.9 0v-.3h.7l.2-.4V69.4v-.5c0-.2-.2-.2-.5-.3h-.4M290 68.2c.2 0 .4 0 .5.2.2.1.3.3.3.5s-.1.3-.3.5l-.5.2c-.2 0-.3 0-.5-.2a.7.7 0 0 1-.2-.5c0-.2 0-.4.2-.5.1-.2.3-.2.5-.2zm.6 2.3v6l1 .2v.3a17.7 17.7 0 0 0-3 0v-.3h.7l.2-.4V72v-.6c-.1-.1-.2-.2-.5-.2h-.4v-.2l2-.4M292.3 71.1V71l1.8-.4v1.2c.6-.7 1.1-1 1.9-1 .7 0 1.2.2 1.6.7.2.4.3.8.3 1.5v3.6c.2.1.4.2 1 .2v.3a16.4 16.4 0 0 0-3 0v-.3h.7l.2-.4v-3.5c0-.5 0-.9-.2-1-.2-.4-.5-.6-1-.6-.4 0-.8.2-1 .5-.2.3-.3.7-.3 1.2v3.6l.8.2v.3a15.7 15.7 0 0 0-2.8 0v-.3h.7l.2-.4V72v-.5c0-.2-.1-.3-.4-.3h-.5M302.2 71c-.4 0-.7.1-1 .4a2 2 0 0 0-.3 1.2c0 .4.1.8.3 1.1.2.4.5.5 1 .5a1 1 0 0 0 1-.5l.2-1.1c0-1.1-.4-1.6-1.2-1.6zm-.2 5.7c-.6 0-1.1.1-1.5.3-.3.2-.5.5-.5.8 0 .4.2.7.6 1 .4.2 1 .3 1.6.3a3 3 0 0 0 1.5-.3c.4-.2.5-.5.5-1 0-.3-.2-.6-.6-.8-.4-.2-.9-.3-1.6-.3zm1.6-5.7h1.7v.5h-1.2c.2.3.3.7.3 1 0 .7-.3 1.3-.9 1.7l-1.4.5a6 6 0 0 0-1 .3l-.3.3c0 .2 0 .3.2.3l1 .2c1 0 1.6.2 2 .3.4.1.7.4.8.7.2.2.2.5.2.7 0 .4 0 .8-.3 1.1-.3.3-.7.6-1.2.7-.4.2-.8.2-1.3.2a4 4 0 0 1-1.9-.4c-.3-.1-.5-.3-.6-.6-.2-.2-.3-.5-.3-.8 0-.6.5-1 1.3-1.4-.5-.2-.7-.4-.7-.7 0-.5.5-.9 1.4-1.1l-.8-.4c-.5-.4-.7-.9-.7-1.5s.2-1 .6-1.4c.4-.4 1-.6 1.7-.6.6 0 1 .1 1.4.4M307 75.6c.3 0 .5 0 .6.2l.2.5c0 .2 0 .4-.2.5-.1.2-.3.3-.5.3l-.6-.3a.7.7 0 0 1-.2-.5l.2-.5c.2-.2.4-.2.6-.2"/>
</svg>
