<?xml version="1.0" encoding="utf-8"?>
<svg xmlns="http://www.w3.org/2000/svg">
  <symbol id="facebook" viewBox="0 0 512 512">
    <path d="M288 176v-64a32 32 0 0 1 32-32h32V0h-64c-53 0-96 43-96 96v80h-64v80h64v256h96V256h64l32-80h-96z"/>
  </symbol>
  <symbol id="icon-bars">
    <path fill-rule="evenodd" d="M0 19v-3h26v3H0zM0 8h26v3H0V8zm0-8h26v3H0V0z"/>
  </symbol>
  <symbol id="icon-calculator" viewBox="0 0 512 512">
    <path d="M397 0H115a49.3 49.3 0 0 0-49.2 49.3v413.4a49.3 49.3 0 0 0 49.3 49.3h281.8a49.3 49.3 0 0 0 49.3-49.3V49.3A49.3 49.3 0 0 0 396.9 0zM133.2 85.1a15 15 0 0 1 15-15h215.4a15 15 0 0 1 15 15v29.6a15 15 0 0 1-15 15H148.3a15 15 0 0 1-15-15V85.1zm50.5 336.8a15 15 0 0 1-15 15h-20.5a15 15 0 0 1-15-15v-14.2a15 15 0 0 1 15-15h20.5a15 15 0 0 1 15 15v14.2zm0-88.8a15 15 0 0 1-15 15h-20.5a15 15 0 0 1-15-15V319a15 15 0 0 1 15-15h20.5a15 15 0 0 1 15 15v14.2zm98.7 88.8a15 15 0 0 1-15 15H247a15 15 0 0 1-15-15v-14.2a15 15 0 0 1 15-15h20.5a15 15 0 0 1 15 15v14.2zm0-88.8a15 15 0 0 1-15 15H247a15 15 0 0 1-15-15V319a15 15 0 0 1 15-15h20.5a15 15 0 0 1 15 15v14.2zm0-88.7a15 15 0 0 1-15 15H148.3a15 15 0 0 1-15-15v-14.2a15 15 0 0 1 15-15h119.2a15 15 0 0 1 15 15v14.2zM381 421.9a15 15 0 0 1-15 15h-20.5a15 15 0 0 1-15-15v-14.2a15 15 0 0 1 15-15h20.5a15 15 0 0 1 15 15v14.2zm0-88.8a15 15 0 0 1-15 15h-20.5a15 15 0 0 1-15-15V319a15 15 0 0 1 15-15h20.5a15 15 0 0 1 15 15v14.2zm0-88.7a15 15 0 0 1-15 15h-20.5a15 15 0 0 1-15-15v-14.2a15 15 0 0 1 15-15h20.5a15 15 0 0 1 15 15v14.2z"/>
  </symbol>
  <symbol id="icon-car" viewBox="0 0 417.9 417.9">
    <g stroke="#000" stroke-width="0" stroke-linecap="round" stroke-linejoin="round">
      <path d="M285 279H132.9l-13.5 32.8-2.3 5.7h29.3v-15a5 5 0 1 1 10 0v14.3l-.2.7h48l-.1-.8V302.5a5 5 0 1 1 10 0v14.3l-.1.7h47.9l-.1-.8V302.5a5 5 0 1 1 10 0v14.3l-.1.7h29.3l-2.3-5.7L285 279z"/>
      <path d="M415 151c-1-3-4.5-5.2-7.5-5.2h-38.2c-2.9 0-6.4 2.2-7.4 5.1-1.4 4-2.2 7.4-2.6 10.6L323.9 93a15.2 15.2 0 0 0-11.6-9.8A582.2 582.2 0 0 0 209 74c-34.2 0-69 3.2-103.4 9.4-5.3 1-9.7 4.7-11.6 9.8l-35.4 68.4c-.4-3.2-1.2-6.6-2.6-10.6-1-2.9-4.5-5.1-7.5-5.1H10.4c-3 0-6.5 2.2-7.5 5.1a37.6 37.6 0 0 0 0 29c1 2.9 4.5 5.1 7.5 5.1h38l.2 1.4c-8 2.5-14 10-14 18.8v129.3c0 5.2 4.3 9.4 9.5 9.4h47.3c5.2 0 9.4-4.2 9.4-9.4v-22.7h7.7l16.3-39.7a5 5 0 0 1 4.7-3h159a5 5 0 0 1 4.5 3l16.4 39.7h7.6v22.7c0 5.2 4.3 9.4 9.4 9.4h47.4c5.2 0 9.4-4.2 9.4-9.4V205.2c0-8.9-5.8-16.3-13.9-18.7l.1-1.5h38.1c3 0 6.5-2.2 7.5-5.1a37.6 37.6 0 0 0 0-29zm-300-46.8s22.8-5.7 94-5.7 93.9 5.7 93.9 5.7l33.3 80.8H81.6l33.4-80.8zM73.5 244v-26.5H131l17.1 26.5H73.5zm270.9 0h-74.6l17-26.5h57.6V244z"/>
    </g>
  </symbol>
  <symbol id="icon-coupon" viewBox="0 0 512 512">
    <path d="M407 301a15 15 0 1 0 0 30 15 15 0 0 0 0-30z"/>
    <path d="M497 91H151.2v45a15 15 0 1 1-30 0V91H15a15 15 0 0 0-15 15v90a15 15 0 0 0 15 15 45 45 0 0 1 0 90 15 15 0 0 0-15 15v90a15 15 0 0 0 15 15h105v-45a15 15 0 1 1 30 0v45h347a15 15 0 0 0 15-15V106a15 15 0 0 0-15-15zM150 316a15 15 0 1 1-30 0v-30a15 15 0 1 1 30 0v30zm0-90a15 15 0 1 1-30 0v-30a15 15 0 1 1 30 0v30zm92-30a45 45 0 1 1 90.1.1 45 45 0 0 1-90.1-.1zm36.7 162.5a15 15 0 0 1-4.2-20.8l120-180a15 15 0 1 1 25 16.6l-120 180a15 15 0 0 1-20.8 4.2zM407 361a45 45 0 1 1 .1-90.1 45 45 0 0 1-.1 90.1z"/>
    <path d="M287 181a15 15 0 1 0 0 30 15 15 0 0 0 0-30z"/>
  </symbol>
  <symbol id="icon-cross" viewBox="0 0 94.9 94.9">
    <path d="M56 47.5L94.2 9c.8-.8.8-2.2 0-3L88.8.6a2.1 2.1 0 0 0-3 0L47.5 39 9 .6c-.8-.8-2.2-.8-3 0L.6 6.1c-.8.8-.8 2.2 0 3L39 47.5.6 85.8c-.8.9-.8 2.2 0 3l5.5 5.5a2.1 2.1 0 0 0 3 0L47.5 56l38.3 38.4a2.1 2.1 0 0 0 3 0l5.5-5.5c.8-.8.8-2.1 0-3L56 47.5z"/>
  </symbol>
  <symbol id="icon-mail" viewBox="0 0 373.6 373.6">
    <path d="M314.3 64.6H58.8c-14.5-.8-28.7 4-40 13L33.3 87l110 71.2c1 .4 2 1 2.8 1.8l40 26 153.7-98.9 14.5-9.4a62.7 62.7 0 0 0-40-13.1zM22.2 98.8L8.7 90a65.4 65.4 0 0 0-8.6 33.1v127.1c-.3 13.6 3.9 26.9 11.7 37.9l11.4-11.8L128 167.5 22.2 98.8z"/>
    <path d="M338.8 287.1L232 176.4l-40.8 26.4-1.4.6h-.6a8 8 0 0 1-2 0 8 8 0 0 1-2 0h-.6l-2-.6-40.4-26.2L34.8 287.4l-11.5 12a61.2 61.2 0 0 0 35.5 9.6h256c12.5.1 24.8-3.4 35.3-10.2l-11.3-11.7zM373.5 250.2V123.4a62.6 62.6 0 0 0-8.4-33.3l-13.6 8.7L246 167.2l104.7 108.9L362 288a60 60 0 0 0 11.5-37.8z"/>
  </symbol>
  <symbol id="icon-phone-call" viewBox="0 0 512 512">
    <path d="M437 75A256 256 0 1 0 75 437 256 256 0 0 0 437 75zm-49.3 281.6l-13 12.8a68.3 68.3 0 0 1-64.4 18.5 226.8 226.8 0 0 1-66-29.6c-18.7-12-36.1-26-51.9-41.9a306.7 306.7 0 0 1-38.8-47 239 239 0 0 1-29.2-59.1 68.3 68.3 0 0 1 17-69.7l15.3-15.2c4.2-4.3 11-4.3 15.3 0l48 48c4.2 4.2 4.2 11 0 15.3l-28.2 28.2a23 23 0 0 0-2.4 29.8 329.3 329.3 0 0 0 78.1 76.7 23.1 23.1 0 0 0 29.5-2.6l27.3-27.6c4.2-4.3 11-4.3 15.3 0l48 48c4.3 4.3 4.3 11.2.1 15.4z"/>
  </symbol>
  <symbol id="icon-steering-wheel" viewBox="0 0 512 512">
    <path d="M437 75C388.7 26.6 324.4 0 256 0S123.3 26.6 75 75C26.6 123.3 0 187.6 0 256s26.6 132.7 75 181c48.3 48.4 112.6 75 181 75s132.7-26.6 181-75c48.4-48.3 75-112.6 75-181s-26.6-132.7-75-181zM256 57.3A199 199 0 0 1 453 230l-123.2-12a83.1 83.1 0 0 0-147.6 0L59 230A199 199 0 0 1 256 57.3zm-197.1 224l121.7 9.6a83.7 83.7 0 0 0 36.8 38.6l8 122.9a199.2 199.2 0 0 1-166.5-171zm197.1.5a25.8 25.8 0 1 1 0-51.7 25.8 25.8 0 0 1 0 51.7zm30.6 170.6l8-122.9c16.1-8.5 29-22 36.8-38.6l121.7-9.5a199.2 199.2 0 0 1-166.5 171z"/>
  </symbol>
  <symbol id="instagram" viewBox="0 0 512 512">
    <path d="M352 0H160A160 160 0 0 0 0 160v192a160 160 0 0 0 160 160h192a160 160 0 0 0 160-160V160A160 160 0 0 0 352 0zm112 352c0 61.8-50.2 112-112 112H160c-61.8 0-112-50.2-112-112V160C48 98.2 98.2 48 160 48h192c61.8 0 112 50.2 112 112v192z"/>
    <path d="M256 128a128 128 0 1 0 0 256 128 128 0 0 0 0-256zm0 208a80.1 80.1 0 0 1 0-160 80 80 0 0 1 0 160z"/>
    <circle cx="393.6" cy="118.4" r="17.1"/>
  </symbol>
  <symbol id="vk" viewBox="0 0 512 512">
    <path d="M507.4 370.5c-1.4-2.3-9.9-20.8-50.8-58.8-43-39.9-37.2-33.4 14.5-102.2 31.4-42 44-67.5 40-78.5-3.7-10.4-26.8-7.7-26.8-7.7l-77 .5s-5.6-.8-9.9 1.7c-4.1 2.5-6.8 8.3-6.8 8.3s-12.2 32.4-28.4 60c-34.3 58.2-48 61.3-53.6 57.7-13-8.4-9.8-33.9-9.8-52 0-56.3 8.6-79.8-16.6-86a132 132 0 0 0-36-3.5c-27.4-.3-50.7 0-63.9 6.5-8.7 4.3-15.5 13.9-11.3 14.4 5 .7 16.6 3.1 22.7 11.4 7.9 10.8 7.6 34.9 7.6 34.9s4.5 66.4-10.6 74.6c-10.4 5.7-24.6-5.8-55.2-58.7-15.7-27-27.5-57-27.5-57s-2.3-5.5-6.3-8.5c-5-3.6-11.9-4.7-11.9-4.7l-73.1.4s-11 .3-15 5c-3.6 4.3-.3 13.1-.3 13.1s57.3 134 122 201.6c59.6 61.9 127.1 57.8 127.1 57.8h30.6s9.2-1 14-6.1c4.3-4.7 4.1-13.4 4.1-13.4s-.6-41.1 18.5-47.1c18.8-6 43 39.6 68.5 57.2 19.3 13.3 34 10.4 34 10.4l68.4-1s35.8-2.2 18.8-30.3z"/>
  </symbol>
  <symbol id="youtube" viewBox="0 0 512 512">
    <path d="M490.2 114c-13.8-24.8-29-29.3-59.6-31-30.7-2.1-107.8-3-174.5-3-67 0-144 .9-174.7 3-30.6 1.7-45.7 6.2-59.7 31C7.4 138.5 0 181 0 255.8v.2C0 330.8 7.4 373.6 21.7 398c14 24.7 29 29.2 59.7 31.3C112 430.9 189.2 432 256 432c66.7 0 143.8-1 174.5-2.8 30.7-2.1 45.8-6.6 59.7-31.3 14.4-24.4 21.7-67.2 21.7-141.7v-.2c0-75-7.3-117.4-21.8-142zM192 352V160l160 96-160 96z"/>
  </symbol>
</svg>
