<?xml version="1.0" encoding="utf-8"?>
<svg xmlns="http://www.w3.org/2000/svg">
<symbol id="facebook" viewBox="0 0 512 512">
<g>
	<g>
		<path d="M288,176v-64c0-17.664,14.336-32,32-32h32V0h-64c-53.024,0-96,42.976-96,96v80h-64v80h64v256h96V256h64l32-80H288z"/>
	</g>
</g>


</symbol>
<symbol id="icon-bars">
<path fill-rule="evenodd" fill="#000" d="M-0.000,18.995 L-0.000,15.996 L26.000,15.996 L26.000,18.995 L-0.000,18.995 ZM-0.000,7.994 L26.000,7.994 L26.000,10.996 L-0.000,10.996 L-0.000,7.994 ZM-0.000,-0.004 L26.000,-0.004 L26.000,2.995 L-0.000,2.995 L-0.000,-0.004 Z"/>

</symbol>
<symbol id="icon-calculator" viewBox="0 0 512 512">
<g>
	<g>
		<path d="M396.911,0H115.089C87.93,0,65.834,22.096,65.834,49.255v413.49c0,27.159,22.096,49.255,49.255,49.255h281.822
			c27.159,0,49.255-22.096,49.255-49.255V49.255C446.166,22.096,424.07,0,396.911,0z M133.343,85.096c0-8.284,6.716-15,15-15
			h215.313c8.284,0,15,6.716,15,15v29.618c0,8.284-6.716,15-15,15H148.343c-8.284,0-15-6.716-15-15V85.096z M183.844,421.916
			c0,8.284-6.716,15-15,15h-20.5c-8.284,0-15-6.716-15-15v-14.212c0-8.284,6.716-15,15-15h20.5c8.284,0,15,6.716,15,15V421.916z
			 M183.844,333.146c0,8.284-6.716,15-15,15h-20.5c-8.284,0-15-6.716-15-15v-14.212c0-8.284,6.716-15,15-15h20.5
			c8.284,0,15,6.716,15,15V333.146z M282.479,421.916c0,8.284-6.716,15-15,15h-20.5c-8.285,0-15-6.716-15-15v-14.212
			c0-8.284,6.715-15,15-15h20.5c8.284,0,15,6.716,15,15V421.916z M282.479,333.146c0,8.284-6.716,15-15,15h-20.5
			c-8.285,0-15-6.716-15-15v-14.212c0-8.284,6.715-15,15-15h20.5c8.284,0,15,6.716,15,15V333.146z M282.479,244.375
			c0,8.285-6.716,15-15,15H148.343c-8.284,0-15-6.716-15-15v-14.212c0-8.284,6.716-15,15-15h119.136c8.284,0,15,6.716,15,15V244.375
			z M381.114,421.916c0,8.284-6.716,15-15,15h-20.5c-8.284,0-15-6.716-15-15v-14.212c0-8.284,6.716-15,15-15h20.5
			c8.284,0,15,6.716,15,15V421.916z M381.114,333.146c0,8.284-6.716,15-15,15h-20.5c-8.284,0-15-6.716-15-15v-14.212
			c0-8.284,6.716-15,15-15h20.5c8.284,0,15,6.716,15,15V333.146z M381.114,244.375c0,8.285-6.716,15-15,15h-20.5
			c-8.284,0-15-6.716-15-15v-14.212c0-8.284,6.716-15,15-15h20.5c8.284,0,15,6.716,15,15V244.375z"/>
	</g>
</g>


</symbol>
<symbol id="icon-car" viewBox="0 0 417.885 417.885">
<g>
	<path style="stroke:#000000;stroke-width:0;stroke-linecap:round;stroke-linejoin:round;" d="M285.083,278.997H132.804
		l-13.507,32.814l-2.342,5.69h29.362c-0.041-0.257-0.079-0.515-0.079-0.783v-4.907v-9.329c0-2.755,2.233-4.989,4.989-4.989
		c2.755,0,4.989,2.233,4.989,4.989v9.329v4.907c0,0.268-0.038,0.526-0.079,0.783h47.897c-0.041-0.257-0.079-0.515-0.079-0.783
		v-4.907v-9.329c0-2.755,2.233-4.989,4.989-4.989c2.755,0,4.989,2.233,4.989,4.989v9.329v4.907c0,0.268-0.038,0.526-0.079,0.783
		h47.897c-0.041-0.257-0.079-0.515-0.079-0.783v-4.907v-9.329c0-2.755,2.233-4.989,4.989-4.989s4.989,2.233,4.989,4.989v9.329v4.907
		c0,0.268-0.038,0.526-0.079,0.783h29.362l-2.342-5.69L285.083,278.997z"/>
	<path style="stroke:#000000;stroke-width:0;stroke-linecap:round;stroke-linejoin:round;" d="M414.985,150.922
		c-0.994-2.892-4.515-5.142-7.454-5.142c-12.728,0-25.456,0-38.183,0c-2.94,0-6.461,2.251-7.454,5.142
		c-1.366,3.976-2.239,7.347-2.64,10.547c-16.795-32.338-35.393-68.331-35.393-68.331c-1.829-5.111-6.246-8.854-11.586-9.82
		c-34.4-6.222-69.163-9.376-103.322-9.376c-34.158,0-68.928,3.154-103.341,9.376c-5.34,0.965-9.759,4.709-11.588,9.819
		c0,0-18.598,35.994-35.393,68.331c-0.401-3.199-1.274-6.571-2.64-10.547c-0.993-2.892-4.514-5.142-7.453-5.142
		c-12.727,0-25.456,0-38.183,0c-2.939,0-6.46,2.251-7.455,5.142c-3.867,11.258-3.864,17.704,0.001,28.963
		c0.994,2.892,4.515,5.142,7.454,5.142c12.704,0,25.408,0,38.111,0c0.008,0.476,0.035,0.95,0.088,1.424
		c-8.037,2.438-13.888,9.899-13.888,18.732v82.176v4.872v42.301c0,5.197,4.211,9.41,9.409,9.41h47.362c5.197,0,9.41-4.213,9.41-9.41
		v-22.722h7.661l16.342-39.702c0.77-1.87,2.591-3.09,4.613-3.09h158.962c2.022,0,3.844,1.22,4.613,3.09l16.341,39.702h7.661v22.722
		c0,5.197,4.213,9.41,9.41,9.41h47.362c5.197,0,9.409-4.213,9.409-9.41v-42.301v-4.872v-82.176c0-8.833-5.851-16.294-13.888-18.732
		c0.053-0.474,0.08-0.948,0.088-1.424c12.703,0,25.407,0,38.111,0c2.939,0,6.46-2.249,7.455-5.142
		C418.853,168.626,418.851,162.18,414.985,150.922z M115.019,104.224c0,0,22.741-5.772,93.924-5.772s93.923,5.772,93.923,5.772
		l33.38,80.803H81.64L115.019,104.224z M73.533,244.042v-26.548h57.499l17.084,26.548H73.533z M344.352,244.042h-74.583
		l17.084-26.548h57.499V244.042z"/>
</g>

</symbol>
<symbol id="icon-coupon" viewBox="0 0 512 512">
<g>
	<g>
		<path d="M407,301c-8.276,0-15,6.724-15,15s6.724,15,15,15s15-6.724,15-15S415.276,301,407,301z"/>
	</g>
</g>
<g>
	<g>
		<path d="M497,91H151.245v45c0,8.291-6.709,15-15,15s-15-6.709-15-15V91H15c-8.291,0-15,6.709-15,15v90c0,8.291,6.709,15,15,15
			c24.814,0,45,20.186,45,45c0,24.814-20.186,45-45,45c-8.291,0-15,6.709-15,15v90c0,8.291,6.709,15,15,15h105v-45
			c0-8.291,6.709-15,15-15s15,6.709,15,15v45h347c8.291,0,15-6.709,15-15V106C512,97.709,505.291,91,497,91z M150,316
			c0,8.291-6.709,15-15,15s-15-6.709-15-15v-30c0-8.291,6.709-15,15-15s15,6.709,15,15V316z M150,226c0,8.291-6.709,15-15,15
			s-15-6.709-15-15v-30c0-8.291,6.709-15,15-15s15,6.709,15,15V226z M242,196c0-24.814,20.186-45,45-45c24.814,0,45,20.186,45,45
			c0,24.814-20.186,45-45,45C262.186,241,242,220.814,242,196z M278.68,358.48c-6.899-4.6-8.76-13.901-4.16-20.801l120-180
			c4.585-6.899,13.887-8.745,20.801-4.16c6.899,4.6,8.76,13.901,4.16,20.801l-120,180
			C294.956,361.117,285.689,363.126,278.68,358.48z M407,361c-24.814,0-45-20.186-45-45c0-24.814,20.186-45,45-45
			c24.814,0,45,20.186,45,45C452,340.814,431.814,361,407,361z"/>
	</g>
</g>
<g>
	<g>
		<path d="M287,181c-8.276,0-15,6.724-15,15s6.724,15,15,15s15-6.724,15-15S295.276,181,287,181z"/>
	</g>
</g>


</symbol>
<symbol id="icon-cross" viewBox="0 0 94.926 94.926">
<g>
	<path d="M55.931,47.463L94.306,9.09c0.826-0.827,0.826-2.167,0-2.994L88.833,0.62C88.436,0.224,87.896,0,87.335,0
		c-0.562,0-1.101,0.224-1.498,0.62L47.463,38.994L9.089,0.62c-0.795-0.795-2.202-0.794-2.995,0L0.622,6.096
		c-0.827,0.827-0.827,2.167,0,2.994l38.374,38.373L0.622,85.836c-0.827,0.827-0.827,2.167,0,2.994l5.473,5.476
		c0.397,0.396,0.936,0.62,1.498,0.62s1.1-0.224,1.497-0.62l38.374-38.374l38.374,38.374c0.397,0.396,0.937,0.62,1.498,0.62
		s1.101-0.224,1.498-0.62l5.473-5.476c0.826-0.827,0.826-2.167,0-2.994L55.931,47.463z"/>
</g>


</symbol>
<symbol id="icon-mail" viewBox="0 0 373.574 373.574">
<g>
	<g>
		<path d="M314.327,64.559H58.807c-14.497-0.721-28.746,3.953-40,13.12l14.48,9.36l109.92,71.2c1.074,0.375,2.056,0.975,2.88,1.76
			l40,26l153.68-98.88l14.56-9.44C342.903,68.829,328.774,64.194,314.327,64.559z"/>
	</g>
</g>
<g>
	<g>
		<path d="M22.247,98.799l-13.52-8.8c-5.771,10.076-8.753,21.508-8.64,33.12l-0.08,127.12c-0.203,13.555,3.947,26.818,11.84,37.84
			l11.36-11.76l104.72-108.8L22.247,98.799z"/>
	</g>
</g>
<g>
	<g>
		<path d="M338.807,287.119l-106.8-110.72l-40.8,26.4l-1.36,0.64h-0.64c-0.664,0.084-1.336,0.084-2,0c-0.664,0.084-1.336,0.084-2,0
			h-0.64l-1.92-0.64l-40.48-26.24l-107.36,110.88l-11.52,11.92c10.566,6.796,22.967,10.175,35.52,9.68h256
			c12.504,0.08,24.762-3.478,35.28-10.24L338.807,287.119z"/>
	</g>
</g>
<g>
	<g>
		<path d="M373.527,250.239v-126.88c0.357-11.66-2.552-23.187-8.4-33.28l-13.6,8.72l-105.6,68.4l104.64,108.88l11.44,11.92
			C370.002,277.075,374.063,263.766,373.527,250.239z"/>
	</g>
</g>


</symbol>
<symbol id="icon-phone-call" viewBox="0 0 512 512">
<g>
	<g>
		<path d="M436.992,74.953c-99.989-99.959-262.08-99.935-362.039,0.055s-99.935,262.08,0.055,362.039s262.08,99.935,362.039-0.055
			c48.006-48.021,74.968-113.146,74.953-181.047C511.986,188.055,485.005,122.951,436.992,74.953z M387.703,356.605
			c-0.011,0.011-0.022,0.023-0.034,0.034v-0.085l-12.971,12.885c-16.775,16.987-41.206,23.976-64.427,18.432
			c-23.395-6.262-45.635-16.23-65.877-29.525c-18.806-12.019-36.234-26.069-51.968-41.899
			c-14.477-14.371-27.483-30.151-38.827-47.104c-12.408-18.242-22.229-38.114-29.184-59.051
			c-7.973-24.596-1.366-51.585,17.067-69.717l15.189-15.189c4.223-4.242,11.085-4.257,15.326-0.034
			c0.011,0.011,0.023,0.022,0.034,0.034l47.957,47.957c4.242,4.223,4.257,11.085,0.034,15.326c-0.011,0.011-0.022,0.022-0.034,0.034
			l-28.16,28.16c-8.08,7.992-9.096,20.692-2.389,29.867c10.185,13.978,21.456,27.131,33.707,39.339
			c13.659,13.718,28.508,26.197,44.373,37.291c9.167,6.394,21.595,5.316,29.525-2.56l27.221-27.648
			c4.223-4.242,11.085-4.257,15.326-0.034c0.011,0.011,0.022,0.022,0.034,0.034l48.043,48.128
			C391.911,345.502,391.926,352.363,387.703,356.605z"/>
	</g>
</g>

</symbol>
<symbol id="icon-steering-wheel" viewBox="0 0 512 512">
<g>
	<g>
		<path d="M437.02,74.981C388.668,26.628,324.38,0,256,0S123.333,26.628,74.98,74.981C26.628,123.333,0,187.62,0,256
			s26.628,132.667,74.98,181.019C123.333,485.372,187.62,512,256,512s132.667-26.628,181.02-74.981
			C485.372,388.668,512,324.38,512,256S485.372,123.333,437.02,74.981z M256,57.263c100.782,0,184.276,75.409,197.04,172.765
			L329.849,218.03c-13.813-26.755-41.72-45.102-73.849-45.102s-60.036,18.347-73.849,45.102L58.96,230.028
			C71.724,132.672,155.218,57.263,256,57.263z M58.889,281.375l121.731,9.484c7.69,16.55,20.669,30.166,36.76,38.655l7.978,122.859
			C138.513,438.875,70.099,368.943,58.889,281.375z M256,281.809c-14.232,0-25.809-11.578-25.809-25.809S241.77,230.191,256,230.191
			S281.809,241.77,281.809,256S270.232,281.809,256,281.809z M286.644,452.373l7.978-122.859
			c16.091-8.488,29.069-22.105,36.76-38.655l121.731-9.484C441.901,368.943,373.487,438.875,286.644,452.373z"/>
	</g>
</g>

</symbol>
<symbol id="instagram" viewBox="0 0 512 512">
<g>
	<g>
		<path d="M352,0H160C71.648,0,0,71.648,0,160v192c0,88.352,71.648,160,160,160h192c88.352,0,160-71.648,160-160V160
			C512,71.648,440.352,0,352,0z M464,352c0,61.76-50.24,112-112,112H160c-61.76,0-112-50.24-112-112V160C48,98.24,98.24,48,160,48
			h192c61.76,0,112,50.24,112,112V352z"/>
	</g>
</g>
<g>
	<g>
		<path d="M256,128c-70.688,0-128,57.312-128,128s57.312,128,128,128s128-57.312,128-128S326.688,128,256,128z M256,336
			c-44.096,0-80-35.904-80-80c0-44.128,35.904-80,80-80s80,35.872,80,80C336,300.096,300.096,336,256,336z"/>
	</g>
</g>
<g>
	<g>
		<circle cx="393.6" cy="118.4" r="17.056"/>
	</g>
</g>


</symbol>
<symbol id="vk" viewBox="0 0 511.962 511.962">
<g>
	<g>
		<path d="M507.399,370.471c-1.376-2.304-9.888-20.8-50.848-58.816c-42.88-39.808-37.12-33.344,14.528-102.176
			c31.456-41.92,44.032-67.52,40.096-78.464c-3.744-10.432-26.88-7.68-26.88-7.68l-76.928,0.448c0,0-5.696-0.768-9.952,1.76
			c-4.128,2.496-6.784,8.256-6.784,8.256s-12.192,32.448-28.448,60.032c-34.272,58.208-48,61.28-53.6,57.664
			c-13.024-8.416-9.76-33.856-9.76-51.904c0-56.416,8.544-79.936-16.672-86.016c-8.384-2.016-14.528-3.36-35.936-3.584
			c-27.456-0.288-50.72,0.096-63.872,6.528c-8.768,4.288-15.52,13.856-11.392,14.4c5.088,0.672,16.608,3.104,22.72,11.424
			c7.904,10.72,7.616,34.848,7.616,34.848s4.544,66.4-10.592,74.656c-10.4,5.664-24.64-5.888-55.2-58.72
			c-15.648-27.04-27.488-56.96-27.488-56.96s-2.272-5.568-6.336-8.544c-4.928-3.616-11.84-4.768-11.84-4.768l-73.152,0.448
			c0,0-10.976,0.32-15.008,5.088c-3.584,4.256-0.288,13.024-0.288,13.024s57.28,133.984,122.112,201.536
			c59.488,61.92,127.008,57.856,127.008,57.856h30.592c0,0,9.248-1.024,13.952-6.112c4.352-4.672,4.192-13.44,4.192-13.44
			s-0.608-41.056,18.464-47.104c18.784-5.952,42.912,39.68,68.48,57.248c19.328,13.28,34.016,10.368,34.016,10.368l68.384-0.96
			C488.583,400.807,524.359,398.599,507.399,370.471z"/>
	</g>
</g>

</symbol>
<symbol id="youtube" viewBox="0 0 512 512">
<g>
	<g>
		<path d="M490.24,113.92c-13.888-24.704-28.96-29.248-59.648-30.976C399.936,80.864,322.848,80,256.064,80
			c-66.912,0-144.032,0.864-174.656,2.912c-30.624,1.76-45.728,6.272-59.744,31.008C7.36,138.592,0,181.088,0,255.904
			C0,255.968,0,256,0,256c0,0.064,0,0.096,0,0.096v0.064c0,74.496,7.36,117.312,21.664,141.728
			c14.016,24.704,29.088,29.184,59.712,31.264C112.032,430.944,189.152,432,256.064,432c66.784,0,143.872-1.056,174.56-2.816
			c30.688-2.08,45.76-6.56,59.648-31.264C504.704,373.504,512,330.688,512,256.192c0,0,0-0.096,0-0.16c0,0,0-0.064,0-0.096
			C512,181.088,504.704,138.592,490.24,113.92z M192,352V160l160,96L192,352z"/>
	</g>
</g>


</symbol></svg>