<svg xmlns="http://www.w3.org/2000/svg" width="38.388" height="36.003" viewBox="0 0 38.388 36.003">
  <path  data-name="Subtraction 2" d="M-4076.632,36l-3.045-13.309-5.719,3.565,3.749-5.59L-4096,18.09l14.354-2.691-3.749-5.54,5.719,3.36L-4076.631,0l2.893,13.22,5.8-3.36-3.9,5.54,14.225,2.691-14.225,2.579,3.9,5.59-5.8-3.565L-4076.63,36Zm-.158-16.478V32.5l2.127-10.675-2.127-2.3Zm-14.423-1.577h0l10.676,2.127,2.3-2.128Zm18.3-2h0l-2.3,2.127h12.975l-10.676-2.127Zm-3.748-12.424-2.127,10.675,2.127,2.3V3.525Z" transform="translate(4096)" fill="#fff"/>
</svg>
