<?xml version="1.0" encoding="UTF-8" standalone="no"?>
<svg xmlns="http://www.w3.org/2000/svg" id="svg2" width="645.12" height="729.013" viewBox="0 0 645.12 729.013" fill="#ffffff">
  <defs id="defs6">
    <clipPath id="clipPath18">
      <path id="path16" d="M0 546.76h483.84V0H0z"/>
    </clipPath>
  </defs>
  <g id="g10" transform="matrix(1.33333 0 0 -1.33333 0 729.013)">
    <g id="g12">
      <g id="g14" clip-path="url(#clipPath18)">
        <g id="g20" transform="translate(116.508 138.133)">
          <path id="path22" d="M0 0c5.293-4.348 6.178-12.213 1.672-17.695-4.274-5.464-12.393-6.141-17.748-1.737-5.423 4.453-6.206 12.446-1.801 17.801C-13.478 3.723-5.485 4.506-.065.053z"/>
        </g>
        <g id="g24" transform="translate(92.505 161.374)">
          <path id="path26" d="M0 0c4.51-5.154 4.103-13.059-1.239-17.736-5.106-4.689-13.229-4.032-17.797 1.183-4.616 5.278-4.086 13.291 1.126 17.859C-12.69 5.873-4.682 5.338-.057.062z"/>
        </g>
        <g id="g28" transform="translate(72.572 188.28)">
          <path id="path30" d="M0 0c3.605-5.822 1.909-13.551-4.127-17.291-5.807-3.791-13.71-1.814-17.364 4.079-3.691 5.966-1.851 13.783 4.037 17.434C-11.557 7.871-3.739 6.037-.049.07z"/>
        </g>
        <g id="g32" transform="translate(57.397 217.932)">
          <path id="path34" d="M0 0c2.606-6.334-.338-13.682-6.903-16.382-6.347-2.785-13.826.461-16.46 6.876-2.667 6.488.432 13.898 6.843 16.532C-10.109 9.66-2.695 6.566-.028.077z"/>
        </g>
        <g id="g36" transform="translate(47.272 249.863)">
          <path id="path38" d="M0 0c1.517-6.676-2.603-13.438-9.527-15.007-6.72-1.701-13.555 2.74-15.089 9.502-1.558 6.838 2.724 13.637 9.486 15.174C-8.373 11.202-1.575 6.925-.021.081z"/>
        </g>
        <g id="g40" transform="translate(42.558 282.882)">
          <path id="path42" d="M0 0c.407-6.835-4.763-12.829-11.851-13.25-6.908-.575-12.92 4.927-13.331 11.847-.412 7.007 4.922 13.009 11.839 13.418C-6.419 12.422-.417 7.087-.005.086z"/>
        </g>
        <g id="g44" transform="translate(21.621 355.715)">
          <path id="path46" d="M0 0c5.065-1.432 10.44-3.91 14.942-7.006 2.757-1.912 5.204-3.992 7.184-6.202l3.326 11.742c.85 3-.91 6.151-3.91 6.999L2.478 10.931c-3 .848-6.142-.878-6.98-3.839-.839-2.961.929-6.079 3.929-6.93zm-12.355 25.645c.849 3 3.999 4.759 6.999 3.91l31.6-8.95c3-.849 5.953-.201 6.562 1.441.609 1.641 3.544 2.229 6.522 1.305l14.78-4.587c2.978-.924 4.719-4.136 3.87-7.136l-.165-.577c-.849-3-4.034-4.897-7.076-4.213l-3.79.851c-3.042.684-6.226-1.212-7.075-4.212l-6.286-22.196c-.849-3 .868-6.284 3.817-7.297l3.676-1.263c2.949-1.013 4.666-4.297 3.817-7.297l-.165-.582c-.85-3-4.012-4.806-7.028-4.013l-14.969 3.939c-3.016.793-5.274 2.593-5.019 4.002.256 1.407-1.357 4.344-3.583 6.527 0 0-2.677 2.625-6.571 5.117-4.413 2.81-9.372 4.91-14.754 6.436l-9.495 2.688c-3 .849-4.76 3.999-3.91 6.999z"/>
        </g>
        <g id="g48" transform="translate(62.903 418.64)">
          <path id="path50" d="M0 0c-1.554.983-5.894 2.248-8.658-2.128-2.594-4.095-2.036-4.817-2.036-4.817 1.904-2.469 4.827-2.332 6.493.302zm1.863-16.891c2.925-1.158 7.149 2.395 10.052 6.982 2.19 3.458 4.005 6.952 5.151 11.267L21.61-.418c2.905-1.136 4.489-4.49 3.521-7.453 0 0-1.825-5.59-4.639-10.035-8.213-12.989-19.844-15.908-30.855-8.94-6.846 4.331-15.431 16.382-6.366 30.707C-8.87 16.284 3.369 15.167 12.189 9.584l1.835-1.162c1.342-1.23 1.075-4.391-.592-7.026z"/>
        </g>
        <g id="g52" transform="translate(94.69 455.007)">
          <path id="path54" d="M0 0c1.583-1.717 3.08-4.2 4.332-6.794.929-1.867 1.72-4.322 2.103-6.468l4.861 4.484c2.292 2.114 2.437 5.718.323 8.009L6.733 4.524C4.618 6.815 1.562 7.468-.059 5.973-1.679 4.478-1.653 1.79 0 0m2.248 23.442c2.292 2.114 5.897 1.969 8.011-.323L23.07 9.232c2.115-2.292 4.698-3.457 5.741-2.588 1.043.868 3.575-.344 5.627-2.692l8.754-10.02c2.052-2.349 1.855-5.999-.437-8.115l-.319-.295c-2.292-2.113-5.953-2.021-8.134.207l-1.887 1.926c-2.182 2.229-5.842 2.321-8.134.207L13.094-22.46c-2.292-2.113-2.528-5.799-.525-8.188l1.741-2.077c2.002-2.389 1.767-6.075-.525-8.188l-.321-.297c-2.291-2.113-5.922-1.992-8.068.27l-9.039 9.529c-2.146 2.262-3.288 4.807-2.539 5.654.749.848.892 4.05.319 7.114 0 0-.173.92-1.587 3.934-1.746 3.612-4.033 7.075-6.749 10.023l-2.612 2.832c-2.114 2.291-1.969 5.896.323 8.009z"/>
        </g>
        <g id="g56" transform="translate(151.004 485.963)">
          <path id="path58" d="M0 0c-6.154-3.193-8.307-6.288-6.77-9.253 1.078-2.075 3.1-2.532 5.698-1.186 2.144 1.117 3.523 3.902 3.001 6.357l-.158.673L0 0m17.34-.412c2.002-3.854 4.07-7.295 5.285-8.734l-7.57-3.93c-2.767-1.436-5.562-1.998-6.21-1.248-.648.75-1.245 1.33-1.327 1.289-.082-.041-1.464-2.262-3.072-4.934 0 0-1.522-2.531-5.674-4.688-8.005-4.152-15.634-1.057-18.709 4.873-5.082 9.788 1.321 18.848 15.105 26.005-.063.121-1.207 1.347-2.542 2.725l-5.484-2.847c-4.078-2.116-7.867-6.06-9.547-8.624l-3.116 3.336c-2.128 2.278-2.267 6.127-.308 8.554 0 0 2.454 3.039 10.606 7.268 12.528 6.505 22.151-2.861 22.151-2.861 2.235-2.174 5.238-6.217 6.675-8.985z"/>
        </g>
        <g id="g60" transform="translate(250.243 510.998)">
          <path id="path62" d="M0 0c-.587 6.994-1.142 14.742-1.733 24.496-.137-.009-.781-2.511-1.431-5.56 0 0-2.468-11.58-4.21-18.793l-3.559-15.192c-.711-3.037-3.839-5.675-6.952-5.863l-1.267-.077c-3.113-.189-6.419 2.093-7.348 5.069l-2.853 9.133a610.326 610.326 0 0 0-3.257 10.86s-2.881 10.013-4.888 18.258c-.092-.007-.098-2.561-.013-5.679 0 0 .323-11.873.499-18.89l.315-15.311c.065-3.117-2.429-5.822-5.542-6.01l-3.518-.212c-3.113-.188-5.67 2.209-5.683 5.328l-.188 45.039c-.014 3.119 2.522 5.824 5.635 6.011l11.188.678c3.113.188 6.46-2.08 7.44-5.041l1.051-3.176c.979-2.961 2.53-7.821 3.446-10.801 0 0 2.502-8.138 4.182-15.148.182.012.809 2.526 1.393 5.59 0 0 1.923 10.09 3.333 15.783l2.193 8.774c.757 3.025 3.922 5.654 7.034 5.842l10.611.643c3.112.188 5.93-2.194 6.261-5.294l4.782-44.758a5.38 5.38 0 0 0-5.056-5.98l-4.355-.264c-3.112-.188-5.884 2.198-6.159 5.305z"/>
        </g>
        <g id="g64" transform="translate(300.961 491.567)">
          <path id="path66" d="M0 0c4.343-1.224 7.931 1.668 9.791 8.258 1.566 5.546.795 10.799-4.029 12.162-5.301 1.495-8.661-3.024-10.114-8.17-1.59-5.623.51-7.988.51-7.988C-2.528 1.939-1.825.545 0 0m-3.373-10.416C-15.671-6.94-23.951 3.381-20.276 16.402c3.405 12.055 14.383 18.672 29.578 14.387C22.4 27.09 29.122 16.165 25.765 4.27 21.952-9.232 4.44-11.181 4.44-11.181c-3.115-.148-7.77.754-7.813.765"/>
        </g>
        <g id="g68" transform="translate(351.623 479.997)">
          <path id="path70" d="M0 0c-.4-.64-.75-1.207-1.077-1.887-1.17-3.009-.321-6.871 2.803-8.808 4.187-2.594 8.803-1.326 11.968 3.789 2.773 4.472 3.018 9.627-1.673 12.526-3.054 1.893-7.217 1.032-9.493-1.688l-.375-.453C1.838 2.973.87 1.406 0 0m-9.29 14.984a306.71 306.71 0 0 1 7.23 12.319l6.757-4.181c2.652-1.642 4.305-4.101 3.676-5.468-.631-1.365-1.115-2.504-1.076-2.527.04-.025 2.614.166 5.722.426 0 0 5.12.426 10.373-2.824 6.961-4.311 12.054-15.122 4.494-27.34-8.042-12.993-20.925-13.172-29.02-8.164-4.404 2.728-6.891 6.33-7.12 9.123-.081.048-1.489-2.08-3.13-4.732l-4.404-7.118c-1.64-2.652-5.152-3.478-7.803-1.838l-3.78 2.34c-2.651 1.641-3.478 5.152-1.837 7.805z"/>
        </g>
        <g id="g72" transform="translate(396.118 432.62)">
          <path id="path74" d="M0 0c3.042-3.328 7.621-2.77 12.678 1.847 4.254 3.886 6.37 8.755 2.989 12.458-3.714 4.07-8.951 2.003-12.898-1.602-4.323-3.94-3.786-7.051-3.786-7.051C-1.11 2.963-.029.036 0 0m-8.361-7.067c-8.617 9.436-10.206 22.575-.215 31.698 9.257 8.445 22.074 8.274 32.718-3.381 9.179-10.057 9.126-22.881-.004-31.213C13.779-19.425-2.19-11.611-2.19-11.611c-2.725 1.516-6.141 4.509-6.171 4.544"/>
        </g>
        <g id="g76" transform="translate(429.187 407.46)">
          <path id="path78" d="M0 0c2.252 1.195 4.958.545 6.014-1.443 1.055-1.989 3.477-5.635 5.382-8.104 0 0 .781-1.014 2.106-.307 1.477.783 1.64 3.327-.55 7.458-1.957 3.691-5.138 6.828-8.286 8.841l2.518 2.72c2.118 2.288 5.753 2.46 8.078.382 0 0 6.392-5.715 9.369-11.322 3.365-6.346 7.292-17.311-1.194-21.81-5.017-2.662-9.588.963-12.042 3.629-.203-.107.259-2.669 1.025-5.69 0 0 1.29-5.087-4.468-8.142-9.959-5.28-18.248 6.958-21.85 13.747-3.091 5.827-5.089 12.801-4.607 19.016l4.217.614A5.63 5.63 0 0 0-7.906-5.21s.452-3.282 2.695-7.862c2.307-4.352 4.428-5.496 5.832-4.75 1.842.977 1.785 3.404-.841 8.346L-1.438-7.18C-2.899-4.425-2.252-1.193 0 0"/>
        </g>
        <g id="g80" transform="translate(452.79 342.091)">
          <path id="path82" d="M0 0c-1.656 6.728-4.161 9.555-7.402 8.759-2.272-.559-3.193-2.417-2.492-5.256.579-2.354 2.961-4.348 5.473-4.416l.685-.004L0 0m-4.486-16.757c-4.217-1.036-8.051-2.234-9.738-3.078l-2.033 8.281c-.744 3.029-.631 5.877.251 6.33.881.453 1.584.897 1.561.987-.022.09-1.856 1.956-4.074 4.147 0 0-2.1 2.075-3.213 6.618-2.153 8.76 2.655 15.444 9.143 17.039 10.705 2.629 18.004-5.725 21.711-20.81.135.034 1.597.857 3.251 1.831l-1.477 6.002c-1.092 4.462-4.034 9.069-6.133 11.308l3.975 2.241c2.716 1.531 6.491.759 8.388-1.715 0 0 2.375-3.099 4.569-12.021 3.367-13.707-7.997-20.851-7.997-20.851-2.64-1.66-7.278-3.627-10.305-4.371z"/>
        </g>
        <g id="g84" transform="translate(447.953 283.914)">
          <path id="path86" d="M0 0c.376 6.838 6.195 12.205 13.282 11.814 6.929-.216 12.28-6.366 11.896-13.287-.383-7.006-6.369-12.364-13.29-11.981C4.968-13.07-.391-7.088-.003-.082z"/>
        </g>
        <g id="g88" transform="translate(443.402 250.833)">
          <path id="path90" d="M0 0c1.493 6.686 8.111 11.028 15.04 9.478 6.802-1.35 11.067-8.291 9.559-15.056-1.53-6.848-8.311-11.153-15.073-9.641C2.757-13.709-1.546-6.928-.016-.081z"/>
        </g>
        <g id="g92" transform="translate(433.444 218.886)">
          <path id="path94" d="M0 0c2.577 6.345 9.824 9.53 16.402 6.858 6.484-2.454 9.543-10.011 6.932-16.434-2.638-6.496-10.04-9.619-16.459-7.009C.453-13.976-2.671-6.578-.032-.078z"/>
        </g>
        <g id="g96" transform="translate(418.368 189.068)">
          <path id="path98" d="M0 0c3.589 5.835 11.259 7.785 17.303 4.065 5.994-3.486 7.773-11.443 4.143-17.347-3.678-5.975-11.492-7.838-17.397-4.209C-1.856-13.857-3.715-6.048-.045-.069z"/>
        </g>
        <g id="g100" transform="translate(398.594 162.108)">
          <path id="path102" d="M0 0c4.494 5.167 12.38 5.84 17.735 1.178 5.342-4.42 5.791-12.56 1.244-17.787-4.605-5.298-12.618-5.857-17.846-1.309C-4.099-13.367-4.658-5.359-.057-.062z"/>
        </g>
        <g id="g104" transform="translate(374.728 138.786)">
          <path id="path106" d="M0 0c5.277 4.367 13.164 3.744 17.691-1.725 4.551-5.232 3.669-13.336-1.669-17.755-5.403-4.474-13.399-3.719-17.82 1.619C-6.219-12.523-5.464-4.527-.065-.054z"/>
        </g>
        <g id="g108" transform="translate(244.043 233.108)">
          <path id="path110" d="M0 0l.125.082L0 .08zm-3.694-1.271L-.949.513l-.566.87-2.277-1.477-.046 3.3-1.064-.121-.064-3.274-2.487 1.335-.542-.923 3.125-1.59-.003-.375c.383 0 .772.047 1.167.122zm16.651 153.175l-4.465 1.783c-.604-.605-.894-1.342-.894-2.228 0-.9.29-1.789.894-2.683zm-38.362-4.457c1.786 0 3.417 1.481 4.91 4.457l-6.248 1.342zm-3.703 22.168l.139.131c-.261 0-.278-.049-.139-.131M-.021-3.264L0 0c-1.279-.839-2.519-1.393-3.706-1.62l-.134-4.122zm117.116 2.122l-2.562 2.184-4.195-.949 3.002-3.097 3.566.68-.07-1.074-2.608-.522 1.891-1.951-.746-.723-1.89 1.949-.605-2.585-.9.127.615 3.377-3 3.097-1.081-4.163 2.106-2.63-.745-.723-1.773 2.286-.727-3.262-1.122.47.725 3.149-2.611-.862-.378 1.077 3.403.853 1.138 4.216-4.417-.836-.957-3.372-1.01.357.832 2.693-3.227-.568-.324 1.02 3.229.685-1.888 1.947.745.724L103.79.08l4.415.723-3.167 3.266-3.287-.625-.208 1.022 2.605.52-2.113 2.181.746.723 2.28-2.351.668 2.981.725-.516-.616-3.268 3.112-3.213 1.024 4.221-2.213 2.745.744.721 1.827-2.342.897 3.204 1.011-.353-.721-2.815 2.716.411.155-.848-3.291-1.077-1.08-4.163 4.192.95 1.013 3.43 1.073-.075-.555-2.983 2.778.691.094-1.133-3.004-.684 2.229-1.842zm-16.031-14.954l-.799-.66-2.378 2.383-4.258-.61 2.744-3.329 3.609.392-.156-1.064-2.642-.311 1.729-2.097-.802-.66-1.727 2.095-.811-2.53-.887.2.885 3.316-2.742 3.328-1.412-4.062 1.888-2.791-.801-.66-1.584 2.419-.986-3.193-1.08.559.975 3.081-2.671-.65-.291 1.104 3.461.577 1.472 4.111-4.47-.478-1.225-3.285-.977.436 1.045 2.619-3.262-.308-.242 1.043 3.274.423-1.726 2.094.801.66 2.083-2.527 4.459.366-2.895 3.511-3.326-.359-.125 1.034 2.638.311-1.932 2.343.802.66 2.084-2.527.905 2.918.681-.572-.875-3.207 2.844-3.452 1.359 4.124-1.986 2.914.799.659 1.633-2.481 1.152 3.123.979-.435-.944-2.747 2.74.191.087-.858-3.368-.81-1.411-4.062 4.256.61 1.284 3.338 1.064-.161-.792-2.929 2.824.466.004-1.136-3.05-.442zM84.326-27.745l-3.08-.091 1.83-2.238-.87-.565-2.09 2.64-4.3-.12 2.345-3.619 3.631-.024-.277-1.04-2.66-.007 1.477-2.279-.872-.565-1.476 2.278-1.095-2.421-.858.3 1.259 3.194-2.344 3.62-1.867-3.875 1.556-2.988-.871-.564-1.297 2.585-1.344-3.06-1.01.679 1.321 2.949-2.728-.341-.162 1.131 3.503.178 1.933 3.915-4.495.036-1.592-3.123-.921.545 1.337 2.482-3.275.067-.121 1.065 3.3.044-1.474 2.278.87.565 1.781-2.748 4.471-.148-2.474 3.821-3.345.022-.006 1.042 2.655.007-1.65 2.549.872.563 1.781-2.748 1.233 2.796.611-.646-1.237-3.087 2.431-3.754 1.822 3.941-1.639 3.122.869.564 1.339-2.653 1.501 2.971.923-.543-1.253-2.621 2.745-.123-.013-.863-3.438-.42-1.866-3.874 4.298.12 1.657 3.169 1.039-.282-1.122-2.819 2.859.141zM64.98-39.932l-3.061.358 1.486-2.481-.943-.433-1.685 2.916-4.271.506 1.795-3.922 3.588-.551-.425-.988-2.632.38 1.129-2.47-.944-.433-1.129 2.468-1.435-2.235-.807.421 1.71 2.977-1.794 3.921-2.409-3.562 1.106-3.182-.944-.432-.907 2.745-1.775-2.831-.901.817 1.736 2.726-2.749.06.003 1.142 3.492-.333 2.481 3.593-4.442.689-2.028-2.859-.833.673 1.684 2.262-3.231.542.035 1.07 3.272-.435-1.129 2.468.944.432 1.363-2.977 4.402-.796-1.893 4.139-3.306.509.144 1.032 2.63-.38-1.263 2.762.944.431 1.363-2.977 1.626 2.586.511-.728-1.673-2.874 1.861-4.068 2.375 3.636-1.169 3.327.942.431.939-2.819 1.917 2.722.835-.672-1.62-2.411 2.697-.521-.137-.851-3.463.084-2.409-3.563 4.27-.505 2.1 2.894.987-.429-1.52-2.626 2.849-.277zM37.486 64.316C33.176 53.105 14.286 9.55.125.082L1.04.09l.009-2.659L3.597-.916l.564-.871L1.414-3.57 4.211-4.8l-.647-.612L.478-4.178l-3.752-2.435L.669-8.432 3.79-6.789l.564-.869-2.652-1.34 2.972-1.498-.543-.925-2.619 1.251-.122-2.745-.864.012-.425 3.436-3.873 1.864.124-4.297 3.169-1.656-.28-1.038-2.819 1.12.141-2.859-1.126.125-.097 3.08-2.236-1.832-.565.869 2.64 2.094-.125 4.3-3.618-2.35-.022-3.631-1.039.278-.009 2.659-2.275-1.478-.567.869 2.277 1.478-2.425 1.094.301.86 3.194-1.259 3.617 2.35-3.875 1.863-2.986-1.558-.565.87 2.582 1.298-3.06 1.341.676 1.011 2.951-1.319-.341 2.727 1.131.165.179-3.503 3.916-1.928.031 4.118-.011-.001c-12.202 0-33.709 48.618-39.521 63.638-5.81 15.019-10.887 28.159-10.887 40.054v16.952c2.083-2.985 3.273-6.85 3.576-11.597.88-.903 3.331-2.313 7.348-4.246 4.013-1.933 6.468-2.892 7.369-2.892 10.995 0 18.282 3.716 21.846 11.154 3.564-3.275 6.692-4.906 9.375-4.906 1.179 0 3.862 1.18 8.03 3.565.293-.303 3.417-2.385 9.364-6.249 2.96-2.384 6.687-3.564 11.153-3.564 7.132 0 12.034 1.783 14.717 5.355 1.182 1.485 3.116 6.679 5.8 15.61 1.484-2.682 2.226-6.246 2.226-10.703 0-14.579-3.181-33.51-8.026-46.112M43.467-49.08l-2.958.86 1.053-2.692-1.001-.271-1.179 3.156-4.128 1.207 1.12-4.166 3.447-1.139-.582-.903-2.533.811.704-2.623-1.003-.27-.704 2.622-1.786-1.968-.726.55 2.181 2.652-1.12 4.164-2.966-3.113.562-3.322-1.002-.27-.439 2.858-2.22-2.498-.753.956 2.164 2.401-2.701.514.192 1.126 3.389-.908 3.042 3.132-4.266 1.416-2.474-2.482-.71.801 2.035 1.952-3.096 1.07.212 1.049 3.155-.971-.704 2.62 1.002.271.851-3.162 4.209-1.514-1.18 4.394-3.177 1.051.313.992 2.531-.809-.787 2.932 1.003.27.85-3.164 2.032 2.281.383-.803-2.125-2.556 1.16-4.32 2.945 3.192-.602 3.475 1.001.268.459-2.935 2.341 2.367.712-.802-1.998-2.108 2.574-.961-.277-.818-3.4.656-2.966-3.112 4.126-1.207 2.551 2.506.902-.586-1.934-2.338 2.764-.746zm-24.182-5.647l-2.77 1.352.58-2.833-1.033-.096-.624 3.31-3.861 1.892.393-4.294 3.203-1.71-.728-.791-2.358 1.23.247-2.704-1.034-.095-.247 2.702-2.095-1.634-.622.665 2.601 2.243-.394 4.294-3.453-2.563-.012-3.368-1.034-.096.054 2.891-2.612-2.083-.58 1.069 2.542 1.997-2.574.968.382 1.076 3.183-1.471 3.532 2.568-3.962 2.122-2.862-2.025-.563.91 2.338 1.577-2.868 1.582.388.998 2.943-1.495-.247 2.703 1.034.095.299-3.261 3.89-2.209-.415 4.532-2.95 1.575.477.926 2.356-1.228-.277 3.023 1.034.094.299-3.262 2.391 1.903.241-.857-2.53-2.157.407-4.455 3.446 2.643-.001 3.527 1.032.094-.048-2.97 2.71 1.932.565-.911-2.327-1.737 2.373-1.385-.413-.758-3.238 1.225-3.454-2.562 3.86-1.891 2.941 2.035.789-.731-2.304-1.975 2.596-1.205zM1.39-34.639l-.864.012-.425 3.437-3.873 1.864.124-4.297 3.169-1.656-.28-1.039-2.819 1.121.141-2.861-1.126.126-.097 3.079-2.236-1.831-.565.87 2.64 2.093-.125 4.299-3.618-2.349-.022-3.629-1.039.275-.009 2.66-2.275-1.477-.567.868 2.277 1.478-2.425 1.094.301.86 3.194-1.258 3.617 2.349-3.875 1.863-2.986-1.558-.565.869 2.582 1.298-3.06 1.343.676 1.009 2.951-1.318-.341 2.728 1.131.165.179-3.503 3.916-1.929.034 4.494-3.125 1.589.542.923 2.487-1.335.064 3.273 1.064.122.046-3.299 2.277 1.475.566-.869-2.745-1.783-.146-4.472 3.819 2.478L0-21.643l1.04.008.009-2.658 2.548 1.652.564-.871-2.747-1.782 2.797-1.229-.647-.613L.478-25.9l-3.752-2.436 3.943-1.819 3.121 1.643.564-.87-2.652-1.34 2.972-1.499-.543-.925-2.619 1.251zm-8.341-14.824l-.52-.687-3.021 1.691-3.796-2.02 3.538-2.445 3.21 1.576.672-.84-2.572-1.61 2.389-1.577-.769-.836-2.538 1.747.152-2.887-1.035.058-.125 3.366-3.539 2.445-.248-4.307 2.913-2.165-.837-.674-2.149 1.566-.156-2.709-1.037.058.156 2.709-2.315-1.305-.516.749 2.905 1.832.248 4.305-3.796-2.02-.511-3.33-1.036.058.482 2.852-2.892-1.673-.415 1.143 2.81 1.598-2.402 1.338.537 1.009 2.931-1.928 3.872 2.016-3.602 2.686-3.131-1.578-.422.983 2.546 1.213-2.602 1.99.532.929 2.688-1.914.158 2.709 1.036-.059-.188-3.269 3.518-2.762.263 4.543-2.684 1.996.609.844 2.147-1.564.176 3.031 1.037-.061-.189-3.269 2.647 1.526.111-.883-2.823-1.758-.257-4.465 3.799 2.102.523 3.488 1.035-.06-.489-2.931 2.967 1.509.424-.984-2.559-1.372zm-24.829 1.966l-.618-.603-2.73 2.132-4.058-1.421 3.125-2.952 3.413 1.07.536-.932-2.786-1.201 2.122-1.922-.887-.709-2.244 2.112-.287-2.877-1.015.215.387 3.347-3.127 2.951-.899-4.218 2.552-2.583-.93-.539-1.887 1.875-.566-2.654-1.015.215.566 2.654-2.487-.94-.396.82 3.149 1.37.898 4.217-4.058-1.421-1.01-3.214-1.016.216.909 2.744-3.112-1.214-.237 1.192 3.02 1.154-2.171 1.687.684.916 2.604-2.351 4.134 1.404-3.153 3.203-3.334-1.085-.268 1.036 2.701.813-2.27 2.361.667.838 2.366-2.301.567 2.654 1.015-.214-.682-3.203 3.059-3.265.949 4.452-2.349 2.38.73.741 1.884-1.873.634 2.971 1.015-.218-.683-3.204 2.848 1.108-.024-.889-3.056-1.31-.933-4.375 4.075 1.502 1.046 3.368 1.014-.216-.928-2.822 3.161 1.04.27-1.037-2.738-.968zm-21.973 5.165l-.718-.481-2.297 2.59-4.249-.66 2.538-3.47 3.55.434.359-1.015-2.958-.675 1.737-2.276-.999-.535-1.824 2.482-.803-2.777-.96.397.987 3.22-2.54 3.47-1.648-3.985 2.04-3.002-1.012-.362-1.515 2.186-1.038-2.508-.96.395 1.038 2.508-2.616-.473-.24.877 3.344.776 1.648 3.986-4.249-.663-1.576-2.977-.959.395 1.391 2.536-3.281-.631-.016 1.216 3.179.586-1.829 2.053.839.777 2.134-2.783 4.319.631-2.52 3.721-3.475-.463-.076 1.068 2.804.31-1.803 2.733.807.703 1.909-2.691 1.04 2.508.958-.397-1.25-3.025 2.416-3.766 1.741 4.206-1.88 2.767.852.598 1.515-2.184 1.162 2.805.958-.398-1.253-3.026 3.002.572-.185-.869-3.243-.734-1.71-4.134 4.279.739 1.64 3.121.957-.395-1.424-2.607 3.299.449.075-1.068-2.867-.455zm-20.21 8.159l-1.727 3.002-4.294.211 1.784-3.911 3.564-.293.146-1.066-3.033-.064 1.241-2.579-1.087-.323-1.285 2.801-1.347-2.557-.859.581 1.617 2.955-1.786 3.912-2.42-3.57 1.391-3.353-1.064-.149-1.043 2.446-1.523-2.245-.859.58 1.523 2.246-2.658.066-.058.909 3.433.083 2.419 3.569-4.294.211-2.146-2.597-.859.582 1.874 2.201-3.34.046.23 1.194 3.232-.068-1.376 2.379.979.592 1.526-3.157 4.358-.255-1.715 4.153-3.497.25.142 1.061 2.809-.264-1.215 3.042.934.525 1.325-3.022 1.525 2.246.859-.583-1.837-2.71 1.605-4.175 2.556 3.767-1.282 3.09.955.412 1.042-2.444 1.706 2.511.857-.583-1.838-2.711 3.055-.045-.357-.815-3.325-.062-2.51-3.703 4.34-.142 2.237 2.725.858-.581-1.922-2.264 3.321-.227-.142-1.062-2.9.134.955-2.577zm-21.336 12.454l3.427-1.021-.077-1.073-2.981.561.684-2.779-1.129-.092-.681 3.006-1.846-2.225-.722.744 2.193 2.559-.943 4.197-3.104-2.996.671-3.566-1.072.072-.516 2.609-1.952-1.882-.722.744 1.953 1.883-2.588.613.13.901 3.377-.626 3.102 2.994-4.158 1.092-2.635-2.1-.721.747 2.287 1.767-3.259.733.471 1.121 3.149-.733-.856 2.614 1.079.376.844-3.404 4.211-1.146-.821 4.418-3.371.964.356 1.008 2.695-.836-.561 3.227 1.02.321.675-3.23 1.955 1.884.72-.747-2.355-2.273.71-4.418 3.277 3.16L-94-9.264l1.019.208.516-2.608 2.186 2.109.719-.748-2.357-2.275 2.98-.674-.518-.724-3.265.624-3.219-3.107 4.218-1.031 2.75 2.207.72-.746-2.348-1.821 3.203-.905-.357-1.012-2.81.73.404-2.719-.85-.152-1.072 3.293-4.158 1.09zm-14.222 12.464l-1.127.125-.096 3.08-2.236-1.832-.566.869 2.64 2.094-.126 4.299-3.617-2.349-.021-3.63-1.039.277-.009 2.659-2.276-1.477-.566.869 2.275 1.477-2.423 1.094.299.86 3.196-1.258 3.616 2.349-3.874 1.863-2.987-1.558-.565.87 2.582 1.298-3.059 1.341.674 1.01 2.952-1.318-.341 2.727 1.132.165.178-3.503 3.916-1.928.034 4.493-3.125 1.59.542.923 2.488-1.335.063 3.274 1.064.121.046-3.3 2.278 1.477.565-.871-2.745-1.782-.146-4.472 3.82 2.477.021 3.345 1.04.01.008-2.658 2.548 1.652.565-.872-2.748-1.782 2.796-1.23-.645-.612-3.088 1.235-3.751-2.436 3.943-1.819 3.121 1.643.564-.869-2.651-1.339 2.972-1.499-.545-.925-2.618 1.251-.122-2.745-.863.012-.425 3.436-3.874 1.865.123-4.297 3.17-1.657-.28-1.039-2.82 1.121zm17.212 65.713l-1.333 7.128h2.223l1.34-7.128zm-3.124-7.14l-4.008 6.248 1.334 1.332 4.465-6.687zm-9.363 12.046c-3.279 0-6.1 4.005-8.474 12.034-2.08 6.541-3.124 12.04-3.124 16.504 0 5.649 1.787 10.264 5.351 13.828 5.945-3.274 10.252-6.099 12.936-8.473-1.191.592-2.383.892-3.565.892-5.057 0-7.581-3.124-7.581-9.362 0-3.867 5.795-9.221 17.393-16.06-4.168-6.247-8.483-9.363-12.936-9.363m2.231-12.046h-2.231v6.687h2.231zm-5.355-6.248l-2.675 5.359 1.342.44 3.111-5.799zm24.089 17.401h-1.791l-2.674 6.692 1.782.441zm-4.465 27.197c2.674-2.383 4.013-4.454 4.013-6.236 0-4.168-2.231-6.239-6.689-6.239-3.571 0-8.78 3.413-15.61 10.252l1.333 5.799h10.265c1.782 0 4.005-1.19 6.688-3.576m6.248-12.928h2.226v-6.688h-2.226zm-.89 50.397c0 3.865 2.675 6.7 8.018 8.481 6.541 2.373 10.256 4.005 11.157 4.906 1.182-1.19 1.782-2.822 1.782-4.906 0-2.985-1.04-5.065-3.128-6.247-3.27-1.492-5.505-2.973-6.687-4.457 1.786-2.084 3.718-3.124 5.798-3.124 3.564 0 6.541 1.333 8.924 4.017-2.085-6.851-5.947-10.264-11.599-10.264-9.51 0-14.265 3.865-14.265 11.594m17.829 27.217c1.484 0 3.197-.971 5.13-2.904 1.934-1.933 2.905-3.646 2.905-5.126v-5.8c-4.757 5.049-7.582 7.581-8.476 7.581-2.078 0-5.203-2.084-9.37-6.247-1.191.297-1.778 1.493-1.778 3.573 0 5.948 3.861 8.923 11.589 8.923m-14.265-48.624c0 4.756 6.24 7.578 18.735 8.479l3.565-16.06c-4.169 5.947-7.88 8.923-11.146 8.923-2.385 0-3.576-1.492-3.576-4.457v-1.79c-5.057 1.191-7.578 2.821-7.578 4.905m12.047-11.144c.881 0 2.141.22 3.785.66 1.63.441 2.74.669 3.343.669 1.48 0 2.973-2.08 4.466-6.235-1.191 0-2.827.371-4.906 1.109-2.084.742-3.728 1.113-4.911 1.113-4.46 0-8.478-1.191-12.041-3.564l-2.672 4.014v7.139c5.045-3.274 9.36-4.905 12.936-4.905m-2.116 79.051c2.968 0 6.015-1.274 9.138-3.793 3.124-2.524-2.891-12.707-2.891-12.707v6.248c0 1.181-.906 1.781-2.683 1.781-2.084 0-4.16-1.189-6.24-3.576-2.083-2.383-2.977-4.606-2.675-6.688v-.888c-3.27 3.261-4.906 6.084-4.906 8.468 0 7.43 3.413 11.155 10.257 11.155m11.48 20.408c2.967 0 6.014-1.274 9.138-3.793 3.123-2.524 4.685-5.131 4.685-7.801 0-1.783-1.272-3.716-3.792-5.8-2.524-2.083-4.69-3.124-6.468-3.124h-.44l3.124 4.018v6.247c0 1.183-.906 1.782-2.684 1.782-2.084 0-4.16-1.19-6.239-3.576-2.084-2.383-2.977-4.605-2.675-6.688v-.889c-3.271 3.263-4.906 6.084-4.906 8.47 0 7.429 3.413 11.154 10.257 11.154m24.088 12.486c4.747 0 7.572-3.274 8.47-9.81 1.485-9.818 2.373-14.873 2.676-15.163 3.262-4.465 5.945-7.59 8.029-9.371-4.164 1.48-7.288 4.456-9.371 8.922l-6.24 13.388h-5.354l-.894-3.577c0-2.381 1.191-4.456 3.577-6.239h-1.346c-2.381 0-4.836 1.182-7.356 3.564-2.537 2.374-3.793 4.759-3.793 7.142 0 7.429 3.862 11.144 11.602 11.144m25.867 6.247c7.425 0 11.149-4.314 11.149-12.934 0-4.465-1.04-7.582-3.124-9.364h-7.136c3.564 3.866 5.358 6.39 5.358 7.581 0 .591-.232 1.631-.673 3.111-.452 1.485-.672 2.676-.672 3.577l-.441.448h-2.231c-5.056 0-7.58-2.381-7.58-7.136 0-2.083 1.031-5.358 3.115-9.816 2.08-4.465 3.124-7.727 3.124-9.811 0-2.381-.751-4.604-2.235-6.688-7.43 12.184-11.141 20.508-11.141 24.975 0 10.703 4.152 16.057 12.487 16.057m24.529-3.564c2.374 0 5.045-1.941 8.021-5.807 2.973-3.866 4.465-6.989 4.465-9.362 0-2.382-.974-5.057-2.903-8.03-1.933-2.974-4.086-4.457-6.459-4.457-2.084 0-3.874.143-5.355.44 2.381 2.084 4.461 4.017 6.248 5.799v11.606l-4.47.889c-2.381-1.19-3.564-3.124-3.564-5.795 0-2.684 1.334-5.057 4.017-7.142-2.084-.3-4.245 1.034-6.468 4.006-2.234 2.973-3.347 5.657-3.347 8.042 0 6.537 3.265 9.811 9.815 9.811m23.192-9.811c5.346 0 8.029-4.169 8.029-12.5 0-3.563-1.121-6.985-3.344-10.252-2.234-3.274-3.645-6.095-4.237-8.469l-3.572 1.328v8.924c.599.301 3.124 3.714 7.584 10.264l-2.23 1.782c-2.683-1.492-5.354-4.917-8.029-10.264-2.684-6.248-4.617-9.812-5.799-10.706 1.484 19.93 5.35 29.893 11.598 29.893M4.474 153.246c1.481 1.782 3.276 2.671 5.359 2.671 2.084 0 3.862-.889 5.346-2.671v-5.799c-1.484-1.795-3.262-2.683-5.346-2.683-2.083 0-3.878.888-5.359 2.683zm28.999 8.919c-1.492 0-3.275-.298-5.358-.889 1.182 3.262 2.822 4.906 4.91 4.906 1.778 0 3.633-.821 5.562-2.455 1.933-1.639 2.904-3.353 2.904-5.134 0-2.386-1.338-4.906-4.005-7.582h-4.461l-2.675 4.906h5.346c.591 1.183.893 2.974.893 5.359-.893.591-1.933.889-3.116.889M.017 171.078c.294 1.482.441 2.672.441 3.573 0 2.964-1.191 4.747-3.564 5.347 1.484 3.865 3.564 5.799 6.247 5.799 2.076 0 4.16-1.342 6.239-4.005-3.865-4.767-6.989-8.331-9.363-10.714m16.051 1.343c2.085 0 3.418.737 4.017 2.23 1.783-3.274 2.684-5.505 2.684-6.687 0-2.085-.298-4.017-.894-5.799-2.98 5.937-5.354 8.913-7.136 8.913-1.191 0-4.168-1.193-8.923-3.568 1.485 3.568 4.168 6.391 8.034 8.474-.603-2.384.139-3.563 2.218-3.563m-47.72-.894c.889 0 1.782-.15 2.683-.449l-.448 3.125c2.674 0 5.945-2.385 9.811-7.133-5.856 1.403-8.997 2.243-9.502 2.545l-8.784-8.339c-.297 2.662-.449 4.894-.449 6.688 0 1.182.29 2.223.889 3.114-.599.299 1.334.449 5.8.449M.017 150.118c-2.08.591-4.315.893-6.688.893-2.381 0-4.918-.302-7.589-.893-.893 5.649-4.017 8.475-9.359 8.475-6.251 0-9.363-2.978-9.363-8.923 0-6.55 3.711-9.812 11.141-9.812h-7.576c.888 0-3.565-1.644-13.376-4.906-1.795 1.782-2.684 3.862-2.684 6.247 0 6.537 5.195 12.488 15.607 17.842 9.212 4.755 17.543 7.141 24.986 7.141 6.235 0 14.486-2.533 24.749-7.589 10.256-5.057 15.391-10.265 15.391-15.611 0-1.191-.6-2.827-1.791-4.906-1.19-2.085-2.385-3.124-3.564-3.124-1.786 0-4.539.661-8.254 2.002-3.727 1.342-6.468 2.011-8.249 2.011-1.782 0-3.565-.449-5.347-1.329 7.43 5.643 11.141 9.949 11.141 12.923 0 6.252-3.124 9.375-9.359 9.375-5.057 0-8.332-3.275-9.816-9.816m-23.636-5.354c-2.088 0-4.016.888-5.798 2.683v5.799c1.782 1.782 3.71 2.671 5.798 2.671 2.079 0 3.862-.889 5.355-2.671v-5.799c-1.493-1.795-3.276-2.683-5.355-2.683m-15.61 12.495c-3.577-2.382-6.55-3.572-8.923-3.572-5.057 0-7.581 2.52-7.581 7.589 0 2.373 3.111 5.195 9.358 8.47-1.19-6.55 1.196-10.705 7.146-12.487m10.26-29.888c-.302-.303-3.271-2.234-8.923-5.799-3.866-2.683-6.99-4.013-9.371-4.013-2.683 0-5.057 1.783-7.137 5.355l1.79 3.123c1.782-1.492 3.715-2.23 5.796-2.23 5.651 0 10.255 1.782 13.832 5.346l-3.577.449c-.893 0-1.933-.379-3.123-1.122-1.195-.738-2.231-1.109-3.111-1.109h-8.923c.288 5.045.88 8.318 1.778 9.812 2.087-4.163 4.759-6.24 8.033-6.24 1.183 0 3.193 1.033 6.019 3.116 2.822 2.084 4.824 3.124 6.016 3.124 3.266 0 6.239-2.312 8.922-6.921 2.671-4.604 4.016-8.69 4.016-12.254 0-3.576-2.165-6.848-6.466-9.824-4.32-2.973-8.402-4.454-12.267-4.454-5.351 0-9.812 1.783-13.38 5.355v4.458c11.895 3.262 18.885 7.279 20.964 12.046zm31.662-2.676c-1.782-9.81-4.609-14.716-8.471-14.716-2.385 0-5.215 1.781-8.482 5.346v7.14c2.671-1.492 5.208-2.235 7.589-2.235 3.267 0 6.391 1.485 9.364 4.465m-9.812.442c-7.43 0-11.145 3.715-11.145 11.157 0 7.427 3.715 11.153 11.145 11.153s11.153-3.726 11.153-11.153c0-7.442-3.723-11.157-11.153-11.157m36.58-1.783l10.7.453v-4.906c-1.493-.901-3.274-1.342-5.358-1.342-1.48 0-7.728 3.263-18.735 9.812v.448c-.297 0-.44-.751-.44-2.23 0-4.767 7.283-8.784 21.858-12.046-.298-6.55-4.914-9.813-13.825-9.813-12.197 0-18.293 4.756-18.293 14.278 0 3.564 1.182 7.5 3.564 11.814 2.381 4.307 5.203 6.472 8.482 6.472 1.179 0 3.344-.893 6.468-2.676 3.124-1.781 5.277-2.675 6.468-2.675 3.564 0 5.786 2.525 6.688 7.581l3.123-4.016v-5.355c-3.572-2.085-6.247-3.116-8.03-3.116-.901 0-3.723 1.334-8.47 4.005l-1.786-.889c1.485-3.274 4.009-5.208 7.586-5.799m27.2 51.297c7.431 0 11.157-5.207 11.157-15.61 0-2.382-1.712-4.914-5.138-7.589-3.426-2.676-6.468-4.005-9.143-4.005-.889 0-1.411.22-1.558.66-.155.441-.521.669-1.113.669-2.386 0-6.096-1.782-11.153-5.345l-1.786 3.563a256.839 256.839 0 0 0 14.281 3.124c6.239 2.084 9.363 5.058 9.363 8.923 0 1.184-1.643 3.564-4.91 7.141h-4.013l-.44-2.684c0-2.385 1.031-4.314 3.115-5.799-.892-1.191-2.373-1.782-4.457-1.782-3.576 0-5.354 2.373-5.354 7.141 0 7.728 3.711 11.593 11.149 11.593m12.487-42.375c0-4.163-2.08-6.239-6.235-6.239-.6 0-1.946.29-4.018.894-1.492.59-2.683.59-3.572 0-1.191-.604-1.631-2.084-1.333-4.466l-3.577 1.342v5.346c0 3.867 2.525 5.799 7.593 5.799 1.183 0 3.565-1.194 7.129-3.568v5.358c-2.977 2.965-6.101 4.457-9.363 4.457-3.866 0-7.589-2.536-11.153-7.581-1.195.29-1.783 1.482-1.783 3.565 0 2.084 1.562 3.866 4.686 5.346 3.124 1.485 5.868 2.235 8.25 2.235 8.915 0 13.376-4.168 13.376-12.488m-20.953-9.811c1.179-2.385 3.112-3.564 5.795-3.564 1.782 0 4.457.889 8.022 2.671l.901-5.345c-1.795-2.382-3.724-3.578-5.812-3.578-3.564 0-6.533 3.267-8.906 9.816m13.376-18.735c-2.985 0-7.14 2.232-12.487 6.698 4.155-1.199 7.128-1.791 8.922-1.791 2.072 0 5.637 1.631 10.702 4.906l.44-2.676c0-4.762-2.528-7.137-7.577-7.137m-7.361-7.139c-2.533 2.083-4.686 2.972-6.468 2.682l3.124.441c2.964 0 5.717-1.273 8.25-3.797 2.524-2.52 3.797-5.276 3.797-8.237 0-5.95-2.533-8.923-7.59-8.923-3.279 0-5.799 2.223-7.581 6.688 6.84-.599 10.264 1.191 10.264 5.359 0 1.782-1.271 3.702-3.796 5.787m15.831 3.123c0-3.275-1.493-6.097-4.457-8.47-.897 3.865-1.791 6.688-2.671 8.47zm1.782-12.487h1.795l-3.124-7.128-1.786.44zm6.696-5.795v-7.58l-3.124 1.781zm6.24 33.453c2.083-7.733 3.123-13.678 3.123-17.846 0-5.644-2.381-8.768-7.136-9.359-3.564 2.08-5.351 4.906-5.351 8.469 0 5.947 3.116 12.185 9.364 18.736m13.387 6.246c2.076 0 3.777-2.451 5.119-7.36 1.341-4.906 2.015-8.849 2.015-11.822 0-11.007-3.125-18.735-9.364-23.192l-10.705 6.688c3.862 3.866 5.795 9.514 5.795 16.952 0 8.613-.147 12.625-.448 12.035.888 4.469 3.425 6.699 7.588 6.699m7.582-54.861l-1.782-4.906-1.791.441 1.791 4.465zm-8.923.893v5.347l4.457-1.783zm-6.247-1.782l-1.783 4.454 3.565 2.675c-.894-1.783-1.481-4.168-1.782-7.129m-8.018 8.91l3.564 4.466c.881-.599 1.33-1.782 1.33-3.564-1.485 0-3.116-.302-4.894-.902m32.543-58.184c-4.608 7.883-31.214 25.629-31.214 27.412 0 7.731 3.565 11.597 10.701 11.597 11.899 0 17.846 2.974 17.846 8.923l-7.136 14.266c2.381 11.295 3.572 21.258 3.572 29.891 0 12.777-3.572 19.175-10.706 19.175-2.381 0-6.259-3.275-11.602-9.812-5.949-2.385-10.255-4.456-12.926-6.239-1.493 3.866-2.097 7.728-1.795 11.594l.449 8.029c.301 4.458.301 7.581 0 9.364-.898 2.964-2.382 4.746-4.454 5.345 0 2.084.661 4.907 2.003 8.475 1.333 3.564 2.002 6.398 2.002 8.478 0 5.346-2.234 9.514-6.688 12.488-5.946 3.865-9.225 6.096-9.812 6.699-1.786 5.044-2.976 8.608-3.564 10.692-.603 2.084-3.866 5.277-9.816 9.592-5.949 4.307-9.668 8.401-11.153 12.267-13.091 30.622-67.499 18.436-79.382-6.236-1.795-3.867-4.617-6.838-8.482-8.922-6.248-3.867-9.666-5.951-10.253-6.247-1.795-1.783-3.136-4.76-4.017-8.923 0-.599-.298-3.867-.893-9.812-3.27-2.385-5.946-3.866-8.026-4.457-2.977-2.084-4.758-5.208-5.359-9.372-.892-5.949-1.63-9.665-2.226-11.144.294-8.031.441-14.731.441-20.077 0-5.647-.147-8.923-.441-9.811.294-.893 1.403-2.757 3.336-5.579 1.933-2.823 2.903-4.687 2.903-5.567 0-3.866-1.933-9.074-5.798-15.61-12.785 9.811-20.366 14.718-22.748 14.718-6.838 0-10.252-5.947-10.252-17.842 0-5.358 1.632-11.827 4.906-19.407 3.262-7.589 4.906-12.117 4.906-13.597 0-1.794-.522-4.478-1.562-8.042-1.04-3.563-1.562-6.238-1.562-8.02 2.374-2.684 4.454-4.014 6.248-4.014 1.183 0 3.042 1.182 5.566 3.565 2.525 2.381 4.087 3.714 4.686 4.012 4.457-4.755 6.688-9.061 6.688-12.923 0-1.795-22.519-11.386-27.425-18.073-4.905-6.692-7.36-12.116-7.36-16.272 0-14.861 10.255-27.947 30.78-39.251 5.351-2.977 22.14-10.114 50.396-21.411 0 0 .433-1.352 0-5.798-.423-4.444-20.157.049-30.316-4.249-10.158-4.298-9.575-8.51-9.575-14.456 0-2.385 1.958-7.618 13.483-8.499 11.524-.881 49.62-.097 49.62-.097 5.049 0 18.604 3.469 18.604 10.007 0 2.083.743 4.742.155 8.747-.603 4.025-.937 6.468-.937 8.547 0 4.759.391 5.134 3.074 5.738 1.436-3.36 3.206-5.636 3.488-11.312-.12-.824-.249-1.721-.397-2.72-.595-4.005.148-6.664.148-8.748 0-6.537 13.559-10.007 18.603-10.007 0 0 38.097-.784 49.625.098 11.529.881 13.479 6.113 13.479 8.498 0 5.947.587 10.159-9.572 14.457-7.165 3.031-22.735.428-25.622 2.202-2.887 1.774-3.759 6.208-3.759 9.375 0 1.783 2.972 3.577 8.922 5.359 10.693 2.973 24.37 10.851 41.033 23.629 18.726 14.28 28.097 25.715 28.097 34.344 0 2.674-4.326 7.084-8.93 14.963"/>
        </g>
        <g id="g112" transform="translate(414.935 43.726)">
          <path id="path114" d="M0 0l12.853 33.525h1.59L27.697 0zm67.05-36.964c-2.254 1.057-4.506 3.18-5.963 5.035-1.726 2.114-2.916 4.895-4.242 7.678L22.127 52.472c-.793 1.854-1.985 4.238-4.372 4.238-1.985 0-3.175-1.456-4.105-3.71l-30.342-71.289c-3.053-7.149-4.643-10.33-7.292-13.51-1.456-1.855-3.179-3.581-5.828-4.638-1.196-.527-2.917-1.197-2.917-2.523 0-.787.53-1.716 2.521-1.716 12.453.13 5.562 1.058 13.379 1.058 1.72 0 3.58-.129 5.302-.269 3.047-.259 5.963-.789 9.008-.789 3.846 0 3.709 1.456 3.181 2.255-.662.787-2.382 1.057-3.845 1.714-1.456.529-3.838 2.126-4.765 3.581-2.519 3.71-.399 10.6.264 12.196l5.301 14.309h32.596L37.5-23.184c.797-1.856 1.59-4.508 1.59-6.103 0-5.423-4.373-6.891-7.155-7.818-.793-.259-1.856-.659-1.856-1.714 0-1.857 2.254-1.857 3.312-1.857 3.316 0 6.496.389 9.807.659 2.517.27 5.165.399 7.682.399 7.291 0 11.264-.928 15.372-1.058 2.12-.139 2.653.789 2.653 1.586 0 1.196-.929 1.726-1.855 2.126"/>
        </g>
        <g id="g116" transform="translate(331.032 95.8)">
          <path id="path118" d="M0 0c-1.722 0-4.373.271-6.094.669-2.119.528-4.635 1.853-6.76 1.853-5.165 0-4.502-5.703-4.502-12.324-1.462-10.331-2.119-6.093-2.119-12.197 0-4.497 2.246-5.293 3.046-5.293 1.456 0 2.783 2.511 3.18 3.31 1.721 3.181 3.446 6.491 6.357 10.202C-3.312-9.273.663-5.822 7.025-5.822c8.611 0 8.874-7.69 8.874-10.342v-60.56c0-3.439-.392-7.947-5.03-10.6-1.198-.656-2.388-1.058-3.714-1.316-1.059-.269-2.12-.269-3.047-.797-.792-.53-.928-1.057-.928-1.456 0-.798.799-1.856 4.372-1.856 15.507.259 7.688 1.058 16.963 1.058 9.274 0 1.454-.799 16.962-1.058 3.574 0 4.373 1.058 4.373 1.856 0 .399-.134.926-.928 1.456-.926.528-1.989.528-3.05.797-1.322.258-2.519.66-3.712 1.316-4.635 2.653-5.034 7.161-5.034 10.6v60.56c0 2.652.265 10.342 8.879 10.342 6.363 0 10.336-3.451 13.911-7.958 2.917-3.711 4.643-7.021 6.362-10.202.399-.799 1.726-3.31 3.182-3.31.793 0 3.046.796 3.046 5.293 0 5.178-.793 4.249-2.253 12.197.268 6.621.797 12.324-4.373 12.324-2.118 0-4.637-1.325-6.757-1.853C53.4.271 50.75 0 49.027 0z"/>
        </g>
        <g id="g120" transform="translate(278.528 53.4)">
          <path id="path122" d="M0 0c-6.491-3.442-14.843-5.965-21.735-5.965-6.356 0-9.536 2.384-11.128 4.238-2.517 3.181-2.517 7.291-2.517 10.342v17.749c0 3.452.399 7.958 5.034 10.599 1.193.671 2.385 1.068 3.71 1.327 1.063.27 2.119.27 3.047.798.798.528.927 1.058.927 1.456 0 .669-.792 1.855-4.372 1.855-4.772-.129-8.611-.788-16.963-.788-8.346 0-12.19.659-16.957.788-3.58 0-4.372-1.186-4.372-1.855 0-.398.13-.928.928-1.456.927-.528 1.984-.528 3.045-.798 1.327-.259 2.518-.656 3.71-1.327 4.637-2.641 5.037-7.147 5.037-10.599V8.085c0-6.361-.265-11.795 5.828-16.832 4.905-4.108 10.999-4.506 16.833-4.506C-19.48-13.253-9.809-11 0-5.295v-29.03c0-3.439-.399-7.947-5.036-10.6-1.192-.657-2.389-1.058-3.709-1.316-1.064-.269-2.124-.269-3.052-.797-.793-.53-.927-1.057-.927-1.456 0-.798.797-1.856 4.372-1.856 9.409.13 10.206 1.058 16.963 1.058 6.762 0 7.553-.928 16.963-1.058 3.572 0 4.372 1.058 4.372 1.856 0 .399-.137.926-.926 1.456-.93.528-1.991.528-3.049.797-1.326.258-2.517.659-3.709 1.316-4.644 2.653-5.035 7.161-5.035 10.6v60.689c0 3.452.391 7.958 5.035 10.599 1.192.671 2.383 1.068 3.709 1.327 1.058.27 2.119.27 3.049.798.789.528.926 1.058.926 1.456 0 .669-.8 1.855-4.372 1.855-4.773-.129-8.618-.788-16.963-.788-8.347 0-12.191.659-16.963.788-3.575 0-4.372-1.186-4.372-1.855 0-.398.134-.928.927-1.456.928-.528 1.988-.528 3.052-.798 1.32-.259 2.517-.656 3.709-1.327C-.399 34.322 0 29.816 0 26.364z"/>
        </g>
        <g id="g124" transform="translate(190.81 22.128)">
          <path id="path126" d="M0 0c-6.492-11.927-17.091-16.823-26.764-16.823-8.615 0-20.008 4.098-28.09 17.75-5.037 8.615-7.818 19.874-7.818 28.618 0 9.286 2.911 20.543 8.082 28.092 6.626 9.942 16.299 13.92 24.511 13.92 6.496 0 17.625-2.523 26.768-16.034 7.156-10.6 8.876-21.599 8.876-31.801C5.565 17.36 4.637 8.486 0 0m13.652 58.704C4.109 69.563-11.791 76.852-29.153 76.852c-15.365 0-30.208-6.362-39.618-16.563-9.144-9.932-13.517-23.981-13.517-36.167 0-11.797 3.716-21.998 11.928-30.484 6.76-7.15 19.345-15.766 40.152-15.766 17.754 0 31.007 5.693 39.751 13.652 7.021 6.351 15.373 18.018 15.373 35.64 0 13.122-4.244 23.453-11.264 31.54"/>
        </g>
        <g id="g128" transform="translate(4.373 95.8)">
          <path id="path130" d="M0 0c-.927 0-4.374 0-4.374-1.855 0-.398.136-.928.929-1.456.927-.528 1.988-.528 3.046-.798 1.325-.259 2.517-.656 3.71-1.327 4.641-2.641 5.035-7.147 5.035-10.599v-60.689c0-3.439-.394-7.947-5.035-10.6-1.193-.656-2.385-1.058-3.71-1.316-1.058-.269-2.119-.269-3.046-.797-.793-.53-.929-1.057-.929-1.456 0-.798.792-1.856 4.374-1.856 9.407.13 10.2 1.058 16.962 1.058 6.755 0 7.554-.928 16.956-1.058 3.581 0 4.373 1.058 4.373 1.856 0 .399-.129.926-.927 1.456-.927.528-1.985.528-3.046.797-1.326.258-2.517.66-3.71 1.316-4.636 2.653-5.036 7.161-5.036 10.6v57.778c0 3.051 0 7.16 3.979 10.202 2.648 2.123 6.886 2.922 9.937 2.922h20.936c3.046 0 7.284-.799 9.936-2.922 3.974-3.042 3.974-7.151 3.974-10.202v-57.778c0-3.439-.398-7.947-5.035-10.6-1.192-.656-2.383-1.058-3.71-1.316-1.057-.269-2.119-.269-3.045-.797-.794-.53-.929-1.057-.929-1.456 0-.798.794-1.856 4.374-1.856 9.408.13 10.2 1.058 16.962 1.058 6.755 0 7.554-.928 16.957-1.058 3.579 0 4.372 1.058 4.372 1.856 0 .399-.13.926-.927 1.456-.928.528-1.983.528-3.047.797-1.326.258-2.517.66-3.709 1.316-4.637 2.653-5.036 7.161-5.036 10.6v60.689c0 3.452.399 7.958 5.036 10.599 1.192.671 2.383 1.068 3.709 1.327 1.064.27 2.119.27 3.047.798.797.528.927 1.058.927 1.456C104.28 0 100.834 0 99.908 0z"/>
        </g>
        <g id="g132" transform="translate(466.374 277.005)">
          <path id="path134" fill="#fff" d="M0 0l-.863.012-.426 3.436-3.873 1.864.124-4.296 3.169-1.657-.279-1.039-2.82 1.121.142-2.86-1.127.126-.096 3.079-2.236-1.831-.566.869 2.64 2.094-.125 4.299-3.618-2.349-.022-3.63-1.038.276-.009 2.66-2.276-1.478-.567.868 2.277 1.479-2.424 1.094.3.86 3.194-1.259 3.618 2.35-3.875 1.862-2.987-1.557-.565.869 2.582 1.298-3.06 1.342.676 1.01 2.952-1.318-.342 2.727 1.132.165.179-3.503 3.915-1.928.035 4.494-3.125 1.589.542.923 2.486-1.335.064 3.273 1.064.122.046-3.3 2.278 1.476.566-.869-2.746-1.783-.146-4.472 3.82 2.477.021 3.346 1.039.008.009-2.658 2.549 1.652.563-.871L.024 9.345l2.797-1.23-.647-.612-3.086 1.235-3.752-2.435 3.943-1.82L2.4 6.127l.564-.87-2.652-1.34 2.973-1.499-.544-.925L.122 2.744z"/>
        </g>
        <g id="g136" transform="translate(461.568 241.996)">
          <path id="path138" fill="#fff" d="M0 0l-.863.012-.426 3.436-3.873 1.864.124-4.296 3.169-1.657-.279-1.039-2.82 1.121.142-2.86-1.127.126-.096 3.079-2.236-1.831-.566.869 2.64 2.094-.125 4.299-3.618-2.349-.022-3.63-1.038.276-.009 2.66-2.276-1.478-.567.868 2.277 1.479-2.424 1.094.3.86 3.194-1.259 3.618 2.35-3.875 1.862-2.987-1.557-.565.869 2.582 1.298-3.06 1.342.676 1.01 2.952-1.318-.342 2.727 1.132.165.179-3.503 3.915-1.928.035 4.494-3.125 1.589.542.923 2.486-1.335.064 3.273 1.064.122.046-3.3 2.278 1.476.566-.869-2.746-1.783-.146-4.472 3.82 2.477.021 3.346 1.039.008.009-2.658 2.549 1.652.563-.871L.024 9.345l2.797-1.23-.647-.612-3.086 1.235-3.752-2.435 3.943-1.82L2.4 6.127l.564-.87-2.652-1.34 2.973-1.499-.544-.925L.122 2.744z"/>
        </g>
        <g id="g140" transform="translate(450.773 208.07)">
          <path id="path142" fill="#fff" d="M0 0l-.863.012-.426 3.436-3.873 1.864.124-4.296 3.169-1.657-.279-1.039-2.82 1.121.142-2.86-1.127.126-.096 3.079-2.236-1.831-.566.869 2.64 2.094-.125 4.299-3.618-2.349-.022-3.63-1.038.276-.009 2.66-2.276-1.478-.567.868 2.277 1.479-2.424 1.094.3.86 3.194-1.259 3.618 2.35-3.875 1.862-2.987-1.557-.565.869 2.582 1.298-3.06 1.342.676 1.01 2.952-1.318-.342 2.727 1.132.165.179-3.503 3.915-1.928.035 4.494-3.125 1.589.542.923 2.486-1.335.064 3.273 1.064.122.046-3.3 2.278 1.476.566-.869-2.746-1.783-.146-4.472 3.82 2.477.021 3.346 1.039.008.009-2.658 2.549 1.652.563-.871L.024 9.345l2.797-1.23-.647-.612-3.086 1.235-3.752-2.435 3.943-1.82L2.4 6.127l.564-.87-2.652-1.34 2.973-1.499-.544-.925L.122 2.744z"/>
        </g>
        <g id="g144" transform="translate(434.58 176.455)">
          <path id="path146" fill="#fff" d="M0 0l-.863.012-.426 3.436-3.873 1.864.124-4.296 3.169-1.657-.279-1.039-2.82 1.121.142-2.86-1.127.126-.096 3.079-2.236-1.831-.566.869 2.64 2.094-.125 4.299-3.618-2.349-.022-3.63-1.038.276-.009 2.66-2.276-1.478-.567.868 2.277 1.479-2.424 1.094.3.86 3.194-1.259 3.618 2.35-3.875 1.862-2.987-1.557-.565.869 2.582 1.298-3.06 1.342.676 1.01 2.952-1.318-.342 2.727 1.132.165.179-3.503 3.915-1.928.035 4.494-3.125 1.589.542.923 2.486-1.335.064 3.273 1.064.122.046-3.3 2.278 1.476.566-.869-2.746-1.783-.146-4.472 3.82 2.477.021 3.346 1.039.008.009-2.658 2.549 1.652.563-.871L.024 9.345l2.797-1.23-.647-.612-3.086 1.235-3.752-2.435 3.943-1.82L2.4 6.127l.564-.87-2.652-1.34 2.973-1.499-.544-.925L.122 2.744z"/>
        </g>
        <g id="g148" transform="translate(413.762 147.926)">
          <path id="path150" fill="#fff" d="M0 0l-.863.012-.426 3.436-3.873 1.864.124-4.296 3.169-1.657-.279-1.039-2.82 1.121.142-2.86-1.127.126-.096 3.079-2.236-1.831-.566.869 2.64 2.094-.125 4.299-3.618-2.349-.022-3.63-1.038.276-.009 2.66-2.276-1.478-.567.868 2.277 1.479-2.424 1.094.3.86 3.194-1.259 3.618 2.35-3.875 1.862-2.987-1.557-.565.869 2.582 1.298-3.06 1.342.676 1.01 2.952-1.318-.342 2.727 1.132.165.179-3.503 3.915-1.928.035 4.494-3.125 1.589.542.923 2.486-1.335.064 3.273 1.064.122.046-3.3 2.278 1.476.566-.869-2.746-1.783-.146-4.472 3.82 2.477.021 3.346 1.039.008.009-2.658 2.549 1.652.563-.871L.024 9.345l2.797-1.23-.647-.612-3.086 1.235-3.752-2.435 3.943-1.82L2.4 6.127l.564-.87-2.652-1.34 2.973-1.499-.544-.925L.122 2.744z"/>
        </g>
        <g id="g152" transform="translate(388.316 123.251)">
          <path id="path154" fill="#fff" d="M0 0l-.863.012-.426 3.436-3.873 1.864.124-4.296 3.169-1.657-.279-1.039-2.82 1.121.142-2.86-1.127.126-.096 3.079-2.236-1.831-.566.869 2.64 2.094-.125 4.299-3.618-2.349-.022-3.63-1.038.276-.009 2.66-2.276-1.478-.567.868 2.277 1.479-2.424 1.094.3.86 3.194-1.259 3.618 2.35-3.875 1.862-2.987-1.557-.565.869 2.582 1.298-3.06 1.342.676 1.01 2.952-1.318-.342 2.727 1.132.165.179-3.503 3.915-1.928.035 4.494-3.125 1.589.542.923 2.486-1.335.064 3.273 1.064.122.046-3.3 2.278 1.476.566-.869-2.746-1.783-.146-4.472 3.82 2.477.021 3.346 1.039.008.009-2.658 2.549 1.652.563-.871L.024 9.345l2.797-1.23-.647-.612-3.086 1.235-3.752-2.435 3.943-1.82L2.4 6.127l.564-.87-2.652-1.34 2.973-1.499-.544-.925L.122 2.744z"/>
        </g>
        <g id="g156" transform="translate(114.586 122.48)">
          <path id="path158" fill="#fff" d="M0 0l-.863.012-.426 3.436-3.873 1.864.124-4.296 3.169-1.657-.279-1.039-2.82 1.121.142-2.86-1.127.126-.096 3.079-2.236-1.831-.566.869 2.64 2.094-.125 4.299-3.618-2.349-.022-3.63-1.038.276-.009 2.66-2.276-1.478-.567.868 2.277 1.479-2.424 1.094.3.86 3.194-1.259 3.618 2.35-3.875 1.862-2.987-1.557-.565.869 2.582 1.298-3.06 1.342.676 1.01 2.952-1.318-.342 2.727 1.132.165.179-3.503 3.915-1.928.035 4.494-3.125 1.589.542.923 2.486-1.335.064 3.273 1.064.122.046-3.3 2.278 1.476.566-.869-2.746-1.783-.146-4.472 3.82 2.477.021 3.346 1.039.008.009-2.658 2.549 1.652.563-.871L.024 9.345l2.797-1.23-.647-.612-3.086 1.235-3.752-2.435 3.943-1.82L2.4 6.127l.564-.87-2.652-1.34 2.973-1.499-.544-.925L.122 2.744z"/>
        </g>
        <g id="g160" transform="translate(88.37 147.155)">
          <path id="path162" fill="#fff" d="M0 0l-.863.012-.426 3.436-3.873 1.864.124-4.296 3.169-1.657-.279-1.039-2.82 1.121.142-2.86-1.127.126-.096 3.079-2.236-1.831-.566.869 2.64 2.094-.125 4.299-3.618-2.349-.022-3.63-1.038.276-.009 2.66-2.276-1.478-.567.868 2.277 1.479-2.424 1.094.3.86 3.194-1.259 3.618 2.35-3.875 1.862-2.987-1.557-.565.869 2.582 1.298-3.06 1.342.676 1.01 2.952-1.318-.342 2.727 1.132.165.179-3.503 3.915-1.928.035 4.494-3.125 1.589.542.923 2.486-1.335.064 3.273 1.064.122.046-3.3 2.278 1.476.566-.869-2.746-1.783-.146-4.472 3.82 2.477.021 3.346 1.039.008.009-2.658 2.549 1.652.563-.871L.024 9.345l2.797-1.23-.647-.612-3.086 1.235-3.752-2.435 3.943-1.82L2.4 6.127l.564-.87-2.652-1.34 2.973-1.499-.544-.925L.122 2.744z"/>
        </g>
        <g id="g164" transform="translate(67.551 175.684)">
          <path id="path166" fill="#fff" d="M0 0l-.863.012-.426 3.436-3.873 1.864.124-4.296 3.169-1.657-.279-1.039-2.82 1.121.142-2.86-1.127.126-.096 3.079-2.236-1.831-.566.869 2.64 2.094-.125 4.299-3.618-2.349-.022-3.63-1.038.276-.009 2.66-2.276-1.478-.567.868 2.277 1.479-2.424 1.094.3.86 3.194-1.259 3.618 2.35-3.875 1.862-2.987-1.557-.565.869 2.582 1.298-3.06 1.342.676 1.01 2.952-1.318-.342 2.727 1.132.165.179-3.503 3.915-1.928.035 4.494-3.125 1.589.542.923 2.486-1.335.064 3.273 1.064.122.046-3.3 2.278 1.476.566-.869-2.746-1.783-.146-4.472 3.82 2.477.021 3.346 1.039.008.009-2.658 2.549 1.652.563-.871L.024 9.345l2.797-1.23-.647-.612-3.086 1.235-3.752-2.435 3.943-1.82L2.4 6.127l.564-.87-2.652-1.34 2.973-1.499-.544-.925L.122 2.744z"/>
        </g>
        <g id="g168" transform="translate(51.556 207.294)">
          <path id="path170" fill="#fff" d="M0 0l-.863.012-.426 3.436-3.873 1.864.124-4.296 3.169-1.657-.279-1.039-2.82 1.121.142-2.86-1.127.126-.096 3.079-2.236-1.831-.566.869 2.64 2.094-.125 4.299-3.618-2.349-.022-3.63-1.038.276-.009 2.66-2.276-1.478-.567.868 2.277 1.479-2.424 1.094.3.86 3.194-1.259 3.618 2.35-3.875 1.862-2.987-1.557-.565.869 2.582 1.298-3.06 1.342.676 1.01 2.952-1.318-.342 2.727 1.132.165.179-3.503 3.915-1.928.035 4.494-3.125 1.589.542.923 2.486-1.335.064 3.273 1.064.122.046-3.3 2.278 1.476.566-.869-2.746-1.783-.146-4.472 3.82 2.477.021 3.346 1.039.008.009-2.658 2.549 1.652.563-.871L.024 9.345l2.797-1.23-.647-.612-3.086 1.235-3.752-2.435 3.943-1.82L2.4 6.127l.564-.87-2.652-1.34 2.973-1.499-.544-.925L.122 2.744z"/>
        </g>
        <g id="g172" transform="translate(40.564 240.454)">
          <path id="path174" fill="#fff" d="M0 0l-.863.012-.426 3.436-3.873 1.864.124-4.296 3.169-1.657-.279-1.039-2.82 1.121.142-2.86-1.127.126-.096 3.079-2.236-1.831-.566.869 2.64 2.094-.125 4.299-3.618-2.349-.022-3.63-1.038.276-.009 2.66-2.276-1.478-.567.868 2.277 1.479-2.424 1.094.3.86 3.194-1.259 3.618 2.35-3.875 1.862-2.987-1.557-.565.869 2.582 1.298-3.06 1.342.676 1.01 2.952-1.318-.342 2.727 1.132.165.179-3.503 3.915-1.928.035 4.494-3.125 1.589.542.923 2.486-1.335.064 3.273 1.064.122.046-3.3 2.278 1.476.566-.869-2.746-1.783-.146-4.472 3.82 2.477.021 3.346 1.039.008.009-2.658 2.549 1.652.563-.871L.024 9.345l2.797-1.23-.647-.612-3.086 1.235-3.752-2.435 3.943-1.82L2.4 6.127l.564-.87-2.652-1.34 2.973-1.499-.544-.925L.122 2.744z"/>
        </g>
        <g id="g176" transform="translate(35.166 275.923)">
          <path id="path178" fill="#fff" d="M0 0l-.863.012-.426 3.436-3.873 1.864.124-4.296 3.169-1.657-.279-1.039-2.82 1.121.142-2.86-1.127.126-.096 3.079-2.236-1.831-.566.869 2.64 2.094-.125 4.299-3.618-2.349-.022-3.63-1.038.276-.009 2.66-2.276-1.478-.567.868 2.277 1.479-2.424 1.094.3.86 3.194-1.259 3.618 2.35-3.875 1.862-2.987-1.557-.565.869 2.582 1.298-3.06 1.342.676 1.01 2.952-1.318-.342 2.727 1.132.165.179-3.503 3.915-1.928.035 4.494-3.125 1.589.542.923 2.486-1.335.064 3.273 1.064.122.046-3.3 2.278 1.476.566-.869-2.746-1.783-.146-4.472 3.82 2.477.021 3.346 1.039.008.009-2.658 2.549 1.652.563-.871L.024 9.345l2.797-1.23-.647-.612-3.086 1.235-3.752-2.435 3.943-1.82L2.4 6.127l.564-.87-2.652-1.34 2.973-1.499-.544-.925L.122 2.744z"/>
        </g>
      </g>
    </g>
  </g>
</svg>
