<svg xmlns="http://www.w3.org/2000/svg" xmlns:xlink="http://www.w3.org/1999/xlink" width="1086" height="489.64" viewBox="0 0 1086 489.64"><defs><filter id="a" x="-84" y="-80.36" width="1254" height="657" filterUnits="userSpaceOnUse"><feOffset dy="3" input="SourceAlpha"/><feGaussianBlur stdDeviation="28" result="b"/><feFlood flood-opacity="0.161"/><feComposite operator="in" in2="b"/><feComposite in="SourceGraphic"/></filter><clipPath id="c"><g transform="matrix(1, 0, 0, 1, 0, 0)" filter="url(#a)"><rect width="1086" height="489" transform="translate(132.72 24.48)" fill="#fff"/></g></clipPath><filter id="d" x="-20.808" y="-80.447" width="641.653" height="580.156" filterUnits="userSpaceOnUse"><feOffset dy="3" input="SourceAlpha"/><feGaussianBlur stdDeviation="28" result="e"/><feFlood flood-opacity="0.161"/><feComposite operator="in" in2="e"/><feComposite in="SourceGraphic"/></filter><filter id="f" x="451.827" y="-80.76" width="634.798" height="580.356" filterUnits="userSpaceOnUse"><feOffset dy="3" input="SourceAlpha"/><feGaussianBlur stdDeviation="28" result="g"/><feFlood flood-opacity="0.161"/><feComposite operator="in" in2="g"/><feComposite in="SourceGraphic"/></filter><filter id="h" x="206.424" y="159.036" width="686.025" height="303.522" filterUnits="userSpaceOnUse"><feOffset dy="1" input="SourceAlpha"/><feGaussianBlur stdDeviation="23" result="i"/><feFlood flood-opacity="0.114"/><feComposite operator="in" in2="i"/><feComposite in="SourceGraphic"/></filter><clipPath id="j"><path d="M380.1,87.845c-9.077-26.822-15.241-55.693-23.958-69.193C308.5-58.513,147.988,8.036-7.336,8.95c.187.351.053,384.441.053,384.441s480.059.612,480.3.609c.068-168.525,7.254-136.46,7.343-212.966S428.19,102.746,380.1,87.845Z" transform="translate(7.336 18.585)" fill="#fff"/></clipPath><filter id="k" x="5.4" y="209.858" width="322.404" height="278.487" filterUnits="userSpaceOnUse"><feOffset dx="3" dy="3" input="SourceAlpha"/><feGaussianBlur stdDeviation="3" result="l"/><feFlood flood-opacity="0.161"/><feComposite operator="in" in2="l"/><feComposite in="SourceGraphic"/></filter><clipPath id="m"><path d="M4989.972,130.229l120.172,120.615L4971.753,247.7Z" transform="translate(-4971.753 -130.229)" fill="#402323"/></clipPath><filter id="n" x="56.971" y="280.151" width="131.964" height="124.772" filterUnits="userSpaceOnUse"><feOffset dy="10" input="SourceAlpha"/><feGaussianBlur stdDeviation="3" result="o"/><feFlood flood-opacity="0.161"/><feComposite operator="in" in2="o"/><feComposite in="SourceGraphic"/></filter><linearGradient id="p" x1="0.232" y1="0.735" x2="0.5" y2="0.5" gradientUnits="objectBoundingBox"><stop offset="0" stop-color="#ff796f"/><stop offset="0.3" stop-color="#ff5c52"/><stop offset="0.768" stop-color="#c30400"/><stop offset="1" stop-color="#7a0900"/></linearGradient><clipPath id="q"><path d="M92.922,87.845C102,61.023,108.163,32.152,116.88,18.653c47.644-77.166,208.159-10.617,363.483-9.7-.187.351-.053,384.441-.053,384.441S.25,394,.008,394C-.061,225.475-7.247,257.54-7.335,181.034S44.836,102.746,92.922,87.845Z" transform="translate(203 120)" fill="#fff"/></clipPath><filter id="r" x="744.92" y="208.858" width="322.405" height="278.487" filterUnits="userSpaceOnUse"><feOffset dx="-1" dy="2" input="SourceAlpha"/><feGaussianBlur stdDeviation="3" result="s"/><feFlood flood-opacity="0.161"/><feComposite operator="in" in2="s"/><feComposite in="SourceGraphic"/></filter><clipPath id="t"><path d="M5091.925,130.229,4971.752,250.845l138.391-3.148Z" transform="translate(-4766)" fill="#402323"/></clipPath><filter id="u" x="881.79" y="280.151" width="131.964" height="124.772" filterUnits="userSpaceOnUse"><feOffset dy="10" input="SourceAlpha"/><feGaussianBlur stdDeviation="3" result="v"/><feFlood flood-opacity="0.161"/><feComposite operator="in" in2="v"/><feComposite in="SourceGraphic"/></filter><linearGradient id="w" x1="0.785" y1="0.717" x2="0.516" y2="0.482" xlink:href="#p"/></defs><g transform="translate(1218.725 514.122) rotate(180)"><g clip-path="url(#c)"><g transform="matrix(-1, 0, 0, -1, 1218.72, 514.12)" filter="url(#d)"><path d="M356.149,18.653C308.505-58.513,147.513,8.026-7.812,8.94c.006.078-1.007,384.627-1.007,384.627s436.088,0,436.329,0c.068-168.525,37.235-183.136,37.324-259.642.023-20.2-21.625-14.761-32.431-33.549C389.608,57.605,362.564,28.588,356.149,18.653Z" transform="translate(528.03 394.12) rotate(180)" fill="#fff"/></g><g transform="matrix(-1, 0, 0, -1, 1218.72, 514.12)" filter="url(#f)"><path d="M95.077,18.653C140.621-58.513,309.5,8.4,457.979,9.314c-.006.078-.726,384.568-.726,384.568s-430.163-.312-430.394-.315C26.795,225.042-8.734,210.43-8.819,133.925c-.022-20.2,20.672-14.761,31-33.549C63.092,57.605,88.944,28.588,95.077,18.653Z" transform="translate(993.81 394.12) rotate(180)" fill="#fff"/></g></g><g transform="matrix(-1, 0, 0, -1, 1218.72, 514.12)" filter="url(#h)"><path d="M943.3,119.635c-84.5,1.469-154.213,9.979-256.812,9.492s-179.854-10.5-291.177-9.492c-.08,1.011,0,165.45,0,165.45H943.3S943.278,119.654,943.3,119.635Z" transform="translate(1218.72 512.12) rotate(180)" fill="#fff"/></g><path d="M380.107,87.845c-9.077-26.822-15.242-55.693-23.958-69.193C308.505-58.513,147.513,8.026-7.812,8.94c.006.078-1.007,384.627-1.007,384.627s481.558.558,481.8.555c.068-168.525,7.295-136.582,7.383-213.088S428.192,102.746,380.107,87.845Z" transform="translate(690.699 120)" fill="#fff"/><g transform="translate(487.762)"><g transform="translate(195.602 101.415)" clip-path="url(#j)"><g transform="matrix(-1, 0, 0, -1, 535.36, 412.71)" filter="url(#k)"><path d="M5090.863,209.817s1.651-56.762-38.427-89.056S4925.4,104.9,4925.4,104.9l169.729-67.125L5229.8,263.143l-36.11,35.121s4.3-51-42.409-76.29S5090.863,209.817,5090.863,209.817Z" transform="translate(5241.2 514.12) rotate(180)" fill="#fff"/></g></g><g transform="translate(534.82 130.229)" clip-path="url(#m)"><g transform="matrix(-1, 0, 0, -1, 196.14, 383.89)" filter="url(#n)"><path d="M5107.936,245.97,4993.971,140.2s18.818,17.652,21.97,39.438-1.026,43.085,4.662,47.251,27.86-2.4,49.517,5.426S5107.936,245.97,5107.936,245.97Z" transform="translate(5173.91 526.12) rotate(180)" fill="#fff"/></g></g><path d="M5108.849,254.524s-113.723-114.236-114.61-115.066c8.961,13.35,20.725,42.42,22.748,57.168s-.89,26.1,4.8,30.261,28.429,1.149,50.086,8.975A171.837,171.837,0,0,1,5108.849,254.524Z" transform="translate(-4444.125 -12)" fill="#fff"/><path d="M5105.925,254.593l-112.36-112.364s18.135,30.784,21.287,52.57-.483,26.465,5.205,30.631,26.351,1.026,48.008,8.853A155.936,155.936,0,0,1,5105.925,254.593Z" transform="translate(-4440.526 -12)" fill="url(#p)"/><path d="M5040.235,314.067c-1.292-26.37-2.222-48.92-14.836-64.161s-28.434-25.45-63.8-31.741c.284-.4,10.258.839,12.6,1.159C5028.985,230.865,5042.787,260.84,5040.235,314.067Z" transform="translate(-4357.162)" fill="#fff"/><path d="M5148.072,172.309s-8.74-41.644-33.713-55.041c-5.12-2.746-9.117-5.032-13.384-6.864-15.209-6.531-23.346-6.294-27.778-7.142,7.746,2.312,24.863,2.6,46.5,20.742s26.5,46.773,26.753,48.3S5148.072,172.309,5148.072,172.309Z" transform="translate(-4576.305)" fill="#fff"/></g><path d="M92.922,87.845C102,61.023,108.163,32.152,116.88,18.653c47.644-77.166,208.159-10.617,363.483-9.7-.187.351-.053,384.441-.053,384.441s-480.347.5-480.589.5C-.347,225.364-7.247,257.54-7.335,181.034S44.836,102.746,92.922,87.845Z" transform="translate(203 120)" fill="#fff"/><g clip-path="url(#q)"><g transform="matrix(-1, 0, 0, -1, 1218.72, 514.12)" filter="url(#r)"><path d="M5064.34,209.817s-1.652-56.762,38.427-89.056S5229.8,104.9,5229.8,104.9L5060.076,37.776,4925.4,263.143l36.11,35.121s-4.3-51,42.409-76.29S5064.34,209.817,5064.34,209.817Z" transform="translate(5984.72 514.12) rotate(180)" fill="#fff"/></g></g><g clip-path="url(#t)"><g transform="matrix(-1, 0, 0, -1, 1218.72, 514.12)" filter="url(#u)"><path d="M4993.971,245.97,5107.935,140.2s-18.818,17.652-21.97,39.438,1.026,43.085-4.662,47.251-27.86-2.4-49.517,5.426S4993.971,245.97,4993.971,245.97Z" transform="translate(5998.72 526.12) rotate(180)" fill="#fff"/></g></g><path d="M4994.239,254.524s113.723-114.236,114.61-115.066c-8.961,13.35-20.725,42.42-22.748,57.168s.89,26.1-4.8,30.261-28.429,1.149-50.086,8.975A171.837,171.837,0,0,0,4994.239,254.524Z" transform="translate(-4780 -12)" fill="#fff"/><path d="M4993.564,254.593l112.36-112.364s-18.135,30.784-21.287,52.57.483,26.465-5.205,30.631-26.351,1.026-48.008,8.853A155.936,155.936,0,0,0,4993.564,254.593Z" transform="translate(-4780 -12)" fill="url(#w)"/><path d="M4961.89,314.067c1.292-26.37,2.222-48.92,14.836-64.161s28.434-25.45,63.8-31.741c-.284-.4-10.258.839-12.6,1.159C4973.14,230.865,4959.338,260.84,4961.89,314.067Z" transform="translate(-4766)" fill="#fff"/><path d="M5073.2,172.309s8.74-41.644,33.713-55.041c5.12-2.746,9.117-5.032,13.384-6.864,15.209-6.531,23.346-6.294,27.778-7.142-7.746,2.312-24.863,2.6-46.5,20.742s-26.5,46.773-26.753,48.3S5073.2,172.309,5073.2,172.309Z" transform="translate(-4766)" fill="#fff"/></g></svg>