<svg 
 xmlns="http://www.w3.org/2000/svg"
 xmlns:xlink="http://www.w3.org/1999/xlink"
 width="60px" height="49px">
<path fill-rule="evenodd"  fill="rgb(58, 187, 213)"
 d="M55.167,49.000 L4.833,49.000 C2.168,49.000 -0.000,46.832 -0.000,44.167 L-0.000,14.799 C-0.000,12.152 2.152,10.000 4.799,10.000 L6.000,10.000 L6.000,5.000 L12.000,5.000 L12.000,10.000 L13.323,10.000 L17.323,-0.000 L42.677,-0.000 L46.677,10.000 L55.201,10.000 C57.848,10.000 60.000,12.152 60.000,14.799 L60.000,44.167 C60.000,46.832 57.832,49.000 55.167,49.000 ZM10.000,7.000 L8.000,7.000 L8.000,10.000 L10.000,10.000 L10.000,7.000 ZM58.000,14.799 C58.000,13.256 56.744,12.000 55.201,12.000 L45.323,12.000 L41.323,2.000 L18.677,2.000 L14.677,12.000 L12.000,12.000 L6.000,12.000 L4.799,12.000 C3.256,12.000 2.000,13.256 2.000,14.799 L2.000,44.167 C2.000,45.729 3.271,47.000 4.833,47.000 L55.167,47.000 C56.729,47.000 58.000,45.730 58.000,44.167 L58.000,14.799 ZM52.000,22.000 C49.794,22.000 48.000,20.206 48.000,18.000 C48.000,15.794 49.794,14.000 52.000,14.000 C54.206,14.000 56.000,15.794 56.000,18.000 C56.000,20.206 54.206,22.000 52.000,22.000 ZM52.000,16.000 C50.897,16.000 50.000,16.897 50.000,18.000 C50.000,19.103 50.897,20.000 52.000,20.000 C53.103,20.000 54.000,19.103 54.000,18.000 C54.000,16.897 53.103,16.000 52.000,16.000 ZM30.000,45.000 C20.075,45.000 12.000,36.925 12.000,27.000 C12.000,17.075 20.075,9.000 30.000,9.000 C39.925,9.000 48.000,17.075 48.000,27.000 C48.000,36.925 39.925,45.000 30.000,45.000 ZM30.000,11.000 C21.178,11.000 14.000,18.178 14.000,27.000 C14.000,35.822 21.178,43.000 30.000,43.000 C38.822,43.000 46.000,35.822 46.000,27.000 C46.000,18.178 38.822,11.000 30.000,11.000 ZM30.000,39.000 C23.383,39.000 18.000,33.617 18.000,27.000 C18.000,20.383 23.383,15.000 30.000,15.000 C36.617,15.000 42.000,20.383 42.000,27.000 C42.000,33.617 36.617,39.000 30.000,39.000 ZM30.000,17.000 C24.486,17.000 20.000,21.486 20.000,27.000 C20.000,32.514 24.486,37.000 30.000,37.000 C35.514,37.000 40.000,32.514 40.000,27.000 C40.000,21.486 35.514,17.000 30.000,17.000 Z"/>
</svg>