<?xml version="1.0" encoding="UTF-8" standalone="no"?>
<svg
   xmlns:dc="http://purl.org/dc/elements/1.1/"
   xmlns:cc="http://creativecommons.org/ns#"
   xmlns:rdf="http://www.w3.org/1999/02/22-rdf-syntax-ns#"
   xmlns:svg="http://www.w3.org/2000/svg"
   xmlns="http://www.w3.org/2000/svg"
   viewBox="0 0 39.904934 39.904934"
   height="39.904934"
   width="39.904934"
   xml:space="preserve"
   id="svg2"
   version="1.1"><metadata
     id="metadata8"><rdf:RDF><cc:Work
         rdf:about=""><dc:format>image/svg+xml</dc:format><dc:type
           rdf:resource="http://purl.org/dc/dcmitype/StillImage" /></cc:Work></rdf:RDF></metadata><defs
     id="defs6"><clipPath
       id="clipPath20"
       clipPathUnits="userSpaceOnUse"><path
         id="path18"
         d="M 0,29.929 H 29.929 V 0 H 0 Z" /></clipPath></defs><g
     transform="matrix(1.3333333,0,0,-1.3333333,0,39.904933)"
     id="g10"><path
       id="path12"
       style="fill:#0072ba;fill-opacity:1;fill-rule:nonzero;stroke:none"
       d="M 0,0 H 29.929 V 29.929 H 0 Z" /><g
       id="g14"><g
         clip-path="url(#clipPath20)"
         id="g16"><g
           transform="translate(20.0293,7.5815)"
           id="g22"><path
             id="path24"
             style="fill:#ffffff;fill-opacity:1;fill-rule:nonzero;stroke:none"
             d="M 0,0 -2.018,2.551 C -2.131,2.688 -2.221,2.766 -2.284,2.81 L -2.354,2.851 -2.385,2.781 -2.844,0.729 -2.921,0.303 c -0.131,-0.438 -0.414,-0.886 -0.993,-0.997 l -0.357,-0.023 h -2.332 c -4.149,0 -7.895,5.909 -10.517,13.271 l -0.02,0.07 c -0.089,0.441 -0.132,0.933 0.083,1.328 0.248,0.456 0.725,0.602 1.225,0.617 l 3.585,-0.025 c 0.222,-0.001 0.417,-0.146 0.48,-0.358 0.806,-2.65 1.797,-4.269 3.007,-6.115 l 0.034,-0.06 c 0.13,-0.276 0.406,-0.198 0.547,0.022 l 0.087,0.255 0.002,4.159 c 0,0.612 -0.279,0.699 -0.955,0.795 -0.31,0.045 -0.506,0.357 -0.411,0.654 0.326,1.034 1.395,1.563 2.88,1.563 l 1.366,0.032 c 1.106,0 2.108,-0.474 2.108,-1.889 V 8.13 l 0.097,-0.054 c 0.183,-0.063 0.537,-0.077 0.826,0.375 1.242,1.753 2.675,3.846 2.877,4.941 0.008,0.045 0.021,0.087 0.04,0.127 0.253,0.532 0.944,0.906 1.222,0.991 0.04,0.012 0.118,0.035 0.21,0.035 L 5.905,14.543 6.136,14.54 C 6.224,14.529 6.31,14.51 6.395,14.48 6.618,14.399 6.776,14.252 6.882,14.084 7.086,13.751 7.057,13.378 7.077,13.229 7.086,13.18 7.086,13.128 7.077,13.077 6.727,10.885 4.207,8.429 3.147,6.836 2.877,6.46 2.872,6.181 3.125,5.874 L 6.64,1.474 C 7.046,0.894 7.024,0.259 6.592,-0.194 6.311,-0.49 5.903,-0.656 5.471,-0.706 L 5.065,-0.717 H 1.33 l 0.066,0.004 c -0.49,-0.066 -0.872,0.137 -1.159,0.426 z" /></g></g></g></g></svg>