<?xml version="1.0" encoding="UTF-8" standalone="no"?>
<svg
   xmlns:dc="http://purl.org/dc/elements/1.1/"
   xmlns:cc="http://creativecommons.org/ns#"
   xmlns:rdf="http://www.w3.org/1999/02/22-rdf-syntax-ns#"
   xmlns:svg="http://www.w3.org/2000/svg"
   xmlns="http://www.w3.org/2000/svg"
   viewBox="0 0 39.904934 39.904934"
   height="39.904934"
   width="39.904934"
   xml:space="preserve"
   id="svg2"
   version="1.1"><metadata
     id="metadata8"><rdf:RDF><cc:Work
         rdf:about=""><dc:format>image/svg+xml</dc:format><dc:type
           rdf:resource="http://purl.org/dc/dcmitype/StillImage" /></cc:Work></rdf:RDF></metadata><defs
     id="defs6"><clipPath
       id="clipPath26"
       clipPathUnits="userSpaceOnUse"><path
         id="path24"
         d="M 0,29.929 H 29.929 V 0 H 0 Z" /></clipPath></defs><g
     transform="matrix(1.3333333,0,0,-1.3333333,0,39.904933)"
     id="g10"><path
       id="path12"
       style="fill:#ffffff;fill-opacity:1;fill-rule:nonzero;stroke:none"
       d="M 0,0 H 29.929 V 29.929 H 0 Z" /><path
       id="path14"
       style="fill:#e41f25;fill-opacity:1;fill-rule:nonzero;stroke:none"
       d="M 0,0 H 29.929 V 15.54 H 0 Z" /><g
       transform="translate(12.9336,27.0703)"
       id="g16"><path
         id="path18"
         style="fill:#2b2b2a;fill-opacity:1;fill-rule:nonzero;stroke:none"
         d="M 0,0 H -1.525 L -2.452,-3.882 H -2.548 L -3.521,0 h -1.511 l 1.785,-5.864 v -3.85 h 1.5 v 4.03 z" /></g><g
       id="g20"><g
         clip-path="url(#clipPath26)"
         id="g22"><g
           transform="translate(14.2363,22.9375)"
           id="g28"><path
             id="path30"
             style="fill:#2b2b2a;fill-opacity:1;fill-rule:nonzero;stroke:none"
             d="M 0,0 V 0 C 0,0.157 0.051,0.283 0.152,0.38 0.255,0.476 0.386,0.524 0.549,0.524 0.725,0.524 0.867,0.476 0.976,0.38 1.084,0.283 1.139,0.157 1.139,0 v -3.902 c 0,-0.193 -0.053,-0.344 -0.16,-0.453 -0.106,-0.111 -0.25,-0.166 -0.43,-0.166 -0.176,0 -0.312,0.054 -0.406,0.161 C 0.047,-4.251 0,-4.1 0,-3.902 Z m -0.847,-5.222 c 0.349,-0.359 0.814,-0.539 1.393,-0.54 h 0.013 c 0.602,10e-4 1.076,0.176 1.42,0.523 0.344,0.349 0.516,0.829 0.517,1.443 v 3.703 C 2.495,0.453 2.32,0.899 1.969,1.246 1.616,1.593 1.165,1.766 0.613,1.766 0.008,1.766 -0.475,1.602 -0.833,1.272 -1.191,0.943 -1.371,0.501 -1.371,-0.053 v -3.716 c 0,-0.608 0.176,-1.093 0.524,-1.453" /></g><g
           transform="translate(20.335,24.5225)"
           id="g32"><path
             id="path34"
             style="fill:#2b2b2a;fill-opacity:1;fill-rule:nonzero;stroke:none"
             d="m 0,0 v -5.44 c -0.126,-0.156 -0.263,-0.285 -0.413,-0.385 -0.149,-0.101 -0.273,-0.151 -0.371,-0.151 -0.125,0 -0.215,0.038 -0.271,0.114 -0.055,0.076 -0.083,0.198 -0.083,0.369 V 0 h -1.333 v -5.993 c 0,-0.425 0.078,-0.744 0.234,-0.957 0.156,-0.213 0.388,-0.319 0.696,-0.319 0.25,0 0.508,0.076 0.774,0.228 0.265,0.152 0.521,0.374 0.767,0.666 V -7.167 H 1.331 V 0 Z" /></g><g
           transform="translate(22.7998,8.4512)"
           id="g36"><path
             id="path38"
             style="fill:#ffffff;fill-opacity:1;fill-rule:nonzero;stroke:none"
             d="M 0,0 V 0 C 0,0.31 0.055,0.532 0.163,0.666 0.271,0.801 0.45,0.867 0.699,0.867 0.937,0.867 1.111,0.801 1.22,0.666 1.328,0.532 1.382,0.31 1.382,0 V -0.75 H 0 Z m 2.991,-1.898 v 0 1.884 C 2.991,0.688 2.8,1.227 2.417,1.602 2.032,1.977 1.481,2.164 0.767,2.164 0.066,2.164 -0.505,1.961 -0.947,1.558 -1.39,1.152 -1.609,0.629 -1.609,-0.014 v -3.324 c 0,-0.712 0.2,-1.271 0.602,-1.68 0.403,-0.406 0.955,-0.609 1.654,-0.609 0.78,0 1.365,0.191 1.757,0.575 0.393,0.385 0.587,0.956 0.587,1.714 v 0.557 H 1.382 v -0.515 c 0,-0.435 -0.051,-0.717 -0.154,-0.845 -0.103,-0.126 -0.286,-0.19 -0.545,-0.19 -0.248,0 -0.424,0.075 -0.528,0.226 C 0.052,-3.955 0,-3.684 0,-3.296 v 1.398 z M -4.4,-3.691 v 0 c 0,-0.237 -0.045,-0.407 -0.136,-0.511 -0.09,-0.104 -0.231,-0.155 -0.422,-0.155 -0.133,0 -0.258,0.025 -0.377,0.08 -0.121,0.052 -0.244,0.138 -0.372,0.259 v 4.614 c 0.107,0.101 0.215,0.176 0.324,0.225 0.109,0.049 0.218,0.073 0.33,0.073 0.212,0 0.373,-0.065 0.486,-0.194 C -4.456,0.57 -4.4,0.381 -4.4,0.131 Z m 0.086,5.761 v 0 C -4.558,2.07 -4.797,2.011 -5.034,1.894 -5.271,1.776 -5.495,1.604 -5.707,1.378 V 4.609 H -7.285 V -5.427 h 1.578 v 0.569 c 0.207,-0.225 0.429,-0.392 0.668,-0.499 0.24,-0.11 0.513,-0.164 0.818,-0.164 0.465,0 0.818,0.14 1.064,0.419 0.245,0.28 0.367,0.683 0.367,1.209 v 4.107 c 0,0.605 -0.13,1.065 -0.392,1.382 C -3.441,1.911 -3.82,2.07 -4.314,2.07 m -6.062,-5.714 v 0 c -0.147,-0.161 -0.308,-0.294 -0.483,-0.398 -0.177,-0.104 -0.323,-0.155 -0.437,-0.155 -0.146,0 -0.253,0.039 -0.318,0.118 -0.066,0.077 -0.099,0.205 -0.099,0.381 v 5.675 h -1.564 v -6.189 c 0,-0.44 0.091,-0.77 0.275,-0.991 0.183,-0.221 0.456,-0.33 0.817,-0.33 0.293,0 0.597,0.078 0.909,0.235 0.311,0.157 0.612,0.387 0.9,0.689 v -0.818 h 1.564 v 7.404 h -1.564 z m -2.88,8.253 h -5.407 V 3.152 h 1.822 v -8.579 h 1.762 v 8.579 h 1.823 z" /></g></g></g></g></svg>