<?xml version="1.0" encoding="UTF-8" standalone="no"?>
<svg
   xmlns:dc="http://purl.org/dc/elements/1.1/"
   xmlns:cc="http://creativecommons.org/ns#"
   xmlns:rdf="http://www.w3.org/1999/02/22-rdf-syntax-ns#"
   xmlns:svg="http://www.w3.org/2000/svg"
   xmlns="http://www.w3.org/2000/svg"
   viewBox="0 0 224.80226 792.44129"
   height="792.44128"
   width="224.80226"
   xml:space="preserve"
   id="svg2"
   version="1.1"><metadata
     id="metadata8"><rdf:RDF><cc:Work
         rdf:about=""><dc:format>image/svg+xml</dc:format><dc:type
           rdf:resource="http://purl.org/dc/dcmitype/StillImage" /></cc:Work></rdf:RDF></metadata><defs
     id="defs6" /><g
     transform="matrix(1.3333333,0,0,-1.3333333,-1.2057293,793.59598)"
     id="g10">

    <g transform="scale(0.1)"
       id="g12" fill="#34464b" fill-rule="nonzero" opacity=".637">
    <path
         id="path14"
         opacity=""
         d="m 9.04297,2153.04 c 0,454.28 377.43003,822.56 843.00803,822.56 465.589,0 843.009,-368.28 843.009,-822.56 0,-454.28 -377.42,-822.56 -843.009,-822.56 -465.578,0 -843.00803,368.28 -843.00803,822.56 z m 0,-1473.126 c 0,301.484 241.68703,545.876 539.82003,545.876 145.727,0 277.961,-58.38 375.075,-153.28 L 1363.71,718.563 v 497.807 h 324.26 V 8.66016 L 1062.62,511.848 C 992.527,292.598 789.008,134.035 548.863,134.035 250.73,134.035 9.04297,378.438 9.04297,679.914 Z M 349.203,2153.04 c 0,-261.51 222.469,-478.58 502.848,-478.58 280.379,0 502.839,217.07 502.839,478.58 0,261.51 -222.46,478.58 -502.839,478.58 -280.379,0 -502.848,-217.07 -502.848,-478.58 z m 0,-1473.126 c 0,-111.504 89.391,-201.891 199.66,-201.891 110.266,0 199.657,90.387 199.657,201.891 0,111.508 -89.379,201.899 -199.649,201.899 -110.269,0 -199.668,-90.391 -199.668,-201.887 z M 9.04297,5129.41 c 0,454.29 377.43003,822.56 843.00803,822.56 465.589,0 843.009,-368.27 843.009,-822.56 0,-454.28 -377.42,-822.55 -843.009,-822.55 -465.578,0 -843.00803,368.27 -843.00803,822.55 z m 0,-1473.12 c 0,301.48 241.68703,545.88 539.82003,545.88 145.727,0 277.961,-58.39 375.075,-153.29 l 439.772,-353.94 v 497.81 h 324.26 V 2985.03 l -625.35,503.19 C 992.527,3268.97 789.008,3110.41 548.863,3110.41 250.73,3110.41 9.04297,3354.81 9.04297,3656.29 Z M 349.203,5129.41 c 0,-261.51 222.469,-478.57 502.848,-478.57 280.379,0 502.839,217.06 502.839,478.57 0,261.52 -222.46,478.58 -502.839,478.58 -280.379,0 -502.848,-217.06 -502.848,-478.58 z m 0,-1473.12 c 0,-111.51 89.391,-201.9 199.66,-201.9 110.266,0 199.657,90.39 199.657,201.9 0,111.5 -89.379,201.9 -199.649,201.9 -110.269,0 -199.668,-90.4 -199.668,-201.89 v -0.01" />
</g>
</g>
</svg>