<svg xmlns="http://www.w3.org/2000/svg" width="189" height="412" viewBox="0 0 189 412">
    <g fill="#2C5761" fill-rule="nonzero" opacity=".637">
        <path opacity=".58" style="mix-blend-mode:hard-light"  d="M.422 424.466c0-50.673 42.1-91.752 94.033-91.752 51.934 0 94.034 41.08 94.034 91.752 0 50.674-42.1 91.752-94.034 91.752-51.933 0-94.033-41.078-94.033-91.752zm0 164.32c0-33.629 26.959-60.89 60.214-60.89 16.255 0 31.005 6.513 41.838 17.098l49.055 39.481v-55.527h36.169V663.66l-69.755-56.128c-7.818 24.456-30.52 42.143-57.307 42.143-33.255 0-60.214-27.261-60.214-60.89zm37.943-164.32c0 29.17 24.815 53.383 56.09 53.383 31.275 0 56.09-24.213 56.09-53.383s-24.815-53.383-56.09-53.383c-31.275 0-56.09 24.213-56.09 53.383zm0 164.32c0 12.438 9.971 22.521 22.271 22.521s22.271-10.083 22.271-22.521-9.97-22.52-22.27-22.52c-12.3 0-22.272 10.082-22.272 22.52zM.422 92.466C.422 41.793 42.522.714 94.455.714c51.934 0 94.034 41.08 94.034 91.752 0 50.674-42.1 91.752-94.034 91.752-51.933 0-94.033-41.078-94.033-91.752zm0 164.32c0-33.629 26.959-60.89 60.214-60.89 16.255 0 31.005 6.513 41.838 17.098l49.055 39.481v-55.527h36.169V331.66l-69.755-56.128c-7.818 24.456-30.52 42.143-57.307 42.143-33.255 0-60.214-27.261-60.214-60.89zm37.943-164.32c0 29.17 24.815 53.383 56.09 53.383 31.275 0 56.09-24.213 56.09-53.383s-24.815-53.383-56.09-53.383c-31.275 0-56.09 24.213-56.09 53.383zm0 164.32c0 12.438 9.971 22.521 22.271 22.521s22.271-10.083 22.271-22.521-9.97-22.52-22.27-22.52c-12.3 0-22.272 10.082-22.272 22.52z" />
    </g>
</svg>
