<svg xmlns="http://www.w3.org/2000/svg" width="768" height="138" viewBox="0 0 768 138">
    <path fill="#5AE6FF" fill-rule="evenodd" d="M889.47-210.466s1.103 2.912 1.94 5.136c-36.27-5.88-70.667-9.97-105.114-12.48l-.321 4.443c34.305 2.493 68.573 6.572 104.695 12.432l-3.475 4.228 5.075.836 5.111-6.221-2.835-7.533-5.076-.84zM-291.502-151.37l5.056.918 5.208-6.149-2.719-7.582-5.055-.908s1.04 2.911 1.847 5.156c-25.897-4.778-52.948-10.48-83.835-17.666v4.572c30.544 7.092 57.356 12.736 83.05 17.474l-3.552 4.185zm612.62-110.358c34.519-8.737 68.348-17.223 102.367-24.907l-1.635 5.223 5.013-1.117 2.402-7.694-5.454-5.92-5.018 1.122s2.11 2.284 3.729 4.041c-34.086 7.697-67.94 16.187-102.502 24.937l1.098 4.315zM843-313.003c33.167 4.084 67.149 9.683 103.816 17.078l-3.642 4.099 5.043 1.035 5.338-6.027-2.547-7.64-5.038-1.032s.983 2.946 1.74 5.206c-36.785-7.43-70.876-13.035-104.17-17.14l-.54 4.421zm0-168.399c33.167 4.084 67.149 9.683 103.816 17.083l-3.642 4.109 5.043 1.025 5.338-6.032-2.547-7.64-5.038-1.025s.983 2.944 1.74 5.204c-36.785-7.421-70.876-13.035-104.17-17.136l-.54 4.412zm130.013 22.58c35.276 7.66 70.074 16.255 102.482 24.42l-3.82 3.926 4.983 1.265 5.61-5.786-2.197-7.742-4.984-1.259s.847 2.986 1.494 5.278c-32.443-8.174-67.279-16.767-102.632-24.456l-.936 4.354zM579.771-314.105c35.637-4.114 69.967-6.45 104.892-7.16l-2.656 4.78 5.145-.076 3.908-7.048-4.142-6.91-5.145.087s1.605 2.678 2.83 4.718c-35.074.717-69.554 3.063-105.342 7.19l.51 4.419zm-130.143 21.729c36.931-7.834 70.848-13.843 103.612-18.362l-2.076 5.064 5.086-.68 3.057-7.455-4.924-6.378-5.086.692 3.358 4.345c-32.891 4.539-66.905 10.556-103.95 18.424l.923 4.35zm261.795-29.107c35.111.144 69.476 1.953 104.996 5.511l-3.219 4.432 5.116.525 4.724-6.517-3.29-7.358-5.11-.525s1.274 2.847 2.247 5.014c-35.672-3.566-70.183-5.385-105.447-5.54l-.017 4.458zm308.384 53.335s.881 2.98 1.561 5.265c-39.07-9.324-71.98-16.351-103.47-22.085l-.797 4.382c31.408 5.716 64.244 12.726 103.227 22.028l-3.782 3.974 4.999 1.197 5.55-5.838-2.294-7.721-4.994-1.202zM-159.462-91.58l5.118.359 4.518-6.667-3.524-7.246-5.13-.356s1.35 2.774 2.391 4.92c-34.198-2.549-68.455-6.68-104.657-12.647l-.73 4.382c36.349 5.998 70.741 10.143 105.091 12.696l-3.077 4.56zm135.764-2.906l-2.494 4.9 5.133-.27 3.647-7.178-4.391-6.754-5.133.281s1.682 2.586 2.99 4.584a1070.443 1070.443 0 0 1-52.756 1.311c-17.46 0-35.167-.438-52.627-1.296l-.219 4.442c17.532.863 35.313 1.311 52.846 1.311 17.574 0 35.397-.458 53.004-1.331zm-338.779-50.655l5.014 1.134 5.459-5.92-2.397-7.684-5.014-1.127s.929 2.949 1.636 5.223c-4.416-.995-8.82-2.01-13.221-3.036v4.566c4.08.949 8.152 1.887 12.247 2.815l-3.724 4.029zm70.975 35.87l5.056.914 5.208-6.144-2.719-7.577-5.055-.918s1.04 2.916 1.847 5.15c-25.897-4.772-52.948-10.468-83.835-17.652v4.558c30.544 7.107 57.356 12.741 83.05 17.48l-3.552 4.19zm529.6-26.514l-1.557 5.263 4.996-1.204 2.28-7.727-5.556-5.833-4.998 1.215s2.14 2.237 3.784 3.966c-39.202 9.42-72.02 16.496-103.177 22.25l.814 4.374c31.23-5.768 64.127-12.86 103.413-22.304zM499.17-192.05l2.728-7.573-5.192-6.151-5.061.908s2.001 2.367 3.542 4.196c-31.49 5.743-64.416 12.77-103.493 22.107l1.041 4.32c38.98-9.307 71.829-16.33 103.236-22.05l-1.857 5.159 5.056-.916zm124.532-30.27s1.743 2.58 3.075 4.559c-34.423 2.518-68.827 6.612-105.101 12.512l.714 4.392c36.145-5.88 70.4-9.954 104.683-12.465l-2.397 4.923 5.125-.359 3.53-7.244-4.503-6.676-5.126.358zm423.732-34.234l-1.066 4.325c18.02 4.437 36.242 9.05 53.866 13.52 15.914 4.034 32.351 8.195 48.604 12.221l-3.801 3.954 4.993 1.234 5.576-5.803-2.235-7.741-4.989-1.23s.859 2.98 1.526 5.269c-16.243-4.024-32.672-8.185-48.581-12.219-17.634-4.462-35.861-9.083-53.893-13.53zM756.96-224.317s1.413 2.77 2.496 4.898a1093.882 1093.882 0 0 0-52.663-1.282c-17.645 0-35.54.436-53.18 1.297l.215 4.447c17.57-.859 35.395-1.297 52.965-1.297 17.392 0 35.017.438 52.427 1.274l-2.98 4.596 5.133.264 4.381-6.761-3.662-7.174-5.132-.262zM366.615-167.89l-1.526 5.263 4.988-1.224 2.246-7.737-5.576-5.808-4.989 1.225s2.156 2.244 3.799 3.961c-17.834 4.402-35.844 8.961-53.274 13.376-16.106 4.08-32.764 8.299-49.206 12.372l1.073 4.323c16.454-4.079 33.11-8.297 49.229-12.38 17.425-4.415 35.422-8.974 53.236-13.37zm653.192-58.153s.881 2.977 1.561 5.256c-39.07-9.327-71.98-16.347-103.47-22.078l-.797 4.375c31.408 5.716 64.244 12.721 103.227 22.033l-3.782 3.974 4.999 1.202 5.55-5.848-2.294-7.717-4.994-1.197zm-262.847 43.82s1.413 2.78 2.496 4.9a1093.87 1093.87 0 0 0-105.842.014l.214 4.447c17.57-.86 35.395-1.294 52.965-1.294 17.392 0 35.017.433 52.427 1.274l-2.98 4.59 5.133.27 4.381-6.756-3.662-7.174-5.132-.271zM629.8-166.666l3.53-7.232-4.503-6.679-5.126.356 3.075 4.559c-34.423 2.518-68.827 6.61-105.101 12.51l.714 4.389c36.145-5.875 70.4-9.949 104.683-12.457l-2.397 4.92 5.125-.366zM499.17-149.951l2.728-7.573-5.192-6.154-5.061.906s2.001 2.376 3.542 4.188c-31.49 5.746-64.416 12.783-103.493 22.115l1.041 4.33c38.98-9.317 71.829-16.33 103.236-22.06l-1.857 5.15 5.056-.902zm-132.555 24.165l-1.526 5.258 4.988-1.23 2.246-7.728-5.576-5.808-4.989 1.226s2.156 2.235 3.799 3.957c-17.834 4.402-35.844 8.961-53.274 13.376-16.106 4.08-32.764 8.299-49.206 12.372l1.073 4.318c16.454-4.074 33.11-8.297 49.229-12.38 17.425-4.41 35.422-8.969 53.236-13.361zm680.819-88.671l-1.066 4.317c18.02 4.452 36.242 9.063 53.866 13.525 15.914 4.031 32.351 8.194 48.604 12.223l-3.801 3.957 4.993 1.23 5.576-5.804-2.235-7.732-4.989-1.234s.859 2.974 1.526 5.263c-16.243-4.024-32.672-8.19-48.581-12.213-17.634-4.467-35.861-9.078-53.893-13.532zM238.097-93.68l-1.556 5.258 4.996-1.204 2.28-7.722-5.556-5.833-4.998 1.2s2.14 2.247 3.784 3.976c-39.202 9.409-72.02 16.491-103.177 22.24l.814 4.374c31.23-5.763 64.127-12.86 103.413-22.289zm809.337-78.678l-1.066 4.32c18.02 4.437 36.242 9.056 53.866 13.528 15.914 4.029 32.351 8.194 48.604 12.218l-3.801 3.957 4.993 1.234 5.576-5.803-2.235-7.747-4.989-1.231s.859 2.98 1.526 5.275c-16.243-4.026-32.672-8.19-48.581-12.22-17.634-4.47-35.861-9.089-53.893-13.53zm-27.627 30.504s.881 2.979 1.561 5.258c-39.07-9.322-71.98-16.34-103.47-22.075l-.797 4.375c31.408 5.716 64.244 12.723 103.227 22.035l-3.782 3.972 4.999 1.194 5.55-5.835-2.294-7.725-4.994-1.199zM889.47-168.371s1.103 2.914 1.94 5.146c-36.27-5.89-70.667-9.979-105.114-12.482l-.321 4.434c34.305 2.501 68.573 6.565 104.695 12.438l-3.475 4.228 5.075.836 5.111-6.221-2.835-7.545-5.076-.834zm-1091.484-37.342c35.799 4.136 70.263 6.46 105.308 7.117l-2.888 4.641 5.135.17 4.25-6.839-3.802-7.1-5.135-.171s1.479 2.752 2.596 4.85c-34.922-.65-69.272-2.964-104.958-7.085l-.506 4.417zm310.22 138.956l-1.927 5.146 5.073-.856 2.813-7.543-5.123-6.21-5.07.855 3.484 4.218C71.264-65.18 37.006-61.029 2.803-58.476l.326 4.432c34.355-2.56 68.738-6.721 105.076-12.713zM-69.82-198.427c35.196-.229 69.7-2.152 105.426-5.862l-2.228 5.021 5.116-.55 3.258-7.358-4.747-6.502-5.113.545s1.828 2.493 3.231 4.417c-35.574 3.697-69.926 5.614-104.97 5.837l.027 4.452zm1171.293-229.41c30.673 7.77 62.31 15.776 94.526 23.266v-4.573c-31.828-7.406-63.099-15.324-93.438-23.009l-1.088 4.315zM62.255-207.37c33.106-4.208 67.177-9.954 104.098-17.546l-1.72 5.21 5.03-1.05 2.525-7.644-5.367-6.007-5.028 1.05s2.066 2.304 3.646 4.08c-36.804 7.568-70.76 13.294-103.744 17.5l.56 4.407zm130.323-23.135c35.91-7.921 71.704-16.85 102.569-24.651l-1.489 5.278 4.979-1.254 2.198-7.747-5.616-5.773-4.988 1.254s2.163 2.22 3.826 3.937c-30.835 7.784-66.58 16.707-102.44 24.61l.96 4.346zM-23.698-52.381l-2.494 4.9 5.133-.28 3.647-7.174-4.391-6.748-5.133.266s1.682 2.59 2.99 4.589a1076.64 1076.64 0 0 1-52.756 1.321c-17.46 0-35.167-.438-52.627-1.306l-.219 4.447c17.532.863 35.313 1.301 52.846 1.301 17.574 0 35.397-.448 53.004-1.316zm-135.764 2.901l5.118.358 4.518-6.671-3.524-7.237-5.13-.37 2.391 4.924c-34.198-2.543-68.455-6.679-104.657-12.641l-.73 4.387c36.349 5.992 70.741 10.143 105.091 12.691l-3.077 4.56zm-173.106-178.119c37.123 7.918 71.137 13.97 103.939 18.504l-3.363 4.345 5.095.694 4.929-6.375-3.057-7.448-5.09-.694s1.174 2.864 2.08 5.069c-32.691-4.52-66.593-10.556-103.607-18.45l-.926 4.355zm41.066 160.426l5.056.916 5.208-6.144-2.719-7.582-5.055-.914s1.04 2.912 1.847 5.156c-25.897-4.777-52.948-10.474-83.835-17.665v4.571c30.544 7.092 57.356 12.731 83.05 17.474l-3.552 4.188zm0-126.292l5.056.909 5.208-6.142-2.719-7.572-5.055-.926s1.04 2.916 1.847 5.159c-25.897-4.778-52.948-10.47-83.835-17.659v4.564c30.544 7.102 57.356 12.739 83.05 17.472l-3.552 4.195zm399.707 84.603l-1.926 5.151 5.073-.846 2.813-7.547-5.123-6.212-5.07.846 3.484 4.228c-36.192 5.963-70.45 10.118-104.653 12.662l.326 4.441c34.355-2.555 68.738-6.726 105.076-12.723zm471.566-121.049c35.637-4.113 69.967-6.45 104.892-7.154l-2.656 4.78 5.145-.087 3.908-7.037-4.142-6.91-5.145.087 2.83 4.713c-35.074.721-69.554 3.063-105.342 7.194l.51 4.414zm131.652-7.378c35.111.144 69.476 1.954 104.996 5.512l-3.219 4.432 5.116.525 4.724-6.512-3.29-7.359-5.11-.525 2.247 5.015c-35.672-3.571-70.183-5.385-105.447-5.54l-.017 4.452zM62.255-123.17c33.106-4.215 67.177-9.958 104.098-17.546l-1.72 5.211 5.03-1.05 2.525-7.652-5.367-6.007-5.028 1.045s2.066 2.31 3.646 4.088c-36.804 7.573-70.76 13.294-103.744 17.497l.56 4.414zm-424.732-64.058l5.014 1.128 5.459-5.92-2.397-7.69-5.014-1.132s.929 2.961 1.636 5.236c-4.416-1.003-8.82-2.013-13.221-3.044v4.574c4.08.948 8.152 1.881 12.247 2.805l-3.724 4.043zm683.595-242.888c34.519-8.742 68.348-17.223 102.367-24.912l-1.635 5.228 5.013-1.127 2.402-7.68-5.454-5.93-5.018 1.125s2.11 2.287 3.729 4.039c-34.086 7.707-67.94 16.192-102.502 24.942l1.098 4.315zm-128.54 283.806c35.91-7.918 71.704-16.852 102.569-24.648l-1.489 5.28 4.979-1.254 2.198-7.754-5.616-5.773-4.988 1.254s2.163 2.222 3.826 3.937c-30.835 7.786-66.58 16.71-102.44 24.613l.96 4.345zm128.54-31.218c34.519-8.737 68.348-17.225 102.367-24.912l-1.635 5.229 5.013-1.123 2.402-7.694-5.454-5.92-5.018 1.127s2.11 2.28 3.729 4.037c-34.086 7.696-67.94 16.192-102.502 24.939l1.098 4.317zm128.51-283.236c36.931-7.839 70.848-13.846 103.612-18.367l-2.076 5.069 5.086-.69 3.057-7.445-4.924-6.378-5.086.692s1.9 2.453 3.358 4.345c-32.891 4.529-66.905 10.56-103.95 18.42l.923 4.354zm0 252.589c36.931-7.837 70.848-13.844 103.612-18.363l-2.076 5.064 5.086-.684 3.057-7.45-4.924-6.378-5.086.681s1.9 2.469 3.358 4.355c-32.891 4.534-66.905 10.556-103.95 18.42l.923 4.355zM843-228.813c33.167 4.088 67.149 9.682 103.816 17.088l-3.642 4.094 5.043 1.03 5.338-6.022-2.547-7.642-5.038-1.026s.983 2.947 1.74 5.201c-36.785-7.425-70.876-13.034-104.17-17.135l-.54 4.412zm-734.795 35.756l-1.926 5.147 5.073-.844 2.813-7.545-5.123-6.211-5.07.846s1.968 2.381 3.484 4.228c-36.192 5.97-70.45 10.12-104.653 12.661l.326 4.437c34.355-2.556 68.738-6.726 105.076-12.719zm129.892-26.92l-1.556 5.268 4.996-1.209 2.28-7.73-5.556-5.832-4.998 1.212s2.14 2.234 3.784 3.964c-39.202 9.421-72.02 16.496-103.177 22.252l.814 4.374c31.23-5.765 64.127-12.86 103.413-22.299zM843-270.913c33.167 4.094 67.149 9.683 103.816 17.083l-3.642 4.109 5.043 1.025 5.338-6.032-2.547-7.64-5.038-1.027s.983 2.951 1.74 5.215c-36.785-7.43-70.876-13.044-104.17-17.145l-.54 4.412zm-1002.462 95.134l5.118.363 4.518-6.671-3.524-7.242-5.13-.358s1.35 2.78 2.391 4.917c-34.198-2.54-68.455-6.677-104.657-12.646l-.73 4.39c36.349 5.992 70.741 10.14 105.091 12.698l-3.077 4.549zm135.764-2.902l-2.494 4.9 5.133-.269 3.647-7.181-4.391-6.752-5.133.277s1.682 2.588 2.99 4.588a1076.617 1076.617 0 0 1-52.756 1.312c-17.46 0-35.167-.438-52.627-1.302l-.219 4.442c17.532.864 35.313 1.312 52.846 1.312 17.574 0 35.397-.45 53.004-1.327zM756.96-308.51l2.496 4.897a1097.108 1097.108 0 0 0-52.663-1.281c-17.645 0-35.54.438-53.18 1.291l.215 4.452c17.57-.864 35.395-1.302 52.965-1.302 17.392 0 35.017.438 52.427 1.28l-2.98 4.59 5.133.265 4.381-6.757-3.662-7.174-5.132-.261zm132.51 13.85s1.103 2.907 1.94 5.137c-36.27-5.885-70.667-9.971-105.114-12.48l-.321 4.437c34.305 2.499 68.573 6.572 104.695 12.432l-3.475 4.238 5.075.836 5.111-6.226-2.835-7.537-5.076-.836zM313.379-238.72c17.425-4.407 35.422-8.96 53.236-13.365l-1.526 5.26 4.988-1.227 2.246-7.731-5.576-5.808-4.989 1.224 3.799 3.957c-17.834 4.404-35.844 8.968-53.274 13.375-16.106 4.084-32.764 8.307-49.206 12.375l1.073 4.325c16.454-4.078 33.11-8.301 49.229-12.385zm79.356-19.716c38.98-9.31 71.829-16.332 103.236-22.053l-1.857 5.154 5.056-.916 2.728-7.572-5.192-6.152-5.061.914s2.001 2.371 3.542 4.19c-31.49 5.744-64.416 12.771-103.493 22.113l1.041 4.322zm230.967-48.084l3.075 4.558c-34.423 2.524-68.827 6.612-105.101 12.522l.714 4.383c36.145-5.87 70.4-9.95 104.683-12.46l-2.397 4.917 5.125-.358 3.53-7.24-4.503-6.676-5.126.354zm-132.057 59.548s2.001 2.382 3.542 4.201c-31.49 5.738-64.416 12.77-103.493 22.102l1.041 4.338c38.98-9.324 71.829-16.332 103.236-22.068l-1.857 5.164 5.056-.911 2.728-7.577-5.192-6.152-5.061.903zm-170.527 27.344c34.519-8.742 68.348-17.225 102.367-24.912l-1.635 5.228 5.013-1.127 2.402-7.68-5.454-5.93-5.018 1.125s2.11 2.287 3.729 4.039c-34.086 7.707-67.94 16.197-102.502 24.947l1.098 4.31zM579.77-482.5c35.637-4.104 69.967-6.445 104.892-7.16l-2.656 4.783 5.145-.084 3.908-7.038-4.142-6.905-5.145.082 2.83 4.716c-35.074.714-69.554 3.06-105.342 7.186l.51 4.42zM449.628-250.276c36.931-7.839 70.848-13.846 103.612-18.368l-2.076 5.07 5.086-.69 3.057-7.445-4.924-6.378-5.086.692 3.358 4.344c-32.891 4.53-66.905 10.561-103.95 18.42l.923 4.355zm130.143-21.727c35.637-4.11 69.967-6.453 104.892-7.162l-2.656 4.78 5.145-.086 3.908-7.038-4.142-6.905-5.145.087s1.605 2.667 2.83 4.71c-35.074.715-69.554 3.061-105.342 7.187l.51 4.427zm-649.59 115.674c35.196-.222 69.7-2.148 105.426-5.87l-2.228 5.034 5.116-.548 3.258-7.373-4.747-6.503-5.113.548s1.828 2.503 3.231 4.43c-35.574 3.692-69.926 5.606-104.97 5.835l.027 4.447zm-132.195-7.28c35.799 4.132 70.263 6.448 105.308 7.105l-2.888 4.651 5.135.172 4.25-6.848-3.802-7.102-5.135-.164s1.479 2.744 2.596 4.845c-34.922-.647-69.272-2.962-104.958-7.088l-.506 4.43zm913.437-115.78c35.111.155 69.476 1.964 104.996 5.512l-3.219 4.432 5.116.535 4.724-6.527-3.29-7.348-5.11-.53s1.274 2.836 2.247 5.014c-35.672-3.566-70.183-5.39-105.447-5.535l-.017 4.447zm-518.845 90.973c35.91-7.91 71.704-16.844 102.569-24.64l-1.489 5.278 4.979-1.26 2.198-7.751-5.616-5.773-4.988 1.261s2.163 2.228 3.826 3.93c-30.835 7.794-66.58 16.707-102.44 24.62l.96 4.335zm518.845-301.462c35.111.145 69.476 1.954 104.996 5.512l-3.219 4.432 5.116.535 4.724-6.527-3.29-7.353-5.11-.525s1.274 2.837 2.247 5.014c-35.672-3.576-70.183-5.39-105.447-5.54l-.017 4.452zM62.255-165.27c33.106-4.22 67.177-9.964 104.098-17.552l-1.72 5.216 5.03-1.045 2.525-7.644-5.367-6.008-5.028 1.04s2.066 2.312 3.646 4.092c-36.804 7.562-70.76 13.288-103.744 17.486l.56 4.415zm-394.823 21.87c37.123 7.911 71.137 13.968 103.939 18.497l-3.363 4.345 5.095.697 4.929-6.373-3.057-7.45-5.09-.695s1.174 2.867 2.08 5.07c-32.691-4.522-66.593-10.557-103.607-18.445l-.926 4.355zm308.87 6.824l-2.494 4.9 5.133-.284 3.647-7.172-4.391-6.746-5.133.266s1.682 2.59 2.99 4.584a1064.363 1064.363 0 0 1-52.756 1.322c-17.46 0-35.167-.438-52.627-1.302l-.219 4.442c17.532.868 35.313 1.306 52.846 1.306 17.574 0 35.397-.443 53.004-1.316zm-135.764 2.897l5.118.358 4.518-6.667-3.524-7.241-5.13-.366s1.35 2.775 2.391 4.925c-34.198-2.548-68.455-6.68-104.657-12.647l-.73 4.393c36.349 5.987 70.741 10.138 105.091 12.69l-3.077 4.555zm-42.552 12.16c35.799 4.137 70.263 6.463 105.308 7.115l-2.888 4.646 5.135.167 4.25-6.833-3.802-7.107-5.135-.165s1.479 2.75 2.596 4.85c-34.922-.652-69.272-2.968-104.958-7.087l-.506 4.415zm132.195 7.284c35.196-.226 69.7-2.152 105.426-5.86l-2.228 5.02 5.116-.543 3.258-7.364-4.747-6.504-5.113.55s1.828 2.488 3.231 4.414c-35.574 3.698-69.926 5.617-104.97 5.84l.027 4.447zm-262.749-71.264c37.123 7.91 71.137 13.968 103.939 18.507l-3.363 4.344 5.095.682 4.929-6.368-3.057-7.455-5.09-.68 2.08 5.065c-32.691-4.522-66.593-10.557-103.607-18.445l-.926 4.35zm956.27-78.917l3.075 4.554c-34.423 2.519-68.827 6.617-105.101 12.512l.714 4.392c36.145-5.88 70.4-9.953 104.683-12.46l-2.397 4.918 5.125-.354 3.53-7.238-4.503-6.677-5.126.353zm133.258-2.005s1.413 2.78 2.496 4.897a1097.093 1097.093 0 0 0-52.663-1.272c-17.645 0-35.54.436-53.18 1.297l.215 4.437c17.57-.849 35.395-1.287 52.965-1.287 17.392 0 35.017.433 52.427 1.27l-2.98 4.59 5.133.27 4.381-6.757-3.662-7.174-5.132-.271zM313.379-196.62c17.425-4.412 35.422-8.97 53.236-13.366l-1.526 5.266 4.988-1.227 2.246-7.731-5.576-5.813-4.989 1.224s2.156 2.237 3.799 3.957c-17.834 4.404-35.844 8.963-53.274 13.38-16.106 4.084-32.764 8.296-49.206 12.37l1.073 4.315c16.454-4.074 33.11-8.291 49.229-12.375zm-75.282 18.74l-1.556 5.264 4.996-1.21 2.28-7.716-5.556-5.833-4.998 1.202 3.784 3.969c-39.202 9.418-72.02 16.496-103.177 22.244l.814 4.375c31.23-5.769 64.127-12.86 103.413-22.294zm-129.892 26.928l-1.926 5.141 5.073-.85 2.813-7.548-5.123-6.211-5.07.856s1.968 2.381 3.484 4.218c-36.192 5.972-70.45 10.118-104.653 12.676l.326 4.432c34.355-2.56 68.738-6.727 105.076-12.714zM889.47-252.57s1.103 2.917 1.94 5.152c-36.27-5.89-70.667-9.972-105.114-12.48l-.321 4.432c34.305 2.498 68.573 6.567 104.695 12.432l-3.475 4.228 5.075.841 5.111-6.226-2.835-7.537-5.076-.842zM111.352 21.732l2.813-7.542-5.123-6.211-5.07.85 3.484 4.224C71.264 19.02 37.006 23.17 2.803 25.713l.326 4.438c34.355-2.556 68.738-6.717 105.076-12.719l-1.926 5.156 5.073-.856zM449.628-376.57c36.931-7.838 70.848-13.845 103.612-18.367l-2.076 5.07 5.086-.685 3.057-7.45-4.924-6.384-5.086.697s1.9 2.454 3.358 4.345c-32.891 4.534-66.905 10.561-103.95 18.425l.923 4.35zm-609.09 411.28l5.118.364 4.518-6.672-3.524-7.236-5.13-.366 2.391 4.92c-34.198-2.543-68.455-6.68-104.657-12.639l-.73 4.385c36.349 5.997 70.741 10.143 105.091 12.696l-3.077 4.549zm135.764-2.896l-2.494 4.9 5.133-.274 3.647-7.174-4.391-6.754-5.133.272s1.682 2.585 2.99 4.588a1076.63 1076.63 0 0 1-52.756 1.317c-17.46 0-35.167-.438-52.627-1.307l-.219 4.452c17.532.864 35.313 1.301 52.846 1.301a1080.5 1080.5 0 0 0 53.004-1.32zM241.537-5.432l2.28-7.721-5.556-5.833-4.998 1.204s2.14 2.245 3.784 3.977C197.845-4.396 165.027 2.68 133.87 8.434l.814 4.375c31.23-5.764 64.127-12.86 103.413-22.294l-1.556 5.263 4.996-1.21zM759.22-88.688l-2.98 4.594 5.133.26 4.381-6.75-3.662-7.174-5.132-.267 2.496 4.9a1093.886 1093.886 0 0 0-52.663-1.284c-17.645 0-35.54.438-53.18 1.294l.215 4.452c17.57-.866 35.395-1.294 52.965-1.294 17.392 0 35.017.428 52.427 1.269zM629.8-82.472l3.53-7.231-4.503-6.68-5.126.361s1.743 2.581 3.075 4.56c-34.423 2.513-68.827 6.599-105.101 12.509l.714 4.384c36.145-5.872 70.4-9.948 104.683-12.457l-2.397 4.915 5.125-.36zM499.17-65.752l2.728-7.582-5.192-6.144-5.061.903s2.001 2.374 3.542 4.19c-31.49 5.746-64.416 12.784-103.493 22.116l1.041 4.324c38.98-9.311 71.829-16.329 103.236-22.055l-1.857 5.151 5.056-.903zm-132.555 24.16l-1.526 5.264 4.988-1.235 2.246-7.729-5.576-5.81-4.989 1.229s2.156 2.24 3.799 3.96c-17.834 4.404-35.844 8.958-53.274 13.375-16.106 4.073-32.764 8.296-49.206 12.375l1.073 4.315c16.454-4.076 33.11-8.3 49.229-12.383 17.425-4.41 35.422-8.963 53.236-13.36zm525.655-27.98l5.111-6.226-2.835-7.54-5.076-.836s1.103 2.916 1.94 5.144c-36.27-5.89-70.667-9.98-105.114-12.482l-.321 4.431c34.305 2.504 68.573 6.573 104.695 12.443l-3.475 4.23 5.075.836zM366.615.503l-1.526 5.263 4.988-1.224 2.246-7.734-5.576-5.813-4.989 1.227s2.156 2.234 3.799 3.956C347.723.58 329.713 5.15 312.283 9.556c-16.106 4.084-32.764 8.307-49.206 12.37l1.073 4.325c16.454-4.07 33.11-8.296 49.229-12.377 17.425-4.42 35.422-8.979 53.236-13.37zm-45.497-346.426c34.519-8.742 68.348-17.227 102.367-24.907l-1.635 5.224 5.013-1.123 2.402-7.689-5.454-5.92-5.018 1.12s2.11 2.292 3.729 4.044c-34.086 7.696-67.94 16.187-102.502 24.936l1.098 4.315zM499.17-23.657l2.728-7.577-5.192-6.154-5.061.913s2.001 2.374 3.542 4.19c-31.49 5.741-64.416 12.774-103.493 22.115l1.041 4.325c38.98-9.322 71.829-16.329 103.236-22.055l-1.857 5.151 5.056-.908zM192.578-314.705c35.91-7.916 71.704-16.844 102.569-24.65l-1.489 5.277 4.979-1.254 2.198-7.746-5.616-5.774-4.988 1.255 3.826 3.936c-30.835 7.787-66.58 16.708-102.44 24.611l.96 4.345zm-525.146 2.907c37.123 7.923 71.137 13.97 103.939 18.509l-3.363 4.345 5.095.689 4.929-6.37-3.057-7.451-5.09-.692s1.174 2.864 2.08 5.064c-32.691-4.519-66.593-10.556-103.607-18.44l-.926 4.346zm130.554 21.89c35.799 4.131 70.263 6.456 105.308 7.118l-2.888 4.64 5.135.17 4.25-6.843-3.802-7.095-5.135-.172s1.479 2.747 2.596 4.845c-34.922-.644-69.272-2.964-104.958-7.084l-.506 4.422zm-89.488 12.249l5.056.913 5.208-6.151-2.719-7.573-5.055-.92s1.04 2.916 1.847 5.158c-25.897-4.778-52.948-10.469-83.835-17.663v4.569c30.544 7.097 57.356 12.733 83.05 17.474l-3.552 4.193zm221.683-4.957c35.196-.234 69.7-2.158 105.426-5.873l-2.228 5.027 5.116-.55 3.258-7.364-4.747-6.502-5.113.545s1.828 2.498 3.231 4.422c-35.574 3.703-69.926 5.609-104.97 5.838l.027 4.457zm132.074-8.949c33.106-4.213 67.177-9.959 104.098-17.55l-1.72 5.215 5.03-1.045 2.525-7.65-5.367-6.007-5.028 1.05s2.066 2.31 3.646 4.081c-36.804 7.563-70.76 13.289-103.744 17.5l.56 4.406zM241.537 36.673l2.28-7.73-5.556-5.83-4.998 1.2 3.784 3.971c-39.202 9.42-72.02 16.501-103.177 22.245l.814 4.38c31.23-5.764 64.127-12.86 103.413-22.3l-1.556 5.264 4.996-1.2zm-533.039-19.651l5.056.92 5.208-6.144-2.719-7.582-5.055-.923s1.04 2.916 1.847 5.161C-313.062 3.671-340.113-2.02-371-9.209v4.569c30.544 7.097 57.356 12.736 83.05 17.469l-3.552 4.193zM192.578-356.8c35.91-7.925 71.704-16.854 102.569-24.645l-1.489 5.278 4.979-1.265 2.198-7.746-5.616-5.773-4.988 1.259s2.163 2.22 3.826 3.932c-30.835 7.788-66.58 16.707-102.44 24.615l.96 4.345zm827.23 299.14s.88 2.98 1.56 5.264c-39.07-9.322-71.98-16.35-103.47-22.075l-.797 4.374c31.408 5.716 64.244 12.724 103.227 22.026l-3.782 3.976 4.999 1.195 5.55-5.836-2.294-7.724-4.994-1.2zM-159.463 76.81l5.118.368 4.518-6.677-3.524-7.241-5.13-.366s1.35 2.775 2.391 4.925c-34.198-2.539-68.455-6.674-104.657-12.647l-.73 4.392c36.349 5.988 70.741 10.138 105.091 12.692l-3.077 4.553zm480.58-464.827c34.519-8.747 68.348-17.223 102.367-24.917l-1.635 5.223 5.013-1.117 2.402-7.69-5.454-5.925-5.018 1.132s2.11 2.28 3.729 4.037c-34.086 7.697-67.94 16.192-102.502 24.942l1.098 4.315zm-653.686 34.129c37.123 7.908 71.137 13.97 103.939 18.499l-3.363 4.345 5.095.69 4.929-6.376-3.057-7.446-5.09-.692 2.08 5.07c-32.691-4.52-66.593-10.557-103.607-18.445l-.926 4.355zm308.87 427.8l-2.494 4.9 5.133-.273 3.647-7.184-4.391-6.744-5.133.266s1.682 2.596 2.99 4.594a1076.617 1076.617 0 0 1-52.756 1.311c-17.46 0-35.167-.438-52.627-1.296l-.219 4.437c17.532.868 35.313 1.306 52.846 1.306 17.574 0 35.397-.443 53.004-1.316zM62.255-333.66c33.106-4.217 67.177-9.963 104.098-17.556l-1.72 5.211 5.03-1.04 2.525-7.65-5.367-6.007-5.028 1.046s2.066 2.309 3.646 4.086c-36.804 7.572-70.76 13.293-103.744 17.493l.56 4.417zm-264.269 1.653c35.799 4.136 70.263 6.455 105.308 7.112l-2.888 4.65 5.135.165 4.25-6.843-3.802-7.1-5.135-.172s1.479 2.753 2.596 4.853c-34.922-.652-69.272-2.961-104.958-7.077l-.506 4.412zm132.195 7.286c35.196-.229 69.7-2.152 105.426-5.865l-2.228 5.024 5.116-.545 3.258-7.363-4.747-6.508-5.113.545s1.828 2.499 3.231 4.422c-35.574 3.698-69.926 5.62-104.97 5.843l.027 4.447zM-291.502 59.126l5.056.911 5.208-6.149-2.719-7.582-5.055-.908s1.04 2.911 1.847 5.156c-25.897-4.778-52.948-10.48-83.835-17.668v4.573c30.544 7.093 57.356 12.736 83.05 17.474l-3.552 4.193zm1466.467-447.624a3377.704 3377.704 0 0 0 21.035 4.982v-4.574a3067.638 3067.638 0 0 1-20.004-4.728l-1.03 4.32zm0 378.88A2564.098 2564.098 0 0 0 1196-4.64v-4.57a2333.787 2333.787 0 0 1-20.004-4.732l-1.03 4.325zm-73.491-39.337c30.673 7.772 62.31 15.777 94.526 23.26v-4.567c-31.828-7.408-63.099-15.326-93.438-23.01l-1.088 4.317zm0-336.788c30.673 7.771 62.31 15.777 94.526 23.262v-4.559c-31.828-7.415-63.099-15.329-93.438-23.008l-1.088 4.305zM579.77-440.4c35.637-4.113 69.967-6.45 104.892-7.154l-2.656 4.78 5.145-.087 3.908-7.047-4.142-6.9-5.145.087s1.605 2.667 2.83 4.715c-35.074.71-69.554 3.056-105.342 7.182l.51 4.424zm-130.143 21.725c36.931-7.834 70.848-13.841 103.612-18.363l-2.076 5.064 5.086-.679 3.057-7.455-4.924-6.368-5.086.682s1.9 2.468 3.358 4.344c-32.891 4.54-66.905 10.566-103.95 18.425l.923 4.35zm261.795-29.108c35.111.15 69.476 1.959 104.996 5.517l-3.219 4.432 5.116.525 4.724-6.522-3.29-7.349-5.11-.535 2.247 5.025c-35.672-3.571-70.183-5.385-105.447-5.54l-.017 4.447zm261.59 31.056c35.276 7.67 70.074 16.257 102.482 24.414l-3.82 3.937 4.983 1.254 5.61-5.775-2.197-7.747-4.984-1.254s.847 2.984 1.494 5.278c-32.443-8.175-67.279-16.777-102.632-24.452l-.936 4.345zM843-439.302c33.167 4.088 67.149 9.683 103.816 17.088l-3.642 4.094 5.043 1.03 5.338-6.027-2.547-7.64-5.038-1.03s.983 2.954 1.74 5.208c-36.785-7.425-70.876-13.04-104.17-17.145l-.54 4.422zM111.352 63.828l2.813-7.538-5.123-6.212-5.07.846 3.484 4.218C71.264 61.115 37.006 65.261 2.803 67.82l.326 4.437c34.355-2.564 68.738-6.732 105.076-12.721l-1.926 5.143 5.073-.85zm1063.613-410.221c7.212 1.73 14.212 3.387 21.035 4.967v-4.569a2333.787 2333.787 0 0 1-20.004-4.733l-1.03 4.335zM-69.819-240.526c35.196-.224 69.7-2.148 105.426-5.868l-2.228 5.031 5.116-.545 3.258-7.368-4.747-6.507-5.113.55s1.828 2.498 3.231 4.422c-35.574 3.693-69.926 5.614-104.97 5.843l.027 4.442zm132.074-8.944c33.106-4.213 67.177-9.959 104.098-17.546l-1.72 5.21 5.03-1.04 2.525-7.649-5.367-6.007-5.028 1.04s2.066 2.314 3.646 4.091c-36.804 7.568-70.76 13.289-103.744 17.489l.56 4.412zm-264.269 1.662c35.799 4.131 70.263 6.455 105.308 7.107l-2.888 4.656 5.135.165 4.25-6.844-3.802-7.104-5.135-.167s1.479 2.752 2.596 4.85c-34.922-.65-69.272-2.964-104.958-7.085l-.506 4.422zM-23.698-10.287l-2.494 4.9 5.133-.274 3.647-7.179-4.391-6.749-5.133.277s1.682 2.59 2.99 4.583a1070.443 1070.443 0 0 1-52.756 1.312c-17.46 0-35.167-.438-52.627-1.292l-.219 4.437A1073.01 1073.01 0 0 0-76.702-8.96c17.574 0 35.397-.453 53.004-1.327zm216.276-262.318c35.91-7.92 71.704-16.854 102.569-24.646l-1.489 5.278 4.979-1.259 2.198-7.752-5.616-5.773-4.988 1.26s2.163 2.224 3.826 3.931c-30.835 7.789-66.58 16.708-102.44 24.616l.96 4.345zm-352.04 265.22l5.118.363 4.518-6.666-3.524-7.252-5.13-.356s1.35 2.77 2.391 4.915c-34.198-2.538-68.455-6.669-104.657-12.641l-.73 4.387c36.349 5.992 70.741 10.138 105.091 12.696l-3.077 4.554zm-173.106-262.309c37.123 7.909 71.137 13.97 103.939 18.505l-3.363 4.344 5.095.685 4.929-6.37-3.057-7.451-5.09-.687 2.08 5.064c-32.691-4.519-66.593-10.556-103.607-18.44l-.926 4.35zm41.066 244.62l5.056.917 5.208-6.15-2.719-7.582-5.055-.908s1.04 2.917 1.847 5.151c-25.897-4.773-52.948-10.469-83.835-17.658v4.564c30.544 7.097 57.356 12.736 83.05 17.479l-3.552 4.188zm0-210.495l5.056.923 5.208-6.15-2.719-7.579-5.055-.91s1.04 2.906 1.847 5.153c-25.897-4.773-52.948-10.48-83.835-17.663v4.569c30.544 7.097 57.356 12.733 83.05 17.476l-3.552 4.18zM759.22-46.583L756.24-42l5.133.267 4.381-6.756-3.662-7.175-5.132-.261 2.496 4.89a1106.89 1106.89 0 0 0-52.663-1.274c-17.645 0-35.54.438-53.18 1.299l.215 4.437c17.57-.851 35.395-1.29 52.965-1.29 17.392 0 35.017.439 52.427 1.28zM1101.474-6.86c30.673 7.771 62.31 15.777 94.526 23.265v-4.57c-31.828-7.41-63.099-15.318-93.438-23.008l-1.088 4.313zm73.491 39.343A2374.703 2374.703 0 0 0 1196 37.459v-4.573a3067.638 3067.638 0 0 1-20.004-4.728l-1.03 4.325zM973.013-332.532c35.276 7.67 70.074 16.254 102.482 24.419l-3.82 3.937 4.983 1.254 5.61-5.776-2.197-7.746-4.984-1.255s.847 2.98 1.494 5.278c-32.443-8.174-67.279-16.777-102.632-24.456l-.936 4.345zM843-355.108c33.167 4.089 67.149 9.683 103.816 17.084l-3.642 4.103 5.043 1.03 5.338-6.032-2.547-7.64-5.038-1.027s.983 2.951 1.74 5.21c-36.785-7.425-70.876-13.044-104.17-17.145l-.54 4.417zm49.27 327.631l5.111-6.226-2.835-7.535-5.076-.836s1.103 2.906 1.94 5.143c-36.27-5.885-70.667-9.973-105.114-12.482l-.321 4.437c34.305 2.494 68.573 6.567 104.695 12.43l-3.475 4.228 5.075.841zm-571.152-276.35c34.519-8.738 68.348-17.221 102.367-24.913l-1.635 5.228 5.013-1.122 2.402-7.684-5.454-5.93-5.018 1.13 3.729 4.033c-34.086 7.707-67.94 16.203-102.502 24.952l1.098 4.305zM1021.545-.797l5.55-5.835-2.294-7.73-4.994-1.194s.881 2.974 1.561 5.258c-39.07-9.331-71.98-16.349-103.47-22.08l-.797 4.38c31.408 5.711 64.244 12.723 103.227 22.025l-3.782 3.977 4.999 1.2zM579.77-356.2c35.637-4.113 69.967-6.455 104.892-7.16l-2.656 4.781 5.145-.087 3.908-7.042-4.142-6.9-5.145.086s1.605 2.663 2.83 4.706c-35.074.72-69.554 3.06-105.342 7.192l.51 4.424zm131.652-7.388c35.111.154 69.476 1.963 104.996 5.512l-3.219 4.432 5.116.535 4.724-6.523-3.29-7.348-5.11-.535s1.274 2.842 2.247 5.024c-35.672-3.576-70.183-5.395-105.447-5.54l-.017 4.443zm-261.795 29.112c36.931-7.833 70.848-13.84 103.612-18.362l-2.076 5.064 5.086-.684 3.057-7.45-4.924-6.374-5.086.687s1.9 2.464 3.358 4.345c-32.891 4.534-66.905 10.566-103.95 18.42l.923 4.354zM843-397.202c33.167 4.083 67.149 9.682 103.816 17.078l-3.642 4.108 5.043 1.026 5.338-6.027-2.547-7.64-5.038-1.03 1.74 5.208c-36.785-7.43-70.876-13.034-104.17-17.14l-.54 4.417zm331.965 92.899a2564.1 2564.1 0 0 0 21.035 4.977v-4.569a3067.638 3067.638 0 0 1-20.004-4.728l-1.03 4.32zm0 42.105a2781.43 2781.43 0 0 0 21.035 4.972v-4.57a2780.058 2780.058 0 0 1-20.004-4.732l-1.03 4.33zm-127.531-36.454l-1.066 4.318c18.02 4.446 36.242 9.063 53.866 13.524 15.914 4.032 32.351 8.195 48.604 12.226l-3.801 3.95 4.993 1.236 5.576-5.805-2.235-7.737-4.989-1.234s.859 2.973 1.526 5.268c-16.243-4.024-32.672-8.19-48.581-12.214-17.634-4.466-35.861-9.082-53.893-13.532zm127.531 78.548a2559.922 2559.922 0 0 0 21.035 4.972v-4.564a2780.112 2780.112 0 0 1-20.004-4.733l-1.03 4.325zM579.771-398.3c35.637-4.113 69.967-6.445 104.892-7.164l-2.656 4.783 5.145-.08 3.908-7.042-4.142-6.906-5.145.082 2.83 4.721c-35.074.71-69.554 3.06-105.342 7.182l.51 4.424zm131.652-7.378c35.111.144 69.476 1.953 104.996 5.512l-3.219 4.432 5.116.53 4.724-6.527-3.29-7.354-5.11-.525 2.247 5.014c-35.672-3.57-70.183-5.39-105.447-5.539l-.017 4.457zm390.05 62.035c30.674 7.769 62.31 15.777 94.527 23.262v-4.569c-31.828-7.406-63.099-15.319-93.438-23.008l-1.088 4.315zm73.492 165.632c7.212 1.747 14.212 3.399 21.035 4.982v-4.572a3242.114 3242.114 0 0 1-20.004-4.73l-1.03 4.32zM973.013-374.622c35.276 7.66 70.074 16.247 102.482 24.414l-3.82 3.932 4.983 1.26 5.61-5.782-2.197-7.746-4.984-1.26 1.494 5.279c-32.443-8.17-67.279-16.767-102.632-24.452l-.936 4.355zM629.801-40.367l3.53-7.237-4.503-6.679-5.126.356 3.075 4.554c-34.423 2.526-68.827 6.614-105.101 12.51l.714 4.4c36.145-5.886 70.4-9.95 104.683-12.468l-2.397 4.92 5.125-.356zm259.669-85.907s1.103 2.912 1.94 5.144c-36.27-5.88-70.667-9.974-105.114-12.482l-.321 4.442c34.305 2.488 68.573 6.567 104.695 12.43l-3.475 4.232 5.075.837 5.111-6.222-2.835-7.54-5.076-.84zm-390.3 18.422l2.728-7.577-5.192-6.154-5.061.908s2.001 2.374 3.542 4.196c-31.49 5.74-64.416 12.773-103.493 22.11l1.041 4.325c38.98-9.312 71.829-16.33 103.236-22.055l-1.857 5.156 5.056-.909zM241.537-47.526l2.28-7.727-5.556-5.833-4.998 1.204 3.784 3.972c-39.202 9.419-72.02 16.5-103.177 22.244l.814 4.38c31.23-5.768 64.127-12.86 103.413-22.304l-1.556 5.268 4.996-1.204zm125.078-36.17l-1.526 5.268 4.988-1.224 2.246-7.74-5.576-5.81-4.989 1.224s2.156 2.245 3.799 3.962c-17.834 4.402-35.844 8.966-53.274 13.378-16.106 4.083-32.764 8.301-49.206 12.37l1.073 4.322c16.454-4.073 33.11-8.294 49.229-12.375 17.425-4.414 35.422-8.978 53.236-13.375zM629.8-124.562l3.53-7.241-4.503-6.68-5.126.362s1.743 2.575 3.075 4.554c-34.423 2.523-68.827 6.614-105.101 12.51l.714 4.399c36.145-5.886 70.4-9.954 104.683-12.473l-2.397 4.925 5.125-.356zm545.164-11.345A2555.8 2555.8 0 0 0 1196-130.94v-4.558a3073.963 3073.963 0 0 1-20.004-4.734l-1.03 4.325zm-73.491 44.852c30.673 7.767 62.31 15.777 94.526 23.26v-4.561c-31.828-7.413-63.099-15.327-93.438-23.011l-1.088 4.312zM759.22-130.783l-2.98 4.594 5.133.261 4.381-6.761-3.662-7.172-5.132-.264 2.496 4.895a1100.349 1100.349 0 0 0-52.663-1.279c-17.645 0-35.54.438-53.18 1.304l.215 4.442c17.57-.856 35.395-1.294 52.965-1.294 17.392 0 35.017.438 52.427 1.274zm415.745 36.966A2568.288 2568.288 0 0 0 1196-88.835v-4.571a2650.903 2650.903 0 0 1-20.004-4.73l-1.03 4.32zm-155.158-5.937l1.561 5.263c-39.07-9.327-71.98-16.354-103.47-22.08l-.797 4.38c31.408 5.71 64.244 12.718 103.227 22.02l-3.782 3.976 4.999 1.205 5.55-5.84-2.294-7.73-4.994-1.194zM108.205-24.662l-1.926 5.146 5.073-.846 2.813-7.548-5.123-6.211-5.07.846 3.484 4.223C71.264-23.08 37.006-18.93 2.803-16.381l.326 4.442c34.355-2.56 68.738-6.731 105.076-12.723zM889.47-336.765s1.103 2.916 1.94 5.146c-36.27-5.89-70.667-9.971-105.114-12.48l-.321 4.442c34.305 2.489 68.573 6.567 104.695 12.428l-3.475 4.228 5.075.84 5.111-6.23-2.835-7.533-5.076-.841zm157.964 290.707l-1.066 4.315c18.02 4.437 36.242 9.06 53.866 13.522 15.914 4.034 32.351 8.195 48.604 12.228l-3.801 3.947 4.993 1.234 5.576-5.803-2.235-7.736-4.989-1.232s.859 2.976 1.526 5.265c-16.243-4.026-32.672-8.184-48.581-12.22-17.634-4.462-35.861-9.083-53.893-13.52zm-74.42 8.214c35.275 7.67 70.073 16.257 102.481 24.422l-3.82 3.932 4.983 1.254 5.61-5.773-2.197-7.752-4.984-1.254s.847 2.979 1.494 5.278c-32.443-8.17-67.279-16.775-102.632-24.452l-.936 4.345zM917.1-448.98c31.408 5.716 64.244 12.721 103.227 22.023l-3.782 3.987 4.999 1.194 5.55-5.843-2.294-7.716-4.994-1.207s.881 2.986 1.561 5.265c-39.07-9.327-71.98-16.356-103.47-22.075l-.797 4.372zm130.333 24.031l-1.066 4.32c18.02 4.442 36.242 9.06 53.866 13.525 15.914 4.031 32.351 8.195 48.604 12.226l-3.801 3.954 4.993 1.232 5.576-5.803-2.235-7.734-4.989-1.235s.859 2.974 1.526 5.263c-16.243-4.023-32.672-8.19-48.581-12.218-17.634-4.462-35.861-9.083-53.893-13.53zM687.152-63.983l3.908-7.032-4.142-6.913-5.145.087s1.605 2.67 2.83 4.72c-35.074.705-69.554 3.052-105.342 7.185l.51 4.422c35.637-4.111 69.967-6.455 104.892-7.164l-2.656 4.782 5.145-.087zm98.823-401.973c34.305 2.498 68.573 6.567 104.695 12.427l-3.475 4.233 5.075.841 5.111-6.226-2.835-7.537-5.076-.841s1.103 2.916 1.94 5.143c-36.27-5.882-70.667-9.974-105.114-12.472l-.321 4.432zm157.2 426.721l5.042 1.025 5.338-6.022-2.547-7.64-5.038-1.03 1.74 5.211c-36.785-7.433-70.876-13.047-104.17-17.143l-.54 4.407c33.167 4.094 67.149 9.683 103.816 17.091l-3.642 4.101zM892.27 14.628l5.111-6.231-2.835-7.535L889.47.02s1.103 2.916 1.94 5.138C855.14-.72 820.742-4.815 786.295-7.313l-.321 4.432C820.28-.383 854.548 3.691 890.67 9.554l-3.475 4.233 5.075.84zM813.2-58.948l5.116.525 4.724-6.528-3.29-7.348-5.11-.525s1.274 2.834 2.247 5.017c-35.672-3.574-70.183-5.39-105.447-5.542l-.017 4.447c35.111.156 69.476 1.963 104.996 5.522l-3.219 4.432zM134.684-366.072c31.23-5.77 64.127-12.86 103.413-22.294l-1.556 5.263 4.996-1.21 2.28-7.718-5.556-5.843-4.998 1.212 3.784 3.966c-39.202 9.42-72.02 16.499-103.177 22.25l.814 4.374zm-264.013 14.575l-.219 4.437c17.532.871 35.313 1.314 52.846 1.314 17.574 0 35.397-.453 53.004-1.326l-2.494 4.907 5.133-.281 3.647-7.174-4.391-6.747-5.133.269s1.682 2.59 2.99 4.581a1067.413 1067.413 0 0 1-52.756 1.324c-17.46 0-35.167-.448-52.627-1.304zm-233.148-4.13l5.014 1.132 5.459-5.92-2.397-7.695-5.014-1.117s.929 2.951 1.636 5.226c-4.416-.998-8.82-2.013-13.221-3.039v4.57c4.08.947 8.152 1.88 12.247 2.814l-3.724 4.028zm203.015 11.456l5.118.364 4.518-6.67-3.524-7.24-5.13-.364s1.35 2.774 2.391 4.922c-34.198-2.546-68.455-6.677-104.657-12.651l-.73 4.39c36.349 5.991 70.741 10.147 105.091 12.698l-3.077 4.551zM3.13-348.727c34.355-2.56 68.738-6.731 105.076-12.724l-1.926 5.151 5.073-.848 2.813-7.55-5.123-6.211-5.07.856s1.968 2.381 3.484 4.218c-36.192 5.974-70.45 10.12-104.653 12.666l.326 4.442zM551.164-53.086l5.086-.691 3.057-7.446-4.924-6.375-5.086.689s1.9 2.459 3.358 4.35c-32.891 4.524-66.905 10.556-103.95 18.424l.923 4.35c36.931-7.843 70.848-13.85 103.612-18.37l-2.076 5.07zM392.735-426.83c38.98-9.312 71.829-16.332 103.236-22.058l-1.857 5.159 5.056-.906 2.728-7.58-5.192-6.154-5.061.909s2.001 2.381 3.542 4.195c-31.49 5.744-64.416 12.77-103.493 22.108l1.041 4.327zm129.655-26.617c36.145-5.88 70.4-9.953 104.683-12.46l-2.397 4.913 5.125-.353 3.53-7.244-4.503-6.667-5.126.354 3.075 4.553c-34.423 2.519-68.827 6.612-105.101 12.512l.714 4.392zM1021.545 41.3l5.55-5.84-2.294-7.72-4.994-1.204s.881 2.984 1.561 5.268c-39.07-9.327-71.98-16.354-103.47-22.075l-.797 4.375c31.408 5.716 64.244 12.718 103.227 22.02l-3.782 3.982 4.999 1.194zM-362.477 65.358l5.014 1.127 5.459-5.923-2.397-7.684-5.014-1.127s.929 2.953 1.636 5.228c-4.416-1-8.82-2.016-13.221-3.038v4.563c4.08.948 8.152 1.887 12.247 2.815l-3.724 4.039zM263.077-399.05l1.073 4.315c16.454-4.073 33.11-8.291 49.229-12.372 17.425-4.415 35.422-8.974 53.236-13.376l-1.526 5.268 4.988-1.224 2.246-7.74-5.576-5.812-4.989 1.224s2.156 2.247 3.799 3.967c-17.834 4.4-35.844 8.963-53.274 13.38-16.106 4.079-32.764 8.297-49.206 12.37zm390.537-72.944l.214 4.442c17.57-.854 35.395-1.287 52.965-1.287 17.392 0 35.017.433 52.427 1.27l-2.98 4.59 5.133.264 4.381-6.75-3.662-7.175-5.132-.271s1.413 2.78 2.496 4.897a1097.109 1097.109 0 0 0-52.663-1.281c-17.645 0-35.54.438-53.18 1.301zM392.735-384.73c38.98-9.312 71.829-16.332 103.236-22.053l-1.857 5.159 5.056-.916 2.728-7.572-5.192-6.152-5.061.908s2.001 2.367 3.542 4.196c-31.49 5.733-64.416 12.77-103.493 22.102l1.041 4.328zM263.077-356.95l1.073 4.315c16.454-4.074 33.11-8.292 49.229-12.375 17.425-4.417 35.422-8.971 53.236-13.37l-1.526 5.265 4.988-1.227 2.246-7.736-5.576-5.809-4.989 1.225s2.156 2.242 3.799 3.961c-17.834 4.405-35.844 8.959-53.274 13.376-16.106 4.083-32.764 8.301-49.206 12.375zm-128.393 32.972c31.23-5.76 64.127-12.85 103.413-22.294l-1.556 5.263 4.996-1.204 2.28-7.73-5.556-5.832-4.998 1.206s2.14 2.245 3.784 3.975c-39.202 9.42-72.02 16.496-103.177 22.241l.814 4.375zm387.706-87.37c36.145-5.88 70.4-9.959 104.683-12.464l-2.397 4.922 5.125-.359 3.53-7.244-4.503-6.676-5.126.358s1.743 2.58 3.075 4.56c-34.423 2.517-68.827 6.611-105.101 12.511l.714 4.392zm497.417 16.904s.881 2.977 1.561 5.261c-39.07-9.322-71.98-16.347-103.47-22.075l-.797 4.372c31.408 5.716 64.244 12.726 103.227 22.033l-3.782 3.971 4.999 1.205 5.55-5.848-2.294-7.722-4.994-1.197zm27.627 11.6l-1.066 4.314c18.02 4.442 36.242 9.06 53.866 13.52 15.914 4.036 32.351 8.194 48.604 12.23l-3.801 3.945 4.993 1.244 5.576-5.81-2.235-7.74-4.989-1.229s.859 2.979 1.526 5.263c-16.243-4.024-32.672-8.18-48.581-12.208-17.634-4.472-35.861-9.088-53.893-13.53zm127.531 331.131c7.212 1.737 14.212 3.39 21.035 4.972v-4.569c-6.497-1.51-13.148-3.08-20.004-4.723l-1.03 4.32zm-388.99-372.144c34.305 2.493 68.573 6.572 104.695 12.432l-3.475 4.228 5.075.836 5.111-6.226-2.835-7.538-5.076-.83s1.103 2.91 1.94 5.138c-36.27-5.893-70.667-9.974-105.114-12.482l-.321 4.442zM3.129-306.635c34.355-2.558 68.738-6.719 105.076-12.716l-1.926 5.151 5.073-.853 2.813-7.545-5.123-6.212-5.07.852 3.484 4.222c-36.192 5.97-70.45 10.121-104.653 12.667l.326 4.434zm650.485-123.258l.214 4.442a1096.68 1096.68 0 0 1 52.965-1.292c17.392 0 35.017.428 52.427 1.274l-2.98 4.586 5.133.274 4.381-6.76-3.662-7.175-5.132-.261 2.496 4.892a1097.1 1097.1 0 0 0-52.663-1.277 1099 1099 0 0 0-53.18 1.297zm-1016.09 116.37l5.013 1.122 5.459-5.92-2.397-7.684-5.014-1.132s.929 2.966 1.636 5.24c-4.416-1.012-8.82-2.023-13.221-3.043v4.564c4.08.948 8.152 1.891 12.247 2.814l-3.724 4.04zM35.606 48.3l-2.228 5.024 5.116-.547 3.258-7.363-4.747-6.515-5.113.555s1.828 2.498 3.231 4.422C-.45 47.57-34.802 49.484-69.846 49.713l.027 4.446c35.196-.223 69.7-2.147 105.426-5.86zm129.026-15.413l5.03-1.048 2.525-7.647-5.367-6.007-5.028 1.04s2.066 2.314 3.646 4.094C128.635 30.88 94.68 36.606 61.695 40.804l.56 4.42c33.106-4.226 67.177-9.96 104.098-17.552l-1.72 5.214zM756.24.106l5.133.26 4.381-6.756-3.662-7.174-5.132-.266 2.496 4.9a1093.886 1093.886 0 0 0-52.663-1.284c-17.645 0-35.54.437-53.18 1.299l.215 4.446a1087.17 1087.17 0 0 1 52.965-1.289c17.392 0 35.017.428 52.427 1.264l-2.98 4.6zM298.637 1.45l2.198-7.754-5.616-5.773-4.988 1.264s2.163 2.225 3.826 3.927c-30.835 7.796-66.58 16.71-102.44 24.623l.96 4.345c35.911-7.918 71.705-16.847 102.57-24.653l-1.489 5.28 4.979-1.259zM-94.46 58.805l4.25-6.843-3.802-7.094-5.135-.17s1.479 2.74 2.596 4.845c-34.922-.652-69.272-2.966-104.958-7.087l-.506 4.425c35.799 4.13 70.263 6.452 105.308 7.114l-2.888 4.641 5.135.17zm517.944-92.859l-1.635 5.236 5.013-1.125 2.402-7.687-5.454-5.92-5.018 1.117s2.11 2.285 3.729 4.044c-34.086 7.7-67.94 16.19-102.502 24.937l1.098 4.318c34.519-8.745 68.348-17.23 102.367-24.92zm-582.947-268.015l5.118.361 4.518-6.679-3.524-7.236-5.13-.363s1.35 2.78 2.391 4.917c-34.198-2.541-68.455-6.677-104.657-12.637l-.73 4.385c36.349 5.997 70.741 10.143 105.091 12.694l-3.077 4.558zM-332.568 24.99c37.123 7.91 71.137 13.967 103.939 18.506l-3.363 4.345 5.095.682 4.929-6.363-3.057-7.46-5.09-.68s1.174 2.862 2.08 5.064c-32.691-4.521-66.593-10.556-103.607-18.444l-.926 4.35zm-29.909-1.732l5.014 1.127 5.459-5.917-2.397-7.69-5.014-1.127s.929 2.954 1.636 5.228c-4.416-1-8.82-2.01-13.221-3.043v4.574c4.08.948 8.152 1.89 12.247 2.814l-3.724 4.034zm338.78-328.233l-2.495 4.9 5.133-.267 3.647-7.179-4.391-6.756-5.133.274s1.682 2.585 2.99 4.591a1067.39 1067.39 0 0 1-52.756 1.314c-17.46 0-35.167-.438-52.627-1.309l-.219 4.452a1076.08 1076.08 0 0 0 52.846 1.304c17.574 0 35.397-.448 53.004-1.324zm26.826-85.852c34.355-2.556 68.738-6.726 105.076-12.718l-1.926 5.148 5.073-.856 2.813-7.535-5.123-6.221-5.07.856s1.968 2.381 3.484 4.218c-36.192 5.97-70.45 10.12-104.653 12.671l.326 4.437zm28.764 514.48s1.828 2.493 3.231 4.416c-35.574 3.7-69.926 5.614-104.97 5.838l.027 4.452c35.196-.229 69.7-2.152 105.426-5.86l-2.228 5.019 5.116-.548 3.258-7.358-4.747-6.515-5.113.555zm129.9-20.23s2.066 2.31 3.646 4.09c-36.804 7.566-70.76 13.292-103.744 17.49l.56 4.412c33.106-4.217 67.177-9.96 104.098-17.553l-1.72 5.218 5.03-1.047 2.525-7.647-5.367-6.008-5.028 1.046zm-260.939 25.47s1.479 2.74 2.596 4.85c-34.922-.657-69.272-2.966-104.958-7.087l-.506 4.42c35.799 4.135 70.263 6.457 105.308 7.109l-2.888 4.646 5.135.169 4.25-6.838-3.802-7.105-5.135-.164zm389.377-55.505l3.826 3.927c-30.835 7.796-66.58 16.71-102.44 24.623l.96 4.345c35.911-7.923 71.705-16.857 102.57-24.653l-1.489 5.278 4.979-1.262 2.198-7.75-5.616-5.772-4.988 1.264zM-23.698-389.17l-2.494 4.9 5.133-.266 3.647-7.184-4.391-6.751-5.133.268s1.682 2.596 2.99 4.596a1073.528 1073.528 0 0 1-52.756 1.314c-17.46 0-35.167-.438-52.627-1.309l-.219 4.447a1076.08 1076.08 0 0 0 52.846 1.304c17.574 0 35.397-.443 53.004-1.319zM1047.434-88.163l-1.066 4.315c18.02 4.447 36.242 9.065 53.866 13.532 15.914 4.03 32.351 8.195 48.604 12.219l-3.801 3.961 4.993 1.23 5.576-5.809-2.235-7.736-4.989-1.237s.859 2.986 1.526 5.276c-16.243-4.032-32.672-8.19-48.581-12.221-17.634-4.465-35.861-9.083-53.893-13.53zM-159.462-386.266l5.118.364 4.518-6.68-3.524-7.236-5.13-.368 2.391 4.922c-34.198-2.536-68.455-6.671-104.657-12.641l-.73 4.39c36.349 5.992 70.741 10.142 105.091 12.688l-3.077 4.561zm-70.654 504.48l2.082 5.07c-32.692-4.522-66.594-10.559-103.608-18.45l-.926 4.355c37.123 7.911 71.137 13.968 103.939 18.502l-3.363 4.345 5.095.687 4.929-6.373-3.057-7.45-5.09-.685zm1331.59-40.88c30.673 7.777 62.31 15.777 94.526 23.265v-4.564c-31.828-7.415-63.099-15.324-93.438-23.008l-1.088 4.308zm43.563-5.18l4.993 1.234 5.576-5.803-2.235-7.74-4.989-1.234s.859 2.977 1.526 5.27c-16.243-4.025-32.672-8.189-48.581-12.22-17.634-4.462-35.861-9.088-53.893-13.53l-1.066 4.32c18.02 4.437 36.242 9.066 53.866 13.528 15.914 4.028 32.351 8.194 48.604 12.223l-3.801 3.952zm-69.95-10.975s.847 2.984 1.494 5.278c-32.443-8.17-67.279-16.774-102.632-24.449l-.936 4.348c35.276 7.67 70.074 16.252 102.482 24.416l-3.82 3.932 4.983 1.254 5.61-5.773-2.197-7.751-4.984-1.255zM-362.477-397.717l5.014 1.117 5.459-5.92-2.397-7.68-5.014-1.132s.929 2.961 1.636 5.236c-4.416-1.008-8.82-2.023-13.221-3.043v4.568c4.08.943 8.152 1.887 12.247 2.81l-3.724 4.044zm70.975-6.237l5.056.909 5.208-6.142-2.719-7.582-5.055-.913s1.04 2.909 1.847 5.156C-313.062-417.304-340.113-423-371-430.194v4.573c30.544 7.093 57.356 12.739 83.05 17.474l-3.552 4.193zM-359.415 93.85s.929 2.954 1.636 5.229c-4.416-1-8.82-2.013-13.221-3.044v4.57c4.08.952 8.152 1.885 12.247 2.819l-3.724 4.028 5.014 1.133 5.459-5.92-2.397-7.692-5.014-1.123zm778.208-52.083l3.729 4.039c-34.086 7.699-67.94 16.19-102.502 24.937l1.098 4.317c34.519-8.75 68.348-17.225 102.367-24.914l-1.635 5.23 5.013-1.12 2.402-7.691-5.454-5.925-5.018 1.127zm756.172 32.815c7.212 1.732 14.212 3.39 21.035 4.977V74.99a2780.058 2780.058 0 0 1-20.004-4.733l-1.03 4.325zM681.773 6.354l2.83 4.72c-35.074.705-69.554 3.056-105.342 7.18l.51 4.426c35.637-4.11 69.967-6.45 104.892-7.159l-2.656 4.783 5.145-.087 3.908-7.042-4.142-6.908-5.145.087zM549.297 17.285s1.9 2.464 3.358 4.345c-32.891 4.534-66.905 10.561-103.95 18.43l.923 4.345c36.931-7.839 70.848-13.846 103.612-18.365l-2.076 5.069 5.086-.687 3.057-7.45-4.924-6.37-5.086.683zM945.97 31.288s.983 2.954 1.74 5.216c-36.785-7.433-70.876-13.042-104.17-17.143l-.54 4.412c33.167 4.093 67.149 9.683 103.816 17.09l-3.642 4.097 5.043 1.025 5.338-6.027-2.547-7.63-5.038-1.04zM814.64 11.365l2.247 5.022c-35.672-3.568-70.183-5.385-105.447-5.542l-.017 4.452c35.111.152 69.476 1.959 104.996 5.517l-3.219 4.432 5.116.525 4.724-6.527-3.29-7.349-5.11-.53zm334.198-448.343l-3.801 3.954 4.993 1.237 5.576-5.813-2.235-7.734-4.989-1.23s.859 2.98 1.526 5.269a10281.183 10281.183 0 0 1-48.581-12.219c-17.634-4.471-35.861-9.083-53.893-13.53l-1.066 4.316c18.02 4.446 36.242 9.06 53.866 13.522 15.914 4.034 32.351 8.194 48.604 12.228zM943.174 2.865l5.043 1.03 5.338-6.032-2.547-7.64-5.038-1.025s.983 2.944 1.74 5.201c-36.785-7.418-70.876-13.037-104.17-17.138l-.54 4.417c33.167 4.089 67.149 9.683 103.816 17.086l-3.642 4.1zm-519.689 5.18l-1.635 5.232 5.013-1.125 2.402-7.682-5.454-5.93-5.018 1.127s2.11 2.285 3.729 4.034c-34.086 7.71-67.94 16.195-102.502 24.952l1.098 4.307c34.519-8.74 68.348-17.22 102.367-24.914zm263.667-29.923l3.908-7.042-4.142-6.903-5.145.077 2.83 4.716c-35.074.719-69.554 3.06-105.342 7.194l.51 4.412c35.637-4.101 69.967-6.445 104.892-7.155l-2.656 4.788 5.145-.087zm126.048 5.02l5.116.534 4.724-6.522-3.29-7.348-5.11-.535 2.247 5.016c-35.672-3.573-70.183-5.385-105.447-5.531l-.017 4.441c35.111.147 69.476 1.964 104.996 5.512l-3.219 4.432zm-262.036 5.872l5.086-.687 3.057-7.45-4.924-6.37-5.086.684 3.358 4.345c-32.891 4.534-66.905 10.566-103.95 18.42l.923 4.354c36.931-7.834 70.848-13.84 103.612-18.362l-2.076 5.066zM-94.459 100.898l4.25-6.836-3.802-7.105-5.135-.164s1.479 2.75 2.596 4.85c-34.922-.652-69.272-2.971-104.958-7.087l-.506 4.415c35.799 4.14 70.263 6.462 105.308 7.114l-2.888 4.646 5.135.167zM35.607 90.394l-2.228 5.03 5.116-.553 3.258-7.364-4.747-6.504-5.113.55s1.828 2.488 3.231 4.414c-35.574 3.703-69.926 5.616-104.97 5.84l.027 4.452c35.196-.224 69.7-2.147 105.426-5.865zm263.03-46.838l2.198-7.754-5.616-5.773-4.988 1.26s2.163 2.224 3.826 3.93c-30.835 7.787-66.58 16.71-102.44 24.614l.96 4.345c35.911-7.918 71.705-16.852 102.57-24.643l-1.489 5.278 4.979-1.257zm802.837-8.311c30.673 7.766 62.31 15.777 94.526 23.26v-4.57c-31.828-7.405-63.099-15.328-93.438-23.008l-1.088 4.318zM164.633 74.98l5.03-1.037 2.525-7.652-5.367-6.017-5.028 1.05s2.066 2.314 3.646 4.093C128.635 72.98 94.68 78.706 61.695 82.904l.56 4.414c33.106-4.215 67.177-9.959 104.098-17.546l-1.72 5.208zm-497.2-7.89c37.122 7.91 71.136 13.967 103.938 18.506l-3.363 4.345 5.095.687 4.929-6.373-3.057-7.45-5.09-.695s1.174 2.867 2.08 5.074c-32.691-4.526-66.593-10.558-103.607-18.44l-.926 4.346zM522.39-495.546c36.145-5.88 70.4-9.954 104.683-12.46l-2.397 4.917 5.125-.358 3.53-7.24-4.503-6.676-5.126.354s1.743 2.588 3.075 4.559c-34.423 2.523-68.827 6.611-105.101 12.512l.714 4.392zm-129.655 26.621c38.98-9.317 71.829-16.331 103.236-22.052l-1.857 5.153 5.056-.913 2.728-7.573-5.192-6.153-5.061.913 3.542 4.19c-31.49 5.734-64.416 12.771-103.493 22.103l1.041 4.332zm314.058-42.017c17.392 0 35.017.433 52.427 1.279l-2.98 4.581 5.133.274 4.381-6.756-3.662-7.175-5.132-.261 2.496 4.89a1093.87 1093.87 0 0 0-52.663-1.274c-17.645 0-35.54.438-53.18 1.291l.215 4.442a1096.68 1096.68 0 0 1 52.965-1.291zm469.203 76.02l-1.03 4.33a2559.943 2559.943 0 0 0 21.034 4.971v-4.573a2533.096 2533.096 0 0 1-20.004-4.728zm-862.617-14.284c17.425-4.415 35.422-8.974 53.236-13.368l-1.526 5.26 4.988-1.224 2.246-7.734-5.576-5.808-4.989 1.224s2.156 2.237 3.799 3.957c-17.834 4.404-35.844 8.963-53.274 13.375-16.106 4.084-32.764 8.307-49.206 12.375l1.073 4.315c16.454-4.068 33.11-8.291 49.229-12.372zM1047.434-3.968l-1.066 4.315c18.02 4.451 36.242 9.065 53.866 13.532 15.914 4.024 32.351 8.194 48.604 12.218l-3.801 3.962 4.993 1.23 5.576-5.809-2.235-7.734-4.989-1.234s.859 2.986 1.526 5.27c-16.243-4.031-32.672-8.184-48.581-12.22-17.634-4.465-35.861-9.079-53.893-13.53zm-160.24-487.428l5.076.837 5.111-6.222-2.835-7.542-5.076-.826s1.103 2.906 1.94 5.138c-36.27-5.887-70.667-9.973-105.114-12.482l-.321 4.437c34.305 2.499 68.573 6.572 104.695 12.433l-3.475 4.227zm189.464 525.26l5.61-5.784-2.197-7.739-4.984-1.261s.847 2.988 1.494 5.278c-32.443-8.175-67.279-16.77-102.632-24.452l-.936 4.35c35.276 7.664 70.074 16.252 102.482 24.417l-3.82 3.926 4.983 1.265zm-60.112-498.94l4.999 1.2 5.55-5.843-2.294-7.721-4.994-1.197s.881 2.976 1.561 5.265c-39.07-9.331-71.98-16.351-103.47-22.085l-.797 4.382c31.408 5.707 64.244 12.717 103.227 22.028l-3.782 3.972zm-881.862 56.9c31.23-5.756 64.127-12.85 103.413-22.29l-1.556 5.259 4.996-1.2 2.28-7.73-5.556-5.832-4.998 1.202s2.14 2.245 3.784 3.976c-39.202 9.42-72.02 16.494-103.177 22.24l.814 4.375zm-158.382 187.4l-2.494 4.9 5.133-.271 3.647-7.18-4.391-6.75-5.133.273s1.682 2.586 2.99 4.582a1061.332 1061.332 0 0 1-52.756 1.319c-17.46 0-35.167-.438-52.627-1.304l-.219 4.446a1069.94 1069.94 0 0 0 52.846 1.31c17.574 0 35.397-.449 53.004-1.325zm286.775-51.978l1.073 4.315c16.454-4.08 33.11-8.297 49.229-12.37 17.425-4.423 35.422-8.976 53.236-13.376l-1.526 5.27 4.988-1.226 2.246-7.737-5.576-5.813-4.989 1.224s2.156 2.242 3.799 3.962c-17.834 4.405-35.844 8.958-53.274 13.38-16.106 4.084-32.764 8.292-49.206 12.37zm-24.98 10.678l-1.556 5.268 4.996-1.205 2.28-7.729-5.556-5.833-4.998 1.207 3.784 3.97c-39.202 9.42-72.02 16.49-103.177 22.246l.814 4.375c31.23-5.766 64.127-12.86 103.413-22.3zm-600.574 159.04l5.014 1.132 5.459-5.918-2.397-7.694-5.014-1.132s.929 2.963 1.636 5.238c-4.416-1.01-8.82-2.01-13.221-3.044v4.57c4.08.952 8.152 1.885 12.247 2.809l-3.724 4.038zm470.682-132.115l-1.926 5.146 5.073-.849 2.813-7.55-5.123-6.211-5.07.851 3.484 4.223c-36.192 5.975-70.45 10.12-104.653 12.671l.326 4.432c34.355-2.555 68.738-6.721 105.076-12.713zm284.53-65.38c38.98-9.319 71.829-16.331 103.236-22.057l-1.857 5.158 5.056-.91 2.728-7.578-5.192-6.151-5.061.903s2.001 2.376 3.542 4.2c-31.49 5.739-64.416 12.771-103.493 22.103l1.041 4.332zm627.072-9.712s.881 2.976 1.561 5.26c-39.07-9.326-71.98-16.351-103.47-22.077l-.797 4.375c31.408 5.716 64.244 12.72 103.227 22.027l-3.782 3.977 4.999 1.204 5.55-5.852-2.294-7.717-4.994-1.197zM756.96-350.611l2.496 4.892a1097.1 1097.1 0 0 0-52.663-1.276c-17.645 0-35.54.438-53.18 1.301l.215 4.437c17.57-.848 35.395-1.286 52.965-1.286 17.392 0 35.017.428 52.427 1.274l-2.98 4.586 5.133.269 4.381-6.761-3.662-7.175-5.132-.26zm-234.57 23.464c36.145-5.885 70.4-9.964 104.683-12.47l-2.397 4.922 5.125-.353 3.53-7.244-4.503-6.677-5.126.359s1.743 2.575 3.075 4.554c-34.423 2.523-68.827 6.617-105.101 12.512l.714 4.397zm-813.892 7.388l5.056.913 5.208-6.141-2.719-7.583-5.055-.915s1.04 2.906 1.847 5.153c-25.897-4.773-52.948-10.474-83.835-17.663v4.569c30.544 7.097 57.356 12.738 83.05 17.476l-3.552 4.191zm89.488 282.44c35.799 4.131 70.263 6.458 105.308 7.115l-2.888 4.646 5.135.166 4.25-6.838-3.802-7.102-5.135-.164s1.479 2.745 2.596 4.845c-34.922-.657-69.272-2.971-104.958-7.087l-.506 4.42zm500.65-45.424l2.199-7.75-5.616-5.772-4.988 1.254 3.826 3.937c-30.835 7.786-66.58 16.71-102.44 24.613l.96 4.345c35.911-7.914 71.705-16.847 102.57-24.648l-1.489 5.28 4.979-1.26zm-458.098-135.131l5.118.366 4.518-6.68-3.524-7.24-5.13-.359 2.391 4.917c-34.198-2.545-68.455-6.676-104.657-12.641l-.73 4.39c36.349 5.992 70.741 10.138 105.091 12.693l-3.077 4.554zM629.801 1.728l3.53-7.232-4.503-6.679-5.126.361s1.743 2.576 3.075 4.554C592.354-4.755 557.95-.664 521.676 5.242l.714 4.389c36.145-5.878 70.4-9.954 104.683-12.462l-2.397 4.92 5.125-.361zM423.485-118.243l-1.635 5.23 5.013-1.13 2.402-7.686-5.454-5.92-5.018 1.122s2.11 2.28 3.729 4.039c-34.086 7.699-67.94 16.195-102.502 24.941l1.098 4.318c34.519-8.744 68.348-17.23 102.367-24.914zm-714.987 219.46l5.056.925 5.208-6.149-2.719-7.582-5.055-.919s1.04 2.917 1.847 5.161C-313.062 87.871-340.113 82.175-371 74.99v4.57c30.544 7.096 57.356 12.73 83.05 17.468l-3.552 4.188zm-70.975-330.545l5.014 1.127 5.459-5.92-2.397-7.69-5.014-1.127s.929 2.957 1.636 5.236c-4.416-1.008-8.82-2.018-13.221-3.038v4.558c4.08.954 8.152 1.892 12.247 2.82l-3.724 4.034zM-69.819-30.04c35.196-.222 69.7-2.148 105.426-5.86l-2.228 5.024 5.116-.543 3.258-7.368-4.747-6.505-5.113.55s1.828 2.494 3.231 4.42c-35.574 3.693-69.926 5.611-104.97 5.84l.027 4.442zm-292.658-30.902l5.014 1.13 5.459-5.92-2.397-7.69-5.014-1.122s.929 2.95 1.636 5.224c-4.416-.996-8.82-2.011-13.221-3.036v4.571c4.08.943 8.152 1.886 12.247 2.81l-3.724 4.033zm29.91 1.737c37.122 7.906 71.136 13.968 103.938 18.502l-3.363 4.345 5.095.692 4.929-6.368-3.057-7.46-5.09-.685s1.174 2.867 2.08 5.064c-32.691-4.522-66.593-10.556-103.607-18.44l-.926 4.35zm41.065-302.654l5.056.919 5.208-6.147-2.719-7.582-5.055-.916s1.04 2.916 1.847 5.163c-25.897-4.782-52.948-10.478-83.835-17.668v4.574c30.544 7.092 57.356 12.724 83.05 17.47l-3.552 4.187zm353.757-13.9c33.106-4.218 67.177-9.964 104.098-17.551l-1.72 5.215 5.03-1.045 2.525-7.644-5.367-6.017-5.028 1.05s2.066 2.314 3.646 4.09c-36.804 7.558-70.76 13.29-103.744 17.49l.56 4.412zm130.323-23.145c35.91-7.911 71.704-16.845 102.569-24.641l-1.489 5.278 4.979-1.26 2.198-7.75-5.616-5.774-4.988 1.264s2.163 2.215 3.826 3.927c-30.835 7.786-66.58 16.71-102.44 24.61l.96 4.346zM551.164-179.38l5.086-.687 3.057-7.448-4.924-6.373-5.086.685s1.9 2.456 3.358 4.347c-32.891 4.531-66.905 10.559-103.95 18.422l.923 4.35c36.931-7.839 70.848-13.846 103.612-18.365l-2.076 5.069zm-127.679 19.037l-1.635 5.226 5.013-1.123 2.402-7.684-5.454-5.925-5.018 1.117s2.11 2.295 3.729 4.044c-34.086 7.704-67.94 16.19-102.502 24.942l1.098 4.312c34.519-8.744 68.348-17.22 102.367-24.91zm-124.848 35.5l2.198-7.749-5.616-5.773-4.988 1.264s2.163 2.222 3.826 3.927c-30.835 7.786-66.58 16.71-102.44 24.613l.96 4.345c35.911-7.918 71.705-16.847 102.57-24.643l-1.489 5.28 4.979-1.264zM-69.82-72.13c35.196-.226 69.7-2.152 105.426-5.87l-2.228 5.03 5.116-.548 3.258-7.369-4.747-6.505-5.113.545s1.828 2.504 3.231 4.43C-.45-78.72-34.802-76.806-69.846-76.582l.027 4.452zm-262.749-29.17c37.123 7.911 71.137 13.958 103.939 18.502l-3.363 4.345 5.095.687 4.929-6.373-3.057-7.45-5.09-.685s1.174 2.857 2.08 5.07c-32.691-4.522-66.593-10.557-103.607-18.45l-.926 4.354zM62.255-81.076c33.106-4.215 67.177-9.959 104.098-17.551l-1.72 5.216 5.03-1.045 2.525-7.647-5.367-6.007-5.028 1.045s2.066 2.309 3.646 4.088c-36.804 7.558-70.76 13.294-103.744 17.492l.56 4.41zm-264.269 1.662c35.799 4.136 70.263 6.448 105.308 7.11l-2.888 4.646 5.135.167 4.25-6.844-3.802-7.097-5.135-.169s1.479 2.745 2.596 4.845c-34.922-.647-69.272-2.956-104.958-7.087l-.506 4.43zM579.771-187.81c35.637-4.108 69.967-6.445 104.892-7.164l-2.656 4.79 5.145-.087 3.908-7.042-4.142-6.906-5.145.087 2.83 4.713c-35.074.712-69.554 3.064-105.342 7.185l.51 4.424zm393.242-18.427c35.276 7.67 70.074 16.257 102.482 24.422l-3.82 3.927 4.983 1.264 5.61-5.783-2.197-7.747-4.984-1.254s.847 2.988 1.494 5.278c-32.443-8.175-67.279-16.777-102.632-24.452l-.936 4.345zM-202.014-374.107c35.799 4.13 70.263 6.46 105.308 7.117l-2.888 4.646 5.135.164 4.25-6.838-3.802-7.1-5.135-.166s1.479 2.747 2.596 4.845c-34.922-.645-69.272-2.969-104.958-7.085l-.506 4.417zm-130.554-21.886c37.123 7.918 71.137 13.97 103.939 18.504l-3.363 4.345 5.095.69 4.929-6.366-3.057-7.456-5.09-.691s1.174 2.869 2.08 5.074c-32.691-4.53-66.593-10.556-103.607-18.445l-.926 4.345zm1305.581 147.66c35.276 7.66 70.074 16.252 102.482 24.42l-3.82 3.936 4.983 1.254 5.61-5.775-2.197-7.752-4.984-1.259s.847 2.984 1.494 5.283c-32.443-8.18-67.279-16.772-102.632-24.462l-.936 4.355zm0-42.1c35.276 7.67 70.074 16.253 102.482 24.42l-3.82 3.932 4.983 1.259 5.61-5.781-2.197-7.752-4.984-1.254 1.494 5.278c-32.443-8.17-67.279-16.767-102.632-24.446l-.936 4.345zM-69.819-366.815c35.196-.234 69.7-2.147 105.426-5.87l-2.228 5.024 5.116-.545 3.258-7.368-4.747-6.502-5.113.55s1.828 2.493 3.231 4.416c-35.574 3.703-69.926 5.614-104.97 5.843l.027 4.452zm781.242 171.627c35.111.15 69.476 1.958 104.996 5.512l-3.219 4.432 5.116.53 4.724-6.527-3.29-7.351-5.11-.528 2.247 5.014c-35.672-3.57-70.183-5.39-105.447-5.534l-.017 4.452zm-865.767 314.457l4.518-6.667-3.524-7.241-5.13-.361s1.35 2.774 2.391 4.92c-34.198-2.549-68.455-6.68-104.657-12.647l-.73 4.382c36.349 5.997 70.741 10.148 105.091 12.706l-3.077 4.55 5.118.358zM843-186.713c33.167 4.09 67.149 9.68 103.816 17.078l-3.642 4.106 5.043 1.025 5.338-6.027-2.547-7.64-5.038-1.03s.983 2.954 1.74 5.216c-36.785-7.433-70.876-13.04-104.17-17.145l-.54 4.417zm176.807 2.76l1.561 5.267c-39.07-9.326-71.98-16.354-103.47-22.085l-.797 4.385c31.408 5.706 64.244 12.718 103.227 22.02l-3.782 3.972 4.999 1.204 5.55-5.84-2.294-7.73-4.994-1.194zm-46.794 19.82c35.276 7.66 70.074 16.247 102.482 24.412l-3.82 3.936 4.983 1.255 5.61-5.774-2.197-7.751-4.984-1.26s.847 2.99 1.494 5.284c-32.443-8.175-67.279-16.773-102.632-24.457l-.936 4.355zM62.255-38.971c33.106-4.22 67.177-9.964 104.098-17.551l-1.72 5.213 5.03-1.048 2.525-7.652-5.367-6.007-5.028 1.04s2.066 2.315 3.646 4.094c-36.804 7.567-70.76 13.288-103.744 17.486l.56 4.425zM-202.014 4.776c35.799 4.14 70.263 6.458 105.308 7.115l-2.888 4.64 5.135.172 4.25-6.838-3.802-7.102-5.135-.17s1.479 2.75 2.596 4.85c-34.922-.651-69.272-2.966-104.958-7.086l-.506 4.419zM-332.568-17.1c37.123 7.906 71.137 13.958 103.939 18.497l-3.363 4.345 5.095.691 4.929-6.378-3.057-7.445-5.09-.69s1.174 2.857 2.08 5.07c-32.691-4.527-66.593-10.556-103.607-18.445l-.926 4.355zm262.749 29.165c35.196-.23 69.7-2.153 105.426-5.866l-2.228 5.025 5.116-.543 3.258-7.368-4.747-6.505-5.113.545s1.828 2.498 3.231 4.424C-.45 5.475-34.802 7.394-69.846 7.607l.027 4.458zm368.456-52.708l2.198-7.75-5.616-5.773-4.988 1.26s2.163 2.22 3.826 3.931c-30.835 7.787-66.58 16.71-102.44 24.614l.96 4.344c35.911-7.923 71.705-16.851 102.57-24.643l-1.489 5.278 4.979-1.261zM164.633-9.217l5.03-1.04 2.525-7.652-5.367-6.007-5.028 1.045s2.066 2.31 3.646 4.089C128.635-11.22 94.68-5.49 61.695-1.291l.56 4.41c33.106-4.21 67.177-9.954 104.098-17.546l-1.72 5.21zm-188.33-253.658l-2.495 4.9 5.133-.272 3.647-7.184-4.391-6.746-5.133.274s1.682 2.59 2.99 4.586a1073.528 1073.528 0 0 1-52.756 1.314c-17.46 0-35.167-.438-52.627-1.3l-.219 4.438c17.532.87 35.313 1.314 52.846 1.314 17.574 0 35.397-.448 53.004-1.324zm-338.78-8.553l5.014 1.127 5.459-5.92-2.397-7.69-5.014-1.126s.929 2.956 1.636 5.23c-4.416-.998-8.82-2.013-13.221-3.038v4.574c4.08.943 8.152 1.876 12.247 2.81l-3.724 4.033zm203.015 11.452l5.118.368 4.518-6.674-3.524-7.246-5.13-.359 2.391 4.922c-34.198-2.54-68.455-6.676-104.657-12.65l-.73 4.394c36.349 5.987 70.741 10.138 105.091 12.693l-3.077 4.552zM-362.477-18.842l5.014 1.132 5.459-5.917-2.397-7.695-5.014-1.127s.929 2.959 1.636 5.233c-4.416-1.005-8.82-2.015-13.221-3.038v4.559c4.08.953 8.152 1.891 12.247 2.82l-3.724 4.033zm1049.629-87.23l3.908-7.048-4.142-6.903-5.145.077s1.605 2.68 2.83 4.721c-35.074.714-69.554 3.06-105.342 7.19l.51 4.416c35.637-4.106 69.967-6.445 104.892-7.16l-2.656 4.794 5.145-.087zm126.048 5.019l5.116.53 4.724-6.522-3.29-7.349-5.11-.535s1.274 2.85 2.247 5.017c-35.672-3.569-70.183-5.385-105.447-5.532l-.017 4.447c35.111.147 69.476 1.958 104.996 5.512l-3.219 4.432zM241.537 78.763l2.28-7.72-5.556-5.84-4.998 1.215 3.784 3.966c-39.202 9.42-72.02 16.496-103.177 22.25l.814 4.374c31.23-5.768 64.127-12.86 103.413-22.299l-1.556 5.268 4.996-1.214zM973.013-79.94c35.276 7.665 70.074 16.248 102.482 24.412l-3.82 3.932 4.983 1.26 5.61-5.774-2.197-7.747-4.984-1.264s.847 2.994 1.494 5.288c-32.443-8.18-67.279-16.777-102.632-24.456l-.936 4.35zm-421.849-57.336l5.086-.697 3.057-7.44-4.924-6.38-5.086.683 3.358 4.355c-32.891 4.524-66.905 10.556-103.95 18.42l.923 4.355c36.931-7.839 70.848-13.851 103.612-18.37l-2.076 5.074zM843-102.516c33.167 4.088 67.149 9.682 103.816 17.08l-3.642 4.101 5.043 1.03 5.338-6.026-2.547-7.64-5.038-1.03s.983 2.954 1.74 5.21c-36.785-7.427-70.876-13.041-104.17-17.147l-.54 4.422zM423.485-76.15l-1.635 5.226 5.013-1.12 2.402-7.687-5.454-5.925-5.018 1.123s2.11 2.29 3.729 4.038c-34.086 7.705-67.94 16.19-102.502 24.947l1.098 4.308c34.519-8.74 68.348-17.215 102.367-24.91zm127.679-19.036l5.086-.682 3.057-7.456-4.924-6.365-5.086.68 3.358 4.344c-32.891 4.539-66.905 10.566-103.95 18.425l.923 4.35c36.931-7.834 70.848-13.841 103.612-18.36l-2.076 5.064zM365.089 47.87l4.988-1.234 2.246-7.74-5.576-5.805-4.989 1.23s2.156 2.24 3.799 3.959c-17.834 4.4-35.844 8.958-53.274 13.38-16.106 4.074-32.764 8.292-49.206 12.37l1.073 4.315c16.454-4.076 33.11-8.296 49.229-12.377 17.425-4.415 35.422-8.969 53.236-13.37l-1.526 5.272zM108.205-277.25l-1.926 5.144 5.073-.847 2.813-7.545-5.123-6.21-5.07.845s1.968 2.382 3.484 4.228c-36.192 5.97-70.45 10.12-104.653 12.666l.326 4.437c34.355-2.56 68.738-6.73 105.076-12.718zM499.17 18.448l2.728-7.583-5.192-6.149-5.061.904s2.001 2.379 3.542 4.195c-31.49 5.746-64.416 12.773-103.493 22.11l1.041 4.33c38.98-9.317 71.829-16.34 103.236-22.06l-1.857 5.156 5.056-.903zm602.304-235.797c30.673 7.772 62.31 15.777 94.526 23.267v-4.574c-31.828-7.405-63.099-15.324-93.438-23.008l-1.088 4.315zm0 84.195c30.673 7.776 62.31 15.776 94.526 23.264v-4.571c-31.828-7.408-63.099-15.321-93.438-23.01l-1.088 4.317zM111.352 105.932l2.813-7.548-5.123-6.21-5.07.848 3.484 4.225c-36.192 5.972-70.45 10.118-104.653 12.661l.326 4.442c34.355-2.558 68.738-6.721 105.076-12.723l-1.926 5.156 5.073-.851zm990.122-281.186c30.673 7.771 62.31 15.787 94.526 23.262v-4.559c-31.828-7.408-63.099-15.331-93.438-23.01l-1.088 4.307zm-54.04 44.996l-1.066 4.315c18.02 4.442 36.242 9.06 53.866 13.523 15.914 4.033 32.351 8.194 48.604 12.228l-3.801 3.951 4.993 1.23 5.576-5.803-2.235-7.732-4.989-1.232s.859 2.976 1.526 5.26c-16.243-4.025-32.672-8.184-48.581-12.21-17.634-4.47-35.861-9.083-53.893-13.53zm-74.42 8.215c35.275 7.67 70.073 16.262 102.481 24.426l-3.82 3.927 4.983 1.254 5.61-5.773-2.197-7.746-4.984-1.255s.847 2.984 1.494 5.278c-32.443-8.174-67.279-16.777-102.632-24.456l-.936 4.345zm-285.862-26.134l3.908-7.033-4.142-6.913-5.145.088 2.83 4.715c-35.074.71-69.554 3.061-105.342 7.19l.51 4.416c35.637-4.11 69.967-6.455 104.892-7.159l-2.656 4.783 5.145-.087zm24.27-4.925c35.112.157 69.477 1.964 104.997 5.522l-3.219 4.432 5.116.525 4.724-6.517-3.29-7.354-5.11-.525s1.274 2.84 2.247 5.017c-35.672-3.578-70.183-5.39-105.447-5.542l-.017 4.442zM-26.191 120.912l5.133-.278 3.647-7.175-4.391-6.75-5.133.273s1.682 2.586 2.99 4.584a1070.455 1070.455 0 0 1-52.756 1.316c-17.46 0-35.167-.443-52.627-1.301l-.219 4.442c17.532.863 35.313 1.311 52.846 1.311 17.574 0 35.397-.458 53.004-1.321l-2.494 4.9zM843-144.62c33.167 4.088 67.149 9.682 103.816 17.09l-3.642 4.097 5.043 1.03 5.338-6.027-2.547-7.64-5.038-1.025 1.74 5.206c-36.785-7.428-70.876-13.047-104.17-17.138l-.54 4.407zm258.474-114.833c30.673 7.777 62.31 15.787 94.526 23.267v-4.563c-31.828-7.406-63.099-15.324-93.438-23.009l-1.088 4.305zm-838.397-55.395l1.073 4.315c16.454-4.074 33.11-8.297 49.229-12.38 17.425-4.407 35.422-8.966 53.236-13.37l-1.526 5.265 4.988-1.227 2.246-7.732-5.576-5.813-4.989 1.225s2.156 2.247 3.799 3.966c-17.834 4.395-35.844 8.964-53.274 13.37-16.106 4.084-32.764 8.307-49.206 12.38zm626.393-64.01s1.103 2.906 1.94 5.14c-36.27-5.885-70.667-9.971-105.114-12.474l-.321 4.432c34.305 2.493 68.573 6.567 104.695 12.427l-3.475 4.238 5.075.836 5.111-6.221-2.835-7.543-5.076-.836zm-367.08 9.607c36.145-5.875 70.4-9.949 104.683-12.455l-2.397 4.908 5.125-.354 3.53-7.239-4.503-6.676-5.126.358s1.743 2.586 3.075 4.559c-34.423 2.518-68.827 6.607-105.101 12.512l.714 4.387zm131.224-18.546l.214 4.446c17.57-.858 35.395-1.291 52.965-1.291 17.392 0 35.017.433 52.427 1.274l-2.98 4.586 5.133.264 4.381-6.756-3.662-7.164-5.132-.272s1.413 2.78 2.496 4.898a1097.108 1097.108 0 0 0-52.663-1.282c-17.645 0-35.54.438-53.18 1.297zm366.193 35.455s.881 2.981 1.561 5.26c-39.07-9.321-71.98-16.35-103.47-22.08l-.797 4.378c31.408 5.716 64.244 12.726 103.227 22.028l-3.782 3.979 4.999 1.197 5.55-5.838-2.294-7.722-4.994-1.202zm27.627 11.589l-1.066 4.325c18.02 4.442 36.242 9.055 53.866 13.52 15.914 4.036 32.351 8.194 48.604 12.22l-3.801 3.96 4.993 1.231 5.576-5.803-2.235-7.734-4.989-1.24s.859 2.985 1.526 5.269c-16.243-4.024-32.672-8.185-48.581-12.218-17.634-4.462-35.861-9.078-53.893-13.53zm-912.75 58.877c31.23-5.766 64.127-12.86 103.413-22.3l-1.556 5.269 4.996-1.205 2.28-7.729-5.556-5.833-4.998 1.207s2.14 2.245 3.784 3.967c-39.202 9.419-72.02 16.498-103.177 22.25l.814 4.374zm966.79-19.666c30.673 7.766 62.31 15.776 94.526 23.262v-4.564c-31.828-7.41-63.099-15.334-93.438-23.013l-1.088 4.315zM392.735-342.63c38.98-9.315 71.829-16.332 103.236-22.058l-1.857 5.153 5.056-.905 2.728-7.58-5.192-6.154-5.061.913s2.001 2.377 3.542 4.19c-31.49 5.744-64.416 12.771-103.493 22.113l1.041 4.328z"/>
</svg>
