<svg xmlns="http://www.w3.org/2000/svg" xmlns:xlink="http://www.w3.org/1999/xlink" width="1366" height="240" viewBox="0 0 1366 240">
    <defs>
        <path id="a" d="M0 0h1366v240H0z"/>
        <path id="c" d="M.531.43h.985v39.296H.531z"/>
        <path id="e" d="M0 .567h3.767v24.084H0z"/>
        <path id="g" d="M.434.795h.22v39.297h-.22z"/>
        <path id="i" d="M.63.667h1.75v38.43H.63z"/>
        <path id="k" d="M.531.43h.985v39.296H.531z"/>
        <path id="m" d="M0 .567h3.767v24.084H0z"/>
        <path id="o" d="M.434.795h.22v39.297h-.22z"/>
        <path id="q" d="M.63.667h1.75v38.43H.63z"/>
    </defs>
    <g fill="none" fill-rule="evenodd">
        <mask id="b" fill="#fff">
            <use xlink:href="#a"/>
        </mask>
        <use fill="#5AE6FF" xlink:href="#a"/>
        <g mask="url(#b)">
            <path fill="#363B40" d="M8.362 74.078c0 10.826 8.822 19.648 19.645 19.648V85.39c-6.223 0-10.932-5.087-10.932-11.313 0-6.224 4.71-11.312 10.932-11.312V54.43c-10.823 0-19.645 8.822-19.645 19.647zm119.095-19.214v8.335h7.667v30.093h8.328V63.2h7.668v-8.335h-23.663zm-14.42 18.023v-9.905c2.814 0 4.87 2.328 4.87 4.926 0 2.598-2.11 4.979-4.87 4.979zm.11-18.023h-8.439v38.428h8.33v-12.34h.108c7.522 0 13.15-5.846 13.15-13.044 0-7.199-5.628-13.044-13.15-13.044zM81.73 85.391c-6.224 0-10.932-5.088-10.932-11.313 0-6.224 4.708-11.312 10.932-11.312s10.932 5.088 10.932 11.312c0 6.225-4.708 11.313-10.932 11.313zm0-30.96c-10.823 0-19.645 8.822-19.645 19.647 0 10.826 8.822 19.648 19.645 19.648s19.645-8.822 19.645-19.648c0-10.825-8.822-19.647-19.645-19.647zM32.244 93.292h8.33V63.2h9.849v30.093h8.329V54.864H32.244v38.428zM353.9 80.812h-6.04l6.04-10.452v10.452zm-.661-25.885l-22.184 38.43h9.568l2.948-5.08H353.9v5.08h8.33v-38.43h-8.99zm-81.65 18.024v-9.905c2.814 0 4.87 2.327 4.87 4.925s-2.11 4.98-4.87 4.98zm13.259-4.98c0-7.198-5.628-13.044-13.15-13.044h-8.438v38.43h8.33V81.015h.107c7.523 0 13.15-5.845 13.15-13.044zm-44.566 17.484c-6.224 0-10.932-5.089-10.932-11.312 0-6.225 4.708-11.314 10.932-11.314 6.223 0 10.93 5.089 10.93 11.314 0 6.223-4.707 11.312-10.93 11.312zm0-30.961c-10.824 0-19.645 8.823-19.645 19.649 0 10.824 8.821 19.647 19.645 19.647 10.823 0 19.645-8.823 19.645-19.647 0-10.826-8.822-19.65-19.645-19.65zm68.467 22.361V54.927h-8.213l-22.185 38.43h9.57l12.498-21.653v21.653h8.373l12.568-21.774v21.774h8.33v-38.43h-8.283l-12.658 21.928zm-99.775-6.881h-9.85V54.927h-8.329v38.43h8.33V78.31h9.85v15.047h8.328v-38.43h-8.329v15.047z"/>
            <path fill="#FFF" d="M185.434 74.072l-6.952 12.042h-8.253l4.796-8.31h-23.906V70.34h23.906l-4.796-8.309h8.253z"/>
            <path fill="#363B40" d="M473.018 72.683c3.083-2.436 3.95-4.687 3.95-7.881 0-6.927-5.953-9.875-12.177-9.875h-5.67v7.95h5.67c2.844.266 3.735 1.544 3.735 3.55 0 2.217-1.515 3.496-3.843 3.496h-4.03v7.308h4.572c2.814 0 4.491 1.276 4.491 3.711 0 2.37-1.5 4.276-4.925 4.3h-5.67v8.114h5.67c7.342-.064 13.476-4.242 13.476-11.764 0-4.384-2.003-7.014-5.25-8.909zM432.79 76.94V54.927h-8.33v38.43h8.417L445.4 71.662v21.695h8.33v-38.43h-8.233L432.79 76.94zm103.358-22.013L523.442 76.94V54.927h-8.33v38.43h8.417l12.524-21.695v21.695h8.329v-38.43h-8.233zM501.01 69.974h-10.618V54.927h-8.33v38.43h8.33V78.308h10.618v15.047h8.328v-38.43h-8.328v15.048zm-80.627-15.047h-9.569l-9.983 17.294V54.927h-8.328V72.22l-9.983-17.294h-9.57l10.327 17.888-11.856 20.541h9.568l11.514-19.945v19.945h8.328V73.411l11.514 19.945h9.568l-11.856-20.541 10.326-17.888zM555.653 74.078c0 10.826 8.822 19.648 19.645 19.648V85.39c-6.223 0-10.932-5.087-10.932-11.313 0-6.224 4.709-11.312 10.932-11.312V54.43c-10.823 0-19.645 8.822-19.645 19.647zm119.095-19.214v8.335h7.667v30.093h8.328V63.2h7.668v-8.335h-23.663zm-14.42 18.023v-9.905c2.814 0 4.87 2.328 4.87 4.926 0 2.598-2.11 4.979-4.87 4.979zm.109-18.023h-8.438v38.428h8.33v-12.34h.108c7.522 0 13.15-5.846 13.15-13.044 0-7.199-5.628-13.044-13.15-13.044zm-31.416 30.527c-6.224 0-10.932-5.088-10.932-11.313 0-6.224 4.708-11.312 10.932-11.312s10.932 5.088 10.932 11.312c0 6.225-4.708 11.313-10.932 11.313zm0-30.96c-10.823 0-19.645 8.822-19.645 19.647 0 10.826 8.822 19.648 19.645 19.648s19.645-8.822 19.645-19.648c0-10.825-8.822-19.647-19.645-19.647zm-49.486 38.861h8.33V63.2h9.848v30.093h8.33V54.864h-26.508v38.428zM901.19 80.812h-6.04l6.04-10.452v10.452zm-.66-25.885l-22.184 38.43h9.568l2.948-5.08h10.328v5.08h8.33v-38.43h-8.99zM818.88 72.95v-9.905c2.814 0 4.87 2.327 4.87 4.925s-2.11 4.98-4.87 4.98zm13.258-4.98c0-7.198-5.627-13.044-13.15-13.044h-8.437v38.43h8.329V81.015h.108c7.523 0 13.15-5.845 13.15-13.044zm-44.565 17.484c-6.224 0-10.932-5.089-10.932-11.312 0-6.225 4.708-11.314 10.932-11.314 6.222 0 10.93 5.089 10.93 11.314 0 6.223-4.708 11.312-10.93 11.312zm0-30.961c-10.824 0-19.645 8.823-19.645 19.649 0 10.824 8.82 19.647 19.645 19.647 10.823 0 19.645-8.823 19.645-19.647 0-10.826-8.822-19.65-19.645-19.65zm68.466 22.361V54.927h-8.212l-22.185 38.43h9.569l12.5-21.653v21.653h8.372l12.568-21.774v21.774h8.33v-38.43h-8.284L856.04 76.855zm-99.774-6.881h-9.85V54.927h-8.33v38.43h8.33V78.31h9.85v15.047h8.329v-38.43h-8.329v15.047z"/>
            <path fill="#FFF" d="M732.725 74.072l-6.952 12.042h-8.253l4.796-8.31H698.41V70.34h23.906l-4.796-8.309h8.253z"/>
            <path fill="#363B40" d="M1020.308 72.683c3.084-2.436 3.95-4.687 3.95-7.881 0-6.927-5.952-9.875-12.177-9.875h-5.67v7.95h5.67c2.845.266 3.736 1.544 3.736 3.55 0 2.217-1.515 3.496-3.843 3.496h-4.03v7.308h4.571c2.814 0 4.492 1.276 4.492 3.711 0 2.37-1.501 4.276-4.926 4.3h-5.67v8.114h5.67c7.342-.064 13.476-4.242 13.476-11.764 0-4.384-2.003-7.014-5.249-8.909zm-40.227 4.257V54.927h-8.329v38.43h8.416l12.524-21.695v21.695h8.33v-38.43h-8.234L980.081 76.94zm103.359-22.013l-12.707 22.013V54.927h-8.33v38.43h8.417l12.523-21.695v21.695h8.33v-38.43h-8.233zm-35.14 15.047h-10.617V54.927h-8.33v38.43h8.33V78.308h10.618v15.047h8.328v-38.43h-8.328v15.048zm-80.626-15.047h-9.57l-9.982 17.294V54.927h-8.329V72.22l-9.983-17.294h-9.569l10.327 17.888-11.857 20.541h9.568l11.514-19.945v19.945h8.329V73.411l11.514 19.945h9.568l-11.857-20.541 10.327-17.888z"/>
            <g transform="translate(1102.412 54)">
                <mask id="d" fill="#fff">
                    <use xlink:href="#c"/>
                </mask>
                <path fill="#363B40" d="M.531 20.078c0 10.826 8.822 19.648 19.645 19.648V31.39c-6.223 0-10.932-5.087-10.932-11.313 0-6.224 4.71-11.312 10.932-11.312V.43C9.353.43.531 9.253.531 20.078zM119.626.864v8.335h7.667v30.093h8.328V9.2h7.668V.864h-23.663zm-14.42 18.023V8.982c2.815 0 4.871 2.328 4.871 4.926 0 2.598-2.11 4.979-4.87 4.979zm.11-18.023h-8.439v38.428h8.33v-12.34h.108c7.522 0 13.15-5.846 13.15-13.044 0-7.199-5.628-13.044-13.15-13.044zM73.898 31.391c-6.223 0-10.932-5.088-10.932-11.313 0-6.224 4.709-11.312 10.932-11.312 6.224 0 10.932 5.088 10.932 11.312 0 6.225-4.708 11.313-10.932 11.313zm0-30.96c-10.823 0-19.645 8.822-19.645 19.647 0 10.826 8.822 19.648 19.645 19.648s19.645-8.822 19.645-19.648C93.544 9.253 84.722.431 73.9.431zM24.413 39.292h8.33V9.2h9.849v30.093h8.33V.864H24.412v38.428z" mask="url(#d)"/>
            </g>
            <path fill="#363B40" d="M172.232 126.839h-6.04l6.04-10.451v10.45zm-.66-25.885l-22.184 38.43h9.568l2.948-5.08h10.328v5.08h8.33v-38.43h-8.99zm-81.65 18.024v-9.905c2.814 0 4.87 2.327 4.87 4.926 0 2.597-2.11 4.98-4.87 4.98zm13.258-4.98c0-7.198-5.627-13.044-13.15-13.044h-8.437v38.43h8.33v-12.342h.107c7.523 0 13.15-5.845 13.15-13.043zm-44.565 17.484c-6.224 0-10.932-5.088-10.932-11.312 0-6.225 4.708-11.313 10.932-11.313 6.223 0 10.93 5.088 10.93 11.313 0 6.224-4.707 11.312-10.93 11.312zm0-30.961c-10.824 0-19.645 8.823-19.645 19.649 0 10.825 8.82 19.647 19.645 19.647 10.823 0 19.645-8.822 19.645-19.647 0-10.826-8.822-19.65-19.645-19.65zm68.467 22.361v-21.928h-8.213l-22.185 38.43h9.569l12.5-21.652v21.652h8.372l12.568-21.774v21.774h8.33v-38.43h-8.284l-12.657 21.928zm-99.775-6.881h-9.85v-15.047h-8.33v38.43h8.33v-15.047h9.85v15.047h8.329v-38.43h-8.329V116z"/>
            <g transform="translate(0 107.49)">
                <mask id="f" fill="#fff">
                    <use xlink:href="#e"/>
                </mask>
                <path fill="#FFF" d="M3.767 12.61l-6.952 12.04h-8.253l4.796-8.309h-23.906V8.876h23.906L-11.438.567h8.253z" mask="url(#f)"/>
            </g>
            <path fill="#363B40" d="M291.35 118.71c3.084-2.435 3.951-4.687 3.951-7.881 0-6.927-5.953-9.875-12.177-9.875h-5.671v7.95h5.67c2.845.266 3.736 1.544 3.736 3.55 0 2.218-1.515 3.496-3.843 3.496h-4.03v7.308h4.571c2.814 0 4.492 1.276 4.492 3.711 0 2.37-1.5 4.276-4.925 4.3h-5.671v8.114h5.67c7.342-.064 13.476-4.242 13.476-11.764 0-4.384-2.003-7.014-5.249-8.909zm-40.227 4.257v-22.013h-8.329v38.43h8.417l12.523-21.695v21.695h8.33v-38.43h-8.233l-12.708 22.013zm103.359-22.013l-12.707 22.013v-22.013h-8.33v38.43h8.417l12.523-21.695v21.695h8.33v-38.43h-8.233zm-35.14 15.047h-10.617v-15.047h-8.33v38.43h8.33v-15.048h10.618v15.047h8.328v-38.429h-8.328v15.047zm-80.626-15.047h-9.57l-9.982 17.294v-17.294h-8.329v17.294l-9.983-17.294h-9.568l10.326 17.888-11.857 20.541h9.568l11.514-19.945v19.945h8.329v-19.945l11.514 19.945h9.568l-11.857-20.54 10.327-17.889zM373.985 120.105c0 10.826 8.822 19.648 19.645 19.648v-8.335c-6.223 0-10.931-5.087-10.931-11.313 0-6.224 4.708-11.312 10.931-11.312v-8.335c-10.823 0-19.645 8.822-19.645 19.647zm119.095-19.214v8.335h7.667v30.094h8.329v-30.094h7.667v-8.335H493.08zm-14.419 18.023v-9.904c2.814 0 4.87 2.327 4.87 4.925s-2.11 4.979-4.87 4.979zm.109-18.023h-8.438v38.429h8.329v-12.34h.109c7.522 0 13.15-5.847 13.15-13.045 0-7.199-5.628-13.044-13.15-13.044zm-31.416 30.527c-6.224 0-10.932-5.088-10.932-11.313 0-6.224 4.708-11.312 10.932-11.312 6.223 0 10.931 5.088 10.931 11.312 0 6.225-4.708 11.313-10.931 11.313zm0-30.96c-10.824 0-19.646 8.822-19.646 19.647 0 10.826 8.822 19.648 19.646 19.648 10.823 0 19.645-8.822 19.645-19.648 0-10.825-8.822-19.647-19.645-19.647zm-49.487 38.862h8.33v-30.094h9.849v30.094h8.33V100.89h-26.509v38.429zM719.523 126.839h-6.04l6.04-10.451v10.45zm-.661-25.885l-22.184 38.43h9.568l2.949-5.08h10.328v5.08h8.33v-38.43h-8.991zm-81.65 18.024v-9.905c2.815 0 4.871 2.327 4.871 4.926 0 2.597-2.11 4.98-4.87 4.98zm13.26-4.98c0-7.198-5.629-13.044-13.151-13.044h-8.438v38.43h8.33v-12.342h.108c7.522 0 13.15-5.845 13.15-13.043zm-44.567 17.484c-6.223 0-10.932-5.088-10.932-11.312 0-6.225 4.709-11.313 10.932-11.313 6.223 0 10.931 5.088 10.931 11.313 0 6.224-4.708 11.312-10.93 11.312zm0-30.961c-10.824 0-19.645 8.823-19.645 19.649 0 10.825 8.821 19.647 19.645 19.647 10.823 0 19.645-8.822 19.645-19.647 0-10.826-8.822-19.65-19.645-19.65zm68.467 22.361v-21.928h-8.213l-22.184 38.43h9.569l12.499-21.652v21.652h8.372l12.569-21.774v21.774h8.329v-38.43h-8.283l-12.658 21.928zm-99.774-6.881h-9.85v-15.047h-8.33v38.43h8.33v-15.047h9.85v15.047h8.328v-38.43h-8.328V116z"/>
            <path fill="#FFF" d="M551.057 120.1l-6.951 12.04h-8.254l4.796-8.308h-23.905v-7.466h23.905l-4.796-8.309h8.254z"/>
            <path fill="#363B40" d="M838.64 118.71c3.085-2.435 3.952-4.687 3.952-7.881 0-6.927-5.953-9.875-12.178-9.875h-5.67v7.95h5.67c2.844.266 3.735 1.544 3.735 3.55 0 2.218-1.514 3.496-3.843 3.496h-4.03v7.308h4.572c2.814 0 4.492 1.276 4.492 3.711 0 2.37-1.501 4.276-4.926 4.3h-5.67v8.114h5.67c7.342-.064 13.476-4.242 13.476-11.764 0-4.384-2.003-7.014-5.25-8.909zm-40.226 4.257v-22.013h-8.33v38.43h8.417l12.524-21.695v21.695h8.329v-38.43h-8.233l-12.707 22.013zm103.359-22.013l-12.708 22.013v-22.013h-8.329v38.43h8.417l12.523-21.695v21.695h8.33v-38.43h-8.233zm-35.14 15.047h-10.617v-15.047h-8.33v38.43h8.33v-15.048h10.617v15.047h8.329v-38.429h-8.329v15.047zm-80.627-15.047h-9.569l-9.983 17.294v-17.294h-8.328v17.294l-9.983-17.294h-9.569l10.326 17.888-11.856 20.541h9.568l11.514-19.945v19.945h8.328v-19.945l11.515 19.945h9.568l-11.857-20.54 10.326-17.889zM921.276 120.105c0 10.826 8.822 19.648 19.645 19.648v-8.335c-6.223 0-10.932-5.087-10.932-11.313 0-6.224 4.71-11.312 10.932-11.312v-8.335c-10.823 0-19.645 8.822-19.645 19.647zm119.095-19.214v8.335h7.667v30.094h8.328v-30.094h7.668v-8.335h-23.663zm-14.42 18.023v-9.904c2.815 0 4.871 2.327 4.871 4.925s-2.11 4.979-4.87 4.979zm.11-18.023h-8.439v38.429h8.33v-12.34h.108c7.522 0 13.15-5.847 13.15-13.045 0-7.199-5.628-13.044-13.15-13.044zm-31.417 30.527c-6.223 0-10.932-5.088-10.932-11.313 0-6.224 4.709-11.312 10.932-11.312 6.224 0 10.932 5.088 10.932 11.312 0 6.225-4.708 11.313-10.932 11.313zm0-30.96c-10.823 0-19.645 8.822-19.645 19.647 0 10.826 8.822 19.648 19.645 19.648s19.645-8.822 19.645-19.648c0-10.825-8.822-19.647-19.645-19.647zm-49.486 38.862h8.33v-30.094h9.849v30.094h8.33V100.89h-26.509v38.429z"/>
            <g transform="translate(1103.275 99.725)">
                <mask id="h" fill="#fff">
                    <use xlink:href="#g"/>
                </mask>
                <path fill="#363B40" d="M163.539 27.113h-6.04l6.04-10.451v10.451zm-.661-25.885l-22.184 38.43h9.568l2.949-5.08h10.328v5.08h8.329V1.228h-8.99zm-81.65 18.025V9.348c2.814 0 4.87 2.326 4.87 4.925 0 2.598-2.11 4.98-4.87 4.98zm13.259-4.98c0-7.199-5.628-13.045-13.15-13.045h-8.438v38.43h8.33V27.317h.107c7.523 0 13.15-5.845 13.15-13.044zM49.92 31.757c-6.224 0-10.932-5.089-10.932-11.313S43.697 9.131 49.921 9.131c6.223 0 10.931 5.089 10.931 11.313s-4.708 11.313-10.93 11.313zm0-30.962c-10.824 0-19.645 8.824-19.645 19.65 0 10.824 8.821 19.647 19.645 19.647 10.823 0 19.645-8.823 19.645-19.648S60.744.795 49.921.795zm68.467 22.362V1.228h-8.213l-22.184 38.43h9.569l12.499-21.652v21.652h8.372L131 17.885v21.773h8.33V1.228h-8.283l-12.658 21.929zm-99.774-6.881h-9.85V1.228H.434v38.43h8.33V24.611h9.85v15.047h8.328V1.228h-8.328v15.048z" mask="url(#h)"/>
            </g>
            <path fill="#FFF" d="M1098.348 120.1l-6.952 12.04h-8.253l4.796-8.308h-23.906v-7.466h23.906l-4.796-8.309h8.253z"/>
            <path fill="#363B40" d="M109.195 164.737c3.084-2.435 3.95-4.687 3.95-7.881 0-6.927-5.952-9.875-12.177-9.875h-5.67v7.95h5.67c2.844.266 3.735 1.545 3.735 3.55 0 2.218-1.515 3.496-3.843 3.496h-4.03v7.308h4.572c2.814 0 4.492 1.276 4.492 3.711 0 2.37-1.501 4.276-4.926 4.3h-5.67v8.114h5.67c7.342-.064 13.476-4.242 13.476-11.764 0-4.384-2.003-7.014-5.25-8.909zm-40.227 4.257v-22.013h-8.33v38.43h8.417l12.523-21.695v21.695h8.33v-38.43h-8.233l-12.707 22.013zm103.358-22.013l-12.707 22.013v-22.013h-8.329v38.43h8.416l12.524-21.695v21.695h8.33v-38.43h-8.234zm-35.139 15.047H126.57v-15.047h-8.329v38.43h8.33v-15.048h10.617v15.047h8.329v-38.429h-8.329v15.047zM56.56 146.981h-9.569l-9.983 17.294V146.98H28.68v17.294l-9.983-17.294H9.128l10.326 17.888L7.598 185.41h9.568l11.514-19.945v19.945h8.328v-19.945l11.514 19.945h9.568l-11.856-20.54L56.56 146.98zM191.83 166.132c0 10.826 8.822 19.648 19.645 19.648v-8.335c-6.223 0-10.932-5.087-10.932-11.313 0-6.224 4.71-11.312 10.932-11.312v-8.335c-10.823 0-19.645 8.823-19.645 19.647zm119.095-19.214v8.335h7.667v30.094h8.328v-30.094h7.668v-8.335h-23.663zm-14.42 18.023v-9.904c2.814 0 4.87 2.327 4.87 4.925s-2.11 4.979-4.87 4.979zm.11-18.023h-8.439v38.429h8.33v-12.34h.108c7.522 0 13.15-5.847 13.15-13.045 0-7.199-5.628-13.044-13.15-13.044zm-31.417 30.527c-6.224 0-10.932-5.088-10.932-11.313 0-6.224 4.708-11.312 10.932-11.312s10.932 5.088 10.932 11.312c0 6.225-4.708 11.313-10.932 11.313zm0-30.96c-10.823 0-19.645 8.822-19.645 19.647 0 10.826 8.822 19.649 19.645 19.649s19.645-8.823 19.645-19.649c0-10.825-8.822-19.647-19.645-19.647zm-49.486 38.862h8.33v-30.094h9.849v30.094h8.329v-38.429h-26.508v38.429zM537.367 172.866h-6.04l6.04-10.451v10.45zm-.66-25.885l-22.184 38.43h9.568l2.948-5.08h10.328v5.08h8.33v-38.43h-8.99zm-81.65 18.024V155.1c2.814 0 4.87 2.327 4.87 4.926 0 2.597-2.11 4.98-4.87 4.98zm13.259-4.98c0-7.198-5.628-13.044-13.15-13.044h-8.438v38.43h8.33V173.07h.107c7.523 0 13.15-5.846 13.15-13.044zM423.75 177.51c-6.224 0-10.932-5.088-10.932-11.312 0-6.225 4.708-11.313 10.932-11.313 6.223 0 10.93 5.088 10.93 11.313 0 6.224-4.707 11.312-10.93 11.312zm0-30.961c-10.824 0-19.645 8.823-19.645 19.649 0 10.825 8.82 19.647 19.645 19.647 10.823 0 19.645-8.822 19.645-19.647 0-10.826-8.822-19.65-19.645-19.65zm68.467 22.361v-21.928h-8.213l-22.185 38.43h9.57l12.498-21.652v21.652h8.373l12.568-21.774v21.774h8.33v-38.43h-8.283l-12.658 21.928zm-99.775-6.88h-9.85V146.98h-8.33v38.43h8.33v-15.047h9.85v15.047h8.329v-38.43h-8.329v15.047z"/>
            <path fill="#FFF" d="M368.902 166.126l-6.952 12.042h-8.253l4.796-8.31h-23.906v-7.465h23.906l-4.796-8.309h8.253z"/>
            <path fill="#363B40" d="M656.486 164.737c3.083-2.435 3.95-4.687 3.95-7.881 0-6.927-5.953-9.875-12.177-9.875h-5.671v7.95h5.67c2.845.266 3.736 1.545 3.736 3.55 0 2.218-1.515 3.496-3.843 3.496h-4.03v7.308h4.572c2.814 0 4.491 1.276 4.491 3.711 0 2.37-1.5 4.276-4.925 4.3h-5.671v8.114h5.67c7.342-.064 13.476-4.242 13.476-11.764 0-4.384-2.003-7.014-5.248-8.909zm-40.227 4.257v-22.013h-8.33v38.43h8.417l12.523-21.695v21.695h8.33v-38.43h-8.233l-12.707 22.013zm103.358-22.013l-12.707 22.013v-22.013h-8.33v38.43h8.417l12.524-21.695v21.695h8.329v-38.43h-8.233zm-35.139 15.047H673.86v-15.047h-8.33v38.43h8.33v-15.048h10.618v15.047h8.328v-38.429h-8.328v15.047zm-80.627-15.047h-9.569l-9.983 17.294V146.98h-8.328v17.294l-9.983-17.294h-9.57l10.327 17.888-11.857 20.541h9.569l11.514-19.945v19.945h8.328v-19.945l11.514 19.945h9.568l-11.856-20.54 10.326-17.889zM739.12 166.132c0 10.826 8.822 19.648 19.646 19.648v-8.335c-6.223 0-10.932-5.087-10.932-11.313 0-6.224 4.709-11.312 10.932-11.312v-8.335c-10.824 0-19.645 8.823-19.645 19.647zm119.096-19.214v8.335h7.666v30.094h8.329v-30.094h7.668v-8.335h-23.663zm-14.42 18.023v-9.904c2.814 0 4.87 2.327 4.87 4.925s-2.11 4.979-4.87 4.979zm.109-18.023h-8.438v38.429h8.33v-12.34h.108c7.522 0 13.15-5.847 13.15-13.045 0-7.199-5.628-13.044-13.15-13.044zm-31.416 30.527c-6.224 0-10.932-5.088-10.932-11.313 0-6.224 4.708-11.312 10.932-11.312 6.223 0 10.932 5.088 10.932 11.312 0 6.225-4.709 11.313-10.932 11.313zm0-30.96c-10.823 0-19.645 8.822-19.645 19.647 0 10.826 8.822 19.649 19.645 19.649s19.645-8.823 19.645-19.649c0-10.825-8.822-19.647-19.645-19.647zm-49.486 38.862h8.329v-30.094h9.85v30.094h8.329v-38.429h-26.508v38.429zM1084.658 172.866h-6.04l6.04-10.451v10.45zm-.66-25.885l-22.184 38.43h9.568l2.948-5.08h10.328v5.08h8.33v-38.43h-8.99zm-81.65 18.024V155.1c2.814 0 4.87 2.327 4.87 4.926 0 2.597-2.11 4.98-4.87 4.98zm13.258-4.98c0-7.198-5.627-13.044-13.15-13.044h-8.437v38.43h8.329V173.07h.108c7.523 0 13.15-5.846 13.15-13.044zm-44.565 17.484c-6.224 0-10.932-5.088-10.932-11.312 0-6.225 4.708-11.313 10.932-11.313 6.222 0 10.93 5.088 10.93 11.313 0 6.224-4.708 11.312-10.93 11.312zm0-30.961c-10.824 0-19.645 8.823-19.645 19.649 0 10.825 8.82 19.647 19.645 19.647 10.823 0 19.645-8.822 19.645-19.647 0-10.826-8.822-19.65-19.645-19.65zm68.466 22.361v-21.928h-8.212l-22.185 38.43h9.569l12.5-21.652v21.652h8.372l12.568-21.774v21.774h8.33v-38.43h-8.284l-12.658 21.928zm-99.774-6.88h-9.85V146.98h-8.33v38.43h8.33v-15.047h9.85v15.047h8.329v-38.43h-8.329v15.047z"/>
            <path fill="#FFF" d="M916.193 166.126l-6.952 12.042h-8.254l4.797-8.31h-23.906v-7.465h23.906l-4.797-8.309h8.254z"/>
            <g transform="translate(1101.55 146.314)">
                <mask id="j" fill="#fff">
                    <use xlink:href="#i"/>
                </mask>
                <path fill="#363B40" d="M102.227 18.423c3.083-2.435 3.95-4.687 3.95-7.88 0-6.928-5.953-9.876-12.177-9.876h-5.67v7.95H94c2.844.266 3.735 1.545 3.735 3.55 0 2.218-1.515 3.497-3.843 3.497h-4.03v7.307h4.572c2.814 0 4.491 1.276 4.491 3.712 0 2.369-1.5 4.275-4.925 4.299h-5.67v8.115H94c7.342-.064 13.476-4.243 13.476-11.765 0-4.383-2.003-7.014-5.25-8.909zM62 22.68V.667h-8.33v38.43h8.417L74.61 17.402v21.695h8.33V.667h-8.233L62 22.68zM165.358.667L152.651 22.68V.667h-8.33v38.43h8.417l12.524-21.695v21.695h8.329V.667h-8.233zM130.22 15.714h-10.618V.667h-8.33v38.43h8.33V24.049h10.618v15.048h8.329V.667h-8.329v15.047zM49.592.667h-9.569L30.04 17.961V.667h-8.328v17.294L11.729.667h-9.57l10.327 17.888L.63 39.097h9.568l11.514-19.945v19.945h8.328V19.152l11.514 19.945h9.568L39.266 18.555 49.592.667z" mask="url(#j)"/>
            </g>
        </g>
        <g mask="url(#b)">
            <path fill="#363B40" d="M1102.362 74.078c0 10.826 8.822 19.648 19.645 19.648V85.39c-6.223 0-10.932-5.087-10.932-11.313 0-6.224 4.71-11.312 10.932-11.312V54.43c-10.823 0-19.645 8.822-19.645 19.647zm119.095-19.214v8.335h7.667v30.093h8.328V63.2h7.668v-8.335h-23.663zm-14.42 18.023v-9.905c2.814 0 4.87 2.328 4.87 4.926 0 2.598-2.11 4.979-4.87 4.979zm.11-18.023h-8.439v38.428h8.33v-12.34h.108c7.522 0 13.15-5.846 13.15-13.044 0-7.199-5.628-13.044-13.15-13.044zm-31.417 30.527c-6.224 0-10.932-5.088-10.932-11.313 0-6.224 4.708-11.312 10.932-11.312s10.932 5.088 10.932 11.312c0 6.225-4.708 11.313-10.932 11.313zm0-30.96c-10.823 0-19.645 8.822-19.645 19.647 0 10.826 8.822 19.648 19.645 19.648s19.645-8.822 19.645-19.648c0-10.825-8.822-19.647-19.645-19.647zm-49.486 38.861h8.33V63.2h9.849v30.093h8.329V54.864h-26.508v38.428zM1447.9 80.812h-6.04l6.04-10.452v10.452zm-.661-25.885l-22.184 38.43h9.568l2.948-5.08h10.328v5.08h8.33v-38.43h-8.99zm-81.65 18.024v-9.905c2.814 0 4.87 2.327 4.87 4.925s-2.11 4.98-4.87 4.98zm13.259-4.98c0-7.198-5.628-13.044-13.15-13.044h-8.438v38.43h8.33V81.015h.107c7.523 0 13.15-5.845 13.15-13.044zm-44.566 17.484c-6.224 0-10.932-5.089-10.932-11.312 0-6.225 4.708-11.314 10.932-11.314 6.223 0 10.93 5.089 10.93 11.314 0 6.223-4.707 11.312-10.93 11.312zm0-30.961c-10.824 0-19.645 8.823-19.645 19.649 0 10.824 8.821 19.647 19.645 19.647 10.823 0 19.645-8.823 19.645-19.647 0-10.826-8.822-19.65-19.645-19.65zm68.467 22.361V54.927h-8.213l-22.185 38.43h9.57l12.498-21.653v21.653h8.373l12.568-21.774v21.774h8.33v-38.43h-8.283l-12.658 21.928zm-99.775-6.881h-9.85V54.927h-8.329v38.43h8.33V78.31h9.85v15.047h8.328v-38.43h-8.329v15.047z"/>
            <path fill="#FFF" d="M1279.434 74.072l-6.952 12.042h-8.253l4.796-8.31h-23.906V70.34h23.906l-4.796-8.309h8.253z"/>
            <path fill="#363B40" d="M1567.018 72.683c3.083-2.436 3.95-4.687 3.95-7.881 0-6.927-5.953-9.875-12.177-9.875h-5.67v7.95h5.67c2.844.266 3.735 1.544 3.735 3.55 0 2.217-1.515 3.496-3.843 3.496h-4.03v7.308h4.572c2.814 0 4.491 1.276 4.491 3.711 0 2.37-1.5 4.276-4.925 4.3h-5.67v8.114h5.67c7.342-.064 13.476-4.242 13.476-11.764 0-4.384-2.003-7.014-5.25-8.909zm-40.227 4.257V54.927h-8.33v38.43h8.417l12.523-21.695v21.695h8.33v-38.43h-8.233L1526.79 76.94zm103.358-22.013l-12.707 22.013V54.927h-8.33v38.43h8.417l12.524-21.695v21.695h8.329v-38.43h-8.233zm-35.139 15.047h-10.618V54.927h-8.33v38.43h8.33V78.308h10.618v15.047h8.328v-38.43h-8.328v15.048zm-80.627-15.047h-9.569l-9.983 17.294V54.927h-8.328V72.22l-9.983-17.294h-9.57l10.327 17.888-11.856 20.541h9.568l11.514-19.945v19.945h8.328V73.411l11.514 19.945h9.568l-11.856-20.541 10.326-17.888zM1649.653 74.078c0 10.826 8.822 19.648 19.645 19.648V85.39c-6.223 0-10.932-5.087-10.932-11.313 0-6.224 4.709-11.312 10.932-11.312V54.43c-10.823 0-19.645 8.822-19.645 19.647zm119.095-19.214v8.335h7.667v30.093h8.328V63.2h7.668v-8.335h-23.663zm-14.42 18.023v-9.905c2.814 0 4.87 2.328 4.87 4.926 0 2.598-2.11 4.979-4.87 4.979zm.109-18.023h-8.438v38.428h8.33v-12.34h.108c7.522 0 13.15-5.846 13.15-13.044 0-7.199-5.628-13.044-13.15-13.044zm-31.416 30.527c-6.224 0-10.932-5.088-10.932-11.313 0-6.224 4.708-11.312 10.932-11.312s10.932 5.088 10.932 11.312c0 6.225-4.708 11.313-10.932 11.313zm0-30.96c-10.823 0-19.645 8.822-19.645 19.647 0 10.826 8.822 19.648 19.645 19.648s19.645-8.822 19.645-19.648c0-10.825-8.822-19.647-19.645-19.647zm-49.486 38.861h8.33V63.2h9.848v30.093h8.33V54.864h-26.508v38.428zM1995.19 80.812h-6.04l6.04-10.452v10.452zm-.66-25.885l-22.184 38.43h9.568l2.948-5.08h10.328v5.08h8.33v-38.43h-8.99zm-81.65 18.024v-9.905c2.814 0 4.87 2.327 4.87 4.925s-2.11 4.98-4.87 4.98zm13.258-4.98c0-7.198-5.627-13.044-13.15-13.044h-8.437v38.43h8.329V81.015h.108c7.523 0 13.15-5.845 13.15-13.044zm-44.565 17.484c-6.224 0-10.932-5.089-10.932-11.312 0-6.225 4.708-11.314 10.932-11.314 6.222 0 10.93 5.089 10.93 11.314 0 6.223-4.708 11.312-10.93 11.312zm0-30.961c-10.824 0-19.645 8.823-19.645 19.649 0 10.824 8.82 19.647 19.645 19.647 10.823 0 19.645-8.823 19.645-19.647 0-10.826-8.822-19.65-19.645-19.65zm68.466 22.361V54.927h-8.212l-22.185 38.43h9.569l12.5-21.653v21.653h8.372l12.568-21.774v21.774h8.33v-38.43h-8.284l-12.658 21.928zm-99.774-6.881h-9.85V54.927h-8.33v38.43h8.33V78.31h9.85v15.047h8.329v-38.43h-8.329v15.047z"/>
            <path fill="#FFF" d="M1826.725 74.072l-6.952 12.042h-8.253l4.796-8.31h-23.906V70.34h23.906l-4.796-8.309h8.253z"/>
            <path fill="#363B40" d="M2114.308 72.683c3.084-2.436 3.95-4.687 3.95-7.881 0-6.927-5.952-9.875-12.177-9.875h-5.67v7.95h5.67c2.845.266 3.736 1.544 3.736 3.55 0 2.217-1.515 3.496-3.843 3.496h-4.03v7.308h4.571c2.814 0 4.492 1.276 4.492 3.711 0 2.37-1.501 4.276-4.926 4.3h-5.67v8.114h5.67c7.342-.064 13.476-4.242 13.476-11.764 0-4.384-2.003-7.014-5.249-8.909zm-40.227 4.257V54.927h-8.329v38.43h8.416l12.524-21.695v21.695h8.33v-38.43h-8.234l-12.707 22.013zm103.359-22.013l-12.707 22.013V54.927h-8.33v38.43h8.417l12.523-21.695v21.695h8.33v-38.43h-8.233zm-35.14 15.047h-10.617V54.927h-8.33v38.43h8.33V78.308h10.618v15.047h8.328v-38.43h-8.328v15.048zm-80.626-15.047h-9.57l-9.982 17.294V54.927h-8.329V72.22l-9.983-17.294h-9.569l10.327 17.888-11.857 20.541h9.568l11.514-19.945v19.945h8.329V73.411l11.514 19.945h9.568l-11.857-20.541 10.327-17.888z"/>
            <g transform="translate(2196.412 54)">
                <mask id="l" fill="#fff">
                    <use xlink:href="#k"/>
                </mask>
                <path fill="#363B40" d="M.531 20.078c0 10.826 8.822 19.648 19.645 19.648V31.39c-6.223 0-10.932-5.087-10.932-11.313 0-6.224 4.71-11.312 10.932-11.312V.43C9.353.43.531 9.253.531 20.078zM119.626.864v8.335h7.667v30.093h8.328V9.2h7.668V.864h-23.663zm-14.42 18.023V8.982c2.815 0 4.871 2.328 4.871 4.926 0 2.598-2.11 4.979-4.87 4.979zm.11-18.023h-8.439v38.428h8.33v-12.34h.108c7.522 0 13.15-5.846 13.15-13.044 0-7.199-5.628-13.044-13.15-13.044zM73.898 31.391c-6.223 0-10.932-5.088-10.932-11.313 0-6.224 4.709-11.312 10.932-11.312 6.224 0 10.932 5.088 10.932 11.312 0 6.225-4.708 11.313-10.932 11.313zm0-30.96c-10.823 0-19.645 8.822-19.645 19.647 0 10.826 8.822 19.648 19.645 19.648s19.645-8.822 19.645-19.648C93.544 9.253 84.722.431 73.9.431zM24.413 39.292h8.33V9.2h9.849v30.093h8.33V.864H24.412v38.428z" mask="url(#l)"/>
            </g>
            <path fill="#363B40" d="M1266.232 126.839h-6.04l6.04-10.451v10.45zm-.66-25.885l-22.184 38.43h9.568l2.948-5.08h10.328v5.08h8.33v-38.43h-8.99zm-81.65 18.024v-9.905c2.814 0 4.87 2.327 4.87 4.926 0 2.597-2.11 4.98-4.87 4.98zm13.258-4.98c0-7.198-5.627-13.044-13.15-13.044h-8.437v38.43h8.33v-12.342h.107c7.523 0 13.15-5.845 13.15-13.043zm-44.565 17.484c-6.224 0-10.932-5.088-10.932-11.312 0-6.225 4.708-11.313 10.932-11.313 6.223 0 10.93 5.088 10.93 11.313 0 6.224-4.707 11.312-10.93 11.312zm0-30.961c-10.824 0-19.645 8.823-19.645 19.649 0 10.825 8.82 19.647 19.645 19.647 10.823 0 19.645-8.822 19.645-19.647 0-10.826-8.822-19.65-19.645-19.65zm68.467 22.361v-21.928h-8.213l-22.185 38.43h9.569l12.5-21.652v21.652h8.372l12.568-21.774v21.774h8.33v-38.43h-8.284l-12.657 21.928zm-99.775-6.881h-9.85v-15.047h-8.33v38.43h8.33v-15.047h9.85v15.047h8.329v-38.43h-8.329V116z"/>
            <g transform="translate(1094 107.49)">
                <mask id="n" fill="#fff">
                    <use xlink:href="#m"/>
                </mask>
                <path fill="#FFF" d="M3.767 12.61l-6.952 12.04h-8.253l4.796-8.309h-23.906V8.876h23.906L-11.438.567h8.253z" mask="url(#n)"/>
            </g>
            <path fill="#363B40" d="M1385.35 118.71c3.084-2.435 3.951-4.687 3.951-7.881 0-6.927-5.953-9.875-12.177-9.875h-5.671v7.95h5.67c2.845.266 3.736 1.544 3.736 3.55 0 2.218-1.515 3.496-3.843 3.496h-4.03v7.308h4.571c2.814 0 4.492 1.276 4.492 3.711 0 2.37-1.5 4.276-4.925 4.3h-5.671v8.114h5.67c7.342-.064 13.476-4.242 13.476-11.764 0-4.384-2.003-7.014-5.249-8.909zm-40.227 4.257v-22.013h-8.329v38.43h8.417l12.523-21.695v21.695h8.33v-38.43h-8.233l-12.708 22.013zm103.359-22.013l-12.707 22.013v-22.013h-8.33v38.43h8.417l12.523-21.695v21.695h8.33v-38.43h-8.233zm-35.14 15.047h-10.617v-15.047h-8.33v38.43h8.33v-15.048h10.618v15.047h8.328v-38.429h-8.328v15.047zm-80.626-15.047h-9.57l-9.982 17.294v-17.294h-8.329v17.294l-9.983-17.294h-9.568l10.326 17.888-11.857 20.541h9.568l11.514-19.945v19.945h8.329v-19.945l11.514 19.945h9.568l-11.857-20.54 10.327-17.889zM1467.985 120.105c0 10.826 8.822 19.648 19.645 19.648v-8.335c-6.223 0-10.931-5.087-10.931-11.313 0-6.224 4.708-11.312 10.931-11.312v-8.335c-10.823 0-19.645 8.822-19.645 19.647zm119.095-19.214v8.335h7.667v30.094h8.329v-30.094h7.667v-8.335h-23.663zm-14.419 18.023v-9.904c2.814 0 4.87 2.327 4.87 4.925s-2.11 4.979-4.87 4.979zm.109-18.023h-8.438v38.429h8.329v-12.34h.109c7.522 0 13.15-5.847 13.15-13.045 0-7.199-5.628-13.044-13.15-13.044zm-31.416 30.527c-6.224 0-10.932-5.088-10.932-11.313 0-6.224 4.708-11.312 10.932-11.312 6.223 0 10.931 5.088 10.931 11.312 0 6.225-4.708 11.313-10.931 11.313zm0-30.96c-10.824 0-19.646 8.822-19.646 19.647 0 10.826 8.822 19.648 19.646 19.648 10.823 0 19.645-8.822 19.645-19.648 0-10.825-8.822-19.647-19.645-19.647zm-49.487 38.862h8.33v-30.094h9.849v30.094h8.33V100.89h-26.509v38.429zM1813.523 126.839h-6.04l6.04-10.451v10.45zm-.661-25.885l-22.184 38.43h9.568l2.949-5.08h10.328v5.08h8.33v-38.43h-8.991zm-81.65 18.024v-9.905c2.815 0 4.871 2.327 4.871 4.926 0 2.597-2.11 4.98-4.87 4.98zm13.26-4.98c0-7.198-5.629-13.044-13.151-13.044h-8.438v38.43h8.33v-12.342h.108c7.522 0 13.15-5.845 13.15-13.043zm-44.567 17.484c-6.223 0-10.932-5.088-10.932-11.312 0-6.225 4.709-11.313 10.932-11.313 6.223 0 10.931 5.088 10.931 11.313 0 6.224-4.708 11.312-10.93 11.312zm0-30.961c-10.824 0-19.645 8.823-19.645 19.649 0 10.825 8.821 19.647 19.645 19.647 10.823 0 19.645-8.822 19.645-19.647 0-10.826-8.822-19.65-19.645-19.65zm68.467 22.361v-21.928h-8.213l-22.184 38.43h9.569l12.499-21.652v21.652h8.372l12.569-21.774v21.774h8.329v-38.43h-8.283l-12.658 21.928zm-99.774-6.881h-9.85v-15.047h-8.33v38.43h8.33v-15.047h9.85v15.047h8.328v-38.43h-8.328V116z"/>
            <path fill="#FFF" d="M1645.057 120.1l-6.951 12.04h-8.254l4.796-8.308h-23.905v-7.466h23.905l-4.796-8.309h8.254z"/>
            <path fill="#363B40" d="M1932.64 118.71c3.085-2.435 3.952-4.687 3.952-7.881 0-6.927-5.953-9.875-12.178-9.875h-5.67v7.95h5.67c2.844.266 3.735 1.544 3.735 3.55 0 2.218-1.514 3.496-3.843 3.496h-4.03v7.308h4.572c2.814 0 4.492 1.276 4.492 3.711 0 2.37-1.501 4.276-4.926 4.3h-5.67v8.114h5.67c7.342-.064 13.476-4.242 13.476-11.764 0-4.384-2.003-7.014-5.25-8.909zm-40.226 4.257v-22.013h-8.33v38.43h8.417l12.524-21.695v21.695h8.329v-38.43h-8.233l-12.707 22.013zm103.359-22.013l-12.708 22.013v-22.013h-8.329v38.43h8.417l12.523-21.695v21.695h8.33v-38.43h-8.233zm-35.14 15.047h-10.617v-15.047h-8.33v38.43h8.33v-15.048h10.617v15.047h8.329v-38.429h-8.329v15.047zm-80.627-15.047h-9.569l-9.983 17.294v-17.294h-8.328v17.294l-9.983-17.294h-9.569l10.326 17.888-11.856 20.541h9.568l11.514-19.945v19.945h8.328v-19.945l11.515 19.945h9.568l-11.857-20.54 10.326-17.889zM2015.276 120.105c0 10.826 8.822 19.648 19.645 19.648v-8.335c-6.223 0-10.932-5.087-10.932-11.313 0-6.224 4.71-11.312 10.932-11.312v-8.335c-10.823 0-19.645 8.822-19.645 19.647zm119.095-19.214v8.335h7.667v30.094h8.328v-30.094h7.668v-8.335h-23.663zm-14.42 18.023v-9.904c2.815 0 4.871 2.327 4.871 4.925s-2.11 4.979-4.87 4.979zm.11-18.023h-8.439v38.429h8.33v-12.34h.108c7.522 0 13.15-5.847 13.15-13.045 0-7.199-5.628-13.044-13.15-13.044zm-31.417 30.527c-6.223 0-10.932-5.088-10.932-11.313 0-6.224 4.709-11.312 10.932-11.312 6.224 0 10.932 5.088 10.932 11.312 0 6.225-4.708 11.313-10.932 11.313zm0-30.96c-10.823 0-19.645 8.822-19.645 19.647 0 10.826 8.822 19.648 19.645 19.648s19.645-8.822 19.645-19.648c0-10.825-8.822-19.647-19.645-19.647zm-49.486 38.862h8.33v-30.094h9.849v30.094h8.33V100.89h-26.509v38.429z"/>
            <g transform="translate(2197.275 99.725)">
                <mask id="p" fill="#fff">
                    <use xlink:href="#o"/>
                </mask>
                <path fill="#363B40" d="M163.539 27.113h-6.04l6.04-10.451v10.451zm-.661-25.885l-22.184 38.43h9.568l2.949-5.08h10.328v5.08h8.329V1.228h-8.99zm-81.65 18.025V9.348c2.814 0 4.87 2.326 4.87 4.925 0 2.598-2.11 4.98-4.87 4.98zm13.259-4.98c0-7.199-5.628-13.045-13.15-13.045h-8.438v38.43h8.33V27.317h.107c7.523 0 13.15-5.845 13.15-13.044zM49.92 31.757c-6.224 0-10.932-5.089-10.932-11.313S43.697 9.131 49.921 9.131c6.223 0 10.931 5.089 10.931 11.313s-4.708 11.313-10.93 11.313zm0-30.962c-10.824 0-19.645 8.824-19.645 19.65 0 10.824 8.821 19.647 19.645 19.647 10.823 0 19.645-8.823 19.645-19.648S60.744.795 49.921.795zm68.467 22.362V1.228h-8.213l-22.184 38.43h9.569l12.499-21.652v21.652h8.372L131 17.885v21.773h8.33V1.228h-8.283l-12.658 21.929zm-99.774-6.881h-9.85V1.228H.434v38.43h8.33V24.611h9.85v15.047h8.328V1.228h-8.328v15.048z" mask="url(#p)"/>
            </g>
            <path fill="#FFF" d="M2192.348 120.1l-6.952 12.04h-8.253l4.796-8.308h-23.906v-7.466h23.906l-4.796-8.309h8.253z"/>
            <path fill="#363B40" d="M1203.195 164.737c3.084-2.435 3.95-4.687 3.95-7.881 0-6.927-5.952-9.875-12.177-9.875h-5.67v7.95h5.67c2.844.266 3.735 1.545 3.735 3.55 0 2.218-1.515 3.496-3.843 3.496h-4.03v7.308h4.572c2.814 0 4.492 1.276 4.492 3.711 0 2.37-1.501 4.276-4.926 4.3h-5.67v8.114h5.67c7.342-.064 13.476-4.242 13.476-11.764 0-4.384-2.003-7.014-5.25-8.909zm-40.227 4.257v-22.013h-8.33v38.43h8.417l12.523-21.695v21.695h8.33v-38.43h-8.233l-12.707 22.013zm103.358-22.013l-12.707 22.013v-22.013h-8.329v38.43h8.416l12.524-21.695v21.695h8.33v-38.43h-8.234zm-35.139 15.047h-10.618v-15.047h-8.329v38.43h8.33v-15.048h10.617v15.047h8.329v-38.429h-8.329v15.047zm-80.627-15.047h-9.569l-9.983 17.294V146.98h-8.328v17.294l-9.983-17.294h-9.569l10.326 17.888-11.856 20.541h9.568l11.514-19.945v19.945h8.328v-19.945l11.514 19.945h9.568l-11.856-20.54 10.326-17.889zM1285.83 166.132c0 10.826 8.822 19.648 19.645 19.648v-8.335c-6.223 0-10.932-5.087-10.932-11.313 0-6.224 4.71-11.312 10.932-11.312v-8.335c-10.823 0-19.645 8.823-19.645 19.647zm119.095-19.214v8.335h7.667v30.094h8.328v-30.094h7.668v-8.335h-23.663zm-14.42 18.023v-9.904c2.814 0 4.87 2.327 4.87 4.925s-2.11 4.979-4.87 4.979zm.11-18.023h-8.439v38.429h8.33v-12.34h.108c7.522 0 13.15-5.847 13.15-13.045 0-7.199-5.628-13.044-13.15-13.044zm-31.417 30.527c-6.224 0-10.932-5.088-10.932-11.313 0-6.224 4.708-11.312 10.932-11.312s10.932 5.088 10.932 11.312c0 6.225-4.708 11.313-10.932 11.313zm0-30.96c-10.823 0-19.645 8.822-19.645 19.647 0 10.826 8.822 19.649 19.645 19.649s19.645-8.823 19.645-19.649c0-10.825-8.822-19.647-19.645-19.647zm-49.486 38.862h8.33v-30.094h9.849v30.094h8.329v-38.429h-26.508v38.429zM1631.367 172.866h-6.04l6.04-10.451v10.45zm-.66-25.885l-22.184 38.43h9.568l2.948-5.08h10.328v5.08h8.33v-38.43h-8.99zm-81.65 18.024V155.1c2.814 0 4.87 2.327 4.87 4.926 0 2.597-2.11 4.98-4.87 4.98zm13.259-4.98c0-7.198-5.628-13.044-13.15-13.044h-8.438v38.43h8.33V173.07h.107c7.523 0 13.15-5.846 13.15-13.044zm-44.566 17.484c-6.224 0-10.932-5.088-10.932-11.312 0-6.225 4.708-11.313 10.932-11.313 6.223 0 10.93 5.088 10.93 11.313 0 6.224-4.707 11.312-10.93 11.312zm0-30.961c-10.824 0-19.645 8.823-19.645 19.649 0 10.825 8.82 19.647 19.645 19.647 10.823 0 19.645-8.822 19.645-19.647 0-10.826-8.822-19.65-19.645-19.65zm68.467 22.361v-21.928h-8.213l-22.185 38.43h9.57l12.498-21.652v21.652h8.373l12.568-21.774v21.774h8.33v-38.43h-8.283l-12.658 21.928zm-99.775-6.88h-9.85V146.98h-8.33v38.43h8.33v-15.047h9.85v15.047h8.329v-38.43h-8.329v15.047z"/>
            <path fill="#FFF" d="M1462.902 166.126l-6.952 12.042h-8.253l4.796-8.31h-23.906v-7.465h23.906l-4.796-8.309h8.253z"/>
            <path fill="#363B40" d="M1750.486 164.737c3.083-2.435 3.95-4.687 3.95-7.881 0-6.927-5.953-9.875-12.177-9.875h-5.671v7.95h5.67c2.845.266 3.736 1.545 3.736 3.55 0 2.218-1.515 3.496-3.843 3.496h-4.03v7.308h4.572c2.814 0 4.491 1.276 4.491 3.711 0 2.37-1.5 4.276-4.925 4.3h-5.671v8.114h5.67c7.342-.064 13.476-4.242 13.476-11.764 0-4.384-2.003-7.014-5.248-8.909zm-40.227 4.257v-22.013h-8.33v38.43h8.417l12.523-21.695v21.695h8.33v-38.43h-8.233l-12.707 22.013zm103.358-22.013l-12.707 22.013v-22.013h-8.33v38.43h8.417l12.524-21.695v21.695h8.329v-38.43h-8.233zm-35.139 15.047h-10.618v-15.047h-8.33v38.43h8.33v-15.048h10.618v15.047h8.328v-38.429h-8.328v15.047zm-80.627-15.047h-9.569l-9.983 17.294V146.98h-8.328v17.294l-9.983-17.294h-9.57l10.327 17.888-11.857 20.541h9.569l11.514-19.945v19.945h8.328v-19.945l11.514 19.945h9.568l-11.856-20.54 10.326-17.889zM1833.12 166.132c0 10.826 8.822 19.648 19.646 19.648v-8.335c-6.223 0-10.932-5.087-10.932-11.313 0-6.224 4.709-11.312 10.932-11.312v-8.335c-10.824 0-19.645 8.823-19.645 19.647zm119.096-19.214v8.335h7.666v30.094h8.329v-30.094h7.668v-8.335h-23.663zm-14.42 18.023v-9.904c2.814 0 4.87 2.327 4.87 4.925s-2.11 4.979-4.87 4.979zm.109-18.023h-8.438v38.429h8.33v-12.34h.108c7.522 0 13.15-5.847 13.15-13.045 0-7.199-5.628-13.044-13.15-13.044zm-31.416 30.527c-6.224 0-10.932-5.088-10.932-11.313 0-6.224 4.708-11.312 10.932-11.312 6.223 0 10.932 5.088 10.932 11.312 0 6.225-4.709 11.313-10.932 11.313zm0-30.96c-10.823 0-19.645 8.822-19.645 19.647 0 10.826 8.822 19.649 19.645 19.649s19.645-8.823 19.645-19.649c0-10.825-8.822-19.647-19.645-19.647zm-49.486 38.862h8.329v-30.094h9.85v30.094h8.329v-38.429h-26.508v38.429zM2178.658 172.866h-6.04l6.04-10.451v10.45zm-.66-25.885l-22.184 38.43h9.568l2.948-5.08h10.328v5.08h8.33v-38.43h-8.99zm-81.65 18.024V155.1c2.814 0 4.87 2.327 4.87 4.926 0 2.597-2.11 4.98-4.87 4.98zm13.258-4.98c0-7.198-5.627-13.044-13.15-13.044h-8.437v38.43h8.329V173.07h.108c7.523 0 13.15-5.846 13.15-13.044zm-44.565 17.484c-6.224 0-10.932-5.088-10.932-11.312 0-6.225 4.708-11.313 10.932-11.313 6.222 0 10.93 5.088 10.93 11.313 0 6.224-4.708 11.312-10.93 11.312zm0-30.961c-10.824 0-19.645 8.823-19.645 19.649 0 10.825 8.82 19.647 19.645 19.647 10.823 0 19.645-8.822 19.645-19.647 0-10.826-8.822-19.65-19.645-19.65zm68.466 22.361v-21.928h-8.212l-22.185 38.43h9.569l12.5-21.652v21.652h8.372l12.568-21.774v21.774h8.33v-38.43h-8.284l-12.658 21.928zm-99.774-6.88h-9.85V146.98h-8.33v38.43h8.33v-15.047h9.85v15.047h8.329v-38.43h-8.329v15.047z"/>
            <path fill="#FFF" d="M2010.193 166.126l-6.952 12.042h-8.254l4.797-8.31h-23.906v-7.465h23.906l-4.797-8.309h8.254z"/>
            <g transform="translate(2195.55 146.314)">
                <mask id="r" fill="#fff">
                    <use xlink:href="#q"/>
                </mask>
                <path fill="#363B40" d="M102.227 18.423c3.083-2.435 3.95-4.687 3.95-7.88 0-6.928-5.953-9.876-12.177-9.876h-5.67v7.95H94c2.844.266 3.735 1.545 3.735 3.55 0 2.218-1.515 3.497-3.843 3.497h-4.03v7.307h4.572c2.814 0 4.491 1.276 4.491 3.712 0 2.369-1.5 4.275-4.925 4.299h-5.67v8.115H94c7.342-.064 13.476-4.243 13.476-11.765 0-4.383-2.003-7.014-5.25-8.909zM62 22.68V.667h-8.33v38.43h8.417L74.61 17.402v21.695h8.33V.667h-8.233L62 22.68zM165.358.667L152.651 22.68V.667h-8.33v38.43h8.417l12.524-21.695v21.695h8.329V.667h-8.233zM130.22 15.714h-10.618V.667h-8.33v38.43h8.33V24.049h10.618v15.048h8.329V.667h-8.329v15.047zM49.592.667h-9.569L30.04 17.961V.667h-8.328v17.294L11.729.667h-9.57l10.327 17.888L.63 39.097h9.568l11.514-19.945v19.945h8.328V19.152l11.514 19.945h9.568L39.266 18.555 49.592.667z" mask="url(#r)"/>
            </g>
        </g>
    </g>
</svg>
