<svg xmlns="http://www.w3.org/2000/svg" width="513" height="188" viewBox="0 0 513 188">
    <g fill="none" fill-rule="evenodd">
        <path fill="#373C41" fill-rule="nonzero" d="M285.473 31.933c-4.818 0-8.343 3.53-8.343 8.451 0 4.925 3.525 8.545 8.343 8.545h6.673V31.933h-6.673zm-11.398 52.012H257.02l17.888-24.615c-7.137-3.436-12.141-10.308-12.141-18.946 0-12.352 9.637-22.382 22.52-22.382h21.69v65.943h-14.83V62.769h-2.873l-15.2 21.176zM22.868 129.22c4.633-.11 8.158-4.129 8.158-8.524 0-4.399-3.437-8.332-8.158-8.434v16.958zm0-30.91c12.884 0 22.524 10.033 22.524 22.386 0 12.35-9.64 22.382-22.524 22.382v21.176H8.038V98.312h14.83zm58.348 52.383c10.659 0 18.724-8.727 18.724-19.41 0-10.682-8.065-19.412-18.724-19.412-10.658 0-18.723 8.73-18.723 19.411 0 10.684 8.065 19.411 18.723 19.411zm0-53.125c18.536 0 33.644 15.138 33.644 33.714 0 18.574-15.108 33.717-33.644 33.717-18.538 0-33.644-15.143-33.644-33.717 0-18.576 15.106-33.714 33.644-33.714zm105.887-46.223l19.693 32.598h-17.37l-18.302-30.926v30.926h-14.83V53.018l-18.208 30.926h-17.37l19.598-32.598-16.633-33.345h16.073l16.54 32.973V18h14.83v32.973L187.757 18h16.071l-16.725 33.345zm-82.385 32.597V18h14.83v65.943h-14.83zm-29.266-13.93h2.582c4.821 0 8.343-2.6 8.343-7.524 0-4.922-3.522-7.616-8.343-7.616h-2.582v15.14zm25.291-7.524c0 12.355-9.64 21.455-22.523 21.455H60.622V18.001h14.83v23.033h2.768c12.883 0 22.523 9.103 22.523 21.455zm122.636-4.365v25.821h-14.83V18h14.83v25.821h17.056V18h14.83v65.945h-14.83v-25.82h-17.056zm7.028 40.188h16.176v65.943h-15.345v-38.874l-22.035 38.874H193.15l.056-.098V98.312h15.343v38.69l21.857-38.69zM38.087 45.069L16.05 83.945H0L37.256 18H53.43v65.945H38.087V45.07zm252.74 53.243H307v65.943h-15.343v-38.874l-22.035 38.874H253.57l.054-.098V98.312h15.343v38.69l21.86-38.69zm-137.603 32.972c0-18.577 15.109-33.714 33.644-33.714v14.3c-10.659 0-18.721 8.733-18.721 19.414 0 10.68 8.062 19.411 18.72 19.411v14.303c-18.534 0-33.643-15.14-33.643-33.714zm-34.626 0c0-18.577 15.108-33.714 33.644-33.714v14.3c-10.657 0-18.721 8.733-18.721 19.414 0 10.68 8.064 19.411 18.72 19.411v14.303c-18.535 0-33.643-15.14-33.643-33.714z"/>
        <path fill="#5AE6FF" d="M355.996 131.4l8.86 16.3-8.86 16.3h-11.169l6.065-11.19H319v-10.18h31.914l-6.087-11.23h11.17zM374.138 98L383 114.3l-8.862 16.3h-11.164l6.062-11.19H319v-10.18h50.055L362.974 98h11.164z"/>
    </g>
</svg>
