<svg 
 xmlns="http://www.w3.org/2000/svg"
 xmlns:xlink="http://www.w3.org/1999/xlink"
 width="50px" height="50px">
<path fill-rule="evenodd"
 d="M50.000,25.000 C50.000,11.215 38.785,-0.000 25.000,-0.000 C11.215,-0.000 -0.000,11.215 -0.000,25.000 C-0.000,32.280 3.131,38.843 8.114,43.416 L8.091,43.437 L8.902,44.121 C8.954,44.165 9.012,44.201 9.064,44.245 C9.495,44.602 9.942,44.941 10.396,45.270 C10.544,45.376 10.691,45.482 10.841,45.586 C11.326,45.921 11.825,46.238 12.334,46.539 C12.444,46.604 12.556,46.668 12.668,46.732 C13.225,47.049 13.795,47.348 14.377,47.622 C14.420,47.642 14.464,47.661 14.506,47.681 C16.405,48.563 18.433,49.212 20.553,49.594 C20.608,49.604 20.664,49.614 20.720,49.624 C21.378,49.738 22.044,49.829 22.717,49.890 C22.799,49.897 22.881,49.901 22.964,49.909 C23.634,49.964 24.313,50.000 25.000,50.000 C25.681,50.000 26.353,49.964 27.020,49.911 C27.104,49.904 27.189,49.899 27.274,49.891 C27.942,49.830 28.602,49.742 29.254,49.630 C29.310,49.621 29.367,49.611 29.424,49.600 C31.512,49.225 33.510,48.591 35.384,47.731 C35.454,47.700 35.524,47.670 35.593,47.637 C36.154,47.373 36.702,47.089 37.239,46.786 C37.373,46.710 37.505,46.634 37.638,46.556 C38.127,46.268 38.608,45.967 39.075,45.647 C39.244,45.532 39.408,45.411 39.575,45.292 C39.974,45.004 40.365,44.708 40.746,44.398 C40.831,44.330 40.922,44.271 41.004,44.200 L41.836,43.506 L41.812,43.485 C46.839,38.910 50.000,32.318 50.000,25.000 ZM1.818,25.000 C1.818,12.217 12.217,1.818 25.000,1.818 C37.783,1.818 48.182,12.217 48.182,25.000 C48.182,31.888 45.159,38.081 40.374,42.330 C40.106,42.145 39.837,41.979 39.562,41.842 L31.865,37.993 C31.174,37.648 30.744,36.953 30.744,36.182 L30.744,33.493 C30.923,33.273 31.111,33.024 31.305,32.751 C32.302,31.343 33.101,29.778 33.684,28.093 C34.835,27.546 35.579,26.399 35.579,25.103 L35.579,21.880 C35.579,21.092 35.290,20.328 34.773,19.727 L34.773,15.484 C34.820,15.012 34.987,12.350 33.061,10.153 C31.385,8.241 28.674,7.273 25.000,7.273 C21.326,7.273 18.615,8.241 16.939,10.152 C15.013,12.349 15.180,15.012 15.227,15.483 L15.227,19.726 C14.711,20.327 14.421,21.091 14.421,21.880 L14.421,25.102 C14.421,26.103 14.870,27.037 15.639,27.667 C16.375,30.552 17.891,32.735 18.451,33.475 L18.451,36.106 C18.451,36.848 18.046,37.530 17.394,37.886 L10.206,41.807 C9.977,41.931 9.750,42.077 9.523,42.239 C4.796,37.992 1.818,31.838 1.818,25.000 ZM38.599,43.756 C38.281,43.987 37.957,44.211 37.629,44.424 C37.478,44.523 37.328,44.621 37.174,44.716 C36.745,44.981 36.309,45.234 35.864,45.470 C35.765,45.522 35.666,45.571 35.567,45.623 C34.544,46.147 33.485,46.598 32.396,46.964 C32.358,46.977 32.320,46.991 32.281,47.003 C31.711,47.193 31.134,47.360 30.550,47.505 C30.548,47.505 30.546,47.506 30.544,47.506 C29.955,47.651 29.359,47.772 28.759,47.871 C28.743,47.874 28.726,47.878 28.710,47.881 C28.145,47.973 27.576,48.039 27.005,48.089 C26.905,48.098 26.804,48.104 26.702,48.111 C26.137,48.154 25.570,48.182 25.000,48.182 C24.424,48.182 23.849,48.153 23.277,48.111 C23.178,48.103 23.079,48.097 22.981,48.088 C22.404,48.037 21.831,47.969 21.263,47.876 C21.237,47.871 21.212,47.867 21.186,47.862 C19.985,47.661 18.802,47.366 17.650,46.980 C17.614,46.968 17.578,46.955 17.543,46.943 C16.971,46.749 16.405,46.533 15.850,46.295 C15.846,46.293 15.842,46.292 15.838,46.290 C15.313,46.063 14.797,45.813 14.288,45.548 C14.222,45.513 14.154,45.480 14.089,45.445 C13.624,45.197 13.170,44.929 12.722,44.649 C12.589,44.565 12.457,44.481 12.326,44.395 C11.914,44.125 11.506,43.844 11.110,43.547 C11.069,43.516 11.030,43.483 10.989,43.452 C11.018,43.436 11.047,43.419 11.076,43.403 L18.264,39.482 C19.501,38.808 20.269,37.514 20.269,36.106 L20.268,32.832 L20.059,32.579 C20.039,32.556 18.074,30.165 17.331,26.928 L17.248,26.568 L16.938,26.367 C16.501,26.084 16.239,25.611 16.239,25.101 L16.239,21.879 C16.239,21.456 16.418,21.062 16.745,20.767 L17.045,20.496 L17.045,15.432 L17.037,15.313 C17.034,15.291 16.766,13.105 18.306,11.350 C19.621,9.851 21.874,9.091 25.000,9.091 C28.115,9.091 30.360,9.845 31.678,11.332 C33.216,13.070 32.965,15.297 32.963,15.315 L32.954,20.498 L33.255,20.769 C33.581,21.063 33.761,21.458 33.761,21.880 L33.761,25.103 C33.761,25.751 33.320,26.340 32.687,26.535 L32.235,26.674 L32.090,27.124 C31.554,28.790 30.790,30.330 29.821,31.699 C29.583,32.035 29.351,32.333 29.152,32.561 L28.926,32.819 L28.926,36.182 C28.926,37.647 29.741,38.965 31.052,39.620 L38.749,43.468 C38.798,43.492 38.846,43.518 38.895,43.543 C38.797,43.617 38.697,43.685 38.599,43.756 Z"/>
</svg>