<svg xmlns="http://www.w3.org/2000/svg" width="131" height="41" viewBox="0 0 131 41">
    <g fill="none" fill-rule="evenodd" stroke="#3ABBD5" stroke-width="1.5" transform="translate(1 1)">
        <path d="M71.588 0h-5.723c-7.804 0-15.594.691-23.279 2.065l-11.737 2.1a56.166 56.166 0 0 1-8.33.855l-12.653.35C7.45 5.439 5.342 7.044 4.61 9.372L1.819 18.26a10.71 10.71 0 0 0 2.253 10.374l2.23 2.472a6.214 6.214 0 0 0 4.613 2.058h112.267c3.033 0 5.491-2.486 5.491-5.552 0-.132-.004-.263-.013-.395-.263-3.724-1.387-6.4-9.593-9.89S99.113 9.64 97.255 8.809L83.085 2.46A28.119 28.119 0 0 0 71.588 0z"/>
        <path d="M86.817 13.624c-3.36.294-6.739.3-10.099.018l-36.13-3.035-5.684-1.573a.55.55 0 0 1-.392-.683.565.565 0 0 1 .446-.392l8.35-1.485a123.815 123.815 0 0 1 21.675-1.91h5.1c4.328 0 8.608.88 12.562 2.582l11.2 4.825c.288.124.418.45.289.73a.57.57 0 0 1-.47.324l-6.847.6z"/>
        <circle cx="101.48" cy="27.194" r="11.276" fill="#FFF"/>
        <circle cx="101.48" cy="27.194" r="7.296" fill="#FFF"/>
        <circle cx="23.214" cy="27.194" r="11.276" fill="#FFF"/>
        <circle cx="23.214" cy="27.194" r="7.296" fill="#FFF"/>
        <path d="M58.519 4.736L53.06 11.94"/>
        <path stroke-linecap="round" d="M10.367 5.288L.56 4.302"/>
    </g>
</svg>
