<svg xmlns="http://www.w3.org/2000/svg" width="122" height="50" viewBox="0 0 122 50">
    <g fill="none" fill-rule="evenodd" stroke="#3ABBD5" stroke-width="1.5" transform="translate(1 1)">
        <path d="M39.664 0H57.43a36 36 0 0 1 18.91 5.367l6.76 4.173a36 36 0 0 0 12.023 4.701l16.613 3.239c4.8.936 8.263 5.14 8.263 10.03v6.484a3.766 3.766 0 0 1-1.573 3.061 6.024 6.024 0 0 1-3.508 1.127H12.966l-7.862-1.389a6 6 0 0 1-4.956-5.838L.015 19.63a6 6 0 0 1 4.302-5.825l6.8-2.006a6 6 0 0 0 1.04-.416l17.467-8.958A22 22 0 0 1 39.664 0z"/>
        <circle cx="99.545" cy="36.818" r="10.909" fill="#FFF"/>
        <circle cx="99.545" cy="36.818" r="6.818" fill="#FFF"/>
        <circle cx="25.909" cy="36.818" r="10.909" fill="#FFF"/>
        <path d="M28.413 10.288l6.688-3.183a17 17 0 0 1 7.306-1.65h13.137a33.198 33.198 0 0 1 19.23 6.136l6.08 4.321a1 1 0 0 1-.579 1.815H29.273a2 2 0 0 1-2-2v-3.633a2 2 0 0 1 1.14-1.806zM51.818 5.455l2.727 12.272"/>
        <circle cx="25.909" cy="36.818" r="6.818" fill="#FFF"/>
    </g>
</svg>
