<svg 
 xmlns="http://www.w3.org/2000/svg"
 xmlns:xlink="http://www.w3.org/1999/xlink"
 width="24px" height="24px">
<path fill-rule="evenodd" 
 d="M22.000,18.000 L23.906,21.733 C24.120,22.356 23.964,23.032 23.498,23.497 C23.171,23.825 22.739,23.999 22.295,23.999 C22.108,23.999 21.919,23.969 21.734,23.905 L18.000,22.000 C16.398,22.792 13.858,24.000 12.021,24.003 C12.014,24.003 12.008,24.003 12.002,24.003 C8.845,24.003 5.860,22.780 3.597,20.556 C1.328,18.328 0.051,15.358 0.001,12.196 C-0.026,10.539 0.273,8.733 0.887,7.249 C1.479,5.819 2.390,4.639 3.515,3.514 C4.639,2.390 5.819,1.479 7.250,0.887 C8.733,0.273 10.539,-0.026 12.196,0.001 C15.359,0.051 18.329,1.328 20.557,3.597 C22.785,5.864 24.009,8.856 24.004,12.020 C24.001,13.857 22.793,16.398 22.000,18.000 ZM12.164,0.985 C9.156,0.937 6.330,2.081 4.206,4.205 C2.081,6.330 0.937,9.156 0.985,12.163 C1.080,18.140 6.025,22.995 12.002,22.985 C13.785,22.983 16.008,21.769 17.449,21.069 C17.551,21.019 17.663,20.994 17.776,20.994 C17.852,20.994 17.929,21.006 18.003,21.029 L22.568,22.997 C22.728,23.052 22.838,22.973 22.889,22.921 C22.941,22.870 23.019,22.759 22.964,22.598 L21.030,18.002 C20.972,17.819 20.987,17.619 21.069,17.448 C21.770,16.007 22.984,13.785 22.986,12.002 C22.996,6.022 18.141,1.079 12.164,0.985 ZM12.801,12.322 L12.801,14.681 C12.801,15.090 12.440,15.423 11.995,15.423 C11.550,15.423 11.189,15.090 11.189,14.681 L11.189,11.655 C11.189,11.246 11.550,10.913 11.995,10.913 C13.317,10.913 14.393,9.923 14.393,8.707 C14.393,7.489 13.317,6.499 11.995,6.499 C10.673,6.499 9.597,7.489 9.597,8.707 C9.597,9.116 9.236,9.448 8.791,9.448 C8.346,9.448 7.985,9.116 7.985,8.707 C7.985,6.671 9.784,5.016 11.995,5.016 C14.206,5.016 16.005,6.671 16.005,8.707 C16.005,10.487 14.627,11.978 12.801,12.322 ZM11.994,17.006 C12.550,17.006 12.962,17.459 12.986,17.995 C13.009,18.529 12.512,18.984 11.994,18.984 C11.438,18.984 11.026,18.531 11.002,17.995 C10.978,17.461 11.475,17.006 11.994,17.006 Z"/>
</svg>