<svg 
 xmlns="http://www.w3.org/2000/svg"
 xmlns:xlink="http://www.w3.org/1999/xlink"
 width="190px" height="80px">
<path fill-rule="evenodd"  fill="rgb(58, 187, 213)"
 d="M149.569,78.119 L149.569,75.359 C149.569,75.233 149.590,75.086 149.631,74.914 L149.620,74.914 L147.599,78.128 L146.180,78.128 L146.180,73.252 L147.455,73.252 L147.455,75.992 C147.455,76.170 147.439,76.331 147.405,76.477 L147.414,76.477 L149.427,73.243 L150.845,73.243 L150.845,78.119 L149.569,78.119 ZM148.518,72.600 C148.041,72.600 147.645,72.473 147.328,72.220 C147.011,71.965 146.847,71.622 146.832,71.185 L147.885,71.185 C147.844,71.364 147.886,71.509 148.012,71.621 C148.138,71.734 148.306,71.789 148.518,71.789 C148.729,71.789 148.895,71.734 149.018,71.621 C149.141,71.509 149.182,71.364 149.141,71.186 L150.191,71.186 C150.179,71.621 150.016,71.966 149.702,72.220 C149.389,72.473 148.994,72.600 148.518,72.600 ZM150.192,71.185 L150.192,71.186 L150.191,71.186 C150.191,71.186 150.192,71.186 150.192,71.185 ZM143.391,75.361 C143.391,75.235 143.410,75.086 143.452,74.915 L143.441,74.915 L141.420,78.129 L140.001,78.129 L140.001,73.253 L141.275,73.253 L141.275,75.993 C141.275,76.171 141.259,76.333 141.225,76.478 L141.235,76.478 L143.247,73.244 L144.666,73.244 L144.666,78.120 L143.391,78.120 L143.391,75.361 ZM137.099,76.152 L135.169,76.152 L135.169,78.120 L133.780,78.120 L133.780,73.253 L135.169,73.253 L135.169,75.113 L137.099,75.113 L137.099,73.253 L138.486,73.253 L138.486,78.120 L137.099,78.120 L137.099,76.152 ZM130.920,77.962 C130.920,77.843 130.926,77.652 130.939,77.388 C130.776,77.632 130.543,77.835 130.241,77.996 C129.928,78.159 129.578,78.243 129.224,78.239 C128.517,78.239 127.938,77.993 127.489,77.501 C127.038,77.010 126.814,76.404 126.814,75.687 C126.814,74.967 127.038,74.362 127.489,73.871 C127.938,73.379 128.516,73.134 129.225,73.134 C129.605,73.134 129.947,73.212 130.251,73.367 L130.250,73.367 C130.553,73.521 130.783,73.718 130.940,73.955 C130.929,73.774 130.923,73.593 130.920,73.412 L130.920,73.253 L132.267,73.253 L132.267,78.120 L130.920,78.120 L130.920,77.962 ZM130.562,74.682 C130.307,74.417 129.951,74.271 129.582,74.281 C129.207,74.281 128.885,74.417 128.616,74.686 L128.616,74.687 C128.348,74.958 128.212,75.290 128.212,75.687 C128.212,76.082 128.348,76.415 128.616,76.685 C128.885,76.956 129.207,77.090 129.582,77.090 C129.976,77.090 130.303,76.957 130.562,76.690 C130.820,76.423 130.949,76.088 130.949,75.687 C130.949,75.284 130.820,74.949 130.562,74.682 ZM124.290,74.262 L122.402,74.262 L122.402,78.120 L121.013,78.120 L121.013,73.253 L125.691,73.253 L125.691,78.120 L124.290,78.120 L124.290,74.262 ZM118.122,74.618 L116.845,78.100 L115.600,78.100 L114.404,74.608 L114.180,78.120 L112.924,78.120 L113.333,73.253 L115.191,73.253 L116.243,76.527 L116.252,76.527 L117.407,73.253 L119.245,73.253 L119.644,78.120 L118.337,78.120 L118.122,74.618 ZM109.277,78.257 C108.488,78.257 107.848,78.007 107.358,77.501 C106.876,77.020 106.611,76.365 106.621,75.686 C106.621,74.960 106.867,74.351 107.358,73.857 C107.848,73.362 108.488,73.114 109.277,73.114 C110.074,73.114 110.717,73.362 111.207,73.857 C111.698,74.351 111.943,74.960 111.943,75.686 C111.953,76.366 111.686,77.021 111.202,77.501 C110.709,78.006 110.067,78.257 109.277,78.257 ZM110.211,74.682 C109.974,74.420 109.632,74.274 109.277,74.282 C108.903,74.282 108.593,74.416 108.347,74.682 L108.348,74.682 C108.103,74.950 107.980,75.283 107.980,75.686 C107.980,76.089 108.103,76.423 108.348,76.690 C108.593,76.957 108.903,77.091 109.278,77.091 C109.651,77.091 109.962,76.957 110.211,76.690 C110.461,76.423 110.585,76.089 110.585,75.687 C110.585,75.283 110.461,74.950 110.211,74.682 ZM104.722,78.120 L102.771,75.597 L104.589,73.253 L106.294,73.253 L104.354,75.607 L106.417,78.120 L104.722,78.120 ZM101.311,73.253 L102.699,73.253 L102.699,78.120 L101.311,78.120 L101.311,73.253 ZM95.386,77.962 C95.386,77.843 95.393,77.652 95.407,77.388 C95.243,77.632 95.010,77.835 94.707,77.996 C94.394,78.159 94.045,78.243 93.691,78.239 C92.983,78.239 92.405,77.993 91.956,77.501 C91.506,77.010 91.281,76.404 91.281,75.687 C91.281,74.967 91.506,74.362 91.956,73.871 C92.405,73.379 92.983,73.134 93.691,73.134 C94.073,73.134 94.415,73.212 94.718,73.367 C95.021,73.521 95.250,73.718 95.407,73.955 C95.396,73.774 95.389,73.593 95.386,73.412 L95.386,73.253 L96.734,73.253 L96.734,78.120 L95.386,78.120 L95.386,77.962 ZM95.029,74.682 C94.774,74.417 94.418,74.271 94.049,74.281 C93.675,74.281 93.353,74.417 93.084,74.686 L93.084,74.687 C92.815,74.958 92.680,75.290 92.680,75.687 C92.680,76.082 92.815,76.415 93.084,76.685 C93.353,76.956 93.675,77.090 94.049,77.090 C94.443,77.090 94.771,76.957 95.029,76.690 C95.287,76.423 95.417,76.088 95.417,75.687 C95.417,75.284 95.287,74.949 95.029,74.682 ZM88.758,74.262 L86.870,74.262 L86.870,78.120 L85.480,78.120 L85.480,73.253 L90.157,73.253 L90.157,78.120 L88.758,78.120 L88.758,74.262 ZM82.569,74.262 L80.680,74.262 L80.680,78.120 L79.291,78.120 L79.291,73.253 L83.968,73.253 L83.968,78.120 L82.569,78.120 L82.569,74.262 ZM74.398,79.999 L75.318,77.971 L73.407,73.254 L74.909,73.254 L75.930,76.122 C75.964,76.221 76.005,76.369 76.053,76.565 L76.063,76.565 C76.097,76.415 76.141,76.267 76.196,76.122 L77.258,73.253 L78.759,73.253 L75.879,79.999 L74.398,79.999 ZM70.640,78.239 C70.299,78.243 69.962,78.171 69.654,78.027 C69.359,77.883 69.131,77.711 68.975,77.507 C68.982,77.618 68.985,77.771 68.985,77.962 L68.985,79.999 L67.597,79.999 L67.597,73.253 L68.944,73.253 L68.944,73.412 C68.944,73.517 68.937,73.708 68.925,73.985 C69.081,73.748 69.312,73.546 69.618,73.382 C69.932,73.216 70.284,73.130 70.640,73.134 C71.354,73.134 71.936,73.379 72.381,73.867 C72.826,74.354 73.049,74.961 73.049,75.687 C73.049,76.404 72.826,77.010 72.376,77.500 C71.926,77.993 71.347,78.239 70.640,78.239 ZM71.252,74.682 C70.999,74.420 70.648,74.276 70.282,74.281 C69.887,74.281 69.561,74.414 69.301,74.677 L69.301,74.678 C69.043,74.942 68.914,75.278 68.914,75.687 C68.914,76.082 69.043,76.415 69.301,76.685 C69.561,76.956 69.887,77.090 70.282,77.090 C70.657,77.090 70.979,76.956 71.247,76.685 C71.516,76.415 71.651,76.081 71.651,75.687 C71.651,75.284 71.518,74.949 71.252,74.682 ZM65.104,78.120 L63.715,78.120 L63.715,73.253 L66.737,73.253 L66.737,74.243 L65.104,74.243 L65.104,78.120 ZM32.066,78.137 L59.716,39.069 L62.946,39.072 L35.300,78.137 L32.066,78.137 ZM-0.001,39.069 L27.647,0.001 L30.879,0.004 L3.231,39.069 L-0.001,39.069 Z"/>
<path fill-rule="evenodd"  fill="rgb(50, 50, 50)"
 d="M188.755,63.844 C187.924,64.714 186.817,65.149 185.433,65.149 C184.242,65.149 183.303,64.826 182.616,64.180 C182.641,64.414 182.653,64.585 182.653,64.691 L182.653,68.288 L180.667,68.289 L180.667,56.294 L182.598,56.294 L182.598,56.542 C182.598,56.670 182.587,56.853 182.562,57.089 C183.271,56.440 184.209,56.112 185.373,56.101 L185.494,56.101 C186.849,56.113 187.937,56.546 188.755,57.397 C189.574,58.250 189.990,59.304 190.001,60.563 L190.001,60.668 C189.990,61.927 189.573,62.986 188.755,63.844 ZM187.221,58.632 C186.727,58.119 186.045,57.829 185.333,57.829 C185.318,57.829 185.303,57.829 185.289,57.829 C184.494,57.829 183.842,58.094 183.329,58.623 C182.818,59.152 182.562,59.816 182.562,60.616 C182.562,61.416 182.818,62.083 183.329,62.618 C183.842,63.153 184.494,63.421 185.289,63.421 C186.047,63.421 186.691,63.150 187.221,62.610 C187.750,62.069 188.015,61.404 188.015,60.616 C188.015,59.828 187.750,59.167 187.221,58.632 ZM176.785,64.938 L174.800,64.938 L174.800,57.971 L172.201,57.971 L172.201,56.296 L179.385,56.296 L179.385,57.971 L176.785,57.971 L176.785,64.938 ZM168.933,61.339 L165.069,61.339 L165.069,64.938 L163.084,64.938 L163.084,56.294 L165.069,56.294 L165.069,59.664 L168.933,59.664 L168.933,56.296 L170.918,56.296 L170.918,64.939 L168.933,64.938 L168.933,61.339 ZM154.690,61.393 C154.749,61.945 155.011,62.422 155.474,62.820 C155.938,63.221 156.506,63.421 157.181,63.421 C157.975,63.421 158.703,63.068 159.365,62.362 L160.611,63.543 C159.756,64.614 158.588,65.150 157.109,65.150 C155.760,65.150 154.665,64.711 153.822,63.835 C152.980,62.960 152.559,61.887 152.559,60.616 C152.559,59.347 152.980,58.271 153.822,57.389 C154.665,56.507 155.736,56.066 157.037,56.066 C158.228,56.066 159.229,56.477 160.041,57.301 L160.041,57.300 C160.854,58.123 161.260,59.176 161.260,60.458 C161.260,60.799 161.248,61.110 161.225,61.393 L154.690,61.393 ZM158.596,58.350 C158.168,57.984 157.619,57.785 157.054,57.793 C156.392,57.793 155.841,57.991 155.402,58.385 C154.962,58.779 154.726,59.223 154.690,59.716 L159.274,59.716 C159.263,59.176 159.036,58.720 158.596,58.350 ZM149.418,64.938 L141.565,64.938 L141.565,53.614 L143.623,53.614 L143.623,63.173 L148.425,63.173 L148.425,53.614 L150.483,53.614 L150.483,63.173 L151.477,63.174 L151.477,66.543 L149.418,66.543 L149.418,64.938 ZM137.505,64.938 L131.113,64.938 L131.113,56.294 L133.099,56.294 L133.099,63.262 L136.601,63.262 L136.601,56.294 L138.587,56.294 L138.587,63.262 L139.490,63.262 L139.490,66.137 L137.505,66.137 L137.505,64.938 ZM122.718,61.393 C122.779,61.945 123.040,62.422 123.503,62.820 C123.968,63.221 124.535,63.421 125.210,63.421 C126.005,63.421 126.733,63.068 127.394,62.362 L128.640,63.543 C127.785,64.614 126.619,65.150 125.138,65.150 C123.790,65.150 122.695,64.711 121.852,63.835 C121.009,62.960 120.589,61.887 120.589,60.616 C120.589,59.347 121.009,58.271 121.852,57.389 C122.695,56.507 123.765,56.066 125.066,56.066 C126.257,56.066 127.259,56.477 128.071,57.301 L128.071,57.300 C128.884,58.123 129.290,59.176 129.290,60.458 C129.290,60.799 129.279,61.110 129.253,61.393 L122.718,61.393 ZM126.626,58.350 C126.198,57.983 125.649,57.785 125.084,57.793 C124.423,57.793 123.871,57.991 123.431,58.385 C122.993,58.779 122.754,59.223 122.718,59.716 L127.304,59.716 C127.293,59.176 127.067,58.720 126.626,58.350 ZM116.779,57.971 L113.007,57.971 L113.007,64.938 L111.021,64.938 L111.021,56.294 L118.765,56.294 L118.765,64.938 L116.779,64.938 L116.779,57.971 ZM105.804,63.386 C106.923,63.386 107.862,62.974 108.620,62.152 L109.776,63.527 C108.776,64.609 107.381,65.150 105.588,65.150 C103.950,65.150 102.575,64.600 101.462,63.500 C100.348,62.401 99.792,60.988 99.792,59.258 C99.792,57.517 100.360,56.106 101.497,55.025 C102.636,53.943 104.089,53.401 105.858,53.401 C106.701,53.401 107.453,53.540 108.114,53.816 L108.113,53.816 C108.776,54.093 109.294,54.419 109.667,54.796 L108.548,56.207 C107.838,55.512 106.941,55.166 105.858,55.166 C104.679,55.166 103.728,55.539 103.006,56.286 C102.283,57.032 101.922,58.023 101.922,59.258 C101.922,60.481 102.283,61.475 103.006,62.239 C103.728,63.004 104.661,63.386 105.804,63.386 ZM94.141,65.168 C92.805,65.168 91.711,64.720 90.855,63.826 C90.001,62.933 89.574,61.863 89.574,60.616 C89.574,59.347 89.998,58.270 90.847,57.389 C91.695,56.507 92.793,56.066 94.141,56.066 C95.489,56.066 96.588,56.507 97.436,57.387 L97.436,57.389 C98.285,58.270 98.709,59.347 98.709,60.616 C98.709,61.863 98.282,62.933 97.428,63.826 C96.572,64.720 95.478,65.168 94.141,65.168 ZM95.992,58.597 C95.504,58.062 94.888,57.793 94.141,57.793 C93.396,57.793 92.782,58.062 92.300,58.597 C91.818,59.132 91.578,59.805 91.578,60.616 C91.578,61.428 91.818,62.101 92.300,62.636 C92.782,63.171 93.395,63.439 94.141,63.439 C94.887,63.439 95.504,63.171 95.991,62.636 C96.479,62.100 96.723,61.428 96.723,60.616 C96.723,59.806 96.479,59.132 95.992,58.597 ZM86.975,64.938 L84.988,64.938 L84.988,57.971 L82.389,57.971 L82.389,56.296 L89.574,56.296 L89.574,57.971 L86.975,57.971 L86.975,64.938 ZM81.848,62.538 C81.848,63.209 81.601,63.776 81.108,64.242 C80.615,64.705 79.976,64.938 79.194,64.938 L74.555,64.938 L74.555,56.294 L78.724,56.294 L78.724,56.296 C79.495,56.296 80.142,56.507 80.666,56.931 C81.189,57.352 81.450,57.882 81.450,58.517 C81.450,58.977 81.330,59.372 81.090,59.709 C80.870,60.026 80.564,60.274 80.206,60.423 C80.639,60.517 81.020,60.754 81.351,61.136 C81.683,61.519 81.848,61.986 81.848,62.538 ZM79.275,57.997 C79.041,57.826 78.749,57.742 78.400,57.742 L76.485,57.742 L76.485,59.788 L78.381,59.788 C78.767,59.788 79.071,59.695 79.293,59.514 C79.516,59.332 79.627,59.070 79.627,58.729 C79.627,58.411 79.510,58.166 79.275,57.997 ZM79.510,61.533 C79.264,61.334 78.935,61.235 78.525,61.235 L76.486,61.235 L76.486,63.474 L78.562,63.474 C78.947,63.474 79.264,63.378 79.510,63.183 C79.757,62.988 79.880,62.715 79.880,62.363 C79.880,62.010 79.757,61.733 79.510,61.533 ZM70.710,61.834 L66.197,61.834 L66.197,61.834 L65.149,64.938 L62.946,64.938 L67.225,53.561 L69.880,53.561 L73.941,64.938 L71.740,64.938 L70.710,61.834 ZM68.507,55.219 L68.453,55.219 L66.809,60.070 L70.132,60.070 L68.507,55.219 ZM43.628,52.701 L45.671,49.804 L35.039,49.804 L35.039,30.008 L37.955,30.008 L37.955,47.147 L45.612,47.147 L45.612,21.435 L48.527,21.435 L48.527,47.148 L50.824,47.148 L46.909,52.701 L43.628,52.701 ZM35.038,18.661 C35.034,16.525 33.294,14.795 31.149,14.798 C29.004,14.795 27.263,16.524 27.260,18.661 L27.260,61.151 C27.263,63.286 29.004,65.016 31.149,65.013 C33.294,65.016 35.034,63.286 35.038,61.151 L35.038,55.598 L37.954,55.598 L37.954,61.151 C37.954,64.884 34.907,67.910 31.149,67.910 C27.391,67.910 24.343,64.884 24.343,61.151 L24.343,18.661 C24.343,14.928 27.391,11.902 31.149,11.902 C34.908,11.902 37.954,14.927 37.954,18.661 L37.954,24.213 L35.038,24.213 L35.038,18.661 ZM17.347,42.007 L8.721,42.007 L5.572,46.539 L2.375,46.539 L7.346,39.385 L7.346,39.382 L7.348,39.382 L14.149,29.598 L20.190,29.598 L20.190,60.379 L17.347,60.379 L17.347,42.007 ZM17.347,32.223 L15.524,32.223 L10.546,39.382 L17.347,39.382 L17.347,32.223 Z"/>
</svg>