<svg 
 xmlns="http://www.w3.org/2000/svg"
 xmlns:xlink="http://www.w3.org/1999/xlink"
 width="24px" height="24px">
<path fill-rule="evenodd"  fill="rgb(235, 11, 19)"
 d="M12.000,24.000 C5.373,24.000 -0.000,18.627 -0.000,12.000 C-0.000,5.372 5.373,-0.000 12.000,-0.000 C18.627,-0.000 24.000,5.372 24.000,12.000 C24.000,18.627 18.627,24.000 12.000,24.000 ZM12.000,1.000 C5.925,1.000 1.000,5.925 1.000,12.000 C1.000,18.075 5.925,23.000 12.000,23.000 C18.075,23.000 23.000,18.075 23.000,12.000 C23.000,5.925 18.075,1.000 12.000,1.000 ZM19.000,13.000 L19.000,15.000 L17.000,15.000 L17.000,13.000 L15.000,13.000 L15.000,11.000 L17.000,11.000 L17.000,9.000 L19.000,9.000 L19.000,11.000 L21.000,11.000 L21.000,13.000 L19.000,13.000 ZM13.880,13.000 C13.488,15.547 11.565,17.006 9.075,17.006 C6.277,17.006 4.009,14.767 4.009,12.005 C4.009,9.244 6.277,7.005 9.075,7.005 C10.428,7.005 11.614,7.481 12.477,8.309 L11.118,9.854 C10.626,9.364 9.765,9.139 8.986,9.139 C7.345,9.139 6.137,10.474 6.137,12.026 C6.137,13.580 7.467,14.866 9.108,14.866 C10.483,14.866 11.260,14.346 11.829,13.430 L8.986,13.430 L8.986,11.284 L13.961,11.284 C14.018,11.608 13.955,11.654 13.955,12.005 C13.955,12.353 13.929,12.685 13.880,13.000 Z"/>
</svg>