<svg 
 xmlns="http://www.w3.org/2000/svg"
 xmlns:xlink="http://www.w3.org/1999/xlink"
 width="32px" height="40px">
<path fill-rule="evenodd" 
 d="M17.948,40.006 L16.304,40.006 L30.362,20.003 L32.005,20.005 L17.948,40.006 ZM22.182,26.983 L23.221,25.499 L17.815,25.499 L17.815,15.364 L19.298,15.364 L19.298,24.139 L23.191,24.139 L23.191,10.974 L24.673,10.974 L24.673,24.140 L25.841,24.140 L23.851,26.983 L22.182,26.983 ZM17.815,9.554 C17.813,8.460 16.928,7.575 15.838,7.577 C14.747,7.575 13.862,8.460 13.860,9.554 L13.860,31.309 C13.862,32.403 14.747,33.288 15.838,33.286 C16.928,33.288 17.813,32.403 17.815,31.309 L17.815,28.466 L19.297,28.466 L19.297,31.309 C19.297,33.221 17.748,34.770 15.838,34.770 C13.927,34.770 12.377,33.221 12.377,31.309 L12.377,9.554 C12.377,7.643 13.927,6.093 15.838,6.093 C17.748,6.093 19.297,7.643 19.297,9.554 L19.297,12.397 L17.815,12.397 L17.815,9.554 ZM-0.001,20.003 L14.057,0.000 L15.700,0.002 L1.643,20.003 L-0.001,20.003 ZM3.735,20.164 L3.736,20.164 L7.194,15.154 L10.265,15.154 L10.265,30.914 L8.820,30.914 L8.820,21.507 L4.434,21.507 L2.833,23.828 L1.207,23.828 L3.735,20.165 L3.735,20.164 ZM8.820,20.164 L8.820,16.498 L7.893,16.498 L5.362,20.164 L8.820,20.164 Z"/>
</svg>