<svg 
 xmlns="http://www.w3.org/2000/svg"
 xmlns:xlink="http://www.w3.org/1999/xlink"
 width="24px" height="24px">
<path fill-rule="evenodd"  fill="rgb(0, 160, 236)"
 d="M12.000,24.000 C5.373,24.000 -0.000,18.627 -0.000,12.000 C-0.000,5.372 5.373,-0.000 12.000,-0.000 C18.627,-0.000 24.000,5.372 24.000,12.000 C24.000,18.627 18.627,24.000 12.000,24.000 ZM12.000,1.000 C5.925,1.000 1.000,5.925 1.000,12.000 C1.000,18.075 5.925,23.000 12.000,23.000 C18.075,23.000 23.000,18.075 23.000,12.000 C23.000,5.925 18.075,1.000 12.000,1.000 ZM5.000,9.219 C5.000,9.219 5.219,8.232 6.726,6.726 C8.233,5.219 9.219,5.000 9.219,5.000 L16.657,12.438 L18.000,18.000 L12.438,16.657 L5.000,9.219 ZM15.123,16.657 C15.123,16.657 15.336,16.061 15.699,15.698 C16.086,15.311 16.657,15.123 16.657,15.123 L16.082,12.822 C16.082,12.822 15.306,13.022 14.164,14.164 C13.022,15.306 12.822,16.082 12.822,16.082 L15.123,16.657 Z"/>
</svg>