<svg 
 xmlns="http://www.w3.org/2000/svg"
 xmlns:xlink="http://www.w3.org/1999/xlink"
 width="20px" height="25px">
<path fill-rule="evenodd" 
 d="M16.000,25.000 L4.000,25.000 C1.733,25.000 0.000,23.232 0.000,21.000 L0.000,12.000 C0.000,11.254 0.243,11.000 1.000,11.000 L17.000,11.000 L17.000,7.000 C17.000,3.556 13.578,1.000 10.000,1.000 C6.417,1.000 3.000,3.703 3.000,7.000 C3.000,7.372 2.754,7.993 2.482,7.993 C2.211,7.993 2.000,7.372 2.000,7.000 C2.000,2.958 5.725,-0.000 10.000,-0.000 C14.281,-0.000 18.000,2.790 18.000,7.000 L18.000,11.000 L19.000,11.000 C19.757,11.000 20.000,11.254 20.000,12.000 L20.000,21.000 C20.000,23.232 18.267,25.000 16.000,25.000 ZM19.000,12.000 L1.000,12.000 L1.000,21.000 C1.000,22.554 2.440,24.000 4.000,24.000 L16.000,24.000 C17.566,24.000 19.000,22.549 19.000,21.000 L19.000,12.000 ZM10.003,21.011 C8.346,21.011 7.004,19.660 7.004,18.005 C7.004,16.350 8.346,14.998 10.003,14.998 C11.654,14.998 13.002,16.344 13.002,18.005 C13.002,19.660 11.660,21.011 10.003,21.011 ZM10.004,15.995 C8.899,15.995 8.006,16.907 8.006,18.007 C8.006,19.106 8.899,20.009 10.004,20.009 C11.110,20.009 12.002,19.097 12.002,17.998 C12.002,16.899 11.110,15.995 10.004,15.995 Z"/>
</svg>