<svg 
 xmlns="http://www.w3.org/2000/svg"
 xmlns:xlink="http://www.w3.org/1999/xlink"
 width="24px" height="24px">
<path fill-rule="evenodd"  fill="rgb(3, 52, 145)"
 d="M11.999,23.996 C5.384,23.996 0.003,18.614 0.003,11.999 C0.003,5.384 5.384,0.002 11.999,0.002 C18.614,0.002 23.996,5.384 23.996,11.999 C23.996,18.614 18.614,23.996 11.999,23.996 ZM12.000,1.000 C5.925,1.000 1.000,5.925 1.000,12.000 C1.000,18.075 5.925,23.000 12.000,23.000 C18.075,23.000 23.000,18.075 23.000,12.000 C23.000,5.925 18.075,1.000 12.000,1.000 ZM16.000,10.000 L15.000,13.000 L13.000,13.000 C13.000,16.582 13.000,20.000 13.000,20.000 L10.000,20.000 C10.000,20.000 10.000,16.625 10.000,13.000 L8.000,13.000 L8.000,10.000 L10.000,10.000 L10.000,7.999 C10.000,6.691 10.051,4.000 13.000,4.000 L16.000,4.000 L15.000,7.000 C15.000,7.000 14.314,7.000 14.000,7.000 C13.686,7.000 13.000,7.376 13.000,7.999 L13.000,10.000 L16.000,10.000 Z"/>
</svg>