<svg 
 xmlns="http://www.w3.org/2000/svg"
 xmlns:xlink="http://www.w3.org/1999/xlink"
 width="24px" height="24px">
<path fill-rule="evenodd"  fill="rgb(0, 167, 237)"
 d="M11.999,23.996 C5.384,23.996 0.003,18.614 0.003,11.999 C0.003,5.384 5.384,0.002 11.999,0.002 C18.614,0.002 23.996,5.384 23.996,11.999 C23.996,18.614 18.614,23.996 11.999,23.996 ZM12.000,1.000 C5.925,1.000 1.000,5.925 1.000,12.000 C1.000,18.075 5.925,23.000 12.000,23.000 C18.075,23.000 23.000,18.075 23.000,12.000 C23.000,5.925 18.075,1.000 12.000,1.000 ZM17.575,8.987 C17.581,9.117 17.584,9.248 17.584,9.380 C17.584,13.383 14.690,17.999 9.398,17.999 C7.773,17.999 6.261,17.498 4.988,16.638 C5.213,16.666 5.442,16.680 5.674,16.680 C7.023,16.680 8.263,16.196 9.247,15.383 C7.989,15.359 6.926,14.483 6.560,13.279 C6.735,13.315 6.916,13.334 7.101,13.334 C7.363,13.334 7.618,13.297 7.859,13.228 C6.543,12.950 5.551,11.725 5.551,10.258 C5.551,10.245 5.551,10.232 5.552,10.219 C5.940,10.446 6.383,10.583 6.854,10.599 C6.083,10.056 5.575,9.128 5.575,8.077 C5.575,7.521 5.717,7.001 5.964,6.554 C7.383,8.387 9.503,9.592 11.894,9.720 C11.844,9.498 11.820,9.267 11.820,9.029 C11.820,7.356 13.107,5.999 14.696,5.999 C15.524,5.999 16.271,6.367 16.796,6.956 C17.452,6.820 18.067,6.569 18.623,6.220 C18.408,6.928 17.952,7.521 17.358,7.897 C17.940,7.824 18.495,7.661 19.010,7.420 C18.625,8.027 18.137,8.560 17.575,8.987 Z"/>
</svg>