<svg 
 xmlns="http://www.w3.org/2000/svg"
 xmlns:xlink="http://www.w3.org/1999/xlink"
 width="24px" height="24px">
<path fill-rule="evenodd"  fill="rgb(0, 94, 176)"
 d="M12.000,24.000 C5.373,24.000 -0.000,18.627 -0.000,12.000 C-0.000,5.372 5.373,-0.000 12.000,-0.000 C18.627,-0.000 24.000,5.372 24.000,12.000 C24.000,18.627 18.627,24.000 12.000,24.000 ZM12.000,1.000 C5.925,1.000 1.000,5.925 1.000,12.000 C1.000,18.075 5.925,23.000 12.000,23.000 C18.075,23.000 23.000,18.075 23.000,12.000 C23.000,5.925 18.075,1.000 12.000,1.000 ZM19.930,9.895 L17.619,13.158 C17.420,13.439 17.452,13.803 17.697,14.053 L19.863,16.264 C20.140,16.546 19.914,16.987 19.492,16.987 L17.048,16.987 C16.661,16.987 16.289,16.857 16.007,16.623 L15.283,16.025 C14.466,15.391 14.118,15.173 13.792,15.173 C13.465,15.173 13.383,15.391 13.383,15.953 C13.383,16.515 13.261,16.987 11.382,16.987 C9.503,16.987 8.032,15.735 6.378,13.794 C4.724,11.853 3.989,9.768 3.989,9.768 C3.897,9.507 4.117,9.241 4.425,9.241 L6.381,9.241 C6.753,9.241 7.092,9.432 7.248,9.732 C7.408,10.040 7.684,10.516 8.155,11.219 C8.824,12.216 9.466,12.665 9.830,12.857 C9.965,12.928 10.136,12.840 10.136,12.700 L10.136,10.307 C10.136,9.995 10.009,9.691 9.777,9.455 L9.501,9.174 C9.430,9.101 9.489,8.987 9.597,8.987 L12.689,8.987 C13.163,8.987 13.547,9.329 13.547,9.749 L13.547,12.532 C13.547,12.711 13.809,12.782 13.920,12.632 L16.145,9.654 C16.321,9.419 16.617,9.277 16.934,9.277 L19.546,9.277 C19.903,9.277 20.120,9.627 19.930,9.895 Z"/>
</svg>