<svg 
 xmlns="http://www.w3.org/2000/svg"
 xmlns:xlink="http://www.w3.org/1999/xlink"
 width="24px" height="24px">
<path fill-rule="evenodd"  fill="rgb(235, 11, 19)"
 d="M12.000,24.000 C5.372,24.000 -0.000,18.627 -0.000,12.000 C-0.000,5.372 5.372,-0.000 12.000,-0.000 C18.627,-0.000 24.000,5.372 24.000,12.000 C24.000,18.627 18.627,24.000 12.000,24.000 ZM12.000,1.000 C5.925,1.000 1.000,5.925 1.000,12.000 C1.000,18.075 5.925,23.000 12.000,23.000 C18.075,23.000 23.000,18.075 23.000,12.000 C23.000,5.925 18.075,1.000 12.000,1.000 ZM12.953,14.165 L12.209,14.165 L9.419,20.000 L7.000,20.000 L10.349,13.600 C10.349,13.600 7.930,12.770 7.930,9.082 C7.930,3.888 12.953,4.000 12.953,4.000 L15.000,4.000 L15.000,20.000 L12.953,20.000 L12.953,14.165 ZM12.953,5.694 C12.953,5.694 9.791,5.523 9.791,9.082 C9.791,12.641 12.953,12.471 12.953,12.471 L12.953,5.694 Z"/>
</svg>