<svg 
 xmlns="http://www.w3.org/2000/svg"
 xmlns:xlink="http://www.w3.org/1999/xlink"
 width="24px" height="24px">
<path fill-rule="evenodd"  fill="rgb(243, 111, 13)"
 d="M12.000,23.999 C5.373,23.999 0.001,18.627 0.001,12.000 C0.001,5.373 5.373,0.000 12.000,0.000 C18.627,0.000 23.999,5.373 23.999,12.000 C23.999,18.627 18.627,23.999 12.000,23.999 ZM12.000,1.000 C5.925,1.000 1.000,5.925 1.000,12.000 C1.000,18.075 5.925,23.000 12.000,23.000 C18.075,23.000 23.000,18.075 23.000,12.000 C23.000,5.925 18.075,1.000 12.000,1.000 ZM14.920,14.791 C14.268,15.035 13.553,15.158 12.846,15.240 C12.953,15.352 13.004,15.407 13.070,15.471 C14.030,16.403 14.994,17.330 15.951,18.264 C16.277,18.582 16.345,18.977 16.165,19.347 C15.969,19.752 15.530,20.017 15.099,19.989 C14.826,19.971 14.613,19.840 14.424,19.656 C13.700,18.952 12.962,18.261 12.252,17.544 C12.045,17.336 11.946,17.375 11.764,17.556 C11.035,18.281 10.295,18.994 9.550,19.704 C9.215,20.022 8.818,20.079 8.429,19.897 C8.017,19.705 7.755,19.298 7.775,18.889 C7.789,18.613 7.929,18.401 8.126,18.213 C9.076,17.297 10.023,16.379 10.971,15.461 C11.034,15.400 11.092,15.335 11.183,15.241 C9.891,15.111 8.726,14.803 7.728,14.050 C7.604,13.956 7.477,13.866 7.364,13.761 C6.927,13.356 6.883,12.892 7.229,12.415 C7.524,12.006 8.020,11.896 8.536,12.131 C8.636,12.176 8.731,12.234 8.822,12.294 C10.681,13.528 13.235,13.562 15.102,12.350 C15.286,12.213 15.484,12.101 15.713,12.045 C16.158,11.934 16.574,12.092 16.813,12.468 C17.086,12.898 17.083,13.317 16.746,13.651 C16.230,14.162 15.609,14.532 14.920,14.791 ZM11.969,12.002 C9.784,11.995 7.992,10.182 8.005,7.992 C8.017,5.778 9.810,3.993 12.017,3.999 C14.228,4.005 16.003,5.815 15.992,8.053 C15.981,10.238 14.177,12.010 11.969,12.002 ZM12.001,6.013 C10.890,6.011 10.003,6.907 10.011,8.022 C10.020,9.122 10.907,9.995 12.012,9.991 C13.113,9.987 13.990,9.102 13.986,7.997 C13.982,6.893 13.103,6.013 12.001,6.013 Z"/>
</svg>