<svg 
 xmlns="http://www.w3.org/2000/svg"
 xmlns:xlink="http://www.w3.org/1999/xlink"
 width="50px" height="36px">
<path fill-rule="evenodd"  
 d="M45.970,36.003 L4.030,36.003 C1.808,36.003 -0.001,34.172 -0.001,31.920 L-0.001,4.079 C-0.001,1.827 1.808,-0.004 4.030,-0.004 L45.970,-0.004 C48.191,-0.004 50.001,1.827 50.001,4.079 L50.001,31.920 C50.001,34.172 48.191,36.003 45.970,36.003 ZM1.612,31.920 C1.612,33.270 2.697,34.369 4.030,34.369 L45.970,34.369 C47.303,34.369 48.388,33.270 48.388,31.920 L48.388,4.079 C48.388,3.747 48.321,3.430 48.202,3.141 L31.806,17.624 L41.036,26.395 C41.360,26.702 41.376,27.220 41.072,27.548 C40.912,27.719 40.699,27.806 40.483,27.806 C40.285,27.806 40.086,27.732 39.932,27.584 L30.654,18.768 C30.630,18.745 30.620,18.714 30.599,18.689 L27.960,21.020 C27.143,21.742 26.072,22.103 25.000,22.103 C23.928,22.103 22.856,21.742 22.040,21.021 L19.402,18.690 C19.381,18.715 19.371,18.745 19.347,18.768 L10.067,27.584 C9.912,27.732 9.714,27.806 9.515,27.806 C9.301,27.806 9.086,27.719 8.927,27.548 C8.622,27.220 8.638,26.702 8.962,26.395 L18.195,17.624 L1.799,3.136 C1.679,3.427 1.612,3.745 1.612,4.079 L1.612,31.920 ZM4.030,1.630 C3.616,1.630 3.231,1.746 2.890,1.933 L23.099,19.789 C24.129,20.699 25.871,20.699 26.899,19.789 L47.114,1.934 C46.771,1.746 46.386,1.630 45.970,1.630 L4.030,1.630 Z"/>
</svg>