<svg 
 xmlns="http://www.w3.org/2000/svg"
 xmlns:xlink="http://www.w3.org/1999/xlink"
 width="24px" height="18px">
<path fill-rule="evenodd"  d="M22.000,18.000 L2.000,18.000 C0.934,18.000 -0.000,17.126 -0.000,16.000 L-0.000,2.000 C-0.000,0.874 0.934,-0.000 2.000,-0.000 L22.000,-0.000 C23.066,-0.000 24.000,0.874 24.000,2.000 L24.000,16.000 C24.000,17.126 23.066,18.000 22.000,18.000 ZM2.000,1.000 L11.000,9.000 C11.470,9.423 12.531,9.423 13.000,9.000 L21.915,1.093 C21.983,1.031 22.144,1.025 22.312,1.045 C22.214,1.023 22.117,1.000 22.000,1.000 L2.000,1.000 ZM22.420,1.060 C22.423,1.061 22.426,1.062 22.429,1.063 C22.426,1.062 22.423,1.061 22.420,1.060 ZM23.000,2.000 C23.000,1.939 22.982,1.897 22.976,1.842 C22.972,1.945 22.956,2.038 22.907,2.084 L16.063,8.101 L19.910,11.994 C20.053,12.137 19.954,12.692 19.819,12.846 C19.748,12.926 19.654,12.966 19.558,12.966 C19.470,12.966 19.014,13.039 18.946,12.969 L15.090,9.067 C15.073,9.050 15.070,9.011 15.059,8.983 L13.364,10.474 C12.992,10.817 12.504,10.989 12.015,10.989 C11.526,10.989 11.037,10.817 10.665,10.475 L8.969,8.988 C8.959,9.014 8.956,9.051 8.939,9.067 L5.061,12.969 C4.992,13.039 4.532,12.966 4.444,12.966 C4.348,12.966 4.253,12.926 4.181,12.846 C4.045,12.692 3.946,12.137 4.091,11.994 L7.959,8.102 L1.093,2.084 C1.038,2.033 1.027,1.924 1.029,1.804 C1.021,1.870 1.000,1.925 1.000,2.000 L1.000,16.000 C1.000,16.675 1.360,17.000 2.000,17.000 L22.000,17.000 C22.640,17.000 23.000,16.675 23.000,16.000 L23.000,2.000 Z"/>
</svg>