<svg 
 xmlns="http://www.w3.org/2000/svg"
 xmlns:xlink="http://www.w3.org/1999/xlink"
 width="50px" height="50px">
<path fill-rule="evenodd" 
 d="M45.833,41.666 L32.182,41.666 L33.848,45.000 L49.167,45.000 C49.627,45.000 50.000,45.373 50.000,45.833 C50.000,50.000 45.609,50.000 44.167,50.000 L5.833,50.000 C4.391,50.000 -0.000,50.000 -0.000,45.833 C-0.000,45.373 0.373,45.000 0.833,45.000 L16.152,45.000 L17.818,41.666 L4.167,41.666 C1.867,41.663 0.003,39.800 -0.000,37.499 L-0.000,14.166 C0.003,11.866 1.867,10.002 4.167,10.000 L13.333,10.000 L13.333,-0.001 L15.000,-0.001 L15.000,19.167 C15.000,19.626 14.627,19.999 14.167,19.999 L11.342,19.999 L25.000,28.194 L38.658,19.999 L35.833,19.999 C35.373,19.999 35.000,19.626 35.000,19.167 L35.000,-0.001 L36.667,-0.001 L36.667,10.000 L45.833,10.000 C48.133,10.002 49.997,11.866 50.000,14.166 L50.000,37.499 C49.997,39.800 48.133,41.663 45.833,41.666 ZM1.767,46.666 C2.058,47.692 3.064,48.333 5.833,48.333 L44.167,48.333 C46.936,48.333 47.942,47.692 48.232,46.666 L1.767,46.666 ZM31.985,45.000 L30.318,41.666 L19.682,41.666 L18.015,45.000 L31.985,45.000 ZM36.667,18.333 L41.667,18.333 C41.959,18.333 42.230,18.486 42.381,18.737 C42.618,19.131 42.490,19.643 42.096,19.881 L25.429,29.881 C25.165,30.039 24.835,30.039 24.571,29.881 L7.904,19.881 C7.654,19.730 7.500,19.459 7.500,19.167 C7.500,18.706 7.873,18.333 8.333,18.333 L13.333,18.333 L13.333,15.000 L5.000,15.000 L5.000,35.000 L45.000,35.000 L45.000,15.000 L36.667,15.000 L36.667,18.333 ZM48.333,14.166 C48.333,12.785 47.214,11.666 45.833,11.666 L36.667,11.666 L36.667,13.333 L45.833,13.333 C46.293,13.333 46.667,13.706 46.667,14.166 L46.667,35.833 C46.667,36.293 46.293,36.666 45.833,36.666 L4.167,36.666 C3.706,36.666 3.333,36.293 3.333,35.833 L3.333,14.166 C3.333,13.706 3.706,13.333 4.167,13.333 L13.333,13.333 L13.333,11.666 L4.167,11.666 C2.786,11.666 1.667,12.785 1.667,14.166 L1.667,37.499 C1.667,38.880 2.786,39.999 4.167,39.999 L45.833,39.999 C47.214,39.999 48.333,38.880 48.333,37.499 L48.333,14.166 ZM41.667,33.333 L40.000,33.333 L40.000,31.666 L38.333,31.666 L38.333,30.000 L40.000,30.000 L40.000,28.333 L41.667,28.333 L41.667,30.000 L43.333,30.000 L43.333,31.666 L41.667,31.666 L41.667,33.333 ZM30.833,16.916 C30.833,15.397 29.602,14.166 28.083,14.166 L21.917,14.166 C20.398,14.166 19.167,15.397 19.167,16.916 L19.167,19.999 L17.500,19.999 L17.500,16.916 C17.497,14.690 19.155,12.812 21.364,12.541 C20.063,11.517 19.263,9.985 19.167,8.333 C19.167,2.823 22.339,1.666 25.000,1.666 C27.661,1.666 30.833,2.823 30.833,8.333 C30.736,9.984 29.936,11.515 28.636,12.538 C30.846,12.810 32.504,14.690 32.500,16.916 L32.500,19.999 L30.833,19.999 L30.833,16.916 ZM25.000,3.333 C22.417,3.333 21.102,4.658 20.877,7.451 C22.345,7.312 24.622,6.834 25.043,5.568 C25.062,5.511 25.088,5.456 25.119,5.404 C25.356,5.009 25.868,4.881 26.262,5.118 L29.039,6.784 C28.667,4.451 27.365,3.333 25.000,3.333 ZM29.127,8.779 L26.149,6.992 C24.949,8.571 22.376,9.003 20.949,9.120 L20.949,9.123 C21.595,10.894 23.141,12.183 25.000,12.500 C26.279,12.500 28.793,10.822 29.127,8.779 Z"/>
</svg>