<svg xmlns="http://www.w3.org/2000/svg" width="737" height="243" viewBox="0 0 737 243">
    <g fill="#5AE6FF" fill-rule="evenodd">
        <path d="M44.986 6.394a9378.075 9378.075 0 0 1-3.072 8.113c-1.657.379-3.314.754-4.973 1.127l2.122-5.587-.008.003C-16.222 22.588-72.013 31.51-128.538 35.257l-.631-4.446C-72.641 27.065-16.848 18.142 38.433 5.602a8255.03 8255.03 0 0 1-3.528-4.31C36.564.918 38.222.541 39.88.163l5.107 6.23"/>
        <path d="M44.986 6.394a9378.075 9378.075 0 0 1-3.072 8.113c-1.657.379-3.314.754-4.973 1.127l2.122-5.587-.008.003C-16.222 22.588-72.013 31.51-128.538 35.257l-.631-4.446C-72.641 27.065-16.848 18.142 38.433 5.602a8255.03 8255.03 0 0 1-3.528-4.31C36.564.918 38.222.541 39.88.163l5.107 6.23zM229.228-47.924l-3.008 8.562c-1.632.562-3.263 1.122-4.895 1.681l2.078-5.903-.01.003C168.99-24.89 114.322-8.068 59.166 5.325L58.534.88c55.159-13.394 109.83-30.217 164.238-48.909-1.161-1.33-2.322-2.663-3.483-3.995 1.632-.558 3.263-1.12 4.895-1.68l5.044 5.78"/>
        <path d="M229.228-47.924l-3.008 8.562c-1.632.562-3.263 1.122-4.895 1.681l2.078-5.903-.01.003C168.99-24.89 114.322-8.068 59.166 5.325L58.534.88c55.159-13.394 109.83-30.217 164.238-48.909-1.161-1.33-2.322-2.663-3.483-3.995 1.632-.558 3.263-1.12 4.895-1.68l5.044 5.78zM52.734 60.983a9374.799 9374.799 0 0 1-3.073 8.112c-1.657.38-3.314.755-4.972 1.128l2.122-5.587-.008.002C-8.475 77.176-64.266 86.098-120.791 89.845l-.631-4.446C-64.894 81.653-9.1 72.73 46.18 60.19a8255.03 8255.03 0 0 1-3.527-4.31c1.658-.373 3.316-.749 4.973-1.127l5.108 6.23"/>
        <path d="M52.734 60.983a9374.799 9374.799 0 0 1-3.073 8.112c-1.657.38-3.314.755-4.972 1.128l2.122-5.587-.008.002C-8.475 77.176-64.266 86.098-120.791 89.845l-.631-4.446C-64.894 81.653-9.1 72.73 46.18 60.19a8255.03 8255.03 0 0 1-3.527-4.31c1.658-.373 3.316-.749 4.973-1.127l5.108 6.23zM236.975 6.665l-3.008 8.561c-1.631.562-3.263 1.123-4.894 1.682l2.077-5.903-.009.003C176.737 29.698 122.068 46.52 66.912 59.914l-.63-4.445c55.158-13.394 109.83-30.217 164.237-48.91l-3.482-3.994c1.631-.559 3.263-1.12 4.894-1.681l5.044 5.78"/>
        <path d="M236.975 6.665l-3.008 8.561c-1.631.562-3.263 1.123-4.894 1.682l2.077-5.903-.009.003C176.737 29.698 122.068 46.52 66.912 59.914l-.63-4.445c55.158-13.394 109.83-30.217 164.237-48.91l-3.482-3.994c1.631-.559 3.263-1.12 4.894-1.681l5.044 5.78zM419.086-61.238l-2.985 8.72-4.867 1.883 2.062-6.018-.008.003C359.2-35.728 305.094-14.928 250.752 4.19c-.211-1.483-.422-2.965-.631-4.447 54.346-19.118 108.453-39.918 162.544-60.842l-3.466-3.879 4.866-1.882 5.021 5.622"/>
        <path d="M419.086-61.238l-2.985 8.72-4.867 1.883 2.062-6.018-.008.003C359.2-35.728 305.094-14.928 250.752 4.19c-.211-1.483-.422-2.965-.631-4.447 54.346-19.118 108.453-39.918 162.544-60.842l-3.466-3.879 4.866-1.882 5.021 5.622zM141.437 9.032l-3.034 8.374a1472.8 1472.8 0 0 1-4.929 1.448l2.098-5.77-.01.003c-54.77 16.108-109.93 29.474-165.7 38.539l-.632-4.445C25.004 38.115 80.167 24.748 134.94 8.639a7005.533 7005.533 0 0 1-3.5-4.127c1.642-.48 3.284-.963 4.927-1.449 1.69 1.992 3.38 3.981 5.07 5.969"/>
        <path d="M141.437 9.032l-3.034 8.374a1472.8 1472.8 0 0 1-4.929 1.448l2.098-5.77-.01.003c-54.77 16.108-109.93 29.474-165.7 38.539l-.632-4.445C25.004 38.115 80.167 24.748 134.94 8.639a7005.533 7005.533 0 0 1-3.5-4.127c1.642-.48 3.284-.963 4.927-1.449 1.69 1.992 3.38 3.981 5.07 5.969zM324.282-53.699l-2.992 8.678-4.874 1.825c.69-1.994 1.378-3.99 2.067-5.984l-.01.002C264.298-28.882 209.98-9.583 155.3 7.162l-.63-4.446C209.35-14.03 263.671-33.33 317.85-53.626l-3.47-3.912 4.874-1.826c1.676 1.889 3.351 3.778 5.027 5.665"/>
        <path d="M324.282-53.699l-2.992 8.678-4.874 1.825c.69-1.994 1.378-3.99 2.067-5.984l-.01.002C264.298-28.882 209.98-9.583 155.3 7.162l-.63-4.446C209.35-14.03 263.671-33.33 317.85-53.626l-3.47-3.912 4.874-1.826c1.676 1.889 3.351 3.778 5.027 5.665zM60.48 115.571a9373.56 9373.56 0 0 1-3.071 8.113c-1.658.379-3.315.754-4.973 1.127l2.122-5.587-.009.003c-55.277 12.538-111.068 21.46-167.593 25.207l-.63-4.446c56.527-3.746 112.32-12.669 167.601-25.209a8255.03 8255.03 0 0 1-3.527-4.31c1.658-.373 3.316-.749 4.974-1.128 1.702 2.079 3.405 4.155 5.107 6.23"/>
        <path d="M60.48 115.571a9373.56 9373.56 0 0 1-3.071 8.113c-1.658.379-3.315.754-4.973 1.127l2.122-5.587-.009.003c-55.277 12.538-111.068 21.46-167.593 25.207l-.63-4.446c56.527-3.746 112.32-12.669 167.601-25.209a8255.03 8255.03 0 0 1-3.527-4.31c1.658-.373 3.316-.749 4.974-1.128 1.702 2.079 3.405 4.155 5.107 6.23zM244.722 61.253l-3.008 8.562c-1.631.562-3.263 1.122-4.894 1.681l2.077-5.903-.009.003C184.484 84.287 129.815 101.11 74.66 114.502l-.63-4.445c55.158-13.394 109.83-30.217 164.238-48.909a14424.1 14424.1 0 0 1-3.483-3.995c1.631-.558 3.263-1.12 4.895-1.68l5.043 5.78"/>
        <path d="M244.722 61.253l-3.008 8.562c-1.631.562-3.263 1.122-4.894 1.681l2.077-5.903-.009.003C184.484 84.287 129.815 101.11 74.66 114.502l-.63-4.445c55.158-13.394 109.83-30.217 164.238-48.909a14424.1 14424.1 0 0 1-3.483-3.995c1.631-.558 3.263-1.12 4.895-1.68l5.043 5.78zM426.834-6.65l-2.986 8.72-4.867 1.883 2.062-6.017a.068.068 0 0 0-.008.003C366.947 18.86 312.842 39.66 258.498 58.778l-.63-4.446c54.346-19.118 108.454-39.92 162.544-60.842l-3.466-3.88 4.866-1.881 5.022 5.621"/>
        <path d="M426.834-6.65l-2.986 8.72-4.867 1.883 2.062-6.017a.068.068 0 0 0-.008.003C366.947 18.86 312.842 39.66 258.498 58.778l-.63-4.446c54.346-19.118 108.454-39.92 162.544-60.842l-3.466-3.88 4.866-1.881 5.022 5.621zM149.184 63.62l-3.034 8.374c-1.643.486-3.285.969-4.928 1.45l2.097-5.771-.009.003C88.539 83.784 33.38 97.15-22.391 106.215l-.631-4.445c55.773-9.066 110.936-22.433 165.71-38.542a7004.952 7004.952 0 0 1-3.501-4.128c1.642-.48 3.284-.963 4.927-1.448 1.69 1.991 3.38 3.981 5.07 5.969"/>
        <path d="M149.184 63.62l-3.034 8.374c-1.643.486-3.285.969-4.928 1.45l2.097-5.771-.009.003C88.539 83.784 33.38 97.15-22.391 106.215l-.631-4.445c55.773-9.066 110.936-22.433 165.71-38.542a7004.952 7004.952 0 0 1-3.501-4.128c1.642-.48 3.284-.963 4.927-1.448 1.69 1.991 3.38 3.981 5.07 5.969zM332.03.89l-2.993 8.677c-1.624.61-3.249 1.218-4.873 1.826l2.066-5.985-.009.003c-54.177 20.296-108.495 39.595-163.175 56.34l-.63-4.447C217.097 40.56 271.42 21.26 325.597.962l-3.47-3.912c1.625-.607 3.25-1.216 4.874-1.825L332.03.89"/>
        <path d="M332.03.89l-2.993 8.677c-1.624.61-3.249 1.218-4.873 1.826l2.066-5.985-.009.003c-54.177 20.296-108.495 39.595-163.175 56.34l-.63-4.447C217.097 40.56 271.42 21.26 325.597.962l-3.47-3.912c1.625-.607 3.25-1.216 4.874-1.825L332.03.89zM68.228 170.16c-1.023 2.706-2.048 5.41-3.072 8.112-1.657.38-3.314.755-4.973 1.128l2.122-5.586c-.003 0-.005 0-.008.002-55.277 12.538-111.068 21.46-167.594 25.206l-.63-4.446C-49.4 190.83 6.394 181.908 61.674 169.368a8260.13 8260.13 0 0 1-3.527-4.31c1.659-.374 3.317-.75 4.974-1.128l5.107 6.23"/>
        <path d="M68.228 170.16c-1.023 2.706-2.048 5.41-3.072 8.112-1.657.38-3.314.755-4.973 1.128l2.122-5.586c-.003 0-.005 0-.008.002-55.277 12.538-111.068 21.46-167.594 25.206l-.63-4.446C-49.4 190.83 6.394 181.908 61.674 169.368a8260.13 8260.13 0 0 1-3.527-4.31c1.659-.374 3.317-.75 4.974-1.128l5.107 6.23zM252.47 115.842l-3.008 8.562c-1.632.561-3.263 1.122-4.895 1.68l2.078-5.902-.01.003c-54.403 18.69-109.073 35.513-164.228 48.906l-.631-4.445c55.159-13.395 109.83-30.217 164.238-48.909l-3.483-3.995c1.632-.559 3.263-1.12 4.895-1.681l5.044 5.78"/>
        <path d="M252.47 115.842l-3.008 8.562c-1.632.561-3.263 1.122-4.895 1.68l2.078-5.902-.01.003c-54.403 18.69-109.073 35.513-164.228 48.906l-.631-4.445c55.159-13.395 109.83-30.217 164.238-48.909l-3.483-3.995c1.632-.559 3.263-1.12 4.895-1.681l5.044 5.78zM434.58 47.94l-2.984 8.719-4.867 1.883 2.061-6.018-.008.003c-54.087 20.922-108.193 41.721-162.537 60.84l-.63-4.447C319.96 89.802 374.068 69.001 428.158 48.08c-1.154-1.294-2.31-2.586-3.465-3.88l4.866-1.883 5.02 5.623"/>
        <path d="M434.58 47.94l-2.984 8.719-4.867 1.883 2.061-6.018-.008.003c-54.087 20.922-108.193 41.721-162.537 60.84l-.63-4.447C319.96 89.802 374.068 69.001 428.158 48.08c-1.154-1.294-2.31-2.586-3.465-3.88l4.866-1.883 5.02 5.623zM156.932 118.21l-3.035 8.373a1472.8 1472.8 0 0 1-4.928 1.448l2.097-5.77-.009.004c-54.77 16.107-109.93 29.473-165.701 38.538l-.631-4.445c55.774-9.066 110.936-22.433 165.71-38.541a4805.119 4805.119 0 0 1-3.501-4.129c1.642-.48 3.285-.962 4.927-1.448 1.691 1.992 3.38 3.982 5.07 5.97"/>
        <path d="M156.932 118.21l-3.035 8.373a1472.8 1472.8 0 0 1-4.928 1.448l2.097-5.77-.009.004c-54.77 16.107-109.93 29.473-165.701 38.538l-.631-4.445c55.774-9.066 110.936-22.433 165.71-38.541a4805.119 4805.119 0 0 1-3.501-4.129c1.642-.48 3.285-.962 4.927-1.448 1.691 1.992 3.38 3.982 5.07 5.97zM339.777 55.478l-2.992 8.678-4.874 1.825 2.066-5.984c-.003 0-.005.002-.008.003-54.177 20.295-108.495 39.594-163.175 56.339l-.631-4.446c54.683-16.746 109.004-36.046 163.183-56.342a13873.83 13873.83 0 0 1-3.471-3.912l4.875-1.826c1.676 1.889 3.35 3.778 5.027 5.665"/>
        <path d="M339.777 55.478l-2.992 8.678-4.874 1.825 2.066-5.984c-.003 0-.005.002-.008.003-54.177 20.295-108.495 39.594-163.175 56.339l-.631-4.446c54.683-16.746 109.004-36.046 163.183-56.342a13873.83 13873.83 0 0 1-3.471-3.912l4.875-1.826c1.676 1.889 3.35 3.778 5.027 5.665zM521.62-14.31l-2.989 8.692a4115.78 4115.78 0 0 0-4.87 1.85l2.063-6-.01.003c-54.136 20.57-108.167 41.892-162.313 62.404l-.63-4.446C407.018 27.68 461.052 6.358 515.192-14.214c-1.156-1.3-2.313-2.598-3.469-3.896a4891.6 4891.6 0 0 1 4.871-1.851l5.025 5.651"/>
        <path d="M521.62-14.31l-2.989 8.692a4115.78 4115.78 0 0 0-4.87 1.85l2.063-6-.01.003c-54.136 20.57-108.167 41.892-162.313 62.404l-.63-4.446C407.018 27.68 461.052 6.358 515.192-14.214c-1.156-1.3-2.313-2.598-3.469-3.896a4891.6 4891.6 0 0 1 4.871-1.851l5.025 5.651zM164.68 172.798a26158.29 26158.29 0 0 1-3.036 8.373 1472.8 1472.8 0 0 1-4.928 1.448c.7-1.922 1.398-3.845 2.097-5.769l-.008.003c-54.771 16.108-109.931 29.474-165.702 38.539l-.63-4.445c55.773-9.066 110.936-22.433 165.71-38.542a7002.284 7002.284 0 0 1-3.502-4.127c1.643-.481 3.285-.964 4.927-1.45 1.691 1.992 3.381 3.982 5.071 5.97"/>
        <path d="M164.68 172.798a26158.29 26158.29 0 0 1-3.036 8.373 1472.8 1472.8 0 0 1-4.928 1.448c.7-1.922 1.398-3.845 2.097-5.769l-.008.003c-54.771 16.108-109.931 29.474-165.702 38.539l-.63-4.445c55.773-9.066 110.936-22.433 165.71-38.542a7002.284 7002.284 0 0 1-3.502-4.127c1.643-.481 3.285-.964 4.927-1.45 1.691 1.992 3.381 3.982 5.071 5.97zM347.524 110.067c-.997 2.893-1.994 5.786-2.992 8.677-1.625.61-3.25 1.219-4.874 1.826l2.067-5.985-.01.003c-54.176 20.296-108.494 39.595-163.174 56.34l-.631-4.447c54.683-16.745 109.004-36.045 163.183-56.342l-3.47-3.912c1.625-.607 3.25-1.216 4.874-1.825l5.027 5.665"/>
        <path d="M347.524 110.067c-.997 2.893-1.994 5.786-2.992 8.677-1.625.61-3.25 1.219-4.874 1.826l2.067-5.985-.01.003c-54.176 20.296-108.494 39.595-163.174 56.34l-.631-4.447c54.683-16.745 109.004-36.045 163.183-56.342l-3.47-3.912c1.625-.607 3.25-1.216 4.874-1.825l5.027 5.665zM529.367 40.279l-2.989 8.691c-1.624.616-3.247 1.233-4.87 1.851l2.063-6-.009.003c-54.137 20.57-108.167 41.891-162.314 62.404l-.63-4.445C414.766 82.269 468.8 60.947 522.94 40.375l-3.469-3.897c1.624-.618 3.248-1.235 4.871-1.85l5.025 5.65"/>
        <path d="M529.367 40.279l-2.989 8.691c-1.624.616-3.247 1.233-4.87 1.851l2.063-6-.009.003c-54.137 20.57-108.167 41.891-162.314 62.404l-.63-4.445C414.766 82.269 468.8 60.947 522.94 40.375l-3.469-3.897c1.624-.618 3.248-1.235 4.871-1.85l5.025 5.65zM616.623-20.448l-3.004 8.59c-1.63.575-3.259 1.153-4.887 1.731.69-1.979 1.382-3.955 2.073-5.933l-.009.003C556.47 3.184 502.374 24.05 448.288 44.979l-.631-4.446c54.09-20.93 108.188-41.796 162.517-61.04-1.16-1.32-2.319-2.641-3.478-3.963 1.63-.578 3.258-1.156 4.887-1.731 1.68 1.916 3.36 3.835 5.04 5.753"/>
        <path d="M616.623-20.448l-3.004 8.59c-1.63.575-3.259 1.153-4.887 1.731.69-1.979 1.382-3.955 2.073-5.933l-.009.003C556.47 3.184 502.374 24.05 448.288 44.979l-.631-4.446c54.09-20.93 108.188-41.796 162.517-61.04-1.16-1.32-2.319-2.641-3.478-3.963 1.63-.578 3.258-1.156 4.887-1.731 1.68 1.916 3.36 3.835 5.04 5.753zM75.976 224.748a9373.558 9373.558 0 0 1-3.073 8.113c-1.657.379-3.314.754-4.972 1.127l2.122-5.586-.01.002c-55.276 12.538-111.067 21.46-167.592 25.207l-.631-4.446c56.528-3.746 112.321-12.669 167.602-25.209a8259.202 8259.202 0 0 1-3.527-4.31c1.658-.373 3.316-.749 4.973-1.128 1.703 2.079 3.406 4.156 5.108 6.23"/>
        <path d="M75.976 224.748a9373.558 9373.558 0 0 1-3.073 8.113c-1.657.379-3.314.754-4.972 1.127l2.122-5.586-.01.002c-55.276 12.538-111.067 21.46-167.592 25.207l-.631-4.446c56.528-3.746 112.321-12.669 167.602-25.209a8259.202 8259.202 0 0 1-3.527-4.31c1.658-.373 3.316-.749 4.973-1.128 1.703 2.079 3.406 4.156 5.108 6.23zM260.217 170.43l-3.008 8.562c-1.632.562-3.263 1.122-4.895 1.681l2.078-5.902-.009.003c-54.404 18.69-109.073 35.512-164.23 48.906l-.63-4.445c55.159-13.396 109.83-30.218 164.238-48.91l-3.483-3.994c1.632-.56 3.264-1.12 4.895-1.682l5.044 5.781"/>
        <path d="M260.217 170.43l-3.008 8.562c-1.632.562-3.263 1.122-4.895 1.681l2.078-5.902-.009.003c-54.404 18.69-109.073 35.512-164.23 48.906l-.63-4.445c55.159-13.396 109.83-30.218 164.238-48.91l-3.483-3.994c1.632-.56 3.264-1.12 4.895-1.682l5.044 5.781zM442.328 102.528l-2.985 8.72-4.867 1.882 2.062-6.017a.068.068 0 0 0-.008.003c-54.088 20.922-108.194 41.722-162.536 60.839l-.632-4.446c54.346-19.118 108.454-39.92 162.545-60.842l-3.466-3.88 4.866-1.882 5.021 5.623"/>
        <path d="M442.328 102.528l-2.985 8.72-4.867 1.882 2.062-6.017a.068.068 0 0 0-.008.003c-54.088 20.922-108.194 41.722-162.536 60.839l-.632-4.446c54.346-19.118 108.454-39.92 162.545-60.842l-3.466-3.88 4.866-1.882 5.021 5.623zM624.37 34.14a17403.94 17403.94 0 0 0-3.004 8.59c-1.63.575-3.259 1.153-4.887 1.731l2.073-5.933-.009.003c-54.326 19.243-108.421 40.107-162.507 61.037l-.632-4.446c54.09-20.93 108.188-41.796 162.517-61.04-1.16-1.32-2.318-2.642-3.478-3.963 1.63-.579 3.258-1.156 4.888-1.732l5.04 5.754"/>
        <path d="M624.37 34.14a17403.94 17403.94 0 0 0-3.004 8.59c-1.63.575-3.259 1.153-4.887 1.731l2.073-5.933-.009.003c-54.326 19.243-108.421 40.107-162.507 61.037l-.632-4.446c54.09-20.93 108.188-41.796 162.517-61.04-1.16-1.32-2.318-2.642-3.478-3.963 1.63-.579 3.258-1.156 4.888-1.732l5.04 5.754zM808.21-21.585c-1.022 2.72-2.043 5.444-3.065 8.17-1.653.406-3.306.815-4.958 1.229l2.114-5.65-.008.002c-55.12 13.65-109.762 30.67-164.146 49.498l-.631-4.445C691.903 8.39 746.548-8.63 801.67-22.28a8038.591 8038.591 0 0 0-3.518-4.248c1.652-.413 3.305-.823 4.958-1.23l5.1 6.174"/>
        <path d="M808.21-21.585c-1.022 2.72-2.043 5.444-3.065 8.17-1.653.406-3.306.815-4.958 1.229l2.114-5.65-.008.002c-55.12 13.65-109.762 30.67-164.146 49.498l-.631-4.445C691.903 8.39 746.548-8.63 801.67-22.28a8038.591 8038.591 0 0 0-3.518-4.248c1.652-.413 3.305-.823 4.958-1.23l5.1 6.174zM712.075-23.42l-3.029 8.415c-1.639.506-3.278 1.013-4.917 1.525l2.09-5.817-.008.003C651.557-2.359 597.259 17.072 543.09 37.44l-.63-4.446C596.63 12.625 650.932-6.807 705.589-23.743l-3.495-4.08c1.639-.51 3.277-1.019 4.916-1.525 1.688 1.974 3.377 3.95 5.065 5.927"/>
        <path d="M712.075-23.42l-3.029 8.415c-1.639.506-3.278 1.013-4.917 1.525l2.09-5.817-.008.003C651.557-2.359 597.259 17.072 543.09 37.44l-.63-4.446C596.63 12.625 650.932-6.807 705.589-23.743l-3.495-4.08c1.639-.51 3.277-1.019 4.916-1.525 1.688 1.974 3.377 3.95 5.065 5.927z"/>
    </g>
</svg>
