<svg xmlns="http://www.w3.org/2000/svg" width="320" height="492" viewBox="0 0 320 492">
    <path fill="#5ae6ff" fill-rule="nonzero" d="M709.698 213.014s.882 2.33 1.552 4.112c-29.025-4.708-56.551-7.983-84.118-9.991l-.257 3.556c27.453 1.996 54.876 5.261 83.783 9.953l-2.781 3.385 4.062.67 4.09-4.981-2.27-6.03-4.061-.674zm-945.08 47.312l4.047.735 4.167-4.923-2.175-6.07-4.046-.727s.833 2.33 1.478 4.128c-20.723-3.825-42.371-8.39-67.089-14.143v3.66c24.443 5.677 45.9 10.196 66.462 13.99l-2.843 3.35zm490.253-88.353c27.624-6.995 54.696-13.789 81.92-19.94l-1.309 4.181 4.012-.894 1.923-6.16-4.365-4.74-4.016.898s1.69 1.83 2.984 3.236c-27.277 6.162-54.37 12.96-82.028 19.964l.879 3.455zm417.639-41.05c26.542 3.269 53.736 7.751 83.08 13.672l-2.915 3.281 4.036.83 4.27-4.826-2.037-6.116-4.032-.827 1.392 4.168c-29.437-5.95-56.718-10.436-83.362-13.723l-.432 3.54zm0-134.822c26.542 3.27 53.736 7.752 83.08 13.677l-2.915 3.29 4.036.82 4.27-4.829-2.037-6.116-4.032-.821 1.392 4.166C726.867.347 699.586-4.148 672.942-7.432l-.432 3.533zM776.554 14.18c28.23 6.132 56.077 13.014 82.012 19.55l-3.058 3.144 3.988 1.012 4.49-4.632-1.759-6.198-3.988-1.008s.677 2.39 1.195 4.226c-25.963-6.545-53.84-13.424-82.131-19.58l-.75 3.486zM461.86 130.04c28.518-3.293 55.99-5.163 83.94-5.731l-2.126 3.827 4.118-.062 3.127-5.642-3.315-5.532-4.117.07 2.265 3.777c-28.068.573-55.66 2.452-84.3 5.755l.408 3.539zm-104.148 17.397c29.554-6.272 56.696-11.083 82.916-14.7l-1.661 4.053 4.07-.543 2.446-5.97-3.94-5.105-4.07.553 2.687 3.479c-26.321 3.634-53.541 8.451-83.187 14.75l.739 3.483zm209.502-23.303c28.099.115 55.6 1.563 84.024 4.412l-2.575 3.549 4.093.42 3.781-5.218-2.633-5.89-4.09-.421s1.02 2.279 1.799 4.014c-28.547-2.855-56.165-4.311-84.385-4.435l-.014 3.569zm246.787 42.7s.705 2.387 1.249 4.216c-31.266-7.465-57.603-13.092-82.803-17.682l-.637 3.509c25.134 4.576 51.411 10.188 82.607 17.635l-3.026 3.182 4 .958 4.443-4.674-1.837-6.182-3.996-.962zm-943.716 141.362l4.095.286 3.616-5.337-2.82-5.801-4.106-.285s1.081 2.221 1.914 3.938c-27.367-2.04-54.782-5.347-83.753-10.124l-.584 3.508c29.089 4.802 56.611 8.12 84.1 10.165l-2.462 3.65zm108.645-2.327l-1.996 3.922 4.108-.215 2.918-5.748-3.514-5.407-4.107.226s1.346 2.07 2.392 3.67a856.255 856.255 0 0 1-42.218 1.05c-13.972 0-28.142-.351-42.114-1.039l-.176 3.557c14.03.69 28.26 1.05 42.29 1.05 14.064 0 28.328-.367 42.417-1.066zm-271.11-40.555l4.013.908 4.369-4.74-1.919-6.151-4.012-.903s.743 2.361 1.309 4.182a1512.13 1512.13 0 0 1-10.58-2.43v3.655c3.265.76 6.524 1.51 9.801 2.253l-2.98 3.226zm56.799 28.718l4.046.732 4.167-4.92-2.175-6.066-4.046-.735s.833 2.335 1.478 4.124c-20.723-3.821-42.371-8.381-67.089-14.133v3.65c24.443 5.69 45.9 10.2 66.462 13.993l-2.843 3.355zm423.814-21.227l-1.245 4.213 3.998-.964 1.825-6.186-4.446-4.67-4 .973s1.713 1.79 3.027 3.175c-31.37 7.541-57.634 13.207-82.567 17.813l.651 3.503c24.993-4.619 51.318-10.296 82.757-17.857zm208.925-45.047l2.183-6.063-4.155-4.925-4.05.727s1.602 1.895 2.835 3.36c-25.2 4.598-51.55 10.224-82.82 17.699l.832 3.458c31.194-7.45 57.481-13.073 82.615-17.653l-1.486 4.13 4.046-.733zm99.658-24.234s1.394 2.066 2.46 3.65c-27.547 2.016-55.079 5.293-84.108 10.017l.572 3.516c28.925-4.708 56.338-7.97 83.773-9.98l-1.918 3.941 4.101-.287 2.825-5.799-3.604-5.345-4.101.287zm339.093-27.408l-.853 3.462c14.42 3.553 29.003 7.246 43.107 10.824 12.735 3.23 25.889 6.561 38.895 9.785l-3.042 3.165 3.996.988 4.463-4.646-1.79-6.198-3.991-.984s.687 2.385 1.22 4.218c-12.998-3.222-26.145-6.553-38.877-9.782-14.112-3.572-28.697-7.272-43.128-10.832zm-232.453 25.81l1.998 3.92a875.005 875.005 0 0 0-42.145-1.025c-14.12 0-28.44.348-42.557 1.038l.172 3.56a872.164 872.164 0 0 1 42.385-1.038c13.919 0 28.023.35 41.955 1.02l-2.384 3.68 4.107.21 3.507-5.412-2.93-5.744-4.108-.21zM291.28 247.1l-1.221 4.213 3.992-.98 1.797-6.194-4.462-4.65-3.992.98s1.725 1.797 3.04 3.172c-14.272 3.524-28.684 7.174-42.633 10.708-12.889 3.268-26.22 6.645-39.377 9.906l.858 3.46c13.168-3.265 26.497-6.642 39.396-9.911 13.944-3.534 28.347-7.184 42.602-10.704zM814 200.542s.706 2.383 1.25 4.208c-31.266-7.467-57.603-13.087-82.803-17.676l-.637 3.503c25.134 4.576 51.411 10.184 82.607 17.64l-3.026 3.181 4 .962 4.443-4.682-1.837-6.178-3.996-.958zm-210.344 35.082s1.131 2.225 1.998 3.923a874.994 874.994 0 0 0-84.702.012l.172 3.56a869.643 869.643 0 0 1 42.385-1.036c13.919 0 28.023.347 41.955 1.02l-2.384 3.674 4.107.217 3.507-5.41-2.93-5.743-4.108-.217zm-101.76 12.456l2.825-5.79-3.604-5.347-4.101.285 2.46 3.65c-27.547 2.016-55.079 5.291-84.108 10.015l.572 3.514c28.925-4.704 56.338-7.965 83.773-9.973l-1.918 3.939 4.101-.293zm-104.538 13.382l2.183-6.063-4.155-4.927-4.05.726s1.602 1.902 2.835 3.353c-25.2 4.6-51.55 10.234-82.82 17.705l.832 3.467c31.194-7.46 57.481-13.074 82.615-17.662l-1.486 4.124 4.046-.723zM291.28 280.809l-1.221 4.21 3.992-.985 1.797-6.188-4.462-4.65-3.992.982s1.725 1.79 3.04 3.168c-14.272 3.525-28.684 7.174-42.633 10.709-12.889 3.267-26.22 6.644-39.377 9.905l.858 3.457c13.168-3.262 26.497-6.642 39.396-9.912 13.944-3.53 28.347-7.18 42.602-10.696zm544.829-70.99l-.853 3.456c14.42 3.564 29.003 7.256 43.107 10.828 12.735 3.227 25.889 6.56 38.895 9.786l-3.042 3.168 3.996.984 4.463-4.646-1.79-6.19-3.991-.988s.687 2.38 1.22 4.213c-12.998-3.221-26.145-6.556-38.877-9.778-14.112-3.576-28.697-7.268-43.128-10.834zm-647.676 96.694l-1.245 4.21 3.998-.965 1.825-6.182-4.446-4.67-4 .96s1.713 1.8 3.027 3.184c-31.37 7.533-57.634 13.203-82.567 17.805l.651 3.503c24.993-4.614 51.318-10.296 82.757-17.845zm647.676-62.99l-.853 3.459c14.42 3.552 29.003 7.25 43.107 10.83 12.735 3.225 25.889 6.56 38.895 9.782l-3.042 3.168 3.996.988 4.463-4.646-1.79-6.202-3.991-.986s.687 2.387 1.22 4.223c-12.998-3.223-26.145-6.556-38.877-9.784-14.112-3.578-28.697-7.275-43.128-10.832zM814 267.945s.705 2.384 1.249 4.21c-31.266-7.464-57.603-13.082-82.803-17.674l-.637 3.502c25.134 4.577 51.411 10.187 82.607 17.642l-3.026 3.18 4 .956 4.443-4.672-1.837-6.184-3.996-.96zm-104.303-21.23s.882 2.333 1.552 4.12c-29.025-4.716-56.551-7.989-84.118-9.993l-.257 3.55c27.453 2.002 54.876 5.256 83.783 9.957l-2.781 3.385 4.062.67 4.09-4.981-2.27-6.04-4.061-.668zm-873.466-29.896c28.648 3.311 56.228 5.172 84.273 5.698l-2.31 3.715 4.109.136 3.4-5.475-3.042-5.684-4.11-.137s1.184 2.203 2.078 3.883c-27.946-.52-55.435-2.373-83.994-5.672l-.404 3.536zM84.487 328.067l-1.542 4.12 4.06-.685 2.25-6.038-4.099-4.973-4.058.685 2.789 3.377c-28.963 4.778-56.378 8.1-83.749 10.145l.261 3.548c27.493-2.05 55.007-5.381 84.088-10.179zM-57.98 222.652c28.166-.183 55.778-1.723 84.369-4.693l-1.783 4.02 4.094-.44 2.607-5.891-3.799-5.206-4.091.436s1.462 1.996 2.585 3.536c-28.469 2.96-55.96 4.495-84.004 4.674l.022 3.564zM879.355 38.985C903.9 45.207 929.219 51.615 955 57.613V53.95c-25.47-5.93-50.495-12.269-74.775-18.42l-.87 3.454zM47.715 215.492c26.493-3.369 53.758-7.969 83.305-14.047l-1.377 4.171 4.026-.84 2.02-6.12-4.295-4.81-4.024.84s1.653 1.846 2.918 3.268c-29.452 6.059-56.626 10.643-83.021 14.01l.448 3.528zm104.291-18.522c28.738-6.341 57.382-13.49 82.082-19.735l-1.192 4.225 3.984-1.004 1.76-6.202-4.495-4.622-3.992 1.004s1.731 1.777 3.062 3.152c-24.676 6.232-53.28 13.376-81.978 19.704l.769 3.478zM-21.07 339.577l-1.996 3.923 4.108-.224 2.918-5.743-3.514-5.403-4.107.213s1.346 2.074 2.392 3.674a861.213 861.213 0 0 1-42.218 1.058c-13.972 0-28.142-.351-42.114-1.046l-.176 3.56c14.03.691 28.26 1.042 42.29 1.042a864.29 864.29 0 0 0 42.417-1.054zm-108.645 2.323l4.095.287 3.616-5.342-2.82-5.793-4.106-.297 1.914 3.943c-27.367-2.036-54.782-5.348-83.753-10.121l-.584 3.512c29.089 4.798 56.611 8.12 84.1 10.161l-2.462 3.65zm-138.53-142.603c29.708 6.34 56.928 11.185 83.178 14.815l-2.691 3.478 4.077.556 3.945-5.104-2.447-5.963-4.073-.556 1.665 4.058c-26.162-3.618-53.292-8.451-82.912-14.77l-.741 3.486zm32.864 128.438l4.046.733 4.167-4.919-2.175-6.07-4.046-.732s.833 2.331 1.478 4.128c-20.723-3.825-42.371-8.385-67.089-14.143v3.66c24.443 5.678 45.9 10.192 66.462 13.99l-2.843 3.353zm0-101.11l4.046.727 4.167-4.917-2.175-6.062-4.046-.741s.833 2.335 1.478 4.13c-20.723-3.826-42.371-8.382-67.089-14.138v3.654c24.443 5.686 45.9 10.199 66.462 13.988l-2.843 3.359zm319.868 67.733l-1.542 4.124 4.06-.677 2.25-6.043-4.099-4.972-4.058.677s1.576 1.91 2.789 3.385c-28.963 4.773-56.378 8.1-83.749 10.136l.261 3.557c27.493-2.046 55.007-5.385 84.088-10.187zm377.373-96.912c28.518-3.293 55.99-5.164 83.94-5.728l-2.126 3.828 4.118-.07 3.127-5.634-3.315-5.533-4.117.07 2.265 3.773c-28.068.578-55.66 2.453-84.3 5.76l.408 3.534zm105.354-5.907c28.099.116 55.6 1.564 84.024 4.413l-2.575 3.548 4.093.42 3.781-5.213-2.633-5.891-4.09-.42 1.799 4.014c-28.547-2.86-56.165-4.312-84.385-4.435l-.014 3.564zm-519.5 91.364c26.494-3.375 53.76-7.973 83.306-14.048l-1.377 4.172 4.026-.84 2.02-6.127-4.295-4.81-4.024.837s1.653 1.85 2.918 3.274c-29.452 6.062-56.626 10.642-83.021 14.007l.448 3.535zm-339.893-51.285l4.012.902 4.369-4.74-1.919-6.156-4.012-.906s.743 2.37 1.309 4.192a1634.49 1634.49 0 0 1-10.58-2.437v3.662c3.265.759 6.524 1.506 9.801 2.245l-2.98 3.238zM254.87 37.16c27.624-6.999 54.696-13.789 81.92-19.945l-1.309 4.186 4.012-.902 1.923-6.149-4.365-4.747-4.016.9 2.984 3.234c-27.277 6.17-54.37 12.964-82.028 19.968l.879 3.455zM152.006 264.377c28.738-6.34 57.382-13.492 82.082-19.734l-1.192 4.228 3.984-1.004 1.76-6.208-4.495-4.622-3.992 1.004s1.731 1.779 3.062 3.151c-24.676 6.234-53.28 13.379-81.978 19.706l.769 3.479zm102.865-24.994c27.624-6.994 54.696-13.79 81.92-19.944l-1.309 4.186 4.012-.899 1.923-6.16-4.365-4.74-4.016.903s1.69 1.825 2.984 3.231c-27.277 6.162-54.37 12.964-82.028 19.967l.879 3.456zm102.84-226.76c29.555-6.276 56.697-11.085 82.917-14.705l-1.661 4.058 4.07-.551 2.446-5.961-3.94-5.106-4.07.553s1.52 1.965 2.687 3.479c-26.321 3.626-53.541 8.455-83.187 14.747l.739 3.486zm0 202.224c29.555-6.274 56.697-11.083 82.917-14.701l-1.661 4.054 4.07-.548 2.446-5.965-3.94-5.106-4.07.546s1.52 1.976 2.687 3.486c-26.321 3.63-53.541 8.452-83.187 14.747l.739 3.487zm314.799-16.522c26.542 3.273 53.736 7.752 83.08 13.68l-2.915 3.278 4.036.825 4.27-4.822-2.037-6.118-4.032-.82s.787 2.358 1.392 4.163c-29.437-5.945-56.718-10.435-83.362-13.719l-.432 3.533zM84.487 226.952l-1.542 4.12 4.06-.676 2.25-6.04-4.099-4.973-4.058.677s1.576 1.907 2.789 3.385c-28.963 4.78-56.378 8.103-83.749 10.137l.261 3.552c27.493-2.046 55.007-5.385 84.088-10.182zm103.946-21.553l-1.245 4.218 3.998-.968 1.825-6.188-4.446-4.67-4 .97s1.713 1.79 3.027 3.174c-31.37 7.542-57.634 13.207-82.567 17.815l.651 3.502c24.993-4.616 51.318-10.296 82.757-17.853zm484.077-40.78c26.542 3.278 53.736 7.752 83.08 13.677l-2.915 3.29 4.036.82 4.27-4.829-2.037-6.116-4.032-.823 1.392 4.176c-29.437-5.949-56.718-10.444-83.362-13.727l-.432 3.533zm-802.225 76.165l4.095.29 3.616-5.34-2.82-5.798-4.106-.287s1.081 2.226 1.914 3.937c-27.367-2.034-54.782-5.345-83.753-10.125l-.584 3.515c29.089 4.797 56.611 8.118 84.1 10.166l-2.462 3.642zm108.645-2.323l-1.996 3.923 4.108-.215 2.918-5.75-3.514-5.405-4.107.221s1.346 2.072 2.392 3.674a861.195 861.195 0 0 1-42.218 1.05c-13.972 0-28.142-.35-42.114-1.042l-.176 3.556c14.03.691 28.26 1.05 42.29 1.05 14.064 0 28.328-.36 42.417-1.062zm624.726-103.943s1.131 2.222 1.998 3.921a877.585 877.585 0 0 0-42.145-1.026c-14.12 0-28.44.35-42.557 1.034l.172 3.564a867.146 867.146 0 0 1 42.385-1.042c13.919 0 28.023.35 41.955 1.024l-2.384 3.676 4.107.211 3.507-5.409-2.93-5.744-4.108-.209zm106.042 11.09s.882 2.326 1.552 4.111c-29.025-4.711-56.551-7.983-84.118-9.99l-.257 3.551c27.453 2 54.876 5.262 83.783 9.954l-2.781 3.393 4.062.669 4.09-4.985-2.27-6.034-4.061-.67zm-461.02 44.786c13.944-3.529 28.347-7.175 42.602-10.701l-1.221 4.212 3.992-.982 1.797-6.19-4.462-4.65-3.992.98s1.725 1.799 3.04 3.167c-14.272 3.527-28.684 7.18-42.633 10.709-12.889 3.27-26.22 6.65-39.377 9.907l.858 3.463c13.168-3.265 26.497-6.646 39.396-9.915zm63.505-15.785c31.194-7.453 57.481-13.076 82.615-17.656l-1.486 4.126 4.046-.733 2.183-6.062-4.155-4.925-4.05.73s1.602 1.9 2.835 3.356c-25.2 4.598-51.55 10.224-82.82 17.703l.832 3.46zm184.833-38.497l2.46 3.65c-27.547 2.02-55.079 5.293-84.108 10.025l.572 3.508c28.925-4.7 56.338-7.965 83.773-9.975l-1.918 3.937 4.101-.287 2.825-5.796-3.604-5.345-4.101.283zm-105.68 47.675s1.602 1.907 2.835 3.363c-25.2 4.594-51.55 10.224-82.82 17.695l.832 3.473c31.194-7.465 57.481-13.075 82.615-17.667l-1.486 4.133 4.046-.729 2.183-6.066-4.155-4.925-4.05.723zm-136.465 21.891c27.624-6.999 54.696-13.79 81.92-19.944l-1.309 4.185 4.012-.902 1.923-6.148-4.365-4.748-4.016.9 2.984 3.234c-27.277 6.17-54.37 12.968-82.028 19.973l.879 3.45zM461.86-4.777c28.518-3.286 55.99-5.16 83.94-5.732l-2.126 3.829 4.118-.068 3.127-5.634-3.315-5.528-4.117.065 2.265 3.776c-28.068.571-55.66 2.45-84.3 5.753l.408 3.539zM357.712 181.14c29.554-6.275 56.696-11.085 82.916-14.705l-1.661 4.059 4.07-.552 2.446-5.961-3.94-5.106-4.07.554 2.687 3.478c-26.321 3.626-53.541 8.455-83.187 14.747l.739 3.486zm104.148-17.394c28.518-3.291 55.99-5.166 83.94-5.734l-2.126 3.827 4.118-.07 3.127-5.634-3.315-5.528-4.117.07s1.285 2.135 2.265 3.771c-28.068.572-55.66 2.45-84.3 5.754l.408 3.544zM-57.98 256.356c28.166-.178 55.778-1.72 84.369-4.7l-1.783 4.03 4.094-.438 2.607-5.903-3.799-5.206-4.091.438 2.585 3.547c-28.469 2.956-55.96 4.488-84.004 4.671l.022 3.56zm-105.789-5.828c28.648 3.307 56.228 5.162 84.273 5.688l-2.31 3.724 4.109.137 3.4-5.483-3.042-5.685-4.11-.132s1.184 2.198 2.078 3.879c-27.946-.518-55.435-2.37-83.994-5.674l-.404 3.546zm730.982-92.694c28.099.123 55.6 1.572 84.024 4.413l-2.575 3.548 4.093.428 3.781-5.225-2.633-5.884-4.09-.424s1.02 2.271 1.799 4.014c-28.547-2.854-56.165-4.315-84.385-4.43l-.014 3.56zm-415.208 72.833c28.738-6.333 57.382-13.485 82.082-19.727l-1.192 4.225 3.984-1.008 1.76-6.206-4.495-4.622-3.992 1.01s1.731 1.784 3.062 3.146c-24.676 6.24-53.28 13.376-81.978 19.712l.769 3.47zM567.214-10.684c28.099.115 55.6 1.563 84.024 4.412l-2.575 3.549 4.093.428 3.781-5.226-2.633-5.887-4.09-.42s1.02 2.27 1.799 4.014c-28.547-2.863-56.165-4.315-84.385-4.435l-.014 3.565zm-519.5 259.881c26.494-3.378 53.76-7.977 83.306-14.051l-1.377 4.176 4.026-.837 2.02-6.12-4.295-4.81-4.024.833s1.653 1.851 2.918 3.275c-29.452 6.055-56.626 10.64-83.021 14l.448 3.534zm-315.958 17.51c29.707 6.334 56.927 11.183 83.177 14.809l-2.691 3.479 4.077.557 3.945-5.102-2.447-5.965-4.073-.556s.94 2.296 1.665 4.059c-26.162-3.62-53.292-8.451-82.912-14.767l-.741 3.486zm247.174 5.463l-1.996 3.923 4.108-.227 2.918-5.742-3.514-5.4-4.107.212s1.346 2.074 2.392 3.67c-14.026.7-28.22 1.058-42.218 1.058-13.972 0-28.142-.35-42.114-1.042l-.176 3.556c14.03.696 28.26 1.046 42.29 1.046 14.064 0 28.328-.354 42.417-1.054zm-108.645 2.32l4.095.286 3.616-5.337-2.82-5.798-4.106-.292s1.081 2.22 1.914 3.942c-27.367-2.04-54.782-5.347-83.753-10.125l-.584 3.517c29.089 4.793 56.611 8.116 84.1 10.16l-2.462 3.646zm-34.053 9.736c28.648 3.31 56.228 5.173 84.273 5.695l-2.31 3.72 4.109.133 3.4-5.47-3.042-5.69-4.11-.132s1.184 2.202 2.078 3.883c-27.946-.522-55.435-2.377-83.994-5.674l-.404 3.535zm105.79 5.83c28.165-.18 55.777-1.722 84.368-4.69l-1.783 4.018 4.094-.435 2.607-5.895-3.799-5.208-4.091.44s1.462 1.993 2.585 3.535c-28.469 2.96-55.96 4.496-84.004 4.676l.022 3.56zm-210.266-57.054c29.707 6.334 56.927 11.183 83.177 14.817l-2.691 3.478 4.077.546 3.945-5.098-2.447-5.969-4.073-.544 1.665 4.054c-26.162-3.62-53.292-8.45-82.912-14.766l-.741 3.482zm765.26-63.18l2.46 3.645c-27.547 2.016-55.079 5.298-84.108 10.017l.572 3.517c28.925-4.708 56.338-7.97 83.773-9.976l-1.918 3.937 4.101-.283 2.825-5.795-3.604-5.346-4.101.283zm106.64-1.606s1.131 2.225 1.998 3.92a877.573 877.573 0 0 0-42.145-1.018c-14.12 0-28.44.349-42.557 1.038l.172 3.552a882.38 882.38 0 0 1 42.385-1.03c13.919 0 28.023.347 41.955 1.017l-2.384 3.675 4.107.215 3.507-5.409-2.93-5.743-4.108-.217zm-354.978 55.883c13.944-3.533 28.347-7.182 42.602-10.7l-1.221 4.215 3.992-.982 1.797-6.19-4.462-4.654-3.992.98s1.725 1.791 3.04 3.168c-14.272 3.526-28.684 7.176-42.633 10.712-12.889 3.27-26.22 6.642-39.377 9.904l.858 3.454c13.168-3.261 26.497-6.638 39.396-9.907zm-60.245 15.004l-1.245 4.213 3.998-.968 1.825-6.178-4.446-4.67-4 .962s1.713 1.797 3.027 3.178c-31.37 7.54-57.634 13.207-82.567 17.809l.651 3.502c24.993-4.618 51.318-10.296 82.757-17.848zM84.487 260.66l-1.542 4.116 4.06-.681 2.25-6.043-4.099-4.973-4.058.686s1.576 1.906 2.789 3.377c-28.963 4.781-56.378 8.1-83.749 10.148L.4 270.84c27.493-2.05 55.007-5.385 84.088-10.178zm625.21-81.356s.883 2.334 1.553 4.124c-29.025-4.716-56.551-7.983-84.118-9.992l-.257 3.549c27.453 2 54.876 5.257 83.783 9.953l-2.781 3.385 4.062.673 4.09-4.984-2.27-6.035-4.061-.673zM87.006 398.913l2.25-6.039-4.099-4.973-4.058.682s1.576 1.908 2.789 3.38C54.924 396.742 27.509 400.065.138 402.1l.261 3.552c27.493-2.046 55.007-5.377 84.088-10.182l-1.542 4.128 4.06-.685zM357.712 80.03c29.554-6.276 56.696-11.085 82.916-14.705l-1.661 4.058 4.07-.548 2.446-5.965-3.94-5.11-4.07.558s1.52 1.964 2.687 3.478c-26.321 3.63-53.541 8.456-83.187 14.751l.739 3.483zm-487.427 329.272l4.095.291 3.616-5.341-2.82-5.794-4.106-.292 1.914 3.938c-27.367-2.036-54.782-5.347-83.753-10.119l-.584 3.51c29.089 4.802 56.611 8.121 84.1 10.165l-2.462 3.642zm108.645-2.319l-1.996 3.923 4.108-.219 2.918-5.744-3.514-5.407-4.107.217s1.346 2.07 2.392 3.674a861.204 861.204 0 0 1-42.218 1.054c-13.972 0-28.142-.35-42.114-1.046l-.176 3.564c14.03.692 28.26 1.042 42.29 1.042a864.3 864.3 0 0 0 42.417-1.058zm212.256-29.818l1.825-6.182-4.446-4.67-4 .964s1.713 1.797 3.027 3.184c-31.37 7.533-57.634 13.199-82.567 17.805l.651 3.502c24.993-4.614 51.318-10.296 82.757-17.848l-1.245 4.213 3.998-.968zm414.278-66.655l-2.384 3.677 4.107.21 3.507-5.406-2.93-5.743-4.108-.213 1.998 3.922a875.008 875.008 0 0 0-42.145-1.028c-14.12 0-28.44.351-42.557 1.036l.172 3.564a864.645 864.645 0 0 1 42.385-1.035c13.919 0 28.023.342 41.955 1.016zm-103.568 4.976l2.825-5.79-3.604-5.347-4.101.29s1.394 2.065 2.46 3.65c-27.547 2.011-55.079 5.283-84.108 10.014l.572 3.51c28.925-4.701 56.338-7.964 83.773-9.973l-1.918 3.935 4.101-.289zm-104.538 13.386l2.183-6.07-4.155-4.919-4.05.723s1.602 1.9 2.835 3.355c-25.2 4.6-51.55 10.234-82.82 17.705l.832 3.463c31.194-7.455 57.481-13.073 82.615-17.657l-1.486 4.124 4.046-.724zM291.28 348.215l-1.221 4.214 3.992-.988 1.797-6.188-4.462-4.652-3.992.984s1.725 1.793 3.04 3.17c-14.272 3.526-28.684 7.172-42.633 10.708-12.889 3.262-26.22 6.642-39.377 9.908l.858 3.454c13.168-3.263 26.497-6.644 39.396-9.913 13.944-3.53 28.347-7.176 42.602-10.697zm420.659-22.4l4.09-4.985-2.27-6.037-4.061-.67s.882 2.335 1.552 4.119c-29.025-4.716-56.551-7.99-84.118-9.994l-.257 3.549c27.453 2.004 54.876 5.261 83.783 9.96l-2.781 3.388 4.062.67zM291.28 381.916l-1.221 4.213 3.992-.98 1.797-6.192-4.462-4.654-3.992.982s1.725 1.79 3.04 3.168c-14.272 3.524-28.684 7.182-42.633 10.71-12.889 3.27-26.22 6.65-39.377 9.904l.858 3.463c13.168-3.26 26.497-6.643 39.396-9.91 13.944-3.538 28.347-7.188 42.602-10.704zm-36.41-277.35c27.625-7 54.697-13.793 81.921-19.941l-1.309 4.182 4.012-.899 1.923-6.156-4.365-4.74-4.016.897s1.69 1.835 2.984 3.237c-27.277 6.162-54.37 12.96-82.028 19.965l.879 3.454zm142.488 258.007l2.183-6.067-4.155-4.927-4.05.731s1.602 1.901 2.835 3.355c-25.2 4.597-51.55 10.227-82.82 17.706l.832 3.462c31.194-7.463 57.481-13.073 82.615-17.657l-1.486 4.124 4.046-.727zM152.006 129.56c28.738-6.338 57.382-13.486 82.082-19.736l-1.192 4.226 3.984-1.004 1.76-6.202-4.495-4.622-3.992 1.004 3.062 3.151c-24.676 6.234-53.28 13.377-81.978 19.704l.769 3.479zm-420.25 2.326c29.707 6.344 56.927 11.185 83.177 14.819l-2.691 3.479 4.077.551 3.945-5.1-2.447-5.965-4.073-.554s.94 2.294 1.665 4.055c-26.162-3.618-53.292-8.452-82.912-14.763l-.741 3.478zm104.476 17.526c28.648 3.308 56.228 5.168 84.273 5.698l-2.31 3.716 4.109.135 3.4-5.478-3.042-5.68-4.11-.138s1.184 2.2 2.078 3.88c-27.946-.517-55.435-2.374-83.994-5.673l-.404 3.54zm-71.613 9.806l4.046.732 4.167-4.925-2.175-6.063-4.046-.737s.833 2.335 1.478 4.13c-20.723-3.825-42.371-8.381-67.089-14.141v3.658c24.443 5.682 45.9 10.194 66.462 13.99l-2.843 3.356zm177.402-3.968c28.166-.187 55.778-1.727 84.369-4.702l-1.783 4.024 4.094-.44 2.607-5.895-3.799-5.206-4.091.437s1.462 2 2.585 3.54c-28.469 2.964-55.96 4.49-84.004 4.674l.022 3.568zm105.694-7.164c26.493-3.373 53.758-7.973 83.305-14.052l-1.377 4.176 4.026-.837 2.02-6.124-4.295-4.81-4.024.841 2.918 3.268c-29.452 6.054-56.626 10.638-83.021 14.01l.448 3.528zm143.471 262.788l1.825-6.188-4.446-4.668-4 .96 3.027 3.18c-31.37 7.541-57.634 13.211-82.567 17.81l.651 3.506c24.993-4.615 51.318-10.296 82.757-17.853l-1.245 4.213 3.998-.96zm-426.567-15.733l4.046.737 4.167-4.919-2.175-6.07-4.046-.74s.833 2.336 1.478 4.133c-20.723-3.83-42.371-8.386-67.089-14.141v3.658c24.443 5.681 45.9 10.196 66.462 13.985l-2.843 3.357zM152.006 95.858c28.738-6.345 57.382-13.493 82.082-19.731l-1.192 4.225 3.984-1.012 1.76-6.202-4.495-4.622-3.992 1.008s1.731 1.778 3.062 3.148c-24.676 6.236-53.28 13.376-81.978 19.708l.769 3.478zm661.995 239.493s.705 2.385 1.249 4.214c-31.266-7.463-57.603-13.09-82.803-17.674l-.637 3.503c25.134 4.576 51.411 10.186 82.607 17.633l-3.026 3.184 4 .956 4.443-4.672-1.837-6.184-3.996-.96zm-943.716 107.657l4.095.294 3.616-5.345-2.82-5.797-4.106-.293s1.081 2.221 1.914 3.942c-27.367-2.032-54.782-5.343-83.753-10.124l-.584 3.516c29.089 4.794 56.611 8.117 84.1 10.16l-2.462 3.647zM254.87 70.865c27.624-7.003 54.696-13.788 81.92-19.948l-1.309 4.181 4.012-.894 1.923-6.156-4.365-4.744-4.016.907s1.69 1.825 2.984 3.231c-27.277 6.162-54.37 12.964-82.028 19.969l.879 3.454zM-268.244 98.19c29.707 6.332 56.927 11.185 83.177 14.81l-2.691 3.48 4.077.551 3.945-5.104-2.447-5.961-4.073-.554 1.665 4.058c-26.162-3.618-53.292-8.45-82.912-14.766l-.741 3.486zm247.174 342.5l-1.996 3.922 4.108-.219 2.918-5.751-3.514-5.4-4.107.214s1.346 2.078 2.392 3.677a861.195 861.195 0 0 1-42.218 1.05c-13.972 0-28.142-.35-42.114-1.038l-.176 3.553c14.03.695 28.26 1.045 42.29 1.045 14.064 0 28.328-.354 42.417-1.053zm68.785-326.305c26.493-3.377 53.758-7.977 83.305-14.055l-1.377 4.172 4.026-.833 2.02-6.124-4.295-4.81-4.024.837s1.653 1.849 2.918 3.271c-29.452 6.063-56.626 10.643-83.021 14.006l.448 3.536zm-211.483 1.323c28.648 3.311 56.228 5.168 84.273 5.694l-2.31 3.724 4.109.131 3.4-5.479-3.042-5.683-4.11-.138s1.184 2.203 2.078 3.885c-27.946-.522-55.435-2.37-83.994-5.666l-.404 3.532zm105.79 5.834c28.165-.184 55.777-1.724 84.368-4.696l-1.783 4.022 4.094-.436 2.607-5.895-3.799-5.21-4.091.436s1.462 2 2.585 3.54c-28.469 2.961-55.96 4.5-84.004 4.678l.022 3.56zm-177.403 307.31l4.046.729 4.167-4.923-2.175-6.07-4.046-.728s.833 2.331 1.478 4.128c-20.723-3.825-42.371-8.39-67.089-14.145v3.662c24.443 5.678 45.9 10.196 66.462 13.99l-2.843 3.356zM938.167 70.48A2701.954 2701.954 0 0 0 955 74.469v-3.662c-5.2-1.209-10.522-2.47-16.008-3.785l-.825 3.459zm0 303.333A2051.16 2051.16 0 0 0 955 377.799v-3.658c-5.2-1.206-10.522-2.467-16.008-3.79l-.825 3.463zm-58.812-31.494c24.546 6.222 49.864 12.631 75.645 18.622v-3.656c-25.47-5.93-50.495-12.27-74.775-18.422l-.87 3.456zm0-269.634C903.9 78.908 929.219 85.317 955 91.31v-3.65c-25.47-5.937-50.495-12.272-74.775-18.42l-.87 3.446zM461.86 28.928c28.518-3.293 55.99-5.164 83.94-5.728l-2.126 3.827 4.118-.07 3.127-5.642-3.315-5.524-4.117.07s1.285 2.135 2.265 3.775c-28.068.568-55.66 2.446-84.3 5.75l.408 3.542zM357.712 46.32c29.554-6.271 56.696-11.08 82.916-14.7l-1.661 4.054 4.07-.544 2.446-5.969-3.94-5.098-4.07.546s1.52 1.976 2.687 3.478c-26.321 3.634-53.541 8.46-83.187 14.75l.739 3.483zm209.502-23.303c28.099.12 55.6 1.568 84.024 4.417l-2.575 3.548 4.093.42 3.781-5.221-2.633-5.884-4.09-.428 1.799 4.022c-28.547-2.858-56.165-4.31-84.385-4.434l-.014 3.56zm209.34 24.863c28.23 6.14 56.077 13.016 82.012 19.547l-3.058 3.151 3.988 1.004 4.49-4.624-1.759-6.202-3.988-1.004s.677 2.389 1.195 4.226c-25.963-6.545-53.84-13.432-82.131-19.576l-.75 3.478zM672.51 29.806c26.542 3.274 53.736 7.752 83.08 13.681l-2.915 3.278 4.036.824 4.27-4.825-2.037-6.116-4.032-.825s.787 2.365 1.392 4.17c-29.437-5.945-56.718-10.44-83.362-13.727l-.432 3.54zM87.005 432.614l2.25-6.035-4.099-4.972-4.058.677 2.789 3.377c-28.963 4.781-56.378 8.1-83.749 10.148l.261 3.553c27.493-2.052 55.007-5.39 84.088-10.185l-1.542 4.118 4.06-.681zM938.167 104.19A2221.082 2221.082 0 0 0 955 108.167v-3.658c-5.2-1.206-10.522-2.467-16.008-3.79l-.825 3.47zm-996.146 84.757c28.166-.18 55.778-1.72 84.369-4.698l-1.783 4.029 4.094-.437 2.607-5.899-3.799-5.21-4.091.44 2.585 3.541c-28.469 2.957-55.96 4.495-84.004 4.678l.022 3.556zm105.694-7.16c26.493-3.373 53.758-7.973 83.305-14.048l-1.377 4.172 4.026-.833 2.02-6.124-4.295-4.81-4.024.834s1.653 1.852 2.918 3.275c-29.452 6.058-56.626 10.639-83.021 14.002l.448 3.532zm-211.483 1.33c28.648 3.308 56.228 5.169 84.273 5.69l-2.31 3.728 4.109.132 3.4-5.479-3.042-5.688-4.11-.133s1.184 2.203 2.078 3.882c-27.946-.52-55.435-2.372-83.994-5.672l-.404 3.54zM-21.07 373.279l-1.996 3.923 4.108-.22 2.918-5.747-3.514-5.403-4.107.221s1.346 2.074 2.392 3.67a856.255 856.255 0 0 1-42.218 1.05c-13.972 0-28.142-.35-42.114-1.034l-.176 3.552c14.03.695 28.26 1.05 42.29 1.05a859.38 859.38 0 0 0 42.417-1.062zm173.076-210.013c28.738-6.342 57.382-13.494 82.082-19.732l-1.192 4.226 3.984-1.008 1.76-6.206-4.495-4.622-3.992 1.008 3.062 3.148c-24.676 6.236-53.28 13.376-81.978 19.707l.769 3.479zM-129.715 375.6l4.095.29 3.616-5.336-2.82-5.806-4.106-.285s1.081 2.218 1.914 3.935c-27.367-2.032-54.782-5.34-83.753-10.12l-.584 3.512c29.089 4.797 56.611 8.116 84.1 10.164l-2.462 3.646zm-138.53-210.005c29.708 6.331 56.928 11.184 83.178 14.814l-2.691 3.479 4.077.548 3.945-5.1-2.447-5.965-4.073-.55 1.665 4.054c-26.162-3.618-53.292-8.451-82.912-14.763l-.741 3.483zm32.864 195.844l4.046.733 4.167-4.923-2.175-6.07-4.046-.727s.833 2.335 1.478 4.124c-20.723-3.822-42.371-8.382-67.089-14.138v3.654c24.443 5.682 45.9 10.197 66.462 13.994l-2.843 3.353zm0-168.524l4.046.739 4.167-4.923-2.175-6.068-4.046-.73 1.478 4.126c-20.723-3.82-42.371-8.39-67.089-14.14v3.657c24.443 5.682 45.9 10.194 66.462 13.992l-2.843 3.347zm840.845 151.303l-2.384 3.67 4.107.213 3.507-5.41-2.93-5.743-4.108-.21 1.998 3.916a885.41 885.41 0 0 0-42.145-1.02c-14.12 0-28.44.35-42.557 1.04l.172 3.552a879.804 879.804 0 0 1 42.385-1.032c13.919 0 28.023.35 41.955 1.024zm273.89 31.802c24.547 6.222 49.865 12.631 75.646 18.626v-3.658c-25.47-5.933-50.495-12.264-74.775-18.42l-.87 3.452zm58.813 31.498A1899.676 1899.676 0 0 0 955 411.504v-3.662c-5.2-1.21-10.522-2.47-16.008-3.785l-.825 3.462zM776.554 115.287c28.23 6.14 56.077 13.013 82.012 19.55l-3.058 3.152 3.988 1.004 4.49-4.624-1.759-6.202-3.988-1.004s.677 2.385 1.195 4.225c-25.963-6.544-53.84-13.431-82.131-19.58l-.75 3.479zM672.51 97.213c26.542 3.273 53.736 7.752 83.08 13.677l-2.915 3.285 4.036.825 4.27-4.83-2.037-6.116-4.032-.822s.787 2.362 1.392 4.171c-29.437-5.944-56.718-10.443-83.362-13.726l-.432 3.536zm39.429 262.302l4.09-4.984-2.27-6.033-4.061-.67s.882 2.328 1.552 4.119c-29.025-4.712-56.551-7.985-84.118-9.993l-.257 3.552c27.453 1.996 54.876 5.257 83.783 9.951l-2.781 3.385 4.062.673zM254.87 138.268c27.624-6.995 54.696-13.787 81.92-19.945l-1.309 4.186 4.012-.899 1.923-6.152-4.365-4.747-4.016.904s1.69 1.827 2.984 3.23c-27.277 6.17-54.37 12.971-82.028 19.976l.879 3.447zm560.52 242.609l4.443-4.672-1.837-6.188-3.996-.957s.705 2.381 1.249 4.21c-31.266-7.47-57.603-13.09-82.803-17.677l-.637 3.506c25.134 4.572 51.411 10.187 82.607 17.634l-3.026 3.183 4 .96zM461.86 96.338c28.518-3.293 55.99-5.168 83.94-5.731l-2.126 3.827 4.118-.07 3.127-5.638-3.315-5.525-4.117.07s1.285 2.132 2.265 3.767c-28.068.576-55.66 2.451-84.3 5.758l.408 3.542zm105.354-5.915c28.099.124 55.6 1.572 84.024 4.413l-2.575 3.548 4.093.429 3.781-5.222-2.633-5.883-4.09-.428s1.02 2.275 1.799 4.022c-28.547-2.863-56.165-4.32-84.385-4.435l-.014 3.556zm-209.502 23.308c29.554-6.272 56.696-11.081 82.916-14.701l-1.661 4.054 4.07-.548 2.446-5.965-3.94-5.102-4.07.55s1.52 1.972 2.687 3.479c-26.321 3.63-53.541 8.459-83.187 14.746l.739 3.487zM672.51 63.51c26.542 3.27 53.736 7.753 83.08 13.674l-2.915 3.289 4.036.82 4.27-4.825-2.037-6.116-4.032-.825 1.392 4.17c-29.437-5.949-56.718-10.435-83.362-13.723l-.432 3.537zm265.657 74.376A2051.16 2051.16 0 0 0 955 141.872v-3.658c-5.2-1.213-10.522-2.466-16.008-3.785l-.825 3.458zm0 33.71a2225.032 2225.032 0 0 0 16.833 3.98v-3.658c-5.2-1.21-10.522-2.47-16.008-3.79l-.825 3.467zm-102.058-29.185l-.853 3.456c14.42 3.56 29.003 7.256 43.107 10.828 12.735 3.228 25.889 6.56 38.895 9.788l-3.042 3.162 3.996.99 4.463-4.648-1.79-6.194-3.991-.988s.687 2.38 1.22 4.218c-12.998-3.222-26.145-6.557-38.877-9.778-14.112-3.576-28.697-7.272-43.128-10.834zm102.058 62.886a2047.819 2047.819 0 0 0 16.833 3.98v-3.654c-5.2-1.213-10.522-2.466-16.008-3.789l-.825 3.463zM461.86 62.633c28.518-3.293 55.99-5.16 83.94-5.736l-2.126 3.83 4.118-.064 3.127-5.638-3.315-5.529-4.117.066 2.265 3.78c-28.068.567-55.66 2.45-84.3 5.749l.408 3.542zm105.354-5.907c28.099.116 55.6 1.564 84.024 4.413l-2.575 3.548 4.093.425 3.781-5.226-2.633-5.887-4.09-.42 1.799 4.014c-28.547-2.86-56.165-4.316-84.385-4.435l-.014 3.568zm312.14 49.665c24.547 6.22 49.865 12.631 75.646 18.624v-3.658c-25.47-5.929-50.495-12.264-74.775-18.42l-.87 3.454zm58.813 132.606A1771.528 1771.528 0 0 0 955 242.986v-3.66a2593.5 2593.5 0 0 1-16.008-3.788l-.825 3.459zM776.554 81.59c28.23 6.132 56.077 13.007 82.012 19.546l-3.058 3.148 3.988 1.008 4.49-4.628-1.759-6.202-3.988-1.008 1.195 4.225c-25.963-6.54-53.84-13.424-82.131-19.576l-.75 3.487zM501.896 349.195l2.825-5.793-3.604-5.347-4.101.285 2.46 3.645c-27.547 2.023-55.079 5.296-84.108 10.016l.572 3.522c28.925-4.712 56.338-7.965 83.773-9.981l-1.918 3.938 4.101-.285zm207.802-68.777s.882 2.331 1.552 4.118c-29.025-4.707-56.551-7.985-84.118-9.993l-.257 3.556c27.453 1.993 54.876 5.258 83.783 9.952l-2.781 3.389 4.062.669 4.09-4.98-2.27-6.037-4.061-.674zm-312.34 14.75l2.183-6.067-4.155-4.927-4.05.727s1.602 1.9 2.835 3.359c-25.2 4.596-51.55 10.226-82.82 17.701l.832 3.463c31.194-7.455 57.481-13.074 82.615-17.658l-1.486 4.128 4.046-.727zm-206.172 48.296l1.825-6.186-4.446-4.67-4 .964 3.027 3.18c-31.37 7.54-57.634 13.21-82.567 17.809l.651 3.506c24.993-4.618 51.318-10.296 82.757-17.857l-1.245 4.218 3.998-.964zm100.094-28.958l-1.221 4.218 3.992-.98 1.797-6.196-4.462-4.652-3.992.98s1.725 1.797 3.04 3.171c-14.272 3.525-28.684 7.179-42.633 10.71-12.889 3.27-26.22 6.647-39.377 9.905l.858 3.46c13.168-3.261 26.497-6.64 39.396-9.907 13.944-3.535 28.347-7.189 42.602-10.709zm210.616-32.717l2.825-5.798-3.604-5.347-4.101.29s1.394 2.061 2.46 3.645c-27.547 2.02-55.079 5.295-84.108 10.015l.572 3.522c28.925-4.711 56.338-7.969 83.773-9.985l-1.918 3.943 4.101-.285zm436.271-9.083A2044.488 2044.488 0 0 0 955 276.683v-3.65c-5.2-1.213-10.522-2.47-16.008-3.79l-.825 3.463zm-58.812 35.909c24.546 6.218 49.864 12.63 75.645 18.622v-3.652c-25.47-5.935-50.495-12.27-74.775-18.423l-.87 3.453zm-273.89-31.807l-2.385 3.678 4.107.21 3.507-5.414-2.93-5.742-4.108-.21 1.998 3.918a880.178 880.178 0 0 0-42.145-1.024c-14.12 0-28.44.35-42.557 1.044l.172 3.556a874.695 874.695 0 0 1 42.385-1.036c13.919 0 28.023.35 41.955 1.02zm332.702 29.595A2054.512 2054.512 0 0 0 955 310.392v-3.66c-5.2-1.207-10.522-2.468-16.008-3.787l-.825 3.458zm-124.166-4.753l1.249 4.214c-31.266-7.467-57.603-13.094-82.803-17.678l-.637 3.507c25.134 4.572 51.411 10.182 82.607 17.63l-3.026 3.183 4 .964 4.443-4.676-1.837-6.188-3.996-.956zM84.487 361.769l-1.542 4.12 4.06-.678 2.25-6.042-4.099-4.973-4.058.677 2.789 3.381C54.924 363.036 27.509 366.36.138 368.4l.261 3.556c27.493-2.05 55.007-5.389 84.088-10.186zm625.21-249.871s.883 2.335 1.553 4.12c-29.025-4.716-56.551-7.983-84.118-9.991l-.257 3.556c27.453 1.992 54.876 5.258 83.783 9.95l-2.781 3.384 4.062.674 4.09-4.989-2.27-6.03-4.061-.674zM836.11 344.639l-.853 3.455c14.42 3.552 29.003 7.254 43.107 10.826 12.735 3.23 25.889 6.56 38.895 9.79l-3.042 3.16 3.996.988 4.463-4.646-1.79-6.194-3.991-.986s.687 2.382 1.22 4.215c-12.998-3.223-26.145-6.552-38.877-9.784-14.112-3.572-28.697-7.272-43.128-10.824zm-59.555 6.577c28.23 6.14 56.077 13.015 82.012 19.552l-3.058 3.148 3.988 1.004 4.49-4.622-1.759-6.206-3.988-1.004s.677 2.384 1.195 4.225c-25.963-6.54-53.84-13.43-82.131-19.576l-.75 3.479zM731.81 22.059c25.134 4.576 51.411 10.184 82.607 17.631l-3.026 3.192 4 .956 4.443-4.678-1.837-6.178-3.996-.966s.705 2.39 1.249 4.216c-31.266-7.467-57.603-13.096-82.803-17.674l-.637 3.5zm104.299 19.239l-.853 3.458c14.42 3.557 29.003 7.254 43.107 10.828 12.735 3.228 25.889 6.561 38.895 9.789l-3.042 3.165 3.996.986 4.463-4.646-1.79-6.192-3.991-.988s.687 2.381 1.22 4.214c-12.998-3.222-26.145-6.557-38.877-9.782-14.112-3.572-28.697-7.272-43.128-10.832zm-288.317 288.99l3.127-5.63-3.315-5.534-4.117.07s1.285 2.138 2.265 3.78c-28.068.563-55.66 2.442-84.3 5.75l.408 3.541c28.518-3.291 55.99-5.168 83.94-5.736l-2.126 3.83 4.118-.07zm79.083-321.82c27.453 2 54.876 5.257 83.783 9.949l-2.781 3.389 4.062.673 4.09-4.985-2.27-6.034-4.061-.674s.882 2.335 1.552 4.118c-29.025-4.71-56.551-7.985-84.118-9.985l-.257 3.548zm125.8 341.634l4.036.82 4.27-4.82-2.037-6.117-4.032-.825 1.392 4.172c-29.437-5.95-56.718-10.445-83.362-13.725l-.432 3.529c26.542 3.277 53.736 7.752 83.08 13.683l-2.915 3.283zm-40.736 43.123l4.09-4.989-2.27-6.033-4.061-.673s.882 2.335 1.552 4.114c-29.025-4.708-56.551-7.985-84.118-9.985l-.257 3.548c27.453 2 54.876 5.262 83.783 9.955l-2.781 3.39 4.062.673zm-63.276-58.906l4.093.42 3.781-5.225-2.633-5.883-4.09-.42s1.02 2.268 1.799 4.016c-28.547-2.861-56.165-4.316-84.385-4.437l-.014 3.56c28.099.126 55.6 1.572 84.024 4.421l-2.575 3.548zM105.676 88.435c24.993-4.62 51.318-10.296 82.757-17.849l-1.245 4.214 3.998-.968 1.825-6.18-4.446-4.678-4 .97 3.027 3.176c-31.37 7.54-57.634 13.208-82.567 17.813l.651 3.502zM-105.6 100.104l-.176 3.552a855.86 855.86 0 0 0 42.29 1.052 859.38 859.38 0 0 0 42.417-1.062l-1.996 3.929 4.108-.225 2.918-5.744-3.514-5.401-4.107.215s1.346 2.074 2.392 3.668a853.83 853.83 0 0 1-42.218 1.06c-13.972 0-28.142-.359-42.114-1.044zm-186.578-3.307l4.012.906 4.369-4.74-1.919-6.16-4.012-.894s.743 2.363 1.309 4.184c-3.534-.8-7.058-1.612-10.58-2.433v3.658c3.265.759 6.524 1.506 9.801 2.253l-2.98 3.226zm162.464 9.172l4.095.29 3.616-5.338-2.82-5.798-4.106-.29s1.081 2.22 1.914 3.94c-27.367-2.038-54.782-5.345-83.753-10.129l-.584 3.515c29.089 4.797 56.611 8.124 84.1 10.166l-2.462 3.644zM.399 102.321c27.493-2.05 55.007-5.389 84.088-10.186l-1.542 4.124 4.06-.68 2.25-6.044-4.099-4.973-4.058.685 2.789 3.377C54.924 93.408 27.509 96.727.138 98.765l.261 3.556zm438.568 236.692l4.07-.554 2.446-5.96-3.94-5.105-4.07.552s1.52 1.968 2.687 3.482c-26.321 3.622-53.541 8.452-83.187 14.751l.739 3.483c29.554-6.28 56.696-11.09 82.916-14.707l-1.661 4.058zM312.183 39.792c31.194-7.455 57.481-13.076 82.615-17.66l-1.486 4.13 4.046-.725 2.183-6.068-4.155-4.927-4.05.727s1.602 1.906 2.835 3.359c-25.2 4.598-51.55 10.224-82.82 17.7l.832 3.464zm103.757-21.31c28.925-4.707 56.338-7.969 83.773-9.975l-1.918 3.933 4.101-.283 2.825-5.8-3.604-5.337-4.101.283 2.46 3.646c-27.547 2.016-55.079 5.293-84.108 10.017l.572 3.516zm399.451 396.096l4.443-4.676-1.837-6.18-3.996-.964s.705 2.388 1.249 4.217c-31.266-7.467-57.603-13.093-82.803-17.673l-.637 3.502c25.134 4.577 51.411 10.183 82.607 17.63l-3.026 3.188 4 .956zm-1107.57 19.261l4.012.903 4.369-4.742-1.919-6.152-4.012-.903s.743 2.365 1.309 4.186c-3.534-.8-7.058-1.614-10.58-2.432v3.653c3.265.76 6.524 1.51 9.801 2.254l-2.98 3.233zM208.424 62.033l.858 3.455c13.168-3.261 26.497-6.638 39.396-9.906 13.944-3.534 28.347-7.184 42.602-10.708l-1.221 4.218 3.992-.98 1.797-6.196-4.462-4.654-3.992.98s1.725 1.799 3.04 3.175C276.161 44.94 261.75 48.594 247.8 52.13c-12.889 3.265-26.22 6.642-39.377 9.903zM520.952 3.634l.172 3.556a877.237 877.237 0 0 1 42.385-1.03c13.919 0 28.023.347 41.955 1.016l-2.384 3.676 4.107.211 3.507-5.405-2.93-5.744-4.108-.217s1.131 2.226 1.998 3.921a877.585 877.585 0 0 0-42.145-1.026c-14.12 0-28.44.35-42.557 1.042zm-208.77 69.863c31.195-7.455 57.482-13.075 82.616-17.656l-1.486 4.13 4.046-.733 2.183-6.062-4.155-4.925-4.05.727s1.602 1.895 2.835 3.36c-25.2 4.59-51.55 10.223-82.82 17.694l.832 3.465zM208.425 95.739l.858 3.454c13.168-3.261 26.497-6.638 39.396-9.907 13.944-3.537 28.347-7.182 42.602-10.705l-1.221 4.216 3.992-.982 1.797-6.194-4.462-4.65-3.992.98s1.725 1.795 3.04 3.172c-14.272 3.526-28.684 7.172-42.633 10.708-12.889 3.27-26.22 6.646-39.377 9.908zm-102.748 26.397c24.993-4.612 51.318-10.288 82.757-17.848l-1.245 4.213 3.998-.964 1.825-6.188-4.446-4.67-4 .966s1.713 1.797 3.027 3.182c-31.37 7.543-57.634 13.207-82.567 17.807l.651 3.502zM415.94 52.188c28.925-4.708 56.338-7.973 83.773-9.98l-1.918 3.941 4.101-.287 2.825-5.8-3.604-5.345-4.101.287s1.394 2.066 2.46 3.65c-27.547 2.016-55.079 5.294-84.108 10.017l.572 3.517zM814 65.72s.706 2.383 1.25 4.212c-31.266-7.463-57.603-13.087-82.803-17.674l-.637 3.5c25.134 4.577 51.411 10.19 82.607 17.64l-3.026 3.18 4 .964 4.443-4.682-1.837-6.182-3.996-.958zm22.109 9.286l-.853 3.455c14.42 3.556 29.003 7.254 43.107 10.824a8107.353 8107.353 0 0 0 38.895 9.792l-3.042 3.158 3.996.996 4.463-4.652-1.79-6.196-3.991-.984s.687 2.384 1.22 4.213c-12.998-3.221-26.145-6.548-38.877-9.774-14.112-3.58-28.697-7.276-43.128-10.832zm102.058 265.106c5.771 1.39 11.373 2.713 16.833 3.98v-3.658c-5.2-1.209-10.522-2.466-16.008-3.78l-.825 3.458zM626.875 42.173c27.453 1.996 54.876 5.261 83.783 9.953l-2.781 3.385 4.062.67 4.09-4.985-2.27-6.035-4.061-.666s.882 2.331 1.552 4.115c-29.025-4.718-56.551-7.985-84.118-9.994l-.257 3.557zM.4 136.02c27.493-2.048 55.007-5.379 84.088-10.18l-1.542 4.124 4.06-.683 2.25-6.041-4.099-4.973-4.058.682 2.789 3.38c-28.963 4.78-56.378 8.103-83.749 10.141l.261 3.55zm520.553-98.68l.172 3.555a877.243 877.243 0 0 1 42.385-1.034c13.919 0 28.023.343 41.955 1.02l-2.384 3.672 4.107.22 3.507-5.414-2.93-5.743-4.108-.21 1.998 3.917a877.579 877.579 0 0 0-42.145-1.022c-14.12 0-28.44.35-42.557 1.038zm-813.131 93.166l4.012.898 4.369-4.74-1.919-6.151-4.012-.907s.743 2.375 1.309 4.196c-3.534-.811-7.058-1.62-10.58-2.437v3.654c3.265.76 6.524 1.514 9.801 2.253l-2.98 3.234zM26.39 420.182l-1.783 4.023 4.094-.439 2.607-5.895-3.799-5.216-4.091.445s1.462 2 2.585 3.54c-28.469 2.958-55.96 4.49-84.004 4.674l.022 3.56c28.166-.18 55.778-1.72 84.369-4.692zm103.253-12.34l4.026-.839 2.02-6.122-4.295-4.81-4.024.833s1.653 1.853 2.918 3.278c-29.452 6.054-56.626 10.638-83.021 14l.448 3.538c26.493-3.383 53.758-7.973 83.305-14.052l-1.377 4.174zm473.437-26.244l4.107.209 3.507-5.409-2.93-5.744-4.108-.213 1.998 3.923a875.008 875.008 0 0 0-42.145-1.028c-14.12 0-28.44.35-42.557 1.04l.172 3.56a869.636 869.636 0 0 1 84.34-.02l-2.384 3.682zm-366.2 1.078l1.76-6.208-4.495-4.622-3.992 1.012s1.731 1.78 3.062 3.144c-24.676 6.241-53.28 13.378-81.978 19.713l.769 3.479c28.738-6.34 57.382-13.488 82.082-19.738l-1.192 4.228 3.984-1.008zm-314.576 45.917l3.4-5.478-3.042-5.68-4.11-.136s1.184 2.194 2.078 3.88c-27.946-.523-55.435-2.376-83.994-5.675l-.404 3.543c28.648 3.307 56.228 5.165 84.273 5.695l-2.31 3.716 4.109.135zM336.79 354.25l-1.309 4.192 4.012-.9 1.923-6.155-4.365-4.74-4.016.895s1.69 1.829 2.984 3.237c-27.277 6.164-54.37 12.962-82.028 19.965l.879 3.456c27.624-7 54.696-13.794 81.92-19.95zm-466.506-214.574l4.095.29 3.616-5.348-2.82-5.794-4.106-.29 1.914 3.936c-27.367-2.034-54.782-5.345-83.753-10.117l-.584 3.51c29.089 4.802 56.611 8.121 84.1 10.163l-2.462 3.65zm-138.53 261.845c29.708 6.333 56.928 11.182 83.178 14.816l-2.691 3.479 4.077.545 3.945-5.094-2.447-5.973-4.073-.544s.94 2.292 1.665 4.055c-26.162-3.62-53.292-8.451-82.912-14.767l-.741 3.483zm-23.934-1.387l4.012.902 4.369-4.737-1.919-6.156-4.012-.903s.743 2.365 1.309 4.186c-3.534-.801-7.058-1.61-10.58-2.437v3.662c3.265.76 6.524 1.514 9.801 2.253l-2.98 3.23zm271.11-262.785l-1.997 3.923 4.108-.213 2.918-5.748-3.514-5.409-4.107.22s1.346 2.07 2.392 3.675a853.812 853.812 0 0 1-42.218 1.052 848.78 848.78 0 0 1-42.114-1.048l-.176 3.564c14.03.694 28.26 1.044 42.29 1.044 14.064 0 28.328-.358 42.417-1.06zM.398 68.616c27.493-2.046 55.007-5.385 84.088-10.183l-1.542 4.122 4.06-.685 2.25-6.033-4.099-4.98-4.058.685 2.789 3.377C54.924 59.7 27.509 63.022.138 65.064L.4 68.616zM23.418 480.51s1.462 1.996 2.585 3.536c-28.469 2.963-55.96 4.495-84.004 4.674l.022 3.564c28.166-.183 55.778-1.723 84.369-4.691l-1.783 4.018 4.094-.438 2.607-5.891-3.799-5.216-4.091.444zm103.952-16.195s1.653 1.849 2.918 3.273c-29.452 6.059-56.626 10.643-83.021 14.004l.448 3.532c26.493-3.377 53.758-7.975 83.305-14.053l-1.377 4.177 4.026-.838 2.02-6.122-4.295-4.81-4.024.837zm-208.817 20.39s1.183 2.194 2.077 3.884c-27.946-.526-55.435-2.375-83.994-5.674l-.404 3.538c28.648 3.311 56.228 5.17 84.273 5.692l-2.31 3.72 4.109.135 3.4-5.475-3.042-5.688-4.11-.131zm311.6-44.437l3.062 3.144c-24.676 6.242-53.28 13.378-81.978 19.714l.769 3.478c28.738-6.343 57.382-13.496 82.082-19.737l-1.192 4.225 3.984-1.01 1.76-6.204-4.495-4.622-3.992 1.012zM-21.07 69.943l-1.996 3.923 4.108-.214 2.918-5.751-3.514-5.405-4.107.215s1.346 2.078 2.392 3.68a858.722 858.722 0 0 1-42.218 1.051 848.78 848.78 0 0 1-42.114-1.047l-.176 3.56c14.03.693 28.26 1.044 42.29 1.044 14.064 0 28.328-.355 42.417-1.056zM836.11 310.93l-.853 3.455c14.42 3.56 29.003 7.257 43.107 10.834 12.735 3.225 25.889 6.56 38.895 9.782l-3.042 3.171 3.996.984 4.463-4.65-1.79-6.193-3.991-.99s.687 2.39 1.22 4.223c-12.998-3.228-26.145-6.557-38.877-9.784-14.112-3.574-28.697-7.272-43.128-10.832zM-129.715 72.268l4.095.29 3.616-5.347-2.82-5.793-4.106-.295 1.914 3.94c-27.367-2.03-54.782-5.34-83.753-10.12l-.584 3.514c29.089 4.798 56.611 8.12 84.1 10.159l-2.462 3.652zm-56.541 403.889l1.665 4.058c-26.162-3.62-53.292-8.453-82.912-14.77l-.741 3.486c29.707 6.333 56.927 11.183 83.177 14.813l-2.691 3.478 4.077.55 3.945-5.102-2.447-5.965-4.073-.548zm1065.61-32.73c24.547 6.227 49.865 12.632 75.646 18.627V458.4c-25.47-5.937-50.495-12.269-74.775-18.42l-.87 3.448zm34.862-4.147l3.996.988 4.463-4.646-1.79-6.196-3.991-.988s.687 2.383 1.22 4.22c-12.998-3.224-26.145-6.557-38.877-9.784-14.112-3.572-28.697-7.276-43.128-10.832l-.853 3.458c14.42 3.552 29.003 7.258 43.107 10.83 12.735 3.226 25.889 6.56 38.895 9.786l-3.042 3.164zm-55.977-8.786s.677 2.389 1.195 4.226c-25.963-6.54-53.84-13.43-82.131-19.574l-.75 3.48c28.23 6.14 56.078 13.012 82.013 19.548l-3.058 3.148 3.988 1.004 4.49-4.622-1.759-6.206-3.988-1.004zM-292.18 63.1l4.012.895 4.369-4.74-1.919-6.148-4.012-.906s.743 2.37 1.309 4.191c-3.534-.807-7.058-1.62-10.58-2.436v3.658c3.265.755 6.524 1.51 9.801 2.249l-2.98 3.237zm56.798-4.992l4.046.727 4.167-4.917-2.175-6.07-4.046-.732s.833 2.33 1.478 4.128c-20.723-3.825-42.371-8.385-67.089-14.145v3.662c24.443 5.678 45.9 10.198 66.462 13.99l-2.843 3.357zM-289.73 456.65s.743 2.364 1.309 4.185c-3.534-.8-7.058-1.611-10.58-2.436v3.658c3.265.763 6.524 1.51 9.801 2.257l-2.98 3.225 4.012.907 4.369-4.74-1.919-6.158-4.012-.898zm622.765-41.699s1.69 1.83 2.984 3.234c-27.277 6.164-54.37 12.962-82.028 19.964l.879 3.457c27.624-7.005 54.696-13.79 81.92-19.947l-1.309 4.188 4.012-.896 1.923-6.158-4.365-4.744-4.016.902zm605.131 26.272A2440.477 2440.477 0 0 0 955 445.21v-3.658c-5.2-1.21-10.522-2.47-16.008-3.79l-.825 3.463zM543.487 386.6s1.285 2.142 2.265 3.78c-28.068.564-55.66 2.446-84.3 5.747l.408 3.545c28.518-3.292 55.99-5.164 83.94-5.732l-2.126 3.83 4.118-.07 3.127-5.639-3.315-5.53-4.117.07zm-106.014 8.752s1.52 1.973 2.687 3.479c-26.321 3.63-53.541 8.455-83.187 14.755l.739 3.478c29.554-6.275 56.696-11.085 82.916-14.703l-1.661 4.059 4.07-.55 2.446-5.965-3.94-5.1-4.07.547zm317.439 11.21s.787 2.366 1.392 4.177c-29.437-5.951-56.718-10.442-83.362-13.725l-.432 3.532c26.542 3.278 53.736 7.752 83.08 13.683l-2.915 3.28 4.036.82 4.27-4.825-2.037-6.108-4.032-.833zm-105.098-15.95l1.799 4.021c-28.547-2.857-56.165-4.311-84.385-4.437l-.014 3.565c28.099.121 55.6 1.568 84.024 4.416l-2.575 3.549 4.093.42 3.781-5.226-2.633-5.883-4.09-.424zM917.258 31.668l-3.042 3.166 3.996.99 4.463-4.654-1.79-6.192-3.991-.984s.687 2.385 1.22 4.218a8224.418 8224.418 0 0 1-38.877-9.782c-14.112-3.58-28.697-7.272-43.128-10.832l-.853 3.454c14.42 3.56 29.003 7.254 43.107 10.826 12.735 3.23 25.889 6.56 38.895 9.79zm-164.583 352.14l4.036.825 4.27-4.83-2.037-6.116-4.032-.82 1.392 4.164c-29.437-5.94-56.718-10.438-83.362-13.721l-.432 3.536c26.542 3.273 53.736 7.752 83.08 13.679l-2.915 3.283zm-415.884 4.148l-1.309 4.188 4.012-.9 1.923-6.15-4.365-4.748-4.016.902 2.984 3.23c-27.277 6.172-54.37 12.965-82.028 19.976l.879 3.449c27.624-6.997 54.696-13.787 81.92-19.947zm211-23.957l3.128-5.638-3.315-5.527-4.117.062 2.265 3.775c-28.068.576-55.66 2.451-84.3 5.76l.408 3.532c28.518-3.283 55.99-5.16 83.94-5.727l-2.126 3.833 4.118-.07zm100.872 4.018l4.093.429 3.781-5.222-2.633-5.883-4.09-.428 1.799 4.016c-28.547-2.86-56.165-4.311-84.385-4.429l-.014 3.556c28.099.118 55.6 1.572 84.024 4.413l-2.575 3.548zm-209.696 4.702l4.07-.55 2.446-5.964-3.94-5.1-4.07.547 2.687 3.479c-26.321 3.63-53.541 8.459-83.187 14.746l.739 3.487c29.554-6.272 56.696-11.081 82.916-14.701l-1.661 4.056zm-516.663 89.575l3.4-5.473-3.042-5.688-4.11-.131s1.184 2.201 2.078 3.883c-27.946-.522-55.435-2.38-83.994-5.674l-.404 3.534c28.648 3.315 56.228 5.174 84.273 5.696l-2.31 3.72 4.109.133zm104.086-8.41l-1.783 4.027 4.094-.443 2.607-5.895-3.799-5.207-4.091.44s1.462 1.992 2.585 3.534c-28.469 2.965-55.96 4.497-84.004 4.676l.022 3.564c28.166-.18 55.778-1.72 84.369-4.696zm210.49-37.498l1.76-6.208-4.495-4.622-3.992 1.008 3.062 3.148c-24.676 6.234-53.28 13.378-81.978 19.705l.769 3.479c28.738-6.34 57.382-13.492 82.082-19.73l-1.192 4.226 3.984-1.006zm642.475-6.654c24.546 6.218 49.864 12.63 75.645 18.621v-3.657c-25.47-5.93-50.495-12.273-74.775-18.42l-.87 3.456zm-749.712 31.812l4.026-.83 2.02-6.127-4.295-4.817-4.024.84s1.653 1.853 2.918 3.278c-29.452 6.054-56.626 10.639-83.021 14l.448 3.534c26.493-3.375 53.758-7.973 83.305-14.048l-1.377 4.17zm-397.887-6.317c29.707 6.333 56.927 11.182 83.177 14.816l-2.691 3.479 4.077.55 3.945-5.103-2.447-5.964-4.073-.556 1.665 4.062c-26.162-3.624-53.292-8.453-82.912-14.763l-.741 3.479zM415.94-15.223c28.925-4.708 56.338-7.969 83.773-9.975l-1.918 3.937 4.101-.287 2.825-5.796-3.604-5.345-4.101.283s1.394 2.072 2.46 3.65c-27.547 2.02-55.079 5.293-84.108 10.017l.572 3.516zM312.183 6.09c31.194-7.459 57.481-13.075 82.615-17.655l-1.486 4.126 4.046-.731 2.183-6.063-4.155-4.927-4.05.732s1.602 1.894 2.835 3.355c-25.2 4.59-51.55 10.224-82.82 17.695l.832 3.468zm251.326-33.639c13.919 0 28.023.347 41.955 1.024l-2.384 3.668 4.107.219 3.507-5.41-2.93-5.743-4.108-.209 1.998 3.915a874.995 874.995 0 0 0-42.145-1.02c-14.12 0-28.44.35-42.557 1.034l.172 3.556a877.243 877.243 0 0 1 42.385-1.034zm375.483 60.862l-.825 3.466A2047.823 2047.823 0 0 0 955 40.76v-3.662c-5.2-1.205-10.522-2.466-16.008-3.785zM248.678 21.877c13.944-3.534 28.347-7.184 42.602-10.702l-1.221 4.211 3.992-.98 1.797-6.192-4.462-4.65-3.992.98s1.725 1.792 3.04 3.168c-14.272 3.527-28.684 7.176-42.633 10.709-12.889 3.269-26.22 6.65-39.377 9.907l.858 3.455c13.168-3.258 26.497-6.638 39.396-9.906zm587.43 356.46l-.852 3.454c14.42 3.564 29.003 7.258 43.107 10.834 12.735 3.222 25.889 6.56 38.895 9.782l-3.042 3.172 3.996.984 4.463-4.65-1.79-6.192-3.991-.988s.687 2.39 1.22 4.22a7762.687 7762.687 0 0 1-38.877-9.785c-14.112-3.574-28.697-7.267-43.128-10.832zM707.878-11.9l4.062.67 4.09-4.981-2.27-6.039-4.061-.661s.882 2.327 1.552 4.114c-29.025-4.714-56.551-7.985-84.118-9.993l-.257 3.552c27.453 2 54.876 5.262 83.783 9.953l-2.781 3.385zm151.619 420.525l4.49-4.63-1.759-6.196-3.988-1.01 1.195 4.225c-25.963-6.544-53.84-13.425-82.131-19.576l-.75 3.483c28.23 6.136 56.078 13.011 82.013 19.548l-3.058 3.144 3.988 1.012zM811.39 9.173l4 .96 4.443-4.678-1.837-6.182L814-1.685l1.249 4.215c-31.266-7.47-57.603-13.09-82.803-17.681l-.637 3.508c25.134 4.569 51.411 10.18 82.607 17.636l-3.026 3.18zM105.676 54.726c24.993-4.608 51.318-10.288 82.757-17.845l-1.245 4.21 3.998-.96 1.825-6.189-4.446-4.67-4 .963s1.713 1.797 3.027 3.183c-31.37 7.541-57.634 13.205-82.567 17.805l.651 3.503zM-21.07 204.76l-1.996 3.923 4.108-.218 2.918-5.747-3.514-5.405-4.107.219s1.346 2.07 2.392 3.668a848.966 848.966 0 0 1-42.218 1.056c-13.972 0-28.142-.351-42.114-1.044l-.176 3.56c14.03.697 28.26 1.048 42.29 1.048 14.064 0 28.328-.359 42.417-1.06zm229.494-41.615l.858 3.455c13.168-3.266 26.497-6.642 39.396-9.904 13.944-3.54 28.347-7.186 42.602-10.708l-1.221 4.22 3.992-.983 1.797-6.194-4.462-4.654-3.992.98s1.725 1.796 3.04 3.172c-14.272 3.527-28.684 7.172-42.633 10.713a7911.819 7911.819 0 0 1-39.377 9.903zm-19.99 8.55l-1.246 4.217 3.998-.965 1.825-6.188-4.446-4.67-4 .967 3.027 3.177c-31.37 7.543-57.634 13.203-82.567 17.811l.651 3.503c24.993-4.616 51.318-10.296 82.757-17.853zM-292.18 299.021l4.012.907 4.369-4.738-1.919-6.16-4.012-.907s.743 2.373 1.309 4.194c-3.534-.809-7.058-1.61-10.58-2.436v3.657c3.265.763 6.524 1.51 9.801 2.25l-2.98 3.233zM84.487 193.25l-1.542 4.12 4.06-.679 2.25-6.044-4.099-4.973-4.058.681 2.789 3.381C54.924 194.52 27.509 197.84.138 199.881l.261 3.548c27.493-2.046 55.007-5.381 84.088-10.179zm227.696-52.343c31.194-7.46 57.481-13.075 82.615-17.659l-1.486 4.13 4.046-.73 2.183-6.066-4.155-4.925-4.05.724s1.602 1.902 2.835 3.363c-25.2 4.594-51.55 10.224-82.82 17.695l.832 3.468zM814 133.132s.705 2.382 1.249 4.211c-31.266-7.467-57.603-13.09-82.803-17.675l-.637 3.502c25.134 4.577 51.411 10.185 82.607 17.636l-3.026 3.184 4 .964 4.443-4.686-1.837-6.178-3.996-.958zm-210.345-32.319l1.998 3.917a877.579 877.579 0 0 0-42.145-1.022c-14.12 0-28.44.35-42.557 1.042l.172 3.552a882.38 882.38 0 0 1 42.385-1.03c13.919 0 28.023.343 41.955 1.02l-2.384 3.672 4.107.215 3.507-5.413-2.93-5.744-4.108-.209zM415.94 119.598c28.925-4.712 56.338-7.977 83.773-9.983l-1.918 3.94 4.101-.282 2.825-5.8-3.604-5.345-4.101.287s1.394 2.062 2.46 3.646c-27.547 2.02-55.079 5.297-84.108 10.017l.572 3.52zm-651.321 5.915l4.046.731 4.167-4.917-2.175-6.07-4.046-.733 1.478 4.126c-20.723-3.821-42.371-8.386-67.089-14.141v3.658c24.443 5.681 45.9 10.198 66.462 13.991l-2.843 3.355zm71.613 226.123c28.648 3.307 56.228 5.17 84.273 5.696l-2.31 3.72 4.109.133 3.4-5.475-3.042-5.686-4.11-.131s1.184 2.197 2.078 3.879c-27.946-.526-55.435-2.379-83.994-5.674l-.404 3.538zm400.648-36.367l1.76-6.204-4.495-4.622-3.992 1.004 3.062 3.152c-24.676 6.234-53.28 13.378-81.978 19.706l.769 3.478c28.738-6.335 57.382-13.488 82.082-19.733l-1.192 4.227 3.984-1.008zm-366.595-108.186l4.095.293 3.616-5.348-2.82-5.797-4.106-.287s1.081 2.221 1.914 3.937c-27.367-2.038-54.782-5.346-83.753-10.121l-.584 3.514c29.089 4.798 56.611 8.117 84.1 10.163l-2.462 3.646zm631.611 175.814l2.825-5.79-3.604-5.347-4.101.289s1.394 2.062 2.46 3.646c-27.547 2.012-55.079 5.287-84.108 10.015l.572 3.514c28.925-4.706 56.338-7.969 83.773-9.977l-1.918 3.939 4.101-.29zm-165.105-96.05l-1.309 4.188 4.012-.904 1.923-6.155-4.365-4.74-4.016.9s1.69 1.824 2.984 3.233c-27.277 6.164-54.37 12.966-82.028 19.968l.879 3.457c27.624-7 54.696-13.795 81.92-19.947zm-572.172 175.7l4.046.742 4.167-4.923-2.175-6.07-4.046-.736s.833 2.335 1.478 4.132c-20.723-3.829-42.371-8.39-67.089-14.14v3.657c24.443 5.682 45.9 10.192 66.462 13.986l-2.843 3.353zm-56.798-264.635l4.012.903 4.369-4.74-1.919-6.156-4.012-.902s.743 2.366 1.309 4.191c-3.534-.807-7.058-1.615-10.58-2.432v3.65c3.265.763 6.524 1.514 9.801 2.257l-2.98 3.23zm234.2 159.551c28.166-.177 55.778-1.719 84.369-4.691l-1.783 4.022 4.094-.434 2.607-5.9-3.799-5.207-4.091.44s1.462 1.996 2.585 3.538c-28.469 2.957-55.96 4.493-84.004 4.676l.022 3.556zm-234.2-24.74l4.012.905 4.369-4.74-1.919-6.156-4.012-.898s.743 2.36 1.309 4.181c-3.534-.796-7.058-1.61-10.58-2.43v3.66c3.265.755 6.524 1.51 9.801 2.249l-2.98 3.23zm23.935 1.391c29.707 6.33 56.927 11.183 83.177 14.813l-2.691 3.478 4.077.554 3.945-5.098-2.447-5.973-4.073-.548s.94 2.295 1.665 4.054c-26.162-3.62-53.292-8.451-82.912-14.762l-.741 3.482zm32.863-242.306l4.046.735 4.167-4.92-2.175-6.071-4.046-.733s.833 2.335 1.478 4.134c-20.723-3.83-42.371-8.39-67.089-14.146v3.662c24.443 5.678 45.9 10.187 66.462 13.986l-2.843 3.353zM47.715 80.679c26.493-3.377 53.758-7.977 83.305-14.051l-1.377 4.175 4.026-.836 2.02-6.12-4.295-4.818-4.024.84s1.653 1.854 2.918 3.276c-29.452 6.05-56.626 10.639-83.021 14.002l.448 3.532zm104.291-18.53c28.738-6.333 57.382-13.486 82.082-19.727l-1.192 4.225 3.984-1.008 1.76-6.206-4.495-4.622-3.992 1.012s1.731 1.773 3.062 3.144c-24.676 6.234-53.28 13.378-81.978 19.704l.769 3.478zm286.96 175.752l4.07-.55 2.447-5.963-3.94-5.102-4.07.548 2.687 3.48c-26.321 3.629-53.541 8.454-83.187 14.75l.739 3.482c29.554-6.276 56.696-11.085 82.916-14.703l-1.661 4.058zm-102.175 15.241l-1.309 4.184 4.012-.899 1.923-6.152-4.365-4.743-4.016.894s1.69 1.837 2.984 3.238c-27.277 6.168-54.37 12.961-82.028 19.968l.879 3.453c27.624-7.001 54.696-13.787 81.92-19.943zm-99.91 28.422l1.758-6.204-4.494-4.622-3.992 1.012s1.731 1.779 3.062 3.144c-24.676 6.234-53.28 13.378-81.978 19.705l.769 3.479c28.738-6.34 57.382-13.488 82.082-19.73l-1.192 4.228 3.984-1.012zm-294.86 42.202c28.166-.181 55.778-1.723 84.369-4.7l-1.783 4.027 4.094-.439 2.607-5.899-3.799-5.207-4.091.436 2.585 3.546c-28.469 2.96-55.96 4.493-84.004 4.672l.022 3.564zm-210.265-23.353c29.707 6.333 56.927 11.174 83.177 14.812l-2.691 3.479 4.077.55 3.945-5.103-2.447-5.964-4.073-.548s.94 2.287 1.665 4.058c-26.162-3.62-53.292-8.451-82.912-14.77l-.741 3.486zm315.959 16.19c26.493-3.374 53.758-7.972 83.305-14.05l-1.377 4.175 4.026-.837 2.02-6.122-4.295-4.81-4.024.838s1.653 1.848 2.918 3.273c-29.452 6.05-56.626 10.643-83.021 14.004l.448 3.53zm-211.483 1.332c28.648 3.31 56.228 5.162 84.273 5.692l-2.31 3.72 4.109.133 3.4-5.479-3.042-5.682-4.11-.135s1.184 2.197 2.078 3.879c-27.946-.518-55.435-2.367-83.994-5.674l-.404 3.546zM461.86 231.15c28.518-3.289 55.99-5.16 83.94-5.735l-2.126 3.835 4.118-.07 3.127-5.638-3.315-5.529-4.117.07 2.265 3.773c-28.068.57-55.66 2.453-84.3 5.752l.408 3.542zM776.554 216.4c28.23 6.14 56.077 13.015 82.012 19.552l-3.058 3.144 3.988 1.012 4.49-4.63-1.759-6.202-3.988-1.004 1.195 4.225c-25.963-6.544-53.84-13.432-82.131-19.576l-.75 3.479zM-163.768 82.002c28.648 3.307 56.228 5.172 84.273 5.698l-2.31 3.72 4.109.131 3.4-5.475-3.042-5.684-4.11-.133s1.184 2.2 2.078 3.879c-27.946-.516-55.435-2.377-83.994-5.672l-.404 3.536zM-268.244 64.48c29.707 6.34 56.927 11.185 83.177 14.815l-2.691 3.478 4.077.552 3.945-5.096-2.447-5.97-4.073-.553s.94 2.297 1.665 4.062c-26.162-3.626-53.292-8.451-82.912-14.767l-.741 3.479zM776.554 182.697c28.23 6.133 56.077 13.012 82.012 19.55l-3.058 3.152 3.988 1.004 4.49-4.624-1.759-6.206-3.988-1.008s.677 2.39 1.195 4.23c-25.963-6.549-53.84-13.428-82.131-19.584l-.75 3.486zm0-33.705c28.23 6.14 56.077 13.012 82.012 19.55l-3.058 3.148 3.988 1.008 4.49-4.628-1.759-6.206-3.988-1.004 1.195 4.226c-25.963-6.54-53.84-13.424-82.131-19.572l-.75 3.478zM-57.98 87.84c28.166-.187 55.778-1.719 84.369-4.7l-1.783 4.023 4.094-.436 2.607-5.9-3.799-5.205-4.091.44s1.462 1.996 2.585 3.536C-2.466 82.562-29.957 84.092-58 84.275l.022 3.564zm625.193 137.405c28.099.12 55.6 1.568 84.024 4.413l-2.575 3.548 4.093.425 3.781-5.226-2.633-5.885-4.09-.422 1.799 4.014c-28.547-2.859-56.165-4.315-84.385-4.43l-.014 3.563zM-125.62 477l3.616-5.338-2.82-5.797-4.106-.289s1.081 2.221 1.914 3.939c-27.367-2.04-54.782-5.348-83.753-10.125l-.584 3.508c29.089 4.802 56.611 8.125 84.1 10.173l-2.462 3.642 4.095.287zm798.13-244.97c26.542 3.275 53.736 7.75 83.08 13.673l-2.915 3.287 4.036.821 4.27-4.825-2.037-6.117-4.032-.824s.787 2.364 1.392 4.175c-29.437-5.95-56.718-10.439-83.362-13.726l-.432 3.536zM814 234.24l1.25 4.217c-31.266-7.467-57.603-13.093-82.803-17.681l-.637 3.51c25.134 4.568 51.411 10.183 82.607 17.63l-3.026 3.18 4 .964 4.443-4.676-1.837-6.188-3.996-.957zm-37.446 15.868c28.23 6.132 56.077 13.007 82.012 19.544l-3.058 3.152 3.988 1.004 4.49-4.622-1.759-6.206-3.988-1.008 1.195 4.23c-25.963-6.545-53.84-13.428-82.131-19.58l-.75 3.486zM47.714 350.313c26.494-3.379 53.759-7.977 83.306-14.051l-1.377 4.173 4.026-.838 2.02-6.127-4.295-4.809-4.024.833s1.653 1.853 2.918 3.277c-29.452 6.059-56.626 10.639-83.021 14l.448 3.542zm-211.482 35.024c28.648 3.315 56.228 5.17 84.273 5.696l-2.31 3.716 4.109.137 3.4-5.475-3.042-5.685-4.11-.136s1.184 2.202 2.078 3.883c-27.946-.522-55.435-2.375-83.994-5.674l-.404 3.538zm-104.476-17.514c29.707 6.33 56.927 11.175 83.177 14.809l-2.691 3.478 4.077.554 3.945-5.106-2.447-5.96-4.073-.553s.94 2.287 1.665 4.058c-26.162-3.623-53.292-8.45-82.912-14.766l-.741 3.486zm210.265 23.35c28.166-.184 55.778-1.724 84.369-4.696l-1.783 4.022 4.094-.434 2.607-5.9-3.799-5.207-4.091.436s1.462 2 2.585 3.543c-28.469 2.96-55.96 4.496-84.004 4.667l.022 3.569zm294.86-42.199l1.758-6.204-4.494-4.622-3.992 1.008s1.731 1.778 3.062 3.148c-24.676 6.234-53.28 13.378-81.978 19.706l.769 3.478c28.738-6.343 57.382-13.491 82.082-19.73l-1.192 4.226 3.984-1.01zm-107.238 25.16l4.026-.832 2.02-6.126-4.295-4.81-4.024.837s1.653 1.849 2.918 3.273c-29.452 6.055-56.626 10.643-83.021 14.004l.448 3.53c26.493-3.37 53.758-7.969 83.305-14.047l-1.377 4.172zM-21.07 171.055l-1.996 3.923 4.108-.217 2.918-5.752-3.514-5.4-4.107.219s1.346 2.074 2.392 3.671a858.723 858.723 0 0 1-42.218 1.052c-13.972 0-28.142-.35-42.114-1.04l-.176 3.553a855.86 855.86 0 0 0 42.29 1.051c14.064 0 28.328-.358 42.417-1.06zm-271.11-6.847l4.013.903 4.369-4.74-1.919-6.156-4.012-.903s.743 2.367 1.309 4.188c-3.534-.799-7.058-1.612-10.58-2.432v3.661c3.265.755 6.524 1.503 9.801 2.25l-2.98 3.23zm162.465 9.169l4.095.294 3.616-5.343-2.82-5.801-4.106-.287 1.914 3.94c-27.367-2.034-54.782-5.345-83.753-10.128l-.584 3.518c29.089 4.794 56.611 8.117 84.1 10.163l-2.462 3.644zM-292.18 366.429l4.012.906 4.369-4.737-1.919-6.16-4.012-.903s.743 2.369 1.309 4.19a2414.56 2414.56 0 0 1-10.58-2.433v3.65c3.265.763 6.524 1.514 9.801 2.257l-2.98 3.23zm839.97-69.837l3.128-5.643-3.315-5.526-4.117.062 2.265 3.779c-28.068.572-55.66 2.45-84.3 5.756l.408 3.536c28.518-3.287 55.99-5.16 83.94-5.732l-2.126 3.837 4.118-.07zm100.872 4.018l4.093.424 3.781-5.221-2.633-5.884-4.09-.428s1.02 2.281 1.799 4.016c-28.547-2.856-56.165-4.31-84.385-4.428l-.014 3.56c28.099.117 55.6 1.568 84.024 4.413l-2.575 3.548zM191.186 444.572l1.825-6.18-4.446-4.676-4 .972 3.027 3.176c-31.37 7.54-57.634 13.206-82.567 17.812l.651 3.503c24.993-4.618 51.318-10.296 82.757-17.853l-1.245 4.218 3.998-.972zm585.368-127.058c28.23 6.137 56.077 13.008 82.012 19.545l-3.058 3.147 3.988 1.008 4.49-4.622-1.759-6.202-3.988-1.012 1.195 4.234c-25.963-6.549-53.84-13.432-82.131-19.58l-.75 3.482zM438.967 271.61l4.07-.557 2.446-5.957-3.94-5.108-4.07.547 2.687 3.487c-26.321 3.622-53.541 8.451-83.187 14.747l.739 3.486c29.554-6.275 56.696-11.089 82.916-14.707l-1.661 4.062zM672.51 299.44c26.542 3.273 53.736 7.751 83.08 13.674l-2.915 3.284 4.036.825 4.27-4.826-2.037-6.116-4.032-.825s.787 2.365 1.392 4.172c-29.437-5.947-56.718-10.442-83.362-13.729l-.432 3.54zm-335.719 21.11l-1.309 4.183 4.012-.896 1.923-6.154-4.365-4.744-4.016.899s1.69 1.833 2.984 3.233c-27.277 6.168-54.37 12.962-82.028 19.973l.879 3.448c27.624-6.997 54.696-13.782 81.92-19.942zm102.176-15.241l4.07-.546 2.446-5.969-3.94-5.096-4.07.544 2.687 3.478c-26.321 3.634-53.541 8.46-83.187 14.751l.739 3.482c29.554-6.271 56.696-11.08 82.916-14.699l-1.661 4.055zM290.059 419.839l3.992-.988 1.797-6.196-4.462-4.648-3.992.985s1.725 1.793 3.04 3.17c-14.272 3.522-28.684 7.171-42.633 10.712-12.889 3.261-26.22 6.638-39.377 9.903l.858 3.455c13.168-3.263 26.497-6.642 39.396-9.91 13.944-3.534 28.347-7.18 42.602-10.704l-1.221 4.221zM84.487 159.545l-1.542 4.118 4.06-.677 2.25-6.04-4.099-4.973-4.058.677s1.576 1.907 2.789 3.385c-28.963 4.78-56.378 8.102-83.749 10.14l.261 3.553c27.493-2.05 55.007-5.39 84.088-10.183zm312.871 236.738l2.183-6.07-4.155-4.924-4.05.724s1.602 1.904 2.835 3.359c-25.2 4.6-51.55 10.226-82.82 17.701l.832 3.467c31.194-7.46 57.481-13.082 82.615-17.662l-1.486 4.128 4.046-.723zm481.997-188.78c24.546 6.222 49.864 12.631 75.645 18.628v-3.662c-25.47-5.929-50.495-12.268-74.775-18.42l-.87 3.454zm0 67.407c24.546 6.226 49.864 12.63 75.645 18.625v-3.66c-25.47-5.93-50.495-12.266-74.775-18.422l-.87 3.457zM87.005 466.323l2.25-6.042-4.099-4.973-4.058.68 2.789 3.382c-28.963 4.782-56.378 8.1-83.749 10.137l.261 3.556c27.493-2.048 55.007-5.381 84.088-10.187l-1.542 4.128 4.06-.68zm792.35-225.119c24.546 6.222 49.864 12.64 75.645 18.624v-3.65c-25.47-5.93-50.495-12.274-74.775-18.422l-.87 3.448zm-43.246 36.025l-.853 3.454c14.42 3.556 29.003 7.254 43.107 10.826 12.735 3.23 25.889 6.56 38.895 9.79l-3.042 3.164 3.996.984 4.463-4.646-1.79-6.19-3.991-.986s.687 2.383 1.22 4.212c-12.998-3.224-26.145-6.553-38.877-9.776-14.112-3.578-28.697-7.272-43.128-10.832zm-59.555 6.576c28.23 6.14 56.077 13.02 82.012 19.556l-3.058 3.144 3.988 1.004 4.49-4.622-1.759-6.202-3.988-1.004s.677 2.389 1.195 4.226c-25.963-6.545-53.84-13.432-82.131-19.58l-.75 3.478zm-228.762-20.923l3.127-5.63-3.315-5.534-4.117.07 2.265 3.775c-28.068.568-55.66 2.45-84.3 5.755l.408 3.537c28.518-3.292 55.99-5.168 83.94-5.732l-2.126 3.829 4.118-.07zm19.422-3.942c28.099.125 55.6 1.572 84.024 4.42l-2.575 3.549 4.093.42 3.781-5.218-2.633-5.887-4.09-.42s1.02 2.273 1.799 4.016c-28.547-2.865-56.165-4.315-84.385-4.437l-.014 3.557zm-590.28 219.377l4.108-.224 2.918-5.743-3.514-5.405-4.107.219s1.346 2.07 2.392 3.67a856.266 856.266 0 0 1-42.218 1.054c-13.972 0-28.142-.355-42.114-1.042l-.176 3.556c14.03.691 28.26 1.05 42.29 1.05 14.064 0 28.328-.367 42.417-1.058l-1.996 3.923zM672.51 265.729c26.542 3.274 53.736 7.752 83.08 13.683l-2.915 3.28 4.036.824 4.27-4.825-2.037-6.116-4.032-.821 1.392 4.168c-29.437-5.947-56.718-10.446-83.362-13.721l-.432 3.528zm206.845-91.935c24.546 6.226 49.864 12.639 75.645 18.628v-3.654c-25.47-5.93-50.495-12.269-74.775-18.42l-.87 3.446zm-670.931-44.35l.858 3.455c13.168-3.262 26.497-6.643 39.396-9.912 13.944-3.528 28.347-7.178 42.602-10.704l-1.221 4.215 3.992-.982 1.797-6.19-4.462-4.654-3.992.98s1.725 1.8 3.04 3.176c-14.272 3.518-28.684 7.176-42.633 10.704-12.889 3.27-26.22 6.65-39.377 9.912zm501.274-51.247s.882 2.327 1.552 4.116c-29.025-4.712-56.551-7.983-84.118-9.987l-.257 3.548c27.453 1.996 54.876 5.257 83.783 9.95l-2.781 3.392 4.062.67 4.09-4.981-2.27-6.039-4.061-.67zM415.94 85.889c28.925-4.704 56.338-7.965 83.773-9.971l-1.918 3.928 4.101-.283 2.825-5.795-3.604-5.345-4.101.287 2.46 3.65c-27.547 2.016-55.079 5.289-84.108 10.017l.572 3.512zM520.952 71.04l.172 3.56a872.16 872.16 0 0 1 42.385-1.034c13.919 0 28.023.346 41.955 1.02l-2.384 3.672 4.107.21 3.507-5.408-2.93-5.736-4.108-.217s1.131 2.225 1.998 3.92a877.585 877.585 0 0 0-42.145-1.025c-14.12 0-28.44.35-42.557 1.038zm293.049 28.385s.705 2.387 1.249 4.212c-31.266-7.463-57.603-13.091-82.803-17.677l-.637 3.504c25.134 4.576 51.411 10.189 82.607 17.636l-3.026 3.185 4 .959 4.443-4.674-1.837-6.182-3.996-.963zm22.108 9.278l-.853 3.463c14.42 3.556 29.003 7.25 43.107 10.824 12.735 3.231 25.889 6.56 38.895 9.784l-3.042 3.17 3.996.986 4.463-4.646-1.79-6.192-3.991-.992s.687 2.389 1.22 4.217c-12.998-3.221-26.145-6.552-38.877-9.782-14.112-3.572-28.697-7.267-43.128-10.832zm-730.433 47.138c24.993-4.617 51.318-10.297 82.757-17.853l-1.245 4.217 3.998-.964 1.825-6.188-4.446-4.67-4 .967 3.027 3.175c-31.37 7.541-57.634 13.209-82.567 17.813l.651 3.503zm773.679-15.745c24.546 6.218 49.864 12.63 75.645 18.623v-3.653c-25.47-5.933-50.495-12.277-74.775-18.425l-.87 3.455zm-567.172-32.895c31.194-7.457 57.481-13.075 82.615-17.66l-1.486 4.127 4.046-.725 2.183-6.069-4.155-4.927-4.05.731s1.602 1.903 2.835 3.355c-25.2 4.599-51.55 10.225-82.82 17.704l.832 3.464z"/>
</svg>
