<?xml version="1.0" encoding="UTF-8" standalone="no"?>
<svg
   xmlns:dc="http://purl.org/dc/elements/1.1/"
   xmlns:cc="http://creativecommons.org/ns#"
   xmlns:rdf="http://www.w3.org/1999/02/22-rdf-syntax-ns#"
   xmlns:svg="http://www.w3.org/2000/svg"
   xmlns="http://www.w3.org/2000/svg"
   viewBox="0 0 23.559999 25.577066"
   height="25.577066"
   width="23.559999"
   xml:space="preserve"
   id="svg2"
   version="1.1"><metadata
     id="metadata8"><rdf:RDF><cc:Work
         rdf:about=""><dc:format>image/svg+xml</dc:format><dc:type
           rdf:resource="http://purl.org/dc/dcmitype/StillImage" /></cc:Work></rdf:RDF></metadata><defs
     id="defs6"><clipPath
       id="clipPath18"
       clipPathUnits="userSpaceOnUse"><path
         id="path16"
         d="M 0,19.183 H 17.671 V 0 H 0 Z" /></clipPath></defs><g
     transform="matrix(1.3333333,0,0,-1.3333333,-6.6666665e-4,25.577066)"
     id="g10"><g
       id="g12"><g
         clip-path="url(#clipPath18)"
         id="g14"><g
           transform="translate(12.0645,13.3838)"
           id="g20"><path
             id="path22"
             style="fill:#1d1d1b;fill-opacity:1;fill-rule:nonzero;stroke:none"
             d="m 0,0 c -0.33,0.109 -0.879,0.274 -1.704,0.274 -2.803,0 -5.084,-2.61 -5.084,-5.633 0,-1.319 0.715,-2.309 2.116,-2.309 1.924,0 3.628,2.502 3.985,4.26 z m 0.907,-12.229 c -1.429,-0.825 -3.023,-1.155 -4.782,-1.155 -4.507,0 -8.189,3.325 -8.189,8.574 0,5.689 3.82,10.609 9.893,10.609 4.754,0 7.777,-3.381 7.777,-7.943 0,-4.205 -2.335,-6.541 -4.671,-6.541 -0.962,0 -2.035,0.743 -1.842,2.583 h -0.11 c -1.044,-1.757 -2.336,-2.583 -4.094,-2.583 -1.485,0 -2.886,1.265 -2.886,3.353 0,3.463 2.831,6.623 6.541,6.623 1.154,0 2.033,-0.22 2.748,-0.521 L 0.303,-4.15 c -0.495,-2.391 -0.111,-3.49 0.906,-3.49 1.539,-0.055 3.16,2.061 3.16,5.249 0,4.26 -2.445,7.172 -6.732,7.172 -4.645,0 -8.464,-3.71 -8.464,-9.508 0,-4.562 3.05,-7.612 7.09,-7.612 1.676,0 3.133,0.385 4.259,1.071 z" /></g></g></g></g></svg>