<?xml version="1.0" encoding="UTF-8" standalone="no"?>
<svg
   xmlns:dc="http://purl.org/dc/elements/1.1/"
   xmlns:cc="http://creativecommons.org/ns#"
   xmlns:rdf="http://www.w3.org/1999/02/22-rdf-syntax-ns#"
   xmlns:svg="http://www.w3.org/2000/svg"
   xmlns="http://www.w3.org/2000/svg"
   viewBox="0 0 38.666134 38.666664"
   height="38.666664"
   width="38.666134"
   xml:space="preserve"
   id="svg2"
   version="1.1"><metadata
     id="metadata8"><rdf:RDF><cc:Work
         rdf:about=""><dc:format>image/svg+xml</dc:format><dc:type
           rdf:resource="http://purl.org/dc/dcmitype/StillImage" /></cc:Work></rdf:RDF></metadata><defs
     id="defs6"><clipPath
       id="clipPath18"
       clipPathUnits="userSpaceOnUse"><path
         id="path16"
         d="M 0,29 H 29 V 0 H 0 Z" /></clipPath></defs><g
     transform="matrix(1.3333333,0,0,-1.3333333,-5.3333332e-4,38.666666)"
     id="g10"><g
       id="g12"><g
         clip-path="url(#clipPath18)"
         id="g14"><g
           transform="translate(27.1494,29)"
           id="g20"><path
             id="path22"
             style="fill:currentColor;fill-opacity:1;fill-rule:nonzero;stroke:none"
             d="m 0,0 h -25.298 c -1.018,0 -1.851,-0.833 -1.851,-1.852 v -25.296 c 0,-1.019 0.833,-1.852 1.852,-1.852 h 25.296 c 1.019,0 1.852,0.833 1.852,1.852 V -1.851 C 1.851,-0.833 1.018,0 0,0 m 0,-1 c 0.469,0 0.851,-0.382 0.851,-0.851 V -27.148 C 0.851,-27.618 0.469,-28 -0.001,-28 h -25.296 c -0.471,0 -0.852,0.382 -0.852,0.852 v 25.296 c 0,0.47 0.381,0.852 0.851,0.852 L 0,-1" /></g><path
           id="path24"
           style="fill:currentColor;fill-opacity:1;fill-rule:nonzero;stroke:none"
           d="M 26,26 H 3 V 18 H 26 Z M 25,19 H 4 v 6 h 21 z" /><path
           id="path26"
           style="fill:currentColor;fill-opacity:1;fill-rule:nonzero;stroke:none"
           d="M 10,14 H 3 v -3 h 7 z M 9,12 H 4 v 1 h 5 z" /><path
           id="path28"
           style="fill:currentColor;fill-opacity:1;fill-rule:nonzero;stroke:none"
           d="m 18,14 h -7 v -3 h 7 z m -1,-2 h -5 v 1 h 5 z" /><path
           id="path30"
           style="fill:currentColor;fill-opacity:1;fill-rule:nonzero;stroke:none"
           d="m 26,14 h -7 v -3 h 7 z m -1,-2 h -5 v 1 h 5 z" /><path
           id="path32"
           style="fill:currentColor;fill-opacity:1;fill-rule:nonzero;stroke:none"
           d="M 10,10 H 3 V 7 h 7 z M 9,8 H 4 v 1 h 5 z" /><path
           id="path34"
           style="fill:currentColor;fill-opacity:1;fill-rule:nonzero;stroke:none"
           d="M 18,10 H 11 V 7 h 7 z M 17,8 h -5 v 1 h 5 z" /><path
           id="path36"
           style="fill:currentColor;fill-opacity:1;fill-rule:nonzero;stroke:none"
           d="M 10,6 H 3 V 3 h 7 z M 9,4 H 4 v 1 h 5 z" /><path
           id="path38"
           style="fill:currentColor;fill-opacity:1;fill-rule:nonzero;stroke:none"
           d="M 18,6 H 11 V 3 h 7 z M 17,4 h -5 v 1 h 5 z" /><path
           id="path40"
           style="fill:currentColor;fill-opacity:1;fill-rule:nonzero;stroke:none"
           d="M 26,10 H 19 V 3 h 7 z M 25,4 h -5 v 5 h 5 z" /></g></g></g></svg>