<?xml version="1.0" encoding="UTF-8" standalone="no"?>
<svg xmlns:dc="http://purl.org/dc/elements/1.1/" xmlns:cc="http://creativecommons.org/ns#" xmlns:rdf="http://www.w3.org/1999/02/22-rdf-syntax-ns#" xmlns="http://www.w3.org/2000/svg" height="26.338667" width="26.512243" xml:space="preserve" id="svg2" version="1.1"><metadata id="metadata8"><rdf:RDF><cc:Work><dc:format>image/svg+xml</dc:format><dc:type rdf:resource="http://purl.org/dc/dcmitype/StillImage"/></cc:Work></rdf:RDF></metadata><defs id="defs6"><clipPath id="clipPath18" clipPathUnits="userSpaceOnUse"><path id="path16" d="M0 19.755h19.885V0H0z"/></clipPath></defs>


    <g transform="matrix(1.33333 0 0 -1.33333 0 26.34)" id="g10"><g id="g12"><g clip-path="url(#clipPath18)" id="g14"><g transform="translate(3.821 19.755)" id="g20"><path id="path22" style="fill-opacity:1;fill-rule:nonzero;stroke:none" d="M0 0l-3.135-2.873s-3.263-4.048 4.442-11.754c4.17-4.171 7.269-5.127 9.235-5.127 1.666 0 2.518.687 2.518.687l3.003 3.003-4.57 4.179-2.612-2.22-7.053 7.052 1.959 1.96zm-.142-1.486L2.47-4.997 1.121-6.346l-.707-.707.707-.707 7.053-7.052.652-.652.702.597 1.941 1.649 3.148-2.878-2.206-2.206c-.151-.098-.77-.452-1.869-.452-1.686 0-4.533.838-8.528 4.834-6.477 6.477-4.637 9.986-4.395 10.382l2.239 2.052"/></g></g></g></g>


</svg>