<?xml version="1.0" encoding="UTF-8" standalone="no"?>
<svg
   xmlns:dc="http://purl.org/dc/elements/1.1/"
   xmlns:cc="http://creativecommons.org/ns#"
   xmlns:rdf="http://www.w3.org/1999/02/22-rdf-syntax-ns#"
   xmlns:svg="http://www.w3.org/2000/svg"
   xmlns="http://www.w3.org/2000/svg"
   viewBox="0 0 20.192799 22.934532"
   height="22.934532"
   width="20.192799"
   xml:space="preserve"
   id="svg2"
   version="1.1"><metadata
     id="metadata8"><rdf:RDF><cc:Work
         rdf:about=""><dc:format>image/svg+xml</dc:format><dc:type
           rdf:resource="http://purl.org/dc/dcmitype/StillImage" /></cc:Work></rdf:RDF></metadata><defs
     id="defs6"><clipPath
       id="clipPath18"
       clipPathUnits="userSpaceOnUse"><path
         id="path16"
         d="M 0,17.201 H 15.145 V 0 H 0 Z" /></clipPath></defs><g
     transform="matrix(1.3333333,0,0,-1.3333333,0,22.934666)"
     id="g10"><g
       id="g12"><g
         clip-path="url(#clipPath18)"
         id="g14"><g
           transform="translate(11.999,12.2742)"
           id="g20"><path
             id="path22"
             style="fill:none;stroke:currentColor;stroke-width:1;stroke-linecap:butt;stroke-linejoin:miter;stroke-miterlimit:10;stroke-dasharray:none;stroke-opacity:1"
             d="m 0,0 c 0,-2.445 -1.983,-4.427 -4.429,-4.427 -2.443,0 -4.425,1.982 -4.425,4.427 0,2.445 1.982,4.427 4.425,4.427 C -1.983,4.427 0,2.445 0,0" /></g><g
           transform="translate(12.7256,6.9431)"
           id="g24"><path
             id="path26"
             style="fill:currentColor;fill-opacity:1;fill-rule:nonzero;stroke:none"
             d="M 0,0 C -0.145,0 -0.291,-0.013 -0.441,-0.037 H -9.865 C -10.015,-0.013 -10.162,0 -10.306,0 c -1.364,0 -2.42,-1.071 -2.42,-2.351 V -6.943 H 2.419 v 4.592 C 2.419,-1.071 1.365,0 0,0 m 0,-1 c 0.782,0 1.419,-0.606 1.419,-1.351 v -3.592 h -13.145 v 3.592 c 0,0.354 0.142,0.689 0.4,0.943 0.267,0.262 0.63,0.408 1.02,0.408 0.091,0 0.184,-0.008 0.277,-0.023 l 0.082,-0.014 h 0.082 9.424 0.082 l 0.081,0.014 C -0.185,-1.008 -0.091,-1 0,-1" /></g></g></g></g></svg>