<?xml version="1.0" encoding="UTF-8" standalone="no"?>
<svg
   xmlns:dc="http://purl.org/dc/elements/1.1/"
   xmlns:cc="http://creativecommons.org/ns#"
   xmlns:rdf="http://www.w3.org/1999/02/22-rdf-syntax-ns#"
   xmlns:svg="http://www.w3.org/2000/svg"
   xmlns="http://www.w3.org/2000/svg"
   viewBox="0 0 546.81866 424.34146"
   height="424.34146"
   width="546.81866"
   xml:space="preserve"
   id="svg2"
   version="1.1"><metadata
     id="metadata8"><rdf:RDF><cc:Work
         rdf:about=""><dc:format>image/svg+xml</dc:format><dc:type
           rdf:resource="http://purl.org/dc/dcmitype/StillImage" /></cc:Work></rdf:RDF></metadata><defs
     id="defs6"><clipPath
       id="clipPath20"
       clipPathUnits="userSpaceOnUse"><path
         id="path18"
         d="M 0,318.257 H 410.114 V 0 H 0 Z" /></clipPath></defs><g
     transform="matrix(1.3333333,0,0,-1.3333333,0,424.34199)"
     id="g10"><path
       id="path12"
       style="fill:#7469ad;fill-opacity:1;fill-rule:nonzero;stroke:none"
       d="M 260.478,91.891 H 149.6 v 199.264 h 110.878 z" /><g
       id="g14"><g
         clip-path="url(#clipPath20)"
         id="g16"><g
           transform="translate(156.647,191.5235)"
           id="g22"><path
             id="path24"
             style="fill:#cf1d17;fill-opacity:1;fill-rule:nonzero;stroke:none"
             d="m 0,0 c 0,40.415 18.919,76.427 48.412,99.631 -21.564,16.973 -48.785,27.102 -78.326,27.102 -69.989,0 -126.733,-56.743 -126.733,-126.733 0,-70.006 56.744,-126.751 126.733,-126.751 29.541,0 56.762,10.13 78.326,27.102 C 18.919,-76.443 0,-40.432 0,0" /></g><g
           transform="translate(410.1143,191.5235)"
           id="g26"><path
             id="path28"
             style="fill:#2d97d4;fill-opacity:1;fill-rule:nonzero;stroke:none"
             d="m 0,0 c 0,-70.006 -56.744,-126.751 -126.735,-126.751 -29.574,0 -56.777,10.13 -78.321,27.102 29.472,23.206 48.409,59.217 48.409,99.649 0,40.415 -18.937,76.427 -48.409,99.631 21.544,16.973 48.747,27.102 78.321,27.102 C -56.744,126.733 0,69.99 0,0" /></g><g
           transform="translate(120.4829,1.0674)"
           id="g30"><path
             id="path32"
             style="fill:#ffffff;fill-opacity:1;fill-rule:nonzero;stroke:none"
             d="m 0,0 v 21.122 c 0,7.961 -5.065,13.296 -13.229,13.381 -4.303,0.068 -8.74,-1.27 -11.822,-5.979 -2.338,3.726 -5.997,5.979 -11.13,5.979 -3.59,0 -7.113,-1.067 -9.875,-4.996 v 4.149 h -7.316 V 0 h 7.419 v 18.649 c 0,5.843 3.217,8.961 8.198,8.961 4.879,0 7.351,-3.168 7.351,-8.877 V 0 h 7.384 v 18.649 c 0,5.843 3.389,8.961 8.232,8.961 5.016,0 7.386,-3.168 7.386,-8.877 L -7.402,0 Z m 41.246,16.82 v 16.836 h -7.318 v -4.082 c -2.338,3.016 -5.844,4.929 -10.638,4.929 -9.435,0 -16.803,-7.402 -16.803,-17.683 0,-10.265 7.368,-17.667 16.803,-17.667 4.794,0 8.3,1.931 10.638,4.929 V 0 h 7.318 z m -27.238,0 c 0,5.945 3.863,10.79 10.198,10.79 6.064,0 10.128,-4.658 10.128,-10.79 0,-6.116 -4.064,-10.756 -10.128,-10.756 -6.335,0 -10.198,4.843 -10.198,10.756 m 190.286,17.683 c 2.61,0 5.016,-0.457 7.25,-1.372 2.238,-0.898 4.167,-2.151 5.761,-3.726 1.642,-1.575 2.911,-3.472 3.826,-5.624 0.915,-2.168 1.373,-4.522 1.373,-7.063 0,-2.541 -0.458,-4.896 -1.373,-7.064 -0.915,-2.15 -2.184,-4.047 -3.826,-5.623 -1.594,-1.592 -3.523,-2.829 -5.761,-3.743 -2.234,-0.897 -4.64,-1.355 -7.25,-1.355 -2.607,0 -5.048,0.458 -7.249,1.355 -2.236,0.914 -4.132,2.151 -5.759,3.743 -1.592,1.576 -2.878,3.473 -3.794,5.623 -0.914,2.168 -1.355,4.523 -1.355,7.064 0,2.541 0.441,4.895 1.355,7.063 0.916,2.152 2.202,4.049 3.794,5.624 1.627,1.575 3.523,2.828 5.759,3.726 2.201,0.915 4.642,1.372 7.249,1.372 m 0,-6.961 c -1.524,0 -2.914,-0.271 -4.2,-0.779 -1.288,-0.543 -2.406,-1.288 -3.353,-2.236 -0.934,-0.949 -1.677,-2.084 -2.219,-3.422 -0.526,-1.321 -0.813,-2.796 -0.813,-4.387 0,-1.61 0.287,-3.067 0.813,-4.387 0.542,-1.339 1.285,-2.474 2.219,-3.438 0.947,-0.949 2.065,-1.694 3.353,-2.219 1.286,-0.525 2.676,-0.797 4.2,-0.797 1.492,0 2.915,0.272 4.203,0.797 1.286,0.525 2.42,1.27 3.354,2.219 0.983,0.964 1.727,2.099 2.252,3.438 0.541,1.32 0.829,2.777 0.829,4.387 0,1.591 -0.288,3.066 -0.829,4.387 -0.525,1.338 -1.269,2.473 -2.252,3.422 -0.934,0.948 -2.068,1.693 -3.354,2.236 -1.288,0.508 -2.711,0.779 -4.203,0.779 m -90.282,-2.474 c -2.031,1.287 -6.199,2.88 -10.484,2.88 -4.015,0 -6.419,-1.472 -6.419,-3.947 0,-2.234 2.541,-2.879 5.707,-3.302 l 3.439,-0.491 c 7.335,-1.05 11.756,-4.151 11.756,-10.062 0,-6.419 -5.624,-10.993 -15.33,-10.993 -5.506,0 -10.553,1.423 -14.568,4.37 l 3.439,5.709 c 2.457,-1.897 6.133,-3.524 11.197,-3.524 4.997,0 7.674,1.473 7.674,4.082 0,1.897 -1.915,2.963 -5.929,3.524 l -3.439,0.49 c -7.537,1.051 -11.637,4.438 -11.637,9.926 0,6.691 5.523,10.773 14.025,10.773 5.352,0 10.214,-1.202 13.721,-3.523 z M 81.829,16.82 c -0.067,10.501 -6.537,17.683 -15.972,17.683 -9.841,0 -16.753,-7.182 -16.753,-17.683 0,-10.671 7.183,-17.649 17.261,-17.649 5.065,0 9.689,1.252 13.788,4.709 L 76.562,9.299 C 73.732,7.046 70.143,5.775 66.79,5.775 c -4.727,0 -9.03,2.186 -10.063,8.233 h 24.967 c 0.068,0.933 0.135,1.829 0.135,2.812 M 56.76,19.784 c 0.78,4.861 3.728,8.164 8.963,8.164 4.723,0 7.74,-2.947 8.519,-8.164 z m 93.705,7.182 h -11.96 V 11.755 c 0,-3.371 1.188,-5.606 4.879,-5.606 1.881,0 4.268,0.609 6.472,1.879 l 2.1,-6.266 c -2.322,-1.609 -5.981,-2.609 -9.148,-2.609 -8.673,0 -11.687,4.658 -11.687,12.466 v 15.347 h -6.827 v 6.69 h 6.827 v 10.199 h 7.384 V 33.656 h 11.96 z m 27.067,7.537 c 1.458,0 3.591,-0.287 5.217,-0.931 l -2.27,-6.894 c -1.523,0.643 -3.083,0.846 -4.572,0.846 -4.777,0 -7.183,-3.082 -7.183,-8.655 V 0 h -7.316 v 33.656 h 7.249 v -4.082 c 1.896,2.949 4.657,4.929 8.875,4.929" /></g></g></g></g></svg>