<?xml version="1.0" encoding="UTF-8" standalone="no"?>
<svg
   xmlns:dc="http://purl.org/dc/elements/1.1/"
   xmlns:cc="http://creativecommons.org/ns#"
   xmlns:rdf="http://www.w3.org/1999/02/22-rdf-syntax-ns#"
   xmlns:svg="http://www.w3.org/2000/svg"
   xmlns="http://www.w3.org/2000/svg"
   viewBox="0 0 454.03424 353.18265"
   height="353.18265"
   width="454.03424"
   xml:space="preserve"
   id="svg2"
   version="1.1"><metadata
     id="metadata8"><rdf:RDF><cc:Work
         rdf:about=""><dc:format>image/svg+xml</dc:format><dc:type
           rdf:resource="http://purl.org/dc/dcmitype/StillImage" /></cc:Work></rdf:RDF></metadata><defs
     id="defs6"><clipPath
       id="clipPath18"
       clipPathUnits="userSpaceOnUse"><path
         id="path16"
         d="M 0,264.887 H 340.526 V 0 H 0 Z" /></clipPath></defs><g
     transform="matrix(1.3333333,0,0,-1.3333333,-3.9999999e-4,353.18266)"
     id="g10"><g
       id="g12"><g
         clip-path="url(#clipPath18)"
         id="g14"><g
           transform="translate(333.7725,3.5918)"
           id="g20"><path
             id="path22"
             style="fill:#ffffff;fill-opacity:1;fill-rule:nonzero;stroke:none"
             d="m 0,0 v -0.687 h 0.632 c 0.142,0 0.259,0.027 0.346,0.081 0.09,0.062 0.129,0.15 0.129,0.266 0,0.115 -0.039,0.197 -0.129,0.258 C 0.891,-0.027 0.774,0 0.632,0 Z M 0.639,0.482 C 0.972,0.482 1.224,0.408 1.408,0.265 1.585,0.116 1.673,-0.088 1.673,-0.34 1.673,-0.551 1.604,-0.729 1.462,-0.871 1.319,-1.007 1.115,-1.088 0.85,-1.122 L 1.693,-2.096 H 1.034 L 0.252,-1.129 H 0 V -2.096 H -0.551 V 0.482 Z M 0.476,-2.979 c 0.298,0 0.578,0.054 0.836,0.17 0.259,0.109 0.484,0.265 0.681,0.461 0.196,0.198 0.347,0.423 0.462,0.688 0.109,0.265 0.163,0.544 0.163,0.844 0,0.298 -0.054,0.578 -0.163,0.842 C 2.34,0.292 2.189,0.517 1.993,0.714 1.796,0.911 1.571,1.061 1.312,1.177 1.054,1.286 0.774,1.34 0.476,1.34 0.17,1.34 -0.116,1.286 -0.381,1.177 -0.647,1.061 -0.871,0.911 -1.068,0.714 -1.265,0.517 -1.415,0.292 -1.531,0.026 c -0.108,-0.264 -0.163,-0.544 -0.163,-0.842 0,-0.3 0.055,-0.579 0.163,-0.844 0.116,-0.265 0.266,-0.49 0.463,-0.688 0.197,-0.196 0.421,-0.352 0.687,-0.461 0.265,-0.116 0.551,-0.17 0.857,-0.17 m 0,4.938 C 0.864,1.959 1.23,1.891 1.578,1.741 1.918,1.598 2.217,1.4 2.476,1.148 2.727,0.898 2.931,0.598 3.081,0.265 3.224,-0.075 3.299,-0.436 3.299,-0.816 3.299,-1.197 3.224,-1.559 3.081,-1.892 2.931,-2.231 2.727,-2.524 2.476,-2.775 2.217,-3.027 1.918,-3.225 1.578,-3.374 1.23,-3.524 0.864,-3.592 0.476,-3.592 c -0.401,0 -0.775,0.068 -1.123,0.218 -0.346,0.149 -0.645,0.347 -0.897,0.599 -0.259,0.251 -0.456,0.544 -0.606,0.883 -0.143,0.333 -0.217,0.695 -0.217,1.076 0,0.38 0.074,0.741 0.217,1.081 0.15,0.333 0.347,0.633 0.606,0.883 0.252,0.252 0.551,0.45 0.897,0.593 0.348,0.15 0.722,0.218 1.123,0.218 m -260.67,9.924 c 0,4.911 3.211,8.945 8.476,8.945 5.027,0 8.414,-3.857 8.414,-8.945 0,-5.088 -3.387,-8.945 -8.414,-8.945 -5.265,0 -8.476,4.034 -8.476,8.945 m 22.618,0 v 13.972 h -6.075 V 22.46 c -1.932,2.517 -4.857,4.095 -8.829,4.095 -7.836,0 -13.972,-6.142 -13.972,-14.672 0,-8.537 6.136,-14.672 13.972,-14.672 3.972,0 6.897,1.578 8.829,4.088 v -3.387 h 6.075 z m 205.293,0 c 0,4.911 3.218,8.945 8.476,8.945 5.026,0 8.421,-3.857 8.421,-8.945 0,-5.088 -3.395,-8.945 -8.421,-8.945 -5.258,0 -8.476,4.034 -8.476,8.945 m 22.624,0 V 37.078 H -15.74 V 22.46 c -1.925,2.517 -4.85,4.095 -8.822,4.095 -7.836,0 -13.972,-6.142 -13.972,-14.672 0,-8.537 6.136,-14.672 13.972,-14.672 3.972,0 6.897,1.578 8.822,4.088 v -3.387 h 6.081 z m -152.51,9.237 c 3.918,0 6.428,-2.455 7.074,-6.781 h -14.495 c 0.64,4.033 3.095,6.781 7.421,6.781 m 0.116,5.435 c -8.183,0 -13.91,-5.965 -13.91,-14.672 0,-8.883 5.965,-14.672 14.325,-14.672 4.203,0 8.06,1.054 11.453,3.918 l -2.978,4.496 c -2.34,-1.87 -5.319,-2.918 -8.128,-2.918 -3.918,0 -7.482,1.809 -8.36,6.836 h 20.753 c 0.061,0.762 0.116,1.523 0.116,2.34 -0.055,8.707 -5.435,14.672 -13.271,14.672 m 73.361,-14.672 c 0,4.911 3.216,8.945 8.481,8.945 5.026,0 8.415,-3.857 8.415,-8.945 0,-5.088 -3.389,-8.945 -8.415,-8.945 -5.265,0 -8.481,4.034 -8.481,8.945 m 22.623,0 V 25.855 H -72.15 V 22.46 c -1.925,2.517 -4.85,4.095 -8.822,4.095 -7.836,0 -13.972,-6.142 -13.972,-14.672 0,-8.537 6.136,-14.672 13.972,-14.672 3.972,0 6.897,1.578 8.822,4.088 v -3.387 h 6.081 z m -56.933,0 c 0,-8.475 5.904,-14.672 14.903,-14.672 4.211,0 7.02,0.932 10.054,3.333 l -2.919,4.911 c -2.278,-1.639 -4.68,-2.517 -7.306,-2.517 -4.856,0.062 -8.42,3.565 -8.42,8.945 0,5.374 3.564,8.884 8.42,8.945 2.626,0 5.028,-0.878 7.306,-2.517 l 2.919,4.911 c -3.034,2.395 -5.843,3.333 -10.054,3.333 -8.999,0 -14.903,-6.197 -14.903,-14.672 m 78.326,14.672 c -3.503,0 -5.782,-1.639 -7.36,-4.095 v 3.395 h -6.02 V -2.088 h 6.074 v 15.665 c 0,4.617 1.993,7.19 5.965,7.19 1.225,0 2.51,-0.177 3.803,-0.701 l 1.863,5.727 c -1.339,0.523 -3.094,0.762 -4.325,0.762 M -207.532,23.63 c -2.918,1.932 -6.952,2.925 -11.394,2.925 -7.074,0 -11.631,-3.394 -11.631,-8.945 0,-4.557 3.387,-7.366 9.639,-8.244 l 2.87,-0.408 c 3.326,-0.47 4.904,-1.34 4.904,-2.918 0,-2.163 -2.217,-3.394 -6.367,-3.394 -4.21,0 -7.25,1.347 -9.298,2.924 l -2.863,-4.733 c 3.333,-2.456 7.543,-3.626 12.1,-3.626 8.068,0 12.748,3.796 12.748,9.115 0,4.91 -3.687,7.482 -9.768,8.36 l -2.864,0.414 c -2.626,0.347 -4.734,0.871 -4.734,2.742 0,2.047 1.986,3.278 5.319,3.278 3.571,0 7.013,-1.347 8.713,-2.401 z m 78.394,2.925 c -3.51,0 -5.789,-1.639 -7.367,-4.095 v 3.395 h -6.019 V -2.088 h 6.074 v 15.665 c 0,4.617 1.993,7.19 5.965,7.19 1.225,0 2.517,-0.177 3.803,-0.701 l 1.869,5.727 c -1.346,0.523 -3.101,0.762 -4.325,0.762 m -51.852,-0.7 h -9.938 v 8.475 h -6.135 v -8.475 h -5.674 v -5.558 h 5.674 V 7.557 c 0,-6.49 2.509,-10.346 9.699,-10.346 2.633,0 5.673,0.815 7.598,2.163 l -1.748,5.204 C -183.33,3.523 -185.316,3 -186.894,3 c -3.041,0 -4.034,1.87 -4.034,4.673 v 12.624 h 9.938 z m -90.842,-27.943 v 17.535 c 0,6.605 -4.204,11.047 -10.985,11.108 -3.565,0.054 -7.251,-1.054 -9.823,-4.972 -1.925,3.102 -4.965,4.972 -9.237,4.972 -2.979,0 -5.904,-0.877 -8.183,-4.149 v 3.449 h -6.081 V -2.088 h 6.142 V 13.4 c 0,4.857 2.687,7.428 6.837,7.428 4.033,0 6.081,-2.634 6.081,-7.367 V -2.088 h 6.135 V 13.4 c 0,4.857 2.809,7.428 6.843,7.428 4.149,0 6.135,-2.634 6.135,-7.367 V -2.088 Z" /></g><path
           id="path24"
           style="fill:#f26521;fill-opacity:1;fill-rule:nonzero;stroke:none"
           d="m 216.301,76.918 h -92.08 v 165.467 h 92.08 z" /><g
           transform="translate(130.0703,159.6519)"
           id="g26"><path
             id="path28"
             style="fill:#e51b24;fill-opacity:1;fill-rule:nonzero;stroke:none"
             d="M 0,0 C 0,33.568 15.719,63.463 40.193,82.734 22.29,96.828 -0.293,105.235 -24.841,105.235 -82.959,105.235 -130.07,58.117 -130.07,0 c 0,-58.117 47.111,-105.235 105.229,-105.235 24.548,0 47.131,8.407 65.034,22.501 C 15.719,-63.464 0,-33.568 0,0" /></g><g
           transform="translate(337.2412,94.4473)"
           id="g30"><path
             id="path32"
             style="fill:#f99f1b;fill-opacity:1;fill-rule:nonzero;stroke:none"
             d="m 0,0 v 4.081 h -1.067 l -1.226,-2.81 -1.224,2.81 H -4.585 V 0 h 0.748 v 3.081 l 1.151,-2.659 h 0.782 l 1.149,2.666 V 0 Z m -6.755,0 v 3.387 h 1.367 V 4.074 H -8.87 V 3.387 h 1.367 V 0 Z m 10.04,65.211 c 0,-58.123 -47.11,-105.234 -105.227,-105.234 -24.549,0 -47.132,8.407 -65.029,22.501 24.474,19.263 40.188,49.165 40.188,82.733 0,33.569 -15.714,63.464 -40.188,82.734 17.897,14.087 40.48,22.495 65.029,22.495 58.117,0 105.227,-47.112 105.227,-105.229" /></g></g></g></g></svg>