<?xml version="1.0" encoding="UTF-8" standalone="no"?>
<svg
   xmlns:dc="http://purl.org/dc/elements/1.1/"
   xmlns:cc="http://creativecommons.org/ns#"
   xmlns:rdf="http://www.w3.org/1999/02/22-rdf-syntax-ns#"
   xmlns:svg="http://www.w3.org/2000/svg"
   xmlns="http://www.w3.org/2000/svg"
   viewBox="0 0 380.22625 107.25066"
   height="107.25066"
   width="380.22626"
   xml:space="preserve"
   id="svg2"
   version="1.1"><metadata
     id="metadata8"><rdf:RDF><cc:Work
         rdf:about=""><dc:format>image/svg+xml</dc:format><dc:type
           rdf:resource="http://purl.org/dc/dcmitype/StillImage" /></cc:Work></rdf:RDF></metadata><defs
     id="defs6"><clipPath
       id="clipPath18"
       clipPathUnits="userSpaceOnUse"><path
         id="path16"
         d="M 0,80.438 H 285.17 V 0 H 0 Z" /></clipPath><clipPath
       id="clipPath38"
       clipPathUnits="userSpaceOnUse"><path
         id="path36"
         d="m 201.081,80.437 c 3.442,-18.72 19.822,-32.905 39.533,-32.905 v 0 h 44.007 c 0.357,1.774 0.549,3.606 0.549,5.484 v 0 c 0,15.143 -12.277,27.421 -27.418,27.421 v 0 z" /></clipPath><linearGradient
       id="linearGradient52"
       spreadMethod="pad"
       gradientTransform="matrix(84.089844,0,0,-84.089844,201.08057,63.984375)"
       gradientUnits="userSpaceOnUse"
       y2="0"
       x2="1"
       y1="0"
       x1="0"><stop
         id="stop44"
         offset="0"
         style="stop-opacity:1;stop-color:#00a7e3" /><stop
         id="stop46"
         offset="0.00985222"
         style="stop-opacity:1;stop-color:#00a7e3" /><stop
         id="stop48"
         offset="0.26316777"
         style="stop-opacity:1;stop-color:#00a7e3" /><stop
         id="stop50"
         offset="1"
         style="stop-opacity:1;stop-color:#007ec4" /></linearGradient></defs><g
     transform="matrix(1.3333333,0,0,-1.3333333,-3.9999999e-4,107.25066)"
     id="g10"><g
       id="g12"><g
         clip-path="url(#clipPath18)"
         id="g14"><g
           transform="translate(158.772,71.9404)"
           id="g20"><path
             id="path22"
             style="fill:#20aa4d;fill-opacity:1;fill-rule:nonzero;stroke:none"
             d="m 0,0 -18.014,-39.031 h -1.832 V 8.496 h -25.593 v -80.432 h 21.725 c 5.7,0 10.882,3.315 13.275,8.496 L 7.579,-24.409 H 9.406 V -71.936 H 34.999 V 8.496 H 13.28 C 7.573,8.496 2.392,5.181 0,0" /></g><g
           transform="translate(62.7573,69.8652)"
           id="g24"><path
             id="path26"
             style="fill:#20aa4d;fill-opacity:1;fill-rule:nonzero;stroke:none"
             d="m 0,0 -10.661,-36.96 h -1.826 L -23.148,0 c -1.81,6.261 -7.539,10.573 -14.051,10.573 h -25.558 v -80.437 h 25.587 v 47.532 h 1.832 l 14.623,-47.532 h 18.281 l 14.623,47.532 h 1.827 V -69.864 H 39.608 V 10.573 H 14.051 C 7.539,10.573 1.809,6.261 0,0" /></g><g
           transform="translate(204.7378,43.875)"
           id="g28"><path
             id="path30"
             style="fill:#20aa4d;fill-opacity:1;fill-rule:nonzero;stroke:none"
             d="m 0,0 v -43.875 h 25.541 v 25.593 h 27.472 c 11.932,0 22.056,7.638 25.826,18.282 z" /></g></g></g><g
       id="g32"><g
         clip-path="url(#clipPath38)"
         id="g34"><g
           id="g40"><g
             id="g42"><path
               id="path54"
               style="fill:url(#linearGradient52);stroke:none"
               d="m 201.081,80.437 c 3.442,-18.72 19.822,-32.905 39.533,-32.905 v 0 h 44.007 c 0.357,1.774 0.549,3.606 0.549,5.484 v 0 c 0,15.143 -12.277,27.421 -27.418,27.421 v 0 z" /></g></g></g></g></g></svg>