<?xml version="1.0" encoding="UTF-8" standalone="no"?>
<svg
   xmlns:dc="http://purl.org/dc/elements/1.1/"
   xmlns:cc="http://creativecommons.org/ns#"
   xmlns:rdf="http://www.w3.org/1999/02/22-rdf-syntax-ns#"
   xmlns:svg="http://www.w3.org/2000/svg"
   xmlns="http://www.w3.org/2000/svg"
   viewBox="0 0 159.03827 51.595997"
   height="51.595997"
   width="159.03827"
   xml:space="preserve"
   id="svg2"
   version="1.1"><metadata
     id="metadata8"><rdf:RDF><cc:Work
         rdf:about=""><dc:format>image/svg+xml</dc:format><dc:type
           rdf:resource="http://purl.org/dc/dcmitype/StillImage" /></cc:Work></rdf:RDF></metadata><defs
     id="defs6"><clipPath
       id="clipPath22"
       clipPathUnits="userSpaceOnUse"><path
         id="path20"
         d="M 0,38.697 H 119.279 V 0 H 0 Z" /></clipPath></defs><g
     transform="matrix(1.3333333,0,0,-1.3333333,-1.3333333e-4,51.595999)"
     id="g10"><g
       transform="translate(48.0582,38.0286)"
       id="g12"><path
         id="path14"
         style="fill:#ffffff;fill-opacity:1;fill-rule:nonzero;stroke:none"
         d="M 0,0 -6.083,-37.385 H 3.65 L 9.734,0 Z" /></g><g
       id="g16"><g
         clip-path="url(#clipPath22)"
         id="g18"><g
           transform="translate(33.7871,38.0283)"
           id="g24"><path
             id="path26"
             style="fill:#ffffff;fill-opacity:1;fill-rule:nonzero;stroke:none"
             d="m 0,0 -9.279,-25.713 -1.098,5.537 0.001,-0.002 -3.275,16.811 c 0,0 -0.396,3.367 -4.618,3.367 h -15.338 l -0.18,-0.633 c 0,0 4.692,-0.975 10.18,-4.274 l 8.457,-32.478 H -5.01 L 10.476,0 Z" /></g><g
           transform="translate(99.6328,13.8681)"
           id="g28"><path
             id="path30"
             style="fill:#ffffff;fill-opacity:1;fill-rule:nonzero;stroke:none"
             d="M 0,0 5.114,13.99 7.991,0 Z m 10.71,-13.225 h 8.936 L 11.855,24.16 H 4.029 c -3.613,0 -4.493,-2.786 -4.493,-2.786 l -14.515,-34.599 h 10.145 l 2.029,5.553 H 9.568 Z" /></g><g
           transform="translate(85.415,29.038)"
           id="g32"><path
             id="path34"
             style="fill:#ffffff;fill-opacity:1;fill-rule:nonzero;stroke:none"
             d="m 0,0 1.389,8.029 c 0,0 -4.287,1.63 -8.754,1.63 -4.83,0 -16.3,-2.112 -16.3,-12.376 0,-9.659 13.462,-9.779 13.462,-14.85 0,-5.072 -12.074,-4.165 -16.059,-0.966 l -1.448,-8.393 c 0,0 4.346,-2.112 10.987,-2.112 6.641,0 16.662,3.44 16.662,12.799 0,9.719 -13.583,10.625 -13.583,14.85 0,4.227 9.479,3.684 13.644,1.389" /></g><g
           transform="translate(23.4111,17.8505)"
           id="g36"><path
             id="path38"
             style="fill:#f7a824;fill-opacity:1;fill-rule:nonzero;stroke:none"
             d="m 0,0 -3.275,16.811 c 0,0 -0.396,3.367 -4.618,3.367 h -15.338 l -0.18,-0.633 c 0,0 7.373,-1.528 14.446,-7.253 C -2.205,6.82 0,0 0,0" /></g></g></g></g></svg>