<?xml version="1.0" encoding="UTF-8" standalone="no"?>
<svg
   xmlns:dc="http://purl.org/dc/elements/1.1/"
   xmlns:cc="http://creativecommons.org/ns#"
   xmlns:rdf="http://www.w3.org/1999/02/22-rdf-syntax-ns#"
   xmlns:svg="http://www.w3.org/2000/svg"
   xmlns="http://www.w3.org/2000/svg"
   viewBox="0 0 301.85965 61.928829"
   height="61.928829"
   width="301.85965"
   xml:space="preserve"
   id="svg2"
   version="1.1"><metadata
     id="metadata8"><rdf:RDF><cc:Work
         rdf:about=""><dc:format>image/svg+xml</dc:format><dc:type
           rdf:resource="http://purl.org/dc/dcmitype/StillImage" /></cc:Work></rdf:RDF></metadata><defs
     id="defs6" /><g
     transform="matrix(1.3333333,0,0,-1.3333333,-0.96832999,63.248757)"
     id="g10"><g
       transform="scale(0.1)"
       id="g12"><path
         id="path14"
         style="fill:#1a8469;fill-opacity:1;fill-rule:nonzero;stroke:none"
         d="m 640.027,240.242 c 0,-61.773 41.575,-105.394 101.008,-105.394 42.449,0 75.242,19.906 90.465,55.918 6.734,15.515 9.078,32.789 9.078,51.527 H 745.133 V 229.41 h 80.805 c -3.219,-48.305 -36.008,-80.512 -84.903,-80.512 -53.285,0 -86.367,38.938 -86.367,91.344 0,51.531 33.957,89.59 86.367,90.469 35.129,0 61.774,-12.59 75.535,-44.5 h 14.93 c -14.637,40.984 -48.891,58.262 -90.172,58.262 -58.262,0 -101.301,-43.039 -101.301,-104.231" /><path
         id="path16"
         style="fill:#1a8469;fill-opacity:1;fill-rule:nonzero;stroke:none"
         d="M 875.418,351.789 V 190.18 c 0,-34.84 5.855,-52.7 35.719,-52.992 4.39,0 9.66,0.292 15.222,1.171 l -0.582,11.707 c -4.101,-0.582 -7.617,-0.875 -10.836,-0.875 -23.714,0 -25.175,14.93 -25.175,41.282 v 161.316 h -14.348" /><path
         id="path18"
         style="fill:#1a8469;fill-opacity:1;fill-rule:nonzero;stroke:none"
         d="m 1090.61,208.039 c 0,48.602 -36.6,72.606 -73.78,72.606 -37.185,0 -74.365,-23.715 -74.365,-72.606 0,-48.601 36.887,-73.191 74.075,-73.191 36.89,0 74.07,24.59 74.07,73.191 z m -134.094,0 c 0,40.402 30.156,60.02 60.314,59.727 29.86,-0.297 59.72,-19.618 59.72,-59.727 0,-40.109 -30.15,-60.605 -60.01,-60.605 -30.161,0 -60.024,20.496 -60.024,60.605" /><path
         id="path20"
         style="fill:#1a8469;fill-opacity:1;fill-rule:nonzero;stroke:none"
         d="m 1127.79,146.555 c 17.57,-7.61 37.18,-11.707 55.63,-11.707 40.4,-0.297 75.83,19.906 74.95,72.605 0,46.844 -31.04,73.485 -67.05,73.192 -16.1,0 -33.37,-5.27 -49.48,-16.977 v 87.828 h -14.05 z m 13.76,102.472 c 15.81,12.883 33.38,18.739 49.48,18.442 28.69,-0.582 52.4,-20.785 53.28,-60.016 0,-43.621 -27.52,-60.019 -60.01,-60.019 -13.76,0 -28.7,2.929 -42.75,8.199 v 93.394" /><path
         id="path22"
         style="fill:#1a8469;fill-opacity:1;fill-rule:nonzero;stroke:none"
         d="m 1393.92,162.66 c -0.88,-22.254 5.56,-30.742 29.57,-26.933 l -0.58,9.66 c -18.74,-2.344 -17.86,7.316 -17.86,24.301 v 64.406 c 0,35.133 -28.69,46.551 -59.14,46.551 -18.45,0 -37.18,-4.391 -50.36,-11.707 l 3.22,-11.715 c 12,7.027 28.98,10.836 45.38,10.836 22.55,0 47.72,-6.149 47.72,-33.672 v -24.594 c -16.39,7.027 -34.25,10.543 -51.82,10.543 -28.4,0 -55.34,-14.934 -55.34,-45.676 0,-26.933 25.48,-39.812 50.07,-39.812 23.42,0 48.01,7.316 59.14,27.812 z m -2.05,18.735 c -6.15,-24.301 -31.91,-34.547 -54.75,-34.547 -19.61,0 -38.64,7.32 -38.64,28.984 0,23.129 22.25,33.086 43.33,33.086 16.69,0.293 33.96,-2.93 50.06,-11.125 v -16.398" /><path
         id="path24"
         style="fill:#1a8469;fill-opacity:1;fill-rule:nonzero;stroke:none"
         d="M 1452.77,351.789 V 190.18 c 0,-34.84 5.86,-52.7 35.72,-52.992 4.39,0 9.66,0.292 15.22,1.171 l -0.58,11.707 c -4.1,-0.582 -7.61,-0.875 -10.84,-0.875 -23.71,0 -25.17,14.93 -25.17,41.282 v 161.316 h -14.35" /><path
         id="path26"
         style="fill:#1a8469;fill-opacity:1;fill-rule:nonzero;stroke:none"
         d="m 1675.14,170.051 16,-33.766 h 45.12 v 5.824 l -93.14,199.661 h -20.08 l -93.72,-199.661 v -5.824 h 45.41 l 15.71,33.766 z m -42.21,103.902 28.24,-67.23 h -56.47 z" /><path
         id="path28"
         style="fill:#1a8469;fill-opacity:1;fill-rule:nonzero;stroke:none"
         d="m 1881.2,210.504 c 23.29,11.351 36.39,34.055 36.39,59.957 0,36.09 -25.33,69.855 -71.89,69.855 -29.11,0.289 -57.93,0 -87.03,0 V 136.285 h 43.66 v 67.524 h 36.38 l 41.91,-67.524 h 46.57 v 6.16 z m -79.45,29.105 v 62.579 h 43.65 c 18.63,0 29.98,-13.68 29.98,-30.852 0.3,-17.465 -11.64,-31.727 -29.98,-31.727 h -43.65" /><path
         id="path30"
         style="fill:#1a8469;fill-opacity:1;fill-rule:nonzero;stroke:none"
         d="M 1992.68,302.188 V 136.285 h 42.2 v 165.903 h 54.14 v 37.835 h -150.77 v -37.835 h 54.43" /><path
         id="path32"
         style="fill:#1a8469;fill-opacity:1;fill-rule:nonzero;stroke:none"
         d="m 2106.48,196.535 c 0,-44.531 42.2,-64.613 82.95,-64.613 40.16,0.871 81.78,15.715 81.78,63.738 0,47.735 -36.96,57.336 -80.04,61.121 -21.24,2.328 -39,6.403 -39,24.449 0,15.719 17.18,25.028 34.64,25.028 17.46,0 34.64,-6.985 36.96,-23.57 h 40.75 c 0,45.695 -39.58,61.703 -77.71,61.703 -40.46,0 -77.42,-18.922 -77.42,-64.036 0,-42.199 37.25,-54.714 74.22,-57.917 19.5,-1.458 44.53,-3.493 44.53,-26.778 0,-21.246 -20.96,-25.609 -39,-25.609 -19.79,0 -40.17,7.855 -41.04,26.484 h -41.62" /><path
         id="path34"
         style="fill:#f0801a;fill-opacity:1;fill-rule:evenodd;stroke:none"
         d="m 388.793,435.414 53.641,9.477 -26.309,-52.606 z" /><path
         id="path36"
         style="fill:#f0801a;fill-opacity:1;fill-rule:evenodd;stroke:none"
         d="M 438.211,344.961 486.602,332.34 446.625,299.73 Z" /><path
         id="path38"
         style="fill:#f0801a;fill-opacity:1;fill-rule:evenodd;stroke:none"
         d="m 455.047,243.98 45.226,-31.562 -48.394,-14.727 z" /><path
         id="path40"
         style="fill:#f0801a;fill-opacity:1;fill-rule:evenodd;stroke:none"
         d="m 438.211,141.934 28.391,-35.743 -44.168,-3.168 z" /><path
         id="path42"
         style="fill:#f0801a;fill-opacity:1;fill-rule:evenodd;stroke:none"
         d="m 398.238,66.2109 13.696,-42.082 -42.086,11.582 z" /><path
         id="path44"
         style="fill:#f0801a;fill-opacity:1;fill-rule:evenodd;stroke:none"
         d="m 58.4844,422.793 c 16.8359,14.719 39.9765,23.137 55.7536,29.457 14.727,7.359 29.45,8.406 41.008,11.57 -12.613,-6.316 -29.418,-12.64 -42.062,-20 -12.61,-6.308 -25.2543,-13.668 -36.809,-24.179 -10.5273,-10.536 -17.8906,-18.938 -25.25,-35.77 -8.4219,-16.82 -16.8398,-39.969 -19.9766,-63.113 -3.1601,-22.082 0,-47.332 1.0547,-70.481 -8.4414,13.676 -21.0547,22.09 -24.19138,42.098 -2.11328,19.965 0,50.473 9.47658,72.566 8.3789,23.137 24.164,42.071 40.9961,57.852" /><path
         id="path46"
         style="fill:#f0801a;fill-opacity:1;fill-rule:evenodd;stroke:none"
         d="m 335.117,434.363 c -25.246,23.141 -75.726,41.028 -116.758,39.957 -14.726,0 -41.004,-6.289 -54.668,-8.406 15.778,1.063 44.172,4.215 57.836,3.156 14.723,-1.039 23.141,-1.039 41.028,-8.414 16.808,-8.406 42.062,-15.765 61.008,-36.812 18.921,-21.043 35.753,-54.699 47.335,-85.196 11.559,-30.527 19.973,-67.335 23.141,-97.835 3.141,-31.563 1.031,-70.454 -7.359,-100.985 15.781,27.363 31.531,82.063 32.613,113.621 1.027,32.582 -8.449,59.949 -22.113,89.399 -14.723,30.511 -37.864,69.429 -62.063,91.515" /><path
         id="path48"
         style="fill:#f0801a;fill-opacity:1;fill-rule:evenodd;stroke:none"
         d="m 330.922,42.0156 c 15.785,13.668 27.336,33.668 35.758,48.3946 8.41,13.6638 14.715,29.4448 17.886,42.0588 C 377.207,120.914 366.68,103.023 358.258,92.5195 349.848,81.9922 342.484,69.3789 331.98,60.9336 321.453,52.543 311.977,46.2109 296.195,42.0156 279.363,37.793 257.313,33.5938 237.309,34.6563 c -20.008,1.0546 -57.84,9.4726 -88.344,35.7539 7.363,-16.8321 42.058,-46.2813 59.953,-53.6485 17.859,-6.3047 45.227,-9.47654 66.25,-4.1953 21.027,4.1953 41.035,16.8359 55.754,29.4492" /><path
         id="path50"
         style="fill:#f0801a;fill-opacity:1;fill-rule:evenodd;stroke:none"
         d="m 84.793,194.527 c 6.3086,-27.336 17.863,-51.527 27.336,-69.425 8.422,-17.856 21.059,-33.6645 30.504,-44.1645 -6.305,14.7188 -17.895,34.7185 -23.137,51.5315 -10.535,36.808 -15.785,78.894 -15.785,118.871 1.055,22.086 4.223,45.226 12.644,67.312 9.473,23.133 24.165,39.985 38.891,55.762 14.746,15.762 42.082,18.934 61.031,25.238 -14.718,2.09 -41.027,2.09 -58.922,-7.367 -18.917,-9.469 -34.699,-16.828 -48.394,-36.808 -12.6094,-18.934 -22.086,-43.137 -27.336,-71.524 -5.25,-28.422 -2.1133,-63.121 3.168,-89.426" /><path
         id="path52"
         style="fill:#f0801a;fill-opacity:1;fill-rule:evenodd;stroke:none"
         d="m 324.621,314.453 c -10.531,21.027 -20.004,33.672 -36.808,54.692 -15.809,21.031 -52.618,29.445 -66.286,29.445 17.891,-7.36 47.336,-25.231 59.95,-44.184 12.64,-19.976 22.086,-39.953 29.476,-61.008 7.36,-21.031 12.61,-34.699 12.61,-58.89 -1.059,-23.145 -3.165,-56.817 -12.61,-79.957 -9.476,-24.168 -30.5,-43.113 -53.64,-55.7268 15.742,1.0625 44.164,11.5588 55.726,24.1988 11.582,12.618 20,28.387 25.246,49.422 4.199,21.055 6.305,49.446 4.199,72.59 -2.086,24.192 -7.367,47.34 -17.863,69.418" /><path
         id="path54"
         style="fill:#f0801a;fill-opacity:1;fill-rule:evenodd;stroke:none"
         d="m 177.355,148.246 c 9.477,-15.777 24.204,-31.555 34.704,-39.976 11.578,-8.3833 28.386,-10.5005 37.859,-11.5512 -8.418,7.3552 -24.199,9.4722 -32.617,17.8862 -8.383,7.36 -18.914,22.086 -25.227,31.532 -6.301,10.523 -12.605,30.5 -15.773,49.449 -2.113,18.949 -3.168,43.141 1.054,63.113 4.2,19.973 16.836,27.332 29.446,35.75 -15.778,-2.074 -33.668,-6.301 -42.086,-24.191 -9.469,-16.809 -11.555,-47.34 -9.469,-68.371 2.109,-21.028 11.582,-38.914 22.109,-53.641" /><path
         id="path56"
         style="fill:#f0801a;fill-opacity:1;fill-rule:evenodd;stroke:none"
         d="m 243.609,239.758 c 1.059,10.519 -2.109,24.195 -6.3,33.668 -3.168,9.469 -14.727,15.773 -24.2,22.082 8.418,-1.059 23.141,-3.133 30.5,-12.613 6.309,-9.469 15.782,-27.364 17.895,-41.032 3.168,-14.722 0,-28.394 -3.168,-41.004 -3.137,-11.578 -10.5,-20 -15.781,-30.5 -4.192,6.278 -8.414,12.614 -13.664,18.922 2.113,7.356 4.191,12.606 6.304,21.028 2.114,8.418 8.414,18.945 8.414,29.449" /></g></g></svg>