<svg 
 xmlns="http://www.w3.org/2000/svg"
 xmlns:xlink="http://www.w3.org/1999/xlink"
 width="40px" height="40px" fill="#e50d19">
<path fill-rule="evenodd" 
 d="M20.000,40.000 C8.954,40.000 -0.000,31.046 -0.000,20.000 C-0.000,8.954 8.954,-0.000 20.000,-0.000 C31.046,-0.000 40.000,8.954 40.000,20.000 C40.000,31.046 31.046,40.000 20.000,40.000 ZM20.000,2.000 C10.059,2.000 2.000,10.058 2.000,19.999 C2.000,29.940 10.059,37.999 20.000,37.999 C29.941,37.999 38.000,29.940 38.000,19.999 C38.000,10.058 29.941,2.000 20.000,2.000 ZM16.000,28.999 L25.000,19.999 C25.000,19.999 15.875,10.999 16.000,10.999 C16.125,10.999 18.000,9.999 18.000,9.999 L28.000,19.999 L18.000,29.999 L16.000,28.999 Z"/>
</svg>