<?xml version="1.0" standalone="no"?>
<!DOCTYPE svg PUBLIC "-//W3C//DTD SVG 1.1//EN" "http://www.w3.org/Graphics/SVG/1.1/DTD/svg11.dtd" >
<svg xmlns="http://www.w3.org/2000/svg" xmlns:xlink="http://www.w3.org/1999/xlink" version="1.1">
<metadata></metadata>
<defs>
<font id="fenomensans-lightuploadedfile" horiz-adv-x="1136" >
<font-face units-per-em="2048" ascent="1606" descent="-442" />
<missing-glyph horiz-adv-x="614" />
<glyph horiz-adv-x="0" />
<glyph unicode="&#xd;" horiz-adv-x="681" />
<glyph unicode=" "  horiz-adv-x="614" />
<glyph unicode="&#x09;" horiz-adv-x="614" />
<glyph unicode="&#xa0;" horiz-adv-x="614" />
<glyph unicode="!" horiz-adv-x="471" d="M293 299h-115l-8 1016h125zM235.5 180q40.5 0 69.5 -27.5t29 -66.5t-29 -66.5t-69.5 -27.5t-69.5 27.5t-29 66.5t29 66.5t69.5 27.5z" />
<glyph unicode="&#x22;" horiz-adv-x="532" d="M172 1016h-70l-8 450h92zM424 1016h-68l-10 450h94z" />
<glyph unicode="#" horiz-adv-x="1081" d="M782 682l-55 -276h227v-82h-245l-66 -324h-90l65 324h-249l-66 -324h-90l66 324h-207v82h225l55 276h-225v82h244l65 321h90l-65 -321h250l65 321h90l-65 -321h209v-82h-228zM694 682h-250l-57 -276h250z" />
<glyph unicode="$" horiz-adv-x="983" d="M920 362q0 -143 -106.5 -250.5t-266.5 -129.5v-228h-115v226q-127 10 -228.5 72.5t-150.5 152.5l82 84q53 -86 143.5 -140.5t194.5 -54.5q133 0 220 75t87 181q0 180 -202 242q-23 8 -116 34.5t-151 49.5q-100 39 -155.5 121t-55.5 186q0 139 103.5 237.5t263.5 114.5 v226h117v-228q184 -20 297 -151l-74 -95q-106 133 -283 134q-125 0 -205.5 -68t-80.5 -168q0 -150 159 -207q41 -14 122 -35.5t130 -37.5q125 -41 198 -131.5t73 -211.5z" />
<glyph unicode="%" horiz-adv-x="1654" d="M387 1331q141 0 234.5 -102.5t93.5 -262t-93.5 -263t-234.5 -103.5q-145 0 -238.5 103.5t-93.5 263t93.5 262t238.5 102.5zM412 0h-119l954 1315h119zM387 1237q-104 0 -169.5 -75t-65.5 -193q0 -121 65.5 -197t169.5 -76q102 0 166.5 77t64.5 195.5t-64.5 193.5 t-166.5 75zM1272 709q141 0 235.5 -102.5t94.5 -262.5t-94.5 -263.5t-235.5 -103.5q-143 0 -237.5 103.5t-94.5 263.5t94.5 262.5t237.5 102.5zM1271.5 614q-102.5 0 -168 -74.5t-65.5 -193.5q0 -121 65.5 -196.5t168 -75.5t167 75.5t64.5 196.5q0 119 -64.5 193.5 t-167 74.5z" />
<glyph unicode="&#x26;" horiz-adv-x="1284" d="M571 1343q133 0 224.5 -79.5t91.5 -194.5q0 -223 -309 -319l358 -406q57 90 86 205q25 88 27 158l118 -2q-6 -82 -28 -177q-45 -160 -125 -268l225 -260h-152l-153 174q-176 -197 -416 -197q-217 0 -338 128t-121 280q0 150 87 255t231 157q-121 139 -123 266 q-2 113 87 196.5t230 83.5zM573 1247q-86 0 -142 -54t-52 -130q2 -59 29.5 -107.5t93.5 -119.5q139 39 200.5 94t61.5 139q0 80 -55.5 129t-135.5 49zM850 254l-397 459q-115 -39 -186.5 -122t-71.5 -200q0 -113 83.5 -205t249.5 -92q187 0 322 160z" />
<glyph unicode="'" horiz-adv-x="280" d="M172 1016h-70l-8 450h92z" />
<glyph unicode="(" horiz-adv-x="522" d="M332 1513h102q-250 -432 -250 -888.5t250 -888.5h-102q-258 430 -258 888.5t258 888.5z" />
<glyph unicode=")" horiz-adv-x="522" d="M88 1513h102q258 -426 258.5 -888.5t-258.5 -888.5h-102q250 432 250 888.5t-250 888.5z" />
<glyph unicode="*" horiz-adv-x="819" d="M459 1350l291 84l22 -74l-285 -103l172 -251l-63 -45l-186 237l-185 -237l-63 45l170 251l-285 103l25 74l288 -84l11 301h78z" />
<glyph unicode="+" horiz-adv-x="1110" d="M608 553h402v-107h-402v-411h-112v411h-400v107h400v410h112v-410z" />
<glyph unicode="," horiz-adv-x="430" d="M205 -229h-96l75 479h127z" />
<glyph unicode="-" horiz-adv-x="559" d="M469 571v-102h-379v102h379z" />
<glyph unicode="." horiz-adv-x="430" d="M211 180q41 0 68.5 -27.5t27.5 -66.5t-28.5 -66.5t-67.5 -27.5q-41 0 -70.5 27.5t-29.5 66.5t29.5 66.5t70.5 27.5z" />
<glyph unicode="/" horiz-adv-x="753" d="M182 0h-94l485 1407h93z" />
<glyph unicode="0" d="M567 1341q213 0 348.5 -186t135.5 -493q0 -309 -135.5 -495.5t-348.5 -186.5q-211 0 -346 186t-135 496q0 307 135 493t346 186zM567 1221q-152 0 -249 -151.5t-97 -407.5q0 -258 97.5 -410t248.5 -152q154 0 252.5 151.5t98.5 410.5q0 256 -98.5 407.5t-252.5 151.5z " />
<glyph unicode="1" d="M713 0h-138v1200h-360l35 121h463v-1321z" />
<glyph unicode="2" d="M563 1346q176 0 296 -111t120 -272q0 -133 -88 -248q-57 -82 -168 -193l-395 -401h655v-121h-823l-8 125l460 461q119 123 174 207q55 78 56 174q-2 106 -82 181t-201 75q-104 0 -184 -61.5t-111 -162.5l-110 54q39 127 150.5 210t258.5 83z" />
<glyph unicode="3" d="M567 1343q168 0 281 -101t113 -241q0 -207 -187 -290q100 -35 162.5 -128.5t62.5 -215.5q0 -168 -123.5 -279t-310.5 -111q-162 0 -272.5 83t-157.5 208l111 60q41 -104 122 -167t191 -63q133 0 217 76t84 203q0 115 -75.5 190.5t-190.5 79.5h-109v113q74 0 109 2 q106 10 168.5 71.5t62.5 159.5q0 96 -74.5 163t-185.5 67q-106 0 -184 -60.5t-107 -156.5l-110 53q37 123 146.5 203.5t256.5 80.5z" />
<glyph unicode="4" d="M805 475h196v-121h-196v-354h-133v354h-592l-12 127l542 848h195v-854zM197 475h475v744z" />
<glyph unicode="5" d="M948 1204h-565l-53 -446q92 86 241 86q180 0 304 -122t124 -304q0 -180 -129 -311.5t-311 -131.5q-141 0 -247.5 64.5t-166.5 171.5l101 72q104 -186 305 -187q131 0 222 91.5t91 226.5t-91 224t-228 89q-158 0 -250 -121l-94 53l75 662h672v-117z" />
<glyph unicode="6" d="M399 788l2 -2q70 74 203 74q180 0 309 -126t129 -310t-134 -315.5t-324 -131.5q-193 0 -325 130.5t-132 316.5q0 172 137 385l330 512h166zM586 745q-141 0 -232.5 -94t-91.5 -229q0 -137 93.5 -232.5t230.5 -95.5q135 0 229 96.5t94 231.5t-93 229t-230 94z" />
<glyph unicode="7" horiz-adv-x="1124" d="M999 1212l-548 -1226h-152l553 1214h-676v121h807z" />
<glyph unicode="8" d="M569.5 1348q155.5 0 264 -98.5t108.5 -239.5q0 -92 -49 -165t-123 -108q109 -37 175.5 -131t66.5 -221q0 -174 -127 -291t-315.5 -117t-316.5 117t-128 291q0 127 66.5 221t175.5 131q-76 33 -123 105.5t-47 167.5q0 141 108.5 239.5t264 98.5zM569.5 1235 q-100.5 0 -171 -65.5t-70.5 -159.5q0 -96 66.5 -163t175 -67t175 66.5t66.5 163.5q0 94 -70.5 159.5t-171 65.5zM569.5 680q-135.5 0 -222.5 -86t-87 -209q0 -121 89 -207t220 -86t220.5 86t89.5 207q0 123 -87 209t-222.5 86z" />
<glyph unicode="9" d="M552.5 1343q192.5 0 324 -130t131.5 -316q0 -174 -136 -385l-329 -512h-168l362 532l-2 3q-74 -74 -203 -74q-182 0 -311 126t-129 310t134 315t326.5 131zM551 1227q-137 0 -230.5 -95.5t-93.5 -232.5q0 -135 93.5 -229.5t230.5 -94.5q141 0 232 94.5t91 229.5 t-94 231.5t-229 96.5z" />
<glyph unicode=":" horiz-adv-x="397" d="M199 1008q41 0 69.5 -28t28.5 -67t-28.5 -66.5t-69.5 -27.5t-70 27.5t-29 66.5t29 67t70 28zM199 180q41 0 69.5 -27.5t28.5 -66.5t-28.5 -66.5t-69.5 -27.5t-70 27.5t-29 66.5t29 66.5t70 27.5z" />
<glyph unicode=";" horiz-adv-x="497" d="M270 1008q41 0 70 -28t29 -67t-29 -66.5t-70 -27.5t-69.5 27.5t-28.5 66.5t28.5 67t69.5 28zM227 -231h-98l78 481h127z" />
<glyph unicode="&#x3c;" horiz-adv-x="1155" d="M1026 848l-758 -348l758 -336v-109l-876 383v123l876 397v-110z" />
<glyph unicode="=" horiz-adv-x="1062" d="M958 606h-856v94h856v-94zM958 297h-856v94h856v-94z" />
<glyph unicode="&#x3e;" horiz-adv-x="1126" d="M1001 561v-123l-874 -383v109l756 336l-756 348v110z" />
<glyph unicode="?" horiz-adv-x="772" d="M250 1337q190 0 320 -119.5t130 -295.5q0 -160 -103 -272.5t-280 -135.5l-2 -215h-114v315q10 -2 35 -2q150 6 239.5 92.5t89.5 215.5q0 133 -95 217t-239 84q-68 0 -133 -21v113q74 24 152 24zM258 180q41 0 68.5 -27.5t27.5 -66.5t-28.5 -66.5t-67.5 -27.5 q-41 0 -69.5 27.5t-28.5 66.5t28.5 66.5t69.5 27.5z" />
<glyph unicode="@" horiz-adv-x="1394" d="M698.5 1120q266.5 0 451.5 -184t185 -455q0 -172 -80 -315h-407l24 139q-102 -152 -264 -151q-104 0 -184 85t-80 232q0 166 107.5 272.5t240.5 106.5q188 0 244 -180l27 143h96l-111 -563h254q47 104 47 231q0 238 -160.5 398.5t-390.5 160.5q-231 0 -392 -160.5 t-161 -398t161 -397.5t392 -160q219 0 375 144l45 -68q-178 -158 -420 -158q-266 0 -452.5 184.5t-186.5 455t186.5 454.5t453 184zM711 760q-96 0 -175 -82t-79 -203q0 -104 54 -164.5t124 -60.5q160 0 244 192l18 113q-22 205 -186 205z" />
<glyph unicode="A" horiz-adv-x="1210" d="M899 406h-582l-149 -406h-150l510 1323h181l481 -1323h-148zM858 526l-242 682h-4l-250 -682h496z" />
<glyph unicode="B" horiz-adv-x="1122" d="M199 1315h407q147 0 249.5 -96.5t102.5 -239.5q0 -111 -64.5 -192.5t-154.5 -104.5q106 -10 189.5 -104.5t83.5 -223.5q0 -150 -103.5 -252t-257.5 -102h-452v1315zM336 1202v-471h229q106 0 183 68.5t77 173.5q0 98 -70.5 163.5t-166.5 65.5h-252zM336 618v-505h278 q104 0 179 69.5t75 177.5q0 113 -80.5 185.5t-216.5 72.5h-235z" />
<glyph unicode="C" horiz-adv-x="1259" d="M778 1337q137 0 248 -49t180 -123l-78 -96q-137 147 -350 148q-236 0 -387 -155t-151 -402.5t146 -404.5t378 -157q236 0 389 178l78 -94q-178 -205 -479 -205q-283 0 -469.5 190.5t-186.5 491.5q0 299 192.5 488.5t489.5 189.5z" />
<glyph unicode="D" horiz-adv-x="1327" d="M199 1315h364q295 0 481.5 -179.5t186.5 -476.5q0 -299 -188.5 -479t-483.5 -180h-360v1315zM336 1194v-1073h223q229 0 380 146.5t151 392t-147.5 390t-377.5 144.5h-229z" />
<glyph unicode="E" horiz-adv-x="958" d="M858 1194h-522v-457h522v-121h-522v-495h522v-121h-659v1315h659v-121z" />
<glyph unicode="F" horiz-adv-x="944" d="M858 1194h-522v-457h522v-121h-522v-616h-137v1315h659v-121z" />
<glyph unicode="G" horiz-adv-x="1490" d="M774 1337q147 0 274.5 -58t208.5 -151l-88 -88q-154 176 -395 177q-231 0 -383.5 -156t-152.5 -397q0 -248 149.5 -407t376.5 -159q213 0 343 136.5t130 318.5q0 25 -2 37h-463v121h596q8 -66 8 -119q0 -250 -169 -432.5t-443 -182.5q-287 0 -477.5 195t-190.5 487 q0 291 194.5 484.5t483.5 193.5z" />
<glyph unicode="H" horiz-adv-x="1368" d="M1169 0h-139v621h-694v-621h-137v1315h137v-572h694v572h139v-1315z" />
<glyph unicode="I" horiz-adv-x="534" d="M336 0h-137v1315h137v-1315z" />
<glyph unicode="J" horiz-adv-x="776" d="M580 1315v-996q0 -164 -82 -253t-224 -89q-94 0 -160.5 41t-97.5 105l93 80q51 -100 159 -101q80 0 126 55.5t46 157.5v1000h140z" />
<glyph unicode="K" horiz-adv-x="1171" d="M336 0h-137v1315h137v-1315zM518 670l633 -670h-186l-605 666l580 649h174z" />
<glyph unicode="L" horiz-adv-x="800" d="M336 121h444v-121h-581v1315h137v-1194z" />
<glyph unicode="M" horiz-adv-x="1712" d="M1599 0h-137l-102 1087q-4 47 -2 80h-2l-441 -1155h-131l-438 1159h-2q0 -33 -4 -81l-94 -1090h-133l127 1323h182l428 -1128h6l432 1128h178z" />
<glyph unicode="N" horiz-adv-x="1449" d="M1253 -8h-178l-756 1184l-2 -2q12 -61 13 -138v-1036h-131v1323h182l749 -1180h3q-12 70 -13 156v1016h133v-1323z" />
<glyph unicode="O" horiz-adv-x="1538" d="M768 1339q285 0 478.5 -191.5t193.5 -490.5t-193.5 -490.5t-478.5 -191.5t-478.5 191.5t-193.5 490.5t193.5 490.5t478.5 191.5zM768 1217q-225 0 -377.5 -157t-152.5 -402.5t152.5 -402.5t377.5 -157q227 0 379.5 157t152.5 402.5t-152.5 402.5t-379.5 157z" />
<glyph unicode="P" horiz-adv-x="1028" d="M199 1315h374q168 0 281 -106.5t113 -266.5q0 -162 -113 -269.5t-281 -107.5h-237v-565h-137v1315zM336 1198v-518h219q115 0 192.5 73.5t77.5 188.5q0 113 -77.5 184.5t-190.5 71.5h-221z" />
<glyph unicode="Q" horiz-adv-x="1605" d="M1321 -47l-125 141q-174 -119 -393 -119q-285 0 -478.5 191.5t-193.5 490.5t193.5 490.5t478 191.5t478.5 -191.5t194 -490.5q0 -293 -187 -483l197 -221h-164zM803 98q174 0 305 95l-340 382h162l270 -303q135 158 135 385q0 246 -152.5 403t-379.5 157 q-225 0 -378 -157t-153 -402.5t153 -402.5t378 -157z" />
<glyph unicode="R" horiz-adv-x="1130" d="M883 0l-359 575h-22h-166v-575h-137v1315h391q166 0 275.5 -103.5t109.5 -257.5q0 -137 -85 -238.5t-224 -121.5l381 -594h-164zM336 696h229q113 0 191 70t78 180.5t-77 179t-190 68.5h-231v-498z" />
<glyph unicode="S" horiz-adv-x="1083" d="M580 1337q221 0 346 -161l-88 -86q-90 129 -260 129q-113 0 -187 -60.5t-74 -159.5q0 -147 154 -217q35 -16 106.5 -38.5t112.5 -38.5q258 -102 258 -359q0 -158 -118.5 -263.5t-294.5 -105.5q-137 0 -246 62.5t-164 161.5l90 84q47 -84 129 -136.5t188 -52.5 q123 0 201 70t78 176q0 88 -47 146.5t-150 99.5q-35 14 -112.5 40.5t-124.5 49.5q-197 98 -197 317q0 150 113 246t287 96z" />
<glyph unicode="T" horiz-adv-x="808" d="M788 1194h-315v-1194h-137v1194h-313v121h765v-121z" />
<glyph unicode="U" horiz-adv-x="1298" d="M1128 1315v-889q0 -195 -134 -322t-345 -127t-345 127t-134 322v889h137v-883q0 -143 95.5 -236.5t246.5 -93.5q150 0 246 94.5t96 235.5v883h137z" />
<glyph unicode="V" horiz-adv-x="1058" d="M623 -8h-191l-422 1323h154l338 -1102l24 -74h4q14 39 23 74l342 1102h154z" />
<glyph unicode="W" horiz-adv-x="1759" d="M1354 -8h-191l-282 1143h-2l-332 -1143h-191l-346 1323h152l272 -1088l19 -77h4q10 45 20 77l320 1088h172l272 -1088q2 -8 8 -34.5t11 -42.5h2l22 77l315 1088h150z" />
<glyph unicode="X" horiz-adv-x="1210" d="M719 678l444 -678h-168l-356 547q-10 14 -27 43q-8 -12 -26 -41l-371 -549h-168l459 678l-414 637h168l328 -514q16 -29 26 -43q4 8 13.5 21.5t13.5 19.5l342 516h166z" />
<glyph unicode="Y" horiz-adv-x="1085" d="M608 561v-561h-137v561l-442 754h155l332 -561q12 -23 27 -47q12 23 26 47l332 561h158z" />
<glyph unicode="Z" horiz-adv-x="1128" d="M1008 1206l-750 -1085h784v-121h-956v109l752 1085h-715v121h885v-109z" />
<glyph unicode="[" horiz-adv-x="649" d="M582 1423h-312v-1595h312v-94h-422v1784h422v-95z" />
<glyph unicode="\" horiz-adv-x="768" d="M666 0h-93l-485 1407h94z" />
<glyph unicode="]" horiz-adv-x="649" d="M489 -266h-419v94h309v1595h-309v95h419v-1784z" />
<glyph unicode="^" horiz-adv-x="802" d="M752 657l-95 -2l-249 545l-263 -545h-94l320 660h73z" />
<glyph unicode="_" horiz-adv-x="819" d="M819 -160h-819v92h819v-92z" />
<glyph unicode="`" horiz-adv-x="448" d="M424 1147h-119l-278 260h159z" />
<glyph unicode="a" horiz-adv-x="1325" d="M612 1016q139 0 242.5 -64.5t149.5 -165.5q0 2 -3.5 40t-3.5 57v110h131v-993h-131v109l7 98q-47 -100 -149.5 -165t-242.5 -65q-223 0 -364.5 151t-141.5 370q0 217 141.5 367.5t364.5 150.5zM621 897q-158 0 -269.5 -115.5t-111.5 -283.5t111.5 -285t269.5 -117 q168 0 274 115t106 287q0 168 -106 283.5t-274 115.5z" />
<glyph unicode="b" horiz-adv-x="1325" d="M332 1407v-522q0 -14 -1 -29.5t-3 -36t-2 -31.5q43 98 146 163t243 65q221 0 363.5 -150.5t142.5 -367.5q0 -219 -142.5 -370t-363.5 -151q-139 0 -242.5 64.5t-150.5 165.5l6 -98v-109h-131v1407h135zM705 897q-168 0 -273.5 -114.5t-105.5 -284.5q0 -172 105.5 -287 t273.5 -115q160 0 270 117t110 285t-110 283.5t-270 115.5z" />
<glyph unicode="c" horiz-adv-x="1026" d="M621 1016q215 0 352 -154l-80 -88q-100 123 -272 123q-166 0 -272.5 -113.5t-106.5 -285.5t107.5 -287t271.5 -115q168 0 274 119l84 -82q-139 -156 -356 -156q-229 0 -373 151t-144 370t143 368.5t372 149.5z" />
<glyph unicode="d" horiz-adv-x="1325" d="M1128 0h-131v109l7 98q-47 -100 -149.5 -165t-242.5 -65q-223 0 -364.5 151t-141.5 370q0 217 141.5 367.5t364.5 150.5q139 0 242.5 -64.5t146.5 -163.5q-6 49 -6 97v522h133v-1407zM621 897q-158 0 -269.5 -115.5t-111.5 -283.5t111.5 -285t269.5 -117q168 0 274 115 t106 287q0 168 -106 283.5t-274 115.5z" />
<glyph unicode="e" horiz-adv-x="1175" d="M602 1018q199 0 333 -139.5t134 -356.5q0 -39 -2 -69h-819q6 -150 109.5 -253.5t256.5 -103.5q180 0 308 142l84 -80q-152 -180 -396 -181q-221 0 -362.5 151t-141.5 370t139.5 369.5t356.5 150.5zM602 899q-150 0 -247 -97t-107 -233h686q-2 143 -97.5 236.5 t-234.5 93.5z" />
<glyph unicode="f" horiz-adv-x="628" d="M530 1415q113 0 189 -51l-43 -107q-55 39 -123 39q-96 0 -151.5 -58t-55.5 -171v-74h244v-114h-234v-879h-135v879h-155v114h155v90q0 166 86 249t223 83z" />
<glyph unicode="g" horiz-adv-x="1277" d="M588 1016q131 0 226 -59.5t142 -157.5q0 2 -3 40t-3 56v98h131v-878q0 -246 -133 -375t-362 -129q-154 0 -263.5 71.5t-170.5 190.5l98 66q106 -211 332 -211q166 0 265 91t99 275v94v43q-49 -90 -143 -145t-221 -55q-207 0 -341.5 140t-134.5 351t134.5 352.5 t347.5 141.5zM596 897q-152 0 -254 -108.5t-102 -266t101 -265t255 -107.5q156 0 257 106t101 266q0 158 -101 266.5t-257 108.5z" />
<glyph unicode="h" horiz-adv-x="1210" d="M332 995v-141q43 70 126 116t187 46q172 0 279.5 -91t107.5 -263v-662h-133v627q0 135 -81 202.5t-195 67.5q-117 0 -204 -77t-87 -187v-633h-135v1407h135v-412z" />
<glyph unicode="i" horiz-adv-x="546" d="M274 1370q35 0 60.5 -24.5t25.5 -61.5t-25.5 -61.5t-60.5 -24.5q-37 0 -61.5 24.5t-24.5 61.5t24.5 61.5t61.5 24.5zM342 0h-135v993h135v-993z" />
<glyph unicode="j" horiz-adv-x="546" d="M274 1370q35 0 60.5 -24.5t25.5 -61.5t-25.5 -61.5t-60.5 -24.5q-37 0 -61.5 24.5t-24.5 61.5t24.5 61.5t61.5 24.5zM342 -389h-135v1382h135v-1382z" />
<glyph unicode="k" horiz-adv-x="1105" d="M332 0h-135v1407h135v-1407zM569 539l478 -539h-173l-466 541l426 452h174z" />
<glyph unicode="l" horiz-adv-x="526" d="M332 0h-135v1407h135v-1407z" />
<glyph unicode="m" horiz-adv-x="1912" d="M1348 1016q172 0 279.5 -91t107.5 -263v-662h-133v627q0 135 -81 202.5t-196 67.5q-117 0 -205 -77t-88 -187v-633h-133v627q0 135 -81 202.5t-195 67.5q-117 0 -204 -77t-87 -187v-633h-135v993h129v-16v-127q45 72 130 119t197 47q260 0 342 -203q37 82 132.5 142.5 t220.5 60.5z" />
<glyph unicode="n" horiz-adv-x="1210" d="M645 1016q172 0 279.5 -91t107.5 -263v-662h-133v627q0 135 -81 202.5t-195 67.5q-117 0 -204 -77t-87 -187v-633h-135v993h129v-12v-131q45 72 129 119t190 47z" />
<glyph unicode="o" horiz-adv-x="1222" d="M612.5 1018q221.5 0 363.5 -151.5t142 -368.5q0 -215 -142 -369t-363.5 -154t-364 154t-142.5 369q0 217 142.5 368.5t364 151.5zM612 899q-162 0 -266 -115.5t-104 -285.5q0 -172 104.5 -287t265.5 -115q160 0 265.5 115t105.5 287q0 170 -105.5 285.5t-265.5 115.5z " />
<glyph unicode="p" horiz-adv-x="1325" d="M715 1016q221 0 363.5 -150.5t142.5 -367.5q0 -219 -142.5 -370t-363.5 -151q-139 0 -242.5 64.5t-146.5 163.5q0 -2 3 -40t3 -56v-498h-135v1382h131v-108q0 -4 -6 -97q47 98 151.5 163t241.5 65zM705 897q-168 0 -273.5 -114.5t-105.5 -284.5t105.5 -286t273.5 -116 q160 0 270 117t110 285t-110 283.5t-270 115.5z" />
<glyph unicode="q" horiz-adv-x="1306" d="M612 1016q137 0 240.5 -64.5t151.5 -163.5q-6 92 -7 97v108h131v-1382h-133v498q0 47 6 96q-43 -98 -146 -163t-243 -65q-223 0 -364.5 151t-141.5 370q0 217 141.5 367.5t364.5 150.5zM621 897q-158 0 -269.5 -115.5t-111.5 -283.5t111.5 -285t269.5 -117q168 0 274 116 t106 286t-106 284.5t-274 114.5z" />
<glyph unicode="r" horiz-adv-x="722" d="M631 1016q37 0 71 -6l-4 -129q-33 8 -80 8q-117 0 -201.5 -74t-84.5 -190v-625h-135v993h129v-18v-121q45 70 125 116t180 46z" />
<glyph unicode="s" horiz-adv-x="907" d="M477 1018q180 0 279 -103l-70 -92q-82 78 -205 78q-84 0 -137 -41t-53 -106q0 -117 160 -168l106 -35q229 -78 229 -277q0 -125 -96 -212t-246 -87q-217 0 -323 142l69 92q98 -115 252 -115q86 -2 147.5 48.5t61.5 127.5q0 129 -162 179l-118 38q-215 70 -215 261 q0 117 92 193.5t229 76.5z" />
<glyph unicode="t" horiz-adv-x="647" d="M356 993h234v-114h-234v-879h-135v879h-155v114h155v264h135v-264z" />
<glyph unicode="u" horiz-adv-x="1181" d="M1006 993v-620q0 -190 -120 -294t-294 -104t-294 103.5t-120 294.5v620h133v-616q0 -139 81 -211t200 -72t198.5 72t79.5 211v616h136z" />
<glyph unicode="v" horiz-adv-x="1046" d="M602 -12h-164l-381 1005h150l297 -819q2 -6 8 -22.5t10 -28.5h2l17 51l299 819h149z" />
<glyph unicode="w" horiz-adv-x="1685" d="M1294 -12h-176l-274 854l-279 -854h-172l-336 1005h150l256 -829q2 -6 14 -49h2l17 49l268 829h158l266 -829q2 -6 6 -16.5t6 -18.5t4 -14h2q2 6 5 14t6.5 18.5l5.5 16.5l256 829h149z" />
<glyph unicode="x" horiz-adv-x="1040" d="M623 514l356 -514h-162l-258 383q-6 10 -18.5 29.5t-14.5 25.5l-34 -55l-273 -383h-158l369 508l-342 485h160l244 -358q25 -41 32 -57l35 55l256 360h162z" />
<glyph unicode="y" horiz-adv-x="1042" d="M406 -389h-142l187 424l-404 958h150l299 -729q10 -23 24 -76h2q4 14 25 76l299 729h149z" />
<glyph unicode="z" horiz-adv-x="944" d="M844 899l-502 -678q-29 -41 -84 -104h606v-117h-776l-2 94l502 680q33 45 82 105h-543v114h713z" />
<glyph unicode="{" horiz-adv-x="714" d="M645 1423h-67q-100 0 -160 -67.5t-60 -181.5v-289q0 -221 -194 -258q195 -37 194 -258v-291q0 -115 59.5 -182.5t160.5 -67.5h67v-94h-98q-135 0 -217 89t-82 230v328q0 172 -185 192v107q184 16 185 190v328q0 141 82 230.5t217 89.5h98v-95z" />
<glyph unicode="|" horiz-adv-x="483" d="M293 -412h-107v1819h107v-1819z" />
<glyph unicode="}" horiz-adv-x="714" d="M70 1518h98q133 0 216 -89.5t83 -230.5v-328q0 -174 182 -190v-107q-182 -20 -182 -192v-328q0 -141 -83 -230t-216 -89h-98v94h67q98 0 158.5 67.5t60.5 182.5v291q0 221 195 258q-195 37 -195 258v289q0 115 -60 182t-159 67h-67v95z" />
<glyph unicode="~" horiz-adv-x="1038" d="M301 659q96 0 225 -81.5t199 -81.5q74 0 120 42t62 107l88 -27q-14 -100 -87.5 -165.5t-164.5 -65.5q-96 0 -225 82t-199 82q-145 0 -184 -158l-88 25q12 104 87 172.5t167 68.5z" />
<glyph unicode="&#xa2;" horiz-adv-x="1175" d="M928 219l86 -84q-143 -158 -357 -158h-34l79 -81l-14 -115l-102 104l12 95q-207 20 -333 166.5t-126 351.5q0 201 123 346t324 168v200h116v-198q182 -16 306 -154l-82 -88q-98 125 -273 125q-164 0 -270.5 -113.5t-106.5 -285.5t108 -287t271 -115q167 0 273 123z" />
<glyph unicode="&#xa3;" horiz-adv-x="1060" d="M397 115h576v-115h-893v115h174v518h-170v100h170v191q0 182 126 297.5t306 115.5q209 0 338 -149l-72 -90q-92 123 -262 123q-125 0 -209 -86t-84 -236v-166h410v-100h-410v-518z" />
<glyph unicode="&#xa5;" horiz-adv-x="1234" d="M684 598v-37h473v-96h-473v-465h-137v465h-475v96h475v33l-84 137h-391v96h329l-301 488h160l358 -596l359 596h156l-306 -488h330v-96h-389z" />
<glyph unicode="&#xa8;" horiz-adv-x="624" d="M162 1372q35 0 59.5 -23.5t24.5 -58.5q0 -33 -24.5 -56.5t-59.5 -23.5q-37 0 -60.5 22.5t-23.5 57.5t23.5 58.5t60.5 23.5zM465 1372q35 0 59.5 -24.5t24.5 -57.5t-24.5 -56.5t-59.5 -23.5q-37 0 -61.5 22.5t-24.5 57.5t24.5 58.5t61.5 23.5z" />
<glyph unicode="&#xa9;" horiz-adv-x="1392" d="M696 1296q264 0 450.5 -186t186.5 -451q0 -262 -186 -449t-451 -187q-262 0 -449.5 187t-187.5 449q0 264 187.5 450.5t449.5 186.5zM696.5 1217q-227.5 0 -388.5 -163t-161 -394.5t161 -393.5t388.5 -162t389 162t161.5 393.5t-161.5 394.5t-389 163zM725 1030 q162 0 258 -117l-59 -67q-72 90 -191 90q-115 0 -190.5 -77t-75.5 -195q0 -117 77 -194t187 -77q119 0 197 92l59 -69q-96 -117 -264 -117q-152 0 -259.5 103.5t-107.5 261.5q0 160 107.5 263t261.5 103z" />
<glyph unicode="&#xab;" horiz-adv-x="729" d="M164 485l209 -311h-105l-217 311l217 312h105zM467 485l211 -311h-105l-217 311l217 312h105z" />
<glyph unicode="&#xad;" horiz-adv-x="559" d="M469 571v-102h-379v102h379z" />
<glyph unicode="&#xae;" horiz-adv-x="1392" d="M696 1296q264 0 450.5 -186t186.5 -451q0 -262 -186 -449t-451 -187q-262 0 -449.5 187t-187.5 449q0 264 187.5 450.5t449.5 186.5zM696.5 1217q-227.5 0 -388.5 -163t-161 -394.5t161 -393.5t388.5 -162t389 162t161.5 393.5t-161.5 394.5t-389 163zM449 1024h294 q102 0 172 -61.5t70 -159.5q0 -74 -45 -130.5t-115 -72.5l183 -299h-125l-160 279h-170v-277h-104v721zM553 938v-281h172q63 0 105 39t42 100.5t-43 101.5t-104 40h-172z" />
<glyph unicode="&#xb4;" horiz-adv-x="448" d="M143 1147h-118l237 260h158z" />
<glyph unicode="&#xb8;" horiz-adv-x="509" d="M301 2l-61 -104q12 4 41 4q100 -2 155.5 -45t55.5 -111q0 -72 -72 -124t-182 -52q-143 0 -230 63l35 70q72 -55 180 -55q70 0 116 27.5t46 70.5q0 45 -46 73.5t-128 28.5q-51 0 -90 -14l96 168h84z" />
<glyph unicode="&#xbb;" horiz-adv-x="729" d="M373 485l-217 -311h-105l209 311l-209 312h105zM678 485l-219 -311h-103l209 311l-209 312h103z" />
<glyph unicode="&#x2c6;" horiz-adv-x="630" d="M621 1147h-127l-172 186l-179 -186h-133l242 260h141z" />
<glyph unicode="&#x2da;" horiz-adv-x="491" d="M246 1475q92 0 150.5 -54.5t58.5 -130.5q0 -78 -58.5 -133t-150.5 -55t-150.5 55t-58.5 133q0 76 58.5 130.5t150.5 54.5zM248 1407q-49 0 -83 -34t-34 -81q0 -49 34 -82.5t83 -33.5q47 0 82 33.5t35 82.5q0 47 -35 81t-82 34z" />
<glyph unicode="&#x2dc;" horiz-adv-x="659" d="M195 1389q70 0 147.5 -58.5t122.5 -58.5t71.5 29.5t28.5 74.5h90q-4 -90 -54 -147.5t-134 -57.5q-70 0 -149.5 58.5t-120.5 58.5q-45 0 -71 -29.5t-30 -74.5h-90q4 90 54.5 147.5t134.5 57.5z" />
<glyph unicode="&#x401;" horiz-adv-x="958" d="M373 1630q35 0 59.5 -24.5t24.5 -57t-24.5 -56.5t-59.5 -24q-37 0 -60.5 22.5t-23.5 57.5t23.5 58.5t60.5 23.5zM702 1630q35 0 58.5 -24.5t23.5 -57t-23.5 -56.5t-58.5 -24q-37 0 -61.5 22.5t-24.5 57.5t24.5 58.5t61.5 23.5zM858 1194h-522v-457h522v-121h-522v-495 h522v-121h-659v1315h659v-121z" />
<glyph unicode="&#x406;" horiz-adv-x="534" d="M336 0h-137v1315h137v-1315z" />
<glyph unicode="&#x410;" horiz-adv-x="1210" d="M899 406h-582l-149 -406h-150l510 1323h181l481 -1323h-148zM858 526l-242 682h-4l-250 -682h496z" />
<glyph unicode="&#x411;" horiz-adv-x="1087" d="M887 1194h-551v-436h315q156 0 258.5 -104.5t102.5 -272.5q0 -166 -102.5 -273.5t-258.5 -107.5h-452v1315h688v-121zM336 645v-532h268q113 0 188.5 71.5t75.5 194.5t-75.5 194.5t-188.5 71.5h-268z" />
<glyph unicode="&#x412;" horiz-adv-x="1122" d="M199 1315h407q147 0 249.5 -96.5t102.5 -239.5q0 -111 -64.5 -192.5t-154.5 -104.5q106 -10 189.5 -104.5t83.5 -223.5q0 -150 -103.5 -252t-257.5 -102h-452v1315zM336 1202v-471h229q106 0 183 68.5t77 173.5q0 98 -70.5 163.5t-166.5 65.5h-252zM336 618v-505h278 q104 0 179 69.5t75 177.5q0 113 -80.5 185.5t-216.5 72.5h-235z" />
<glyph unicode="&#x413;" horiz-adv-x="804" d="M784 1194h-448v-1194h-137v1315h585v-121z" />
<glyph unicode="&#x414;" horiz-adv-x="1312" d="M1104 121h129v-326h-137v205h-916v-205h-137v326q80 0 134 69.5t56 198.5l19 926h852v-1194zM385 1194l-18 -801q-6 -199 -125 -272h723v1073h-580z" />
<glyph unicode="&#x415;" horiz-adv-x="958" d="M858 1194h-522v-457h522v-121h-522v-495h522v-121h-659v1315h659v-121z" />
<glyph unicode="&#x416;" horiz-adv-x="1728" d="M770 666l-555 -666h-184l583 670l-546 645h174zM934 0h-139v1315h139v-1315zM1114 670l582 -670h-185l-553 666l527 649h174z" />
<glyph unicode="&#x417;" horiz-adv-x="989" d="M401 1337q211 0 325 -93t112 -251q0 -223 -207 -295q113 -31 179.5 -122t66.5 -211q0 -174 -128 -281t-356 -107q-186 0 -330 56v125q143 -61 315.5 -61.5t265.5 73.5t93 203q0 115 -82 186.5t-221 73.5q-135 4 -229 -2v125q135 -8 227 -2q129 4 198.5 66.5t69.5 166.5 q0 106 -74.5 169t-232.5 63q-135 0 -287 -54v123q133 49 295 49z" />
<glyph unicode="&#x418;" horiz-adv-x="1431" d="M1233 0h-131v1036q0 76 12 138l-2 2l-737 -1184h-176v1323h131v-1016q0 -86 -13 -156h2l732 1180h182v-1323z" />
<glyph unicode="&#x419;" horiz-adv-x="1431" d="M905 1667h119q-4 -109 -86 -171t-221 -62q-141 0 -223 62.5t-86 170.5h118q-4 -61 49.5 -104t141.5 -43t140 43t48 104zM1233 0h-131v1036q0 76 12 138l-2 2l-737 -1184h-176v1323h131v-1016q0 -86 -13 -156h2l732 1180h182v-1323z" />
<glyph unicode="&#x41a;" horiz-adv-x="1171" d="M336 0h-137v1315h137v-1315zM518 670l633 -670h-186l-605 666l580 649h174z" />
<glyph unicode="&#x41b;" horiz-adv-x="1310" d="M1114 0h-139v1194h-584l-29 -864q-4 -172 -83.5 -262.5t-221.5 -90.5h-6v125q80 0 127 58.5t49 167.5l31 987h856v-1315z" />
<glyph unicode="&#x41c;" horiz-adv-x="1712" d="M1599 0h-137l-102 1087q-4 47 -2 80h-2l-441 -1155h-131l-438 1159h-2q0 -33 -4 -81l-94 -1090h-133l127 1323h182l428 -1128h6l432 1128h178z" />
<glyph unicode="&#x41d;" horiz-adv-x="1368" d="M1169 0h-139v621h-694v-621h-137v1315h137v-572h694v572h139v-1315z" />
<glyph unicode="&#x41e;" horiz-adv-x="1538" d="M768 1339q285 0 478.5 -191.5t193.5 -490.5t-193.5 -490.5t-478.5 -191.5t-478.5 191.5t-193.5 490.5t193.5 490.5t478.5 191.5zM768 1217q-225 0 -377.5 -157t-152.5 -402.5t152.5 -402.5t377.5 -157q227 0 379.5 157t152.5 402.5t-152.5 402.5t-379.5 157z" />
<glyph unicode="&#x41f;" horiz-adv-x="1345" d="M1149 0h-139v1194h-674v-1194h-137v1315h950v-1315z" />
<glyph unicode="&#x420;" horiz-adv-x="1028" d="M199 1315h374q168 0 281 -106.5t113 -266.5q0 -162 -113 -269.5t-281 -107.5h-237v-565h-137v1315zM336 1198v-518h219q115 0 192.5 73.5t77.5 188.5q0 113 -77.5 184.5t-190.5 71.5h-221z" />
<glyph unicode="&#x421;" horiz-adv-x="1259" d="M778 1337q137 0 248 -49t180 -123l-78 -96q-137 147 -350 148q-236 0 -387 -155t-151 -402.5t146 -404.5t378 -157q236 0 389 178l78 -94q-178 -205 -479 -205q-283 0 -469.5 190.5t-186.5 491.5q0 299 192.5 488.5t489.5 189.5z" />
<glyph unicode="&#x422;" horiz-adv-x="808" d="M788 1194h-315v-1194h-137v1194h-313v121h765v-121z" />
<glyph unicode="&#x423;" horiz-adv-x="1081" d="M1073 1315l-516 -1092q-106 -223 -352 -223h-84v123h69q160 0 236 145l59 117l-458 930h151l357 -729q25 -53 26 -60q4 10 13.5 29.5t13.5 32.5l332 727h153z" />
<glyph unicode="&#x424;" horiz-adv-x="1591" d="M864 1417v-143q272 -10 451.5 -180t179.5 -436.5t-179 -436.5t-452 -180v-143h-137v143q-272 10 -451.5 180t-179.5 436.5t180.5 436.5t450.5 180v143h137zM729 160v995q-213 -10 -352 -146.5t-139 -351.5t139 -351t352 -146zM862 1155v-995q213 10 352.5 146t139.5 351 t-139.5 351.5t-352.5 146.5z" />
<glyph unicode="&#x425;" horiz-adv-x="1210" d="M719 678l444 -678h-168l-356 547q-10 14 -27 43q-8 -12 -26 -41l-371 -549h-168l459 678l-414 637h168l328 -514q16 -29 26 -43q4 8 13.5 21.5t13.5 19.5l342 516h166z" />
<glyph unicode="&#x426;" horiz-adv-x="1347" d="M1139 121h129v-326h-138v205h-931v1315h137v-1194h663v1194h140v-1194z" />
<glyph unicode="&#x427;" horiz-adv-x="1089" d="M891 0h-139v485h-265q-170 0 -280.5 102.5t-110.5 266.5v461h140v-453q0 -113 78.5 -183.5t193.5 -70.5h244v707h139v-1315z" />
<glyph unicode="&#x428;" horiz-adv-x="1912" d="M1714 0h-1515v1315h137v-1194h551v1194h139v-1194h549v1194h139v-1315z" />
<glyph unicode="&#x429;" horiz-adv-x="1923" d="M1714 121h131v-326h-139v205h-1507v1315h137v-1194h551v1194h139v-1194h549v1194h139v-1194z" />
<glyph unicode="&#x42a;" horiz-adv-x="1150" d="M440 799h248q176 0 287.5 -110.5t111.5 -289.5q0 -180 -111.5 -289.5t-287.5 -109.5h-385v1194h-280v121h417v-516zM440 686v-573h226q123 0 201.5 76.5t78.5 209.5t-77.5 210t-200.5 77h-228z" />
<glyph unicode="&#x42b;" horiz-adv-x="1517" d="M336 799h248q176 0 287.5 -110.5t111.5 -289.5q0 -180 -110.5 -289.5t-288.5 -109.5h-385v1315h137v-516zM1319 0h-139v1315h139v-1315zM336 686v-573h225q123 0 202 76.5t79 209.5t-78 210t-201 77h-227z" />
<glyph unicode="&#x42c;" horiz-adv-x="1046" d="M336 799h248q176 0 287.5 -110.5t111.5 -289.5q0 -180 -110.5 -289.5t-288.5 -109.5h-385v1315h137v-516zM336 686v-573h225q123 0 202 76.5t79 209.5t-78 210t-201 77h-227z" />
<glyph unicode="&#x42d;" horiz-adv-x="1114" d="M369 1337q270 0 459.5 -191.5t189.5 -486.5q0 -301 -183.5 -491.5t-465.5 -190.5q-190 0 -318 66l35 111q133 -57 281 -58q207 0 348 140.5t157 365.5h-596v119h596q-20 223 -164.5 360.5t-351.5 137.5q-143 0 -266 -52l-39 111q138 59 318 59z" />
<glyph unicode="&#x42e;" horiz-adv-x="1923" d="M1210 1339q272 0 444.5 -189t172.5 -492.5t-172 -493t-445 -189.5q-260 0 -429 172t-185 453h-260v-600h-137v1315h137v-598h260q16 279 185 450.5t429 171.5zM1210 96q213 0 344.5 153.5t131.5 407.5q0 252 -131.5 407t-344.5 155q-215 0 -345 -155t-130 -407 q0 -254 130 -407.5t345 -153.5z" />
<glyph unicode="&#x42f;" horiz-adv-x="1138" d="M942 1315v-1315h-139v575h-174h-25l-356 -575h-164l381 594q-137 20 -223 121.5t-86 238.5q0 154 109.5 257.5t273.5 103.5h403zM803 1198h-240q-113 0 -190.5 -70.5t-77.5 -181t79 -183.5t189 -73h240v508z" />
<glyph unicode="&#x430;" horiz-adv-x="1325" d="M612 1016q139 0 242.5 -64.5t149.5 -165.5q0 2 -3.5 40t-3.5 57v110h131v-993h-131v109l7 98q-47 -100 -149.5 -165t-242.5 -65q-223 0 -364.5 151t-141.5 370q0 217 141.5 367.5t364.5 150.5zM621 897q-158 0 -269.5 -115.5t-111.5 -283.5t111.5 -285t269.5 -117 q168 0 274 115t106 287q0 168 -106 283.5t-274 115.5z" />
<glyph unicode="&#x431;" horiz-adv-x="1247" d="M928 1481l33 -84q10 -35 -19 -47l-317 -105q-326 -106 -367 -473h2q37 96 138.5 171t252.5 75q207 0 348.5 -152.5t141.5 -367.5t-142.5 -369t-363.5 -154q-229 0 -373.5 166t-144.5 465q0 610 506 774zM635 899q-160 0 -265.5 -115.5t-105.5 -285.5q0 -172 105.5 -287 t265.5 -115q162 0 267.5 115t105.5 287q0 170 -105.5 285.5t-267.5 115.5z" />
<glyph unicode="&#x432;" horiz-adv-x="1046" d="M197 993h413q121 0 203 -71.5t82 -176.5q0 -86 -51 -148t-129 -81q94 -10 159.5 -78.5t65.5 -169.5q0 -111 -82 -189.5t-205 -78.5h-456v993zM328 893v-332h247q86 0 140.5 48t54.5 124q0 72 -52 116t-130 44h-260zM328 461v-359h284q86 0 140.5 48.5t54.5 128t-58.5 131 t-162.5 51.5h-258z" />
<glyph unicode="&#x433;" horiz-adv-x="718" d="M698 879h-366v-879h-135v993h501v-114z" />
<glyph unicode="&#x434;" horiz-adv-x="1193" d="M975 117h112v-275h-133v158h-749v-158h-133v275h8q59 0 103 52t46 163l23 661h723v-876zM381 879l-21 -551q-8 -158 -92 -211h574v762h-461z" />
<glyph unicode="&#x435;" horiz-adv-x="1175" d="M602 1018q199 0 333 -139.5t134 -356.5q0 -39 -2 -69h-819q6 -150 109.5 -253.5t256.5 -103.5q180 0 308 142l84 -80q-152 -180 -396 -181q-221 0 -362.5 151t-141.5 370t139.5 369.5t356.5 150.5zM602 899q-150 0 -247 -97t-107 -233h686q-2 143 -97.5 236.5 t-234.5 93.5z" />
<glyph unicode="&#x436;" horiz-adv-x="1560" d="M637 514l-428 -514h-166l438 512l-397 481h168zM848 0h-135v993h135v-993zM1079 512l439 -512h-164l-430 514l385 479h168z" />
<glyph unicode="&#x437;" horiz-adv-x="825" d="M326 1018q176 0 275 -78t99 -197q0 -84 -49 -144t-129 -81q90 -25 143.5 -92.5t53.5 -157.5q0 -127 -102.5 -210t-288.5 -83q-156 0 -267 50v118q115 -55 258 -55q125 0 195 51t70 135q0 80 -57.5 132.5t-157.5 52.5q-106 4 -185 -2v112q57 -4 181 -4q96 2 150 49.5 t54 120.5q0 78 -61.5 125t-183.5 47q-121 0 -228 -37v113q109 35 230 35z" />
<glyph unicode="&#x438;" horiz-adv-x="1226" d="M1030 0h-127v768q0 14 4 59h-2l-561 -833h-147v999h127v-751q0 -51 -5 -80h3l565 835h143v-997z" />
<glyph unicode="&#x439;" horiz-adv-x="1226" d="M770 1423h115q-4 -109 -81 -178t-191.5 -69t-191.5 70.5t-79 176.5h115q-6 -63 39 -107t116.5 -44t117.5 44t40 107zM1030 0h-127v768q0 14 4 59h-2l-561 -833h-147v999h127v-751q0 -51 -5 -80h3l565 835h143v-997z" />
<glyph unicode="&#x43a;" horiz-adv-x="1085" d="M332 0h-135v993h135v-993zM569 512l478 -512h-170l-469 514l426 479h174z" />
<glyph unicode="&#x43b;" horiz-adv-x="1146" d="M950 0h-133v879h-459l-22 -603q-4 -141 -73.5 -220t-174.5 -79h-47v111h8q66 0 111 45t47 143l22 717h721v-993z" />
<glyph unicode="&#x43c;" horiz-adv-x="1529" d="M1370 0h-131l-76 856l-336 -848h-137l-332 850l-69 -858h-129l88 995h190l322 -835h4l326 835h188z" />
<glyph unicode="&#x43d;" horiz-adv-x="1206" d="M1010 0h-133v455h-545v-455h-135v993h135v-422h545v422h133v-993z" />
<glyph unicode="&#x43e;" horiz-adv-x="1222" d="M612.5 1018q221.5 0 363.5 -151.5t142 -368.5q0 -215 -142 -369t-363.5 -154t-364 154t-142.5 369q0 217 142.5 368.5t364 151.5zM612 899q-162 0 -266 -115.5t-104 -285.5q0 -172 104.5 -287t265.5 -115q160 0 265.5 115t105.5 287q0 170 -105.5 285.5t-265.5 115.5z " />
<glyph unicode="&#x43f;" horiz-adv-x="1202" d="M1006 0h-136v879h-538v-879h-135v993h809v-993z" />
<glyph unicode="&#x440;" horiz-adv-x="1325" d="M715 1016q221 0 363.5 -150.5t142.5 -367.5q0 -219 -142.5 -370t-363.5 -151q-139 0 -242.5 64.5t-146.5 163.5q0 -2 3 -40t3 -56v-498h-135v1382h131v-108q0 -4 -6 -97q47 98 151.5 163t241.5 65zM705 897q-168 0 -273.5 -114.5t-105.5 -284.5t105.5 -286t273.5 -116 q160 0 270 117t110 285t-110 283.5t-270 115.5z" />
<glyph unicode="&#x441;" horiz-adv-x="1026" d="M621 1016q215 0 352 -154l-80 -88q-100 123 -272 123q-166 0 -272.5 -113.5t-106.5 -285.5t107.5 -287t271.5 -115q168 0 274 119l84 -82q-139 -156 -356 -156q-229 0 -373 151t-144 370t143 368.5t372 149.5z" />
<glyph unicode="&#x442;" horiz-adv-x="811" d="M791 879h-318v-879h-135v879h-318v114h771v-114z" />
<glyph unicode="&#x443;" horiz-adv-x="1042" d="M406 -389h-142l187 424l-404 958h150l299 -729q10 -23 24 -76h2q4 14 25 76l299 729h149z" />
<glyph unicode="&#x444;" horiz-adv-x="1392" d="M764 1407v-389q231 -8 377.5 -156.5t146.5 -363.5q0 -213 -147.5 -363.5t-376.5 -159.5v-364h-135v364q-229 8 -376 159t-147 364q0 215 146.5 363.5t376.5 156.5v389h135zM633 94v807q-172 -8 -281.5 -121.5t-109.5 -281.5t109.5 -282t281.5 -122zM760 901v-807 q174 8 283.5 121t109.5 283q0 168 -110.5 281.5t-282.5 121.5z" />
<glyph unicode="&#x445;" horiz-adv-x="1040" d="M623 514l356 -514h-162l-258 383q-6 10 -18.5 29.5t-14.5 25.5l-34 -55l-273 -383h-158l369 508l-342 485h160l244 -358q25 -41 32 -57l35 55l256 360h162z" />
<glyph unicode="&#x446;" horiz-adv-x="1206" d="M989 117h111v-275h-133v158h-770v993h135v-876h522v876h135v-876z" />
<glyph unicode="&#x447;" horiz-adv-x="997" d="M801 0h-135v365h-226q-156 0 -246 82.5t-90 218.5v327h136v-315q0 -96 60 -146.5t167 -50.5h199v512h135v-993z" />
<glyph unicode="&#x448;" horiz-adv-x="1671" d="M1475 0h-1278v993h135v-876h436v876h135v-876h438v876h134v-993z" />
<glyph unicode="&#x449;" horiz-adv-x="1693" d="M1475 117h110v-275h-131v158h-1257v993h135v-876h436v876h135v-876h438v876h134v-876z" />
<glyph unicode="&#x44a;" horiz-adv-x="1110" d="M451 639h225q143 0 235.5 -88t92.5 -229.5t-92.5 -231.5t-235.5 -90h-361v879h-284v114h420v-354zM451 535v-431h200q96 0 158.5 58.5t62.5 159.5q0 102 -62 157.5t-159 55.5h-200z" />
<glyph unicode="&#x44b;" horiz-adv-x="1419" d="M332 639h225q143 0 235.5 -88t92.5 -229.5t-93.5 -231.5t-234.5 -90h-360v993h135v-354zM1223 0h-136v993h136v-993zM332 535v-431h198q96 0 159 57.5t63 160t-61.5 158t-160.5 55.5h-198z" />
<glyph unicode="&#x44c;" horiz-adv-x="989" d="M332 639h225q143 0 235.5 -88t92.5 -229.5t-93.5 -231.5t-234.5 -90h-360v993h135v-354zM332 535v-431h198q96 0 159 57.5t63 160t-61.5 158t-160.5 55.5h-198z" />
<glyph unicode="&#x44d;" horiz-adv-x="962" d="M348 1016q225 0 366.5 -149.5t141.5 -368.5q0 -221 -140.5 -371t-367.5 -150q-156 0 -258 54l31 114q98 -49 221 -49q156 0 258 96.5t119 247.5h-506v117h506q-18 150 -120.5 245t-258.5 95q-119 0 -217 -47l-31 113q106 53 256 53z" />
<glyph unicode="&#x44e;" horiz-adv-x="1572" d="M993 1018q217 0 346 -149.5t129 -370.5q0 -219 -130 -371t-345 -152q-201 0 -326.5 132.5t-144.5 332.5h-190v-440h-135v993h135v-436h190q18 201 144 331t327 130zM993.5 96q155.5 0 247.5 114t92 288t-92 287.5t-247.5 113.5t-247 -113.5t-91.5 -287.5 q0 -176 91.5 -289t247 -113z" />
<glyph unicode="&#x44f;" horiz-adv-x="1062" d="M868 993v-993h-133v414h-200l-275 -414h-149l284 426q-109 20 -173 99t-64 186q0 119 87 200.5t222 81.5h401zM735 891h-243q-90 0 -146.5 -51.5t-56.5 -133t57 -135t146 -53.5h243v373z" />
<glyph unicode="&#x451;" horiz-adv-x="1175" d="M451 1372q35 0 59.5 -23.5t24.5 -58.5q0 -33 -25 -56.5t-59 -23.5q-37 0 -60.5 22.5t-23.5 57.5t23.5 58.5t60.5 23.5zM754 1372q35 0 59.5 -24.5t24.5 -57.5t-25 -56.5t-59 -23.5q-37 0 -61.5 22.5t-24.5 57.5t24.5 58.5t61.5 23.5zM602 1018q199 0 333 -139.5 t134 -356.5q0 -39 -2 -69h-819q6 -150 109.5 -253.5t256.5 -103.5q180 0 308 142l84 -80q-152 -180 -396 -181q-221 0 -362.5 151t-141.5 370t139.5 369.5t356.5 150.5zM602 899q-150 0 -247 -97t-107 -233h686q-2 143 -97.5 236.5t-234.5 93.5z" />
<glyph unicode="&#x456;" horiz-adv-x="546" d="M274 1370q35 0 60.5 -24.5t25.5 -61.5t-25.5 -61.5t-60.5 -24.5q-37 0 -61.5 24.5t-24.5 61.5t24.5 61.5t61.5 24.5zM342 0h-135v993h135v-993z" />
<glyph unicode="&#x2000;" horiz-adv-x="833" />
<glyph unicode="&#x2001;" horiz-adv-x="1667" />
<glyph unicode="&#x2002;" horiz-adv-x="833" />
<glyph unicode="&#x2003;" horiz-adv-x="1667" />
<glyph unicode="&#x2004;" horiz-adv-x="555" />
<glyph unicode="&#x2005;" horiz-adv-x="416" />
<glyph unicode="&#x2006;" horiz-adv-x="277" />
<glyph unicode="&#x2007;" horiz-adv-x="277" />
<glyph unicode="&#x2008;" horiz-adv-x="208" />
<glyph unicode="&#x2009;" horiz-adv-x="333" />
<glyph unicode="&#x200a;" horiz-adv-x="92" />
<glyph unicode="&#x2010;" horiz-adv-x="559" d="M469 571v-102h-379v102h379z" />
<glyph unicode="&#x2011;" horiz-adv-x="559" d="M469 571v-102h-379v102h379z" />
<glyph unicode="&#x2012;" horiz-adv-x="559" d="M469 571v-102h-379v102h379z" />
<glyph unicode="&#x2013;" horiz-adv-x="1001" d="M913 567v-92h-823v92h823z" />
<glyph unicode="&#x2014;" horiz-adv-x="1546" d="M1458 567v-92h-1368v92h1368z" />
<glyph unicode="&#x2018;" horiz-adv-x="303" d="M166 1016h-107l107 450h82z" />
<glyph unicode="&#x2019;" horiz-adv-x="303" d="M141 1016h-82l84 450h105z" />
<glyph unicode="&#x201a;" horiz-adv-x="303" d="M141 -274h-82l84 450h105z" />
<glyph unicode="&#x201c;" horiz-adv-x="557" d="M166 1016h-107l107 450h82zM418 1016h-105l107 450h82z" />
<glyph unicode="&#x201d;" horiz-adv-x="557" d="M141 1016h-82l84 450h105zM395 1016h-82l82 450h107z" />
<glyph unicode="&#x201e;" horiz-adv-x="557" d="M141 -274h-82l84 450h105zM395 -274h-82l82 450h107z" />
<glyph unicode="&#x2022;" horiz-adv-x="514" d="M256 840q59 0 101 -42t42 -101.5t-42 -100.5t-101 -41t-100 42t-41 99q0 59 41 101.5t100 42.5z" />
<glyph unicode="&#x2026;" horiz-adv-x="1200" d="M162 180q41 0 69.5 -27.5t28.5 -66.5t-28.5 -66.5t-69.5 -27.5t-70 27.5t-29 66.5t29 66.5t70 27.5zM600 180q41 0 69.5 -27.5t28.5 -66.5t-28.5 -66.5t-69.5 -27.5t-69.5 27.5t-28.5 66.5t28.5 66.5t69.5 27.5zM1038 180q41 0 70 -27.5t29 -66.5t-29 -66.5t-70 -27.5 t-69.5 27.5t-28.5 66.5t28.5 66.5t69.5 27.5z" />
<glyph unicode="&#x202f;" horiz-adv-x="333" />
<glyph unicode="&#x2039;" horiz-adv-x="423" d="M164 485l209 -311h-105l-217 311l217 312h105z" />
<glyph unicode="&#x203a;" horiz-adv-x="423" d="M373 485l-217 -311h-105l209 311l-209 312h105z" />
<glyph unicode="&#x205f;" horiz-adv-x="416" />
<glyph unicode="&#x20ac;" horiz-adv-x="1304" d="M1171 258l76 -92q-168 -188 -440 -189q-219 0 -385 134.5t-221 353.5h-164v96h145q-6 49 -6 98q0 27 4 72h-143v96h158q51 227 222 368.5t394 141.5q252 0 418 -161l-74 -95q-141 137 -332 138q-178 0 -308 -107.5t-175 -284.5h688l-70 -96h-634q-4 -45 -5 -72 q0 -53 7 -98h542l-69 -96h-453q51 -168 178 -268.5t295 -100.5q207 0 352 162z" />
<glyph unicode="&#x2122;" horiz-adv-x="1251" d="M475 1516h-168v-467h-86v467h-170v75h424v-75zM1137 1049h-88v436l-189 -322l-192 322v-436h-86v542h110l168 -286l166 286h111v-542z" />
<glyph unicode="&#x25fc;" horiz-adv-x="993" d="M0 993h993v-993h-993v993z" />
</font>
</defs>
</svg>
