<svg width="170" height="97" viewBox="0 0 170 97" fill="none" xmlns="http://www.w3.org/2000/svg">
<path d="M45.4704 83.5193H33.3861V68.4266C33.3861 66.897 33.2836 65.9792 33.1812 65.4693C32.874 64.5515 32.1571 64.0416 31.2355 64.0416C30.4162 64.0416 29.8017 64.3476 29.4945 65.0614C29.1873 65.7752 29.0849 66.5911 29.0849 67.7128V68.4266V83.5193H16.8981V68.4266C16.8981 66.897 16.7957 65.8772 16.6933 65.3673C16.3861 64.4495 15.7716 64.0416 14.8499 64.0416C13.9282 64.0416 13.3138 64.3476 13.0065 65.0614C12.6993 65.7752 12.5969 66.693 12.5969 67.7128V68.3247V83.4173H0.410156V68.1207V52.6202H13.4162H32.4644C34.9222 52.6202 37.1752 53.1301 39.3258 54.3538C41.9885 55.7815 43.8318 57.821 44.6511 60.3705C45.1632 62.0021 45.4704 64.6535 45.4704 68.2227V83.5193V83.5193ZM81.621 68.8346C81.621 71.6899 81.0065 74.3413 79.6752 76.6868C78.3439 79.0323 76.5005 80.8679 74.0427 82.1936C71.5848 83.6212 68.9222 84.2331 66.0547 84.2331C65.4403 84.2331 64.7234 84.1311 64.1089 84.0291C63.4945 83.9272 62.88 83.7232 62.2656 83.4173V71.9958C62.6752 72.1998 63.0848 72.4038 63.5969 72.6077C64.1089 72.8117 64.5186 72.9136 64.9282 72.9136C66.0547 72.9136 67.0788 72.5057 68.0005 71.6899C68.9222 70.8741 69.3318 69.7524 69.3318 68.5286C69.3318 67.3049 68.9222 66.2851 68.0005 65.4693C67.1812 64.6535 66.0547 64.1436 64.7234 64.1436C63.4945 64.1436 62.4704 64.5515 61.7535 65.3673C60.8318 66.3871 60.4222 68.0187 60.4222 70.2622V96.3684H48.4403V70.0583C48.4403 66.693 48.8499 63.8377 49.7716 61.6962C51.1029 58.4329 53.4583 55.8835 56.9403 54.2518C58.0668 53.7419 59.2957 53.334 60.627 53.0281C62.0607 52.7222 63.3921 52.6202 64.7234 52.6202C66.1571 52.6202 67.5909 52.7222 68.9222 53.0281C70.2535 53.334 71.5848 53.7419 72.7113 54.2518C75.374 55.5775 77.4222 57.5151 79.0607 60.1665C80.8017 62.8179 81.621 65.6733 81.621 68.8346ZM116.85 83.5193H104.766V70.0583C104.766 68.1207 104.356 66.693 103.639 65.6733C102.922 64.6535 101.796 64.1436 100.26 64.1436C99.0306 64.1436 98.0065 64.5515 97.1873 65.4693C96.368 66.2851 95.8559 67.4069 95.8559 68.5286C95.8559 69.6504 96.2656 70.6701 97.0848 71.5879C97.9041 72.5057 98.8258 72.9136 100.055 72.9136C100.669 72.9136 101.181 72.8117 101.693 72.7097C102.205 72.5057 102.717 72.3018 103.127 72.0978V83.6212C102.615 83.8252 101.898 84.0291 101.181 84.1311C100.362 84.2331 99.5427 84.3351 98.621 84.3351C94.7294 84.3351 91.3499 83.0094 88.4824 80.256C85.3077 77.2987 83.7716 73.5255 83.7716 68.9365C83.7716 64.7555 85.1029 61.0843 87.868 58.025C91.0427 54.4558 95.3439 52.7222 100.772 52.7222C105.482 52.7222 109.374 54.2518 112.344 57.2092C115.416 60.1665 116.85 64.1436 116.85 69.0385V83.5193V83.5193ZM149.109 53.334L148.085 56.5973C147.573 58.2289 147.163 59.7586 146.651 61.3902C145.832 63.7357 144.603 65.5713 142.964 66.795C144.193 67.2029 145.217 67.8148 145.934 68.5286C146.754 69.2425 147.266 70.0583 147.675 70.8741C148.085 71.6899 148.29 72.7097 148.392 73.7295C148.494 74.7492 148.494 76.3809 148.494 78.6244V83.5193H136.41V77.2987C136.41 75.973 136.41 74.9532 136.308 74.5453C136.205 74.0354 135.898 73.5255 135.386 73.1176C134.976 72.8117 134.567 72.6077 134.157 72.5057C133.645 72.4038 133.133 72.4038 132.621 72.4038H132.007V83.7232H119.82V53.334H131.904V63.1238H132.519C133.133 63.1238 133.543 62.9199 133.952 62.41C134.362 61.9001 134.669 60.9823 135.079 59.6566L136.82 53.334H149.109V53.334Z" fill="url(#paint0_radial)"/>
<path fill-rule="evenodd" clip-rule="evenodd" d="M30.3121 15.8065C30.3121 12.4412 31.2338 9.7898 33.0771 7.95421C34.7157 6.2206 36.7639 5.40479 39.2217 5.40479C41.8844 5.40479 44.035 6.42456 45.5711 8.36212C47.2097 10.2997 48.029 12.8491 48.029 15.8065V18.4579H32.5651V23.7607H48.029V43.0343H53.7639V15.7045C53.7639 11.4214 52.4326 7.75026 49.8723 4.79292C47.1073 1.52966 43.5229 0 39.2217 0C34.8181 0 31.2338 1.63163 28.4687 4.79292C25.9085 7.75026 24.5771 11.4214 24.5771 15.7045V43.1363H30.3121V15.8065Z" fill="url(#paint1_radial)"/>
<path fill-rule="evenodd" clip-rule="evenodd" d="M111.727 43.3403C115.004 43.3403 117.872 42.2185 120.125 39.873C122.48 37.5276 123.607 34.7742 123.607 31.5109C123.607 28.2477 122.48 25.3923 120.125 23.1488C117.769 20.8033 115.004 19.6816 111.727 19.6816C108.45 19.6816 105.583 20.8033 103.33 23.1488C100.974 25.4943 99.8477 28.2477 99.8477 31.5109C99.8477 34.7742 100.974 37.6296 103.33 39.873C105.685 42.2185 108.45 43.3403 111.727 43.3403ZM106.299 25.9022C107.733 24.4745 109.577 23.7607 111.727 23.7607C113.98 23.7607 115.824 24.4745 117.257 26.0042C118.691 27.4318 119.408 29.3694 119.408 31.6129C119.408 33.9584 118.691 35.794 117.36 37.3236C115.926 38.7513 114.083 39.4651 111.83 39.4651C109.577 39.4651 107.733 38.7513 106.299 37.3236C104.866 35.8959 104.251 33.9584 104.251 31.6129C104.149 29.1655 104.866 27.3299 106.299 25.9022Z" fill="url(#paint2_radial)"/>
<path fill-rule="evenodd" clip-rule="evenodd" d="M61.8541 29.9813V29.4714C61.8541 28.6556 61.9565 27.9417 62.0589 27.2279C62.1613 26.5141 62.4685 25.9022 62.8782 25.3923C63.2878 24.8824 63.7999 24.5765 64.4143 24.3725C65.0288 24.2706 65.7456 24.1686 66.7697 24.1686H72.4023V20.1915H67.589C65.7456 20.1915 64.3119 20.2934 63.3902 20.4974C61.8541 20.8033 60.7276 21.5172 59.7035 22.435C58.7818 23.4547 58.1673 24.7804 57.8601 26.3101C57.6553 27.1259 57.6553 28.3496 57.6553 29.9813V42.9324H61.8541V29.9813Z" fill="url(#paint3_radial)"/>
<path fill-rule="evenodd" clip-rule="evenodd" d="M141.939 46.1956H77.5236V33.3465C77.5236 29.7773 78.4453 27.1259 80.1862 25.4943C81.5176 24.2705 83.2585 23.6587 85.3067 23.6587C87.5597 23.6587 89.4031 24.3725 90.8368 25.9022C92.373 27.4318 93.0899 29.3694 93.0899 31.7149C93.0899 33.9584 92.373 35.794 90.8368 37.2216C89.3007 38.6493 87.4573 39.3631 84.9995 39.3631C83.9754 39.3631 82.9513 39.1592 82.0296 38.7513C81.1079 38.3434 80.0838 37.7315 79.1621 36.8137V41.1987C79.9814 41.9126 81.0055 42.4225 82.132 42.8304C83.2585 43.2383 84.385 43.3403 85.5115 43.3403C88.6862 43.3403 91.4513 42.3205 93.6019 40.3829C96.0597 38.2414 97.2887 35.386 97.2887 31.8168C97.2887 28.1457 96.0597 25.1883 93.6019 22.9448C91.2465 20.8033 88.4814 19.6816 85.1019 19.6816C81.9272 19.6816 79.2646 20.5994 77.114 22.333C74.4513 24.6784 73.12 28.1457 73.12 32.9386V46.0936H16.8971V39.2612V30.0832C16.7947 29.3694 16.6923 28.6556 16.5898 27.9417C15.7706 22.9448 14.2344 17.3361 8.29466 17.4381C6.04165 17.4381 3.99346 17.846 1.94527 15.2966C-0.102927 12.8491 -0.410156 11.7274 -0.410156 11.7274C-0.410156 11.7274 0.511531 18.9677 1.94527 20.9053C3.379 22.8429 4.30069 23.7607 7.5778 24.0666C11.0597 24.2705 12.9031 24.4745 14.4392 26.0041V30.0832C13.2103 27.9417 11.367 26.514 8.29466 26.616C6.04165 26.616 3.99346 27.0239 1.94527 24.4745C-0.102927 22.027 -0.410156 20.9053 -0.410156 20.9053C-0.410156 20.9053 0.511531 28.1457 1.94527 30.0832C3.379 32.0208 4.30069 32.9386 7.5778 33.2445C11.0597 33.4485 12.9031 33.6524 14.4392 35.1821V39.6691C13.2103 37.6295 11.367 36.0999 8.29466 36.2019C6.04165 36.2019 3.99346 36.6098 1.94527 34.0603C0.306711 31.6129 -0.000517648 30.4911 -0.000517648 30.4911C-0.000517648 30.4911 0.921169 37.7315 2.3549 39.6691C3.78864 41.6066 4.71033 42.5244 7.98743 42.8304C11.5718 43.0343 13.3127 43.1363 14.8489 44.666V46.2976V48.6431H73.4272V53.334H77.626V48.6431H142.042C156.072 48.6431 167.234 58.7388 167.234 70.3642C167.234 81.9896 156.072 92.0853 142.042 92.0853H63.6983V94.4308H142.042C157.71 94.4308 170.102 83.2133 170.102 70.2622C169.999 57.4131 157.608 46.1956 141.939 46.1956Z" fill="url(#paint4_radial)"/>
<defs>
<radialGradient id="paint0_radial" cx="0" cy="0" r="1" gradientUnits="userSpaceOnUse" gradientTransform="translate(28.508 3.1617) scale(94.9804 94.5793)">
<stop stop-color="#B2B2B2"/>
<stop offset="1"/>
</radialGradient>
<radialGradient id="paint1_radial" cx="0" cy="0" r="1" gradientUnits="userSpaceOnUse" gradientTransform="translate(28.5063 4.79364) scale(94.98 94.5789)">
<stop stop-color="#80D495"/>
<stop offset="1" stop-color="#007C2B"/>
</radialGradient>
<radialGradient id="paint2_radial" cx="0" cy="0" r="1" gradientUnits="userSpaceOnUse" gradientTransform="translate(28.5053 4.79394) scale(94.9807 94.5796)">
<stop stop-color="#80D495"/>
<stop offset="1" stop-color="#007C2B"/>
</radialGradient>
<radialGradient id="paint3_radial" cx="0" cy="0" r="1" gradientUnits="userSpaceOnUse" gradientTransform="translate(28.5058 4.79353) scale(94.9805 94.5794)">
<stop stop-color="#80D495"/>
<stop offset="1" stop-color="#007C2B"/>
</radialGradient>
<radialGradient id="paint4_radial" cx="0" cy="0" r="1" gradientUnits="userSpaceOnUse" gradientTransform="translate(28.5066 4.79332) scale(94.9806 94.5795)">
<stop stop-color="#80D495"/>
<stop offset="1" stop-color="#007C2B"/>
</radialGradient>
</defs>
</svg>
