<?xml version="1.0" standalone="no"?>
<!DOCTYPE svg PUBLIC "-//W3C//DTD SVG 20010904//EN"
 "http://www.w3.org/TR/2001/REC-SVG-20010904/DTD/svg10.dtd">
<svg version="1.0" xmlns="http://www.w3.org/2000/svg"
 width="700.000000pt" height="700.000000pt" viewBox="0 0 700.000000 700.000000"
 preserveAspectRatio="xMidYMid meet">
<metadata>
Created by potrace 1.11, written by Peter Selinger 2001-2013
</metadata>
<g transform="translate(0.000000,700.000000) scale(0.100000,-0.100000)"
fill="#000000" stroke="none">
<path d="M2180 5686 c0 -3 195 -342 434 -753 l435 -748 -1525 -3 -1524 -2 0
-680 0 -680 1524 -2 1525 -3 -431 -740 c-236 -407 -432 -746 -435 -753 -4 -10
151 -12 768 -10 l773 3 633 1090 c348 600 633 1092 633 1095 0 3 -285 495
-633 1095 l-633 1090 -772 3 c-424 1 -772 0 -772 -2z"/>
</g>
</svg>
