<svg xmlns="http://www.w3.org/2000/svg" width="24" height="24" viewBox="0 0 24 24">
    <g fill="none" fill-rule="evenodd">
        <path d="M0 0h24v24H0z"/>
        <path fill="#373C41" fill-rule="nonzero" d="M22 5.937a8.193 8.193 0 0 1-2.356.646 4.12 4.12 0 0 0 1.804-2.269 8.271 8.271 0 0 1-2.607.996 4.103 4.103 0 0 0-6.991 3.74 11.648 11.648 0 0 1-8.457-4.286 4.072 4.072 0 0 0-.554 2.062 4.1 4.1 0 0 0 1.824 3.415 4.103 4.103 0 0 1-1.858-.515v.051a4.107 4.107 0 0 0 3.29 4.023 4.156 4.156 0 0 1-1.08.144c-.265 0-.522-.026-.773-.076a4.105 4.105 0 0 0 3.832 2.849 8.232 8.232 0 0 1-5.095 1.753A8.72 8.72 0 0 1 2 18.414a11.597 11.597 0 0 0 6.289 1.846c7.547 0 11.673-6.251 11.673-11.673l-.014-.53A8.193 8.193 0 0 0 22 5.936z"/>
    </g>
</svg>
