<svg xmlns="http://www.w3.org/2000/svg" xmlns:xlink="http://www.w3.org/1999/xlink" width="24" height="24" viewBox="0 0 24 24">
    <defs>
        <path id="a" d="M0 0h24v24H0z"/>
    </defs>
    <g fill="none" fill-rule="evenodd">
        <mask id="b" fill="#fff">
            <use xlink:href="#a"/>
        </mask>
        <path fill="#373C41" fill-rule="nonzero" d="M23.498 6.498C24 8.281 24 12 24 12s0 3.719-.502 5.502c-.276.983-1.089 1.757-2.121 2.02C19.505 20 12 20 12 20s-7.505 0-9.377-.478C1.591 19.26.778 18.485.502 17.502 0 15.719 0 12 0 12s0-3.72.502-5.502c.276-.983 1.089-1.757 2.121-2.02C4.495 4 12 4 12 4s7.505 0 9.377.478c1.032.263 1.845 1.037 2.121 2.02zM9.333 15.52l6-3.52-6-3.52v7.04z" mask="url(#b)"/>
    </g>
</svg>
