<svg xmlns="http://www.w3.org/2000/svg" width="24" height="24" viewBox="0 0 24 24">
  <path id="icon-twitter"  d="M1820,13a12,12,0,1,0,12,12A12.01,12.01,0,0,0,1820,13Zm5.4,9c0.01,0.118,0,.482,0,0.6a7.834,7.834,0,0,1-12,6.6h0.6a6.14,6.14,0,0,0,3.6-1.2,3.31,3.31,0,0,1-3-1.8,1.854,1.854,0,0,0,1.2,0c0.25-.075.18-0.07,0.42-0.133A2.793,2.793,0,0,1,1814,23.2a0.078,0.078,0,0,1,.01-0.009,2.911,2.911,0,0,0,1.19.61,2.689,2.689,0,0,1-1.19-2.251,2.944,2.944,0,0,1,.59-1.349,6.771,6.771,0,0,0,5.4,2.4V22a2.156,2.156,0,0,1,2.4-2.4,2.127,2.127,0,0,1,1.8.6,5.666,5.666,0,0,0,1.8-.6,3.437,3.437,0,0,1-1.2,1.8,7.286,7.286,0,0,0,1.8-.6A4.129,4.129,0,0,1,1825.4,22Zm-5.4-7.781A10.781,10.781,0,1,1,1809.22,25,10.783,10.783,0,0,1,1820,14.218Z" transform="translate(-1808 -13)"/>
</svg>
