<svg 
 xmlns="http://www.w3.org/2000/svg"
 xmlns:xlink="http://www.w3.org/1999/xlink"
 width="24px" height="24px">
<path fill-rule="evenodd"  fill="rgb(255, 255, 255)"
 d="M12.000,24.000 C5.373,24.000 -0.000,18.627 -0.000,12.000 C-0.000,5.372 5.373,-0.000 12.000,-0.000 C18.627,-0.000 24.000,5.372 24.000,12.000 C24.000,18.627 18.627,24.000 12.000,24.000 ZM12.000,1.218 C6.046,1.218 1.219,6.045 1.219,12.000 C1.219,17.954 6.046,22.781 12.000,22.781 C17.954,22.781 22.781,17.954 22.781,12.000 C22.781,6.045 17.954,1.218 12.000,1.218 ZM14.967,17.988 L9.032,17.988 C7.366,17.988 6.011,16.633 6.011,14.967 L6.011,9.032 C6.011,7.366 7.366,6.010 9.032,6.010 L14.967,6.010 C16.634,6.010 17.989,7.366 17.989,9.032 L17.989,14.967 C17.989,16.633 16.634,17.988 14.967,17.988 ZM16.794,8.961 C16.794,7.992 16.005,7.204 15.036,7.204 L8.962,7.204 C7.993,7.204 7.204,7.992 7.204,8.961 L7.204,15.035 C7.204,16.005 7.993,16.794 8.962,16.794 L15.036,16.794 C16.005,16.794 16.794,16.005 16.794,15.035 L16.794,8.961 ZM15.002,9.597 C14.674,9.597 14.408,9.327 14.408,8.996 C14.408,8.664 14.674,8.394 15.002,8.394 C15.329,8.394 15.595,8.664 15.595,8.996 C15.595,9.327 15.329,9.597 15.002,9.597 ZM12.000,15.006 C10.342,15.006 8.994,13.657 8.994,11.999 C8.994,10.342 10.342,8.993 12.000,8.993 C13.657,8.993 15.006,10.342 15.006,11.999 C15.006,13.657 13.657,15.006 12.000,15.006 ZM12.000,10.198 C11.007,10.198 10.198,11.006 10.198,11.999 C10.198,12.993 11.007,13.801 12.000,13.801 C12.993,13.801 13.801,12.993 13.801,11.999 C13.801,11.006 12.993,10.198 12.000,10.198 Z"/>
</svg>