<svg 
 xmlns="http://www.w3.org/2000/svg"
 xmlns:xlink="http://www.w3.org/1999/xlink"
 width="24px" height="24px">
<path fill-rule="evenodd" 
 d="M12.000,24.000 C5.372,24.000 -0.000,18.627 -0.000,12.000 C-0.000,5.372 5.372,-0.000 12.000,-0.000 C18.627,-0.000 24.000,5.372 24.000,12.000 C24.000,18.627 18.627,24.000 12.000,24.000 ZM12.000,1.218 C6.046,1.218 1.219,6.045 1.219,12.000 C1.219,17.954 6.046,22.781 12.000,22.781 C17.954,22.781 22.781,17.954 22.781,12.000 C22.781,6.045 17.954,1.218 12.000,1.218 ZM16.935,12.236 C16.741,12.541 16.772,12.936 17.011,13.207 L19.100,15.440 C19.326,15.737 19.142,16.199 18.798,16.199 L16.542,16.199 C16.196,16.199 15.861,16.062 15.607,15.817 L14.957,15.190 C14.223,14.524 13.921,14.408 13.619,14.408 C13.318,14.408 13.200,14.444 13.200,14.999 C13.200,15.555 13.141,16.199 11.453,16.199 C9.765,16.199 8.414,15.440 6.940,13.333 C5.467,11.227 4.812,8.962 4.812,8.962 C4.731,8.679 4.927,8.391 5.201,8.391 L6.943,8.391 C7.274,8.391 7.576,8.598 7.715,8.924 C7.858,9.258 8.103,9.774 8.523,10.538 C9.118,11.620 9.601,11.734 9.928,11.955 C10.049,12.038 10.203,11.936 10.203,11.775 L10.200,9.599 C10.200,9.253 10.107,8.587 9.892,8.325 L9.634,8.013 C9.568,7.932 9.622,7.807 9.723,7.807 L12.437,7.807 C12.854,7.807 13.192,8.181 13.192,8.643 L13.191,11.814 C13.191,11.995 13.429,12.066 13.529,11.915 L15.786,8.799 C15.942,8.545 16.206,8.392 16.488,8.392 L18.810,8.392 C19.127,8.392 19.320,8.770 19.151,9.060 L16.935,12.236 Z"/>
</svg>