<svg xmlns="http://www.w3.org/2000/svg" width="21" height="24" viewBox="0 0 21 24">
  <path d="M24.625,16.976l-.092-.054a.747.747,0,0,0-.7-1.319l-.852.421-.839-.484,1.724-.606a.75.75,0,0,0-.5-1.415l-2.936,1.034-.208-.12.659-.749a.71.71,0,0,0,.086-.12.75.75,0,0,0-1.213-.869l-.856.974-1.022-.589V10.921l1.022-.589.856.975a.75.75,0,0,0,1.213-.869.731.731,0,0,0-.086-.12l-.658-.749.208-.12,2.936,1.034a.75.75,0,0,0,.5-1.415L22.14,8.46l.839-.484.852.421a.747.747,0,0,0,.7-1.319l.092-.054a.75.75,0,0,0-.75-1.3l-.09.052a.748.748,0,0,0-1.5-.05l-.061.949-.839.484.336-1.8a.75.75,0,1,0-1.474-.276l-.573,3.059-.208.12-.32-.945A.75.75,0,0,0,17.73,7.8l.416,1.228-1.035.6L15.25,8.565v-1.2l1.272-.254a.75.75,0,0,0-.295-1.471l-.978.2v-.24L17.613,3.57a.75.75,0,0,0-.976-1.139L15.25,3.619V2.651l.791-.527A.748.748,0,0,0,15.25.854V.75a.75.75,0,0,0-1.5,0v.1a.748.748,0,0,0-.791,1.27l.791.527v.968L12.363,2.43a.75.75,0,0,0-.976,1.139L13.75,5.595v.24l-.978-.2a.75.75,0,1,0-.294,1.471l1.272.254v1.2L11.888,9.628l-1.034-.6L11.269,7.8a.75.75,0,1,0-1.42-.481l-.32.945-.208-.12L8.748,5.088a.75.75,0,0,0-1.475.276l.336,1.8-.838-.484L6.71,5.727a.748.748,0,0,0-1.5.05l-.09-.051a.75.75,0,0,0-.75,1.3l.093.054a.747.747,0,0,0,.7,1.319l.852-.421.838.484-1.723.607a.75.75,0,0,0,.5,1.415L8.571,9.448l.208.12-.658.749a.734.734,0,0,0-.087.12.75.75,0,0,0,1.213.869l.857-.975,1.021.589v2.158l-1.021.588-.857-.974a.75.75,0,0,0-1.213.869.718.718,0,0,0,.087.12l.658.749-.208.12L5.635,13.519a.75.75,0,0,0-.5,1.415l1.723.606-.838.484L5.169,15.6a.75.75,0,0,0-.981,1.048.741.741,0,0,0,.28.271l-.093.053a.75.75,0,1,0,.75,1.3l.09-.052a.748.748,0,0,0,1.5.05l.061-.949.838-.484-.336,1.8a.75.75,0,0,0,1.474.276l.573-3.059.208-.12.32.945A.75.75,0,1,0,11.27,16.2l-.416-1.229,1.034-.6,1.861,1.064v1.2l-1.272.254a.75.75,0,1,0,.294,1.471l.978-.2v.24L11.387,20.43a.75.75,0,1,0,.976,1.139l1.387-1.188v.968l-.791.527a.748.748,0,0,0,.791,1.27v.1a.75.75,0,0,0,1.5,0v-.107a.747.747,0,0,0,.791-1.267l-.791-.527v-.968l1.387,1.189a.75.75,0,1,0,.977-1.139L15.25,18.4v-.24l.978.2a.717.717,0,0,0,.148.015.75.75,0,0,0,.147-1.485l-1.272-.254v-1.2l1.862-1.064,1.035.6L17.731,16.2a.75.75,0,1,0,1.421.481l.32-.945.208.12.573,3.059a.75.75,0,0,0,1.475-.276l-.336-1.8.838.484.061.949a.748.748,0,0,0,1.5-.05l.09.053a.75.75,0,1,0,.75-1.3Zm-12-3.911v-2.13L14.5,9.864l1.875,1.071v2.13L14.5,14.136Z" transform="translate(-4)" fill="#fff"/>
</svg>
